G04*
G04 #@! TF.GenerationSoftware,Altium Limited,Altium Designer,22.2.1 (43)*
G04*
G04 Layer_Color=16711935*
%FSLAX25Y25*%
%MOIN*%
G70*
G04*
G04 #@! TF.SameCoordinates,9D487286-0820-45C8-B7CC-BF608446F30D*
G04*
G04*
G04 #@! TF.FilePolarity,Negative*
G04*
G01*
G75*
%ADD17C,0.00100*%
%ADD44C,0.08200*%
%ADD45R,0.08200X0.08200*%
%ADD46C,0.23748*%
%ADD47C,0.05091*%
%ADD62R,0.04816X0.09540*%
D17*
X100000Y105000D02*
G03*
X105000Y100000I5000J0D01*
G01*
X353000D02*
G03*
X358000Y105000I0J5000D01*
G01*
Y247953D02*
G03*
X353000Y252953I-5000J0D01*
G01*
X105000D02*
G03*
X100000Y247953I0J-5000D01*
G01*
Y105000D02*
Y108661D01*
X105000Y100000D02*
X108661D01*
X348031D02*
X353000D01*
X358000Y105000D02*
Y109968D01*
Y240425D02*
Y247953D01*
X345472Y252953D02*
X353000D01*
X105000D02*
X111221D01*
X100000Y241732D02*
Y247953D01*
X108661Y100000D02*
X348031D01*
X358000Y109968D02*
Y240425D01*
X100000Y108661D02*
Y241732D01*
X111221Y252953D02*
X345472D01*
D44*
X169291Y244094D02*
D03*
X159291D02*
D03*
X149291D02*
D03*
X215394Y234095D02*
D03*
X225394D02*
D03*
X235394D02*
D03*
X215394Y244094D02*
D03*
X225394D02*
D03*
D45*
X179291D02*
D03*
X235394D02*
D03*
D46*
X114000Y125000D02*
D03*
X342347Y125000D02*
D03*
D47*
X138173D02*
D03*
X318173D02*
D03*
D62*
X323173Y136122D02*
D03*
Y113878D02*
D03*
X313173Y136122D02*
D03*
Y113878D02*
D03*
X303173Y136122D02*
D03*
Y113878D02*
D03*
X293173Y136122D02*
D03*
Y113878D02*
D03*
X283173Y136122D02*
D03*
Y113878D02*
D03*
X273173Y136122D02*
D03*
Y113878D02*
D03*
X263173Y136122D02*
D03*
Y113878D02*
D03*
X253173Y136122D02*
D03*
Y113878D02*
D03*
X243173Y136122D02*
D03*
Y113878D02*
D03*
X233173Y136122D02*
D03*
Y113878D02*
D03*
X223173Y136122D02*
D03*
Y113878D02*
D03*
X213173Y136122D02*
D03*
Y113878D02*
D03*
X203173Y136122D02*
D03*
Y113878D02*
D03*
X193173Y136122D02*
D03*
Y113878D02*
D03*
X183173Y136122D02*
D03*
Y113878D02*
D03*
X173173Y136122D02*
D03*
Y113878D02*
D03*
X163173Y136122D02*
D03*
Y113878D02*
D03*
X153173Y136122D02*
D03*
Y113878D02*
D03*
X143173Y136122D02*
D03*
Y113878D02*
D03*
X133173Y136122D02*
D03*
Y113878D02*
D03*
M02*
