G04*
G04 #@! TF.GenerationSoftware,Altium Limited,Altium Designer,22.2.1 (43)*
G04*
G04 Layer_Color=65535*
%FSLAX25Y25*%
%MOIN*%
G70*
G04*
G04 #@! TF.SameCoordinates,9D487286-0820-45C8-B7CC-BF608446F30D*
G04*
G04*
G04 #@! TF.FilePolarity,Positive*
G04*
G01*
G75*
%ADD10C,0.03150*%
%ADD11C,0.00984*%
%ADD12C,0.00787*%
%ADD13C,0.00600*%
%ADD14C,0.01000*%
%ADD15C,0.00800*%
%ADD16C,0.00500*%
%ADD17C,0.00100*%
G36*
X111465Y173775D02*
X111493D01*
Y173747D01*
X111521D01*
Y173719D01*
X111549D01*
Y173691D01*
X111577D01*
Y173663D01*
X111605D01*
Y173635D01*
X111634D01*
Y173607D01*
X111662D01*
Y173578D01*
X111690D01*
Y173550D01*
X111718D01*
Y173522D01*
X111746D01*
Y173494D01*
X111774D01*
Y173466D01*
X111802D01*
Y173438D01*
X111831D01*
Y173409D01*
X111859D01*
Y173381D01*
X111887D01*
Y173353D01*
X111915D01*
Y173325D01*
X111943D01*
Y173297D01*
X111971D01*
Y173269D01*
X112000D01*
Y173240D01*
X112028D01*
Y173212D01*
X112056D01*
Y173184D01*
X112084D01*
Y173156D01*
X112112D01*
Y173128D01*
X112140D01*
Y173100D01*
X112169D01*
Y173072D01*
X112197D01*
Y173043D01*
X112225D01*
Y173015D01*
X112253D01*
Y172959D01*
X112225D01*
Y172931D01*
X112197D01*
Y172903D01*
X112169D01*
Y172846D01*
X112140D01*
Y172818D01*
X112112D01*
Y172790D01*
X112084D01*
Y172733D01*
X112056D01*
Y172705D01*
X112028D01*
Y172649D01*
X112000D01*
Y172621D01*
X111971D01*
Y172565D01*
X111943D01*
Y172508D01*
X111915D01*
Y172452D01*
X111887D01*
Y172368D01*
X111859D01*
Y172283D01*
X111831D01*
Y172198D01*
X111802D01*
Y172058D01*
X111774D01*
Y171776D01*
X111746D01*
Y171720D01*
X111774D01*
Y171466D01*
X111802D01*
Y171326D01*
X111831D01*
Y171213D01*
X111859D01*
Y171128D01*
X111887D01*
Y171072D01*
X111915D01*
Y171016D01*
X111943D01*
Y170959D01*
X111971D01*
Y170903D01*
X112000D01*
Y170847D01*
X112028D01*
Y170791D01*
X112056D01*
Y170762D01*
X112084D01*
Y170734D01*
X112112D01*
Y170678D01*
X112140D01*
Y170650D01*
X112169D01*
Y170622D01*
X112197D01*
Y170593D01*
X112225D01*
Y170565D01*
X112253D01*
Y170537D01*
X112281D01*
Y170509D01*
X112253D01*
Y170481D01*
X112225D01*
Y170453D01*
X112197D01*
Y170424D01*
X112169D01*
Y170396D01*
X112140D01*
Y170368D01*
X112112D01*
Y170340D01*
X112084D01*
Y170312D01*
X112056D01*
Y170284D01*
X112028D01*
Y170255D01*
X112000D01*
Y170227D01*
X111971D01*
Y170199D01*
X111943D01*
Y170171D01*
X111915D01*
Y170143D01*
X111887D01*
Y170115D01*
X111859D01*
Y170087D01*
X111831D01*
Y170058D01*
X111802D01*
Y170030D01*
X111774D01*
Y169974D01*
X111746D01*
Y169946D01*
X111718D01*
Y169918D01*
X111690D01*
Y169889D01*
X111662D01*
Y169861D01*
X111634D01*
Y169833D01*
X111605D01*
Y169805D01*
X111577D01*
Y169777D01*
X111549D01*
Y169749D01*
X111521D01*
Y169720D01*
X111493D01*
Y169692D01*
X111436D01*
Y169720D01*
X111408D01*
Y169749D01*
X111380D01*
Y169777D01*
X111352D01*
Y169805D01*
X111324D01*
Y169833D01*
X111296D01*
Y169861D01*
X111267D01*
Y169889D01*
X111239D01*
Y169918D01*
X111211D01*
Y169974D01*
X111183D01*
Y170002D01*
X111155D01*
Y170058D01*
X111127D01*
Y170087D01*
X111099D01*
Y170115D01*
X111070D01*
Y170171D01*
X111042D01*
Y170199D01*
X111014D01*
Y170255D01*
X110986D01*
Y170312D01*
X110958D01*
Y170340D01*
X110930D01*
Y170396D01*
X110901D01*
Y170453D01*
X110873D01*
Y170509D01*
X110845D01*
Y170565D01*
X110817D01*
Y170650D01*
X110789D01*
Y170706D01*
X110760D01*
Y170791D01*
X110732D01*
Y170875D01*
X110704D01*
Y170988D01*
X110676D01*
Y171100D01*
X110648D01*
Y171213D01*
X110620D01*
Y171410D01*
X110592D01*
Y172086D01*
X110620D01*
Y172311D01*
X110648D01*
Y172424D01*
X110676D01*
Y172536D01*
X110704D01*
Y172621D01*
X110732D01*
Y172705D01*
X110760D01*
Y172790D01*
X110789D01*
Y172874D01*
X110817D01*
Y172931D01*
X110845D01*
Y172987D01*
X110873D01*
Y173043D01*
X110901D01*
Y173100D01*
X110930D01*
Y173156D01*
X110958D01*
Y173212D01*
X110986D01*
Y173240D01*
X111014D01*
Y173297D01*
X111042D01*
Y173353D01*
X111070D01*
Y173381D01*
X111099D01*
Y173438D01*
X111127D01*
Y173466D01*
X111155D01*
Y173494D01*
X111183D01*
Y173550D01*
X111211D01*
Y173578D01*
X111239D01*
Y173607D01*
X111267D01*
Y173635D01*
X111296D01*
Y173663D01*
X111324D01*
Y173719D01*
X111352D01*
Y173747D01*
X111380D01*
Y173775D01*
X111408D01*
Y173804D01*
X111465D01*
Y173775D01*
D02*
G37*
G36*
X109803Y175409D02*
X109831D01*
Y175381D01*
X109859D01*
Y175352D01*
X109888D01*
Y175324D01*
X109916D01*
Y175296D01*
X109944D01*
Y175268D01*
X109972D01*
Y175240D01*
X110000D01*
Y175212D01*
X110028D01*
Y175183D01*
X110056D01*
Y175155D01*
X110085D01*
Y175127D01*
X110113D01*
Y175099D01*
X110141D01*
Y175071D01*
X110169D01*
Y175043D01*
X110197D01*
Y175014D01*
X110225D01*
Y174986D01*
X110254D01*
Y174958D01*
X110282D01*
Y174930D01*
X110310D01*
Y174902D01*
X110338D01*
Y174874D01*
X110366D01*
Y174846D01*
X110395D01*
Y174817D01*
X110423D01*
Y174789D01*
X110451D01*
Y174761D01*
X110479D01*
Y174733D01*
X110507D01*
Y174705D01*
X110535D01*
Y174677D01*
X110563D01*
Y174648D01*
X110592D01*
Y174592D01*
X110563D01*
Y174564D01*
X110535D01*
Y174536D01*
X110507D01*
Y174508D01*
X110479D01*
Y174451D01*
X110451D01*
Y174423D01*
X110423D01*
Y174395D01*
X110395D01*
Y174367D01*
X110366D01*
Y174339D01*
X110338D01*
Y174311D01*
X110310D01*
Y174254D01*
X110282D01*
Y174226D01*
X110254D01*
Y174198D01*
X110225D01*
Y174142D01*
X110197D01*
Y174113D01*
X110169D01*
Y174085D01*
X110141D01*
Y174029D01*
X110113D01*
Y174001D01*
X110085D01*
Y173944D01*
X110056D01*
Y173916D01*
X110028D01*
Y173860D01*
X110000D01*
Y173804D01*
X109972D01*
Y173747D01*
X109944D01*
Y173719D01*
X109916D01*
Y173663D01*
X109888D01*
Y173607D01*
X109859D01*
Y173550D01*
X109831D01*
Y173494D01*
X109803D01*
Y173409D01*
X109775D01*
Y173353D01*
X109747D01*
Y173297D01*
X109719D01*
Y173240D01*
X109690D01*
Y173156D01*
X109662D01*
Y173072D01*
X109634D01*
Y172987D01*
X109606D01*
Y172903D01*
X109578D01*
Y172790D01*
X109550D01*
Y172677D01*
X109521D01*
Y172536D01*
X109493D01*
Y172368D01*
X109465D01*
Y172170D01*
X109437D01*
Y171326D01*
X109465D01*
Y171128D01*
X109493D01*
Y170959D01*
X109521D01*
Y170847D01*
X109550D01*
Y170734D01*
X109578D01*
Y170622D01*
X109606D01*
Y170537D01*
X109634D01*
Y170453D01*
X109662D01*
Y170368D01*
X109690D01*
Y170284D01*
X109719D01*
Y170199D01*
X109747D01*
Y170143D01*
X109775D01*
Y170087D01*
X109803D01*
Y170030D01*
X109831D01*
Y169974D01*
X109859D01*
Y169918D01*
X109888D01*
Y169833D01*
X109916D01*
Y169805D01*
X109944D01*
Y169749D01*
X109972D01*
Y169692D01*
X110000D01*
Y169664D01*
X110028D01*
Y169608D01*
X110056D01*
Y169552D01*
X110085D01*
Y169523D01*
X110113D01*
Y169467D01*
X110141D01*
Y169439D01*
X110169D01*
Y169411D01*
X110197D01*
Y169354D01*
X110225D01*
Y169326D01*
X110254D01*
Y169270D01*
X110282D01*
Y169242D01*
X110310D01*
Y169214D01*
X110338D01*
Y169157D01*
X110366D01*
Y169129D01*
X110395D01*
Y169101D01*
X110423D01*
Y169073D01*
X110451D01*
Y169045D01*
X110479D01*
Y169016D01*
X110507D01*
Y168988D01*
X110535D01*
Y168960D01*
X110563D01*
Y168932D01*
X110592D01*
Y168904D01*
X110620D01*
Y168819D01*
X110592D01*
Y168791D01*
X110563D01*
Y168763D01*
X110535D01*
Y168735D01*
X110507D01*
Y168707D01*
X110479D01*
Y168678D01*
X110451D01*
Y168650D01*
X110423D01*
Y168622D01*
X110395D01*
Y168594D01*
X110366D01*
Y168566D01*
X110338D01*
Y168538D01*
X110310D01*
Y168510D01*
X110282D01*
Y168481D01*
X110254D01*
Y168453D01*
X110225D01*
Y168425D01*
X110197D01*
Y168397D01*
X110169D01*
Y168369D01*
X110141D01*
Y168341D01*
X110113D01*
Y168312D01*
X110085D01*
Y168284D01*
X110056D01*
Y168256D01*
X110028D01*
Y168228D01*
X110000D01*
Y168200D01*
X109972D01*
Y168172D01*
X109944D01*
Y168143D01*
X109916D01*
Y168115D01*
X109888D01*
Y168087D01*
X109859D01*
Y168059D01*
X109831D01*
Y168031D01*
X109775D01*
Y168087D01*
X109747D01*
Y168115D01*
X109719D01*
Y168143D01*
X109690D01*
Y168172D01*
X109662D01*
Y168200D01*
X109634D01*
Y168228D01*
X109606D01*
Y168256D01*
X109578D01*
Y168284D01*
X109550D01*
Y168312D01*
X109521D01*
Y168341D01*
X109493D01*
Y168369D01*
X109465D01*
Y168425D01*
X109437D01*
Y168453D01*
X109409D01*
Y168481D01*
X109381D01*
Y168510D01*
X109353D01*
Y168566D01*
X109324D01*
Y168594D01*
X109296D01*
Y168622D01*
X109268D01*
Y168678D01*
X109240D01*
Y168707D01*
X109212D01*
Y168763D01*
X109184D01*
Y168791D01*
X109155D01*
Y168819D01*
X109127D01*
Y168876D01*
X109099D01*
Y168904D01*
X109071D01*
Y168960D01*
X109043D01*
Y169016D01*
X109015D01*
Y169045D01*
X108986D01*
Y169101D01*
X108958D01*
Y169157D01*
X108930D01*
Y169185D01*
X108902D01*
Y169242D01*
X108874D01*
Y169298D01*
X108846D01*
Y169354D01*
X108818D01*
Y169411D01*
X108789D01*
Y169467D01*
X108761D01*
Y169523D01*
X108733D01*
Y169580D01*
X108705D01*
Y169664D01*
X108677D01*
Y169720D01*
X108649D01*
Y169777D01*
X108620D01*
Y169861D01*
X108592D01*
Y169946D01*
X108564D01*
Y170002D01*
X108536D01*
Y170087D01*
X108508D01*
Y170171D01*
X108480D01*
Y170284D01*
X108451D01*
Y170368D01*
X108423D01*
Y170481D01*
X108395D01*
Y170593D01*
X108367D01*
Y170734D01*
X108339D01*
Y170875D01*
X108311D01*
Y171072D01*
X108282D01*
Y171354D01*
X108254D01*
Y172142D01*
X108282D01*
Y172452D01*
X108311D01*
Y172621D01*
X108339D01*
Y172790D01*
X108367D01*
Y172903D01*
X108395D01*
Y173043D01*
X108423D01*
Y173128D01*
X108451D01*
Y173240D01*
X108480D01*
Y173325D01*
X108508D01*
Y173409D01*
X108536D01*
Y173494D01*
X108564D01*
Y173578D01*
X108592D01*
Y173663D01*
X108620D01*
Y173719D01*
X108649D01*
Y173775D01*
X108677D01*
Y173860D01*
X108705D01*
Y173916D01*
X108733D01*
Y173973D01*
X108761D01*
Y174029D01*
X108789D01*
Y174085D01*
X108818D01*
Y174142D01*
X108846D01*
Y174198D01*
X108874D01*
Y174254D01*
X108902D01*
Y174311D01*
X108930D01*
Y174367D01*
X108958D01*
Y174395D01*
X108986D01*
Y174451D01*
X109015D01*
Y174508D01*
X109043D01*
Y174536D01*
X109071D01*
Y174592D01*
X109099D01*
Y174648D01*
X109127D01*
Y174677D01*
X109155D01*
Y174705D01*
X109184D01*
Y174761D01*
X109212D01*
Y174789D01*
X109240D01*
Y174846D01*
X109268D01*
Y174874D01*
X109296D01*
Y174902D01*
X109324D01*
Y174958D01*
X109353D01*
Y174986D01*
X109381D01*
Y175014D01*
X109409D01*
Y175043D01*
X109437D01*
Y175099D01*
X109465D01*
Y175127D01*
X109493D01*
Y175155D01*
X109521D01*
Y175183D01*
X109550D01*
Y175212D01*
X109578D01*
Y175268D01*
X109606D01*
Y175296D01*
X109634D01*
Y175324D01*
X109662D01*
Y175352D01*
X109690D01*
Y175381D01*
X109719D01*
Y175409D01*
X109747D01*
Y175437D01*
X109803D01*
Y175409D01*
D02*
G37*
G36*
X120729Y171128D02*
X120701D01*
Y171100D01*
X115660D01*
Y172396D01*
X120025D01*
Y175493D01*
X120729D01*
Y171128D01*
D02*
G37*
G36*
X114280Y172565D02*
X114365D01*
Y172536D01*
X114450D01*
Y172508D01*
X114506D01*
Y172480D01*
X114534D01*
Y172452D01*
X114590D01*
Y172424D01*
X114618D01*
Y172396D01*
X114647D01*
Y172368D01*
X114675D01*
Y172339D01*
X114703D01*
Y172311D01*
X114731D01*
Y172283D01*
X114759D01*
Y172255D01*
X114787D01*
Y172198D01*
X114815D01*
Y172170D01*
X114844D01*
Y172114D01*
X114872D01*
Y172058D01*
X114900D01*
Y171945D01*
X114928D01*
Y171523D01*
X114900D01*
Y171466D01*
Y171438D01*
Y171410D01*
X114872D01*
Y171354D01*
X114844D01*
Y171297D01*
X114815D01*
Y171269D01*
X114787D01*
Y171213D01*
X114759D01*
Y171185D01*
X114731D01*
Y171157D01*
X114703D01*
Y171128D01*
X114675D01*
Y171100D01*
X114647D01*
Y171072D01*
X114618D01*
Y171044D01*
X114590D01*
Y171016D01*
X114534D01*
Y170988D01*
X114506D01*
Y170959D01*
X114450D01*
Y170931D01*
X114365D01*
Y170903D01*
X114280D01*
Y170875D01*
X113858D01*
Y170903D01*
X113774D01*
Y170931D01*
X113689D01*
Y170959D01*
X113633D01*
Y170988D01*
X113605D01*
Y171016D01*
X113548D01*
Y171044D01*
X113520D01*
Y171072D01*
X113492D01*
Y171100D01*
X113464D01*
Y171128D01*
X113436D01*
Y171157D01*
X113408D01*
Y171185D01*
X113379D01*
Y171213D01*
X113351D01*
Y171269D01*
X113323D01*
Y171326D01*
X113295D01*
Y171354D01*
X113267D01*
Y171438D01*
X113239D01*
Y171523D01*
X113210D01*
Y171945D01*
X113239D01*
Y172029D01*
X113267D01*
Y172086D01*
X113295D01*
Y172142D01*
X113323D01*
Y172198D01*
X113351D01*
Y172227D01*
X113379D01*
Y172283D01*
X113408D01*
Y172311D01*
X113436D01*
Y172339D01*
X113464D01*
Y172368D01*
X113492D01*
Y172396D01*
X113520D01*
Y172424D01*
X113548D01*
Y172452D01*
X113605D01*
Y172480D01*
X113661D01*
Y172508D01*
X113689D01*
Y172536D01*
X113774D01*
Y172565D01*
X113858D01*
Y172593D01*
X114280D01*
Y172565D01*
D02*
G37*
G36*
X120448Y169805D02*
X120476D01*
Y169720D01*
X120504D01*
Y169636D01*
X120532D01*
Y169552D01*
X120560D01*
Y169439D01*
X120588D01*
Y169354D01*
X120616D01*
Y169242D01*
X120645D01*
Y169129D01*
X120673D01*
Y169016D01*
X120701D01*
Y168904D01*
X120729D01*
Y168791D01*
X120757D01*
Y168650D01*
X120785D01*
Y168510D01*
X120814D01*
Y168312D01*
X120842D01*
Y168059D01*
X120870D01*
Y167383D01*
X120842D01*
Y167186D01*
X120814D01*
Y167017D01*
X120785D01*
Y166904D01*
X120757D01*
Y166792D01*
X120729D01*
Y166707D01*
X120701D01*
Y166623D01*
X120673D01*
Y166538D01*
X120645D01*
Y166454D01*
X120616D01*
Y166398D01*
X120588D01*
Y166341D01*
X120560D01*
Y166285D01*
X120532D01*
Y166229D01*
X120504D01*
Y166172D01*
X120476D01*
Y166116D01*
X120448D01*
Y166060D01*
X120419D01*
Y166032D01*
X120391D01*
Y165975D01*
X120363D01*
Y165947D01*
X120335D01*
Y165891D01*
X120307D01*
Y165834D01*
X120279D01*
Y165806D01*
X120250D01*
Y165778D01*
X120222D01*
Y165722D01*
X120194D01*
Y165694D01*
X120166D01*
Y165665D01*
X120138D01*
Y165637D01*
X120110D01*
Y165581D01*
X120081D01*
Y165553D01*
X120053D01*
Y165525D01*
X120025D01*
Y165497D01*
X119997D01*
Y165468D01*
X119969D01*
Y165440D01*
X119941D01*
Y165412D01*
X119913D01*
Y165384D01*
X119884D01*
Y165356D01*
X119856D01*
Y165328D01*
X119828D01*
Y165299D01*
X119800D01*
Y165271D01*
X119772D01*
Y165243D01*
X119744D01*
Y165215D01*
X119715D01*
Y165187D01*
X119687D01*
Y165158D01*
X119631D01*
Y165130D01*
X119603D01*
Y165102D01*
X119574D01*
Y165074D01*
X119546D01*
Y165046D01*
X119518D01*
Y165018D01*
X119462D01*
Y164990D01*
X119434D01*
Y164961D01*
X119377D01*
Y164933D01*
X119349D01*
Y164905D01*
X119321D01*
Y164877D01*
X119265D01*
Y164849D01*
X119209D01*
Y164821D01*
X119180D01*
Y164793D01*
X119124D01*
Y164764D01*
X119068D01*
Y164736D01*
X119011D01*
Y164708D01*
X118983D01*
Y164680D01*
X118927D01*
Y164652D01*
X118871D01*
Y164623D01*
X118786D01*
Y164595D01*
X118730D01*
Y164567D01*
X118673D01*
Y164539D01*
X118589D01*
Y164511D01*
X118505D01*
Y164483D01*
X118420D01*
Y164455D01*
X118335D01*
Y164426D01*
X118223D01*
Y164398D01*
X118110D01*
Y164370D01*
X117969D01*
Y164342D01*
X117772D01*
Y164314D01*
X117463D01*
Y164286D01*
X117012D01*
Y164314D01*
X116702D01*
Y164342D01*
X116477D01*
Y164370D01*
X116364D01*
Y164398D01*
X116252D01*
Y164426D01*
X116139D01*
Y164455D01*
X116055D01*
Y164483D01*
X115970D01*
Y164511D01*
X115886D01*
Y164539D01*
X115801D01*
Y164567D01*
X115745D01*
Y164595D01*
X115660D01*
Y164623D01*
X115604D01*
Y164652D01*
X115548D01*
Y164680D01*
X115491D01*
Y164708D01*
X115435D01*
Y164736D01*
X115379D01*
Y164764D01*
X115351D01*
Y164793D01*
X115294D01*
Y164821D01*
X115238D01*
Y164849D01*
X115182D01*
Y164877D01*
X115154D01*
Y164905D01*
X115125D01*
Y164933D01*
X115069D01*
Y164961D01*
X115041D01*
Y164990D01*
X114985D01*
Y165018D01*
X114956D01*
Y165046D01*
X114928D01*
Y165074D01*
X114872D01*
Y165102D01*
X114844D01*
Y165130D01*
X114815D01*
Y165158D01*
X114787D01*
Y165187D01*
X114759D01*
Y165215D01*
X114731D01*
Y165243D01*
X114675D01*
Y165271D01*
X114647D01*
Y165299D01*
X114618D01*
Y165328D01*
X114590D01*
Y165356D01*
X114562D01*
Y165384D01*
X114534D01*
Y165412D01*
X114506D01*
Y165440D01*
X114478D01*
Y165468D01*
X114450D01*
Y165525D01*
X114421D01*
Y165553D01*
X114393D01*
Y165581D01*
X114365D01*
Y165609D01*
X114337D01*
Y165637D01*
X114309D01*
Y165665D01*
X114280D01*
Y165722D01*
X114252D01*
Y165750D01*
X114224D01*
Y165778D01*
X114196D01*
Y165806D01*
X114168D01*
Y165863D01*
X114140D01*
Y165891D01*
X114112D01*
Y165947D01*
X114083D01*
Y165975D01*
X114055D01*
Y166032D01*
X114027D01*
Y166088D01*
X113999D01*
Y166116D01*
X113971D01*
Y166172D01*
X113943D01*
Y166229D01*
X113914D01*
Y166285D01*
X113886D01*
Y166341D01*
X113858D01*
Y166398D01*
X113830D01*
Y166454D01*
X113802D01*
Y166538D01*
X113774D01*
Y166595D01*
X113745D01*
Y166679D01*
X113717D01*
Y166764D01*
X113689D01*
Y166876D01*
X113661D01*
Y166989D01*
X113633D01*
Y167102D01*
X113605D01*
Y167271D01*
X113576D01*
Y167552D01*
X113548D01*
Y168115D01*
X113576D01*
Y168369D01*
X113605D01*
Y168538D01*
X113633D01*
Y168678D01*
X113661D01*
Y168791D01*
X113689D01*
Y168904D01*
X113717D01*
Y169016D01*
X113745D01*
Y169101D01*
X113774D01*
Y169185D01*
X113802D01*
Y169298D01*
X113830D01*
Y169354D01*
X113858D01*
Y169439D01*
X113886D01*
Y169523D01*
X113914D01*
Y169580D01*
X113943D01*
Y169664D01*
X113971D01*
Y169720D01*
X113999D01*
Y169805D01*
X114027D01*
Y169833D01*
X115773D01*
Y169805D01*
X115745D01*
Y169749D01*
X115717D01*
Y169692D01*
X115689D01*
Y169664D01*
X115660D01*
Y169608D01*
X115632D01*
Y169552D01*
X115604D01*
Y169495D01*
X115576D01*
Y169439D01*
X115548D01*
Y169383D01*
X115519D01*
Y169326D01*
X115491D01*
Y169270D01*
X115463D01*
Y169214D01*
X115435D01*
Y169157D01*
X115407D01*
Y169101D01*
X115379D01*
Y169045D01*
X115351D01*
Y168960D01*
X115322D01*
Y168876D01*
X115294D01*
Y168819D01*
X115266D01*
Y168735D01*
X115238D01*
Y168650D01*
X115210D01*
Y168566D01*
X115182D01*
Y168453D01*
X115154D01*
Y168341D01*
X115125D01*
Y168172D01*
X115097D01*
Y167918D01*
X115069D01*
Y167693D01*
X115097D01*
Y167411D01*
X115125D01*
Y167299D01*
X115154D01*
Y167186D01*
X115182D01*
Y167102D01*
X115210D01*
Y167045D01*
X115238D01*
Y166961D01*
X115266D01*
Y166904D01*
X115294D01*
Y166848D01*
X115322D01*
Y166820D01*
X115351D01*
Y166764D01*
X115379D01*
Y166735D01*
X115407D01*
Y166679D01*
X115435D01*
Y166651D01*
X115463D01*
Y166623D01*
X115491D01*
Y166595D01*
X115519D01*
Y166567D01*
X115548D01*
Y166538D01*
X115576D01*
Y166510D01*
X115604D01*
Y166482D01*
X115632D01*
Y166454D01*
X115660D01*
Y166426D01*
X115689D01*
Y166398D01*
X115717D01*
Y166369D01*
X115745D01*
Y166341D01*
X115801D01*
Y166313D01*
X115829D01*
Y166285D01*
X115857D01*
Y166257D01*
X115914D01*
Y166229D01*
X115970D01*
Y166200D01*
X115998D01*
Y166172D01*
X116055D01*
Y166144D01*
X116111D01*
Y166116D01*
X116167D01*
Y166088D01*
X116252D01*
Y166060D01*
X116336D01*
Y166032D01*
X116421D01*
Y166003D01*
X116533D01*
Y165975D01*
X116646D01*
Y165947D01*
X116787D01*
Y165919D01*
X117181D01*
Y165891D01*
X117350D01*
Y165919D01*
X117716D01*
Y165947D01*
X117857D01*
Y165975D01*
X117969D01*
Y166003D01*
X118054D01*
Y166032D01*
X118138D01*
Y166060D01*
X118223D01*
Y166088D01*
X118279D01*
Y166116D01*
X118335D01*
Y166144D01*
X118392D01*
Y166172D01*
X118448D01*
Y166200D01*
X118505D01*
Y166229D01*
X118533D01*
Y166257D01*
X118589D01*
Y166285D01*
X118617D01*
Y166313D01*
X118645D01*
Y166341D01*
X118702D01*
Y166369D01*
X118730D01*
Y166398D01*
X118758D01*
Y166426D01*
X118786D01*
Y166454D01*
X118814D01*
Y166482D01*
X118842D01*
Y166510D01*
X118871D01*
Y166538D01*
X118899D01*
Y166567D01*
X118927D01*
Y166595D01*
X118955D01*
Y166651D01*
X118983D01*
Y166679D01*
X119011D01*
Y166707D01*
X119039D01*
Y166764D01*
X119068D01*
Y166792D01*
X119096D01*
Y166848D01*
X119124D01*
Y166904D01*
X119152D01*
Y166961D01*
X119180D01*
Y167017D01*
X119209D01*
Y167073D01*
X119237D01*
Y167158D01*
X119265D01*
Y167242D01*
X119293D01*
Y167383D01*
X119321D01*
Y167524D01*
X119349D01*
Y167862D01*
X119377D01*
Y167946D01*
X119349D01*
Y168256D01*
X119321D01*
Y168397D01*
X119293D01*
Y168538D01*
X119265D01*
Y168622D01*
X119237D01*
Y168735D01*
X119209D01*
Y168819D01*
X119180D01*
Y168876D01*
X119152D01*
Y168960D01*
X119124D01*
Y169045D01*
X119096D01*
Y169101D01*
X119068D01*
Y169157D01*
X119039D01*
Y169242D01*
X119011D01*
Y169298D01*
X118983D01*
Y169354D01*
X118955D01*
Y169411D01*
X118927D01*
Y169467D01*
X118899D01*
Y169523D01*
X118871D01*
Y169580D01*
X118842D01*
Y169636D01*
X118814D01*
Y169692D01*
X118786D01*
Y169720D01*
X118758D01*
Y169777D01*
X118730D01*
Y169833D01*
X120448D01*
Y169805D01*
D02*
G37*
G36*
X128871Y196361D02*
X125917Y195444D01*
X125920Y195388D01*
Y194666D01*
X125057D01*
Y194185D01*
X125920D01*
Y194666D01*
X128871D01*
Y193748D01*
X121887D01*
Y194185D01*
X122751D01*
Y194666D01*
X125057D01*
Y195530D01*
X125046Y195595D01*
X125035Y195672D01*
X125013Y195770D01*
X124969Y195869D01*
X124926Y195956D01*
X124860Y196044D01*
X124849Y196054D01*
X124816Y196076D01*
X124773Y196109D01*
X124707Y196153D01*
X124631Y196186D01*
X124532Y196218D01*
X124412Y196240D01*
X124281Y196251D01*
X123570D01*
X123548D01*
X123505D01*
X123439Y196240D01*
X123352Y196229D01*
X123253Y196197D01*
X123155Y196164D01*
X123057Y196109D01*
X122969Y196044D01*
X122958Y196033D01*
X122936Y196011D01*
X122904Y195956D01*
X122860Y195890D01*
X122816Y195814D01*
X122783Y195716D01*
X122762Y195595D01*
X122751Y195464D01*
Y194666D01*
X121887D01*
Y195486D01*
X121898Y195584D01*
X121909Y195716D01*
X121931Y195869D01*
X121964Y196022D01*
X122007Y196186D01*
X122073Y196339D01*
X122084Y196361D01*
X122106Y196404D01*
X122150Y196481D01*
X122215Y196568D01*
X122292Y196667D01*
X122379Y196765D01*
X122488Y196863D01*
X122619Y196951D01*
X122630Y196962D01*
X122685Y196984D01*
X122762Y197016D01*
X122860Y197060D01*
X122980Y197093D01*
X123122Y197126D01*
X123286Y197148D01*
X123472Y197158D01*
X124292D01*
X124303D01*
X124314D01*
X124379D01*
X124478Y197148D01*
X124598Y197137D01*
X124729Y197104D01*
X124882Y197071D01*
X125035Y197016D01*
X125177Y196951D01*
X125188Y196940D01*
X125232Y196907D01*
X125297Y196863D01*
X125385Y196798D01*
X125472Y196710D01*
X125560Y196601D01*
X125658Y196481D01*
X125734Y196339D01*
X125741Y196325D01*
X125483Y196240D01*
X125702Y195377D01*
X125917Y195444D01*
X125909Y195584D01*
X125888Y195770D01*
X125866Y195934D01*
X125822Y196076D01*
X125789Y196186D01*
X125767Y196273D01*
X125745Y196317D01*
X125741Y196325D01*
X128871Y197355D01*
Y196361D01*
D02*
G37*
G36*
X122762Y190950D02*
X121898D01*
Y193038D01*
X122762D01*
Y190950D01*
D02*
G37*
G36*
X128871D02*
X128008D01*
Y190513D01*
X128871D01*
Y190032D01*
X121898D01*
Y190513D01*
X122762D01*
Y190950D01*
X124980D01*
Y192797D01*
X125844D01*
Y190950D01*
X124980D01*
Y190513D01*
X125844D01*
Y190950D01*
X128008D01*
Y193038D01*
X128871D01*
Y190950D01*
D02*
G37*
G36*
X122762Y188316D02*
X122467D01*
Y187409D01*
X122762D01*
Y188316D01*
X128871D01*
Y187409D01*
X122762D01*
Y186174D01*
X121898D01*
Y189562D01*
X122762D01*
Y188316D01*
D02*
G37*
G36*
X127440Y185726D02*
X127505D01*
X127582Y185715D01*
X127757Y185682D01*
X127953Y185627D01*
X128150Y185551D01*
X128347Y185442D01*
X128522Y185299D01*
X128543Y185277D01*
X128587Y185223D01*
X128653Y185125D01*
X128729Y184982D01*
X128806Y184808D01*
X128871Y184600D01*
X128915Y184348D01*
X128937Y184064D01*
Y183977D01*
X128926Y183868D01*
X128915Y183747D01*
X128893Y183594D01*
X128860Y183441D01*
X128817Y183288D01*
X128751Y183135D01*
X128740Y183113D01*
X128718Y183070D01*
X128675Y183004D01*
X128609Y182917D01*
X128533Y182829D01*
X128445Y182731D01*
X128336Y182632D01*
X128205Y182556D01*
X128183Y182545D01*
X128139Y182523D01*
X128063Y182490D01*
X127953Y182458D01*
X127822Y182425D01*
X127669Y182392D01*
X127494Y182370D01*
X127308Y182359D01*
X126959D01*
Y183277D01*
X127276D01*
X127287D01*
X127341D01*
X127407Y183288D01*
X127483Y183299D01*
X127582Y183321D01*
X127680Y183365D01*
X127768Y183408D01*
X127855Y183474D01*
X127866Y183485D01*
X127888Y183518D01*
X127920Y183562D01*
X127953Y183627D01*
X127997Y183714D01*
X128030Y183813D01*
X128052Y183933D01*
X128063Y184064D01*
Y184119D01*
X128052Y184185D01*
X128041Y184272D01*
X128008Y184359D01*
X127975Y184447D01*
X127920Y184545D01*
X127855Y184622D01*
X127844Y184633D01*
X127811Y184654D01*
X127768Y184687D01*
X127702Y184720D01*
X127625Y184753D01*
X127527Y184786D01*
X127407Y184808D01*
X127276Y184818D01*
X126664D01*
X126653D01*
X126620D01*
X126565Y184808D01*
X126500Y184797D01*
X126347Y184764D01*
X126270Y184720D01*
X126205Y184676D01*
X126194Y184665D01*
X126172Y184654D01*
X126139Y184622D01*
X126106Y184578D01*
X126008Y184469D01*
X125909Y184316D01*
X125899Y184305D01*
X125888Y184272D01*
X125866Y184228D01*
X125833Y184174D01*
X125789Y184097D01*
X125745Y184021D01*
X125658Y183835D01*
Y183824D01*
X125636Y183791D01*
X125614Y183736D01*
X125582Y183671D01*
X125549Y183594D01*
X125505Y183507D01*
X125407Y183310D01*
X125396Y183299D01*
X125385Y183266D01*
X125352Y183223D01*
X125308Y183157D01*
X125199Y183004D01*
X125068Y182840D01*
X125057Y182829D01*
X125035Y182807D01*
X124991Y182764D01*
X124937Y182720D01*
X124860Y182654D01*
X124773Y182600D01*
X124685Y182545D01*
X124576Y182490D01*
X124565D01*
X124521Y182468D01*
X124456Y182447D01*
X124368Y182425D01*
X124270Y182403D01*
X124139Y182381D01*
X123997Y182370D01*
X123844Y182359D01*
X123439D01*
X123428D01*
X123406D01*
X123363D01*
X123308Y182370D01*
X123242D01*
X123166Y182381D01*
X122991Y182414D01*
X122794Y182468D01*
X122598Y182545D01*
X122412Y182654D01*
X122237Y182796D01*
X122215Y182818D01*
X122171Y182873D01*
X122106Y182982D01*
X122029Y183113D01*
X121953Y183299D01*
X121887Y183507D01*
X121843Y183769D01*
X121822Y184053D01*
Y184130D01*
X121833Y184185D01*
Y184250D01*
X121843Y184327D01*
X121876Y184502D01*
X121920Y184698D01*
X121996Y184906D01*
X122106Y185092D01*
X122248Y185267D01*
X122270Y185288D01*
X122324Y185332D01*
X122423Y185398D01*
X122554Y185485D01*
X122729Y185562D01*
X122936Y185627D01*
X123188Y185671D01*
X123461Y185693D01*
X123822D01*
Y184786D01*
X123494D01*
X123472D01*
X123428D01*
X123363Y184775D01*
X123275Y184764D01*
X123188Y184742D01*
X123090Y184709D01*
X122991Y184665D01*
X122915Y184600D01*
X122904Y184589D01*
X122882Y184567D01*
X122849Y184523D01*
X122805Y184458D01*
X122773Y184381D01*
X122740Y184294D01*
X122718Y184185D01*
X122707Y184053D01*
Y183988D01*
X122718Y183922D01*
X122729Y183835D01*
X122751Y183747D01*
X122794Y183649D01*
X122838Y183551D01*
X122904Y183474D01*
X122915Y183463D01*
X122936Y183441D01*
X122980Y183408D01*
X123046Y183376D01*
X123122Y183343D01*
X123210Y183310D01*
X123319Y183288D01*
X123450Y183277D01*
X123887D01*
X123898D01*
X123942D01*
X123997Y183288D01*
X124062Y183299D01*
X124226Y183343D01*
X124303Y183376D01*
X124379Y183430D01*
X124390Y183441D01*
X124412Y183463D01*
X124445Y183496D01*
X124488Y183540D01*
X124532Y183594D01*
X124587Y183660D01*
X124685Y183824D01*
Y183835D01*
X124707Y183868D01*
X124729Y183922D01*
X124762Y183988D01*
X124794Y184064D01*
X124838Y184152D01*
X124937Y184348D01*
Y184359D01*
X124959Y184392D01*
X124980Y184436D01*
X125002Y184502D01*
X125035Y184578D01*
X125079Y184665D01*
X125166Y184840D01*
Y184851D01*
X125188Y184884D01*
X125210Y184928D01*
X125254Y184982D01*
X125341Y185135D01*
X125472Y185288D01*
X125483Y185299D01*
X125505Y185321D01*
X125538Y185365D01*
X125592Y185409D01*
X125658Y185463D01*
X125745Y185518D01*
X125833Y185573D01*
X125942Y185616D01*
X125953Y185627D01*
X125997Y185638D01*
X126051Y185660D01*
X126139Y185682D01*
X126248Y185704D01*
X126368Y185715D01*
X126511Y185737D01*
X126664D01*
X127308D01*
X127319D01*
X127341D01*
X127385D01*
X127440Y185726D01*
D02*
G37*
G36*
X122762Y179605D02*
X121898D01*
Y181693D01*
X122762D01*
Y179605D01*
D02*
G37*
G36*
X128871D02*
X128008D01*
Y179168D01*
X128871D01*
Y178687D01*
X121898D01*
Y179168D01*
X122762D01*
Y179605D01*
X124980D01*
Y181452D01*
X125844D01*
Y179605D01*
X124980D01*
Y179168D01*
X125844D01*
Y179605D01*
X128008D01*
Y181693D01*
X128871D01*
Y179605D01*
D02*
G37*
G36*
X122762Y176971D02*
X122467D01*
Y176064D01*
X122762D01*
Y176971D01*
X128871D01*
Y176064D01*
X122762D01*
Y174828D01*
X121898D01*
Y178217D01*
X122762D01*
Y176971D01*
D02*
G37*
G36*
Y171604D02*
X122467D01*
Y170697D01*
X122762D01*
Y171604D01*
X128871D01*
Y170697D01*
X122762D01*
Y169462D01*
X121898D01*
Y172850D01*
X122762D01*
Y171604D01*
D02*
G37*
G36*
X128871Y168336D02*
X127352Y168049D01*
Y166517D01*
X128871Y166226D01*
Y165254D01*
X121898Y166860D01*
Y167702D01*
X128871Y169309D01*
Y168336D01*
D02*
G37*
G36*
Y163713D02*
X125866D01*
Y162325D01*
X125002D01*
Y162019D01*
X125866D01*
Y162325D01*
X128871D01*
Y161406D01*
X121898D01*
Y162325D01*
X125002D01*
Y163713D01*
X125866D01*
Y164161D01*
X125002D01*
Y163713D01*
X121898D01*
Y164631D01*
X128871D01*
Y163713D01*
D02*
G37*
G36*
X152504Y232579D02*
Y231723D01*
X146692Y229783D01*
Y230912D01*
X150573Y232151D01*
X146692Y233381D01*
Y234511D01*
X152504Y232579D01*
D02*
G37*
G36*
X151092Y229254D02*
X151156D01*
X151229Y229236D01*
X151402Y229209D01*
X151593Y229154D01*
X151785Y229072D01*
X151885Y229017D01*
X151976Y228963D01*
X152067Y228890D01*
X152149Y228808D01*
Y228799D01*
X152167Y228789D01*
X152185Y228762D01*
X152213Y228726D01*
X152240Y228680D01*
X152277Y228625D01*
X152313Y228562D01*
X152349Y228480D01*
X152395Y228398D01*
X152431Y228307D01*
X152468Y228197D01*
X152495Y228088D01*
X152541Y227842D01*
X152550Y227696D01*
X152559Y227551D01*
Y227459D01*
X152550Y227359D01*
X152532Y227232D01*
X152514Y227086D01*
X152486Y226931D01*
X152441Y226767D01*
X152377Y226612D01*
X152368Y226594D01*
X152340Y226548D01*
X152295Y226466D01*
X152231Y226375D01*
X152158Y226275D01*
X152058Y226166D01*
X151949Y226057D01*
X151821Y225956D01*
X151803Y225947D01*
X151757Y225920D01*
X151675Y225874D01*
X151575Y225829D01*
X151448Y225783D01*
X151293Y225738D01*
X151129Y225701D01*
X150937Y225683D01*
Y226822D01*
X150947D01*
X150983Y226831D01*
X151029Y226840D01*
X151092Y226858D01*
X151156Y226886D01*
X151229Y226922D01*
X151293Y226958D01*
X151356Y227013D01*
X151366Y227022D01*
X151375Y227040D01*
X151402Y227077D01*
X151429Y227132D01*
X151457Y227186D01*
X151475Y227259D01*
X151493Y227341D01*
X151502Y227432D01*
Y227487D01*
X151493Y227541D01*
X151484Y227605D01*
X151457Y227687D01*
X151429Y227769D01*
X151384Y227842D01*
X151329Y227915D01*
X151320Y227924D01*
X151293Y227942D01*
X151256Y227970D01*
X151202Y228006D01*
X151129Y228033D01*
X151047Y228061D01*
X150947Y228079D01*
X150837Y228088D01*
X150701D01*
X150682D01*
X150646D01*
X150591Y228079D01*
X150509Y228070D01*
X150427Y228052D01*
X150345Y228024D01*
X150263Y227988D01*
X150190Y227942D01*
X150181Y227933D01*
X150163Y227915D01*
X150136Y227888D01*
X150099Y227842D01*
X150063Y227787D01*
X150036Y227724D01*
X150017Y227642D01*
X150008Y227551D01*
Y227059D01*
X148951D01*
Y227587D01*
X148942Y227623D01*
X148933Y227669D01*
X148915Y227724D01*
X148888Y227778D01*
X148851Y227824D01*
X148797Y227869D01*
X148787Y227878D01*
X148769Y227888D01*
X148733Y227906D01*
X148678Y227933D01*
X148624Y227951D01*
X148542Y227970D01*
X148451Y227979D01*
X148350Y227988D01*
X148250D01*
X148241D01*
X148205D01*
X148159Y227979D01*
X148095Y227970D01*
X147968Y227933D01*
X147895Y227906D01*
X147840Y227860D01*
X147831Y227851D01*
X147813Y227833D01*
X147794Y227806D01*
X147767Y227769D01*
X147740Y227714D01*
X147713Y227660D01*
X147703Y227587D01*
X147694Y227505D01*
Y227469D01*
X147703Y227423D01*
X147713Y227377D01*
X147740Y227314D01*
X147767Y227250D01*
X147813Y227186D01*
X147867Y227122D01*
X147877Y227113D01*
X147895Y227095D01*
X147931Y227068D01*
X147986Y227040D01*
X148059Y227004D01*
X148132Y226968D01*
X148232Y226940D01*
X148341Y226913D01*
Y225783D01*
X148332D01*
X148305D01*
X148259Y225792D01*
X148205Y225801D01*
X148141Y225820D01*
X148059Y225829D01*
X147877Y225883D01*
X147667Y225956D01*
X147458Y226057D01*
X147257Y226184D01*
X147166Y226257D01*
X147075Y226348D01*
X147066Y226357D01*
X147057Y226375D01*
X147029Y226403D01*
X147002Y226439D01*
X146975Y226485D01*
X146929Y226539D01*
X146893Y226612D01*
X146847Y226685D01*
X146765Y226858D01*
X146701Y227068D01*
X146647Y227295D01*
X146638Y227423D01*
X146628Y227551D01*
Y227623D01*
X146638Y227678D01*
Y227742D01*
X146647Y227815D01*
X146674Y227988D01*
X146729Y228179D01*
X146801Y228370D01*
X146893Y228562D01*
X146956Y228653D01*
X147029Y228735D01*
Y228744D01*
X147047Y228753D01*
X147102Y228799D01*
X147193Y228871D01*
X147312Y228954D01*
X147476Y229026D01*
X147667Y229099D01*
X147886Y229145D01*
X148013Y229163D01*
X148141D01*
X148314D01*
X148332D01*
X148387D01*
X148460Y229154D01*
X148560Y229136D01*
X148669Y229108D01*
X148787Y229072D01*
X148906Y229026D01*
X149024Y228954D01*
X149033Y228944D01*
X149070Y228917D01*
X149125Y228871D01*
X149188Y228808D01*
X149261Y228726D01*
X149343Y228625D01*
X149407Y228516D01*
X149471Y228380D01*
Y228398D01*
X149489Y228452D01*
X149516Y228525D01*
X149562Y228616D01*
X149617Y228726D01*
X149689Y228826D01*
X149790Y228935D01*
X149908Y229026D01*
X149926Y229035D01*
X149972Y229063D01*
X150045Y229099D01*
X150145Y229145D01*
X150273Y229190D01*
X150427Y229227D01*
X150600Y229254D01*
X150792Y229263D01*
X150965D01*
X150974D01*
X151001D01*
X151038D01*
X151092Y229254D01*
D02*
G37*
G36*
X152504Y223925D02*
X151411D01*
Y225027D01*
X152504D01*
Y223925D01*
D02*
G37*
G36*
X151092Y223059D02*
X151156D01*
X151229Y223041D01*
X151402Y223014D01*
X151593Y222959D01*
X151785Y222877D01*
X151885Y222822D01*
X151976Y222768D01*
X152067Y222695D01*
X152149Y222613D01*
Y222604D01*
X152167Y222595D01*
X152185Y222567D01*
X152213Y222531D01*
X152240Y222485D01*
X152277Y222431D01*
X152313Y222367D01*
X152349Y222285D01*
X152395Y222203D01*
X152431Y222112D01*
X152468Y222003D01*
X152495Y221893D01*
X152541Y221647D01*
X152550Y221501D01*
X152559Y221356D01*
Y221265D01*
X152550Y221164D01*
X152532Y221037D01*
X152514Y220891D01*
X152486Y220736D01*
X152441Y220572D01*
X152377Y220417D01*
X152368Y220399D01*
X152340Y220354D01*
X152295Y220272D01*
X152231Y220181D01*
X152158Y220080D01*
X152058Y219971D01*
X151949Y219862D01*
X151821Y219761D01*
X151803Y219752D01*
X151757Y219725D01*
X151675Y219679D01*
X151575Y219634D01*
X151448Y219588D01*
X151293Y219543D01*
X151129Y219506D01*
X150937Y219488D01*
Y220627D01*
X150947D01*
X150983Y220636D01*
X151029Y220645D01*
X151092Y220663D01*
X151156Y220691D01*
X151229Y220727D01*
X151293Y220764D01*
X151356Y220818D01*
X151366Y220827D01*
X151375Y220846D01*
X151402Y220882D01*
X151429Y220937D01*
X151457Y220991D01*
X151475Y221064D01*
X151493Y221146D01*
X151502Y221237D01*
Y221292D01*
X151493Y221347D01*
X151484Y221410D01*
X151457Y221492D01*
X151429Y221574D01*
X151384Y221647D01*
X151329Y221720D01*
X151320Y221729D01*
X151293Y221747D01*
X151256Y221775D01*
X151202Y221811D01*
X151129Y221839D01*
X151047Y221866D01*
X150947Y221884D01*
X150837Y221893D01*
X150701D01*
X150682D01*
X150646D01*
X150591Y221884D01*
X150509Y221875D01*
X150427Y221857D01*
X150345Y221830D01*
X150263Y221793D01*
X150190Y221747D01*
X150181Y221738D01*
X150163Y221720D01*
X150136Y221693D01*
X150099Y221647D01*
X150063Y221593D01*
X150036Y221529D01*
X150017Y221447D01*
X150008Y221356D01*
Y220864D01*
X148951D01*
Y221392D01*
X148942Y221429D01*
X148933Y221474D01*
X148915Y221529D01*
X148888Y221584D01*
X148851Y221629D01*
X148797Y221675D01*
X148787Y221684D01*
X148769Y221693D01*
X148733Y221711D01*
X148678Y221738D01*
X148624Y221757D01*
X148542Y221775D01*
X148451Y221784D01*
X148350Y221793D01*
X148250D01*
X148241D01*
X148205D01*
X148159Y221784D01*
X148095Y221775D01*
X147968Y221738D01*
X147895Y221711D01*
X147840Y221666D01*
X147831Y221656D01*
X147813Y221638D01*
X147794Y221611D01*
X147767Y221574D01*
X147740Y221520D01*
X147713Y221465D01*
X147703Y221392D01*
X147694Y221310D01*
Y221274D01*
X147703Y221228D01*
X147713Y221183D01*
X147740Y221119D01*
X147767Y221055D01*
X147813Y220991D01*
X147867Y220928D01*
X147877Y220918D01*
X147895Y220900D01*
X147931Y220873D01*
X147986Y220846D01*
X148059Y220809D01*
X148132Y220773D01*
X148232Y220745D01*
X148341Y220718D01*
Y219588D01*
X148332D01*
X148305D01*
X148259Y219598D01*
X148205Y219607D01*
X148141Y219625D01*
X148059Y219634D01*
X147877Y219689D01*
X147667Y219761D01*
X147458Y219862D01*
X147257Y219989D01*
X147166Y220062D01*
X147075Y220153D01*
X147066Y220162D01*
X147057Y220181D01*
X147029Y220208D01*
X147002Y220244D01*
X146975Y220290D01*
X146929Y220344D01*
X146893Y220417D01*
X146847Y220490D01*
X146765Y220663D01*
X146701Y220873D01*
X146647Y221101D01*
X146638Y221228D01*
X146628Y221356D01*
Y221429D01*
X146638Y221483D01*
Y221547D01*
X146647Y221620D01*
X146674Y221793D01*
X146729Y221984D01*
X146801Y222176D01*
X146893Y222367D01*
X146956Y222458D01*
X147029Y222540D01*
Y222549D01*
X147047Y222558D01*
X147102Y222604D01*
X147193Y222677D01*
X147312Y222759D01*
X147476Y222832D01*
X147667Y222904D01*
X147886Y222950D01*
X148013Y222968D01*
X148141D01*
X148314D01*
X148332D01*
X148387D01*
X148460Y222959D01*
X148560Y222941D01*
X148669Y222914D01*
X148787Y222877D01*
X148906Y222832D01*
X149024Y222759D01*
X149033Y222750D01*
X149070Y222722D01*
X149125Y222677D01*
X149188Y222613D01*
X149261Y222531D01*
X149343Y222431D01*
X149407Y222321D01*
X149471Y222185D01*
Y222203D01*
X149489Y222258D01*
X149516Y222330D01*
X149562Y222422D01*
X149617Y222531D01*
X149689Y222631D01*
X149790Y222741D01*
X149908Y222832D01*
X149926Y222841D01*
X149972Y222868D01*
X150045Y222904D01*
X150145Y222950D01*
X150273Y222995D01*
X150427Y223032D01*
X150600Y223059D01*
X150792Y223068D01*
X150965D01*
X150974D01*
X151001D01*
X151038D01*
X151092Y223059D01*
D02*
G37*
G36*
X160425Y234857D02*
X160488D01*
X160634Y234839D01*
X160807Y234802D01*
X160989Y234757D01*
X161181Y234693D01*
X161363Y234611D01*
X161372D01*
X161381Y234602D01*
X161436Y234565D01*
X161527Y234502D01*
X161627Y234419D01*
X161746Y234310D01*
X161864Y234183D01*
X161983Y234028D01*
X162092Y233846D01*
Y233836D01*
X162101Y233818D01*
X162119Y233791D01*
X162128Y233754D01*
X162146Y233700D01*
X162174Y233645D01*
X162192Y233572D01*
X162219Y233499D01*
X162265Y233308D01*
X162311Y233089D01*
X162338Y232843D01*
X162347Y232570D01*
Y231741D01*
X161290D01*
Y231194D01*
X162347D01*
Y230648D01*
X156535D01*
Y231194D01*
X157591D01*
Y231741D01*
X161290D01*
Y232689D01*
X161272Y232780D01*
X161254Y232907D01*
X161226Y233035D01*
X161181Y233171D01*
X161117Y233308D01*
X161035Y233426D01*
X161026Y233436D01*
X160989Y233472D01*
X160926Y233518D01*
X160844Y233581D01*
X160734Y233636D01*
X160616Y233682D01*
X160461Y233718D01*
X160297Y233727D01*
X158584D01*
X158575D01*
X158566D01*
X158502D01*
X158421Y233709D01*
X158311Y233691D01*
X158202Y233654D01*
X158074Y233600D01*
X157956Y233527D01*
X157856Y233426D01*
X157847Y233417D01*
X157810Y233372D01*
X157774Y233308D01*
X157719Y233217D01*
X157674Y233099D01*
X157628Y232953D01*
X157601Y232789D01*
X157591Y232597D01*
Y231741D01*
X156535D01*
Y232680D01*
X156544Y232752D01*
X156553Y232843D01*
X156562Y232953D01*
X156580Y233071D01*
X156598Y233199D01*
X156671Y233472D01*
X156708Y233609D01*
X156763Y233754D01*
X156826Y233891D01*
X156899Y234019D01*
X156981Y234146D01*
X157081Y234265D01*
X157090Y234274D01*
X157109Y234292D01*
X157136Y234319D01*
X157182Y234356D01*
X157236Y234401D01*
X157300Y234456D01*
X157382Y234511D01*
X157473Y234565D01*
X157573Y234620D01*
X157692Y234675D01*
X157819Y234729D01*
X157956Y234775D01*
X158102Y234811D01*
X158256Y234839D01*
X158430Y234857D01*
X158612Y234866D01*
X160270D01*
X160279D01*
X160297D01*
X160334D01*
X160370D01*
X160425Y234857D01*
D02*
G37*
G36*
X162347Y228015D02*
X158160Y225956D01*
X162347D01*
Y224909D01*
X156535D01*
Y226248D01*
X160792Y228316D01*
X156535D01*
Y229363D01*
X162347D01*
Y228015D01*
D02*
G37*
G36*
X160397Y223733D02*
X160470D01*
X160625Y223706D01*
X160798Y223679D01*
X160989Y223633D01*
X161190Y223569D01*
X161381Y223478D01*
X161390D01*
X161399Y223469D01*
X161427Y223451D01*
X161463Y223433D01*
X161554Y223369D01*
X161664Y223287D01*
X161782Y223187D01*
X161910Y223059D01*
X162028Y222904D01*
X162137Y222741D01*
Y222731D01*
X162146Y222722D01*
X162165Y222695D01*
X162174Y222658D01*
X162201Y222613D01*
X162219Y222558D01*
X162265Y222422D01*
X162320Y222258D01*
X162356Y222075D01*
X162392Y221857D01*
X162402Y221629D01*
Y221520D01*
X162392Y221465D01*
Y221401D01*
X162374Y221246D01*
X162338Y221073D01*
X162301Y220882D01*
X162238Y220691D01*
X162156Y220499D01*
Y220490D01*
X162146Y220481D01*
X162128Y220454D01*
X162110Y220417D01*
X162046Y220335D01*
X161973Y220226D01*
X161873Y220108D01*
X161746Y219980D01*
X161609Y219862D01*
X161445Y219752D01*
X161436D01*
X161427Y219743D01*
X161399Y219725D01*
X161363Y219716D01*
X161263Y219670D01*
X161135Y219625D01*
X160980Y219570D01*
X160789Y219534D01*
X160589Y219497D01*
X160361Y219488D01*
X158648D01*
X158639D01*
X158621D01*
X158584D01*
X158539D01*
X158475Y219497D01*
X158411Y219506D01*
X158256Y219525D01*
X158074Y219552D01*
X157883Y219598D01*
X157692Y219661D01*
X157500Y219752D01*
X157491D01*
X157482Y219761D01*
X157455Y219780D01*
X157418Y219798D01*
X157327Y219862D01*
X157218Y219944D01*
X157099Y220053D01*
X156972Y220171D01*
X156854Y220326D01*
X156744Y220490D01*
Y220499D01*
X156735Y220509D01*
X156717Y220536D01*
X156699Y220572D01*
X156681Y220618D01*
X156653Y220672D01*
X156608Y220809D01*
X156553Y220973D01*
X156517Y221155D01*
X156480Y221374D01*
X156471Y221602D01*
Y221693D01*
X156480Y221793D01*
X156498Y221921D01*
X156526Y222066D01*
X156562Y222230D01*
X156617Y222394D01*
X156690Y222558D01*
Y222567D01*
X156699Y222576D01*
X156726Y222631D01*
X156781Y222713D01*
X156844Y222813D01*
X156927Y222932D01*
X157036Y223050D01*
X157154Y223178D01*
X157291Y223296D01*
X157309Y223305D01*
X157364Y223342D01*
X157446Y223396D01*
X157555Y223460D01*
X157683Y223524D01*
X157837Y223597D01*
X158010Y223652D01*
X158202Y223697D01*
Y222513D01*
X158193D01*
X158156Y222495D01*
X158102Y222467D01*
X158038Y222431D01*
X157974Y222385D01*
X157901Y222321D01*
X157828Y222249D01*
X157765Y222157D01*
X157755Y222148D01*
X157737Y222112D01*
X157719Y222057D01*
X157683Y221993D01*
X157655Y221912D01*
X157637Y221811D01*
X157619Y221711D01*
X157610Y221602D01*
Y221529D01*
X157628Y221447D01*
X157646Y221347D01*
X157683Y221228D01*
X157728Y221110D01*
X157801Y220991D01*
X157892Y220882D01*
X157901Y220873D01*
X157947Y220846D01*
X158010Y220800D01*
X158092Y220755D01*
X158202Y220700D01*
X158329Y220663D01*
X158475Y220627D01*
X158648Y220618D01*
X160361D01*
X160379D01*
X160434Y220627D01*
X160507Y220636D01*
X160598Y220654D01*
X160707Y220682D01*
X160816Y220736D01*
X160926Y220800D01*
X161026Y220891D01*
X161035Y220900D01*
X161062Y220946D01*
X161108Y221001D01*
X161144Y221092D01*
X161190Y221192D01*
X161235Y221319D01*
X161263Y221465D01*
X161272Y221629D01*
Y221702D01*
X161254Y221784D01*
X161235Y221884D01*
X161208Y222003D01*
X161163Y222121D01*
X161099Y222230D01*
X161008Y222340D01*
X160999Y222349D01*
X160953Y222385D01*
X160898Y222422D01*
X160807Y222476D01*
X160707Y222522D01*
X160571Y222567D01*
X160425Y222595D01*
X160252Y222604D01*
X160151D01*
Y221729D01*
X159095D01*
Y223743D01*
X160233D01*
X160242D01*
X160261D01*
X160297D01*
X160343D01*
X160397Y223733D01*
D02*
G37*
G36*
X169280Y232994D02*
X168892Y232764D01*
X168637Y232609D01*
X168301Y232411D01*
X168664Y232199D01*
X169281Y231838D01*
X166432Y230149D01*
Y231306D01*
X168301Y232411D01*
X166432Y233502D01*
Y234659D01*
X169280Y232994D01*
D02*
G37*
G36*
X172244Y233593D02*
X170265Y232418D01*
X172244Y231260D01*
Y230104D01*
X169281Y231838D01*
X169675Y232071D01*
X169866Y232181D01*
X170265Y232418D01*
X169721Y232736D01*
X169280Y232994D01*
X172244Y234750D01*
Y233593D01*
D02*
G37*
G36*
Y228464D02*
X169903Y227149D01*
Y226487D01*
X168846D01*
Y225831D01*
X169903D01*
Y226487D01*
X172244D01*
Y225394D01*
X166423D01*
Y225831D01*
X167480D01*
Y226487D01*
X168846D01*
Y227899D01*
X168837Y227944D01*
X168819Y227999D01*
X168800Y228063D01*
X168773Y228136D01*
X168728Y228200D01*
X168664Y228263D01*
X168655Y228273D01*
X168627Y228291D01*
X168591Y228309D01*
X168527Y228345D01*
X168454Y228373D01*
X168372Y228391D01*
X168272Y228409D01*
X168163Y228418D01*
X168145D01*
X168108D01*
X168053Y228409D01*
X167981Y228400D01*
X167908Y228382D01*
X167826Y228354D01*
X167744Y228318D01*
X167671Y228263D01*
X167662Y228254D01*
X167643Y228236D01*
X167607Y228200D01*
X167571Y228154D01*
X167543Y228099D01*
X167507Y228027D01*
X167489Y227944D01*
X167480Y227853D01*
Y226487D01*
X166423D01*
Y228027D01*
X166432Y228118D01*
X166450Y228227D01*
X166478Y228364D01*
X166514Y228500D01*
X166569Y228646D01*
X166641Y228783D01*
X166650Y228801D01*
X166678Y228846D01*
X166733Y228910D01*
X166796Y228992D01*
X166887Y229083D01*
X166988Y229174D01*
X167115Y229265D01*
X167252Y229347D01*
X167270Y229357D01*
X167325Y229375D01*
X167407Y229411D01*
X167516Y229448D01*
X167643Y229484D01*
X167798Y229521D01*
X167972Y229539D01*
X168163Y229548D01*
X168172D01*
X168190D01*
X168218D01*
X168254D01*
X168354Y229539D01*
X168473Y229521D01*
X168618Y229502D01*
X168773Y229466D01*
X168928Y229411D01*
X169083Y229347D01*
X169101Y229338D01*
X169147Y229311D01*
X169220Y229265D01*
X169302Y229202D01*
X169402Y229120D01*
X169502Y229029D01*
X169602Y228910D01*
X169693Y228783D01*
X169702Y228764D01*
X169730Y228719D01*
X169757Y228646D01*
X169793Y228546D01*
X169839Y228418D01*
X169842Y228403D01*
X169538Y228227D01*
X169730Y227052D01*
X169903Y227149D01*
Y227944D01*
X169894Y228118D01*
X169866Y228282D01*
X169842Y228403D01*
X172244Y229794D01*
Y228464D01*
D02*
G37*
G36*
X182087Y232982D02*
X180108Y231807D01*
X182087Y230650D01*
Y229493D01*
X179123Y231227D01*
X179518Y231461D01*
X179709Y231570D01*
X180108Y231807D01*
X179563Y232126D01*
X179123Y232383D01*
X182087Y234139D01*
Y232982D01*
D02*
G37*
G36*
X179123Y232383D02*
X178734Y232153D01*
X178479Y231998D01*
X178144Y231800D01*
X178506Y231589D01*
X179123Y231227D01*
X176459Y229648D01*
X177331D01*
Y228063D01*
X176748D01*
Y226970D01*
X177331D01*
Y228063D01*
X182087D01*
Y226970D01*
X177331D01*
Y225394D01*
X176274D01*
Y229648D01*
Y230696D01*
X178144Y231800D01*
X176274Y232891D01*
Y234048D01*
X179123Y232383D01*
D02*
G37*
G36*
X216527Y225998D02*
X216591D01*
X216737Y225980D01*
X216910Y225944D01*
X217092Y225898D01*
X217283Y225834D01*
X217465Y225752D01*
X217475D01*
X217484Y225743D01*
X217538Y225707D01*
X217629Y225643D01*
X217730Y225561D01*
X217848Y225452D01*
X217966Y225324D01*
X218085Y225169D01*
X218194Y224987D01*
Y224978D01*
X218203Y224960D01*
X218221Y224933D01*
X218231Y224896D01*
X218249Y224841D01*
X218276Y224787D01*
X218294Y224714D01*
X218322Y224641D01*
X218367Y224450D01*
X218413Y224231D01*
X218440Y223985D01*
X218449Y223712D01*
Y222883D01*
X217392D01*
Y222336D01*
X218449D01*
Y221790D01*
X212637D01*
Y222336D01*
X213694D01*
Y222883D01*
X217392D01*
Y223830D01*
X217374Y223921D01*
X217356Y224049D01*
X217329Y224177D01*
X217283Y224313D01*
X217219Y224450D01*
X217137Y224568D01*
X217128Y224577D01*
X217092Y224614D01*
X217028Y224659D01*
X216946Y224723D01*
X216837Y224778D01*
X216718Y224823D01*
X216564Y224860D01*
X216400Y224869D01*
X214687D01*
X214678D01*
X214669D01*
X214605D01*
X214523Y224851D01*
X214413Y224832D01*
X214304Y224796D01*
X214177Y224741D01*
X214058Y224668D01*
X213958Y224568D01*
X213949Y224559D01*
X213913Y224514D01*
X213876Y224450D01*
X213821Y224359D01*
X213776Y224240D01*
X213730Y224095D01*
X213703Y223931D01*
X213694Y223739D01*
Y222883D01*
X212637D01*
Y223821D01*
X212646Y223894D01*
X212655Y223985D01*
X212664Y224095D01*
X212683Y224213D01*
X212701Y224341D01*
X212774Y224614D01*
X212810Y224750D01*
X212865Y224896D01*
X212929Y225033D01*
X213001Y225160D01*
X213084Y225288D01*
X213184Y225406D01*
X213193Y225415D01*
X213211Y225434D01*
X213238Y225461D01*
X213284Y225497D01*
X213339Y225543D01*
X213402Y225598D01*
X213484Y225652D01*
X213575Y225707D01*
X213676Y225762D01*
X213794Y225816D01*
X213922Y225871D01*
X214058Y225917D01*
X214204Y225953D01*
X214359Y225980D01*
X214532Y225998D01*
X214714Y226008D01*
X216372D01*
X216381D01*
X216400D01*
X216436D01*
X216472D01*
X216527Y225998D01*
D02*
G37*
G36*
X218449Y219157D02*
X214262Y217098D01*
X218449D01*
Y216050D01*
X212637D01*
Y217389D01*
X216895Y219458D01*
X212637D01*
Y220505D01*
X218449D01*
Y219157D01*
D02*
G37*
G36*
X216500Y214875D02*
X216573D01*
X216727Y214848D01*
X216901Y214821D01*
X217092Y214775D01*
X217292Y214711D01*
X217484Y214620D01*
X217493D01*
X217502Y214611D01*
X217529Y214593D01*
X217566Y214575D01*
X217657Y214511D01*
X217766Y214429D01*
X217884Y214329D01*
X218012Y214201D01*
X218130Y214046D01*
X218240Y213882D01*
Y213873D01*
X218249Y213864D01*
X218267Y213837D01*
X218276Y213800D01*
X218303Y213755D01*
X218322Y213700D01*
X218367Y213563D01*
X218422Y213399D01*
X218458Y213217D01*
X218495Y212999D01*
X218504Y212771D01*
Y212662D01*
X218495Y212607D01*
Y212543D01*
X218477Y212388D01*
X218440Y212215D01*
X218404Y212024D01*
X218340Y211832D01*
X218258Y211641D01*
Y211632D01*
X218249Y211623D01*
X218231Y211596D01*
X218212Y211559D01*
X218149Y211477D01*
X218076Y211368D01*
X217976Y211249D01*
X217848Y211122D01*
X217711Y211003D01*
X217547Y210894D01*
X217538D01*
X217529Y210885D01*
X217502Y210867D01*
X217465Y210858D01*
X217365Y210812D01*
X217238Y210767D01*
X217083Y210712D01*
X216892Y210676D01*
X216691Y210639D01*
X216463Y210630D01*
X214751D01*
X214741D01*
X214723D01*
X214687D01*
X214641D01*
X214578Y210639D01*
X214514Y210648D01*
X214359Y210666D01*
X214177Y210694D01*
X213985Y210739D01*
X213794Y210803D01*
X213603Y210894D01*
X213594D01*
X213584Y210903D01*
X213557Y210921D01*
X213521Y210940D01*
X213430Y211003D01*
X213320Y211085D01*
X213202Y211195D01*
X213074Y211313D01*
X212956Y211468D01*
X212847Y211632D01*
Y211641D01*
X212838Y211650D01*
X212819Y211678D01*
X212801Y211714D01*
X212783Y211760D01*
X212755Y211814D01*
X212710Y211951D01*
X212655Y212115D01*
X212619Y212297D01*
X212582Y212516D01*
X212573Y212743D01*
Y212835D01*
X212582Y212935D01*
X212601Y213062D01*
X212628Y213208D01*
X212664Y213372D01*
X212719Y213536D01*
X212792Y213700D01*
Y213709D01*
X212801Y213718D01*
X212828Y213773D01*
X212883Y213855D01*
X212947Y213955D01*
X213029Y214073D01*
X213138Y214192D01*
X213257Y214319D01*
X213393Y214438D01*
X213411Y214447D01*
X213466Y214483D01*
X213548Y214538D01*
X213657Y214602D01*
X213785Y214666D01*
X213940Y214738D01*
X214113Y214793D01*
X214304Y214839D01*
Y213654D01*
X214295D01*
X214259Y213636D01*
X214204Y213609D01*
X214140Y213572D01*
X214076Y213527D01*
X214004Y213463D01*
X213931Y213390D01*
X213867Y213299D01*
X213858Y213290D01*
X213840Y213254D01*
X213821Y213199D01*
X213785Y213135D01*
X213758Y213053D01*
X213739Y212953D01*
X213721Y212853D01*
X213712Y212743D01*
Y212671D01*
X213730Y212589D01*
X213749Y212488D01*
X213785Y212370D01*
X213830Y212251D01*
X213903Y212133D01*
X213995Y212024D01*
X214004Y212015D01*
X214049Y211987D01*
X214113Y211942D01*
X214195Y211896D01*
X214304Y211842D01*
X214432Y211805D01*
X214578Y211769D01*
X214751Y211760D01*
X216463D01*
X216481D01*
X216536Y211769D01*
X216609Y211778D01*
X216700Y211796D01*
X216810Y211823D01*
X216919Y211878D01*
X217028Y211942D01*
X217128Y212033D01*
X217137Y212042D01*
X217165Y212087D01*
X217210Y212142D01*
X217247Y212233D01*
X217292Y212333D01*
X217338Y212461D01*
X217365Y212607D01*
X217374Y212771D01*
Y212844D01*
X217356Y212926D01*
X217338Y213026D01*
X217311Y213144D01*
X217265Y213263D01*
X217201Y213372D01*
X217110Y213481D01*
X217101Y213491D01*
X217056Y213527D01*
X217001Y213563D01*
X216910Y213618D01*
X216810Y213664D01*
X216673Y213709D01*
X216527Y213736D01*
X216354Y213745D01*
X216254D01*
Y212871D01*
X215197D01*
Y214884D01*
X216336D01*
X216345D01*
X216363D01*
X216400D01*
X216445D01*
X216500Y214875D01*
D02*
G37*
G36*
X239119Y223721D02*
Y222865D01*
X233306Y220924D01*
Y222054D01*
X237187Y223293D01*
X233306Y224523D01*
Y225652D01*
X239119Y223721D01*
D02*
G37*
G36*
X237706Y220396D02*
X237770D01*
X237843Y220378D01*
X238016Y220350D01*
X238208Y220296D01*
X238399Y220214D01*
X238499Y220159D01*
X238590Y220104D01*
X238681Y220031D01*
X238763Y219949D01*
Y219940D01*
X238781Y219931D01*
X238800Y219904D01*
X238827Y219867D01*
X238854Y219822D01*
X238891Y219767D01*
X238927Y219704D01*
X238964Y219621D01*
X239009Y219539D01*
X239046Y219448D01*
X239082Y219339D01*
X239109Y219230D01*
X239155Y218984D01*
X239164Y218838D01*
X239173Y218692D01*
Y218601D01*
X239164Y218501D01*
X239146Y218373D01*
X239128Y218228D01*
X239100Y218073D01*
X239055Y217909D01*
X238991Y217754D01*
X238982Y217736D01*
X238955Y217690D01*
X238909Y217608D01*
X238845Y217517D01*
X238772Y217417D01*
X238672Y217307D01*
X238563Y217198D01*
X238435Y217098D01*
X238417Y217089D01*
X238371Y217062D01*
X238290Y217016D01*
X238189Y216970D01*
X238062Y216925D01*
X237907Y216879D01*
X237743Y216843D01*
X237552Y216825D01*
Y217964D01*
X237561D01*
X237597Y217973D01*
X237643Y217982D01*
X237706Y218000D01*
X237770Y218027D01*
X237843Y218064D01*
X237907Y218100D01*
X237971Y218155D01*
X237980Y218164D01*
X237989Y218182D01*
X238016Y218219D01*
X238044Y218273D01*
X238071Y218328D01*
X238089Y218401D01*
X238107Y218483D01*
X238117Y218574D01*
Y218629D01*
X238107Y218683D01*
X238098Y218747D01*
X238071Y218829D01*
X238044Y218911D01*
X237998Y218984D01*
X237943Y219057D01*
X237934Y219066D01*
X237907Y219084D01*
X237871Y219111D01*
X237816Y219148D01*
X237743Y219175D01*
X237661Y219202D01*
X237561Y219221D01*
X237451Y219230D01*
X237315D01*
X237297D01*
X237260D01*
X237206Y219221D01*
X237123Y219212D01*
X237041Y219193D01*
X236960Y219166D01*
X236877Y219130D01*
X236805Y219084D01*
X236795Y219075D01*
X236777Y219057D01*
X236750Y219029D01*
X236714Y218984D01*
X236677Y218929D01*
X236650Y218865D01*
X236631Y218783D01*
X236622Y218692D01*
Y218200D01*
X235566D01*
Y218729D01*
X235557Y218765D01*
X235547Y218811D01*
X235529Y218865D01*
X235502Y218920D01*
X235466Y218966D01*
X235411Y219011D01*
X235402Y219020D01*
X235384Y219029D01*
X235347Y219048D01*
X235292Y219075D01*
X235238Y219093D01*
X235156Y219111D01*
X235065Y219120D01*
X234964Y219130D01*
X234864D01*
X234855D01*
X234819D01*
X234773Y219120D01*
X234709Y219111D01*
X234582Y219075D01*
X234509Y219048D01*
X234454Y219002D01*
X234445Y218993D01*
X234427Y218975D01*
X234409Y218947D01*
X234381Y218911D01*
X234354Y218856D01*
X234327Y218802D01*
X234318Y218729D01*
X234309Y218647D01*
Y218610D01*
X234318Y218565D01*
X234327Y218519D01*
X234354Y218455D01*
X234381Y218392D01*
X234427Y218328D01*
X234482Y218264D01*
X234491Y218255D01*
X234509Y218237D01*
X234545Y218209D01*
X234600Y218182D01*
X234673Y218146D01*
X234746Y218109D01*
X234846Y218082D01*
X234955Y218055D01*
Y216925D01*
X234946D01*
X234919D01*
X234873Y216934D01*
X234819Y216943D01*
X234755Y216961D01*
X234673Y216970D01*
X234491Y217025D01*
X234281Y217098D01*
X234072Y217198D01*
X233871Y217326D01*
X233780Y217399D01*
X233689Y217490D01*
X233680Y217499D01*
X233671Y217517D01*
X233644Y217544D01*
X233616Y217581D01*
X233589Y217626D01*
X233543Y217681D01*
X233507Y217754D01*
X233461Y217827D01*
X233379Y218000D01*
X233315Y218209D01*
X233261Y218437D01*
X233252Y218565D01*
X233243Y218692D01*
Y218765D01*
X233252Y218820D01*
Y218884D01*
X233261Y218956D01*
X233288Y219130D01*
X233343Y219321D01*
X233416Y219512D01*
X233507Y219704D01*
X233571Y219795D01*
X233644Y219877D01*
Y219886D01*
X233662Y219895D01*
X233716Y219940D01*
X233807Y220013D01*
X233926Y220095D01*
X234090Y220168D01*
X234281Y220241D01*
X234500Y220286D01*
X234627Y220305D01*
X234755D01*
X234928D01*
X234946D01*
X235001D01*
X235074Y220296D01*
X235174Y220277D01*
X235283Y220250D01*
X235402Y220214D01*
X235520Y220168D01*
X235638Y220095D01*
X235648Y220086D01*
X235684Y220059D01*
X235739Y220013D01*
X235803Y219949D01*
X235875Y219867D01*
X235957Y219767D01*
X236021Y219658D01*
X236085Y219521D01*
Y219539D01*
X236103Y219594D01*
X236130Y219667D01*
X236176Y219758D01*
X236231Y219867D01*
X236304Y219968D01*
X236404Y220077D01*
X236522Y220168D01*
X236540Y220177D01*
X236586Y220204D01*
X236659Y220241D01*
X236759Y220286D01*
X236887Y220332D01*
X237041Y220369D01*
X237215Y220396D01*
X237406Y220405D01*
X237579D01*
X237588D01*
X237615D01*
X237652D01*
X237706Y220396D01*
D02*
G37*
G36*
X239119Y215067D02*
X238025D01*
Y216169D01*
X239119D01*
Y215067D01*
D02*
G37*
G36*
X237706Y214201D02*
X237770D01*
X237843Y214183D01*
X238016Y214156D01*
X238208Y214101D01*
X238399Y214019D01*
X238499Y213964D01*
X238590Y213910D01*
X238681Y213837D01*
X238763Y213755D01*
Y213745D01*
X238781Y213736D01*
X238800Y213709D01*
X238827Y213673D01*
X238854Y213627D01*
X238891Y213572D01*
X238927Y213509D01*
X238964Y213427D01*
X239009Y213345D01*
X239046Y213254D01*
X239082Y213144D01*
X239109Y213035D01*
X239155Y212789D01*
X239164Y212643D01*
X239173Y212497D01*
Y212406D01*
X239164Y212306D01*
X239146Y212179D01*
X239128Y212033D01*
X239100Y211878D01*
X239055Y211714D01*
X238991Y211559D01*
X238982Y211541D01*
X238955Y211495D01*
X238909Y211413D01*
X238845Y211322D01*
X238772Y211222D01*
X238672Y211113D01*
X238563Y211003D01*
X238435Y210903D01*
X238417Y210894D01*
X238371Y210867D01*
X238290Y210821D01*
X238189Y210776D01*
X238062Y210730D01*
X237907Y210685D01*
X237743Y210648D01*
X237552Y210630D01*
Y211769D01*
X237561D01*
X237597Y211778D01*
X237643Y211787D01*
X237706Y211805D01*
X237770Y211832D01*
X237843Y211869D01*
X237907Y211905D01*
X237971Y211960D01*
X237980Y211969D01*
X237989Y211987D01*
X238016Y212024D01*
X238044Y212078D01*
X238071Y212133D01*
X238089Y212206D01*
X238107Y212288D01*
X238117Y212379D01*
Y212434D01*
X238107Y212488D01*
X238098Y212552D01*
X238071Y212634D01*
X238044Y212716D01*
X237998Y212789D01*
X237943Y212862D01*
X237934Y212871D01*
X237907Y212889D01*
X237871Y212916D01*
X237816Y212953D01*
X237743Y212980D01*
X237661Y213008D01*
X237561Y213026D01*
X237451Y213035D01*
X237315D01*
X237297D01*
X237260D01*
X237206Y213026D01*
X237123Y213017D01*
X237041Y212999D01*
X236960Y212971D01*
X236877Y212935D01*
X236805Y212889D01*
X236795Y212880D01*
X236777Y212862D01*
X236750Y212835D01*
X236714Y212789D01*
X236677Y212734D01*
X236650Y212671D01*
X236631Y212589D01*
X236622Y212497D01*
Y212005D01*
X235566D01*
Y212534D01*
X235557Y212570D01*
X235547Y212616D01*
X235529Y212671D01*
X235502Y212725D01*
X235466Y212771D01*
X235411Y212816D01*
X235402Y212825D01*
X235384Y212835D01*
X235347Y212853D01*
X235292Y212880D01*
X235238Y212898D01*
X235156Y212916D01*
X235065Y212926D01*
X234964Y212935D01*
X234864D01*
X234855D01*
X234819D01*
X234773Y212926D01*
X234709Y212916D01*
X234582Y212880D01*
X234509Y212853D01*
X234454Y212807D01*
X234445Y212798D01*
X234427Y212780D01*
X234409Y212753D01*
X234381Y212716D01*
X234354Y212662D01*
X234327Y212607D01*
X234318Y212534D01*
X234309Y212452D01*
Y212416D01*
X234318Y212370D01*
X234327Y212324D01*
X234354Y212261D01*
X234381Y212197D01*
X234427Y212133D01*
X234482Y212069D01*
X234491Y212060D01*
X234509Y212042D01*
X234545Y212015D01*
X234600Y211987D01*
X234673Y211951D01*
X234746Y211914D01*
X234846Y211887D01*
X234955Y211860D01*
Y210730D01*
X234946D01*
X234919D01*
X234873Y210739D01*
X234819Y210748D01*
X234755Y210767D01*
X234673Y210776D01*
X234491Y210830D01*
X234281Y210903D01*
X234072Y211003D01*
X233871Y211131D01*
X233780Y211204D01*
X233689Y211295D01*
X233680Y211304D01*
X233671Y211322D01*
X233644Y211350D01*
X233616Y211386D01*
X233589Y211432D01*
X233543Y211486D01*
X233507Y211559D01*
X233461Y211632D01*
X233379Y211805D01*
X233315Y212015D01*
X233261Y212242D01*
X233252Y212370D01*
X233243Y212497D01*
Y212570D01*
X233252Y212625D01*
Y212689D01*
X233261Y212762D01*
X233288Y212935D01*
X233343Y213126D01*
X233416Y213317D01*
X233507Y213509D01*
X233571Y213600D01*
X233644Y213682D01*
Y213691D01*
X233662Y213700D01*
X233716Y213745D01*
X233807Y213818D01*
X233926Y213900D01*
X234090Y213973D01*
X234281Y214046D01*
X234500Y214092D01*
X234627Y214110D01*
X234755D01*
X234928D01*
X234946D01*
X235001D01*
X235074Y214101D01*
X235174Y214083D01*
X235283Y214055D01*
X235402Y214019D01*
X235520Y213973D01*
X235638Y213900D01*
X235648Y213891D01*
X235684Y213864D01*
X235739Y213818D01*
X235803Y213755D01*
X235875Y213673D01*
X235957Y213572D01*
X236021Y213463D01*
X236085Y213327D01*
Y213345D01*
X236103Y213399D01*
X236130Y213472D01*
X236176Y213563D01*
X236231Y213673D01*
X236304Y213773D01*
X236404Y213882D01*
X236522Y213973D01*
X236540Y213982D01*
X236586Y214010D01*
X236659Y214046D01*
X236759Y214092D01*
X236887Y214137D01*
X237041Y214174D01*
X237215Y214201D01*
X237406Y214210D01*
X237579D01*
X237588D01*
X237615D01*
X237652D01*
X237706Y214201D01*
D02*
G37*
G36*
X248961Y239368D02*
X243149D01*
Y240178D01*
X248961D01*
Y239368D01*
D02*
G37*
G36*
X247048Y238029D02*
X247112D01*
X247267Y238001D01*
X247449Y237974D01*
X247631Y237928D01*
X247822Y237865D01*
X248005Y237773D01*
X248014D01*
X248023Y237764D01*
X248077Y237728D01*
X248168Y237664D01*
X248269Y237582D01*
X248378Y237473D01*
X248497Y237345D01*
X248615Y237190D01*
X248715Y237017D01*
Y237008D01*
X248724Y236999D01*
X248733Y236972D01*
X248752Y236926D01*
X248770Y236881D01*
X248797Y236826D01*
X248834Y236680D01*
X248879Y236507D01*
X248925Y236307D01*
X248952Y236079D01*
X248961Y235824D01*
Y234794D01*
X248187D01*
Y234530D01*
X248961D01*
Y233984D01*
X243149D01*
Y234530D01*
X243923D01*
Y234794D01*
X248187D01*
Y235915D01*
X248178Y235961D01*
Y236015D01*
X248168Y236079D01*
X248141Y236216D01*
X248105Y236380D01*
X248050Y236544D01*
X247968Y236699D01*
X247859Y236844D01*
X247841Y236862D01*
X247795Y236899D01*
X247722Y236953D01*
X247613Y237026D01*
X247476Y237090D01*
X247312Y237145D01*
X247130Y237181D01*
X246911Y237199D01*
X245199D01*
X245190D01*
X245171D01*
X245144D01*
X245098Y237190D01*
X244989Y237181D01*
X244852Y237154D01*
X244698Y237118D01*
X244543Y237054D01*
X244397Y236963D01*
X244260Y236844D01*
X244242Y236826D01*
X244206Y236781D01*
X244151Y236699D01*
X244087Y236589D01*
X244033Y236453D01*
X243978Y236279D01*
X243941Y236079D01*
X243923Y235851D01*
Y234794D01*
X243149D01*
Y235924D01*
X243158Y235997D01*
X243167Y236088D01*
X243176Y236188D01*
X243195Y236298D01*
X243213Y236425D01*
X243286Y236689D01*
X243322Y236826D01*
X243377Y236953D01*
X243440Y237090D01*
X243513Y237218D01*
X243595Y237345D01*
X243695Y237455D01*
X243705Y237464D01*
X243723Y237482D01*
X243750Y237509D01*
X243796Y237546D01*
X243850Y237591D01*
X243914Y237637D01*
X243996Y237691D01*
X244087Y237746D01*
X244187Y237801D01*
X244306Y237855D01*
X244433Y237901D01*
X244570Y237947D01*
X244716Y237983D01*
X244871Y238010D01*
X245044Y238029D01*
X245226Y238038D01*
X246884D01*
X246893D01*
X246911D01*
X246948D01*
X246993D01*
X247048Y238029D01*
D02*
G37*
G36*
X245126Y232872D02*
X245244Y232854D01*
X245390Y232827D01*
X245545Y232790D01*
X245709Y232736D01*
X245864Y232663D01*
X245882Y232654D01*
X245928Y232626D01*
X246000Y232572D01*
X246091Y232508D01*
X246192Y232417D01*
X246301Y232317D01*
X246401Y232189D01*
X246492Y232052D01*
X246501Y232034D01*
X246529Y231979D01*
X246565Y231897D01*
X246602Y231788D01*
X246638Y231651D01*
X246674Y231497D01*
X246702Y231324D01*
X246711Y231132D01*
Y229693D01*
X245928D01*
Y229301D01*
X246711D01*
Y229693D01*
X248961D01*
Y228882D01*
X243149D01*
Y229301D01*
X243923D01*
Y229693D01*
X245928D01*
Y231178D01*
X245918Y231223D01*
X245909Y231296D01*
X245891Y231387D01*
X245864Y231488D01*
X245809Y231597D01*
X245745Y231706D01*
X245654Y231797D01*
X245645Y231806D01*
X245609Y231834D01*
X245545Y231879D01*
X245463Y231925D01*
X245354Y231961D01*
X245235Y232007D01*
X245089Y232034D01*
X244935Y232043D01*
X244925D01*
X244916D01*
X244862D01*
X244771Y232034D01*
X244670Y232016D01*
X244552Y231979D01*
X244424Y231943D01*
X244306Y231879D01*
X244197Y231797D01*
X244187Y231788D01*
X244151Y231752D01*
X244106Y231697D01*
X244060Y231633D01*
X244005Y231542D01*
X243969Y231433D01*
X243932Y231305D01*
X243923Y231160D01*
Y229693D01*
X243149D01*
Y231223D01*
X243158Y231324D01*
X243176Y231442D01*
X243204Y231588D01*
X243240Y231743D01*
X243295Y231897D01*
X243368Y232052D01*
Y232062D01*
X243377Y232071D01*
X243404Y232116D01*
X243459Y232189D01*
X243522Y232280D01*
X243614Y232371D01*
X243723Y232471D01*
X243841Y232572D01*
X243987Y232663D01*
X244005Y232672D01*
X244060Y232699D01*
X244142Y232736D01*
X244251Y232772D01*
X244397Y232808D01*
X244552Y232845D01*
X244734Y232872D01*
X244935Y232881D01*
X244944D01*
X244962D01*
X244989D01*
X245026D01*
X245126Y232872D01*
D02*
G37*
G36*
X247030Y227506D02*
X247112Y227497D01*
X247212Y227488D01*
X247330Y227470D01*
X247449Y227452D01*
X247704Y227388D01*
X247841Y227343D01*
X247968Y227288D01*
X248105Y227224D01*
X248232Y227160D01*
X248351Y227069D01*
X248460Y226978D01*
X248469Y226969D01*
X248487Y226951D01*
X248515Y226923D01*
X248542Y226878D01*
X248588Y226823D01*
X248633Y226760D01*
X248688Y226677D01*
X248733Y226586D01*
X248788Y226486D01*
X248843Y226377D01*
X248888Y226249D01*
X248925Y226113D01*
X248961Y225967D01*
X248988Y225812D01*
X249007Y225648D01*
X249016Y225466D01*
Y225375D01*
X249007Y225302D01*
X248997Y225220D01*
X248988Y225129D01*
X248970Y225029D01*
X248943Y224910D01*
X248879Y224664D01*
X248834Y224546D01*
X248779Y224418D01*
X248715Y224291D01*
X248642Y224172D01*
X248560Y224063D01*
X248460Y223954D01*
X248451Y223944D01*
X248433Y223935D01*
X248396Y223908D01*
X248351Y223872D01*
X248296Y223835D01*
X248223Y223790D01*
X248141Y223735D01*
X248050Y223689D01*
X247941Y223644D01*
X247822Y223589D01*
X247686Y223544D01*
X247549Y223507D01*
X247394Y223471D01*
X247221Y223452D01*
X247048Y223434D01*
X246857Y223425D01*
X243149D01*
Y224236D01*
X246884D01*
X246893D01*
X246911D01*
X246948D01*
X246993Y224245D01*
X247039D01*
X247103Y224254D01*
X247248Y224272D01*
X247403Y224318D01*
X247567Y224373D01*
X247731Y224446D01*
X247877Y224555D01*
X247895Y224573D01*
X247932Y224619D01*
X247986Y224692D01*
X248050Y224792D01*
X248114Y224919D01*
X248168Y225074D01*
X248205Y225256D01*
X248223Y225466D01*
Y225520D01*
X248214Y225566D01*
X248205Y225666D01*
X248178Y225803D01*
X248141Y225949D01*
X248077Y226103D01*
X247995Y226249D01*
X247877Y226377D01*
X247859Y226395D01*
X247813Y226431D01*
X247731Y226477D01*
X247622Y226541D01*
X247476Y226595D01*
X247312Y226650D01*
X247112Y226687D01*
X246884Y226696D01*
X243149D01*
Y227516D01*
X246857D01*
X246866D01*
X246902D01*
X246957D01*
X247030Y227506D01*
D02*
G37*
G36*
X118264Y196842D02*
X118341D01*
X118428Y196831D01*
X118636Y196787D01*
X118866Y196732D01*
X119106Y196645D01*
X119346Y196514D01*
X119456Y196437D01*
X119554Y196350D01*
X119565Y196339D01*
X119576Y196328D01*
X119598Y196295D01*
X119631Y196251D01*
X119674Y196208D01*
X119718Y196142D01*
X119762Y196065D01*
X119816Y195978D01*
X119860Y195880D01*
X119915Y195770D01*
X119958Y195639D01*
X119991Y195508D01*
X120035Y195366D01*
X120057Y195213D01*
X120068Y195038D01*
X120079Y194863D01*
Y194765D01*
X120068Y194699D01*
Y194612D01*
X120046Y194513D01*
X120013Y194295D01*
X119948Y194054D01*
X119860Y193803D01*
X119729Y193563D01*
X119641Y193453D01*
X119554Y193355D01*
X119543D01*
X119532Y193333D01*
X119500Y193311D01*
X119456Y193278D01*
X119401Y193246D01*
X119335Y193202D01*
X119259Y193158D01*
X119172Y193114D01*
X118964Y193016D01*
X118723Y192939D01*
X118428Y192885D01*
X118275Y192874D01*
X118111Y192863D01*
X114931D01*
X114920D01*
X114887D01*
X114843D01*
X114778Y192874D01*
X114701D01*
X114614Y192885D01*
X114395Y192929D01*
X114166Y192983D01*
X113925Y193071D01*
X113685Y193202D01*
X113575Y193278D01*
X113477Y193366D01*
X113466Y193377D01*
X113455Y193388D01*
X113433Y193421D01*
X113390Y193464D01*
X113357Y193519D01*
X113313Y193584D01*
X113258Y193661D01*
X113215Y193748D01*
X113160Y193847D01*
X113116Y193956D01*
X113073Y194076D01*
X113029Y194218D01*
X112996Y194360D01*
X112974Y194513D01*
X112963Y194688D01*
X112952Y194863D01*
Y194962D01*
X112963Y195027D01*
Y195104D01*
X112974Y195202D01*
X113018Y195421D01*
X113084Y195661D01*
X113171Y195902D01*
X113302Y196142D01*
X113390Y196251D01*
X113477Y196350D01*
X113488Y196361D01*
X113499Y196372D01*
X113532Y196393D01*
X113575Y196426D01*
X113630Y196470D01*
X113696Y196514D01*
X113772Y196557D01*
X113860Y196601D01*
X114067Y196688D01*
X114308Y196776D01*
X114603Y196831D01*
X114756Y196853D01*
X114931D01*
X118111D01*
X118122D01*
X118155D01*
X118199D01*
X118264Y196842D01*
D02*
G37*
G36*
X120013Y190513D02*
X118986D01*
Y191541D01*
X120013D01*
Y190513D01*
D02*
G37*
G36*
Y188076D02*
X114100D01*
X114712Y187081D01*
X113696D01*
X113040Y188076D01*
Y189059D01*
X120013D01*
Y188076D01*
D02*
G37*
G36*
Y185026D02*
X117062Y183540D01*
Y182075D01*
X116133D01*
Y181529D01*
X117062D01*
Y182075D01*
X120013D01*
Y181102D01*
X113029D01*
Y181529D01*
X113958D01*
Y182075D01*
X116133D01*
Y183977D01*
X116122Y184064D01*
X116100Y184152D01*
X116057Y184261D01*
X116013Y184381D01*
X115936Y184491D01*
X115838Y184589D01*
X115827Y184600D01*
X115783Y184633D01*
X115718Y184677D01*
X115619Y184720D01*
X115510Y184764D01*
X115379Y184808D01*
X115226Y184840D01*
X115051Y184851D01*
X115040D01*
X115029D01*
X114974D01*
X114876Y184840D01*
X114767Y184819D01*
X114646Y184786D01*
X114515Y184742D01*
X114384Y184677D01*
X114264Y184589D01*
X114253Y184578D01*
X114220Y184545D01*
X114166Y184491D01*
X114111Y184414D01*
X114056Y184316D01*
X114002Y184195D01*
X113969Y184064D01*
X113958Y183911D01*
Y182075D01*
X113029D01*
Y183966D01*
X113040Y184086D01*
X113062Y184228D01*
X113094Y184392D01*
X113138Y184578D01*
X113193Y184753D01*
X113280Y184928D01*
X113291Y184950D01*
X113324Y185004D01*
X113379Y185092D01*
X113466Y185190D01*
X113565Y185300D01*
X113685Y185420D01*
X113827Y185540D01*
X113991Y185638D01*
X114013Y185649D01*
X114067Y185682D01*
X114166Y185726D01*
X114286Y185769D01*
X114450Y185813D01*
X114625Y185857D01*
X114832Y185890D01*
X115051Y185901D01*
X115062D01*
X115073D01*
X115106D01*
X115149D01*
X115269Y185890D01*
X115412Y185868D01*
X115576Y185835D01*
X115751Y185791D01*
X115936Y185726D01*
X116111Y185638D01*
X116133Y185627D01*
X116188Y185595D01*
X116264Y185540D01*
X116363Y185452D01*
X116483Y185354D01*
X116592Y185234D01*
X116712Y185092D01*
X116811Y184928D01*
X116822Y184906D01*
X116854Y184851D01*
X116887Y184753D01*
X116931Y184633D01*
X116950Y184574D01*
X116625Y184403D01*
X116843Y183430D01*
X117062Y183540D01*
Y183868D01*
X117051Y184086D01*
X117018Y184294D01*
X116985Y184469D01*
X116950Y184574D01*
X120013Y186185D01*
Y185026D01*
D02*
G37*
G36*
X307087Y223438D02*
X306103D01*
X303479Y225433D01*
X303470Y225442D01*
X303452Y225460D01*
X303415Y225479D01*
X303361Y225515D01*
X303251Y225579D01*
X303115Y225642D01*
X303105D01*
X303078Y225652D01*
X303042Y225670D01*
X302996Y225679D01*
X302887Y225706D01*
X302768Y225715D01*
X302759D01*
X302750D01*
X302723D01*
X302677Y225706D01*
X302623Y225697D01*
X302568Y225679D01*
X302504Y225652D01*
X302450Y225615D01*
X302395Y225560D01*
X302386Y225551D01*
X302377Y225533D01*
X302359Y225497D01*
X302331Y225451D01*
X302304Y225396D01*
X302286Y225314D01*
X302276Y225233D01*
X302267Y225132D01*
Y225087D01*
X302276Y225041D01*
X302286Y224977D01*
X302313Y224914D01*
X302340Y224841D01*
X302386Y224768D01*
X302450Y224695D01*
X302459Y224686D01*
X302477Y224668D01*
X302522Y224640D01*
X302577Y224613D01*
X302650Y224577D01*
X302732Y224540D01*
X302832Y224513D01*
X302951Y224495D01*
X302960D01*
Y223365D01*
X302951D01*
X302942D01*
X302914D01*
X302869Y223374D01*
X302814Y223383D01*
X302741Y223392D01*
X302668Y223411D01*
X302477Y223456D01*
X302276Y223520D01*
X302058Y223611D01*
X301848Y223739D01*
X301757Y223811D01*
X301666Y223893D01*
X301657Y223903D01*
X301648Y223912D01*
X301621Y223939D01*
X301593Y223975D01*
X301557Y224030D01*
X301520Y224085D01*
X301484Y224148D01*
X301438Y224221D01*
X301356Y224404D01*
X301284Y224613D01*
X301229Y224850D01*
X301220Y224987D01*
X301211Y225123D01*
Y225205D01*
X301220Y225260D01*
Y225333D01*
X301229Y225406D01*
X301256Y225597D01*
X301311Y225797D01*
X301384Y226007D01*
X301475Y226216D01*
X301539Y226308D01*
X301611Y226399D01*
Y226408D01*
X301630Y226417D01*
X301684Y226471D01*
X301776Y226544D01*
X301894Y226626D01*
X302058Y226708D01*
X302249Y226772D01*
X302468Y226827D01*
X302595Y226836D01*
X302723Y226845D01*
X302732D01*
X302750D01*
X302796D01*
X302878Y226836D01*
X302978Y226827D01*
X303096Y226809D01*
X303224Y226790D01*
X303370Y226754D01*
X303516Y226708D01*
X303534Y226699D01*
X303579Y226681D01*
X303652Y226654D01*
X303752Y226608D01*
X303862Y226554D01*
X303980Y226490D01*
X304108Y226417D01*
X304226Y226326D01*
X306030Y224886D01*
Y226881D01*
X307087D01*
Y223438D01*
D02*
G37*
G36*
X305164Y222472D02*
X305228D01*
X305374Y222454D01*
X305547Y222417D01*
X305729Y222372D01*
X305921Y222308D01*
X306103Y222226D01*
X306112D01*
X306121Y222217D01*
X306176Y222181D01*
X306267Y222117D01*
X306367Y222035D01*
X306485Y221926D01*
X306604Y221798D01*
X306722Y221643D01*
X306832Y221461D01*
Y221452D01*
X306841Y221434D01*
X306859Y221406D01*
X306868Y221370D01*
X306886Y221315D01*
X306913Y221261D01*
X306932Y221188D01*
X306959Y221115D01*
X307005Y220923D01*
X307050Y220705D01*
X307078Y220459D01*
X307087Y220186D01*
Y219357D01*
X306030D01*
Y218810D01*
X307087D01*
Y218263D01*
X301274D01*
Y218810D01*
X302331D01*
Y219357D01*
X306030D01*
Y220304D01*
X306012Y220395D01*
X305993Y220523D01*
X305966Y220650D01*
X305921Y220787D01*
X305857Y220923D01*
X305775Y221042D01*
X305766Y221051D01*
X305729Y221088D01*
X305665Y221133D01*
X305583Y221197D01*
X305474Y221252D01*
X305356Y221297D01*
X305201Y221333D01*
X305037Y221342D01*
X303324D01*
X303315D01*
X303306D01*
X303242D01*
X303160Y221324D01*
X303051Y221306D01*
X302942Y221270D01*
X302814Y221215D01*
X302696Y221142D01*
X302595Y221042D01*
X302586Y221033D01*
X302550Y220987D01*
X302513Y220923D01*
X302459Y220832D01*
X302413Y220714D01*
X302368Y220568D01*
X302340Y220404D01*
X302331Y220213D01*
Y219357D01*
X301274D01*
Y220295D01*
X301284Y220368D01*
X301293Y220459D01*
X301302Y220568D01*
X301320Y220687D01*
X301338Y220814D01*
X301411Y221088D01*
X301448Y221224D01*
X301502Y221370D01*
X301566Y221507D01*
X301639Y221634D01*
X301721Y221762D01*
X301821Y221880D01*
X301830Y221889D01*
X301848Y221907D01*
X301876Y221935D01*
X301921Y221971D01*
X301976Y222017D01*
X302040Y222071D01*
X302122Y222126D01*
X302213Y222181D01*
X302313Y222235D01*
X302431Y222290D01*
X302559Y222345D01*
X302696Y222390D01*
X302841Y222427D01*
X302996Y222454D01*
X303169Y222472D01*
X303351Y222481D01*
X305010D01*
X305019D01*
X305037D01*
X305073D01*
X305110D01*
X305164Y222472D01*
D02*
G37*
G36*
X302331Y214455D02*
X301274D01*
Y217261D01*
X302331D01*
Y214455D01*
D02*
G37*
G36*
X307087D02*
X306030D01*
Y213754D01*
X307087D01*
Y213362D01*
X301274D01*
Y213754D01*
X302331D01*
Y214455D01*
X303670D01*
Y216824D01*
X304727D01*
Y214455D01*
X303670D01*
Y213754D01*
X304727D01*
Y214455D01*
X306030D01*
Y217261D01*
X307087D01*
Y214455D01*
D02*
G37*
G36*
Y209755D02*
X306030D01*
Y209144D01*
X307087D01*
Y208661D01*
X301274D01*
Y209755D01*
X306030D01*
Y212561D01*
X307087D01*
Y209755D01*
D02*
G37*
G36*
X317913Y223993D02*
X313386D01*
X313650Y223283D01*
X312493D01*
X312101Y224158D01*
Y225087D01*
X317913D01*
Y223993D01*
D02*
G37*
G36*
X315991Y222472D02*
X316055D01*
X316201Y222454D01*
X316374Y222417D01*
X316556Y222372D01*
X316747Y222308D01*
X316930Y222226D01*
X316939D01*
X316948Y222217D01*
X317002Y222181D01*
X317093Y222117D01*
X317194Y222035D01*
X317312Y221926D01*
X317430Y221798D01*
X317549Y221643D01*
X317658Y221461D01*
Y221452D01*
X317667Y221434D01*
X317686Y221406D01*
X317695Y221370D01*
X317713Y221315D01*
X317740Y221260D01*
X317758Y221188D01*
X317786Y221115D01*
X317831Y220923D01*
X317877Y220705D01*
X317904Y220459D01*
X317913Y220186D01*
Y219357D01*
X316857D01*
Y218810D01*
X317913D01*
Y218263D01*
X312101D01*
Y218810D01*
X313158D01*
Y219357D01*
X316857D01*
Y220304D01*
X316838Y220395D01*
X316820Y220523D01*
X316793Y220650D01*
X316747Y220787D01*
X316684Y220923D01*
X316601Y221042D01*
X316592Y221051D01*
X316556Y221087D01*
X316492Y221133D01*
X316410Y221197D01*
X316301Y221251D01*
X316182Y221297D01*
X316028Y221333D01*
X315864Y221342D01*
X314151D01*
X314142D01*
X314133D01*
X314069D01*
X313987Y221324D01*
X313878Y221306D01*
X313768Y221270D01*
X313641Y221215D01*
X313522Y221142D01*
X313422Y221042D01*
X313413Y221033D01*
X313377Y220987D01*
X313340Y220923D01*
X313285Y220832D01*
X313240Y220714D01*
X313194Y220568D01*
X313167Y220404D01*
X313158Y220213D01*
Y219357D01*
X312101D01*
Y220295D01*
X312110Y220368D01*
X312119Y220459D01*
X312128Y220568D01*
X312147Y220687D01*
X312165Y220814D01*
X312238Y221087D01*
X312274Y221224D01*
X312329Y221370D01*
X312393Y221507D01*
X312466Y221634D01*
X312548Y221762D01*
X312648Y221880D01*
X312657Y221889D01*
X312675Y221907D01*
X312702Y221935D01*
X312748Y221971D01*
X312803Y222017D01*
X312866Y222071D01*
X312948Y222126D01*
X313039Y222181D01*
X313140Y222235D01*
X313258Y222290D01*
X313386Y222345D01*
X313522Y222390D01*
X313668Y222427D01*
X313823Y222454D01*
X313996Y222472D01*
X314178Y222481D01*
X315836D01*
X315845D01*
X315864D01*
X315900D01*
X315936D01*
X315991Y222472D01*
D02*
G37*
G36*
X313158Y214455D02*
X312101D01*
Y217261D01*
X313158D01*
Y214455D01*
D02*
G37*
G36*
X317913D02*
X316857D01*
Y213754D01*
X317913D01*
Y213362D01*
X312101D01*
Y213754D01*
X313158D01*
Y214455D01*
X314497D01*
Y216824D01*
X315554D01*
Y214455D01*
X314497D01*
Y213754D01*
X315554D01*
Y214455D01*
X316857D01*
Y217261D01*
X317913D01*
Y214455D01*
D02*
G37*
G36*
Y209755D02*
X316857D01*
Y209144D01*
X317913D01*
Y208661D01*
X312101D01*
Y209755D01*
X316857D01*
Y212561D01*
X317913D01*
Y209755D01*
D02*
G37*
G36*
X327701Y221753D02*
Y220896D01*
X321889Y218956D01*
Y220085D01*
X325770Y221324D01*
X321889Y222554D01*
Y223684D01*
X327701Y221753D01*
D02*
G37*
G36*
X326289Y218427D02*
X326353D01*
X326426Y218409D01*
X326599Y218382D01*
X326790Y218327D01*
X326982Y218245D01*
X327082Y218191D01*
X327173Y218136D01*
X327264Y218063D01*
X327346Y217981D01*
Y217972D01*
X327364Y217963D01*
X327382Y217935D01*
X327410Y217899D01*
X327437Y217853D01*
X327473Y217799D01*
X327510Y217735D01*
X327546Y217653D01*
X327592Y217571D01*
X327628Y217480D01*
X327665Y217371D01*
X327692Y217261D01*
X327738Y217015D01*
X327747Y216869D01*
X327756Y216724D01*
Y216633D01*
X327747Y216532D01*
X327729Y216405D01*
X327710Y216259D01*
X327683Y216104D01*
X327638Y215940D01*
X327574Y215785D01*
X327565Y215767D01*
X327537Y215722D01*
X327492Y215640D01*
X327428Y215549D01*
X327355Y215448D01*
X327255Y215339D01*
X327146Y215230D01*
X327018Y215129D01*
X327000Y215120D01*
X326954Y215093D01*
X326872Y215048D01*
X326772Y215002D01*
X326644Y214956D01*
X326490Y214911D01*
X326326Y214874D01*
X326134Y214856D01*
Y215995D01*
X326143D01*
X326180Y216004D01*
X326225Y216013D01*
X326289Y216031D01*
X326353Y216059D01*
X326426Y216095D01*
X326490Y216132D01*
X326553Y216186D01*
X326562Y216195D01*
X326572Y216214D01*
X326599Y216250D01*
X326626Y216305D01*
X326654Y216359D01*
X326672Y216432D01*
X326690Y216514D01*
X326699Y216605D01*
Y216660D01*
X326690Y216715D01*
X326681Y216778D01*
X326654Y216860D01*
X326626Y216942D01*
X326581Y217015D01*
X326526Y217088D01*
X326517Y217097D01*
X326490Y217115D01*
X326453Y217143D01*
X326398Y217179D01*
X326326Y217207D01*
X326244Y217234D01*
X326143Y217252D01*
X326034Y217261D01*
X325898D01*
X325879D01*
X325843D01*
X325788Y217252D01*
X325706Y217243D01*
X325624Y217225D01*
X325542Y217197D01*
X325460Y217161D01*
X325387Y217115D01*
X325378Y217106D01*
X325360Y217088D01*
X325333Y217061D01*
X325296Y217015D01*
X325260Y216961D01*
X325232Y216897D01*
X325214Y216815D01*
X325205Y216724D01*
Y216232D01*
X324148D01*
Y216760D01*
X324139Y216797D01*
X324130Y216842D01*
X324112Y216897D01*
X324085Y216951D01*
X324048Y216997D01*
X323993Y217043D01*
X323984Y217052D01*
X323966Y217061D01*
X323930Y217079D01*
X323875Y217106D01*
X323820Y217125D01*
X323738Y217143D01*
X323647Y217152D01*
X323547Y217161D01*
X323447D01*
X323438D01*
X323401D01*
X323356Y217152D01*
X323292Y217143D01*
X323165Y217106D01*
X323092Y217079D01*
X323037Y217034D01*
X323028Y217024D01*
X323010Y217006D01*
X322991Y216979D01*
X322964Y216942D01*
X322937Y216888D01*
X322909Y216833D01*
X322900Y216760D01*
X322891Y216678D01*
Y216642D01*
X322900Y216596D01*
X322909Y216551D01*
X322937Y216487D01*
X322964Y216423D01*
X323010Y216359D01*
X323064Y216296D01*
X323073Y216286D01*
X323092Y216268D01*
X323128Y216241D01*
X323183Y216214D01*
X323256Y216177D01*
X323328Y216141D01*
X323429Y216113D01*
X323538Y216086D01*
Y214956D01*
X323529D01*
X323501D01*
X323456Y214966D01*
X323401Y214975D01*
X323338Y214993D01*
X323256Y215002D01*
X323073Y215057D01*
X322864Y215129D01*
X322654Y215230D01*
X322454Y215357D01*
X322363Y215430D01*
X322272Y215521D01*
X322263Y215530D01*
X322253Y215549D01*
X322226Y215576D01*
X322199Y215612D01*
X322171Y215658D01*
X322126Y215713D01*
X322090Y215785D01*
X322044Y215858D01*
X321962Y216031D01*
X321898Y216241D01*
X321844Y216469D01*
X321834Y216596D01*
X321825Y216724D01*
Y216797D01*
X321834Y216851D01*
Y216915D01*
X321844Y216988D01*
X321871Y217161D01*
X321925Y217352D01*
X321998Y217544D01*
X322090Y217735D01*
X322153Y217826D01*
X322226Y217908D01*
Y217917D01*
X322244Y217926D01*
X322299Y217972D01*
X322390Y218045D01*
X322509Y218127D01*
X322673Y218200D01*
X322864Y218272D01*
X323082Y218318D01*
X323210Y218336D01*
X323338D01*
X323511D01*
X323529D01*
X323584D01*
X323656Y218327D01*
X323757Y218309D01*
X323866Y218282D01*
X323984Y218245D01*
X324103Y218200D01*
X324221Y218127D01*
X324230Y218118D01*
X324267Y218090D01*
X324321Y218045D01*
X324385Y217981D01*
X324458Y217899D01*
X324540Y217799D01*
X324604Y217689D01*
X324668Y217553D01*
Y217571D01*
X324686Y217626D01*
X324713Y217699D01*
X324759Y217790D01*
X324813Y217899D01*
X324886Y217999D01*
X324987Y218109D01*
X325105Y218200D01*
X325123Y218209D01*
X325169Y218236D01*
X325241Y218272D01*
X325342Y218318D01*
X325469Y218364D01*
X325624Y218400D01*
X325797Y218427D01*
X325989Y218437D01*
X326162D01*
X326171D01*
X326198D01*
X326235D01*
X326289Y218427D01*
D02*
G37*
G36*
X327701Y213098D02*
X326608D01*
Y214200D01*
X327701D01*
Y213098D01*
D02*
G37*
G36*
X326289Y212232D02*
X326353D01*
X326426Y212214D01*
X326599Y212187D01*
X326790Y212132D01*
X326982Y212050D01*
X327082Y211996D01*
X327173Y211941D01*
X327264Y211868D01*
X327346Y211786D01*
Y211777D01*
X327364Y211768D01*
X327382Y211741D01*
X327410Y211704D01*
X327437Y211659D01*
X327473Y211604D01*
X327510Y211540D01*
X327546Y211458D01*
X327592Y211376D01*
X327628Y211285D01*
X327665Y211176D01*
X327692Y211067D01*
X327738Y210821D01*
X327747Y210675D01*
X327756Y210529D01*
Y210438D01*
X327747Y210338D01*
X327729Y210210D01*
X327710Y210064D01*
X327683Y209910D01*
X327638Y209746D01*
X327574Y209591D01*
X327565Y209572D01*
X327537Y209527D01*
X327492Y209445D01*
X327428Y209354D01*
X327355Y209254D01*
X327255Y209144D01*
X327146Y209035D01*
X327018Y208935D01*
X327000Y208926D01*
X326954Y208898D01*
X326872Y208853D01*
X326772Y208807D01*
X326644Y208762D01*
X326490Y208716D01*
X326326Y208680D01*
X326134Y208661D01*
Y209800D01*
X326143D01*
X326180Y209809D01*
X326225Y209818D01*
X326289Y209837D01*
X326353Y209864D01*
X326426Y209900D01*
X326490Y209937D01*
X326553Y209992D01*
X326562Y210001D01*
X326572Y210019D01*
X326599Y210055D01*
X326626Y210110D01*
X326654Y210165D01*
X326672Y210237D01*
X326690Y210319D01*
X326699Y210410D01*
Y210465D01*
X326690Y210520D01*
X326681Y210584D01*
X326654Y210666D01*
X326626Y210748D01*
X326581Y210821D01*
X326526Y210893D01*
X326517Y210903D01*
X326490Y210921D01*
X326453Y210948D01*
X326398Y210984D01*
X326326Y211012D01*
X326244Y211039D01*
X326143Y211057D01*
X326034Y211067D01*
X325898D01*
X325879D01*
X325843D01*
X325788Y211057D01*
X325706Y211048D01*
X325624Y211030D01*
X325542Y211003D01*
X325460Y210966D01*
X325387Y210921D01*
X325378Y210912D01*
X325360Y210893D01*
X325333Y210866D01*
X325296Y210821D01*
X325260Y210766D01*
X325232Y210702D01*
X325214Y210620D01*
X325205Y210529D01*
Y210037D01*
X324148D01*
Y210565D01*
X324139Y210602D01*
X324130Y210647D01*
X324112Y210702D01*
X324085Y210757D01*
X324048Y210802D01*
X323993Y210848D01*
X323984Y210857D01*
X323966Y210866D01*
X323930Y210884D01*
X323875Y210912D01*
X323820Y210930D01*
X323738Y210948D01*
X323647Y210957D01*
X323547Y210966D01*
X323447D01*
X323438D01*
X323401D01*
X323356Y210957D01*
X323292Y210948D01*
X323165Y210912D01*
X323092Y210884D01*
X323037Y210839D01*
X323028Y210830D01*
X323010Y210811D01*
X322991Y210784D01*
X322964Y210748D01*
X322937Y210693D01*
X322909Y210638D01*
X322900Y210565D01*
X322891Y210483D01*
Y210447D01*
X322900Y210401D01*
X322909Y210356D01*
X322937Y210292D01*
X322964Y210228D01*
X323010Y210165D01*
X323064Y210101D01*
X323073Y210092D01*
X323092Y210073D01*
X323128Y210046D01*
X323183Y210019D01*
X323256Y209982D01*
X323328Y209946D01*
X323429Y209919D01*
X323538Y209891D01*
Y208762D01*
X323529D01*
X323501D01*
X323456Y208771D01*
X323401Y208780D01*
X323338Y208798D01*
X323256Y208807D01*
X323073Y208862D01*
X322864Y208935D01*
X322654Y209035D01*
X322454Y209162D01*
X322363Y209235D01*
X322272Y209327D01*
X322263Y209336D01*
X322253Y209354D01*
X322226Y209381D01*
X322199Y209418D01*
X322171Y209463D01*
X322126Y209518D01*
X322090Y209591D01*
X322044Y209664D01*
X321962Y209837D01*
X321898Y210046D01*
X321844Y210274D01*
X321834Y210401D01*
X321825Y210529D01*
Y210602D01*
X321834Y210656D01*
Y210720D01*
X321844Y210793D01*
X321871Y210966D01*
X321925Y211158D01*
X321998Y211349D01*
X322090Y211540D01*
X322153Y211631D01*
X322226Y211713D01*
Y211722D01*
X322244Y211732D01*
X322299Y211777D01*
X322390Y211850D01*
X322509Y211932D01*
X322673Y212005D01*
X322864Y212078D01*
X323082Y212123D01*
X323210Y212141D01*
X323338D01*
X323511D01*
X323529D01*
X323584D01*
X323656Y212132D01*
X323757Y212114D01*
X323866Y212087D01*
X323984Y212050D01*
X324103Y212005D01*
X324221Y211932D01*
X324230Y211923D01*
X324267Y211895D01*
X324321Y211850D01*
X324385Y211786D01*
X324458Y211704D01*
X324540Y211604D01*
X324604Y211495D01*
X324668Y211358D01*
Y211376D01*
X324686Y211431D01*
X324713Y211504D01*
X324759Y211595D01*
X324813Y211704D01*
X324886Y211804D01*
X324987Y211914D01*
X325105Y212005D01*
X325123Y212014D01*
X325169Y212041D01*
X325241Y212078D01*
X325342Y212123D01*
X325469Y212169D01*
X325624Y212205D01*
X325797Y212232D01*
X325989Y212242D01*
X326162D01*
X326171D01*
X326198D01*
X326235D01*
X326289Y212232D01*
D02*
G37*
G36*
X337544Y215439D02*
Y214583D01*
X331732Y212643D01*
Y213772D01*
X335612Y215011D01*
X331732Y216241D01*
Y217371D01*
X337544Y215439D01*
D02*
G37*
G36*
X335959Y212069D02*
X336032D01*
X336114Y212050D01*
X336305Y212023D01*
X336523Y211968D01*
X336742Y211886D01*
X336851Y211832D01*
X336952Y211777D01*
X337052Y211704D01*
X337143Y211622D01*
X337152Y211613D01*
X337161Y211604D01*
X337189Y211577D01*
X337216Y211540D01*
X337252Y211495D01*
X337289Y211440D01*
X337325Y211376D01*
X337371Y211294D01*
X337416Y211212D01*
X337453Y211121D01*
X337489Y211012D01*
X337526Y210903D01*
X337580Y210656D01*
X337589Y210511D01*
X337598Y210365D01*
Y210301D01*
X337589Y210247D01*
X337580Y210192D01*
X337571Y210119D01*
X337544Y209955D01*
X337489Y209773D01*
X337407Y209572D01*
X337362Y209472D01*
X337298Y209381D01*
X337234Y209281D01*
X337152Y209190D01*
X337143Y209181D01*
X337134Y209172D01*
X337106Y209144D01*
X337070Y209117D01*
X337024Y209081D01*
X336961Y209035D01*
X336897Y208989D01*
X336824Y208944D01*
X336733Y208898D01*
X336642Y208853D01*
X336532Y208807D01*
X336414Y208771D01*
X336296Y208734D01*
X336159Y208698D01*
X336022Y208680D01*
X335868Y208661D01*
X335858D01*
Y209755D01*
X335868D01*
X335886D01*
X335922Y209764D01*
X335977Y209773D01*
X336050Y209791D01*
X336132Y209818D01*
X336214Y209855D01*
X336296Y209900D01*
X336369Y209955D01*
X336378Y209964D01*
X336396Y209982D01*
X336423Y210019D01*
X336451Y210073D01*
X336487Y210128D01*
X336514Y210201D01*
X336532Y210292D01*
X336542Y210383D01*
Y210429D01*
X336532Y210483D01*
X336514Y210547D01*
X336496Y210620D01*
X336460Y210693D01*
X336414Y210766D01*
X336350Y210830D01*
X336341Y210839D01*
X336314Y210857D01*
X336268Y210875D01*
X336214Y210912D01*
X336141Y210939D01*
X336050Y210957D01*
X335940Y210975D01*
X335822Y210984D01*
X335330D01*
X335312D01*
X335275D01*
X335212Y210975D01*
X335139Y210966D01*
X335057Y210948D01*
X334966Y210921D01*
X334884Y210884D01*
X334811Y210839D01*
X334802Y210830D01*
X334783Y210811D01*
X334747Y210784D01*
X334711Y210738D01*
X334683Y210684D01*
X334647Y210620D01*
X334629Y210538D01*
X334619Y210447D01*
Y210410D01*
X334629Y210365D01*
X334638Y210310D01*
X334665Y210174D01*
X334701Y210101D01*
X334738Y210037D01*
X334747Y210028D01*
X334756Y210010D01*
X334783Y209982D01*
X334820Y209946D01*
X334875Y209910D01*
X334929Y209873D01*
X334993Y209837D01*
X335075Y209809D01*
Y208789D01*
X331732D01*
Y211914D01*
X332788D01*
Y209882D01*
X333809D01*
X333800Y209891D01*
X333790Y209910D01*
X333763Y209937D01*
X333745Y209973D01*
X333708Y210019D01*
X333681Y210083D01*
X333627Y210219D01*
Y210228D01*
X333617Y210256D01*
X333599Y210301D01*
X333590Y210356D01*
X333572Y210420D01*
X333563Y210492D01*
X333554Y210647D01*
Y210711D01*
X333563Y210757D01*
X333572Y210821D01*
X333581Y210884D01*
X333608Y211039D01*
X333663Y211203D01*
X333745Y211385D01*
X333800Y211467D01*
X333863Y211549D01*
X333936Y211631D01*
X334018Y211704D01*
X334027D01*
X334036Y211722D01*
X334064Y211741D01*
X334100Y211759D01*
X334155Y211795D01*
X334209Y211823D01*
X334282Y211859D01*
X334355Y211895D01*
X334446Y211923D01*
X334547Y211959D01*
X334647Y211996D01*
X334765Y212023D01*
X334893Y212041D01*
X335029Y212059D01*
X335175Y212078D01*
X335330D01*
X335822D01*
X335831D01*
X335858D01*
X335904D01*
X335959Y212069D01*
D02*
G37*
%LPC*%
G36*
X127352Y168358D02*
X126500D01*
Y167888D01*
X123319Y167287D01*
X126500Y166679D01*
Y166281D01*
X127352D01*
Y166517D01*
X126500Y166679D01*
Y167888D01*
X127352Y168049D01*
Y168358D01*
D02*
G37*
G36*
X118111Y195880D02*
X114931D01*
X114920D01*
X114909D01*
X114854D01*
X114756Y195869D01*
X114646Y195847D01*
X114526Y195825D01*
X114395Y195781D01*
X114275Y195716D01*
X114166Y195639D01*
X114155Y195628D01*
X114122Y195596D01*
X114078Y195530D01*
X114023Y195453D01*
X113969Y195344D01*
X113925Y195213D01*
X113892Y195049D01*
X113881Y194863D01*
Y194776D01*
X113892Y194677D01*
X113914Y194568D01*
X113947Y194437D01*
X114002Y194306D01*
X114067Y194186D01*
X114166Y194087D01*
X114176Y194076D01*
X114220Y194054D01*
X114275Y194011D01*
X114362Y193967D01*
X114472Y193923D01*
X114603Y193879D01*
X114756Y193858D01*
X114931Y193847D01*
X118111D01*
X118133D01*
X118188D01*
X118275Y193858D01*
X118385Y193879D01*
X118505Y193901D01*
X118636Y193945D01*
X118756Y194011D01*
X118876Y194087D01*
X118887Y194098D01*
X118920Y194131D01*
X118964Y194196D01*
X119018Y194273D01*
X119073Y194382D01*
X119117Y194513D01*
X119150Y194677D01*
X119161Y194863D01*
Y194951D01*
X119150Y195049D01*
X119128Y195158D01*
X119095Y195290D01*
X119040Y195421D01*
X118975Y195541D01*
X118876Y195639D01*
X118866Y195650D01*
X118822Y195672D01*
X118756Y195716D01*
X118669Y195759D01*
X118560Y195803D01*
X118428Y195847D01*
X118286Y195869D01*
X118111Y195880D01*
D02*
G37*
%LPD*%
D10*
X246614Y245079D02*
G03*
X246614Y245079I-1535J0D01*
G01*
X190512Y244094D02*
G03*
X190512Y244094I-1535J0D01*
G01*
D11*
X221994Y171653D02*
G03*
X221994Y171653I-492J0D01*
G01*
D12*
X328346Y149016D02*
Y149016D01*
X298228Y149016D02*
Y151083D01*
Y163878D02*
Y165945D01*
Y149016D02*
X328346D01*
X298228Y165945D02*
X328346D01*
X329724Y164567D01*
X328346Y149016D02*
X329724Y150394D01*
D13*
X320276Y149016D02*
Y165945D01*
X286602Y203346D02*
X288202D01*
X286602Y200197D02*
X288202D01*
X294639Y182555D02*
Y185508D01*
X288039Y182555D02*
Y185508D01*
X315650Y189961D02*
X316535D01*
X313386Y187696D02*
X315650Y189961D01*
X313386Y178150D02*
Y187696D01*
Y178150D02*
X316535D01*
Y189961D01*
X326843Y174606D02*
X328668D01*
X326843Y177756D02*
X328668D01*
X297638Y189048D02*
Y190873D01*
X300787Y189048D02*
Y190873D01*
X316535Y172428D02*
Y174028D01*
X313386Y172428D02*
Y174028D01*
X326843Y169685D02*
X328668D01*
X326843Y172835D02*
X328668D01*
X302559Y189048D02*
Y190873D01*
X305709Y189048D02*
Y190873D01*
X326987Y182677D02*
X328587D01*
X326987Y179528D02*
X328587D01*
X318307Y172428D02*
Y174028D01*
X321457Y172428D02*
Y174028D01*
X234842Y161602D02*
Y163202D01*
X231693Y161602D02*
Y163202D01*
X254528Y177940D02*
Y179540D01*
X251378Y177940D02*
Y179540D01*
X305302Y203346D02*
X306902D01*
X305302Y200197D02*
X306902D01*
X297428Y203346D02*
X299028D01*
X297428Y200197D02*
X299028D01*
X259043Y182283D02*
X260643D01*
X259043Y179134D02*
X260643D01*
X258930Y175197D02*
X260755D01*
X258930Y178347D02*
X260755D01*
X277631Y197441D02*
X279456D01*
X277631Y194291D02*
X279456D01*
X333071Y231484D02*
Y233084D01*
X336221Y231484D02*
Y233084D01*
X323228Y231484D02*
Y233084D01*
X326378Y231484D02*
Y233084D01*
X197244Y158649D02*
Y160249D01*
X200394Y158649D02*
Y160249D01*
X191339Y158649D02*
Y160249D01*
X194488Y158649D02*
Y160249D01*
X233115Y194567D02*
X234940D01*
X233115Y197716D02*
X234940D01*
X313386Y231484D02*
Y233084D01*
X316535Y231484D02*
Y233084D01*
X302559Y231484D02*
Y233084D01*
X305709Y231484D02*
Y233084D01*
X212008Y180190D02*
Y182015D01*
X215158Y180190D02*
Y182015D01*
X274606Y184745D02*
Y185630D01*
Y184745D02*
X276870Y182480D01*
X286417D01*
Y185630D01*
X274606D02*
X286417D01*
D14*
X164291Y249095D02*
X184291D01*
Y239094D02*
Y249095D01*
X144291Y239094D02*
Y249095D01*
X164291D01*
X154291Y239094D02*
X184291D01*
X144291D02*
X154291D01*
X210394Y229095D02*
X220394D01*
X240394D01*
Y239094D01*
X210394Y249095D02*
X220394D01*
X210394Y229095D02*
Y249095D01*
X240394Y239094D02*
Y249095D01*
X220394D02*
X240394D01*
X135623Y242111D02*
Y240111D01*
Y241111D01*
X140621D01*
X141621Y240111D01*
Y239111D01*
X140621Y238112D01*
X141621Y248109D02*
Y244110D01*
X137622Y248109D01*
X136623D01*
X135623Y247109D01*
Y245110D01*
X136623Y244110D01*
X201883Y241968D02*
Y239969D01*
Y240969D01*
X206881D01*
X207881Y239969D01*
Y238969D01*
X206881Y237970D01*
X207881Y243968D02*
Y245967D01*
Y244968D01*
X201883D01*
X202883Y243968D01*
D15*
X333046Y247426D02*
X336246D01*
X323203D02*
X326403D01*
X313581Y247276D02*
X316781D01*
X302534Y247426D02*
X305734D01*
D16*
X240748Y171653D02*
Y173274D01*
X239128Y171653D02*
X240748D01*
Y190900D02*
Y192520D01*
X239128D02*
X240748D01*
X219882D02*
X221502D01*
X219882Y190900D02*
Y192520D01*
Y171653D02*
Y173274D01*
D17*
X100000Y105000D02*
G03*
X105000Y100000I5000J0D01*
G01*
X353000D02*
G03*
X358000Y105000I0J5000D01*
G01*
Y247953D02*
G03*
X353000Y252953I-5000J0D01*
G01*
X105000D02*
G03*
X100000Y247953I0J-5000D01*
G01*
Y105000D02*
Y108661D01*
X105000Y100000D02*
X108661D01*
X348031D02*
X353000D01*
X358000Y105000D02*
Y109968D01*
Y240425D02*
Y247953D01*
X345472Y252953D02*
X353000D01*
X105000D02*
X111221D01*
X100000Y241732D02*
Y247953D01*
X108661Y100000D02*
X348031D01*
X358000Y109968D02*
Y240425D01*
X100000Y108661D02*
Y241732D01*
X111221Y252953D02*
X345472D01*
M02*
