G04*
G04 #@! TF.GenerationSoftware,Altium Limited,Altium Designer,22.2.1 (43)*
G04*
G04 Layer_Physical_Order=1*
G04 Layer_Color=255*
%FSLAX25Y25*%
%MOIN*%
G70*
G04*
G04 #@! TF.SameCoordinates,9D487286-0820-45C8-B7CC-BF608446F30D*
G04*
G04*
G04 #@! TF.FilePolarity,Positive*
G04*
G01*
G75*
%ADD15C,0.00800*%
%ADD17C,0.00100*%
G04:AMPARAMS|DCode=18|XSize=96.46mil|YSize=82.68mil|CornerRadius=8.27mil|HoleSize=0mil|Usage=FLASHONLY|Rotation=90.000|XOffset=0mil|YOffset=0mil|HoleType=Round|Shape=RoundedRectangle|*
%AMROUNDEDRECTD18*
21,1,0.09646,0.06614,0,0,90.0*
21,1,0.07992,0.08268,0,0,90.0*
1,1,0.01654,0.03307,0.03996*
1,1,0.01654,0.03307,-0.03996*
1,1,0.01654,-0.03307,-0.03996*
1,1,0.01654,-0.03307,0.03996*
%
%ADD18ROUNDEDRECTD18*%
G04:AMPARAMS|DCode=19|XSize=23.62mil|YSize=17.72mil|CornerRadius=4.43mil|HoleSize=0mil|Usage=FLASHONLY|Rotation=270.000|XOffset=0mil|YOffset=0mil|HoleType=Round|Shape=RoundedRectangle|*
%AMROUNDEDRECTD19*
21,1,0.02362,0.00886,0,0,270.0*
21,1,0.01476,0.01772,0,0,270.0*
1,1,0.00886,-0.00443,-0.00738*
1,1,0.00886,-0.00443,0.00738*
1,1,0.00886,0.00443,0.00738*
1,1,0.00886,0.00443,-0.00738*
%
%ADD19ROUNDEDRECTD19*%
G04:AMPARAMS|DCode=20|XSize=59.06mil|YSize=35.43mil|CornerRadius=1.77mil|HoleSize=0mil|Usage=FLASHONLY|Rotation=180.000|XOffset=0mil|YOffset=0mil|HoleType=Round|Shape=RoundedRectangle|*
%AMROUNDEDRECTD20*
21,1,0.05906,0.03189,0,0,180.0*
21,1,0.05551,0.03543,0,0,180.0*
1,1,0.00354,-0.02776,0.01595*
1,1,0.00354,0.02776,0.01595*
1,1,0.00354,0.02776,-0.01595*
1,1,0.00354,-0.02776,-0.01595*
%
%ADD20ROUNDEDRECTD20*%
G04:AMPARAMS|DCode=21|XSize=47.64mil|YSize=22.84mil|CornerRadius=2.85mil|HoleSize=0mil|Usage=FLASHONLY|Rotation=0.000|XOffset=0mil|YOffset=0mil|HoleType=Round|Shape=RoundedRectangle|*
%AMROUNDEDRECTD21*
21,1,0.04764,0.01713,0,0,0.0*
21,1,0.04193,0.02284,0,0,0.0*
1,1,0.00571,0.02097,-0.00856*
1,1,0.00571,-0.02097,-0.00856*
1,1,0.00571,-0.02097,0.00856*
1,1,0.00571,0.02097,0.00856*
%
%ADD21ROUNDEDRECTD21*%
G04:AMPARAMS|DCode=24|XSize=23.62mil|YSize=17.72mil|CornerRadius=4.43mil|HoleSize=0mil|Usage=FLASHONLY|Rotation=180.000|XOffset=0mil|YOffset=0mil|HoleType=Round|Shape=RoundedRectangle|*
%AMROUNDEDRECTD24*
21,1,0.02362,0.00886,0,0,180.0*
21,1,0.01476,0.01772,0,0,180.0*
1,1,0.00886,-0.00738,0.00443*
1,1,0.00886,0.00738,0.00443*
1,1,0.00886,0.00738,-0.00443*
1,1,0.00886,-0.00738,-0.00443*
%
%ADD24ROUNDEDRECTD24*%
G04:AMPARAMS|DCode=25|XSize=31.89mil|YSize=36.61mil|CornerRadius=4.78mil|HoleSize=0mil|Usage=FLASHONLY|Rotation=270.000|XOffset=0mil|YOffset=0mil|HoleType=Round|Shape=RoundedRectangle|*
%AMROUNDEDRECTD25*
21,1,0.03189,0.02705,0,0,270.0*
21,1,0.02232,0.03661,0,0,270.0*
1,1,0.00957,-0.01352,-0.01116*
1,1,0.00957,-0.01352,0.01116*
1,1,0.00957,0.01352,0.01116*
1,1,0.00957,0.01352,-0.01116*
%
%ADD25ROUNDEDRECTD25*%
%ADD26R,0.12205X0.12205*%
%ADD27O,0.03543X0.00984*%
%ADD28O,0.00984X0.03543*%
G04:AMPARAMS|DCode=29|XSize=47.64mil|YSize=22.84mil|CornerRadius=2.85mil|HoleSize=0mil|Usage=FLASHONLY|Rotation=90.000|XOffset=0mil|YOffset=0mil|HoleType=Round|Shape=RoundedRectangle|*
%AMROUNDEDRECTD29*
21,1,0.04764,0.01713,0,0,90.0*
21,1,0.04193,0.02284,0,0,90.0*
1,1,0.00571,0.00856,0.02097*
1,1,0.00571,0.00856,-0.02097*
1,1,0.00571,-0.00856,-0.02097*
1,1,0.00571,-0.00856,0.02097*
%
%ADD29ROUNDEDRECTD29*%
%ADD30R,0.03347X0.12795*%
G04:AMPARAMS|DCode=48|XSize=23.62mil|YSize=19.68mil|CornerRadius=4.92mil|HoleSize=0mil|Usage=FLASHONLY|Rotation=90.000|XOffset=0mil|YOffset=0mil|HoleType=Round|Shape=RoundedRectangle|*
%AMROUNDEDRECTD48*
21,1,0.02362,0.00984,0,0,90.0*
21,1,0.01378,0.01968,0,0,90.0*
1,1,0.00984,0.00492,0.00689*
1,1,0.00984,0.00492,-0.00689*
1,1,0.00984,-0.00492,-0.00689*
1,1,0.00984,-0.00492,0.00689*
%
%ADD48ROUNDEDRECTD48*%
G04:AMPARAMS|DCode=49|XSize=23.62mil|YSize=19.68mil|CornerRadius=4.92mil|HoleSize=0mil|Usage=FLASHONLY|Rotation=0.000|XOffset=0mil|YOffset=0mil|HoleType=Round|Shape=RoundedRectangle|*
%AMROUNDEDRECTD49*
21,1,0.02362,0.00984,0,0,0.0*
21,1,0.01378,0.01968,0,0,0.0*
1,1,0.00984,0.00689,-0.00492*
1,1,0.00984,-0.00689,-0.00492*
1,1,0.00984,-0.00689,0.00492*
1,1,0.00984,0.00689,0.00492*
%
%ADD49ROUNDEDRECTD49*%
%ADD50C,0.01500*%
%ADD51C,0.02000*%
%ADD52C,0.03000*%
%ADD53C,0.01200*%
%ADD54C,0.01968*%
%ADD55C,0.07400*%
%ADD56R,0.07400X0.07400*%
%ADD57C,0.08000*%
%ADD58C,0.04291*%
%ADD59C,0.03000*%
%ADD60C,0.05000*%
G36*
X354031Y251801D02*
X354992Y251403D01*
X355817Y250770D01*
X356450Y249945D01*
X356848Y248984D01*
X356979Y247990D01*
X356975Y247953D01*
Y105000D01*
X356979Y104963D01*
X356848Y103969D01*
X356450Y103008D01*
X355817Y102183D01*
X354992Y101550D01*
X354031Y101152D01*
X353037Y101021D01*
X353000Y101025D01*
X293795D01*
X293729Y101525D01*
X294524Y101739D01*
X295322Y102199D01*
X295974Y102851D01*
X296435Y103649D01*
X296673Y104539D01*
Y105461D01*
X296435Y106351D01*
X295974Y107149D01*
X295568Y107555D01*
X295775Y108055D01*
X295847D01*
Y122850D01*
X290500D01*
Y108055D01*
X290571D01*
X290779Y107555D01*
X290372Y107149D01*
X289912Y106351D01*
X289673Y105461D01*
Y104539D01*
X289912Y103649D01*
X290372Y102851D01*
X291024Y102199D01*
X291822Y101739D01*
X292617Y101525D01*
X292551Y101025D01*
X283795D01*
X283729Y101525D01*
X284524Y101739D01*
X285322Y102199D01*
X285974Y102851D01*
X286435Y103649D01*
X286673Y104539D01*
Y105461D01*
X286435Y106351D01*
X285974Y107149D01*
X285568Y107555D01*
X285775Y108055D01*
X285846D01*
Y122850D01*
X280500D01*
Y108055D01*
X280572D01*
X280779Y107555D01*
X280373Y107149D01*
X279912Y106351D01*
X279673Y105461D01*
Y104539D01*
X279912Y103649D01*
X280373Y102851D01*
X281024Y102199D01*
X281822Y101739D01*
X282617Y101525D01*
X282551Y101025D01*
X273795D01*
X273729Y101525D01*
X274524Y101739D01*
X275322Y102199D01*
X275974Y102851D01*
X276435Y103649D01*
X276673Y104539D01*
Y105461D01*
X276435Y106351D01*
X275974Y107149D01*
X275568Y107555D01*
X275775Y108055D01*
X275847D01*
Y122850D01*
X270500D01*
Y108055D01*
X270571D01*
X270779Y107555D01*
X270373Y107149D01*
X269912Y106351D01*
X269673Y105461D01*
Y104539D01*
X269912Y103649D01*
X270373Y102851D01*
X271024Y102199D01*
X271822Y101739D01*
X272617Y101525D01*
X272551Y101025D01*
X253795D01*
X253729Y101525D01*
X254524Y101739D01*
X255322Y102199D01*
X255974Y102851D01*
X256435Y103649D01*
X256673Y104539D01*
Y105461D01*
X256435Y106351D01*
X255974Y107149D01*
X255568Y107555D01*
X255775Y108055D01*
X255847D01*
Y122850D01*
X250500D01*
Y108055D01*
X250571D01*
X250779Y107555D01*
X250373Y107149D01*
X249912Y106351D01*
X249673Y105461D01*
Y104539D01*
X249912Y103649D01*
X250373Y102851D01*
X251024Y102199D01*
X251822Y101739D01*
X252617Y101525D01*
X252551Y101025D01*
X243795D01*
X243729Y101525D01*
X244524Y101739D01*
X245322Y102199D01*
X245974Y102851D01*
X246435Y103649D01*
X246673Y104539D01*
Y105461D01*
X246435Y106351D01*
X245974Y107149D01*
X245568Y107555D01*
X245775Y108055D01*
X245847D01*
Y122850D01*
X240500D01*
Y108055D01*
X240571D01*
X240779Y107555D01*
X240372Y107149D01*
X239912Y106351D01*
X239673Y105461D01*
Y104539D01*
X239912Y103649D01*
X240372Y102851D01*
X241024Y102199D01*
X241822Y101739D01*
X242617Y101525D01*
X242551Y101025D01*
X223795D01*
X223729Y101525D01*
X224524Y101739D01*
X225322Y102199D01*
X225974Y102851D01*
X226435Y103649D01*
X226673Y104539D01*
Y105461D01*
X226435Y106351D01*
X225974Y107149D01*
X225568Y107555D01*
X225775Y108055D01*
X225847D01*
Y122850D01*
X220500D01*
Y108055D01*
X220571D01*
X220779Y107555D01*
X220373Y107149D01*
X219912Y106351D01*
X219673Y105461D01*
Y104539D01*
X219912Y103649D01*
X220373Y102851D01*
X221024Y102199D01*
X221822Y101739D01*
X222617Y101525D01*
X222551Y101025D01*
X213795D01*
X213729Y101525D01*
X214524Y101739D01*
X215322Y102199D01*
X215974Y102851D01*
X216435Y103649D01*
X216673Y104539D01*
Y105461D01*
X216435Y106351D01*
X215974Y107149D01*
X215568Y107555D01*
X215775Y108055D01*
X215846D01*
Y122850D01*
X210500D01*
Y108055D01*
X210572D01*
X210779Y107555D01*
X210372Y107149D01*
X209912Y106351D01*
X209673Y105461D01*
Y104539D01*
X209912Y103649D01*
X210372Y102851D01*
X211024Y102199D01*
X211822Y101739D01*
X212617Y101525D01*
X212551Y101025D01*
X203795D01*
X203729Y101525D01*
X204524Y101739D01*
X205322Y102199D01*
X205974Y102851D01*
X206435Y103649D01*
X206673Y104539D01*
Y105461D01*
X206435Y106351D01*
X205974Y107149D01*
X205568Y107555D01*
X205775Y108055D01*
X205847D01*
Y122850D01*
X200500D01*
Y108055D01*
X200571D01*
X200779Y107555D01*
X200373Y107149D01*
X199912Y106351D01*
X199673Y105461D01*
Y104539D01*
X199912Y103649D01*
X200373Y102851D01*
X201024Y102199D01*
X201822Y101739D01*
X202617Y101525D01*
X202551Y101025D01*
X193795D01*
X193729Y101525D01*
X194524Y101739D01*
X195322Y102199D01*
X195974Y102851D01*
X196435Y103649D01*
X196673Y104539D01*
Y105461D01*
X196435Y106351D01*
X195974Y107149D01*
X195568Y107555D01*
X195775Y108055D01*
X195846D01*
Y120832D01*
X199828Y124813D01*
X199828Y124813D01*
X200138Y125277D01*
X200246Y125823D01*
X200246Y125823D01*
Y155610D01*
X200686Y155877D01*
X202061Y154502D01*
X202061Y154502D01*
X202524Y154193D01*
X203070Y154084D01*
X203070Y154084D01*
X235236D01*
X235236Y154084D01*
X235783Y154193D01*
X236246Y154502D01*
X245104Y163361D01*
X245104Y163361D01*
X245413Y163824D01*
X245522Y164370D01*
X245522Y164370D01*
Y172244D01*
X245413Y172790D01*
X245104Y173253D01*
X245104Y173254D01*
X242186Y176171D01*
X242161Y176299D01*
X242350Y176583D01*
X242466Y177165D01*
X242350Y177748D01*
X242082Y178150D01*
X242350Y178552D01*
X242466Y179134D01*
X242350Y179716D01*
X242082Y180118D01*
X242350Y180520D01*
X242466Y181102D01*
X242436Y181257D01*
X242753Y181643D01*
X243503D01*
X243563Y181584D01*
Y180605D01*
X243944Y179686D01*
X244647Y178983D01*
X245566Y178602D01*
X246560D01*
X247479Y178983D01*
X248182Y179686D01*
X248563Y180605D01*
Y181600D01*
X248182Y182518D01*
X248556Y182822D01*
X250743Y180636D01*
Y180297D01*
X250855Y179734D01*
X251174Y179257D01*
X251575Y178989D01*
Y177264D01*
X254331D01*
Y178989D01*
X254731Y179257D01*
X254758Y179297D01*
X256114D01*
X256359Y178930D01*
X256564Y178793D01*
X256693Y178347D01*
X256693Y178152D01*
Y177510D01*
X257480D01*
X257480Y178185D01*
X257874Y178408D01*
X258268Y178185D01*
Y175197D01*
X260116D01*
X260243Y175007D01*
X260737Y174677D01*
X261319Y174561D01*
X262303D01*
X262885Y174677D01*
X263379Y175007D01*
X263709Y175501D01*
X263825Y176083D01*
Y177013D01*
X264174Y177363D01*
X264391Y177687D01*
X274605D01*
Y177018D01*
X274705Y176516D01*
X274989Y176091D01*
X275414Y175807D01*
X275915Y175707D01*
X277628D01*
X278130Y175807D01*
X278555Y176091D01*
X278839Y176516D01*
X278939Y177018D01*
Y181211D01*
X278839Y181712D01*
X278555Y182137D01*
X278130Y182422D01*
X277628Y182521D01*
X275915D01*
X275414Y182422D01*
X274989Y182137D01*
X274705Y181712D01*
X274605Y181211D01*
Y180542D01*
X263757D01*
Y181447D01*
X263645Y182010D01*
X263326Y182487D01*
X262848Y182806D01*
X262285Y182918D01*
X261400D01*
X260837Y182806D01*
X260359Y182487D01*
X260092Y182087D01*
X259593D01*
X259326Y182487D01*
X258848Y182806D01*
X258285Y182918D01*
X257400D01*
X256837Y182806D01*
X256359Y182487D01*
X256135Y182152D01*
X254779D01*
X254731Y182223D01*
X254254Y182542D01*
X253691Y182654D01*
X252762D01*
X249940Y185477D01*
X249989Y185974D01*
X250025Y185998D01*
X283072Y219045D01*
X309055D01*
X309055Y219045D01*
X309601Y219154D01*
X310065Y219463D01*
X315970Y225369D01*
X315970Y225369D01*
X316279Y225832D01*
X316388Y226378D01*
Y228566D01*
X316739Y228800D01*
X317058Y229278D01*
X317170Y229840D01*
Y230726D01*
X317058Y231289D01*
X316739Y231767D01*
X316339Y232034D01*
Y232533D01*
X316739Y232800D01*
X317058Y233278D01*
X317170Y233840D01*
Y234184D01*
X317220Y234437D01*
Y236352D01*
X317599Y236605D01*
X317926Y237094D01*
X318041Y237671D01*
Y239903D01*
X317926Y240480D01*
X317599Y240969D01*
X317110Y241296D01*
X316533Y241411D01*
X313829D01*
X313252Y241296D01*
X312763Y240969D01*
X312436Y240480D01*
X312321Y239903D01*
Y237671D01*
X312436Y237094D01*
X312763Y236605D01*
X313142Y236352D01*
Y235706D01*
X312863Y235289D01*
X312751Y234726D01*
Y233840D01*
X312863Y233278D01*
X313182Y232800D01*
X313583Y232533D01*
Y232034D01*
X313182Y231767D01*
X312863Y231289D01*
X312751Y230726D01*
Y229840D01*
X312863Y229278D01*
X313182Y228800D01*
X313533Y228566D01*
Y226969D01*
X308464Y221900D01*
X303303D01*
X303151Y222400D01*
X303175Y222416D01*
X305143Y224384D01*
X305453Y224847D01*
X305561Y225394D01*
X305561Y225394D01*
Y228566D01*
X305912Y228800D01*
X306231Y229278D01*
X306343Y229840D01*
Y230726D01*
X306231Y231289D01*
X305912Y231767D01*
X305512Y232034D01*
Y232533D01*
X305912Y232800D01*
X306231Y233278D01*
X306343Y233840D01*
Y234726D01*
X306231Y235289D01*
X306173Y235377D01*
Y236502D01*
X306552Y236755D01*
X306879Y237244D01*
X306994Y237821D01*
Y240053D01*
X306879Y240630D01*
X306552Y241119D01*
X306063Y241446D01*
X305486Y241560D01*
X302782D01*
X302205Y241446D01*
X301716Y241119D01*
X301389Y240630D01*
X301274Y240053D01*
Y237821D01*
X301389Y237244D01*
X301716Y236755D01*
X302095Y236502D01*
Y235377D01*
X302036Y235289D01*
X301924Y234726D01*
Y233840D01*
X302036Y233278D01*
X302355Y232800D01*
X302756Y232533D01*
Y232034D01*
X302355Y231767D01*
X302036Y231289D01*
X301924Y230726D01*
Y229840D01*
X302036Y229278D01*
X302355Y228800D01*
X302706Y228566D01*
Y225985D01*
X301574Y224853D01*
X281496D01*
X281496Y224853D01*
X280950Y224744D01*
X280487Y224434D01*
X280487Y224434D01*
X246456Y190404D01*
X241417D01*
X240945Y190498D01*
X238726D01*
Y192717D01*
X238610Y193299D01*
X238281Y193792D01*
X237899Y194047D01*
X237783Y194161D01*
X237740Y194641D01*
X237894Y194871D01*
X238010Y195453D01*
Y196831D01*
X237894Y197413D01*
X237740Y197644D01*
Y198771D01*
X238340Y199371D01*
X238720Y200290D01*
Y201285D01*
X238340Y202203D01*
X237637Y202907D01*
X236718Y203287D01*
X235723D01*
X234804Y202907D01*
X234101Y202203D01*
X233720Y201285D01*
Y200290D01*
X234101Y199371D01*
X234477Y198995D01*
Y197939D01*
X234428Y197906D01*
X234301Y197716D01*
X232453D01*
Y194567D01*
X233605D01*
Y191437D01*
X233715Y190884D01*
Y190157D01*
X233831Y189575D01*
X234160Y189082D01*
X234654Y188752D01*
X235236Y188636D01*
X235818Y188752D01*
X236221Y189021D01*
X236623Y188752D01*
X236921Y188693D01*
X236980Y188394D01*
X237249Y187992D01*
X236980Y187590D01*
X236864Y187008D01*
X236980Y186426D01*
X237249Y186024D01*
X236980Y185622D01*
X236864Y185039D01*
X236980Y184457D01*
X237249Y184055D01*
X236980Y183653D01*
X236864Y183071D01*
X236980Y182489D01*
X237249Y182087D01*
X236980Y181685D01*
X236864Y181102D01*
X236980Y180520D01*
X237249Y180118D01*
X236980Y179716D01*
X236864Y179134D01*
X236980Y178552D01*
X237249Y178150D01*
X236980Y177748D01*
X236864Y177165D01*
X236980Y176583D01*
X237249Y176181D01*
X236980Y175779D01*
X236921Y175481D01*
X236623Y175421D01*
X236221Y175153D01*
X235818Y175421D01*
X235236Y175537D01*
X234654Y175421D01*
X234252Y175153D01*
X233850Y175421D01*
X233268Y175537D01*
X232685Y175421D01*
X232283Y175153D01*
X231881Y175421D01*
X231299Y175537D01*
X230717Y175421D01*
X230315Y175153D01*
X229913Y175421D01*
X229331Y175537D01*
X228748Y175421D01*
X228346Y175153D01*
X227944Y175421D01*
X227362Y175537D01*
X226780Y175421D01*
X226378Y175153D01*
X225976Y175421D01*
X225394Y175537D01*
X224812Y175421D01*
X224410Y175153D01*
X224007Y175421D01*
X223709Y175481D01*
X223650Y175779D01*
X223381Y176181D01*
X223650Y176583D01*
X223765Y177165D01*
X223650Y177748D01*
X223381Y178150D01*
X223650Y178552D01*
X223765Y179134D01*
X223650Y179716D01*
X223320Y180210D01*
X222826Y180539D01*
X222244Y180655D01*
X219685D01*
X219103Y180539D01*
X219083Y180526D01*
X218469D01*
X217922Y180417D01*
X217459Y180108D01*
X217459Y180108D01*
X215944Y178593D01*
X215158D01*
Y178740D01*
X214321D01*
Y178577D01*
X212844D01*
Y178740D01*
X212008D01*
Y178577D01*
X210709D01*
X210630Y178593D01*
X210630Y178593D01*
X193505D01*
X180876Y191221D01*
Y239394D01*
X183991D01*
Y248795D01*
X174591D01*
Y239394D01*
X178021D01*
Y190846D01*
X177521Y190639D01*
X170876Y197284D01*
Y239653D01*
X171106Y239715D01*
X172177Y240334D01*
X173052Y241209D01*
X173671Y242280D01*
X173991Y243476D01*
Y244713D01*
X173671Y245909D01*
X173052Y246980D01*
X172177Y247855D01*
X171106Y248474D01*
X169910Y248795D01*
X168673D01*
X167477Y248474D01*
X166405Y247855D01*
X165530Y246980D01*
X164912Y245909D01*
X164591Y244713D01*
Y243476D01*
X164912Y242280D01*
X165530Y241209D01*
X166405Y240334D01*
X167477Y239715D01*
X168021Y239569D01*
Y196693D01*
X168021Y196693D01*
X168130Y196147D01*
X168439Y195684D01*
X189936Y174188D01*
X190399Y173878D01*
X190945Y173769D01*
X190945Y173769D01*
X216547D01*
X216547Y173769D01*
X217093Y173878D01*
X217556Y174188D01*
X217838Y174469D01*
X218444Y174368D01*
X218609Y174121D01*
X219103Y173791D01*
X219685Y173676D01*
X221904D01*
Y171457D01*
X222020Y170875D01*
X222349Y170381D01*
X222843Y170051D01*
X223425Y169935D01*
X224007Y170051D01*
X224410Y170320D01*
X224812Y170051D01*
X225394Y169935D01*
X225976Y170051D01*
X226378Y170320D01*
X226780Y170051D01*
X227362Y169935D01*
X227944Y170051D01*
X228346Y170320D01*
X228748Y170051D01*
X229331Y169935D01*
X229913Y170051D01*
X230315Y170320D01*
X230717Y170051D01*
X231299Y169935D01*
X231625Y169525D01*
X231637Y169228D01*
X231148Y168739D01*
X230768Y167820D01*
Y166825D01*
X231148Y165907D01*
X231362Y165693D01*
X231170Y165408D01*
X231058Y164845D01*
Y163959D01*
X231170Y163396D01*
X231489Y162918D01*
X231890Y162651D01*
Y162152D01*
X231711Y162033D01*
X228314D01*
X227794Y162552D01*
X226875Y162933D01*
X225881D01*
X224962Y162552D01*
X224259Y161849D01*
X223878Y160930D01*
Y159936D01*
X224097Y159408D01*
X223763Y158908D01*
X211221D01*
X201797Y168332D01*
X201334Y168642D01*
X200787Y168750D01*
X200787Y168750D01*
X191929D01*
X191929Y168750D01*
X191383Y168642D01*
X190920Y168332D01*
X188951Y166364D01*
X188642Y165901D01*
X188533Y165354D01*
X188533Y165354D01*
Y158465D01*
X188533Y158465D01*
X188642Y157918D01*
X188951Y157455D01*
X189967Y156439D01*
X189967Y156439D01*
X190430Y156130D01*
X190976Y156021D01*
X190976Y156021D01*
X191098D01*
X191135Y155966D01*
X191612Y155647D01*
X191616Y155646D01*
Y148142D01*
X191024Y147801D01*
X190373Y147149D01*
X189912Y146351D01*
X189673Y145461D01*
Y144539D01*
X189912Y143649D01*
X190373Y142851D01*
X190779Y142445D01*
X190571Y141945D01*
X190500D01*
Y127150D01*
X195846D01*
Y141945D01*
X195775D01*
X195568Y142445D01*
X195974Y142851D01*
X196435Y143649D01*
X196673Y144539D01*
Y145461D01*
X196435Y146351D01*
X195974Y147149D01*
X195322Y147801D01*
X194524Y148261D01*
X194471Y148276D01*
Y155818D01*
X194692Y155966D01*
X195011Y156443D01*
X195123Y157006D01*
Y157892D01*
X195011Y158455D01*
X194692Y158932D01*
X194291Y159200D01*
Y159698D01*
X194692Y159966D01*
X195011Y160443D01*
X195123Y161006D01*
Y161431D01*
X195369Y161870D01*
X196363D01*
X196609Y161431D01*
Y161006D01*
X196721Y160443D01*
X197040Y159966D01*
X197441Y159698D01*
Y159200D01*
X197040Y158932D01*
X196721Y158455D01*
X196609Y157892D01*
Y157006D01*
X196721Y156443D01*
X197040Y155966D01*
X197391Y155731D01*
Y126414D01*
X193828Y122850D01*
X190500D01*
Y108055D01*
X190571D01*
X190779Y107555D01*
X190373Y107149D01*
X189912Y106351D01*
X189673Y105461D01*
Y104539D01*
X189912Y103649D01*
X190373Y102851D01*
X191024Y102199D01*
X191822Y101739D01*
X192617Y101525D01*
X192551Y101025D01*
X173795D01*
X173729Y101525D01*
X174524Y101739D01*
X175322Y102199D01*
X175974Y102851D01*
X176435Y103649D01*
X176673Y104539D01*
Y105461D01*
X176435Y106351D01*
X175974Y107149D01*
X175568Y107555D01*
X175775Y108055D01*
X175847D01*
Y122850D01*
X170500D01*
Y108055D01*
X170571D01*
X170779Y107555D01*
X170372Y107149D01*
X169912Y106351D01*
X169673Y105461D01*
Y104539D01*
X169912Y103649D01*
X170372Y102851D01*
X171024Y102199D01*
X171822Y101739D01*
X172617Y101525D01*
X172551Y101025D01*
X153795D01*
X153729Y101525D01*
X154524Y101739D01*
X155322Y102199D01*
X155974Y102851D01*
X156435Y103649D01*
X156673Y104539D01*
Y105461D01*
X156435Y106351D01*
X155974Y107149D01*
X155568Y107555D01*
X155775Y108055D01*
X155847D01*
Y122850D01*
X150500D01*
Y108055D01*
X150572D01*
X150779Y107555D01*
X150373Y107149D01*
X149912Y106351D01*
X149673Y105461D01*
Y104539D01*
X149912Y103649D01*
X150373Y102851D01*
X151024Y102199D01*
X151822Y101739D01*
X152617Y101525D01*
X152551Y101025D01*
X143795D01*
X143729Y101525D01*
X144524Y101739D01*
X145322Y102199D01*
X145974Y102851D01*
X146435Y103649D01*
X146673Y104539D01*
Y105461D01*
X146435Y106351D01*
X145974Y107149D01*
X145568Y107555D01*
X145775Y108055D01*
X145846D01*
Y122850D01*
X141142D01*
X140853Y123350D01*
X141104Y123786D01*
X141319Y124586D01*
Y125414D01*
X141104Y126214D01*
X140853Y126650D01*
X141142Y127150D01*
X145846D01*
Y141945D01*
X145775D01*
X145568Y142445D01*
X145974Y142851D01*
X146435Y143649D01*
X146673Y144539D01*
Y145461D01*
X146435Y146351D01*
X145974Y147149D01*
X145322Y147801D01*
X144524Y148261D01*
X143634Y148500D01*
X142712D01*
X141822Y148261D01*
X141024Y147801D01*
X140373Y147149D01*
X139912Y146351D01*
X139673Y145461D01*
Y144539D01*
X139912Y143649D01*
X140373Y142851D01*
X140779Y142445D01*
X140571Y141945D01*
X140500D01*
Y127829D01*
X140339Y127702D01*
X140000Y127578D01*
X139387Y127931D01*
X138587Y128146D01*
X137759D01*
X136959Y127931D01*
X136242Y127517D01*
X135656Y126932D01*
X135242Y126214D01*
X135028Y125414D01*
Y124586D01*
X135242Y123786D01*
X135493Y123350D01*
X135205Y122850D01*
X130500D01*
Y108055D01*
X130571D01*
X130779Y107555D01*
X130373Y107149D01*
X129912Y106351D01*
X129673Y105461D01*
Y104539D01*
X129912Y103649D01*
X130373Y102851D01*
X131024Y102199D01*
X131822Y101739D01*
X132617Y101525D01*
X132551Y101025D01*
X105000D01*
X104963Y101021D01*
X103969Y101152D01*
X103008Y101550D01*
X102183Y102183D01*
X101550Y103008D01*
X101152Y103969D01*
X101021Y104963D01*
X101025Y105000D01*
Y247953D01*
X101021Y247990D01*
X101152Y248984D01*
X101550Y249945D01*
X102183Y250770D01*
X103008Y251403D01*
X103969Y251801D01*
X104963Y251932D01*
X105000Y251927D01*
X353000D01*
X353037Y251932D01*
X354031Y251801D01*
D02*
G37*
G36*
X208690Y157401D02*
X208499Y156939D01*
X203661D01*
X202142Y158458D01*
X201679Y158768D01*
X201133Y158876D01*
X201133Y158876D01*
X200635D01*
X200597Y158932D01*
X200197Y159200D01*
Y159698D01*
X200597Y159966D01*
X200916Y160443D01*
X201028Y161006D01*
Y161892D01*
X200916Y162455D01*
X200597Y162932D01*
X200450Y163030D01*
Y163461D01*
X200326Y164085D01*
X199972Y164614D01*
X199191Y165395D01*
X199195Y165466D01*
X199351Y165895D01*
X200196D01*
X208690Y157401D01*
D02*
G37*
G36*
X140339Y122298D02*
X140500Y122171D01*
Y108055D01*
X140571D01*
X140779Y107555D01*
X140373Y107149D01*
X139912Y106351D01*
X139673Y105461D01*
Y104539D01*
X139912Y103649D01*
X140373Y102851D01*
X141024Y102199D01*
X141822Y101739D01*
X142617Y101525D01*
X142551Y101025D01*
X133795D01*
X133729Y101525D01*
X134524Y101739D01*
X135322Y102199D01*
X135974Y102851D01*
X136435Y103649D01*
X136673Y104539D01*
Y105461D01*
X136435Y106351D01*
X135974Y107149D01*
X135568Y107555D01*
X135775Y108055D01*
X135846D01*
Y122171D01*
X136008Y122298D01*
X136346Y122422D01*
X136959Y122069D01*
X137759Y121854D01*
X138587D01*
X139387Y122069D01*
X140000Y122422D01*
X140339Y122298D01*
D02*
G37*
%LPC*%
G36*
X226012Y248795D02*
X224775D01*
X223580Y248474D01*
X222508Y247855D01*
X221633Y246980D01*
X221014Y245909D01*
X220694Y244713D01*
Y243476D01*
X221014Y242280D01*
X221633Y241209D01*
X222508Y240334D01*
X223580Y239715D01*
X224775Y239394D01*
X226012D01*
X227208Y239715D01*
X228280Y240334D01*
X229155Y241209D01*
X229773Y242280D01*
X230094Y243476D01*
Y244713D01*
X229773Y245909D01*
X229155Y246980D01*
X228280Y247855D01*
X227208Y248474D01*
X226012Y248795D01*
D02*
G37*
G36*
X216013D02*
X214775D01*
X213580Y248474D01*
X212508Y247855D01*
X211633Y246980D01*
X211014Y245909D01*
X210694Y244713D01*
Y243476D01*
X211014Y242280D01*
X211633Y241209D01*
X212508Y240334D01*
X213580Y239715D01*
X214775Y239394D01*
X216013D01*
X217208Y239715D01*
X218280Y240334D01*
X219155Y241209D01*
X219773Y242280D01*
X220094Y243476D01*
Y244713D01*
X219773Y245909D01*
X219155Y246980D01*
X218280Y247855D01*
X217208Y248474D01*
X216013Y248795D01*
D02*
G37*
G36*
X149910D02*
X148673D01*
X147477Y248474D01*
X146405Y247855D01*
X145530Y246980D01*
X144912Y245909D01*
X144591Y244713D01*
Y243476D01*
X144912Y242280D01*
X145530Y241209D01*
X146405Y240334D01*
X147477Y239715D01*
X148673Y239394D01*
X149910D01*
X151105Y239715D01*
X152177Y240334D01*
X153052Y241209D01*
X153671Y242280D01*
X153991Y243476D01*
Y244713D01*
X153671Y245909D01*
X153052Y246980D01*
X152177Y247855D01*
X151105Y248474D01*
X149910Y248795D01*
D02*
G37*
G36*
X236013Y238794D02*
X234775D01*
X233580Y238474D01*
X232508Y237855D01*
X231633Y236980D01*
X231014Y235909D01*
X230694Y234713D01*
Y233476D01*
X231014Y232280D01*
X231633Y231209D01*
X232508Y230334D01*
X233580Y229715D01*
X234775Y229395D01*
X236013D01*
X237208Y229715D01*
X238280Y230334D01*
X239155Y231209D01*
X239773Y232280D01*
X240094Y233476D01*
Y234713D01*
X239773Y235909D01*
X239155Y236980D01*
X238280Y237855D01*
X237208Y238474D01*
X236013Y238794D01*
D02*
G37*
G36*
X226012D02*
X224775D01*
X223580Y238474D01*
X222508Y237855D01*
X221633Y236980D01*
X221014Y235909D01*
X220694Y234713D01*
Y233476D01*
X221014Y232280D01*
X221633Y231209D01*
X222508Y230334D01*
X223580Y229715D01*
X224775Y229395D01*
X226012D01*
X227208Y229715D01*
X228280Y230334D01*
X229155Y231209D01*
X229773Y232280D01*
X230094Y233476D01*
Y234713D01*
X229773Y235909D01*
X229155Y236980D01*
X228280Y237855D01*
X227208Y238474D01*
X226012Y238794D01*
D02*
G37*
G36*
X326155Y241560D02*
X323451D01*
X322874Y241446D01*
X322385Y241119D01*
X322058Y240630D01*
X321943Y240053D01*
Y237821D01*
X322058Y237244D01*
X322385Y236755D01*
X322764Y236502D01*
Y235377D01*
X322706Y235289D01*
X322594Y234726D01*
Y233840D01*
X322706Y233278D01*
X323025Y232800D01*
X323425Y232533D01*
Y232034D01*
X323025Y231767D01*
X322706Y231289D01*
X322594Y230726D01*
Y229840D01*
X322706Y229278D01*
X323025Y228800D01*
X323376Y228566D01*
Y226969D01*
X309448Y213042D01*
X284449D01*
X283903Y212933D01*
X283439Y212624D01*
X283439Y212624D01*
X271628Y200813D01*
X271319Y200349D01*
X271210Y199803D01*
X271210Y199803D01*
Y197974D01*
X270518Y197282D01*
X270138Y196363D01*
Y195369D01*
X270518Y194450D01*
X271222Y193747D01*
X272141Y193366D01*
X273135D01*
X274054Y193747D01*
X274536Y193589D01*
Y190433D01*
X274605Y190086D01*
Y186900D01*
X274705Y186398D01*
X274989Y185973D01*
X275414Y185689D01*
X275915Y185589D01*
X277628D01*
X278130Y185689D01*
X278555Y185973D01*
X278839Y186398D01*
X278939Y186900D01*
Y191093D01*
X278839Y191594D01*
X278614Y191930D01*
Y194291D01*
X280118D01*
Y197441D01*
X278270D01*
X278143Y197631D01*
X277649Y197961D01*
X277067Y198076D01*
X276083D01*
X275500Y197961D01*
X275418Y197905D01*
X274134D01*
X274065Y197974D01*
Y199212D01*
X285040Y210187D01*
X310039D01*
X310039Y210187D01*
X310586Y210295D01*
X311049Y210605D01*
X325813Y225369D01*
X325813Y225369D01*
X326122Y225832D01*
X326231Y226378D01*
X326231Y226378D01*
Y228566D01*
X326582Y228800D01*
X326901Y229278D01*
X327012Y229840D01*
Y230726D01*
X326901Y231289D01*
X326582Y231767D01*
X326181Y232034D01*
Y232533D01*
X326582Y232800D01*
X326901Y233278D01*
X327012Y233840D01*
Y234726D01*
X326901Y235289D01*
X326842Y235377D01*
Y236502D01*
X327221Y236755D01*
X327548Y237244D01*
X327663Y237821D01*
Y240053D01*
X327548Y240630D01*
X327221Y241119D01*
X326732Y241446D01*
X326155Y241560D01*
D02*
G37*
G36*
X284992Y203150D02*
X284402D01*
Y202362D01*
X284992D01*
Y203150D01*
D02*
G37*
G36*
Y201181D02*
X284402D01*
Y200394D01*
X284992D01*
Y201181D01*
D02*
G37*
G36*
X231665Y197716D02*
X230878D01*
Y196880D01*
X231665D01*
Y197716D01*
D02*
G37*
G36*
X281693Y197490D02*
X280906D01*
Y196604D01*
X281693D01*
Y197490D01*
D02*
G37*
G36*
Y195128D02*
X280906D01*
Y194291D01*
X281693D01*
Y195128D01*
D02*
G37*
G36*
X335998Y241560D02*
X333293D01*
X332716Y241446D01*
X332227Y241119D01*
X331901Y240630D01*
X331786Y240053D01*
Y237821D01*
X331901Y237244D01*
X332227Y236755D01*
X332607Y236502D01*
Y235377D01*
X332548Y235289D01*
X332436Y234726D01*
Y233840D01*
X332548Y233278D01*
X332867Y232800D01*
X333268Y232533D01*
Y232034D01*
X332867Y231767D01*
X332548Y231289D01*
X332436Y230726D01*
Y229840D01*
X332548Y229278D01*
X332607Y229190D01*
Y192949D01*
X319742D01*
X309976Y202715D01*
X309905Y203073D01*
X309586Y203550D01*
X309108Y203869D01*
X308545Y203981D01*
X307660D01*
X307097Y203869D01*
X306619Y203550D01*
X306351Y203150D01*
X305853D01*
X305586Y203550D01*
X305108Y203869D01*
X304545Y203981D01*
X303660D01*
X303097Y203869D01*
X303009Y203811D01*
X301321D01*
X301234Y203869D01*
X300671Y203981D01*
X299785D01*
X299222Y203869D01*
X298745Y203550D01*
X298478Y203150D01*
X297979D01*
X297711Y203550D01*
X297234Y203869D01*
X296671Y203981D01*
X295785D01*
X295222Y203869D01*
X294745Y203550D01*
X294588Y203535D01*
X294231Y203891D01*
X293312Y204272D01*
X292318D01*
X291399Y203891D01*
X291042Y203535D01*
X290885Y203550D01*
X290407Y203869D01*
X289844Y203981D01*
X288959D01*
X288396Y203869D01*
X287918Y203550D01*
X287651Y203150D01*
X285925D01*
Y200394D01*
X287651D01*
X287918Y199993D01*
X288396Y199674D01*
X288959Y199562D01*
X289844D01*
X290407Y199674D01*
X290885Y199993D01*
X291042Y200009D01*
X291399Y199652D01*
X292318Y199272D01*
X293312D01*
X294231Y199652D01*
X294588Y200009D01*
X294745Y199993D01*
X295222Y199674D01*
X295785Y199562D01*
X296671D01*
X297234Y199674D01*
X297711Y199993D01*
X297979Y200394D01*
X298478D01*
X298745Y199993D01*
X299222Y199674D01*
X299785Y199562D01*
X300671D01*
X301234Y199674D01*
X301321Y199732D01*
X303009D01*
X303097Y199674D01*
X303660Y199562D01*
X304545D01*
X305108Y199674D01*
X305586Y199993D01*
X305853Y200394D01*
X306351D01*
X306619Y199993D01*
X307097Y199674D01*
X307287Y199636D01*
X315910Y191014D01*
Y187195D01*
X315873Y187158D01*
X315652Y186828D01*
X315575Y186437D01*
X315652Y186047D01*
X315873Y185716D01*
X315950Y185640D01*
X315887Y184996D01*
X315779Y184924D01*
X313951Y183096D01*
X313642Y182633D01*
X313560Y182223D01*
X313169Y182095D01*
X313043Y182098D01*
X312618Y182382D01*
X312116Y182482D01*
X307923D01*
X307422Y182382D01*
X306996Y182098D01*
X306712Y181673D01*
X306613Y181171D01*
Y179459D01*
X306712Y178957D01*
X306996Y178532D01*
X307422Y178248D01*
X307923Y178148D01*
X309325D01*
X309424Y177648D01*
X308623Y177316D01*
X307920Y176613D01*
X307539Y175694D01*
Y174700D01*
X307920Y173781D01*
X308623Y173077D01*
X309542Y172697D01*
X310537D01*
X311455Y173077D01*
X312159Y173781D01*
X312350Y174241D01*
X312767Y174226D01*
X312875Y174204D01*
X313182Y173745D01*
X313583Y173477D01*
Y172979D01*
X313182Y172712D01*
X312863Y172234D01*
X312751Y171671D01*
Y170785D01*
X312863Y170222D01*
X313182Y169745D01*
X313659Y169426D01*
X314222Y169314D01*
X315699D01*
X316262Y169426D01*
X316739Y169745D01*
X316776Y169801D01*
X318066D01*
X318103Y169745D01*
X318581Y169426D01*
X319144Y169314D01*
X320620D01*
X321183Y169426D01*
X321660Y169745D01*
X321979Y170222D01*
X322091Y170785D01*
Y171671D01*
X321979Y172234D01*
X321660Y172712D01*
X321260Y172979D01*
Y174705D01*
X318504D01*
Y172979D01*
X318103Y172712D01*
X318066Y172656D01*
X316776D01*
X316739Y172712D01*
X316339Y172979D01*
Y173477D01*
X316739Y173745D01*
X317058Y174222D01*
X317170Y174785D01*
Y175671D01*
X317058Y176234D01*
X316739Y176711D01*
X316388Y176946D01*
Y178366D01*
X316826Y178514D01*
X316888Y178525D01*
X317304Y178248D01*
X317805Y178148D01*
X321998D01*
X322500Y178248D01*
X322925Y178532D01*
X323162Y178887D01*
X325272D01*
X325272Y178887D01*
X325322Y178898D01*
X325344Y178893D01*
X326230D01*
X326793Y179005D01*
X327185Y179267D01*
X327500Y179170D01*
X327685Y179045D01*
Y177756D01*
X326181D01*
Y174606D01*
X327685D01*
Y172835D01*
X326181D01*
Y169685D01*
X327685D01*
Y167710D01*
X324082Y164107D01*
X323861Y163776D01*
X323784Y163386D01*
Y163339D01*
X323169D01*
X322457Y163197D01*
X321852Y162793D01*
X321448Y162189D01*
X321307Y161476D01*
Y153484D01*
X321308Y153476D01*
X320848Y153230D01*
X315541Y158536D01*
Y160433D01*
X315347Y161408D01*
X314794Y162235D01*
X306921Y170109D01*
X306094Y170662D01*
X305118Y170856D01*
X273694D01*
X272472Y172078D01*
X272263Y172218D01*
X272085Y172395D01*
X271853Y172491D01*
X271645Y172631D01*
X271398Y172679D01*
X271167Y172776D01*
X270916D01*
X270669Y172825D01*
X270423Y172776D01*
X270172D01*
X269940Y172679D01*
X269694Y172631D01*
X269485Y172491D01*
X269253Y172395D01*
X269076Y172218D01*
X268867Y172078D01*
X268727Y171869D01*
X268550Y171692D01*
X268454Y171460D01*
X268314Y171251D01*
X268265Y171005D01*
X268169Y170773D01*
Y170522D01*
X268120Y170276D01*
X268169Y170029D01*
Y169778D01*
X268265Y169546D01*
X268314Y169300D01*
X268454Y169091D01*
X268550Y168859D01*
X268727Y168682D01*
X268867Y168473D01*
X270835Y166505D01*
X271662Y165952D01*
X272638Y165758D01*
X304062D01*
X310443Y159377D01*
Y157480D01*
X310637Y156505D01*
X311190Y155678D01*
X320286Y146582D01*
Y144685D01*
X320335Y144439D01*
Y144188D01*
X320431Y143956D01*
X320480Y143710D01*
X320619Y143501D01*
X320624Y143489D01*
Y141945D01*
X320500D01*
Y128908D01*
X320110Y128830D01*
X319779Y128609D01*
X319396Y128226D01*
X319227Y127974D01*
X318587Y128146D01*
X317759D01*
X316959Y127931D01*
X316347Y127578D01*
X316008Y127702D01*
X315846Y127829D01*
Y141945D01*
X315775D01*
X315568Y142445D01*
X315974Y142851D01*
X316435Y143649D01*
X316673Y144539D01*
Y145461D01*
X316435Y146351D01*
X315974Y147149D01*
X315322Y147801D01*
X314524Y148261D01*
X313634Y148500D01*
X312713D01*
X311822Y148261D01*
X311024Y147801D01*
X310372Y147149D01*
X309912Y146351D01*
X309673Y145461D01*
Y144539D01*
X309912Y143649D01*
X310372Y142851D01*
X310779Y142445D01*
X310572Y141945D01*
X310500D01*
Y127150D01*
X315205D01*
X315493Y126650D01*
X315242Y126214D01*
X315028Y125414D01*
Y124586D01*
X315199Y123946D01*
X314947Y123777D01*
X314020Y122850D01*
X310500D01*
Y108055D01*
X315846D01*
Y109217D01*
X320500D01*
Y108055D01*
X325847D01*
Y109217D01*
X338583D01*
X338973Y109294D01*
X339304Y109515D01*
X339525Y109846D01*
X339602Y110236D01*
Y112843D01*
X339995Y113153D01*
X340453Y113043D01*
X342347Y112894D01*
X344240Y113043D01*
X346087Y113487D01*
X347843Y114214D01*
X349462Y115206D01*
X350907Y116440D01*
X352140Y117884D01*
X353133Y119504D01*
X353860Y121259D01*
X354303Y123106D01*
X354452Y125000D01*
X354303Y126894D01*
X353860Y128741D01*
X353133Y130496D01*
X352140Y132116D01*
X350907Y133560D01*
X349462Y134794D01*
X347843Y135787D01*
X346087Y136513D01*
X344240Y136957D01*
X342347Y137106D01*
X340453Y136957D01*
X339995Y136847D01*
X339602Y137157D01*
Y191929D01*
X339525Y192319D01*
X339304Y192650D01*
X338973Y192871D01*
X338583Y192949D01*
X336685D01*
Y229190D01*
X336743Y229278D01*
X336855Y229840D01*
Y230726D01*
X336743Y231289D01*
X336424Y231767D01*
X336024Y232034D01*
Y232533D01*
X336424Y232800D01*
X336743Y233278D01*
X336855Y233840D01*
Y234726D01*
X336743Y235289D01*
X336685Y235377D01*
Y236502D01*
X337064Y236755D01*
X337391Y237244D01*
X337505Y237821D01*
Y240053D01*
X337391Y240630D01*
X337064Y241119D01*
X336575Y241446D01*
X335998Y241560D01*
D02*
G37*
G36*
X305709Y193110D02*
X304872D01*
Y192323D01*
X305709D01*
Y193110D01*
D02*
G37*
G36*
X303396D02*
X302510D01*
Y192323D01*
X303396D01*
Y193110D01*
D02*
G37*
G36*
X300787D02*
X299951D01*
Y192323D01*
X300787D01*
Y193110D01*
D02*
G37*
G36*
X298474D02*
X297589D01*
Y192323D01*
X298474D01*
Y193110D01*
D02*
G37*
G36*
X240094Y248795D02*
X230694D01*
Y239394D01*
X238556D01*
X238694Y239367D01*
X238929D01*
X243651Y234645D01*
Y226969D01*
X213558Y196876D01*
X213248Y196412D01*
X213140Y195866D01*
X213140Y195866D01*
Y187992D01*
X213140Y187992D01*
X213248Y187446D01*
X213558Y186983D01*
X215205Y185335D01*
X214887Y184947D01*
X214854Y184968D01*
X214272Y185084D01*
X212894D01*
X212312Y184968D01*
X211913Y184702D01*
X211550D01*
X211062Y185190D01*
X210143Y185571D01*
X209148D01*
X208229Y185190D01*
X207526Y184487D01*
X207146Y183568D01*
Y182574D01*
X207526Y181655D01*
X208229Y180951D01*
X209148Y180571D01*
X210143D01*
X211062Y180951D01*
X211523Y181413D01*
X212008Y181338D01*
Y179528D01*
X215158D01*
Y181376D01*
X215252Y181439D01*
X220965D01*
X221518Y181550D01*
X222244D01*
X222826Y181665D01*
X223320Y181995D01*
X223650Y182489D01*
X223765Y183071D01*
X223650Y183653D01*
X223381Y184055D01*
X223650Y184457D01*
X223765Y185039D01*
X223650Y185622D01*
X223381Y186024D01*
X223650Y186426D01*
X223765Y187008D01*
X223650Y187590D01*
X223381Y187992D01*
X223650Y188394D01*
X223709Y188693D01*
X224007Y188752D01*
X224410Y189021D01*
X224812Y188752D01*
X225394Y188636D01*
X225976Y188752D01*
X226378Y189021D01*
X226780Y188752D01*
X227362Y188636D01*
X227944Y188752D01*
X228346Y189021D01*
X228748Y188752D01*
X229331Y188636D01*
X229913Y188752D01*
X230315Y189021D01*
X230717Y188752D01*
X231299Y188636D01*
X231881Y188752D01*
X232375Y189082D01*
X232705Y189575D01*
X232821Y190157D01*
Y192717D01*
X232705Y193299D01*
X232375Y193792D01*
X231895Y194113D01*
X231775Y194324D01*
X231665Y194533D01*
X231665Y194675D01*
Y195404D01*
X230878D01*
X230878Y194570D01*
X230797Y194344D01*
X230692Y194120D01*
X230226Y193913D01*
X229913Y194122D01*
X229331Y194238D01*
X228748Y194122D01*
X228346Y193853D01*
X227944Y194122D01*
X227362Y194238D01*
X226780Y194122D01*
X226378Y193853D01*
X225976Y194122D01*
X225394Y194238D01*
X224812Y194122D01*
X224410Y193853D01*
X224007Y194122D01*
X223425Y194238D01*
X222843Y194122D01*
X222349Y193792D01*
X222020Y193299D01*
X221904Y192717D01*
Y190498D01*
X219685D01*
X219103Y190382D01*
X218609Y190052D01*
X218280Y189559D01*
X218164Y188976D01*
X218280Y188394D01*
X218548Y187992D01*
X218280Y187590D01*
X218182Y187102D01*
X217904Y186952D01*
X217675Y186903D01*
X215994Y188583D01*
Y195275D01*
X246088Y225369D01*
X246088Y225369D01*
X246397Y225832D01*
X246506Y226378D01*
X246506Y226378D01*
Y235236D01*
X246506Y235236D01*
X246397Y235783D01*
X246088Y236246D01*
X246088Y236246D01*
X240530Y241804D01*
X240094Y242095D01*
Y248795D01*
D02*
G37*
G36*
X285108Y192403D02*
X283396D01*
X282894Y192303D01*
X282469Y192019D01*
X282185Y191594D01*
X282085Y191093D01*
Y186900D01*
X282185Y186398D01*
X282469Y185973D01*
X282894Y185689D01*
X283396Y185589D01*
X285108D01*
X285610Y185689D01*
X286005Y185953D01*
X287451D01*
X287454Y185938D01*
X287714Y185549D01*
X288104Y185289D01*
X288563Y185197D01*
X294114D01*
X294573Y185289D01*
X294963Y185549D01*
X295223Y185938D01*
X295226Y185953D01*
X299031D01*
X299122Y185971D01*
X299213Y185953D01*
X307085D01*
X307422Y185728D01*
X307923Y185628D01*
X312116D01*
X312618Y185728D01*
X313043Y186012D01*
X313327Y186437D01*
X313427Y186939D01*
Y188652D01*
X313327Y189153D01*
X313043Y189578D01*
X312618Y189862D01*
X312116Y189962D01*
X308930D01*
X308583Y190031D01*
X305709D01*
Y191535D01*
X302559D01*
Y190031D01*
X300787D01*
Y191535D01*
X297638D01*
Y190031D01*
X295226D01*
X295223Y190046D01*
X294963Y190435D01*
X294573Y190696D01*
X294114Y190787D01*
X288563D01*
X288104Y190696D01*
X287714Y190435D01*
X287454Y190046D01*
X287451Y190031D01*
X286419D01*
Y191093D01*
X286319Y191594D01*
X286035Y192019D01*
X285610Y192303D01*
X285108Y192403D01*
D02*
G37*
G36*
X298228Y183106D02*
X288386D01*
X287996Y183029D01*
X287665Y182808D01*
X287233Y182376D01*
X287012Y182045D01*
X286934Y181655D01*
Y181153D01*
X286419D01*
Y181211D01*
X286319Y181712D01*
X286035Y182137D01*
X285610Y182422D01*
X285108Y182521D01*
X283396D01*
X282894Y182422D01*
X282469Y182137D01*
X282185Y181712D01*
X282085Y181211D01*
Y177018D01*
X282185Y176516D01*
X282469Y176091D01*
X282894Y175807D01*
X283396Y175707D01*
X285108D01*
X285610Y175807D01*
X286035Y176091D01*
X286319Y176516D01*
X286370Y176772D01*
X286870Y176723D01*
Y176668D01*
X286934Y176513D01*
Y175046D01*
X287012Y174656D01*
X287233Y174325D01*
X287564Y174104D01*
X287954Y174026D01*
X298077D01*
X298468Y174104D01*
X298798Y174325D01*
X298949Y174476D01*
X299170Y174807D01*
X299248Y175197D01*
Y175634D01*
X299363Y175749D01*
X299744Y176668D01*
Y177663D01*
X299363Y178582D01*
X299248Y178697D01*
Y182087D01*
X299170Y182477D01*
X298949Y182808D01*
X298619Y183029D01*
X298228Y183106D01*
D02*
G37*
G36*
X325394Y177756D02*
X324606D01*
Y176919D01*
X325394D01*
Y177756D01*
D02*
G37*
G36*
X254346Y176331D02*
X253559D01*
Y175740D01*
X254346D01*
Y176331D01*
D02*
G37*
G36*
X252362D02*
X251575D01*
Y175740D01*
X252362D01*
Y176331D01*
D02*
G37*
G36*
X321260Y176228D02*
X320472D01*
Y175638D01*
X321260D01*
Y176228D01*
D02*
G37*
G36*
X319276D02*
X318488D01*
Y175638D01*
X319276D01*
Y176228D01*
D02*
G37*
G36*
X257480Y176033D02*
X256693D01*
Y175148D01*
X257480D01*
Y176033D01*
D02*
G37*
G36*
X325394Y175443D02*
X324606D01*
Y174557D01*
X325394D01*
Y175443D01*
D02*
G37*
G36*
Y172835D02*
X324606D01*
Y171998D01*
X325394D01*
Y172835D01*
D02*
G37*
G36*
Y170522D02*
X324606D01*
Y169636D01*
X325394D01*
Y170522D01*
D02*
G37*
G36*
X303634Y148500D02*
X302712D01*
X301822Y148261D01*
X301024Y147801D01*
X300373Y147149D01*
X299912Y146351D01*
X299673Y145461D01*
Y144539D01*
X299912Y143649D01*
X300373Y142851D01*
X300779Y142445D01*
X300571Y141945D01*
X300500D01*
Y127150D01*
X305847D01*
Y141945D01*
X305775D01*
X305568Y142445D01*
X305974Y142851D01*
X306435Y143649D01*
X306673Y144539D01*
Y145461D01*
X306435Y146351D01*
X305974Y147149D01*
X305322Y147801D01*
X304524Y148261D01*
X303634Y148500D01*
D02*
G37*
G36*
X293634D02*
X292712D01*
X291822Y148261D01*
X291024Y147801D01*
X290372Y147149D01*
X289912Y146351D01*
X289673Y145461D01*
Y144539D01*
X289912Y143649D01*
X290372Y142851D01*
X290779Y142445D01*
X290571Y141945D01*
X290500D01*
Y127150D01*
X295847D01*
Y141945D01*
X295775D01*
X295568Y142445D01*
X295974Y142851D01*
X296435Y143649D01*
X296673Y144539D01*
Y145461D01*
X296435Y146351D01*
X295974Y147149D01*
X295322Y147801D01*
X294524Y148261D01*
X293634Y148500D01*
D02*
G37*
G36*
X273634D02*
X272712D01*
X271822Y148261D01*
X271024Y147801D01*
X270373Y147149D01*
X269912Y146351D01*
X269673Y145461D01*
Y144539D01*
X269912Y143649D01*
X270373Y142851D01*
X270779Y142445D01*
X270571Y141945D01*
X270500D01*
Y127150D01*
X275847D01*
Y141945D01*
X275775D01*
X275568Y142445D01*
X275974Y142851D01*
X276435Y143649D01*
X276673Y144539D01*
Y145461D01*
X276435Y146351D01*
X275974Y147149D01*
X275322Y147801D01*
X274524Y148261D01*
X273634Y148500D01*
D02*
G37*
G36*
X263634D02*
X262713D01*
X261822Y148261D01*
X261024Y147801D01*
X260372Y147149D01*
X259912Y146351D01*
X259673Y145461D01*
Y144539D01*
X259912Y143649D01*
X260372Y142851D01*
X260779Y142445D01*
X260572Y141945D01*
X260500D01*
Y127150D01*
X265846D01*
Y141945D01*
X265775D01*
X265568Y142445D01*
X265974Y142851D01*
X266435Y143649D01*
X266673Y144539D01*
Y145461D01*
X266435Y146351D01*
X265974Y147149D01*
X265322Y147801D01*
X264524Y148261D01*
X263634Y148500D01*
D02*
G37*
G36*
X253634D02*
X252712D01*
X251822Y148261D01*
X251024Y147801D01*
X250373Y147149D01*
X249912Y146351D01*
X249673Y145461D01*
Y144539D01*
X249912Y143649D01*
X250373Y142851D01*
X250779Y142445D01*
X250571Y141945D01*
X250500D01*
Y127150D01*
X255847D01*
Y141945D01*
X255775D01*
X255568Y142445D01*
X255974Y142851D01*
X256435Y143649D01*
X256673Y144539D01*
Y145461D01*
X256435Y146351D01*
X255974Y147149D01*
X255322Y147801D01*
X254524Y148261D01*
X253634Y148500D01*
D02*
G37*
G36*
X243634D02*
X242712D01*
X241822Y148261D01*
X241024Y147801D01*
X240372Y147149D01*
X239912Y146351D01*
X239673Y145461D01*
Y144539D01*
X239912Y143649D01*
X240372Y142851D01*
X240779Y142445D01*
X240571Y141945D01*
X240500D01*
Y127150D01*
X245847D01*
Y141945D01*
X245775D01*
X245568Y142445D01*
X245974Y142851D01*
X246435Y143649D01*
X246673Y144539D01*
Y145461D01*
X246435Y146351D01*
X245974Y147149D01*
X245322Y147801D01*
X244524Y148261D01*
X243634Y148500D01*
D02*
G37*
G36*
X233634D02*
X232713D01*
X231822Y148261D01*
X231024Y147801D01*
X230373Y147149D01*
X229912Y146351D01*
X229673Y145461D01*
Y144539D01*
X229912Y143649D01*
X230373Y142851D01*
X230779Y142445D01*
X230572Y141945D01*
X230500D01*
Y127150D01*
X235846D01*
Y141945D01*
X235775D01*
X235568Y142445D01*
X235974Y142851D01*
X236435Y143649D01*
X236673Y144539D01*
Y145461D01*
X236435Y146351D01*
X235974Y147149D01*
X235322Y147801D01*
X234524Y148261D01*
X233634Y148500D01*
D02*
G37*
G36*
X223634D02*
X222712D01*
X221822Y148261D01*
X221024Y147801D01*
X220373Y147149D01*
X219912Y146351D01*
X219673Y145461D01*
Y144539D01*
X219912Y143649D01*
X220373Y142851D01*
X220779Y142445D01*
X220571Y141945D01*
X220500D01*
Y127150D01*
X225847D01*
Y141945D01*
X225775D01*
X225568Y142445D01*
X225974Y142851D01*
X226435Y143649D01*
X226673Y144539D01*
Y145461D01*
X226435Y146351D01*
X225974Y147149D01*
X225322Y147801D01*
X224524Y148261D01*
X223634Y148500D01*
D02*
G37*
G36*
X213634D02*
X212713D01*
X211822Y148261D01*
X211024Y147801D01*
X210372Y147149D01*
X209912Y146351D01*
X209673Y145461D01*
Y144539D01*
X209912Y143649D01*
X210372Y142851D01*
X210779Y142445D01*
X210572Y141945D01*
X210500D01*
Y127150D01*
X215846D01*
Y141945D01*
X215775D01*
X215568Y142445D01*
X215974Y142851D01*
X216435Y143649D01*
X216673Y144539D01*
Y145461D01*
X216435Y146351D01*
X215974Y147149D01*
X215322Y147801D01*
X214524Y148261D01*
X213634Y148500D01*
D02*
G37*
G36*
X183634D02*
X182712D01*
X181822Y148261D01*
X181024Y147801D01*
X180373Y147149D01*
X179912Y146351D01*
X179673Y145461D01*
Y144539D01*
X179912Y143649D01*
X180373Y142851D01*
X180779Y142445D01*
X180571Y141945D01*
X180500D01*
Y127150D01*
X185846D01*
Y141945D01*
X185775D01*
X185568Y142445D01*
X185974Y142851D01*
X186435Y143649D01*
X186673Y144539D01*
Y145461D01*
X186435Y146351D01*
X185974Y147149D01*
X185322Y147801D01*
X184524Y148261D01*
X183634Y148500D01*
D02*
G37*
G36*
X173634D02*
X172713D01*
X171822Y148261D01*
X171024Y147801D01*
X170372Y147149D01*
X169912Y146351D01*
X169673Y145461D01*
Y144539D01*
X169912Y143649D01*
X170372Y142851D01*
X170779Y142445D01*
X170571Y141945D01*
X170500D01*
Y127150D01*
X175847D01*
Y141945D01*
X175775D01*
X175568Y142445D01*
X175974Y142851D01*
X176435Y143649D01*
X176673Y144539D01*
Y145461D01*
X176435Y146351D01*
X175974Y147149D01*
X175322Y147801D01*
X174524Y148261D01*
X173634Y148500D01*
D02*
G37*
G36*
X163634D02*
X162713D01*
X161822Y148261D01*
X161024Y147801D01*
X160372Y147149D01*
X159912Y146351D01*
X159673Y145461D01*
Y144539D01*
X159912Y143649D01*
X160372Y142851D01*
X160779Y142445D01*
X160572Y141945D01*
X160500D01*
Y127150D01*
X165847D01*
Y141945D01*
X165775D01*
X165568Y142445D01*
X165974Y142851D01*
X166435Y143649D01*
X166673Y144539D01*
Y145461D01*
X166435Y146351D01*
X165974Y147149D01*
X165322Y147801D01*
X164524Y148261D01*
X163634Y148500D01*
D02*
G37*
G36*
X153634D02*
X152713D01*
X151822Y148261D01*
X151024Y147801D01*
X150373Y147149D01*
X149912Y146351D01*
X149673Y145461D01*
Y144539D01*
X149912Y143649D01*
X150373Y142851D01*
X150779Y142445D01*
X150572Y141945D01*
X150500D01*
Y127150D01*
X155847D01*
Y141945D01*
X155775D01*
X155568Y142445D01*
X155974Y142851D01*
X156435Y143649D01*
X156673Y144539D01*
Y145461D01*
X156435Y146351D01*
X155974Y147149D01*
X155322Y147801D01*
X154524Y148261D01*
X153634Y148500D01*
D02*
G37*
G36*
X114000Y137106D02*
X112106Y136957D01*
X110259Y136513D01*
X108504Y135786D01*
X106884Y134794D01*
X105440Y133560D01*
X104206Y132116D01*
X103214Y130496D01*
X102487Y128741D01*
X102043Y126894D01*
X101894Y125000D01*
X102043Y123106D01*
X102487Y121259D01*
X103214Y119504D01*
X104206Y117884D01*
X105440Y116440D01*
X106884Y115206D01*
X108504Y114214D01*
X110259Y113487D01*
X112106Y113043D01*
X114000Y112894D01*
X115894Y113043D01*
X117741Y113487D01*
X119496Y114214D01*
X121116Y115206D01*
X122560Y116440D01*
X123794Y117884D01*
X124786Y119504D01*
X125514Y121259D01*
X125957Y123106D01*
X126106Y125000D01*
X125957Y126894D01*
X125514Y128741D01*
X124786Y130496D01*
X123794Y132116D01*
X122560Y133560D01*
X121116Y134794D01*
X119496Y135786D01*
X117741Y136513D01*
X115894Y136957D01*
X114000Y137106D01*
D02*
G37*
%LPD*%
G36*
X338583Y136504D02*
X336850Y135787D01*
X335231Y134794D01*
X333786Y133560D01*
X332553Y132116D01*
X331560Y130496D01*
X330833Y128741D01*
X330389Y126894D01*
X330240Y125000D01*
X330389Y123106D01*
X330833Y121259D01*
X331560Y119504D01*
X332553Y117884D01*
X333786Y116440D01*
X335231Y115206D01*
X336850Y114214D01*
X338583Y113496D01*
Y110236D01*
X312008D01*
Y119396D01*
X315668Y123056D01*
X316242Y122483D01*
X316959Y122069D01*
X317759Y121854D01*
X318587D01*
X319387Y122069D01*
X320105Y122483D01*
X320690Y123068D01*
X321105Y123786D01*
X321319Y124586D01*
Y125414D01*
X321105Y126214D01*
X320690Y126932D01*
X320117Y127505D01*
X320500Y127888D01*
Y127150D01*
X325847D01*
Y141945D01*
X325722D01*
Y144346D01*
X325528Y145322D01*
X325384Y145538D01*
Y147638D01*
X325190Y148613D01*
X324803Y149192D01*
Y163386D01*
X328740Y167323D01*
Y169685D01*
X329331D01*
Y172835D01*
X328740D01*
Y174606D01*
X329331D01*
Y177756D01*
X328740D01*
Y179724D01*
X329264D01*
Y182480D01*
X328740D01*
Y186024D01*
X327385D01*
X326925Y186484D01*
X326006Y186864D01*
X325011D01*
X324093Y186484D01*
X323632Y186024D01*
X322647D01*
X322500Y186122D01*
X321998Y186222D01*
X317805D01*
X317304Y186122D01*
X317156Y186024D01*
X317008D01*
X316594Y186437D01*
X316929Y186772D01*
Y191929D01*
X338583D01*
Y136504D01*
D02*
G37*
%LPC*%
G36*
X330787Y182496D02*
X330197D01*
Y181709D01*
X330787D01*
Y182496D01*
D02*
G37*
G36*
Y180512D02*
X330197D01*
Y179724D01*
X330787D01*
Y180512D01*
D02*
G37*
G36*
X330906Y177756D02*
X330118D01*
Y176919D01*
X330906D01*
Y177756D01*
D02*
G37*
G36*
Y175443D02*
X330118D01*
Y174606D01*
X330906D01*
Y175443D01*
D02*
G37*
G36*
Y172835D02*
X330118D01*
Y171998D01*
X330906D01*
Y172835D01*
D02*
G37*
G36*
Y170522D02*
X330118D01*
Y169685D01*
X330906D01*
Y170522D01*
D02*
G37*
%LPD*%
G36*
X298228Y175197D02*
X298077Y175046D01*
X287954D01*
Y181655D01*
X288386Y182087D01*
X298228D01*
Y175197D01*
D02*
G37*
D15*
X284449Y211614D02*
X310039D01*
X324803Y226378D02*
Y230283D01*
X310039Y211614D02*
X324803Y226378D01*
X325648Y181242D02*
X325787Y181102D01*
X325648Y181242D02*
Y184225D01*
X325509Y184364D02*
X325648Y184225D01*
X319761Y183914D02*
X319902Y184055D01*
X314961Y175228D02*
Y182087D01*
X316788Y183914D02*
X319761D01*
X314961Y182087D02*
X316788Y183914D01*
X310039Y175781D02*
X311024Y176766D01*
Y179573D01*
X310039Y175197D02*
Y175781D01*
X310282Y180315D02*
X311024Y179573D01*
X310020Y180315D02*
X310282D01*
X190945Y175197D02*
X216547D01*
X169449Y196693D02*
Y244094D01*
Y196693D02*
X190945Y175197D01*
X201133Y157449D02*
X203070Y155512D01*
X198819Y157449D02*
X201133D01*
X203070Y155512D02*
X235236D01*
X193173Y120177D02*
X198819Y125823D01*
Y157449D01*
X189961Y165354D02*
X191929Y167323D01*
X189961Y158465D02*
X190976Y157449D01*
X189961Y158465D02*
Y165354D01*
X191929Y167323D02*
X200787D01*
X237205Y171904D02*
X237290Y171819D01*
X237205Y171904D02*
Y172736D01*
X237290Y171819D02*
X239599D01*
X242126Y169291D01*
X239701Y175162D02*
X241177D01*
X244094Y172244D01*
X239665Y175197D02*
X239701Y175162D01*
X244094Y164370D02*
Y172244D01*
X242126Y165354D02*
Y169291D01*
X234252Y157480D02*
X242126Y165354D01*
X179449Y190630D02*
Y244094D01*
X214567Y195866D02*
X245079Y226378D01*
X239521Y240794D02*
X245079Y235236D01*
Y226378D02*
Y235236D01*
X238694Y240794D02*
X239521D01*
X235394Y244094D02*
X238694Y240794D01*
X237784Y167542D02*
X237795D01*
X235236Y170089D02*
Y172736D01*
Y170089D02*
X237784Y167542D01*
X233268Y167323D02*
Y172736D01*
Y164402D02*
Y167323D01*
X292815Y201772D02*
X296228D01*
X289402D02*
X292815D01*
X272638Y195866D02*
Y199803D01*
X284449Y211614D01*
X200787Y167323D02*
X210630Y157480D01*
X234252D01*
X190976Y157449D02*
X192913D01*
X193043Y145130D02*
Y157283D01*
Y145130D02*
X193173Y145000D01*
Y115453D02*
Y120177D01*
X235236Y155512D02*
X244094Y164370D01*
X214567Y187992D02*
X217520Y185039D01*
X220965D01*
X214567Y187992D02*
Y195866D01*
X218480Y177130D02*
X220929D01*
X216547Y175197D02*
X218480Y177130D01*
X220929D02*
X220965Y177165D01*
X179449Y190630D02*
X192913Y177165D01*
X210630D01*
X210646Y177150D01*
X214890D01*
X214906Y177165D02*
X216535D01*
X214890Y177150D02*
X214906Y177165D01*
X218469Y179099D02*
X220929D01*
X220965Y179134D01*
X216535Y177165D02*
X218469Y179099D01*
X244094Y183071D02*
X246063Y181102D01*
X239665Y183071D02*
X244094D01*
X304134Y225394D02*
Y230283D01*
X304134Y230283D01*
X302165Y223425D02*
X304134Y225394D01*
X281496Y223425D02*
X302165D01*
X247047Y188976D02*
X281496Y223425D01*
X239665Y188976D02*
X247047D01*
X314961Y226378D02*
Y230283D01*
X309055Y220472D02*
X314961Y226378D01*
X282480Y220472D02*
X309055D01*
X249016Y187008D02*
X282480Y220472D01*
X239665Y187008D02*
X249016D01*
X239665Y185039D02*
X248358D01*
X252658Y180740D02*
X252953D01*
X248358Y185039D02*
X252658Y180740D01*
X252953D02*
X252969Y180724D01*
X257827D02*
X257842Y180709D01*
X252969Y180724D02*
X257827D01*
X261811Y176772D02*
Y177018D01*
X263165Y178372D01*
Y179114D01*
X261842Y180437D02*
X263165Y179114D01*
X276772D01*
X261842Y180437D02*
Y180709D01*
X325787Y180830D02*
Y181102D01*
X319902Y180315D02*
X325272D01*
X325787Y180830D01*
X314961Y171228D02*
X319882D01*
D17*
X100000Y105000D02*
G03*
X105000Y100000I5000J0D01*
G01*
X353000D02*
G03*
X358000Y105000I0J5000D01*
G01*
Y247953D02*
G03*
X353000Y252953I-5000J0D01*
G01*
X105000D02*
G03*
X100000Y247953I0J-5000D01*
G01*
Y105000D02*
Y108661D01*
X105000Y100000D02*
X108661D01*
X348031D02*
X353000D01*
X358000Y105000D02*
Y109968D01*
Y240425D02*
Y247953D01*
X345472Y252953D02*
X353000D01*
X105000D02*
X111221D01*
X100000Y241732D02*
Y247953D01*
X108661Y100000D02*
X348031D01*
X358000Y109968D02*
Y240425D01*
X100000Y108661D02*
Y241732D01*
X111221Y252953D02*
X345472D01*
D18*
X326476Y157480D02*
D03*
X301476D02*
D03*
D19*
X285402Y201772D02*
D03*
X289402D02*
D03*
X325787Y181102D02*
D03*
X329787D02*
D03*
X304102Y201772D02*
D03*
X308102D02*
D03*
X296228D02*
D03*
X300228D02*
D03*
X257842Y180709D02*
D03*
X261842D02*
D03*
D20*
X291339Y187992D02*
D03*
Y180118D02*
D03*
D21*
X319902Y180315D02*
D03*
Y184055D02*
D03*
Y187795D02*
D03*
X310020Y180315D02*
D03*
Y184055D02*
D03*
Y187795D02*
D03*
D24*
X314961Y175228D02*
D03*
Y171228D02*
D03*
X319882D02*
D03*
Y175228D02*
D03*
X233268Y164402D02*
D03*
Y160402D02*
D03*
X252953Y180740D02*
D03*
Y176740D02*
D03*
X334646Y230283D02*
D03*
Y234283D02*
D03*
X324803Y230283D02*
D03*
Y234283D02*
D03*
X198819Y157449D02*
D03*
Y161449D02*
D03*
X192913Y157449D02*
D03*
Y161449D02*
D03*
X314961Y230283D02*
D03*
Y234283D02*
D03*
X304134Y230283D02*
D03*
Y234283D02*
D03*
D25*
X334646Y238937D02*
D03*
Y245315D02*
D03*
X324803Y238937D02*
D03*
Y245315D02*
D03*
X315181Y238787D02*
D03*
Y245165D02*
D03*
X304134Y238937D02*
D03*
Y245315D02*
D03*
D26*
X230315Y182087D02*
D03*
D27*
X220965Y175197D02*
D03*
Y177165D02*
D03*
Y179134D02*
D03*
Y181102D02*
D03*
Y183071D02*
D03*
Y185039D02*
D03*
Y187008D02*
D03*
Y188976D02*
D03*
X239665D02*
D03*
Y187008D02*
D03*
Y185039D02*
D03*
Y183071D02*
D03*
Y181102D02*
D03*
Y179134D02*
D03*
Y177165D02*
D03*
Y175197D02*
D03*
D28*
X223425Y191437D02*
D03*
X225394D02*
D03*
X227362D02*
D03*
X229331D02*
D03*
X231299D02*
D03*
X233268D02*
D03*
X235236D02*
D03*
X237205D02*
D03*
Y172736D02*
D03*
X235236D02*
D03*
X233268D02*
D03*
X231299D02*
D03*
X229331D02*
D03*
X227362D02*
D03*
X225394D02*
D03*
X223425D02*
D03*
D29*
X284252Y188996D02*
D03*
X280512D02*
D03*
X276772D02*
D03*
X284252Y179114D02*
D03*
X280512D02*
D03*
X276772D02*
D03*
D30*
X133173Y115453D02*
D03*
Y134547D02*
D03*
X143173Y115453D02*
D03*
Y134547D02*
D03*
X153173Y115453D02*
D03*
Y134547D02*
D03*
X163173Y115453D02*
D03*
Y134547D02*
D03*
X173173Y115453D02*
D03*
Y134547D02*
D03*
X183173Y115453D02*
D03*
Y134547D02*
D03*
X193173Y115453D02*
D03*
Y134547D02*
D03*
X203173Y115453D02*
D03*
Y134547D02*
D03*
X213173Y115453D02*
D03*
Y134547D02*
D03*
X223173Y115453D02*
D03*
Y134547D02*
D03*
X233173Y115453D02*
D03*
Y134547D02*
D03*
X243173Y115453D02*
D03*
Y134547D02*
D03*
X253173Y115453D02*
D03*
Y134547D02*
D03*
X263173Y115453D02*
D03*
Y134547D02*
D03*
X273173Y115453D02*
D03*
Y134547D02*
D03*
X283173Y115453D02*
D03*
Y134547D02*
D03*
X293173Y115453D02*
D03*
Y134547D02*
D03*
X303173Y115453D02*
D03*
Y134547D02*
D03*
X313173Y115453D02*
D03*
Y134547D02*
D03*
X323173Y115453D02*
D03*
Y134547D02*
D03*
D48*
X325787Y176181D02*
D03*
X329724D02*
D03*
X325787Y171260D02*
D03*
X329724D02*
D03*
X257874Y176772D02*
D03*
X261811D02*
D03*
X280512Y195866D02*
D03*
X276575D02*
D03*
X232059Y196142D02*
D03*
X235996D02*
D03*
D49*
X299213Y191929D02*
D03*
Y187992D02*
D03*
X304134Y191929D02*
D03*
Y187992D02*
D03*
X213583Y183071D02*
D03*
Y179134D02*
D03*
D50*
X319882Y175228D02*
X320177D01*
X323205Y173727D02*
X323517D01*
X322918Y174014D02*
X323205Y173727D01*
X324803Y245315D02*
X334646D01*
X304134D02*
X324803D01*
X213779Y179134D02*
X215748Y181102D01*
X220965D01*
X213583Y179134D02*
X213779D01*
X229331Y181102D02*
X230315Y182087D01*
X220965Y181102D02*
X229331D01*
X233268Y187008D02*
X234252Y186024D01*
X233268Y187008D02*
Y191437D01*
X232293Y195711D02*
X232389D01*
X233268Y191437D02*
Y194832D01*
X232389Y195711D02*
X233268Y194832D01*
X232059Y195945D02*
X232293Y195711D01*
X232059Y195945D02*
Y196142D01*
X281906Y201743D02*
X285373D01*
X285402Y201772D01*
X281878Y201715D02*
X281906Y201743D01*
X252953Y172244D02*
X252953Y172244D01*
X252953Y172244D02*
Y176740D01*
X257874Y172244D02*
Y176772D01*
X280512Y174213D02*
Y179114D01*
Y195866D02*
X284449D01*
X299213Y191929D02*
Y195866D01*
X304134Y191929D02*
Y195866D01*
Y183071D02*
X304540D01*
X305524Y184055D02*
X310020D01*
X304540Y183071D02*
X305524Y184055D01*
X323517Y173727D02*
X323530D01*
X323517D02*
X325787Y171457D01*
Y171260D02*
Y171457D01*
Y175984D02*
Y176181D01*
X323530Y173727D02*
X325787Y175984D01*
X280512Y188996D02*
Y195866D01*
D51*
X308583Y187992D02*
X308780Y187795D01*
X299213Y187992D02*
X308583D01*
X308780Y187795D02*
X310020D01*
X284394Y187992D02*
X299031D01*
X284252Y188134D02*
X284394Y187992D01*
X284252Y188134D02*
Y188996D01*
X334646Y188976D02*
Y230283D01*
X329724Y181102D02*
Y184055D01*
Y176181D02*
Y181102D01*
Y184055D02*
X334646Y188976D01*
X329724Y184055D02*
Y186624D01*
X319902Y187795D02*
X328553D01*
X329724Y186624D01*
X313173Y115453D02*
X323173D01*
X326476Y158169D02*
X327756Y156890D01*
X323173Y120177D02*
X327756Y124760D01*
Y156890D01*
X323173Y115453D02*
Y120177D01*
X329724Y161417D02*
Y171260D01*
X326476Y158169D02*
X329724Y161417D01*
X318520Y187937D02*
Y191287D01*
Y187937D02*
X318661Y187795D01*
X308102Y201705D02*
Y201772D01*
Y201705D02*
X318520Y191287D01*
X329724Y171260D02*
Y176181D01*
X304134Y234283D02*
Y238937D01*
X315028Y234283D02*
X315181Y234437D01*
X314961Y234283D02*
X315028D01*
X315181Y234437D02*
Y238787D01*
X324803Y234283D02*
Y238937D01*
X334646Y234283D02*
Y238937D01*
X272638Y195866D02*
X276575D01*
Y190433D02*
X276772Y190236D01*
X276575Y190433D02*
Y195866D01*
X276772Y188996D02*
Y190236D01*
X300228Y201772D02*
X304102D01*
X290158Y180118D02*
X291339D01*
X284252Y179114D02*
X289154D01*
X290158Y180118D01*
D52*
X312992Y157480D02*
X322835Y147638D01*
X312992Y157480D02*
Y160433D01*
X322835Y144685D02*
Y147638D01*
X270669Y170276D02*
X272638Y168307D01*
X305118D01*
X312992Y160433D01*
X323173Y134547D02*
Y144346D01*
X322835Y144685D02*
X323173Y144346D01*
D53*
X198021Y164258D02*
X198819Y163461D01*
X195978Y164258D02*
X198021D01*
X195866Y164370D02*
X195978Y164258D01*
X198819Y161449D02*
Y163461D01*
X192921Y163394D02*
X193748Y164221D01*
X195717D01*
X192913Y161449D02*
X192921Y161457D01*
Y163394D01*
X195717Y164221D02*
X195866Y164370D01*
X226410Y160402D02*
X233268D01*
X226378Y160433D02*
X226410Y160402D01*
X209646Y183071D02*
X213583D01*
X209646Y183071D02*
X209646Y183071D01*
X235996Y196142D02*
X236108Y196254D01*
Y200675D01*
X236221Y200787D01*
X213583Y183071D02*
X220965D01*
X220965Y183071D01*
X235236Y195185D02*
X235996Y195945D01*
X235236Y191437D02*
Y195185D01*
X235996Y195945D02*
Y196142D01*
D54*
X313173Y134547D02*
Y145000D01*
X133173Y134547D02*
Y145000D01*
X143173Y134547D02*
Y145000D01*
X153173Y134547D02*
Y145000D01*
X163173Y134547D02*
Y145000D01*
X173173Y134547D02*
Y145000D01*
X183173Y144685D02*
X184079D01*
X183173Y134547D02*
Y144685D01*
X193173Y134547D02*
Y145000D01*
X203173Y134547D02*
Y145000D01*
X213173Y134547D02*
Y145000D01*
X223173Y134547D02*
Y145000D01*
X232504D02*
X233173D01*
Y134547D02*
Y145000D01*
X243173Y134547D02*
Y145000D01*
X253173Y134547D02*
Y145000D01*
X263173Y134547D02*
Y145000D01*
X273173Y134547D02*
Y145000D01*
X283173Y134547D02*
Y145000D01*
X293173Y134547D02*
Y145000D01*
X303173Y134547D02*
Y145000D01*
Y105000D02*
Y115453D01*
X293173Y105000D02*
Y115453D01*
X283173Y105000D02*
Y115453D01*
X273173Y105000D02*
Y115453D01*
X263173Y105000D02*
Y115453D01*
X253173Y105000D02*
Y115453D01*
X243173Y105000D02*
Y115453D01*
X233173Y105000D02*
Y115453D01*
X223173Y104528D02*
X224236D01*
X223173D02*
Y115453D01*
X213173Y105000D02*
Y115453D01*
X203173Y105000D02*
Y115453D01*
X193173Y105000D02*
Y115453D01*
X183173Y105000D02*
Y115453D01*
X171874Y104528D02*
X173173D01*
Y115453D01*
X163173Y105000D02*
Y115453D01*
X153173Y105000D02*
Y115453D01*
X143173Y105000D02*
Y115453D01*
X133173Y105000D02*
Y115453D01*
D55*
X169291Y244094D02*
D03*
X159291D02*
D03*
X149291D02*
D03*
X215394Y234095D02*
D03*
X225394D02*
D03*
X235394D02*
D03*
X215394Y244094D02*
D03*
X225394D02*
D03*
D56*
X179291D02*
D03*
X235394D02*
D03*
D57*
X114000Y125000D02*
D03*
X342347Y125000D02*
D03*
D58*
X138173D02*
D03*
X318173D02*
D03*
D59*
X310039Y175197D02*
D03*
X347441Y153543D02*
D03*
Y177165D02*
D03*
X257874Y187008D02*
D03*
X267717D02*
D03*
X303150Y173228D02*
D03*
X315945Y166339D02*
D03*
X322835D02*
D03*
X125000Y107283D02*
D03*
X106299D02*
D03*
X309055Y104331D02*
D03*
X320866D02*
D03*
X345472Y106299D02*
D03*
X347441Y142717D02*
D03*
Y164370D02*
D03*
Y189961D02*
D03*
Y219488D02*
D03*
X346457Y248031D02*
D03*
X327756Y247047D02*
D03*
X291004Y247006D02*
D03*
X256890Y246063D02*
D03*
X205709Y237205D02*
D03*
X206439Y212709D02*
D03*
X207677Y191929D02*
D03*
X192913Y184055D02*
D03*
X193898Y203740D02*
D03*
Y225394D02*
D03*
X194709Y246184D02*
D03*
X174213Y197835D02*
D03*
Y212598D02*
D03*
Y231299D02*
D03*
X162402D02*
D03*
X163386Y199803D02*
D03*
X166339Y165354D02*
D03*
X151575Y154528D02*
D03*
X150591Y180118D02*
D03*
X148622Y214567D02*
D03*
X130905Y230315D02*
D03*
Y198819D02*
D03*
X131890Y165354D02*
D03*
X111221Y149606D02*
D03*
Y183071D02*
D03*
X110236Y211614D02*
D03*
Y244094D02*
D03*
X226378Y160433D02*
D03*
X237795Y167542D02*
D03*
X270669Y170276D02*
D03*
X322835Y144685D02*
D03*
X272638Y195866D02*
D03*
X209646Y183071D02*
D03*
X236221Y200787D02*
D03*
X195866Y164370D02*
D03*
X281878Y201715D02*
D03*
X246063Y181102D02*
D03*
X292815Y201772D02*
D03*
X234252Y178150D02*
D03*
X226378D02*
D03*
Y186024D02*
D03*
X234252D02*
D03*
X230315Y182087D02*
D03*
X252953Y172244D02*
D03*
X257874D02*
D03*
X284449Y195866D02*
D03*
X280512Y174213D02*
D03*
X233268Y167323D02*
D03*
X299213Y195866D02*
D03*
X304134D02*
D03*
Y183071D02*
D03*
X323205Y173727D02*
D03*
X325509Y184364D02*
D03*
X329724Y157480D02*
D03*
Y153543D02*
D03*
Y161417D02*
D03*
X298228Y157480D02*
D03*
Y153543D02*
D03*
Y161417D02*
D03*
X297244Y177165D02*
D03*
X289370D02*
D03*
X293307D02*
D03*
D60*
X313173Y145000D02*
D03*
X303173D02*
D03*
X293173D02*
D03*
X283173D02*
D03*
X273173D02*
D03*
X263173D02*
D03*
X253173D02*
D03*
X243173D02*
D03*
X233173D02*
D03*
X223173D02*
D03*
X213173D02*
D03*
X203173D02*
D03*
X193173D02*
D03*
X183173D02*
D03*
X173173D02*
D03*
X163173D02*
D03*
X153173D02*
D03*
X143173D02*
D03*
X133173D02*
D03*
Y105000D02*
D03*
X143173D02*
D03*
X153173D02*
D03*
X163173D02*
D03*
X173173D02*
D03*
X183173D02*
D03*
X193173D02*
D03*
X203173D02*
D03*
X213173D02*
D03*
X223173D02*
D03*
X233173D02*
D03*
X243173D02*
D03*
X253173D02*
D03*
X263173D02*
D03*
X273173D02*
D03*
X283173D02*
D03*
X293173D02*
D03*
X303173D02*
D03*
M02*
