G04*
G04 #@! TF.GenerationSoftware,Altium Limited,CircuitStudio,1.5.2 (30)*
G04*
G04 Layer_Color=2752767*
%FSLAX25Y25*%
%MOIN*%
G70*
G01*
G75*
%ADD10C,0.01000*%
%ADD11C,0.00800*%
%ADD49C,0.01600*%
%ADD53C,0.00500*%
%ADD70C,0.02000*%
%ADD166C,0.00333*%
%ADD167C,0.01500*%
D10*
X1861605Y869281D02*
Y875279D01*
X1864604D01*
X1865604Y874279D01*
Y872280D01*
X1864604Y871280D01*
X1861605D01*
X1863604D02*
X1865604Y869281D01*
X1868603D02*
X1870602D01*
X1871602Y870281D01*
Y872280D01*
X1870602Y873280D01*
X1868603D01*
X1867603Y872280D01*
Y870281D01*
X1868603Y869281D01*
X1873601Y873280D02*
Y870281D01*
X1874601Y869281D01*
X1877600D01*
Y873280D01*
X1879599Y869281D02*
Y873280D01*
X1882598D01*
X1883598Y872280D01*
Y869281D01*
X1889596Y875279D02*
Y869281D01*
X1886597D01*
X1885597Y870281D01*
Y872280D01*
X1886597Y873280D01*
X1889596D01*
X1811017Y869281D02*
Y875279D01*
X1814016D01*
X1815016Y874279D01*
Y872280D01*
X1814016Y871280D01*
X1811017D01*
X1817015Y875279D02*
X1821014D01*
X1819015D01*
Y869281D01*
X1823013Y875279D02*
Y869281D01*
Y872280D01*
X1827012D01*
Y875279D01*
Y869281D01*
X1679456D02*
Y875279D01*
X1676457Y872280D01*
X1680456D01*
X1682455Y869281D02*
Y870281D01*
X1683455D01*
Y869281D01*
X1682455D01*
X1687453Y874279D02*
X1688453Y875279D01*
X1690452D01*
X1691452Y874279D01*
Y870281D01*
X1690452Y869281D01*
X1688453D01*
X1687453Y870281D01*
Y874279D01*
X1693451D02*
X1694451Y875279D01*
X1696450D01*
X1697450Y874279D01*
Y870281D01*
X1696450Y869281D01*
X1694451D01*
X1693451Y870281D01*
Y874279D01*
X1699450Y869281D02*
Y873280D01*
X1700449D01*
X1701449Y872280D01*
Y869281D01*
Y872280D01*
X1702448Y873280D01*
X1703448Y872280D01*
Y869281D01*
X1705448D02*
X1707447D01*
X1706447D01*
Y873280D01*
X1705448D01*
X1710446Y869281D02*
X1712445D01*
X1711446D01*
Y875279D01*
X1710446D01*
X1723442Y869281D02*
X1721442Y871280D01*
Y873280D01*
X1723442Y875279D01*
X1726441Y874279D02*
X1727440Y875279D01*
X1729440D01*
X1730440Y874279D01*
Y870281D01*
X1729440Y869281D01*
X1727440D01*
X1726441Y870281D01*
Y874279D01*
X1732439Y869281D02*
Y870281D01*
X1733438D01*
Y869281D01*
X1732439D01*
X1737437D02*
X1739437D01*
X1738437D01*
Y875279D01*
X1737437Y874279D01*
X1742436D02*
X1743435Y875279D01*
X1745435D01*
X1746434Y874279D01*
Y870281D01*
X1745435Y869281D01*
X1743435D01*
X1742436Y870281D01*
Y874279D01*
X1752432Y869281D02*
X1748434D01*
X1752432Y873280D01*
Y874279D01*
X1751433Y875279D01*
X1749433D01*
X1748434Y874279D01*
X1754432Y869281D02*
Y873280D01*
X1755431D01*
X1756431Y872280D01*
Y869281D01*
Y872280D01*
X1757431Y873280D01*
X1758430Y872280D01*
Y869281D01*
X1760430D02*
Y873280D01*
X1761429D01*
X1762429Y872280D01*
Y869281D01*
Y872280D01*
X1763429Y873280D01*
X1764429Y872280D01*
Y869281D01*
X1766428D02*
X1768427Y871280D01*
Y873280D01*
X1766428Y875279D01*
X1610674Y860279D02*
X1606676D01*
Y857280D01*
X1608675Y858280D01*
X1609675D01*
X1610674Y857280D01*
Y855281D01*
X1609675Y854281D01*
X1607675D01*
X1606676Y855281D01*
X1616672Y860279D02*
X1614673Y859280D01*
X1612674Y857280D01*
Y855281D01*
X1613673Y854281D01*
X1615673D01*
X1616672Y855281D01*
Y856280D01*
X1615673Y857280D01*
X1612674D01*
X1618672Y859280D02*
X1619671Y860279D01*
X1621671D01*
X1622670Y859280D01*
Y855281D01*
X1621671Y854281D01*
X1619671D01*
X1618672Y855281D01*
Y859280D01*
X1630668Y860279D02*
X1634666D01*
X1632667D01*
Y854281D01*
X1637666D02*
X1639665D01*
X1640665Y855281D01*
Y857280D01*
X1639665Y858280D01*
X1637666D01*
X1636666Y857280D01*
Y855281D01*
X1637666Y854281D01*
X1643664Y859280D02*
Y858280D01*
X1642664D01*
X1644663D01*
X1643664D01*
Y855281D01*
X1644663Y854281D01*
X1648662Y858280D02*
X1650661D01*
X1651661Y857280D01*
Y854281D01*
X1648662D01*
X1647662Y855281D01*
X1648662Y856280D01*
X1651661D01*
X1653660Y854281D02*
X1655660D01*
X1654660D01*
Y860279D01*
X1653660D01*
X1610674Y875279D02*
X1606676D01*
Y872280D01*
X1608675Y873280D01*
X1609675D01*
X1610674Y872280D01*
Y870281D01*
X1609675Y869281D01*
X1607675D01*
X1606676Y870281D01*
X1616672Y875279D02*
X1614673Y874279D01*
X1612674Y872280D01*
Y870281D01*
X1613673Y869281D01*
X1615673D01*
X1616672Y870281D01*
Y871280D01*
X1615673Y872280D01*
X1612674D01*
X1618672Y874279D02*
X1619671Y875279D01*
X1621671D01*
X1622670Y874279D01*
Y870281D01*
X1621671Y869281D01*
X1619671D01*
X1618672Y870281D01*
Y874279D01*
X1787176Y504781D02*
Y511779D01*
X1790675D01*
X1791841Y510612D01*
Y508280D01*
X1790675Y507114D01*
X1787176D01*
X1794173Y504781D02*
Y511779D01*
X1797672D01*
X1798838Y510612D01*
Y508280D01*
X1797672Y507114D01*
X1794173D01*
X1802337Y503615D02*
X1803504Y504781D01*
Y505947D01*
X1802337D01*
Y504781D01*
X1803504D01*
X1802337Y503615D01*
X1801171Y502449D01*
X1818665Y504781D02*
Y511779D01*
X1815166Y508280D01*
X1819832D01*
X1822164Y504781D02*
Y505947D01*
X1823331D01*
Y504781D01*
X1822164D01*
X1827996Y510612D02*
X1829162Y511779D01*
X1831495D01*
X1832661Y510612D01*
Y509446D01*
X1831495Y508280D01*
X1830328D01*
X1831495D01*
X1832661Y507114D01*
Y505947D01*
X1831495Y504781D01*
X1829162D01*
X1827996Y505947D01*
X1834994Y510612D02*
X1836160Y511779D01*
X1838492D01*
X1839659Y510612D01*
Y509446D01*
X1838492Y508280D01*
X1837326D01*
X1838492D01*
X1839659Y507114D01*
Y505947D01*
X1838492Y504781D01*
X1836160D01*
X1834994Y505947D01*
X1841991Y504781D02*
X1844324D01*
X1843158D01*
Y511779D01*
X1841991Y510612D01*
X1847823Y504781D02*
Y509446D01*
X1848989D01*
X1850155Y508280D01*
Y504781D01*
Y508280D01*
X1851321Y509446D01*
X1852488Y508280D01*
Y504781D01*
X1854820D02*
X1857153D01*
X1855987D01*
Y509446D01*
X1854820D01*
X1860652Y504781D02*
X1862984D01*
X1861818D01*
Y511779D01*
X1860652D01*
X1867650Y503615D02*
X1868816Y504781D01*
Y505947D01*
X1867650D01*
Y504781D01*
X1868816D01*
X1867650Y503615D01*
X1866483Y502449D01*
X1883978Y504781D02*
X1881645D01*
X1880479Y505947D01*
Y508280D01*
X1881645Y509446D01*
X1883978D01*
X1885144Y508280D01*
Y507114D01*
X1880479D01*
X1887477Y502449D02*
Y509446D01*
X1890975D01*
X1892142Y508280D01*
Y505947D01*
X1890975Y504781D01*
X1887477D01*
X1894474D02*
X1897973D01*
X1899139Y505947D01*
X1897973Y507114D01*
X1895641D01*
X1894474Y508280D01*
X1895641Y509446D01*
X1899139D01*
X1901472Y507114D02*
X1906137D01*
X1901472Y509446D02*
X1906137D01*
X1911969Y504781D02*
Y511779D01*
X1908470Y508280D01*
X1913135D01*
X1915467Y504781D02*
Y505947D01*
X1916634D01*
Y504781D01*
X1915467D01*
X1921299Y510612D02*
X1922465Y511779D01*
X1924798D01*
X1925964Y510612D01*
Y509446D01*
X1924798Y508280D01*
X1923631D01*
X1924798D01*
X1925964Y507114D01*
Y505947D01*
X1924798Y504781D01*
X1922465D01*
X1921299Y505947D01*
X1795841Y490613D02*
X1794674Y491779D01*
X1792342D01*
X1791176Y490613D01*
Y485947D01*
X1792342Y484781D01*
X1794674D01*
X1795841Y485947D01*
X1801672Y491779D02*
X1799340D01*
X1798173Y490613D01*
Y485947D01*
X1799340Y484781D01*
X1801672D01*
X1802839Y485947D01*
Y490613D01*
X1801672Y491779D01*
X1805171Y484781D02*
Y491779D01*
X1808670D01*
X1809836Y490613D01*
Y488280D01*
X1808670Y487114D01*
X1805171D01*
X1812169Y484781D02*
Y491779D01*
X1815668D01*
X1816834Y490613D01*
Y488280D01*
X1815668Y487114D01*
X1812169D01*
X1823832Y491779D02*
X1819167D01*
Y484781D01*
X1823832D01*
X1819167Y488280D02*
X1821499D01*
X1826164Y484781D02*
Y491779D01*
X1829663D01*
X1830829Y490613D01*
Y488280D01*
X1829663Y487114D01*
X1826164D01*
X1828497D02*
X1830829Y484781D01*
X1834328Y483615D02*
X1835495Y484781D01*
Y485947D01*
X1834328D01*
Y484781D01*
X1835495D01*
X1834328Y483615D01*
X1833162Y482448D01*
X1847157Y490613D02*
X1848324Y491779D01*
X1850656D01*
X1851823Y490613D01*
Y485947D01*
X1850656Y484781D01*
X1848324D01*
X1847157Y485947D01*
Y490613D01*
X1854155Y484781D02*
Y485947D01*
X1855322D01*
Y484781D01*
X1854155D01*
X1864652Y491779D02*
X1859987D01*
Y488280D01*
X1862319Y489446D01*
X1863486D01*
X1864652Y488280D01*
Y485947D01*
X1863486Y484781D01*
X1861153D01*
X1859987Y485947D01*
X1868151Y484781D02*
X1870483D01*
X1871650Y485947D01*
Y488280D01*
X1870483Y489446D01*
X1868151D01*
X1866984Y488280D01*
Y485947D01*
X1868151Y484781D01*
X1873982Y489446D02*
X1878647D01*
X1873982Y484781D01*
X1878647D01*
X1887978D02*
X1890310D01*
X1889144D01*
Y489446D01*
X1887978D01*
X1893809Y484781D02*
Y489446D01*
X1897308D01*
X1898474Y488280D01*
Y484781D01*
X1900807D02*
X1903139D01*
X1901973D01*
Y489446D01*
X1900807D01*
X1907805Y490613D02*
Y489446D01*
X1906638D01*
X1908971D01*
X1907805D01*
Y485947D01*
X1908971Y484781D01*
X1912470D02*
X1914802D01*
X1913636D01*
Y489446D01*
X1912470D01*
X1919468D02*
X1921800D01*
X1922966Y488280D01*
Y484781D01*
X1919468D01*
X1918301Y485947D01*
X1919468Y487114D01*
X1922966D01*
X1925299Y484781D02*
X1927632D01*
X1926465D01*
Y491779D01*
X1925299D01*
X1795841Y530613D02*
X1794674Y531779D01*
X1792342D01*
X1791176Y530613D01*
Y525947D01*
X1792342Y524781D01*
X1794674D01*
X1795841Y525947D01*
X1801672Y531779D02*
X1799340D01*
X1798173Y530613D01*
Y525947D01*
X1799340Y524781D01*
X1801672D01*
X1802839Y525947D01*
Y530613D01*
X1801672Y531779D01*
X1805171Y524781D02*
Y531779D01*
X1808670D01*
X1809836Y530613D01*
Y528280D01*
X1808670Y527114D01*
X1805171D01*
X1812169Y524781D02*
Y531779D01*
X1815668D01*
X1816834Y530613D01*
Y528280D01*
X1815668Y527114D01*
X1812169D01*
X1823832Y531779D02*
X1819167D01*
Y524781D01*
X1823832D01*
X1819167Y528280D02*
X1821499D01*
X1826164Y524781D02*
Y531779D01*
X1829663D01*
X1830829Y530613D01*
Y528280D01*
X1829663Y527114D01*
X1826164D01*
X1828497D02*
X1830829Y524781D01*
X1834328Y523615D02*
X1835495Y524781D01*
Y525947D01*
X1834328D01*
Y524781D01*
X1835495D01*
X1834328Y523615D01*
X1833162Y522448D01*
X1847157Y530613D02*
X1848324Y531779D01*
X1850656D01*
X1851823Y530613D01*
Y525947D01*
X1850656Y524781D01*
X1848324D01*
X1847157Y525947D01*
Y530613D01*
X1854155Y524781D02*
Y525947D01*
X1855322D01*
Y524781D01*
X1854155D01*
X1864652Y531779D02*
X1859987D01*
Y528280D01*
X1862319Y529446D01*
X1863486D01*
X1864652Y528280D01*
Y525947D01*
X1863486Y524781D01*
X1861153D01*
X1859987Y525947D01*
X1868151Y524781D02*
X1870483D01*
X1871650Y525947D01*
Y528280D01*
X1870483Y529446D01*
X1868151D01*
X1866984Y528280D01*
Y525947D01*
X1868151Y524781D01*
X1873982Y529446D02*
X1878647D01*
X1873982Y524781D01*
X1878647D01*
X1887978D02*
X1890310D01*
X1889144D01*
Y529446D01*
X1887978D01*
X1893809Y524781D02*
Y529446D01*
X1897308D01*
X1898474Y528280D01*
Y524781D01*
X1900807D02*
X1903139D01*
X1901973D01*
Y529446D01*
X1900807D01*
X1907805Y530613D02*
Y529446D01*
X1906638D01*
X1908971D01*
X1907805D01*
Y525947D01*
X1908971Y524781D01*
X1912470D02*
X1914802D01*
X1913636D01*
Y529446D01*
X1912470D01*
X1919468D02*
X1921800D01*
X1922966Y528280D01*
Y524781D01*
X1919468D01*
X1918301Y525947D01*
X1919468Y527114D01*
X1922966D01*
X1925299Y524781D02*
X1927632D01*
X1926465D01*
Y531779D01*
X1925299D01*
X1795841Y570612D02*
X1794674Y571779D01*
X1792342D01*
X1791176Y570612D01*
Y565947D01*
X1792342Y564781D01*
X1794674D01*
X1795841Y565947D01*
X1801672Y571779D02*
X1799340D01*
X1798173Y570612D01*
Y565947D01*
X1799340Y564781D01*
X1801672D01*
X1802839Y565947D01*
Y570612D01*
X1801672Y571779D01*
X1805171Y564781D02*
Y571779D01*
X1808670D01*
X1809836Y570612D01*
Y568280D01*
X1808670Y567114D01*
X1805171D01*
X1812169Y564781D02*
Y571779D01*
X1815668D01*
X1816834Y570612D01*
Y568280D01*
X1815668Y567114D01*
X1812169D01*
X1823832Y571779D02*
X1819167D01*
Y564781D01*
X1823832D01*
X1819167Y568280D02*
X1821499D01*
X1826164Y564781D02*
Y571779D01*
X1829663D01*
X1830829Y570612D01*
Y568280D01*
X1829663Y567114D01*
X1826164D01*
X1828497D02*
X1830829Y564781D01*
X1834328Y563615D02*
X1835495Y564781D01*
Y565947D01*
X1834328D01*
Y564781D01*
X1835495D01*
X1834328Y563615D01*
X1833162Y562449D01*
X1847157Y570612D02*
X1848324Y571779D01*
X1850656D01*
X1851823Y570612D01*
Y565947D01*
X1850656Y564781D01*
X1848324D01*
X1847157Y565947D01*
Y570612D01*
X1854155Y564781D02*
Y565947D01*
X1855322D01*
Y564781D01*
X1854155D01*
X1864652Y571779D02*
X1859987D01*
Y568280D01*
X1862319Y569446D01*
X1863486D01*
X1864652Y568280D01*
Y565947D01*
X1863486Y564781D01*
X1861153D01*
X1859987Y565947D01*
X1868151Y564781D02*
X1870483D01*
X1871650Y565947D01*
Y568280D01*
X1870483Y569446D01*
X1868151D01*
X1866984Y568280D01*
Y565947D01*
X1868151Y564781D01*
X1873982Y569446D02*
X1878647D01*
X1873982Y564781D01*
X1878647D01*
X1887978D02*
X1890310D01*
X1889144D01*
Y569446D01*
X1887978D01*
X1893809Y564781D02*
Y569446D01*
X1897308D01*
X1898474Y568280D01*
Y564781D01*
X1900807D02*
X1903139D01*
X1901973D01*
Y569446D01*
X1900807D01*
X1907805Y570612D02*
Y569446D01*
X1906638D01*
X1908971D01*
X1907805D01*
Y565947D01*
X1908971Y564781D01*
X1912470D02*
X1914802D01*
X1913636D01*
Y569446D01*
X1912470D01*
X1919468D02*
X1921800D01*
X1922966Y568280D01*
Y564781D01*
X1919468D01*
X1918301Y565947D01*
X1919468Y567114D01*
X1922966D01*
X1925299Y564781D02*
X1927632D01*
X1926465D01*
Y571779D01*
X1925299D01*
X1747841Y550612D02*
X1746675Y551779D01*
X1744342D01*
X1743176Y550612D01*
Y545947D01*
X1744342Y544781D01*
X1746675D01*
X1747841Y545947D01*
X1753672Y551779D02*
X1751340D01*
X1750173Y550612D01*
Y545947D01*
X1751340Y544781D01*
X1753672D01*
X1754839Y545947D01*
Y550612D01*
X1753672Y551779D01*
X1757171Y544781D02*
Y551779D01*
X1760670D01*
X1761836Y550612D01*
Y548280D01*
X1760670Y547114D01*
X1757171D01*
X1759504D02*
X1761836Y544781D01*
X1768834Y551779D02*
X1764169D01*
Y544781D01*
X1768834D01*
X1764169Y548280D02*
X1766501D01*
X1771166Y543615D02*
X1775832D01*
X1782829Y551779D02*
X1778164D01*
Y548280D01*
X1780497D01*
X1778164D01*
Y544781D01*
X1785162D02*
Y551779D01*
X1788661D01*
X1789827Y550612D01*
Y548280D01*
X1788661Y547114D01*
X1785162D01*
X1787495D02*
X1789827Y544781D01*
X1795659D02*
Y551779D01*
X1792160Y548280D01*
X1796825D01*
X1800324Y543615D02*
X1801490Y544781D01*
Y545947D01*
X1800324D01*
Y544781D01*
X1801490D01*
X1800324Y543615D01*
X1799158Y542449D01*
X1816652Y544781D02*
Y551779D01*
X1813153Y548280D01*
X1817818D01*
X1820151Y551779D02*
X1824816D01*
Y550612D01*
X1820151Y545947D01*
Y544781D01*
X1827148D02*
Y545947D01*
X1828315D01*
Y544781D01*
X1827148D01*
X1837645D02*
X1832980D01*
X1837645Y549446D01*
Y550612D01*
X1836479Y551779D01*
X1834146D01*
X1832980Y550612D01*
X1843476Y544781D02*
Y551779D01*
X1839978Y548280D01*
X1844643D01*
X1846975Y544781D02*
Y549446D01*
X1848142D01*
X1849308Y548280D01*
Y544781D01*
Y548280D01*
X1850474Y549446D01*
X1851641Y548280D01*
Y544781D01*
X1853973D02*
X1856306D01*
X1855139D01*
Y549446D01*
X1853973D01*
X1859805Y544781D02*
X1862137D01*
X1860971D01*
Y551779D01*
X1859805D01*
X1866802Y543615D02*
X1867969Y544781D01*
Y545947D01*
X1866802D01*
Y544781D01*
X1867969D01*
X1866802Y543615D01*
X1865636Y542449D01*
X1883130Y544781D02*
X1880798D01*
X1879631Y545947D01*
Y548280D01*
X1880798Y549446D01*
X1883130D01*
X1884297Y548280D01*
Y547114D01*
X1879631D01*
X1886629Y542449D02*
Y549446D01*
X1890128D01*
X1891294Y548280D01*
Y545947D01*
X1890128Y544781D01*
X1886629D01*
X1893627D02*
X1897126D01*
X1898292Y545947D01*
X1897126Y547114D01*
X1894793D01*
X1893627Y548280D01*
X1894793Y549446D01*
X1898292D01*
X1900625Y547114D02*
X1905290D01*
X1900625Y549446D02*
X1905290D01*
X1911121Y544781D02*
Y551779D01*
X1907623Y548280D01*
X1912288D01*
X1914620Y544781D02*
Y545947D01*
X1915787D01*
Y544781D01*
X1914620D01*
X1920452Y550612D02*
X1921618Y551779D01*
X1923951D01*
X1925117Y550612D01*
Y549446D01*
X1923951Y548280D01*
X1922784D01*
X1923951D01*
X1925117Y547114D01*
Y545947D01*
X1923951Y544781D01*
X1921618D01*
X1920452Y545947D01*
X1787176Y584781D02*
Y591779D01*
X1790675D01*
X1791841Y590613D01*
Y588280D01*
X1790675Y587114D01*
X1787176D01*
X1794173Y584781D02*
Y591779D01*
X1797672D01*
X1798838Y590613D01*
Y588280D01*
X1797672Y587114D01*
X1794173D01*
X1802337Y583615D02*
X1803504Y584781D01*
Y585947D01*
X1802337D01*
Y584781D01*
X1803504D01*
X1802337Y583615D01*
X1801171Y582448D01*
X1818665Y584781D02*
Y591779D01*
X1815166Y588280D01*
X1819832D01*
X1822164Y584781D02*
Y585947D01*
X1823331D01*
Y584781D01*
X1822164D01*
X1827996Y590613D02*
X1829162Y591779D01*
X1831495D01*
X1832661Y590613D01*
Y589446D01*
X1831495Y588280D01*
X1830328D01*
X1831495D01*
X1832661Y587114D01*
Y585947D01*
X1831495Y584781D01*
X1829162D01*
X1827996Y585947D01*
X1834994Y590613D02*
X1836160Y591779D01*
X1838492D01*
X1839659Y590613D01*
Y589446D01*
X1838492Y588280D01*
X1837326D01*
X1838492D01*
X1839659Y587114D01*
Y585947D01*
X1838492Y584781D01*
X1836160D01*
X1834994Y585947D01*
X1841991Y584781D02*
X1844324D01*
X1843158D01*
Y591779D01*
X1841991Y590613D01*
X1847823Y584781D02*
Y589446D01*
X1848989D01*
X1850155Y588280D01*
Y584781D01*
Y588280D01*
X1851321Y589446D01*
X1852488Y588280D01*
Y584781D01*
X1854820D02*
X1857153D01*
X1855987D01*
Y589446D01*
X1854820D01*
X1860652Y584781D02*
X1862984D01*
X1861818D01*
Y591779D01*
X1860652D01*
X1867650Y583615D02*
X1868816Y584781D01*
Y585947D01*
X1867650D01*
Y584781D01*
X1868816D01*
X1867650Y583615D01*
X1866483Y582448D01*
X1883978Y584781D02*
X1881645D01*
X1880479Y585947D01*
Y588280D01*
X1881645Y589446D01*
X1883978D01*
X1885144Y588280D01*
Y587114D01*
X1880479D01*
X1887477Y582448D02*
Y589446D01*
X1890975D01*
X1892142Y588280D01*
Y585947D01*
X1890975Y584781D01*
X1887477D01*
X1894474D02*
X1897973D01*
X1899139Y585947D01*
X1897973Y587114D01*
X1895641D01*
X1894474Y588280D01*
X1895641Y589446D01*
X1899139D01*
X1901472Y587114D02*
X1906137D01*
X1901472Y589446D02*
X1906137D01*
X1911969Y584781D02*
Y591779D01*
X1908470Y588280D01*
X1913135D01*
X1915467Y584781D02*
Y585947D01*
X1916634D01*
Y584781D01*
X1915467D01*
X1921299Y590613D02*
X1922465Y591779D01*
X1924798D01*
X1925964Y590613D01*
Y589446D01*
X1924798Y588280D01*
X1923631D01*
X1924798D01*
X1925964Y587114D01*
Y585947D01*
X1924798Y584781D01*
X1922465D01*
X1921299Y585947D01*
X1795841Y610612D02*
X1794674Y611779D01*
X1792342D01*
X1791176Y610612D01*
Y605947D01*
X1792342Y604781D01*
X1794674D01*
X1795841Y605947D01*
X1801672Y611779D02*
X1799340D01*
X1798173Y610612D01*
Y605947D01*
X1799340Y604781D01*
X1801672D01*
X1802839Y605947D01*
Y610612D01*
X1801672Y611779D01*
X1805171Y604781D02*
Y611779D01*
X1808670D01*
X1809836Y610612D01*
Y608280D01*
X1808670Y607114D01*
X1805171D01*
X1812169Y604781D02*
Y611779D01*
X1815668D01*
X1816834Y610612D01*
Y608280D01*
X1815668Y607114D01*
X1812169D01*
X1823832Y611779D02*
X1819167D01*
Y604781D01*
X1823832D01*
X1819167Y608280D02*
X1821499D01*
X1826164Y604781D02*
Y611779D01*
X1829663D01*
X1830829Y610612D01*
Y608280D01*
X1829663Y607114D01*
X1826164D01*
X1828497D02*
X1830829Y604781D01*
X1834328Y603615D02*
X1835495Y604781D01*
Y605947D01*
X1834328D01*
Y604781D01*
X1835495D01*
X1834328Y603615D01*
X1833162Y602449D01*
X1847157Y610612D02*
X1848324Y611779D01*
X1850656D01*
X1851823Y610612D01*
Y605947D01*
X1850656Y604781D01*
X1848324D01*
X1847157Y605947D01*
Y610612D01*
X1854155Y604781D02*
Y605947D01*
X1855322D01*
Y604781D01*
X1854155D01*
X1864652Y611779D02*
X1859987D01*
Y608280D01*
X1862319Y609446D01*
X1863486D01*
X1864652Y608280D01*
Y605947D01*
X1863486Y604781D01*
X1861153D01*
X1859987Y605947D01*
X1868151Y604781D02*
X1870483D01*
X1871650Y605947D01*
Y608280D01*
X1870483Y609446D01*
X1868151D01*
X1866984Y608280D01*
Y605947D01*
X1868151Y604781D01*
X1873982Y609446D02*
X1878647D01*
X1873982Y604781D01*
X1878647D01*
X1887978D02*
X1890310D01*
X1889144D01*
Y609446D01*
X1887978D01*
X1893809Y604781D02*
Y609446D01*
X1897308D01*
X1898474Y608280D01*
Y604781D01*
X1900807D02*
X1903139D01*
X1901973D01*
Y609446D01*
X1900807D01*
X1907805Y610612D02*
Y609446D01*
X1906638D01*
X1908971D01*
X1907805D01*
Y605947D01*
X1908971Y604781D01*
X1912470D02*
X1914802D01*
X1913636D01*
Y609446D01*
X1912470D01*
X1919468D02*
X1921800D01*
X1922966Y608280D01*
Y604781D01*
X1919468D01*
X1918301Y605947D01*
X1919468Y607114D01*
X1922966D01*
X1925299Y604781D02*
X1927632D01*
X1926465D01*
Y611779D01*
X1925299D01*
D11*
X1547176Y480781D02*
Y497781D01*
Y480781D02*
X1934176D01*
Y497781D01*
X1547176D02*
X1934176D01*
X1547176Y500781D02*
Y517781D01*
Y500781D02*
X1934176D01*
Y517781D01*
X1547176D02*
X1934176D01*
X1547176Y520781D02*
Y537781D01*
Y520781D02*
X1934176D01*
Y537781D01*
X1547176D02*
X1934176D01*
X1547176Y540781D02*
Y557781D01*
Y540781D02*
X1934176D01*
Y557781D01*
X1547176D02*
X1934176D01*
X1547176Y560781D02*
Y577781D01*
Y560781D02*
X1934176D01*
Y577781D01*
X1547176D02*
X1934176D01*
X1547176Y597781D02*
X1934176D01*
Y580781D02*
Y597781D01*
X1547176Y580781D02*
X1934176D01*
X1547176D02*
Y597781D01*
Y600781D02*
Y617781D01*
Y600781D02*
X1934176D01*
Y617781D01*
X1547176D02*
X1934176D01*
D49*
X1683176Y476781D02*
Y620781D01*
Y476781D02*
X1715176D01*
Y620781D01*
X1683176D02*
X1715176D01*
X1635176Y476781D02*
X1659176D01*
X1635176D02*
X1643176Y536781D01*
X1659176D01*
X1667176Y476781D01*
X1659176D02*
X1667176D01*
X1607176Y620781D02*
X1615176D01*
X1607176D02*
X1615176Y560781D01*
X1631176D01*
X1639176Y620781D01*
X1615176D02*
X1639176D01*
X1861605Y891479D02*
Y884281D01*
Y887880D01*
X1866403D01*
Y891479D01*
Y884281D01*
X1870002D02*
X1872401D01*
X1873601Y885481D01*
Y887880D01*
X1872401Y889079D01*
X1870002D01*
X1868803Y887880D01*
Y885481D01*
X1870002Y884281D01*
X1876000D02*
X1878399D01*
X1877200D01*
Y891479D01*
X1876000D01*
X1885597Y884281D02*
X1883198D01*
X1881998Y885481D01*
Y887880D01*
X1883198Y889079D01*
X1885597D01*
X1886797Y887880D01*
Y886680D01*
X1881998D01*
X1896394Y891479D02*
X1901192D01*
X1898793D01*
Y884281D01*
X1903591Y889079D02*
Y885481D01*
X1904791Y884281D01*
X1908390D01*
Y883082D01*
X1907190Y881882D01*
X1905991D01*
X1908390Y884281D02*
Y889079D01*
X1910789Y881882D02*
Y889079D01*
X1914388D01*
X1915587Y887880D01*
Y885481D01*
X1914388Y884281D01*
X1910789D01*
X1921585D02*
X1919186D01*
X1917987Y885481D01*
Y887880D01*
X1919186Y889079D01*
X1921585D01*
X1922785Y887880D01*
Y886680D01*
X1917987D01*
X1811017Y884281D02*
Y891479D01*
X1814616D01*
X1815816Y890279D01*
Y887880D01*
X1814616Y886680D01*
X1811017D01*
X1818215Y884281D02*
X1820614D01*
X1819415D01*
Y891479D01*
X1818215D01*
X1825413Y889079D02*
X1827812D01*
X1829012Y887880D01*
Y884281D01*
X1825413D01*
X1824213Y885481D01*
X1825413Y886680D01*
X1829012D01*
X1832610Y890279D02*
Y889079D01*
X1831411D01*
X1833810D01*
X1832610D01*
Y885481D01*
X1833810Y884281D01*
X1841008D02*
X1838608D01*
X1837409Y885481D01*
Y887880D01*
X1838608Y889079D01*
X1841008D01*
X1842207Y887880D01*
Y886680D01*
X1837409D01*
X1849405Y891479D02*
Y884281D01*
X1845806D01*
X1844607Y885481D01*
Y887880D01*
X1845806Y889079D01*
X1849405D01*
X1681255Y891479D02*
X1676457D01*
Y887880D01*
X1678856D01*
X1676457D01*
Y884281D01*
X1683655D02*
X1686054D01*
X1684854D01*
Y889079D01*
X1683655D01*
X1689653Y884281D02*
Y889079D01*
X1693251D01*
X1694451Y887880D01*
Y884281D01*
X1696850D02*
X1699250D01*
X1698050D01*
Y889079D01*
X1696850D01*
X1702848Y884281D02*
X1706447D01*
X1707647Y885481D01*
X1706447Y886680D01*
X1704048D01*
X1702848Y887880D01*
X1704048Y889079D01*
X1707647D01*
X1710046Y891479D02*
Y884281D01*
Y887880D01*
X1711246Y889079D01*
X1713645D01*
X1714845Y887880D01*
Y884281D01*
X1720843D02*
X1718443D01*
X1717244Y885481D01*
Y887880D01*
X1718443Y889079D01*
X1720843D01*
X1722042Y887880D01*
Y886680D01*
X1717244D01*
X1729240Y891479D02*
Y884281D01*
X1725641D01*
X1724441Y885481D01*
Y887880D01*
X1725641Y889079D01*
X1729240D01*
X1738837Y891479D02*
Y884281D01*
Y887880D01*
X1743635D01*
Y891479D01*
Y884281D01*
X1747234D02*
X1749633D01*
X1750833Y885481D01*
Y887880D01*
X1749633Y889079D01*
X1747234D01*
X1746034Y887880D01*
Y885481D01*
X1747234Y884281D01*
X1753232D02*
X1755631D01*
X1754432D01*
Y891479D01*
X1753232D01*
X1762829Y884281D02*
X1760430D01*
X1759230Y885481D01*
Y887880D01*
X1760430Y889079D01*
X1762829D01*
X1764029Y887880D01*
Y886680D01*
X1759230D01*
X1778424Y890279D02*
X1777224Y891479D01*
X1774825D01*
X1773626Y890279D01*
Y889079D01*
X1774825Y887880D01*
X1777224D01*
X1778424Y886680D01*
Y885481D01*
X1777224Y884281D01*
X1774825D01*
X1773626Y885481D01*
X1780823Y884281D02*
X1783222D01*
X1782023D01*
Y889079D01*
X1780823D01*
X1786821D02*
X1791620D01*
X1786821Y884281D01*
X1791620D01*
X1797618D02*
X1795218D01*
X1794019Y885481D01*
Y887880D01*
X1795218Y889079D01*
X1797618D01*
X1798817Y887880D01*
Y886680D01*
X1794019D01*
X1606676Y891479D02*
Y884281D01*
Y887880D01*
X1611474D01*
Y891479D01*
Y884281D01*
X1613873D02*
X1616273D01*
X1615073D01*
Y889079D01*
X1613873D01*
X1621071Y890279D02*
Y889079D01*
X1619871D01*
X1622271D01*
X1621071D01*
Y885481D01*
X1622271Y884281D01*
X1637865Y890279D02*
X1636666Y891479D01*
X1634267D01*
X1633067Y890279D01*
Y885481D01*
X1634267Y884281D01*
X1636666D01*
X1637865Y885481D01*
X1641464Y884281D02*
X1643864D01*
X1645063Y885481D01*
Y887880D01*
X1643864Y889079D01*
X1641464D01*
X1640265Y887880D01*
Y885481D01*
X1641464Y884281D01*
X1647462Y889079D02*
Y885481D01*
X1648662Y884281D01*
X1652261D01*
Y889079D01*
X1654660Y884281D02*
Y889079D01*
X1658259D01*
X1659459Y887880D01*
Y884281D01*
X1663057Y890279D02*
Y889079D01*
X1661858D01*
X1664257D01*
X1663057D01*
Y885481D01*
X1664257Y884281D01*
X1560886Y890279D02*
X1559687Y891479D01*
X1557288D01*
X1556088Y890279D01*
Y889079D01*
X1557288Y887880D01*
X1559687D01*
X1560886Y886680D01*
Y885481D01*
X1559687Y884281D01*
X1557288D01*
X1556088Y885481D01*
X1563286Y889079D02*
Y885481D01*
X1564485Y884281D01*
X1568084D01*
Y883082D01*
X1566885Y881882D01*
X1565685D01*
X1568084Y884281D02*
Y889079D01*
X1570483Y884281D02*
Y889079D01*
X1571683D01*
X1572883Y887880D01*
Y884281D01*
Y887880D01*
X1574082Y889079D01*
X1575282Y887880D01*
Y884281D01*
X1577681Y891479D02*
Y884281D01*
X1581280D01*
X1582479Y885481D01*
Y886680D01*
Y887880D01*
X1581280Y889079D01*
X1577681D01*
X1586078Y884281D02*
X1588478D01*
X1589677Y885481D01*
Y887880D01*
X1588478Y889079D01*
X1586078D01*
X1584879Y887880D01*
Y885481D01*
X1586078Y884281D01*
X1592076D02*
X1594476D01*
X1593276D01*
Y891479D01*
X1592076D01*
D53*
X1290528Y813564D02*
G03*
X1286362Y817730I-4166J0D01*
G01*
X1048995D02*
G03*
X1034623Y803358I0J-14372D01*
G01*
X1034623Y712769D02*
G03*
X1047891Y699502I13268J0D01*
G01*
X1276749Y699502D02*
G03*
X1290528Y713281I0J13780D01*
G01*
X1107961Y815466D02*
X1110224Y817730D01*
X1048995D02*
X1082327D01*
X1084591Y815466D01*
X1290528Y767631D02*
Y813564D01*
X1110224Y817730D02*
X1286362D01*
X1290528Y713281D02*
Y718006D01*
X1034623Y796470D02*
Y803358D01*
X1084591Y815466D02*
X1107961D01*
X1290528Y718006D02*
Y767631D01*
X1034623Y712769D02*
X1034623Y796470D01*
X1047891Y699502D02*
X1276749Y699502D01*
D70*
X1552176Y639278D02*
Y629281D01*
X1558840D01*
X1563838Y635946D02*
X1567171D01*
X1568837Y634279D01*
Y629281D01*
X1563838D01*
X1562172Y630947D01*
X1563838Y632613D01*
X1568837D01*
X1572169Y635946D02*
Y630947D01*
X1573835Y629281D01*
X1578834D01*
Y627615D01*
X1577168Y625949D01*
X1575501D01*
X1578834Y629281D02*
Y635946D01*
X1587164Y629281D02*
X1583832D01*
X1582166Y630947D01*
Y634279D01*
X1583832Y635946D01*
X1587164D01*
X1588830Y634279D01*
Y632613D01*
X1582166D01*
X1592163Y635946D02*
Y629281D01*
Y632613D01*
X1593829Y634279D01*
X1595495Y635946D01*
X1597161D01*
X1602159Y629281D02*
X1607158D01*
X1608824Y630947D01*
X1607158Y632613D01*
X1603826D01*
X1602159Y634279D01*
X1603826Y635946D01*
X1608824D01*
X1555176Y494778D02*
Y484781D01*
X1560174D01*
X1561840Y486447D01*
Y488113D01*
X1560174Y489780D01*
X1555176D01*
X1560174D01*
X1561840Y491446D01*
Y493112D01*
X1560174Y494778D01*
X1555176D01*
X1570171D02*
X1566838D01*
X1565172Y493112D01*
Y486447D01*
X1566838Y484781D01*
X1570171D01*
X1571837Y486447D01*
Y493112D01*
X1570171Y494778D01*
X1575169D02*
X1581834D01*
X1578501D01*
Y484781D01*
X1585166Y494778D02*
X1591830D01*
X1588498D01*
Y484781D01*
X1600161Y494778D02*
X1596829D01*
X1595163Y493112D01*
Y486447D01*
X1596829Y484781D01*
X1600161D01*
X1601827Y486447D01*
Y493112D01*
X1600161Y494778D01*
X1605159Y484781D02*
Y494778D01*
X1608492Y491446D01*
X1611824Y494778D01*
Y484781D01*
X1555176Y534778D02*
Y524781D01*
X1561840D01*
X1571837D02*
X1565172D01*
X1571837Y531446D01*
Y533112D01*
X1570171Y534778D01*
X1566838D01*
X1565172Y533112D01*
X1555176Y574778D02*
Y564781D01*
X1561840D01*
X1565172D02*
X1568505D01*
X1566838D01*
Y574778D01*
X1565172Y573112D01*
X1555176Y614778D02*
X1561840D01*
X1558508D01*
Y604781D01*
X1570171Y614778D02*
X1566838D01*
X1565172Y613112D01*
Y606447D01*
X1566838Y604781D01*
X1570171D01*
X1571837Y606447D01*
Y613112D01*
X1570171Y614778D01*
X1575169Y604781D02*
Y614778D01*
X1580167D01*
X1581834Y613112D01*
Y609780D01*
X1580167Y608113D01*
X1575169D01*
D166*
X1553901Y870531D02*
X1555151D01*
X1553901D02*
Y873031D01*
X1555151D01*
Y874281D01*
X1557650D01*
Y873031D02*
Y874281D01*
Y873031D02*
X1558901D01*
Y870531D02*
Y873031D01*
X1557650Y870531D02*
X1558901D01*
X1557650Y869281D02*
Y870531D01*
X1555151Y869281D02*
X1557650D01*
X1555151D02*
Y870531D01*
X1092509Y768048D02*
X1093342D01*
X1092509D02*
Y769714D01*
X1093342D01*
Y770548D01*
X1095009D01*
Y769714D02*
Y770548D01*
Y769714D02*
X1095842D01*
Y768048D02*
Y769714D01*
X1095009Y768048D02*
X1095842D01*
X1095009Y767214D02*
Y768048D01*
X1093342Y767214D02*
X1095009D01*
X1093342D02*
Y768048D01*
X1089109Y766448D02*
X1089942D01*
X1089109D02*
Y768114D01*
X1089942D01*
Y768948D01*
X1091609D01*
Y768114D02*
Y768948D01*
Y768114D02*
X1092442D01*
Y766448D02*
Y768114D01*
X1091609Y766448D02*
X1092442D01*
X1091609Y765614D02*
Y766448D01*
X1089942Y765614D02*
X1091609D01*
X1089942D02*
Y766448D01*
X1110444Y752655D02*
X1111278D01*
X1110444D02*
Y754322D01*
X1111278D01*
Y755155D01*
X1112944D01*
Y754322D02*
Y755155D01*
Y754322D02*
X1113778D01*
Y752655D02*
Y754322D01*
X1112944Y752655D02*
X1113778D01*
X1112944Y751822D02*
Y752655D01*
X1111278Y751822D02*
X1112944D01*
X1111278D02*
Y752655D01*
X1112697Y752649D02*
X1113530D01*
X1112697D02*
Y754316D01*
X1113530D01*
Y755149D01*
X1115197D01*
Y754316D02*
Y755149D01*
Y754316D02*
X1116030D01*
Y752649D02*
Y754316D01*
X1115197Y752649D02*
X1116030D01*
X1115197Y751816D02*
Y752649D01*
X1113530Y751816D02*
X1115197D01*
X1113530D02*
Y752649D01*
X1113509Y762948D02*
X1114342D01*
X1113509D02*
Y764614D01*
X1114342D01*
Y765448D01*
X1116009D01*
Y764614D02*
Y765448D01*
Y764614D02*
X1116842D01*
Y762948D02*
Y764614D01*
X1116009Y762948D02*
X1116842D01*
X1116009Y762114D02*
Y762948D01*
X1114342Y762114D02*
X1116009D01*
X1114342D02*
Y762948D01*
X1111009Y766948D02*
X1111842D01*
X1111009D02*
Y768614D01*
X1111842D01*
Y769448D01*
X1113509D01*
Y768614D02*
Y769448D01*
Y768614D02*
X1114342D01*
Y766948D02*
Y768614D01*
X1113509Y766948D02*
X1114342D01*
X1113509Y766114D02*
Y766948D01*
X1111842Y766114D02*
X1113509D01*
X1111842D02*
Y766948D01*
X1111009Y772448D02*
X1111842D01*
X1111009D02*
Y774114D01*
X1111842D01*
Y774948D01*
X1113509D01*
Y774114D02*
Y774948D01*
Y774114D02*
X1114342D01*
Y772448D02*
Y774114D01*
X1113509Y772448D02*
X1114342D01*
X1113509Y771614D02*
Y772448D01*
X1111842Y771614D02*
X1113509D01*
X1111842D02*
Y772448D01*
X1143009Y761448D02*
X1143842D01*
X1143009D02*
Y763114D01*
X1143842D01*
Y763948D01*
X1145509D01*
Y763114D02*
Y763948D01*
Y763114D02*
X1146342D01*
Y761448D02*
Y763114D01*
X1145509Y761448D02*
X1146342D01*
X1145509Y760614D02*
Y761448D01*
X1143842Y760614D02*
X1145509D01*
X1143842D02*
Y761448D01*
X1141709Y764348D02*
X1142542D01*
X1141709D02*
Y766014D01*
X1142542D01*
Y766848D01*
X1144209D01*
Y766014D02*
Y766848D01*
Y766014D02*
X1145042D01*
Y764348D02*
Y766014D01*
X1144209Y764348D02*
X1145042D01*
X1144209Y763514D02*
Y764348D01*
X1142542Y763514D02*
X1144209D01*
X1142542D02*
Y764348D01*
X1155809Y735548D02*
X1156642D01*
X1155809D02*
Y737214D01*
X1156642D01*
Y738048D01*
X1158309D01*
Y737214D02*
Y738048D01*
Y737214D02*
X1159142D01*
Y735548D02*
Y737214D01*
X1158309Y735548D02*
X1159142D01*
X1158309Y734714D02*
Y735548D01*
X1156642Y734714D02*
X1158309D01*
X1156642D02*
Y735548D01*
X1158509Y734948D02*
X1159342D01*
X1158509D02*
Y736614D01*
X1159342D01*
Y737448D01*
X1161009D01*
Y736614D02*
Y737448D01*
Y736614D02*
X1161842D01*
Y734948D02*
Y736614D01*
X1161009Y734948D02*
X1161842D01*
X1161009Y734114D02*
Y734948D01*
X1159342Y734114D02*
X1161009D01*
X1159342D02*
Y734948D01*
X1138809Y734848D02*
X1139642D01*
X1138809D02*
Y736514D01*
X1139642D01*
Y737348D01*
X1141309D01*
Y736514D02*
Y737348D01*
Y736514D02*
X1142142D01*
Y734848D02*
Y736514D01*
X1141309Y734848D02*
X1142142D01*
X1141309Y734014D02*
Y734848D01*
X1139642Y734014D02*
X1141309D01*
X1139642D02*
Y734848D01*
X1127329Y728308D02*
X1128162D01*
X1127329D02*
Y729974D01*
X1128162D01*
Y730808D01*
X1129829D01*
Y729974D02*
Y730808D01*
Y729974D02*
X1130662D01*
Y728308D02*
Y729974D01*
X1129829Y728308D02*
X1130662D01*
X1129829Y727474D02*
Y728308D01*
X1128162Y727474D02*
X1129829D01*
X1128162D02*
Y728308D01*
X1130809Y728448D02*
X1131642D01*
X1130809D02*
Y730114D01*
X1131642D01*
Y730948D01*
X1133309D01*
Y730114D02*
Y730948D01*
Y730114D02*
X1134142D01*
Y728448D02*
Y730114D01*
X1133309Y728448D02*
X1134142D01*
X1133309Y727614D02*
Y728448D01*
X1131642Y727614D02*
X1133309D01*
X1131642D02*
Y728448D01*
X1136109Y733548D02*
X1136942D01*
X1136109D02*
Y735214D01*
X1136942D01*
Y736048D01*
X1138609D01*
Y735214D02*
Y736048D01*
Y735214D02*
X1139442D01*
Y733548D02*
Y735214D01*
X1138609Y733548D02*
X1139442D01*
X1138609Y732714D02*
Y733548D01*
X1136942Y732714D02*
X1138609D01*
X1136942D02*
Y733548D01*
X1134009Y732848D02*
X1134842D01*
X1134009D02*
Y734514D01*
X1134842D01*
Y735348D01*
X1136509D01*
Y734514D02*
Y735348D01*
Y734514D02*
X1137342D01*
Y732848D02*
Y734514D01*
X1136509Y732848D02*
X1137342D01*
X1136509Y732014D02*
Y732848D01*
X1134842Y732014D02*
X1136509D01*
X1134842D02*
Y732848D01*
X1242209Y794548D02*
X1243042D01*
X1242209D02*
Y796214D01*
X1243042D01*
Y797048D01*
X1244709D01*
Y796214D02*
Y797048D01*
Y796214D02*
X1245542D01*
Y794548D02*
Y796214D01*
X1244709Y794548D02*
X1245542D01*
X1244709Y793714D02*
Y794548D01*
X1243042Y793714D02*
X1244709D01*
X1243042D02*
Y794548D01*
X1242909Y796548D02*
X1243742D01*
X1242909D02*
Y798214D01*
X1243742D01*
Y799048D01*
X1245409D01*
Y798214D02*
Y799048D01*
Y798214D02*
X1246242D01*
Y796548D02*
Y798214D01*
X1245409Y796548D02*
X1246242D01*
X1245409Y795714D02*
Y796548D01*
X1243742Y795714D02*
X1245409D01*
X1243742D02*
Y796548D01*
X1244209D02*
X1245042D01*
X1244209D02*
Y798214D01*
X1245042D01*
Y799048D01*
X1246709D01*
Y798214D02*
Y799048D01*
Y798214D02*
X1247542D01*
Y796548D02*
Y798214D01*
X1246709Y796548D02*
X1247542D01*
X1246709Y795714D02*
Y796548D01*
X1245042Y795714D02*
X1246709D01*
X1245042D02*
Y796548D01*
X1246109Y796648D02*
X1246942D01*
X1246109D02*
Y798314D01*
X1246942D01*
Y799148D01*
X1248609D01*
Y798314D02*
Y799148D01*
Y798314D02*
X1249442D01*
Y796648D02*
Y798314D01*
X1248609Y796648D02*
X1249442D01*
X1248609Y795814D02*
Y796648D01*
X1246942Y795814D02*
X1248609D01*
X1246942D02*
Y796648D01*
X1041109Y754248D02*
X1041942D01*
X1041109D02*
Y755914D01*
X1041942D01*
Y756748D01*
X1043609D01*
Y755914D02*
Y756748D01*
Y755914D02*
X1044442D01*
Y754248D02*
Y755914D01*
X1043609Y754248D02*
X1044442D01*
X1043609Y753414D02*
Y754248D01*
X1041942Y753414D02*
X1043609D01*
X1041942D02*
Y754248D01*
X1041109Y752848D02*
X1041942D01*
X1041109D02*
Y754514D01*
X1041942D01*
Y755348D01*
X1043609D01*
Y754514D02*
Y755348D01*
Y754514D02*
X1044442D01*
Y752848D02*
Y754514D01*
X1043609Y752848D02*
X1044442D01*
X1043609Y752014D02*
Y752848D01*
X1041942Y752014D02*
X1043609D01*
X1041942D02*
Y752848D01*
X1038909Y751148D02*
X1039742D01*
X1038909D02*
Y752814D01*
X1039742D01*
Y753648D01*
X1041409D01*
Y752814D02*
Y753648D01*
Y752814D02*
X1042242D01*
Y751148D02*
Y752814D01*
X1041409Y751148D02*
X1042242D01*
X1041409Y750314D02*
Y751148D01*
X1039742Y750314D02*
X1041409D01*
X1039742D02*
Y751148D01*
X1041109D02*
X1041942D01*
X1041109D02*
Y752814D01*
X1041942D01*
Y753648D01*
X1043609D01*
Y752814D02*
Y753648D01*
Y752814D02*
X1044442D01*
Y751148D02*
Y752814D01*
X1043609Y751148D02*
X1044442D01*
X1043609Y750314D02*
Y751148D01*
X1041942Y750314D02*
X1043609D01*
X1041942D02*
Y751148D01*
X1051709Y762348D02*
X1052542D01*
X1051709D02*
Y764014D01*
X1052542D01*
Y764848D01*
X1054209D01*
Y764014D02*
Y764848D01*
Y764014D02*
X1055042D01*
Y762348D02*
Y764014D01*
X1054209Y762348D02*
X1055042D01*
X1054209Y761514D02*
Y762348D01*
X1052542Y761514D02*
X1054209D01*
X1052542D02*
Y762348D01*
X1046209Y755448D02*
X1047042D01*
X1046209D02*
Y757114D01*
X1047042D01*
Y757948D01*
X1048709D01*
Y757114D02*
Y757948D01*
Y757114D02*
X1049542D01*
Y755448D02*
Y757114D01*
X1048709Y755448D02*
X1049542D01*
X1048709Y754614D02*
Y755448D01*
X1047042Y754614D02*
X1048709D01*
X1047042D02*
Y755448D01*
X1041009Y743448D02*
X1041842D01*
X1041009D02*
Y745114D01*
X1041842D01*
Y745948D01*
X1043509D01*
Y745114D02*
Y745948D01*
Y745114D02*
X1044342D01*
Y743448D02*
Y745114D01*
X1043509Y743448D02*
X1044342D01*
X1043509Y742614D02*
Y743448D01*
X1041842Y742614D02*
X1043509D01*
X1041842D02*
Y743448D01*
X1041209Y741848D02*
X1042042D01*
X1041209D02*
Y743514D01*
X1042042D01*
Y744348D01*
X1043709D01*
Y743514D02*
Y744348D01*
Y743514D02*
X1044542D01*
Y741848D02*
Y743514D01*
X1043709Y741848D02*
X1044542D01*
X1043709Y741014D02*
Y741848D01*
X1042042Y741014D02*
X1043709D01*
X1042042D02*
Y741848D01*
X1041209Y739548D02*
X1042042D01*
X1041209D02*
Y741214D01*
X1042042D01*
Y742048D01*
X1043709D01*
Y741214D02*
Y742048D01*
Y741214D02*
X1044542D01*
Y739548D02*
Y741214D01*
X1043709Y739548D02*
X1044542D01*
X1043709Y738714D02*
Y739548D01*
X1042042Y738714D02*
X1043709D01*
X1042042D02*
Y739548D01*
X1044409Y739348D02*
X1045242D01*
X1044409D02*
Y741014D01*
X1045242D01*
Y741848D01*
X1046909D01*
Y741014D02*
Y741848D01*
Y741014D02*
X1047742D01*
Y739348D02*
Y741014D01*
X1046909Y739348D02*
X1047742D01*
X1046909Y738514D02*
Y739348D01*
X1045242Y738514D02*
X1046909D01*
X1045242D02*
Y739348D01*
X1044409Y738048D02*
X1045242D01*
X1044409D02*
Y739714D01*
X1045242D01*
Y740548D01*
X1046909D01*
Y739714D02*
Y740548D01*
Y739714D02*
X1047742D01*
Y738048D02*
Y739714D01*
X1046909Y738048D02*
X1047742D01*
X1046909Y737214D02*
Y738048D01*
X1045242Y737214D02*
X1046909D01*
X1045242D02*
Y738048D01*
X1041209Y745148D02*
X1042042D01*
X1041209D02*
Y746814D01*
X1042042D01*
Y747648D01*
X1043709D01*
Y746814D02*
Y747648D01*
Y746814D02*
X1044542D01*
Y745148D02*
Y746814D01*
X1043709Y745148D02*
X1044542D01*
X1043709Y744314D02*
Y745148D01*
X1042042Y744314D02*
X1043709D01*
X1042042D02*
Y745148D01*
X1041209Y747648D02*
X1042042D01*
X1041209D02*
Y749314D01*
X1042042D01*
Y750148D01*
X1043709D01*
Y749314D02*
Y750148D01*
Y749314D02*
X1044542D01*
Y747648D02*
Y749314D01*
X1043709Y747648D02*
X1044542D01*
X1043709Y746814D02*
Y747648D01*
X1042042Y746814D02*
X1043709D01*
X1042042D02*
Y747648D01*
X1176916Y752745D02*
X1177750D01*
X1176916D02*
Y754412D01*
X1177750D01*
Y755245D01*
X1179416D01*
Y754412D02*
Y755245D01*
Y754412D02*
X1180250D01*
Y752745D02*
Y754412D01*
X1179416Y752745D02*
X1180250D01*
X1179416Y751912D02*
Y752745D01*
X1177750Y751912D02*
X1179416D01*
X1177750D02*
Y752745D01*
X1070309Y761148D02*
X1071142D01*
X1070309D02*
Y762814D01*
X1071142D01*
Y763648D01*
X1072809D01*
Y762814D02*
Y763648D01*
Y762814D02*
X1073642D01*
Y761148D02*
Y762814D01*
X1072809Y761148D02*
X1073642D01*
X1072809Y760314D02*
Y761148D01*
X1071142Y760314D02*
X1072809D01*
X1071142D02*
Y761148D01*
X1072609D02*
X1073442D01*
X1072609D02*
Y762814D01*
X1073442D01*
Y763648D01*
X1075109D01*
Y762814D02*
Y763648D01*
Y762814D02*
X1075942D01*
Y761148D02*
Y762814D01*
X1075109Y761148D02*
X1075942D01*
X1075109Y760314D02*
Y761148D01*
X1073442Y760314D02*
X1075109D01*
X1073442D02*
Y761148D01*
X1064171Y763521D02*
X1065005D01*
X1064171D02*
Y765188D01*
X1065005D01*
Y766021D01*
X1066671D01*
Y765188D02*
Y766021D01*
Y765188D02*
X1067505D01*
Y763521D02*
Y765188D01*
X1066671Y763521D02*
X1067505D01*
X1066671Y762688D02*
Y763521D01*
X1065005Y762688D02*
X1066671D01*
X1065005D02*
Y763521D01*
X1072609Y763648D02*
X1073442D01*
X1072609D02*
Y765314D01*
X1073442D01*
Y766148D01*
X1075109D01*
Y765314D02*
Y766148D01*
Y765314D02*
X1075942D01*
Y763648D02*
Y765314D01*
X1075109Y763648D02*
X1075942D01*
X1075109Y762814D02*
Y763648D01*
X1073442Y762814D02*
X1075109D01*
X1073442D02*
Y763648D01*
X1078709Y762548D02*
X1079542D01*
X1078709D02*
Y764214D01*
X1079542D01*
Y765048D01*
X1081209D01*
Y764214D02*
Y765048D01*
Y764214D02*
X1082042D01*
Y762548D02*
Y764214D01*
X1081209Y762548D02*
X1082042D01*
X1081209Y761714D02*
Y762548D01*
X1079542Y761714D02*
X1081209D01*
X1079542D02*
Y762548D01*
X1078609Y760548D02*
X1079442D01*
X1078609D02*
Y762214D01*
X1079442D01*
Y763048D01*
X1081109D01*
Y762214D02*
Y763048D01*
Y762214D02*
X1081942D01*
Y760548D02*
Y762214D01*
X1081109Y760548D02*
X1081942D01*
X1081109Y759714D02*
Y760548D01*
X1079442Y759714D02*
X1081109D01*
X1079442D02*
Y760548D01*
X1079409Y765048D02*
X1080242D01*
X1079409D02*
Y766714D01*
X1080242D01*
Y767548D01*
X1081909D01*
Y766714D02*
Y767548D01*
Y766714D02*
X1082742D01*
Y765048D02*
Y766714D01*
X1081909Y765048D02*
X1082742D01*
X1081909Y764214D02*
Y765048D01*
X1080242Y764214D02*
X1081909D01*
X1080242D02*
Y765048D01*
X1078609Y764148D02*
X1079442D01*
X1078609D02*
Y765814D01*
X1079442D01*
Y766648D01*
X1081109D01*
Y765814D02*
Y766648D01*
Y765814D02*
X1081942D01*
Y764148D02*
Y765814D01*
X1081109Y764148D02*
X1081942D01*
X1081109Y763314D02*
Y764148D01*
X1079442Y763314D02*
X1081109D01*
X1079442D02*
Y764148D01*
X1078809Y757848D02*
X1079642D01*
X1078809D02*
Y759514D01*
X1079642D01*
Y760348D01*
X1081309D01*
Y759514D02*
Y760348D01*
Y759514D02*
X1082142D01*
Y757848D02*
Y759514D01*
X1081309Y757848D02*
X1082142D01*
X1081309Y757014D02*
Y757848D01*
X1079642Y757014D02*
X1081309D01*
X1079642D02*
Y757848D01*
X1250409Y734848D02*
X1251242D01*
X1250409D02*
Y736514D01*
X1251242D01*
Y737348D01*
X1252909D01*
Y736514D02*
Y737348D01*
Y736514D02*
X1253742D01*
Y734848D02*
Y736514D01*
X1252909Y734848D02*
X1253742D01*
X1252909Y734014D02*
Y734848D01*
X1251242Y734014D02*
X1252909D01*
X1251242D02*
Y734848D01*
X1252809D02*
X1253642D01*
X1252809D02*
Y736514D01*
X1253642D01*
Y737348D01*
X1255309D01*
Y736514D02*
Y737348D01*
Y736514D02*
X1256142D01*
Y734848D02*
Y736514D01*
X1255309Y734848D02*
X1256142D01*
X1255309Y734014D02*
Y734848D01*
X1253642Y734014D02*
X1255309D01*
X1253642D02*
Y734848D01*
X1252709Y732348D02*
X1253542D01*
X1252709D02*
Y734014D01*
X1253542D01*
Y734848D01*
X1255209D01*
Y734014D02*
Y734848D01*
Y734014D02*
X1256042D01*
Y732348D02*
Y734014D01*
X1255209Y732348D02*
X1256042D01*
X1255209Y731514D02*
Y732348D01*
X1253542Y731514D02*
X1255209D01*
X1253542D02*
Y732348D01*
X1250509Y732248D02*
X1251342D01*
X1250509D02*
Y733914D01*
X1251342D01*
Y734748D01*
X1253009D01*
Y733914D02*
Y734748D01*
Y733914D02*
X1253842D01*
Y732248D02*
Y733914D01*
X1253009Y732248D02*
X1253842D01*
X1253009Y731414D02*
Y732248D01*
X1251342Y731414D02*
X1253009D01*
X1251342D02*
Y732248D01*
X1236409Y732148D02*
X1237242D01*
X1236409D02*
Y733814D01*
X1237242D01*
Y734648D01*
X1238909D01*
Y733814D02*
Y734648D01*
Y733814D02*
X1239742D01*
Y732148D02*
Y733814D01*
X1238909Y732148D02*
X1239742D01*
X1238909Y731314D02*
Y732148D01*
X1237242Y731314D02*
X1238909D01*
X1237242D02*
Y732148D01*
X1234409D02*
X1235242D01*
X1234409D02*
Y733814D01*
X1235242D01*
Y734648D01*
X1236909D01*
Y733814D02*
Y734648D01*
Y733814D02*
X1237742D01*
Y732148D02*
Y733814D01*
X1236909Y732148D02*
X1237742D01*
X1236909Y731314D02*
Y732148D01*
X1235242Y731314D02*
X1236909D01*
X1235242D02*
Y732148D01*
X1232309D02*
X1233142D01*
X1232309D02*
Y733814D01*
X1233142D01*
Y734648D01*
X1234809D01*
Y733814D02*
Y734648D01*
Y733814D02*
X1235642D01*
Y732148D02*
Y733814D01*
X1234809Y732148D02*
X1235642D01*
X1234809Y731314D02*
Y732148D01*
X1233142Y731314D02*
X1234809D01*
X1233142D02*
Y732148D01*
X1239809Y729948D02*
X1240642D01*
X1239809D02*
Y731614D01*
X1240642D01*
Y732448D01*
X1242309D01*
Y731614D02*
Y732448D01*
Y731614D02*
X1243142D01*
Y729948D02*
Y731614D01*
X1242309Y729948D02*
X1243142D01*
X1242309Y729114D02*
Y729948D01*
X1240642Y729114D02*
X1242309D01*
X1240642D02*
Y729948D01*
X1239809Y732148D02*
X1240642D01*
X1239809D02*
Y733814D01*
X1240642D01*
Y734648D01*
X1242309D01*
Y733814D02*
Y734648D01*
Y733814D02*
X1243142D01*
Y732148D02*
Y733814D01*
X1242309Y732148D02*
X1243142D01*
X1242309Y731314D02*
Y732148D01*
X1240642Y731314D02*
X1242309D01*
X1240642D02*
Y732148D01*
X1238509D02*
X1239342D01*
X1238509D02*
Y733814D01*
X1239342D01*
Y734648D01*
X1241009D01*
Y733814D02*
Y734648D01*
Y733814D02*
X1241842D01*
Y732148D02*
Y733814D01*
X1241009Y732148D02*
X1241842D01*
X1241009Y731314D02*
Y732148D01*
X1239342Y731314D02*
X1241009D01*
X1239342D02*
Y732148D01*
X1238509Y729948D02*
X1239342D01*
X1238509D02*
Y731614D01*
X1239342D01*
Y732448D01*
X1241009D01*
Y731614D02*
Y732448D01*
Y731614D02*
X1241842D01*
Y729948D02*
Y731614D01*
X1241009Y729948D02*
X1241842D01*
X1241009Y729114D02*
Y729948D01*
X1239342Y729114D02*
X1241009D01*
X1239342D02*
Y729948D01*
X1230709Y730048D02*
X1231542D01*
X1230709D02*
Y731714D01*
X1231542D01*
Y732548D01*
X1233209D01*
Y731714D02*
Y732548D01*
Y731714D02*
X1234042D01*
Y730048D02*
Y731714D01*
X1233209Y730048D02*
X1234042D01*
X1233209Y729214D02*
Y730048D01*
X1231542Y729214D02*
X1233209D01*
X1231542D02*
Y730048D01*
X1230709Y732148D02*
X1231542D01*
X1230709D02*
Y733814D01*
X1231542D01*
Y734648D01*
X1233209D01*
Y733814D02*
Y734648D01*
Y733814D02*
X1234042D01*
Y732148D02*
Y733814D01*
X1233209Y732148D02*
X1234042D01*
X1233209Y731314D02*
Y732148D01*
X1231542Y731314D02*
X1233209D01*
X1231542D02*
Y732148D01*
X1229609D02*
X1230442D01*
X1229609D02*
Y733814D01*
X1230442D01*
Y734648D01*
X1232109D01*
Y733814D02*
Y734648D01*
Y733814D02*
X1232942D01*
Y732148D02*
Y733814D01*
X1232109Y732148D02*
X1232942D01*
X1232109Y731314D02*
Y732148D01*
X1230442Y731314D02*
X1232109D01*
X1230442D02*
Y732148D01*
X1229609Y730048D02*
X1230442D01*
X1229609D02*
Y731714D01*
X1230442D01*
Y732548D01*
X1232109D01*
Y731714D02*
Y732548D01*
Y731714D02*
X1232942D01*
Y730048D02*
Y731714D01*
X1232109Y730048D02*
X1232942D01*
X1232109Y729214D02*
Y730048D01*
X1230442Y729214D02*
X1232109D01*
X1230442D02*
Y730048D01*
X1145409Y756348D02*
X1146242D01*
X1145409D02*
Y758014D01*
X1146242D01*
Y758848D01*
X1147909D01*
Y758014D02*
Y758848D01*
Y758014D02*
X1148742D01*
Y756348D02*
Y758014D01*
X1147909Y756348D02*
X1148742D01*
X1147909Y755514D02*
Y756348D01*
X1146242Y755514D02*
X1147909D01*
X1146242D02*
Y756348D01*
X1146909Y749798D02*
X1147742D01*
X1146909D02*
Y751464D01*
X1147742D01*
Y752298D01*
X1149409D01*
Y751464D02*
Y752298D01*
Y751464D02*
X1150242D01*
Y749798D02*
Y751464D01*
X1149409Y749798D02*
X1150242D01*
X1149409Y748964D02*
Y749798D01*
X1147742Y748964D02*
X1149409D01*
X1147742D02*
Y749798D01*
X1137109Y758748D02*
X1137942D01*
X1137109D02*
Y760414D01*
X1137942D01*
Y761248D01*
X1139609D01*
Y760414D02*
Y761248D01*
Y760414D02*
X1140442D01*
Y758748D02*
Y760414D01*
X1139609Y758748D02*
X1140442D01*
X1139609Y757914D02*
Y758748D01*
X1137942Y757914D02*
X1139609D01*
X1137942D02*
Y758748D01*
X1231057Y793072D02*
X1231890D01*
X1231057D02*
Y794739D01*
X1231890D01*
Y795572D01*
X1233557D01*
Y794739D02*
Y795572D01*
Y794739D02*
X1234390D01*
Y793072D02*
Y794739D01*
X1233557Y793072D02*
X1234390D01*
X1233557Y792239D02*
Y793072D01*
X1231890Y792239D02*
X1233557D01*
X1231890D02*
Y793072D01*
X1233509D02*
X1234342D01*
X1233509D02*
Y794739D01*
X1234342D01*
Y795572D01*
X1236009D01*
Y794739D02*
Y795572D01*
Y794739D02*
X1236842D01*
Y793072D02*
Y794739D01*
X1236009Y793072D02*
X1236842D01*
X1236009Y792239D02*
Y793072D01*
X1234342Y792239D02*
X1236009D01*
X1234342D02*
Y793072D01*
X1232209D02*
X1233042D01*
X1232209D02*
Y794739D01*
X1233042D01*
Y795572D01*
X1234709D01*
Y794739D02*
Y795572D01*
Y794739D02*
X1235542D01*
Y793072D02*
Y794739D01*
X1234709Y793072D02*
X1235542D01*
X1234709Y792239D02*
Y793072D01*
X1233042Y792239D02*
X1234709D01*
X1233042D02*
Y793072D01*
X1147909Y765348D02*
X1148742D01*
X1147909D02*
Y767014D01*
X1148742D01*
Y767848D01*
X1150409D01*
Y767014D02*
Y767848D01*
Y767014D02*
X1151242D01*
Y765348D02*
Y767014D01*
X1150409Y765348D02*
X1151242D01*
X1150409Y764514D02*
Y765348D01*
X1148742Y764514D02*
X1150409D01*
X1148742D02*
Y765348D01*
X1248909Y736948D02*
X1249742D01*
X1248909D02*
Y738614D01*
X1249742D01*
Y739448D01*
X1251409D01*
Y738614D02*
Y739448D01*
Y738614D02*
X1252242D01*
Y736948D02*
Y738614D01*
X1251409Y736948D02*
X1252242D01*
X1251409Y736114D02*
Y736948D01*
X1249742Y736114D02*
X1251409D01*
X1249742D02*
Y736948D01*
X1220109Y780648D02*
X1220942D01*
X1220109D02*
Y782314D01*
X1220942D01*
Y783148D01*
X1222609D01*
Y782314D02*
Y783148D01*
Y782314D02*
X1223442D01*
Y780648D02*
Y782314D01*
X1222609Y780648D02*
X1223442D01*
X1222609Y779814D02*
Y780648D01*
X1220942Y779814D02*
X1222609D01*
X1220942D02*
Y780648D01*
X1233009Y728048D02*
X1233842D01*
X1233009D02*
Y729714D01*
X1233842D01*
Y730548D01*
X1235509D01*
Y729714D02*
Y730548D01*
Y729714D02*
X1236342D01*
Y728048D02*
Y729714D01*
X1235509Y728048D02*
X1236342D01*
X1235509Y727214D02*
Y728048D01*
X1233842Y727214D02*
X1235509D01*
X1233842D02*
Y728048D01*
X1228909Y746848D02*
X1229742D01*
X1228909D02*
Y748514D01*
X1229742D01*
Y749348D01*
X1231409D01*
Y748514D02*
Y749348D01*
Y748514D02*
X1232242D01*
Y746848D02*
Y748514D01*
X1231409Y746848D02*
X1232242D01*
X1231409Y746014D02*
Y746848D01*
X1229742Y746014D02*
X1231409D01*
X1229742D02*
Y746848D01*
X1229509Y752648D02*
X1230342D01*
X1229509D02*
Y754314D01*
X1230342D01*
Y755148D01*
X1232009D01*
Y754314D02*
Y755148D01*
Y754314D02*
X1232842D01*
Y752648D02*
Y754314D01*
X1232009Y752648D02*
X1232842D01*
X1232009Y751814D02*
Y752648D01*
X1230342Y751814D02*
X1232009D01*
X1230342D02*
Y752648D01*
X1232509Y744848D02*
X1233342D01*
X1232509D02*
Y746514D01*
X1233342D01*
Y747348D01*
X1235009D01*
Y746514D02*
Y747348D01*
Y746514D02*
X1235842D01*
Y744848D02*
Y746514D01*
X1235009Y744848D02*
X1235842D01*
X1235009Y744014D02*
Y744848D01*
X1233342Y744014D02*
X1235009D01*
X1233342D02*
Y744848D01*
X1228909D02*
X1229742D01*
X1228909D02*
Y746514D01*
X1229742D01*
Y747348D01*
X1231409D01*
Y746514D02*
Y747348D01*
Y746514D02*
X1232242D01*
Y744848D02*
Y746514D01*
X1231409Y744848D02*
X1232242D01*
X1231409Y744014D02*
Y744848D01*
X1229742Y744014D02*
X1231409D01*
X1229742D02*
Y744848D01*
X1226509Y746448D02*
X1227342D01*
X1226509D02*
Y748114D01*
X1227342D01*
Y748948D01*
X1229009D01*
Y748114D02*
Y748948D01*
Y748114D02*
X1229842D01*
Y746448D02*
Y748114D01*
X1229009Y746448D02*
X1229842D01*
X1229009Y745614D02*
Y746448D01*
X1227342Y745614D02*
X1229009D01*
X1227342D02*
Y746448D01*
X1228909Y743148D02*
X1229742D01*
X1228909D02*
Y744814D01*
X1229742D01*
Y745648D01*
X1231409D01*
Y744814D02*
Y745648D01*
Y744814D02*
X1232242D01*
Y743148D02*
Y744814D01*
X1231409Y743148D02*
X1232242D01*
X1231409Y742314D02*
Y743148D01*
X1229742Y742314D02*
X1231409D01*
X1229742D02*
Y743148D01*
X1226509Y743348D02*
X1227342D01*
X1226509D02*
Y745014D01*
X1227342D01*
Y745848D01*
X1229009D01*
Y745014D02*
Y745848D01*
Y745014D02*
X1229842D01*
Y743348D02*
Y745014D01*
X1229009Y743348D02*
X1229842D01*
X1229009Y742514D02*
Y743348D01*
X1227342Y742514D02*
X1229009D01*
X1227342D02*
Y743348D01*
X1226509Y744848D02*
X1227342D01*
X1226509D02*
Y746514D01*
X1227342D01*
Y747348D01*
X1229009D01*
Y746514D02*
Y747348D01*
Y746514D02*
X1229842D01*
Y744848D02*
Y746514D01*
X1229009Y744848D02*
X1229842D01*
X1229009Y744014D02*
Y744848D01*
X1227342Y744014D02*
X1229009D01*
X1227342D02*
Y744848D01*
X1222709Y749748D02*
X1223542D01*
X1222709D02*
Y751414D01*
X1223542D01*
Y752248D01*
X1225209D01*
Y751414D02*
Y752248D01*
Y751414D02*
X1226042D01*
Y749748D02*
Y751414D01*
X1225209Y749748D02*
X1226042D01*
X1225209Y748914D02*
Y749748D01*
X1223542Y748914D02*
X1225209D01*
X1223542D02*
Y749748D01*
X1221509D02*
X1222342D01*
X1221509D02*
Y751414D01*
X1222342D01*
Y752248D01*
X1224009D01*
Y751414D02*
Y752248D01*
Y751414D02*
X1224842D01*
Y749748D02*
Y751414D01*
X1224009Y749748D02*
X1224842D01*
X1224009Y748914D02*
Y749748D01*
X1222342Y748914D02*
X1224009D01*
X1222342D02*
Y749748D01*
X1236409Y744848D02*
X1237242D01*
X1236409D02*
Y746514D01*
X1237242D01*
Y747348D01*
X1238909D01*
Y746514D02*
Y747348D01*
Y746514D02*
X1239742D01*
Y744848D02*
Y746514D01*
X1238909Y744848D02*
X1239742D01*
X1238909Y744014D02*
Y744848D01*
X1237242Y744014D02*
X1238909D01*
X1237242D02*
Y744848D01*
X1239409Y752448D02*
X1240242D01*
X1239409D02*
Y754114D01*
X1240242D01*
Y754948D01*
X1241909D01*
Y754114D02*
Y754948D01*
Y754114D02*
X1242742D01*
Y752448D02*
Y754114D01*
X1241909Y752448D02*
X1242742D01*
X1241909Y751614D02*
Y752448D01*
X1240242Y751614D02*
X1241909D01*
X1240242D02*
Y752448D01*
X1242709Y751648D02*
X1243542D01*
X1242709D02*
Y753314D01*
X1243542D01*
Y754148D01*
X1245209D01*
Y753314D02*
Y754148D01*
Y753314D02*
X1246042D01*
Y751648D02*
Y753314D01*
X1245209Y751648D02*
X1246042D01*
X1245209Y750814D02*
Y751648D01*
X1243542Y750814D02*
X1245209D01*
X1243542D02*
Y751648D01*
X1240509Y751348D02*
X1241342D01*
X1240509D02*
Y753014D01*
X1241342D01*
Y753848D01*
X1243009D01*
Y753014D02*
Y753848D01*
Y753014D02*
X1243842D01*
Y751348D02*
Y753014D01*
X1243009Y751348D02*
X1243842D01*
X1243009Y750514D02*
Y751348D01*
X1241342Y750514D02*
X1243009D01*
X1241342D02*
Y751348D01*
X1236509Y750848D02*
X1237342D01*
X1236509D02*
Y752514D01*
X1237342D01*
Y753348D01*
X1239009D01*
Y752514D02*
Y753348D01*
Y752514D02*
X1239842D01*
Y750848D02*
Y752514D01*
X1239009Y750848D02*
X1239842D01*
X1239009Y750014D02*
Y750848D01*
X1237342Y750014D02*
X1239009D01*
X1237342D02*
Y750848D01*
X1238509Y751348D02*
X1239342D01*
X1238509D02*
Y753014D01*
X1239342D01*
Y753848D01*
X1241009D01*
Y753014D02*
Y753848D01*
Y753014D02*
X1241842D01*
Y751348D02*
Y753014D01*
X1241009Y751348D02*
X1241842D01*
X1241009Y750514D02*
Y751348D01*
X1239342Y750514D02*
X1241009D01*
X1239342D02*
Y751348D01*
X1240309Y742948D02*
X1241142D01*
X1240309D02*
Y744614D01*
X1241142D01*
Y745448D01*
X1242809D01*
Y744614D02*
Y745448D01*
Y744614D02*
X1243642D01*
Y742948D02*
Y744614D01*
X1242809Y742948D02*
X1243642D01*
X1242809Y742114D02*
Y742948D01*
X1241142Y742114D02*
X1242809D01*
X1241142D02*
Y742948D01*
X1242909D02*
X1243742D01*
X1242909D02*
Y744614D01*
X1243742D01*
Y745448D01*
X1245409D01*
Y744614D02*
Y745448D01*
Y744614D02*
X1246242D01*
Y742948D02*
Y744614D01*
X1245409Y742948D02*
X1246242D01*
X1245409Y742114D02*
Y742948D01*
X1243742Y742114D02*
X1245409D01*
X1243742D02*
Y742948D01*
X1244609Y742848D02*
X1245442D01*
X1244609D02*
Y744514D01*
X1245442D01*
Y745348D01*
X1247109D01*
Y744514D02*
Y745348D01*
Y744514D02*
X1247942D01*
Y742848D02*
Y744514D01*
X1247109Y742848D02*
X1247942D01*
X1247109Y742014D02*
Y742848D01*
X1245442Y742014D02*
X1247109D01*
X1245442D02*
Y742848D01*
X1244709Y739548D02*
X1245542D01*
X1244709D02*
Y741214D01*
X1245542D01*
Y742048D01*
X1247209D01*
Y741214D02*
Y742048D01*
Y741214D02*
X1248042D01*
Y739548D02*
Y741214D01*
X1247209Y739548D02*
X1248042D01*
X1247209Y738714D02*
Y739548D01*
X1245542Y738714D02*
X1247209D01*
X1245542D02*
Y739548D01*
X1234609Y735848D02*
X1235442D01*
X1234609D02*
Y737514D01*
X1235442D01*
Y738348D01*
X1237109D01*
Y737514D02*
Y738348D01*
Y737514D02*
X1237942D01*
Y735848D02*
Y737514D01*
X1237109Y735848D02*
X1237942D01*
X1237109Y735014D02*
Y735848D01*
X1235442Y735014D02*
X1237109D01*
X1235442D02*
Y735848D01*
X1227009Y732248D02*
X1227842D01*
X1227009D02*
Y733914D01*
X1227842D01*
Y734748D01*
X1229509D01*
Y733914D02*
Y734748D01*
Y733914D02*
X1230342D01*
Y732248D02*
Y733914D01*
X1229509Y732248D02*
X1230342D01*
X1229509Y731414D02*
Y732248D01*
X1227842Y731414D02*
X1229509D01*
X1227842D02*
Y732248D01*
X1244609Y736848D02*
X1245442D01*
X1244609D02*
Y738514D01*
X1245442D01*
Y739348D01*
X1247109D01*
Y738514D02*
Y739348D01*
Y738514D02*
X1247942D01*
Y736848D02*
Y738514D01*
X1247109Y736848D02*
X1247942D01*
X1247109Y736014D02*
Y736848D01*
X1245442Y736014D02*
X1247109D01*
X1245442D02*
Y736848D01*
X1241109Y734048D02*
X1241942D01*
X1241109D02*
Y735714D01*
X1241942D01*
Y736548D01*
X1243609D01*
Y735714D02*
Y736548D01*
Y735714D02*
X1244442D01*
Y734048D02*
Y735714D01*
X1243609Y734048D02*
X1244442D01*
X1243609Y733214D02*
Y734048D01*
X1241942Y733214D02*
X1243609D01*
X1241942D02*
Y734048D01*
X1242409Y735248D02*
X1243242D01*
X1242409D02*
Y736914D01*
X1243242D01*
Y737748D01*
X1244909D01*
Y736914D02*
Y737748D01*
Y736914D02*
X1245742D01*
Y735248D02*
Y736914D01*
X1244909Y735248D02*
X1245742D01*
X1244909Y734414D02*
Y735248D01*
X1243242Y734414D02*
X1244909D01*
X1243242D02*
Y735248D01*
X1234460Y733892D02*
X1235293D01*
X1234460D02*
Y735559D01*
X1235293D01*
Y736392D01*
X1236960D01*
Y735559D02*
Y736392D01*
Y735559D02*
X1237793D01*
Y733892D02*
Y735559D01*
X1236960Y733892D02*
X1237793D01*
X1236960Y733059D02*
Y733892D01*
X1235293Y733059D02*
X1236960D01*
X1235293D02*
Y733892D01*
X1232809Y741048D02*
X1233642D01*
X1232809D02*
Y742714D01*
X1233642D01*
Y743548D01*
X1235309D01*
Y742714D02*
Y743548D01*
Y742714D02*
X1236142D01*
Y741048D02*
Y742714D01*
X1235309Y741048D02*
X1236142D01*
X1235309Y740214D02*
Y741048D01*
X1233642Y740214D02*
X1235309D01*
X1233642D02*
Y741048D01*
X1236409Y743148D02*
X1237242D01*
X1236409D02*
Y744814D01*
X1237242D01*
Y745648D01*
X1238909D01*
Y744814D02*
Y745648D01*
Y744814D02*
X1239742D01*
Y743148D02*
Y744814D01*
X1238909Y743148D02*
X1239742D01*
X1238909Y742314D02*
Y743148D01*
X1237242Y742314D02*
X1238909D01*
X1237242D02*
Y743148D01*
X1090209Y776548D02*
X1091042D01*
X1090209D02*
Y778214D01*
X1091042D01*
Y779048D01*
X1092709D01*
Y778214D02*
Y779048D01*
Y778214D02*
X1093542D01*
Y776548D02*
Y778214D01*
X1092709Y776548D02*
X1093542D01*
X1092709Y775714D02*
Y776548D01*
X1091042Y775714D02*
X1092709D01*
X1091042D02*
Y776548D01*
X1097809Y774348D02*
X1098642D01*
X1097809D02*
Y776014D01*
X1098642D01*
Y776848D01*
X1100309D01*
Y776014D02*
Y776848D01*
Y776014D02*
X1101142D01*
Y774348D02*
Y776014D01*
X1100309Y774348D02*
X1101142D01*
X1100309Y773514D02*
Y774348D01*
X1098642Y773514D02*
X1100309D01*
X1098642D02*
Y774348D01*
X1244653Y791948D02*
X1245486D01*
X1244653D02*
Y793614D01*
X1245486D01*
Y794448D01*
X1247153D01*
Y793614D02*
Y794448D01*
Y793614D02*
X1247986D01*
Y791948D02*
Y793614D01*
X1247153Y791948D02*
X1247986D01*
X1247153Y791114D02*
Y791948D01*
X1245486Y791114D02*
X1247153D01*
X1245486D02*
Y791948D01*
X1250165D02*
X1250998D01*
X1250165D02*
Y793614D01*
X1250998D01*
Y794448D01*
X1252665D01*
Y793614D02*
Y794448D01*
Y793614D02*
X1253498D01*
Y791948D02*
Y793614D01*
X1252665Y791948D02*
X1253498D01*
X1252665Y791114D02*
Y791948D01*
X1250998Y791114D02*
X1252665D01*
X1250998D02*
Y791948D01*
X1107609Y799148D02*
X1108442D01*
X1107609D02*
Y800814D01*
X1108442D01*
Y801648D01*
X1110109D01*
Y800814D02*
Y801648D01*
Y800814D02*
X1110942D01*
Y799148D02*
Y800814D01*
X1110109Y799148D02*
X1110942D01*
X1110109Y798314D02*
Y799148D01*
X1108442Y798314D02*
X1110109D01*
X1108442D02*
Y799148D01*
X1095809Y798448D02*
X1096642D01*
X1095809D02*
Y800114D01*
X1096642D01*
Y800948D01*
X1098309D01*
Y800114D02*
Y800948D01*
Y800114D02*
X1099142D01*
Y798448D02*
Y800114D01*
X1098309Y798448D02*
X1099142D01*
X1098309Y797614D02*
Y798448D01*
X1096642Y797614D02*
X1098309D01*
X1096642D02*
Y798448D01*
X1100209D02*
X1101042D01*
X1100209D02*
Y800114D01*
X1101042D01*
Y800948D01*
X1102709D01*
Y800114D02*
Y800948D01*
Y800114D02*
X1103542D01*
Y798448D02*
Y800114D01*
X1102709Y798448D02*
X1103542D01*
X1102709Y797614D02*
Y798448D01*
X1101042Y797614D02*
X1102709D01*
X1101042D02*
Y798448D01*
X1104309Y802148D02*
X1105142D01*
X1104309D02*
Y803814D01*
X1105142D01*
Y804648D01*
X1106809D01*
Y803814D02*
Y804648D01*
Y803814D02*
X1107642D01*
Y802148D02*
Y803814D01*
X1106809Y802148D02*
X1107642D01*
X1106809Y801314D02*
Y802148D01*
X1105142Y801314D02*
X1106809D01*
X1105142D02*
Y802148D01*
X1095409Y801948D02*
X1096242D01*
X1095409D02*
Y803614D01*
X1096242D01*
Y804448D01*
X1097909D01*
Y803614D02*
Y804448D01*
Y803614D02*
X1098742D01*
Y801948D02*
Y803614D01*
X1097909Y801948D02*
X1098742D01*
X1097909Y801114D02*
Y801948D01*
X1096242Y801114D02*
X1097909D01*
X1096242D02*
Y801948D01*
X1091509Y798448D02*
X1092342D01*
X1091509D02*
Y800114D01*
X1092342D01*
Y800948D01*
X1094009D01*
Y800114D02*
Y800948D01*
Y800114D02*
X1094842D01*
Y798448D02*
Y800114D01*
X1094009Y798448D02*
X1094842D01*
X1094009Y797614D02*
Y798448D01*
X1092342Y797614D02*
X1094009D01*
X1092342D02*
Y798448D01*
X1084009Y795548D02*
X1084842D01*
X1084009D02*
Y797214D01*
X1084842D01*
Y798048D01*
X1086509D01*
Y797214D02*
Y798048D01*
Y797214D02*
X1087342D01*
Y795548D02*
Y797214D01*
X1086509Y795548D02*
X1087342D01*
X1086509Y794714D02*
Y795548D01*
X1084842Y794714D02*
X1086509D01*
X1084842D02*
Y795548D01*
X1086609Y796148D02*
X1087442D01*
X1086609D02*
Y797814D01*
X1087442D01*
Y798648D01*
X1089109D01*
Y797814D02*
Y798648D01*
Y797814D02*
X1089942D01*
Y796148D02*
Y797814D01*
X1089109Y796148D02*
X1089942D01*
X1089109Y795314D02*
Y796148D01*
X1087442Y795314D02*
X1089109D01*
X1087442D02*
Y796148D01*
X1087009Y801948D02*
X1087842D01*
X1087009D02*
Y803614D01*
X1087842D01*
Y804448D01*
X1089509D01*
Y803614D02*
Y804448D01*
Y803614D02*
X1090342D01*
Y801948D02*
Y803614D01*
X1089509Y801948D02*
X1090342D01*
X1089509Y801114D02*
Y801948D01*
X1087842Y801114D02*
X1089509D01*
X1087842D02*
Y801948D01*
X1086309Y804448D02*
X1087142D01*
X1086309D02*
Y806114D01*
X1087142D01*
Y806948D01*
X1088809D01*
Y806114D02*
Y806948D01*
Y806114D02*
X1089642D01*
Y804448D02*
Y806114D01*
X1088809Y804448D02*
X1089642D01*
X1088809Y803614D02*
Y804448D01*
X1087142Y803614D02*
X1088809D01*
X1087142D02*
Y804448D01*
X1083809Y804748D02*
X1084642D01*
X1083809D02*
Y806414D01*
X1084642D01*
Y807248D01*
X1086309D01*
Y806414D02*
Y807248D01*
Y806414D02*
X1087142D01*
Y804748D02*
Y806414D01*
X1086309Y804748D02*
X1087142D01*
X1086309Y803914D02*
Y804748D01*
X1084642Y803914D02*
X1086309D01*
X1084642D02*
Y804748D01*
X1081609Y796148D02*
X1082442D01*
X1081609D02*
Y797814D01*
X1082442D01*
Y798648D01*
X1084109D01*
Y797814D02*
Y798648D01*
Y797814D02*
X1084942D01*
Y796148D02*
Y797814D01*
X1084109Y796148D02*
X1084942D01*
X1084109Y795314D02*
Y796148D01*
X1082442Y795314D02*
X1084109D01*
X1082442D02*
Y796148D01*
X1081509Y799048D02*
X1082342D01*
X1081509D02*
Y800714D01*
X1082342D01*
Y801548D01*
X1084009D01*
Y800714D02*
Y801548D01*
Y800714D02*
X1084842D01*
Y799048D02*
Y800714D01*
X1084009Y799048D02*
X1084842D01*
X1084009Y798214D02*
Y799048D01*
X1082342Y798214D02*
X1084009D01*
X1082342D02*
Y799048D01*
X1081509Y801748D02*
X1082342D01*
X1081509D02*
Y803414D01*
X1082342D01*
Y804248D01*
X1084009D01*
Y803414D02*
Y804248D01*
Y803414D02*
X1084842D01*
Y801748D02*
Y803414D01*
X1084009Y801748D02*
X1084842D01*
X1084009Y800914D02*
Y801748D01*
X1082342Y800914D02*
X1084009D01*
X1082342D02*
Y801748D01*
X1081509Y804048D02*
X1082342D01*
X1081509D02*
Y805714D01*
X1082342D01*
Y806548D01*
X1084009D01*
Y805714D02*
Y806548D01*
Y805714D02*
X1084842D01*
Y804048D02*
Y805714D01*
X1084009Y804048D02*
X1084842D01*
X1084009Y803214D02*
Y804048D01*
X1082342Y803214D02*
X1084009D01*
X1082342D02*
Y804048D01*
X1076809Y799048D02*
X1077642D01*
X1076809D02*
Y800714D01*
X1077642D01*
Y801548D01*
X1079309D01*
Y800714D02*
Y801548D01*
Y800714D02*
X1080142D01*
Y799048D02*
Y800714D01*
X1079309Y799048D02*
X1080142D01*
X1079309Y798214D02*
Y799048D01*
X1077642Y798214D02*
X1079309D01*
X1077642D02*
Y799048D01*
X1076809Y801748D02*
X1077642D01*
X1076809D02*
Y803414D01*
X1077642D01*
Y804248D01*
X1079309D01*
Y803414D02*
Y804248D01*
Y803414D02*
X1080142D01*
Y801748D02*
Y803414D01*
X1079309Y801748D02*
X1080142D01*
X1079309Y800914D02*
Y801748D01*
X1077642Y800914D02*
X1079309D01*
X1077642D02*
Y801748D01*
X1076009Y804848D02*
X1076842D01*
X1076009D02*
Y806514D01*
X1076842D01*
Y807348D01*
X1078509D01*
Y806514D02*
Y807348D01*
Y806514D02*
X1079342D01*
Y804848D02*
Y806514D01*
X1078509Y804848D02*
X1079342D01*
X1078509Y804014D02*
Y804848D01*
X1076842Y804014D02*
X1078509D01*
X1076842D02*
Y804848D01*
X1071309Y803348D02*
X1072142D01*
X1071309D02*
Y805014D01*
X1072142D01*
Y805848D01*
X1073809D01*
Y805014D02*
Y805848D01*
Y805014D02*
X1074642D01*
Y803348D02*
Y805014D01*
X1073809Y803348D02*
X1074642D01*
X1073809Y802514D02*
Y803348D01*
X1072142Y802514D02*
X1073809D01*
X1072142D02*
Y803348D01*
X1071309Y800948D02*
X1072142D01*
X1071309D02*
Y802614D01*
X1072142D01*
Y803448D01*
X1073809D01*
Y802614D02*
Y803448D01*
Y802614D02*
X1074642D01*
Y800948D02*
Y802614D01*
X1073809Y800948D02*
X1074642D01*
X1073809Y800114D02*
Y800948D01*
X1072142Y800114D02*
X1073809D01*
X1072142D02*
Y800948D01*
X1071309Y798548D02*
X1072142D01*
X1071309D02*
Y800214D01*
X1072142D01*
Y801048D01*
X1073809D01*
Y800214D02*
Y801048D01*
Y800214D02*
X1074642D01*
Y798548D02*
Y800214D01*
X1073809Y798548D02*
X1074642D01*
X1073809Y797714D02*
Y798548D01*
X1072142Y797714D02*
X1073809D01*
X1072142D02*
Y798548D01*
X1071809Y795948D02*
X1072642D01*
X1071809D02*
Y797614D01*
X1072642D01*
Y798448D01*
X1074309D01*
Y797614D02*
Y798448D01*
Y797614D02*
X1075142D01*
Y795948D02*
Y797614D01*
X1074309Y795948D02*
X1075142D01*
X1074309Y795114D02*
Y795948D01*
X1072642Y795114D02*
X1074309D01*
X1072642D02*
Y795948D01*
X1074209Y795448D02*
X1075042D01*
X1074209D02*
Y797114D01*
X1075042D01*
Y797948D01*
X1076709D01*
Y797114D02*
Y797948D01*
Y797114D02*
X1077542D01*
Y795448D02*
Y797114D01*
X1076709Y795448D02*
X1077542D01*
X1076709Y794614D02*
Y795448D01*
X1075042Y794614D02*
X1076709D01*
X1075042D02*
Y795448D01*
X1076509Y796048D02*
X1077342D01*
X1076509D02*
Y797714D01*
X1077342D01*
Y798548D01*
X1079009D01*
Y797714D02*
Y798548D01*
Y797714D02*
X1079842D01*
Y796048D02*
Y797714D01*
X1079009Y796048D02*
X1079842D01*
X1079009Y795214D02*
Y796048D01*
X1077342Y795214D02*
X1079009D01*
X1077342D02*
Y796048D01*
X1072309Y808948D02*
X1073142D01*
X1072309D02*
Y810614D01*
X1073142D01*
Y811448D01*
X1074809D01*
Y810614D02*
Y811448D01*
Y810614D02*
X1075642D01*
Y808948D02*
Y810614D01*
X1074809Y808948D02*
X1075642D01*
X1074809Y808114D02*
Y808948D01*
X1073142Y808114D02*
X1074809D01*
X1073142D02*
Y808948D01*
X1077409Y804848D02*
X1078242D01*
X1077409D02*
Y806514D01*
X1078242D01*
Y807348D01*
X1079909D01*
Y806514D02*
Y807348D01*
Y806514D02*
X1080742D01*
Y804848D02*
Y806514D01*
X1079909Y804848D02*
X1080742D01*
X1079909Y804014D02*
Y804848D01*
X1078242Y804014D02*
X1079909D01*
X1078242D02*
Y804848D01*
X1079609Y807148D02*
X1080442D01*
X1079609D02*
Y808814D01*
X1080442D01*
Y809648D01*
X1082109D01*
Y808814D02*
Y809648D01*
Y808814D02*
X1082942D01*
Y807148D02*
Y808814D01*
X1082109Y807148D02*
X1082942D01*
X1082109Y806314D02*
Y807148D01*
X1080442Y806314D02*
X1082109D01*
X1080442D02*
Y807148D01*
X1076909Y809248D02*
X1077742D01*
X1076909D02*
Y810914D01*
X1077742D01*
Y811748D01*
X1079409D01*
Y810914D02*
Y811748D01*
Y810914D02*
X1080242D01*
Y809248D02*
Y810914D01*
X1079409Y809248D02*
X1080242D01*
X1079409Y808414D02*
Y809248D01*
X1077742Y808414D02*
X1079409D01*
X1077742D02*
Y809248D01*
X1071809Y806748D02*
X1072642D01*
X1071809D02*
Y808414D01*
X1072642D01*
Y809248D01*
X1074309D01*
Y808414D02*
Y809248D01*
Y808414D02*
X1075142D01*
Y806748D02*
Y808414D01*
X1074309Y806748D02*
X1075142D01*
X1074309Y805914D02*
Y806748D01*
X1072642Y805914D02*
X1074309D01*
X1072642D02*
Y806748D01*
X1074309Y782848D02*
X1075142D01*
X1074309D02*
Y784514D01*
X1075142D01*
Y785348D01*
X1076809D01*
Y784514D02*
Y785348D01*
Y784514D02*
X1077642D01*
Y782848D02*
Y784514D01*
X1076809Y782848D02*
X1077642D01*
X1076809Y782014D02*
Y782848D01*
X1075142Y782014D02*
X1076809D01*
X1075142D02*
Y782848D01*
X1071209Y785148D02*
X1072042D01*
X1071209D02*
Y786814D01*
X1072042D01*
Y787648D01*
X1073709D01*
Y786814D02*
Y787648D01*
Y786814D02*
X1074542D01*
Y785148D02*
Y786814D01*
X1073709Y785148D02*
X1074542D01*
X1073709Y784314D02*
Y785148D01*
X1072042Y784314D02*
X1073709D01*
X1072042D02*
Y785148D01*
X1071309Y789348D02*
X1072142D01*
X1071309D02*
Y791014D01*
X1072142D01*
Y791848D01*
X1073809D01*
Y791014D02*
Y791848D01*
Y791014D02*
X1074642D01*
Y789348D02*
Y791014D01*
X1073809Y789348D02*
X1074642D01*
X1073809Y788514D02*
Y789348D01*
X1072142Y788514D02*
X1073809D01*
X1072142D02*
Y789348D01*
X1071709Y791548D02*
X1072542D01*
X1071709D02*
Y793214D01*
X1072542D01*
Y794048D01*
X1074209D01*
Y793214D02*
Y794048D01*
Y793214D02*
X1075042D01*
Y791548D02*
Y793214D01*
X1074209Y791548D02*
X1075042D01*
X1074209Y790714D02*
Y791548D01*
X1072542Y790714D02*
X1074209D01*
X1072542D02*
Y791548D01*
X1076609Y791648D02*
X1077442D01*
X1076609D02*
Y793314D01*
X1077442D01*
Y794148D01*
X1079109D01*
Y793314D02*
Y794148D01*
Y793314D02*
X1079942D01*
Y791648D02*
Y793314D01*
X1079109Y791648D02*
X1079942D01*
X1079109Y790814D02*
Y791648D01*
X1077442Y790814D02*
X1079109D01*
X1077442D02*
Y791648D01*
X1079409Y788948D02*
X1080242D01*
X1079409D02*
Y790614D01*
X1080242D01*
Y791448D01*
X1081909D01*
Y790614D02*
Y791448D01*
Y790614D02*
X1082742D01*
Y788948D02*
Y790614D01*
X1081909Y788948D02*
X1082742D01*
X1081909Y788114D02*
Y788948D01*
X1080242Y788114D02*
X1081909D01*
X1080242D02*
Y788948D01*
X1081209Y789848D02*
X1082042D01*
X1081209D02*
Y791514D01*
X1082042D01*
Y792348D01*
X1083709D01*
Y791514D02*
Y792348D01*
Y791514D02*
X1084542D01*
Y789848D02*
Y791514D01*
X1083709Y789848D02*
X1084542D01*
X1083709Y789014D02*
Y789848D01*
X1082042Y789014D02*
X1083709D01*
X1082042D02*
Y789848D01*
X1081709Y791548D02*
X1082542D01*
X1081709D02*
Y793214D01*
X1082542D01*
Y794048D01*
X1084209D01*
Y793214D02*
Y794048D01*
Y793214D02*
X1085042D01*
Y791548D02*
Y793214D01*
X1084209Y791548D02*
X1085042D01*
X1084209Y790714D02*
Y791548D01*
X1082542Y790714D02*
X1084209D01*
X1082542D02*
Y791548D01*
X1084109Y792048D02*
X1084942D01*
X1084109D02*
Y793714D01*
X1084942D01*
Y794548D01*
X1086609D01*
Y793714D02*
Y794548D01*
Y793714D02*
X1087442D01*
Y792048D02*
Y793714D01*
X1086609Y792048D02*
X1087442D01*
X1086609Y791214D02*
Y792048D01*
X1084942Y791214D02*
X1086609D01*
X1084942D02*
Y792048D01*
X1086709Y791348D02*
X1087542D01*
X1086709D02*
Y793014D01*
X1087542D01*
Y793848D01*
X1089209D01*
Y793014D02*
Y793848D01*
Y793014D02*
X1090042D01*
Y791348D02*
Y793014D01*
X1089209Y791348D02*
X1090042D01*
X1089209Y790514D02*
Y791348D01*
X1087542Y790514D02*
X1089209D01*
X1087542D02*
Y791348D01*
X1087009Y788748D02*
X1087842D01*
X1087009D02*
Y790414D01*
X1087842D01*
Y791248D01*
X1089509D01*
Y790414D02*
Y791248D01*
Y790414D02*
X1090342D01*
Y788748D02*
Y790414D01*
X1089509Y788748D02*
X1090342D01*
X1089509Y787914D02*
Y788748D01*
X1087842Y787914D02*
X1089509D01*
X1087842D02*
Y788748D01*
X1087009Y785548D02*
X1087842D01*
X1087009D02*
Y787214D01*
X1087842D01*
Y788048D01*
X1089509D01*
Y787214D02*
Y788048D01*
Y787214D02*
X1090342D01*
Y785548D02*
Y787214D01*
X1089509Y785548D02*
X1090342D01*
X1089509Y784714D02*
Y785548D01*
X1087842Y784714D02*
X1089509D01*
X1087842D02*
Y785548D01*
X1086609Y783348D02*
X1087442D01*
X1086609D02*
Y785014D01*
X1087442D01*
Y785848D01*
X1089109D01*
Y785014D02*
Y785848D01*
Y785014D02*
X1089942D01*
Y783348D02*
Y785014D01*
X1089109Y783348D02*
X1089942D01*
X1089109Y782514D02*
Y783348D01*
X1087442Y782514D02*
X1089109D01*
X1087442D02*
Y783348D01*
X1102209Y774648D02*
X1103042D01*
X1102209D02*
Y776314D01*
X1103042D01*
Y777148D01*
X1104709D01*
Y776314D02*
Y777148D01*
Y776314D02*
X1105542D01*
Y774648D02*
Y776314D01*
X1104709Y774648D02*
X1105542D01*
X1104709Y773814D02*
Y774648D01*
X1103042Y773814D02*
X1104709D01*
X1103042D02*
Y774648D01*
X1091609Y776148D02*
X1092442D01*
X1091609D02*
Y777814D01*
X1092442D01*
Y778648D01*
X1094109D01*
Y777814D02*
Y778648D01*
Y777814D02*
X1094942D01*
Y776148D02*
Y777814D01*
X1094109Y776148D02*
X1094942D01*
X1094109Y775314D02*
Y776148D01*
X1092442Y775314D02*
X1094109D01*
X1092442D02*
Y776148D01*
X1098109Y770448D02*
X1098942D01*
X1098109D02*
Y772114D01*
X1098942D01*
Y772948D01*
X1100609D01*
Y772114D02*
Y772948D01*
Y772114D02*
X1101442D01*
Y770448D02*
Y772114D01*
X1100609Y770448D02*
X1101442D01*
X1100609Y769614D02*
Y770448D01*
X1098942Y769614D02*
X1100609D01*
X1098942D02*
Y770448D01*
X1098109Y769148D02*
X1098942D01*
X1098109D02*
Y770814D01*
X1098942D01*
Y771648D01*
X1100609D01*
Y770814D02*
Y771648D01*
Y770814D02*
X1101442D01*
Y769148D02*
Y770814D01*
X1100609Y769148D02*
X1101442D01*
X1100609Y768314D02*
Y769148D01*
X1098942Y768314D02*
X1100609D01*
X1098942D02*
Y769148D01*
X1098009Y772448D02*
X1098842D01*
X1098009D02*
Y774114D01*
X1098842D01*
Y774948D01*
X1100509D01*
Y774114D02*
Y774948D01*
Y774114D02*
X1101342D01*
Y772448D02*
Y774114D01*
X1100509Y772448D02*
X1101342D01*
X1100509Y771614D02*
Y772448D01*
X1098842Y771614D02*
X1100509D01*
X1098842D02*
Y772448D01*
X1102009D02*
X1102842D01*
X1102009D02*
Y774114D01*
X1102842D01*
Y774948D01*
X1104509D01*
Y774114D02*
Y774948D01*
Y774114D02*
X1105342D01*
Y772448D02*
Y774114D01*
X1104509Y772448D02*
X1105342D01*
X1104509Y771614D02*
Y772448D01*
X1102842Y771614D02*
X1104509D01*
X1102842D02*
Y772448D01*
X1103509D02*
X1104342D01*
X1103509D02*
Y774114D01*
X1104342D01*
Y774948D01*
X1106009D01*
Y774114D02*
Y774948D01*
Y774114D02*
X1106842D01*
Y772448D02*
Y774114D01*
X1106009Y772448D02*
X1106842D01*
X1106009Y771614D02*
Y772448D01*
X1104342Y771614D02*
X1106009D01*
X1104342D02*
Y772448D01*
X1106009D02*
X1106842D01*
X1106009D02*
Y774114D01*
X1106842D01*
Y774948D01*
X1108509D01*
Y774114D02*
Y774948D01*
Y774114D02*
X1109342D01*
Y772448D02*
Y774114D01*
X1108509Y772448D02*
X1109342D01*
X1108509Y771614D02*
Y772448D01*
X1106842Y771614D02*
X1108509D01*
X1106842D02*
Y772448D01*
X1094209Y760848D02*
X1095042D01*
X1094209D02*
Y762514D01*
X1095042D01*
Y763348D01*
X1096709D01*
Y762514D02*
Y763348D01*
Y762514D02*
X1097542D01*
Y760848D02*
Y762514D01*
X1096709Y760848D02*
X1097542D01*
X1096709Y760014D02*
Y760848D01*
X1095042Y760014D02*
X1096709D01*
X1095042D02*
Y760848D01*
X1097809Y760148D02*
X1098642D01*
X1097809D02*
Y761814D01*
X1098642D01*
Y762648D01*
X1100309D01*
Y761814D02*
Y762648D01*
Y761814D02*
X1101142D01*
Y760148D02*
Y761814D01*
X1100309Y760148D02*
X1101142D01*
X1100309Y759314D02*
Y760148D01*
X1098642Y759314D02*
X1100309D01*
X1098642D02*
Y760148D01*
X1098209Y757748D02*
X1099042D01*
X1098209D02*
Y759414D01*
X1099042D01*
Y760248D01*
X1100709D01*
Y759414D02*
Y760248D01*
Y759414D02*
X1101542D01*
Y757748D02*
Y759414D01*
X1100709Y757748D02*
X1101542D01*
X1100709Y756914D02*
Y757748D01*
X1099042Y756914D02*
X1100709D01*
X1099042D02*
Y757748D01*
X1120309Y758248D02*
X1121142D01*
X1120309D02*
Y759914D01*
X1121142D01*
Y760748D01*
X1122809D01*
Y759914D02*
Y760748D01*
Y759914D02*
X1123642D01*
Y758248D02*
Y759914D01*
X1122809Y758248D02*
X1123642D01*
X1122809Y757414D02*
Y758248D01*
X1121142Y757414D02*
X1122809D01*
X1121142D02*
Y758248D01*
X1123709D02*
X1124542D01*
X1123709D02*
Y759914D01*
X1124542D01*
Y760748D01*
X1126209D01*
Y759914D02*
Y760748D01*
Y759914D02*
X1127042D01*
Y758248D02*
Y759914D01*
X1126209Y758248D02*
X1127042D01*
X1126209Y757414D02*
Y758248D01*
X1124542Y757414D02*
X1126209D01*
X1124542D02*
Y758248D01*
X1126009Y758348D02*
X1126842D01*
X1126009D02*
Y760014D01*
X1126842D01*
Y760848D01*
X1128509D01*
Y760014D02*
Y760848D01*
Y760014D02*
X1129342D01*
Y758348D02*
Y760014D01*
X1128509Y758348D02*
X1129342D01*
X1128509Y757514D02*
Y758348D01*
X1126842Y757514D02*
X1128509D01*
X1126842D02*
Y758348D01*
X1123009Y762848D02*
X1123842D01*
X1123009D02*
Y764514D01*
X1123842D01*
Y765348D01*
X1125509D01*
Y764514D02*
Y765348D01*
Y764514D02*
X1126342D01*
Y762848D02*
Y764514D01*
X1125509Y762848D02*
X1126342D01*
X1125509Y762014D02*
Y762848D01*
X1123842Y762014D02*
X1125509D01*
X1123842D02*
Y762848D01*
X1119809Y762148D02*
X1120642D01*
X1119809D02*
Y763814D01*
X1120642D01*
Y764648D01*
X1122309D01*
Y763814D02*
Y764648D01*
Y763814D02*
X1123142D01*
Y762148D02*
Y763814D01*
X1122309Y762148D02*
X1123142D01*
X1122309Y761314D02*
Y762148D01*
X1120642Y761314D02*
X1122309D01*
X1120642D02*
Y762148D01*
X1121809Y778348D02*
X1122642D01*
X1121809D02*
Y780014D01*
X1122642D01*
Y780848D01*
X1124309D01*
Y780014D02*
Y780848D01*
Y780014D02*
X1125142D01*
Y778348D02*
Y780014D01*
X1124309Y778348D02*
X1125142D01*
X1124309Y777514D02*
Y778348D01*
X1122642Y777514D02*
X1124309D01*
X1122642D02*
Y778348D01*
X1253609Y750648D02*
X1254442D01*
X1253609D02*
Y752314D01*
X1254442D01*
Y753148D01*
X1256109D01*
Y752314D02*
Y753148D01*
Y752314D02*
X1256942D01*
Y750648D02*
Y752314D01*
X1256109Y750648D02*
X1256942D01*
X1256109Y749814D02*
Y750648D01*
X1254442Y749814D02*
X1256109D01*
X1254442D02*
Y750648D01*
X1264009Y744848D02*
X1264842D01*
X1264009D02*
Y746514D01*
X1264842D01*
Y747348D01*
X1266509D01*
Y746514D02*
Y747348D01*
Y746514D02*
X1267342D01*
Y744848D02*
Y746514D01*
X1266509Y744848D02*
X1267342D01*
X1266509Y744014D02*
Y744848D01*
X1264842Y744014D02*
X1266509D01*
X1264842D02*
Y744848D01*
X1243309Y778748D02*
X1244142D01*
X1243309D02*
Y780414D01*
X1244142D01*
Y781248D01*
X1245809D01*
Y780414D02*
Y781248D01*
Y780414D02*
X1246642D01*
Y778748D02*
Y780414D01*
X1245809Y778748D02*
X1246642D01*
X1245809Y777914D02*
Y778748D01*
X1244142Y777914D02*
X1245809D01*
X1244142D02*
Y778748D01*
X1243009Y775148D02*
X1243842D01*
X1243009D02*
Y776814D01*
X1243842D01*
Y777648D01*
X1245509D01*
Y776814D02*
Y777648D01*
Y776814D02*
X1246342D01*
Y775148D02*
Y776814D01*
X1245509Y775148D02*
X1246342D01*
X1245509Y774314D02*
Y775148D01*
X1243842Y774314D02*
X1245509D01*
X1243842D02*
Y775148D01*
X1250309Y774648D02*
X1251142D01*
X1250309D02*
Y776314D01*
X1251142D01*
Y777148D01*
X1252809D01*
Y776314D02*
Y777148D01*
Y776314D02*
X1253642D01*
Y774648D02*
Y776314D01*
X1252809Y774648D02*
X1253642D01*
X1252809Y773814D02*
Y774648D01*
X1251142Y773814D02*
X1252809D01*
X1251142D02*
Y774648D01*
X1243809Y782948D02*
X1244642D01*
X1243809D02*
Y784614D01*
X1244642D01*
Y785448D01*
X1246309D01*
Y784614D02*
Y785448D01*
Y784614D02*
X1247142D01*
Y782948D02*
Y784614D01*
X1246309Y782948D02*
X1247142D01*
X1246309Y782114D02*
Y782948D01*
X1244642Y782114D02*
X1246309D01*
X1244642D02*
Y782948D01*
X1242309Y792448D02*
X1243142D01*
X1242309D02*
Y794114D01*
X1243142D01*
Y794948D01*
X1244809D01*
Y794114D02*
Y794948D01*
Y794114D02*
X1245642D01*
Y792448D02*
Y794114D01*
X1244809Y792448D02*
X1245642D01*
X1244809Y791614D02*
Y792448D01*
X1243142Y791614D02*
X1244809D01*
X1243142D02*
Y792448D01*
X1241909Y790048D02*
X1242742D01*
X1241909D02*
Y791714D01*
X1242742D01*
Y792548D01*
X1244409D01*
Y791714D02*
Y792548D01*
Y791714D02*
X1245242D01*
Y790048D02*
Y791714D01*
X1244409Y790048D02*
X1245242D01*
X1244409Y789214D02*
Y790048D01*
X1242742Y789214D02*
X1244409D01*
X1242742D02*
Y790048D01*
X1243709Y787548D02*
X1244542D01*
X1243709D02*
Y789214D01*
X1244542D01*
Y790048D01*
X1246209D01*
Y789214D02*
Y790048D01*
Y789214D02*
X1247042D01*
Y787548D02*
Y789214D01*
X1246209Y787548D02*
X1247042D01*
X1246209Y786714D02*
Y787548D01*
X1244542Y786714D02*
X1246209D01*
X1244542D02*
Y787548D01*
X1252509Y798648D02*
X1253342D01*
X1252509D02*
Y800314D01*
X1253342D01*
Y801148D01*
X1255009D01*
Y800314D02*
Y801148D01*
Y800314D02*
X1255842D01*
Y798648D02*
Y800314D01*
X1255009Y798648D02*
X1255842D01*
X1255009Y797814D02*
Y798648D01*
X1253342Y797814D02*
X1255009D01*
X1253342D02*
Y798648D01*
X1250009Y805048D02*
X1250842D01*
X1250009D02*
Y806714D01*
X1250842D01*
Y807548D01*
X1252509D01*
Y806714D02*
Y807548D01*
Y806714D02*
X1253342D01*
Y805048D02*
Y806714D01*
X1252509Y805048D02*
X1253342D01*
X1252509Y804214D02*
Y805048D01*
X1250842Y804214D02*
X1252509D01*
X1250842D02*
Y805048D01*
X1247409Y798748D02*
X1248242D01*
X1247409D02*
Y800414D01*
X1248242D01*
Y801248D01*
X1249909D01*
Y800414D02*
Y801248D01*
Y800414D02*
X1250742D01*
Y798748D02*
Y800414D01*
X1249909Y798748D02*
X1250742D01*
X1249909Y797914D02*
Y798748D01*
X1248242Y797914D02*
X1249909D01*
X1248242D02*
Y798748D01*
X1233809Y800948D02*
X1234642D01*
X1233809D02*
Y802614D01*
X1234642D01*
Y803448D01*
X1236309D01*
Y802614D02*
Y803448D01*
Y802614D02*
X1237142D01*
Y800948D02*
Y802614D01*
X1236309Y800948D02*
X1237142D01*
X1236309Y800114D02*
Y800948D01*
X1234642Y800114D02*
X1236309D01*
X1234642D02*
Y800948D01*
X1210109Y801048D02*
X1210942D01*
X1210109D02*
Y802714D01*
X1210942D01*
Y803548D01*
X1212609D01*
Y802714D02*
Y803548D01*
Y802714D02*
X1213442D01*
Y801048D02*
Y802714D01*
X1212609Y801048D02*
X1213442D01*
X1212609Y800214D02*
Y801048D01*
X1210942Y800214D02*
X1212609D01*
X1210942D02*
Y801048D01*
X1209409Y804448D02*
X1210242D01*
X1209409D02*
Y806114D01*
X1210242D01*
Y806948D01*
X1211909D01*
Y806114D02*
Y806948D01*
Y806114D02*
X1212742D01*
Y804448D02*
Y806114D01*
X1211909Y804448D02*
X1212742D01*
X1211909Y803614D02*
Y804448D01*
X1210242Y803614D02*
X1211909D01*
X1210242D02*
Y804448D01*
X1205409Y800948D02*
X1206242D01*
X1205409D02*
Y802614D01*
X1206242D01*
Y803448D01*
X1207909D01*
Y802614D02*
Y803448D01*
Y802614D02*
X1208742D01*
Y800948D02*
Y802614D01*
X1207909Y800948D02*
X1208742D01*
X1207909Y800114D02*
Y800948D01*
X1206242Y800114D02*
X1207909D01*
X1206242D02*
Y800948D01*
X1205509Y804448D02*
X1206342D01*
X1205509D02*
Y806114D01*
X1206342D01*
Y806948D01*
X1208009D01*
Y806114D02*
Y806948D01*
Y806114D02*
X1208842D01*
Y804448D02*
Y806114D01*
X1208009Y804448D02*
X1208842D01*
X1208009Y803614D02*
Y804448D01*
X1206342Y803614D02*
X1208009D01*
X1206342D02*
Y804448D01*
X1129909D02*
X1130742D01*
X1129909D02*
Y806114D01*
X1130742D01*
Y806948D01*
X1132409D01*
Y806114D02*
Y806948D01*
Y806114D02*
X1133242D01*
Y804448D02*
Y806114D01*
X1132409Y804448D02*
X1133242D01*
X1132409Y803614D02*
Y804448D01*
X1130742Y803614D02*
X1132409D01*
X1130742D02*
Y804448D01*
X1155594Y738965D02*
X1156427D01*
X1155594D02*
Y740632D01*
X1156427D01*
Y741465D01*
X1158094D01*
Y740632D02*
Y741465D01*
Y740632D02*
X1158927D01*
Y738965D02*
Y740632D01*
X1158094Y738965D02*
X1158927D01*
X1158094Y738132D02*
Y738965D01*
X1156427Y738132D02*
X1158094D01*
X1156427D02*
Y738965D01*
X1162424Y727378D02*
X1163257D01*
X1162424D02*
Y729044D01*
X1163257D01*
Y729878D01*
X1164924D01*
Y729044D02*
Y729878D01*
Y729044D02*
X1165757D01*
Y727378D02*
Y729044D01*
X1164924Y727378D02*
X1165757D01*
X1164924Y726545D02*
Y727378D01*
X1163257Y726545D02*
X1164924D01*
X1163257D02*
Y727378D01*
X1164520Y729544D02*
X1165354D01*
X1164520D02*
Y731211D01*
X1165354D01*
Y732045D01*
X1167020D01*
Y731211D02*
Y732045D01*
Y731211D02*
X1167854D01*
Y729544D02*
Y731211D01*
X1167020Y729544D02*
X1167854D01*
X1167020Y728711D02*
Y729544D01*
X1165354Y728711D02*
X1167020D01*
X1165354D02*
Y729544D01*
X1160468Y725450D02*
X1161302D01*
X1160468D02*
Y727117D01*
X1161302D01*
Y727950D01*
X1162968D01*
Y727117D02*
Y727950D01*
Y727117D02*
X1163802D01*
Y725450D02*
Y727117D01*
X1162968Y725450D02*
X1163802D01*
X1162968Y724617D02*
Y725450D01*
X1161302Y724617D02*
X1162968D01*
X1161302D02*
Y725450D01*
X1201924Y792136D02*
X1202757D01*
X1201924D02*
Y793803D01*
X1202757D01*
Y794636D01*
X1204424D01*
Y793803D02*
Y794636D01*
Y793803D02*
X1205257D01*
Y792136D02*
Y793803D01*
X1204424Y792136D02*
X1205257D01*
X1204424Y791303D02*
Y792136D01*
X1202757Y791303D02*
X1204424D01*
X1202757D02*
Y792136D01*
X1204609Y787448D02*
X1205442D01*
X1204609D02*
Y789114D01*
X1205442D01*
Y789948D01*
X1207109D01*
Y789114D02*
Y789948D01*
Y789114D02*
X1207942D01*
Y787448D02*
Y789114D01*
X1207109Y787448D02*
X1207942D01*
X1207109Y786614D02*
Y787448D01*
X1205442Y786614D02*
X1207109D01*
X1205442D02*
Y787448D01*
X1201762Y787473D02*
X1202595D01*
X1201762D02*
Y789140D01*
X1202595D01*
Y789973D01*
X1204262D01*
Y789140D02*
Y789973D01*
Y789140D02*
X1205095D01*
Y787473D02*
Y789140D01*
X1204262Y787473D02*
X1205095D01*
X1204262Y786639D02*
Y787473D01*
X1202595Y786639D02*
X1204262D01*
X1202595D02*
Y787473D01*
X1222255Y788060D02*
X1223088D01*
X1222255D02*
Y789727D01*
X1223088D01*
Y790560D01*
X1224755D01*
Y789727D02*
Y790560D01*
Y789727D02*
X1225588D01*
Y788060D02*
Y789727D01*
X1224755Y788060D02*
X1225588D01*
X1224755Y787227D02*
Y788060D01*
X1223088Y787227D02*
X1224755D01*
X1223088D02*
Y788060D01*
X1223809Y780848D02*
X1224642D01*
X1223809D02*
Y782514D01*
X1224642D01*
Y783348D01*
X1226309D01*
Y782514D02*
Y783348D01*
Y782514D02*
X1227142D01*
Y780848D02*
Y782514D01*
X1226309Y780848D02*
X1227142D01*
X1226309Y780014D02*
Y780848D01*
X1224642Y780014D02*
X1226309D01*
X1224642D02*
Y780848D01*
X1114609Y732048D02*
X1115442D01*
X1114609D02*
Y733714D01*
X1115442D01*
Y734548D01*
X1117109D01*
Y733714D02*
Y734548D01*
Y733714D02*
X1117942D01*
Y732048D02*
Y733714D01*
X1117109Y732048D02*
X1117942D01*
X1117109Y731214D02*
Y732048D01*
X1115442Y731214D02*
X1117109D01*
X1115442D02*
Y732048D01*
X1156709Y741748D02*
X1157542D01*
X1156709D02*
Y743414D01*
X1157542D01*
Y744248D01*
X1159209D01*
Y743414D02*
Y744248D01*
Y743414D02*
X1160042D01*
Y741748D02*
Y743414D01*
X1159209Y741748D02*
X1160042D01*
X1159209Y740914D02*
Y741748D01*
X1157542Y740914D02*
X1159209D01*
X1157542D02*
Y741748D01*
X1160509Y761548D02*
X1161342D01*
X1160509D02*
Y763214D01*
X1161342D01*
Y764048D01*
X1163009D01*
Y763214D02*
Y764048D01*
Y763214D02*
X1163842D01*
Y761548D02*
Y763214D01*
X1163009Y761548D02*
X1163842D01*
X1163009Y760714D02*
Y761548D01*
X1161342Y760714D02*
X1163009D01*
X1161342D02*
Y761548D01*
X1173019Y783348D02*
X1173852D01*
X1173019D02*
Y785014D01*
X1173852D01*
Y785848D01*
X1175519D01*
Y785014D02*
Y785848D01*
Y785014D02*
X1176352D01*
Y783348D02*
Y785014D01*
X1175519Y783348D02*
X1176352D01*
X1175519Y782514D02*
Y783348D01*
X1173852Y782514D02*
X1175519D01*
X1173852D02*
Y783348D01*
X1182603Y786507D02*
X1183436D01*
X1182603D02*
Y788173D01*
X1183436D01*
Y789007D01*
X1185103D01*
Y788173D02*
Y789007D01*
Y788173D02*
X1185937D01*
Y786507D02*
Y788173D01*
X1185103Y786507D02*
X1185937D01*
X1185103Y785673D02*
Y786507D01*
X1183436Y785673D02*
X1185103D01*
X1183436D02*
Y786507D01*
X1180980Y786326D02*
X1181813D01*
X1180980D02*
Y787992D01*
X1181813D01*
Y788826D01*
X1183480D01*
Y787992D02*
Y788826D01*
Y787992D02*
X1184313D01*
Y786326D02*
Y787992D01*
X1183480Y786326D02*
X1184313D01*
X1183480Y785493D02*
Y786326D01*
X1181813Y785493D02*
X1183480D01*
X1181813D02*
Y786326D01*
X1179007Y786361D02*
X1179840D01*
X1179007D02*
Y788027D01*
X1179840D01*
Y788860D01*
X1181507D01*
Y788027D02*
Y788860D01*
Y788027D02*
X1182340D01*
Y786361D02*
Y788027D01*
X1181507Y786361D02*
X1182340D01*
X1181507Y785527D02*
Y786361D01*
X1179840Y785527D02*
X1181507D01*
X1179840D02*
Y786361D01*
X1182547Y782393D02*
X1183380D01*
X1182547D02*
Y784060D01*
X1183380D01*
Y784893D01*
X1185047D01*
Y784060D02*
Y784893D01*
Y784060D02*
X1185880D01*
Y782393D02*
Y784060D01*
X1185047Y782393D02*
X1185880D01*
X1185047Y781560D02*
Y782393D01*
X1183380Y781560D02*
X1185047D01*
X1183380D02*
Y782393D01*
X1182642Y784977D02*
X1183475D01*
X1182642D02*
Y786644D01*
X1183475D01*
Y787477D01*
X1185142D01*
Y786644D02*
Y787477D01*
Y786644D02*
X1185975D01*
Y784977D02*
Y786644D01*
X1185142Y784977D02*
X1185975D01*
X1185142Y784144D02*
Y784977D01*
X1183475Y784144D02*
X1185142D01*
X1183475D02*
Y784977D01*
X1186204Y785945D02*
X1187038D01*
X1186204D02*
Y787612D01*
X1187038D01*
Y788445D01*
X1188704D01*
Y787612D02*
Y788445D01*
Y787612D02*
X1189538D01*
Y785945D02*
Y787612D01*
X1188704Y785945D02*
X1189538D01*
X1188704Y785112D02*
Y785945D01*
X1187038Y785112D02*
X1188704D01*
X1187038D02*
Y785945D01*
X1182584Y783660D02*
X1183417D01*
X1182584D02*
Y785327D01*
X1183417D01*
Y786160D01*
X1185084D01*
Y785327D02*
Y786160D01*
Y785327D02*
X1185917D01*
Y783660D02*
Y785327D01*
X1185084Y783660D02*
X1185917D01*
X1185084Y782827D02*
Y783660D01*
X1183417Y782827D02*
X1185084D01*
X1183417D02*
Y783660D01*
X1186204Y787688D02*
X1187038D01*
X1186204D02*
Y789354D01*
X1187038D01*
Y790188D01*
X1188704D01*
Y789354D02*
Y790188D01*
Y789354D02*
X1189538D01*
Y787688D02*
Y789354D01*
X1188704Y787688D02*
X1189538D01*
X1188704Y786854D02*
Y787688D01*
X1187038Y786854D02*
X1188704D01*
X1187038D02*
Y787688D01*
X1182584Y787843D02*
X1183417D01*
X1182584D02*
Y789509D01*
X1183417D01*
Y790343D01*
X1185084D01*
Y789509D02*
Y790343D01*
Y789509D02*
X1185917D01*
Y787843D02*
Y789509D01*
X1185084Y787843D02*
X1185917D01*
X1185084Y787009D02*
Y787843D01*
X1183417Y787009D02*
X1185084D01*
X1183417D02*
Y787843D01*
X1187446Y788682D02*
X1188280D01*
X1187446D02*
Y790348D01*
X1188280D01*
Y791182D01*
X1189946D01*
Y790348D02*
Y791182D01*
Y790348D02*
X1190780D01*
Y788682D02*
Y790348D01*
X1189946Y788682D02*
X1190780D01*
X1189946Y787848D02*
Y788682D01*
X1188280Y787848D02*
X1189946D01*
X1188280D02*
Y788682D01*
X1176823Y779162D02*
X1177656D01*
X1176823D02*
Y780829D01*
X1177656D01*
Y781662D01*
X1179323D01*
Y780829D02*
Y781662D01*
Y780829D02*
X1180156D01*
Y779162D02*
Y780829D01*
X1179323Y779162D02*
X1180156D01*
X1179323Y778329D02*
Y779162D01*
X1177656Y778329D02*
X1179323D01*
X1177656D02*
Y779162D01*
X1177626Y778231D02*
X1178459D01*
X1177626D02*
Y779898D01*
X1178459D01*
Y780731D01*
X1180126D01*
Y779898D02*
Y780731D01*
Y779898D02*
X1180959D01*
Y778231D02*
Y779898D01*
X1180126Y778231D02*
X1180959D01*
X1180126Y777398D02*
Y778231D01*
X1178459Y777398D02*
X1180126D01*
X1178459D02*
Y778231D01*
X1185764Y790559D02*
X1186597D01*
X1185764D02*
Y792226D01*
X1186597D01*
Y793059D01*
X1188264D01*
Y792226D02*
Y793059D01*
Y792226D02*
X1189097D01*
Y790559D02*
Y792226D01*
X1188264Y790559D02*
X1189097D01*
X1188264Y789726D02*
Y790559D01*
X1186597Y789726D02*
X1188264D01*
X1186597D02*
Y790559D01*
X1184700Y791724D02*
X1185533D01*
X1184700D02*
Y793391D01*
X1185533D01*
Y794224D01*
X1187200D01*
Y793391D02*
Y794224D01*
Y793391D02*
X1188033D01*
Y791724D02*
Y793391D01*
X1187200Y791724D02*
X1188033D01*
X1187200Y790891D02*
Y791724D01*
X1185533Y790891D02*
X1187200D01*
X1185533D02*
Y791724D01*
X1175915Y778214D02*
X1176748D01*
X1175915D02*
Y779881D01*
X1176748D01*
Y780714D01*
X1178415D01*
Y779881D02*
Y780714D01*
Y779881D02*
X1179249D01*
Y778214D02*
Y779881D01*
X1178415Y778214D02*
X1179249D01*
X1178415Y777381D02*
Y778214D01*
X1176748Y777381D02*
X1178415D01*
X1176748D02*
Y778214D01*
X1174584D02*
X1175418D01*
X1174584D02*
Y779881D01*
X1175418D01*
Y780714D01*
X1177085D01*
Y779881D02*
Y780714D01*
Y779881D02*
X1177918D01*
Y778214D02*
Y779881D01*
X1177085Y778214D02*
X1177918D01*
X1177085Y777381D02*
Y778214D01*
X1175418Y777381D02*
X1177085D01*
X1175418D02*
Y778214D01*
X1175221Y779220D02*
X1176055D01*
X1175221D02*
Y780887D01*
X1176055D01*
Y781720D01*
X1177721D01*
Y780887D02*
Y781720D01*
Y780887D02*
X1178555D01*
Y779220D02*
Y780887D01*
X1177721Y779220D02*
X1178555D01*
X1177721Y778387D02*
Y779220D01*
X1176055Y778387D02*
X1177721D01*
X1176055D02*
Y779220D01*
X1200366Y787486D02*
X1201199D01*
X1200366D02*
Y789153D01*
X1201199D01*
Y789986D01*
X1202866D01*
Y789153D02*
Y789986D01*
Y789153D02*
X1203699D01*
Y787486D02*
Y789153D01*
X1202866Y787486D02*
X1203699D01*
X1202866Y786653D02*
Y787486D01*
X1201199Y786653D02*
X1202866D01*
X1201199D02*
Y787486D01*
X1220909Y788748D02*
X1221742D01*
X1220909D02*
Y790414D01*
X1221742D01*
Y791248D01*
X1223409D01*
Y790414D02*
Y791248D01*
Y790414D02*
X1224242D01*
Y788748D02*
Y790414D01*
X1223409Y788748D02*
X1224242D01*
X1223409Y787914D02*
Y788748D01*
X1221742Y787914D02*
X1223409D01*
X1221742D02*
Y788748D01*
X1084909Y775648D02*
X1085742D01*
X1084909D02*
Y777314D01*
X1085742D01*
Y778148D01*
X1087409D01*
Y777314D02*
Y778148D01*
Y777314D02*
X1088242D01*
Y775648D02*
Y777314D01*
X1087409Y775648D02*
X1088242D01*
X1087409Y774814D02*
Y775648D01*
X1085742Y774814D02*
X1087409D01*
X1085742D02*
Y775648D01*
X1084709Y774448D02*
X1085542D01*
X1084709D02*
Y776114D01*
X1085542D01*
Y776948D01*
X1087209D01*
Y776114D02*
Y776948D01*
Y776114D02*
X1088042D01*
Y774448D02*
Y776114D01*
X1087209Y774448D02*
X1088042D01*
X1087209Y773614D02*
Y774448D01*
X1085542Y773614D02*
X1087209D01*
X1085542D02*
Y774448D01*
X1088915Y776688D02*
X1089748D01*
X1088915D02*
Y778354D01*
X1089748D01*
Y779188D01*
X1091415D01*
Y778354D02*
Y779188D01*
Y778354D02*
X1092249D01*
Y776688D02*
Y778354D01*
X1091415Y776688D02*
X1092249D01*
X1091415Y775854D02*
Y776688D01*
X1089748Y775854D02*
X1091415D01*
X1089748D02*
Y776688D01*
X1088866Y778106D02*
X1089699D01*
X1088866D02*
Y779773D01*
X1089699D01*
Y780606D01*
X1091366D01*
Y779773D02*
Y780606D01*
Y779773D02*
X1092199D01*
Y778106D02*
Y779773D01*
X1091366Y778106D02*
X1092199D01*
X1091366Y777273D02*
Y778106D01*
X1089699Y777273D02*
X1091366D01*
X1089699D02*
Y778106D01*
X1140321Y761724D02*
X1141154D01*
X1140321D02*
Y763390D01*
X1141154D01*
Y764224D01*
X1142821D01*
Y763390D02*
Y764224D01*
Y763390D02*
X1143654D01*
Y761724D02*
Y763390D01*
X1142821Y761724D02*
X1143654D01*
X1142821Y760890D02*
Y761724D01*
X1141154Y760890D02*
X1142821D01*
X1141154D02*
Y761724D01*
X1263809Y742548D02*
X1264642D01*
X1263809D02*
Y744214D01*
X1264642D01*
Y745048D01*
X1266309D01*
Y744214D02*
Y745048D01*
Y744214D02*
X1267142D01*
Y742548D02*
Y744214D01*
X1266309Y742548D02*
X1267142D01*
X1266309Y741714D02*
Y742548D01*
X1264642Y741714D02*
X1266309D01*
X1264642D02*
Y742548D01*
X1260550Y758983D02*
X1261384D01*
X1260550D02*
Y760649D01*
X1261384D01*
Y761483D01*
X1263050D01*
Y760649D02*
Y761483D01*
Y760649D02*
X1263884D01*
Y758983D02*
Y760649D01*
X1263050Y758983D02*
X1263884D01*
X1263050Y758149D02*
Y758983D01*
X1261384Y758149D02*
X1263050D01*
X1261384D02*
Y758983D01*
X1255923Y744824D02*
X1256757D01*
X1255923D02*
Y746491D01*
X1256757D01*
Y747324D01*
X1258423D01*
Y746491D02*
Y747324D01*
Y746491D02*
X1259256D01*
Y744824D02*
Y746491D01*
X1258423Y744824D02*
X1259256D01*
X1258423Y743991D02*
Y744824D01*
X1256757Y743991D02*
X1258423D01*
X1256757D02*
Y744824D01*
X1258737Y765730D02*
X1259571D01*
X1258737D02*
Y767396D01*
X1259571D01*
Y768229D01*
X1261237D01*
Y767396D02*
Y768229D01*
Y767396D02*
X1262070D01*
Y765730D02*
Y767396D01*
X1261237Y765730D02*
X1262070D01*
X1261237Y764896D02*
Y765730D01*
X1259571Y764896D02*
X1261237D01*
X1259571D02*
Y765730D01*
X1160540Y774748D02*
X1161374D01*
X1160540D02*
Y776414D01*
X1161374D01*
Y777248D01*
X1163040D01*
Y776414D02*
Y777248D01*
Y776414D02*
X1163874D01*
Y774748D02*
Y776414D01*
X1163040Y774748D02*
X1163874D01*
X1163040Y773914D02*
Y774748D01*
X1161374Y773914D02*
X1163040D01*
X1161374D02*
Y774748D01*
X1155609Y776848D02*
X1156442D01*
X1155609D02*
Y778514D01*
X1156442D01*
Y779348D01*
X1158109D01*
Y778514D02*
Y779348D01*
Y778514D02*
X1158942D01*
Y776848D02*
Y778514D01*
X1158109Y776848D02*
X1158942D01*
X1158109Y776014D02*
Y776848D01*
X1156442Y776014D02*
X1158109D01*
X1156442D02*
Y776848D01*
X1147909Y771248D02*
X1148742D01*
X1147909D02*
Y772914D01*
X1148742D01*
Y773748D01*
X1150409D01*
Y772914D02*
Y773748D01*
Y772914D02*
X1151242D01*
Y771248D02*
Y772914D01*
X1150409Y771248D02*
X1151242D01*
X1150409Y770414D02*
Y771248D01*
X1148742Y770414D02*
X1150409D01*
X1148742D02*
Y771248D01*
X1149746Y787238D02*
X1150579D01*
X1149746D02*
Y788905D01*
X1150579D01*
Y789738D01*
X1152246D01*
Y788905D02*
Y789738D01*
Y788905D02*
X1153080D01*
Y787238D02*
Y788905D01*
X1152246Y787238D02*
X1153080D01*
X1152246Y786405D02*
Y787238D01*
X1150579Y786405D02*
X1152246D01*
X1150579D02*
Y787238D01*
X1149811Y788960D02*
X1150644D01*
X1149811D02*
Y790627D01*
X1150644D01*
Y791460D01*
X1152311D01*
Y790627D02*
Y791460D01*
Y790627D02*
X1153144D01*
Y788960D02*
Y790627D01*
X1152311Y788960D02*
X1153144D01*
X1152311Y788127D02*
Y788960D01*
X1150644Y788127D02*
X1152311D01*
X1150644D02*
Y788960D01*
X1224509Y800948D02*
X1225342D01*
X1224509D02*
Y802614D01*
X1225342D01*
Y803448D01*
X1227009D01*
Y802614D02*
Y803448D01*
Y802614D02*
X1227842D01*
Y800948D02*
Y802614D01*
X1227009Y800948D02*
X1227842D01*
X1227009Y800114D02*
Y800948D01*
X1225342Y800114D02*
X1227009D01*
X1225342D02*
Y800948D01*
X1219809D02*
X1220642D01*
X1219809D02*
Y802614D01*
X1220642D01*
Y803448D01*
X1222309D01*
Y802614D02*
Y803448D01*
Y802614D02*
X1223142D01*
Y800948D02*
Y802614D01*
X1222309Y800948D02*
X1223142D01*
X1222309Y800114D02*
Y800948D01*
X1220642Y800114D02*
X1222309D01*
X1220642D02*
Y800948D01*
X1138609Y804448D02*
X1139442D01*
X1138609D02*
Y806114D01*
X1139442D01*
Y806948D01*
X1141109D01*
Y806114D02*
Y806948D01*
Y806114D02*
X1141942D01*
Y804448D02*
Y806114D01*
X1141109Y804448D02*
X1141942D01*
X1141109Y803614D02*
Y804448D01*
X1139442Y803614D02*
X1141109D01*
X1139442D02*
Y804448D01*
X1134109Y800948D02*
X1134942D01*
X1134109D02*
Y802614D01*
X1134942D01*
Y803448D01*
X1136609D01*
Y802614D02*
Y803448D01*
Y802614D02*
X1137442D01*
Y800948D02*
Y802614D01*
X1136609Y800948D02*
X1137442D01*
X1136609Y800114D02*
Y800948D01*
X1134942Y800114D02*
X1136609D01*
X1134942D02*
Y800948D01*
X1149789Y785451D02*
X1150623D01*
X1149789D02*
Y787118D01*
X1150623D01*
Y787951D01*
X1152289D01*
Y787118D02*
Y787951D01*
Y787118D02*
X1153123D01*
Y785451D02*
Y787118D01*
X1152289Y785451D02*
X1153123D01*
X1152289Y784618D02*
Y785451D01*
X1150623Y784618D02*
X1152289D01*
X1150623D02*
Y785451D01*
X1122409Y795948D02*
X1123242D01*
X1122409D02*
Y797614D01*
X1123242D01*
Y798448D01*
X1124909D01*
Y797614D02*
Y798448D01*
Y797614D02*
X1125742D01*
Y795948D02*
Y797614D01*
X1124909Y795948D02*
X1125742D01*
X1124909Y795114D02*
Y795948D01*
X1123242Y795114D02*
X1124909D01*
X1123242D02*
Y795948D01*
X1120009Y798848D02*
X1120842D01*
X1120009D02*
Y800514D01*
X1120842D01*
Y801348D01*
X1122509D01*
Y800514D02*
Y801348D01*
Y800514D02*
X1123342D01*
Y798848D02*
Y800514D01*
X1122509Y798848D02*
X1123342D01*
X1122509Y798014D02*
Y798848D01*
X1120842Y798014D02*
X1122509D01*
X1120842D02*
Y798848D01*
X1124309Y798648D02*
X1125142D01*
X1124309D02*
Y800314D01*
X1125142D01*
Y801148D01*
X1126809D01*
Y800314D02*
Y801148D01*
Y800314D02*
X1127642D01*
Y798648D02*
Y800314D01*
X1126809Y798648D02*
X1127642D01*
X1126809Y797814D02*
Y798648D01*
X1125142Y797814D02*
X1126809D01*
X1125142D02*
Y798648D01*
X1139293Y760481D02*
X1140126D01*
X1139293D02*
Y762148D01*
X1140126D01*
Y762981D01*
X1141793D01*
Y762148D02*
Y762981D01*
Y762148D02*
X1142626D01*
Y760481D02*
Y762148D01*
X1141793Y760481D02*
X1142626D01*
X1141793Y759648D02*
Y760481D01*
X1140126Y759648D02*
X1141793D01*
X1140126D02*
Y760481D01*
X1149768Y783600D02*
X1150601D01*
X1149768D02*
Y785267D01*
X1150601D01*
Y786100D01*
X1152268D01*
Y785267D02*
Y786100D01*
Y785267D02*
X1153101D01*
Y783600D02*
Y785267D01*
X1152268Y783600D02*
X1153101D01*
X1152268Y782767D02*
Y783600D01*
X1150601Y782767D02*
X1152268D01*
X1150601D02*
Y783600D01*
X1154380Y773491D02*
X1155213D01*
X1154380D02*
Y775157D01*
X1155213D01*
Y775991D01*
X1156880D01*
Y775157D02*
Y775991D01*
Y775157D02*
X1157713D01*
Y773491D02*
Y775157D01*
X1156880Y773491D02*
X1157713D01*
X1156880Y772657D02*
Y773491D01*
X1155213Y772657D02*
X1156880D01*
X1155213D02*
Y773491D01*
X1152748Y774908D02*
X1153581D01*
X1152748D02*
Y776575D01*
X1153581D01*
Y777408D01*
X1155247D01*
Y776575D02*
Y777408D01*
Y776575D02*
X1156081D01*
Y774908D02*
Y776575D01*
X1155247Y774908D02*
X1156081D01*
X1155247Y774075D02*
Y774908D01*
X1153581Y774075D02*
X1155247D01*
X1153581D02*
Y774908D01*
X1078909Y804848D02*
X1079742D01*
X1078909D02*
Y806514D01*
X1079742D01*
Y807348D01*
X1081409D01*
Y806514D02*
Y807348D01*
Y806514D02*
X1082242D01*
Y804848D02*
Y806514D01*
X1081409Y804848D02*
X1082242D01*
X1081409Y804014D02*
Y804848D01*
X1079742Y804014D02*
X1081409D01*
X1079742D02*
Y804848D01*
X1074309Y809748D02*
X1075142D01*
X1074309D02*
Y811414D01*
X1075142D01*
Y812248D01*
X1076809D01*
Y811414D02*
Y812248D01*
Y811414D02*
X1077642D01*
Y809748D02*
Y811414D01*
X1076809Y809748D02*
X1077642D01*
X1076809Y808914D02*
Y809748D01*
X1075142Y808914D02*
X1076809D01*
X1075142D02*
Y809748D01*
X1228309Y778948D02*
X1229142D01*
X1228309D02*
Y780614D01*
X1229142D01*
Y781448D01*
X1230809D01*
Y780614D02*
Y781448D01*
Y780614D02*
X1231642D01*
Y778948D02*
Y780614D01*
X1230809Y778948D02*
X1231642D01*
X1230809Y778114D02*
Y778948D01*
X1229142Y778114D02*
X1230809D01*
X1229142D02*
Y778948D01*
X1220633Y790716D02*
X1221467D01*
X1220633D02*
Y792382D01*
X1221467D01*
Y793216D01*
X1223133D01*
Y792382D02*
Y793216D01*
Y792382D02*
X1223967D01*
Y790716D02*
Y792382D01*
X1223133Y790716D02*
X1223967D01*
X1223133Y789883D02*
Y790716D01*
X1221467Y789883D02*
X1223133D01*
X1221467D02*
Y790716D01*
X1196409Y800948D02*
X1197242D01*
X1196409D02*
Y802614D01*
X1197242D01*
Y803448D01*
X1198909D01*
Y802614D02*
Y803448D01*
Y802614D02*
X1199742D01*
Y800948D02*
Y802614D01*
X1198909Y800948D02*
X1199742D01*
X1198909Y800114D02*
Y800948D01*
X1197242Y800114D02*
X1198909D01*
X1197242D02*
Y800948D01*
X1153625Y738965D02*
X1154459D01*
X1153625D02*
Y740632D01*
X1154459D01*
Y741465D01*
X1156126D01*
Y740632D02*
Y741465D01*
Y740632D02*
X1156959D01*
Y738965D02*
Y740632D01*
X1156126Y738965D02*
X1156959D01*
X1156126Y738132D02*
Y738965D01*
X1154459Y738132D02*
X1156126D01*
X1154459D02*
Y738965D01*
X1129309Y746748D02*
X1130142D01*
X1129309D02*
Y748414D01*
X1130142D01*
Y749248D01*
X1131809D01*
Y748414D02*
Y749248D01*
Y748414D02*
X1132642D01*
Y746748D02*
Y748414D01*
X1131809Y746748D02*
X1132642D01*
X1131809Y745914D02*
Y746748D01*
X1130142Y745914D02*
X1131809D01*
X1130142D02*
Y746748D01*
X1182404Y715943D02*
X1183238D01*
X1182404D02*
Y717610D01*
X1183238D01*
Y718443D01*
X1184904D01*
Y717610D02*
Y718443D01*
Y717610D02*
X1185738D01*
Y715943D02*
Y717610D01*
X1184904Y715943D02*
X1185738D01*
X1184904Y715110D02*
Y715943D01*
X1183238Y715110D02*
X1184904D01*
X1183238D02*
Y715943D01*
X1182404Y719165D02*
X1183238D01*
X1182404D02*
Y720831D01*
X1183238D01*
Y721665D01*
X1184904D01*
Y720831D02*
Y721665D01*
Y720831D02*
X1185738D01*
Y719165D02*
Y720831D01*
X1184904Y719165D02*
X1185738D01*
X1184904Y718331D02*
Y719165D01*
X1183238Y718331D02*
X1184904D01*
X1183238D02*
Y719165D01*
X1152296Y768222D02*
X1153129D01*
X1152296D02*
Y769888D01*
X1153129D01*
Y770721D01*
X1154796D01*
Y769888D02*
Y770721D01*
Y769888D02*
X1155629D01*
Y768222D02*
Y769888D01*
X1154796Y768222D02*
X1155629D01*
X1154796Y767388D02*
Y768222D01*
X1153129Y767388D02*
X1154796D01*
X1153129D02*
Y768222D01*
X1151637Y770145D02*
X1152471D01*
X1151637D02*
Y771811D01*
X1152471D01*
Y772645D01*
X1154137D01*
Y771811D02*
Y772645D01*
Y771811D02*
X1154971D01*
Y770145D02*
Y771811D01*
X1154137Y770145D02*
X1154971D01*
X1154137Y769311D02*
Y770145D01*
X1152471Y769311D02*
X1154137D01*
X1152471D02*
Y770145D01*
X1096126Y758924D02*
X1096959D01*
X1096126D02*
Y760591D01*
X1096959D01*
Y761424D01*
X1098625D01*
Y760591D02*
Y761424D01*
Y760591D02*
X1099459D01*
Y758924D02*
Y760591D01*
X1098625Y758924D02*
X1099459D01*
X1098625Y758091D02*
Y758924D01*
X1096959Y758091D02*
X1098625D01*
X1096959D02*
Y758924D01*
X1096126Y755086D02*
X1096959D01*
X1096126D02*
Y756752D01*
X1096959D01*
Y757585D01*
X1098625D01*
Y756752D02*
Y757585D01*
Y756752D02*
X1099459D01*
Y755086D02*
Y756752D01*
X1098625Y755086D02*
X1099459D01*
X1098625Y754252D02*
Y755086D01*
X1096959Y754252D02*
X1098625D01*
X1096959D02*
Y755086D01*
X1097909Y750448D02*
X1098742D01*
X1097909D02*
Y752114D01*
X1098742D01*
Y752948D01*
X1100409D01*
Y752114D02*
Y752948D01*
Y752114D02*
X1101242D01*
Y750448D02*
Y752114D01*
X1100409Y750448D02*
X1101242D01*
X1100409Y749614D02*
Y750448D01*
X1098742Y749614D02*
X1100409D01*
X1098742D02*
Y750448D01*
X1096036Y749156D02*
X1096869D01*
X1096036D02*
Y750822D01*
X1096869D01*
Y751656D01*
X1098536D01*
Y750822D02*
Y751656D01*
Y750822D02*
X1099369D01*
Y749156D02*
Y750822D01*
X1098536Y749156D02*
X1099369D01*
X1098536Y748322D02*
Y749156D01*
X1096869Y748322D02*
X1098536D01*
X1096869D02*
Y749156D01*
X1215128Y774956D02*
X1215961D01*
X1215128D02*
Y776623D01*
X1215961D01*
Y777456D01*
X1217628D01*
Y776623D02*
Y777456D01*
Y776623D02*
X1218461D01*
Y774956D02*
Y776623D01*
X1217628Y774956D02*
X1218461D01*
X1217628Y774123D02*
Y774956D01*
X1215961Y774123D02*
X1217628D01*
X1215961D02*
Y774956D01*
X1221634Y775006D02*
X1222467D01*
X1221634D02*
Y776672D01*
X1222467D01*
Y777506D01*
X1224134D01*
Y776672D02*
Y777506D01*
Y776672D02*
X1224967D01*
Y775006D02*
Y776672D01*
X1224134Y775006D02*
X1224967D01*
X1224134Y774172D02*
Y775006D01*
X1222467Y774172D02*
X1224134D01*
X1222467D02*
Y775006D01*
X1228214Y774981D02*
X1229047D01*
X1228214D02*
Y776648D01*
X1229047D01*
Y777481D01*
X1230714D01*
Y776648D02*
Y777481D01*
Y776648D02*
X1231547D01*
Y774981D02*
Y776648D01*
X1230714Y774981D02*
X1231547D01*
X1230714Y774148D02*
Y774981D01*
X1229047Y774148D02*
X1230714D01*
X1229047D02*
Y774981D01*
X1221578Y778825D02*
X1222411D01*
X1221578D02*
Y780491D01*
X1222411D01*
Y781324D01*
X1224078D01*
Y780491D02*
Y781324D01*
Y780491D02*
X1224911D01*
Y778825D02*
Y780491D01*
X1224078Y778825D02*
X1224911D01*
X1224078Y777991D02*
Y778825D01*
X1222411Y777991D02*
X1224078D01*
X1222411D02*
Y778825D01*
X1215069Y778794D02*
X1215902D01*
X1215069D02*
Y780461D01*
X1215902D01*
Y781294D01*
X1217569D01*
Y780461D02*
Y781294D01*
Y780461D02*
X1218402D01*
Y778794D02*
Y780461D01*
X1217569Y778794D02*
X1218402D01*
X1217569Y777961D02*
Y778794D01*
X1215902Y777961D02*
X1217569D01*
X1215902D02*
Y778794D01*
X1070299Y763562D02*
X1071133D01*
X1070299D02*
Y765229D01*
X1071133D01*
Y766062D01*
X1072799D01*
Y765229D02*
Y766062D01*
Y765229D02*
X1073633D01*
Y763562D02*
Y765229D01*
X1072799Y763562D02*
X1073633D01*
X1072799Y762729D02*
Y763562D01*
X1071133Y762729D02*
X1072799D01*
X1071133D02*
Y763562D01*
X1073189Y755381D02*
X1074022D01*
X1073189D02*
Y757048D01*
X1074022D01*
Y757881D01*
X1075689D01*
Y757048D02*
Y757881D01*
Y757048D02*
X1076522D01*
Y755381D02*
Y757048D01*
X1075689Y755381D02*
X1076522D01*
X1075689Y754548D02*
Y755381D01*
X1074022Y754548D02*
X1075689D01*
X1074022D02*
Y755381D01*
X1077544Y781426D02*
X1078378D01*
X1077544D02*
Y783093D01*
X1078378D01*
Y783926D01*
X1080044D01*
Y783093D02*
Y783926D01*
Y783093D02*
X1080878D01*
Y781426D02*
Y783093D01*
X1080044Y781426D02*
X1080878D01*
X1080044Y780593D02*
Y781426D01*
X1078378Y780593D02*
X1080044D01*
X1078378D02*
Y781426D01*
X1075967Y781494D02*
X1076800D01*
X1075967D02*
Y783160D01*
X1076800D01*
Y783994D01*
X1078467D01*
Y783160D02*
Y783994D01*
Y783160D02*
X1079300D01*
Y781494D02*
Y783160D01*
X1078467Y781494D02*
X1079300D01*
X1078467Y780660D02*
Y781494D01*
X1076800Y780660D02*
X1078467D01*
X1076800D02*
Y781494D01*
X1058033Y770963D02*
X1058866D01*
X1058033D02*
Y772630D01*
X1058866D01*
Y773463D01*
X1060533D01*
Y772630D02*
Y773463D01*
Y772630D02*
X1061366D01*
Y770963D02*
Y772630D01*
X1060533Y770963D02*
X1061366D01*
X1060533Y770130D02*
Y770963D01*
X1058866Y770130D02*
X1060533D01*
X1058866D02*
Y770963D01*
X1058033Y775316D02*
X1058866D01*
X1058033D02*
Y776983D01*
X1058866D01*
Y777816D01*
X1060533D01*
Y776983D02*
Y777816D01*
Y776983D02*
X1061366D01*
Y775316D02*
Y776983D01*
X1060533Y775316D02*
X1061366D01*
X1060533Y774483D02*
Y775316D01*
X1058866Y774483D02*
X1060533D01*
X1058866D02*
Y775316D01*
X1091013Y744427D02*
X1091846D01*
X1091013D02*
Y746094D01*
X1091846D01*
Y746927D01*
X1093513D01*
Y746094D02*
Y746927D01*
Y746094D02*
X1094346D01*
Y744427D02*
Y746094D01*
X1093513Y744427D02*
X1094346D01*
X1093513Y743594D02*
Y744427D01*
X1091846Y743594D02*
X1093513D01*
X1091846D02*
Y744427D01*
X1163145Y774358D02*
X1163978D01*
X1163145D02*
Y776025D01*
X1163978D01*
Y776858D01*
X1165645D01*
Y776025D02*
Y776858D01*
Y776025D02*
X1166478D01*
Y774358D02*
Y776025D01*
X1165645Y774358D02*
X1166478D01*
X1165645Y773525D02*
Y774358D01*
X1163978Y773525D02*
X1165645D01*
X1163978D02*
Y774358D01*
X1149746Y781792D02*
X1150579D01*
X1149746D02*
Y783458D01*
X1150579D01*
Y784292D01*
X1152246D01*
Y783458D02*
Y784292D01*
Y783458D02*
X1153080D01*
Y781792D02*
Y783458D01*
X1152246Y781792D02*
X1153080D01*
X1152246Y780958D02*
Y781792D01*
X1150579Y780958D02*
X1152246D01*
X1150579D02*
Y781792D01*
X1149725Y778993D02*
X1150558D01*
X1149725D02*
Y780660D01*
X1150558D01*
Y781493D01*
X1152225D01*
Y780660D02*
Y781493D01*
Y780660D02*
X1153058D01*
Y778993D02*
Y780660D01*
X1152225Y778993D02*
X1153058D01*
X1152225Y778160D02*
Y778993D01*
X1150558Y778160D02*
X1152225D01*
X1150558D02*
Y778993D01*
X1222924Y743157D02*
X1223758D01*
X1222924D02*
Y744824D01*
X1223758D01*
Y745657D01*
X1225424D01*
Y744824D02*
Y745657D01*
Y744824D02*
X1226258D01*
Y743157D02*
Y744824D01*
X1225424Y743157D02*
X1226258D01*
X1225424Y742324D02*
Y743157D01*
X1223758Y742324D02*
X1225424D01*
X1223758D02*
Y743157D01*
X1222781Y746090D02*
X1223614D01*
X1222781D02*
Y747756D01*
X1223614D01*
Y748590D01*
X1225281D01*
Y747756D02*
Y748590D01*
Y747756D02*
X1226114D01*
Y746090D02*
Y747756D01*
X1225281Y746090D02*
X1226114D01*
X1225281Y745256D02*
Y746090D01*
X1223614Y745256D02*
X1225281D01*
X1223614D02*
Y746090D01*
X1230664Y743269D02*
X1231498D01*
X1230664D02*
Y744935D01*
X1231498D01*
Y745769D01*
X1233164D01*
Y744935D02*
Y745769D01*
Y744935D02*
X1233998D01*
Y743269D02*
Y744935D01*
X1233164Y743269D02*
X1233998D01*
X1233164Y742435D02*
Y743269D01*
X1231498Y742435D02*
X1233164D01*
X1231498D02*
Y743269D01*
X1234460Y743192D02*
X1235293D01*
X1234460D02*
Y744859D01*
X1235293D01*
Y745692D01*
X1236960D01*
Y744859D02*
Y745692D01*
Y744859D02*
X1237793D01*
Y743192D02*
Y744859D01*
X1236960Y743192D02*
X1237793D01*
X1236960Y742359D02*
Y743192D01*
X1235293Y742359D02*
X1236960D01*
X1235293D02*
Y743192D01*
X1239309Y728048D02*
X1240142D01*
X1239309D02*
Y729714D01*
X1240142D01*
Y730548D01*
X1241809D01*
Y729714D02*
Y730548D01*
Y729714D02*
X1242642D01*
Y728048D02*
Y729714D01*
X1241809Y728048D02*
X1242642D01*
X1241809Y727214D02*
Y728048D01*
X1240142Y727214D02*
X1241809D01*
X1240142D02*
Y728048D01*
X1241209D02*
X1242042D01*
X1241209D02*
Y729714D01*
X1242042D01*
Y730548D01*
X1243709D01*
Y729714D02*
Y730548D01*
Y729714D02*
X1244542D01*
Y728048D02*
Y729714D01*
X1243709Y728048D02*
X1244542D01*
X1243709Y727214D02*
Y728048D01*
X1242042Y727214D02*
X1243709D01*
X1242042D02*
Y728048D01*
X1241216Y730348D02*
X1242049D01*
X1241216D02*
Y732014D01*
X1242049D01*
Y732848D01*
X1243716D01*
Y732014D02*
Y732848D01*
Y732014D02*
X1244549D01*
Y730348D02*
Y732014D01*
X1243716Y730348D02*
X1244549D01*
X1243716Y729514D02*
Y730348D01*
X1242049Y729514D02*
X1243716D01*
X1242049D02*
Y730348D01*
X1241236Y732495D02*
X1242069D01*
X1241236D02*
Y734161D01*
X1242069D01*
Y734995D01*
X1243736D01*
Y734161D02*
Y734995D01*
Y734161D02*
X1244569D01*
Y732495D02*
Y734161D01*
X1243736Y732495D02*
X1244569D01*
X1243736Y731661D02*
Y732495D01*
X1242069Y731661D02*
X1243736D01*
X1242069D02*
Y732495D01*
X1230929Y728072D02*
X1231762D01*
X1230929D02*
Y729739D01*
X1231762D01*
Y730572D01*
X1233429D01*
Y729739D02*
Y730572D01*
Y729739D02*
X1234262D01*
Y728072D02*
Y729739D01*
X1233429Y728072D02*
X1234262D01*
X1233429Y727239D02*
Y728072D01*
X1231762Y727239D02*
X1233429D01*
X1231762D02*
Y728072D01*
X1228282Y728054D02*
X1229115D01*
X1228282D02*
Y729721D01*
X1229115D01*
Y730554D01*
X1230782D01*
Y729721D02*
Y730554D01*
Y729721D02*
X1231615D01*
Y728054D02*
Y729721D01*
X1230782Y728054D02*
X1231615D01*
X1230782Y727221D02*
Y728054D01*
X1229115Y727221D02*
X1230782D01*
X1229115D02*
Y728054D01*
X1228246Y730397D02*
X1229080D01*
X1228246D02*
Y732064D01*
X1229080D01*
Y732897D01*
X1230746D01*
Y732064D02*
Y732897D01*
Y732064D02*
X1231579D01*
Y730397D02*
Y732064D01*
X1230746Y730397D02*
X1231579D01*
X1230746Y729564D02*
Y730397D01*
X1229080Y729564D02*
X1230746D01*
X1229080D02*
Y730397D01*
X1228318Y732239D02*
X1229151D01*
X1228318D02*
Y733906D01*
X1229151D01*
Y734739D01*
X1230818D01*
Y733906D02*
Y734739D01*
Y733906D02*
X1231651D01*
Y732239D02*
Y733906D01*
X1230818Y732239D02*
X1231651D01*
X1230818Y731406D02*
Y732239D01*
X1229151Y731406D02*
X1230818D01*
X1229151D02*
Y732239D01*
X1224581Y734007D02*
X1225414D01*
X1224581D02*
Y735674D01*
X1225414D01*
Y736507D01*
X1227081D01*
Y735674D02*
Y736507D01*
Y735674D02*
X1227914D01*
Y734007D02*
Y735674D01*
X1227081Y734007D02*
X1227914D01*
X1227081Y733174D02*
Y734007D01*
X1225414Y733174D02*
X1227081D01*
X1225414D02*
Y734007D01*
X1247309Y794348D02*
X1248142D01*
X1247309D02*
Y796014D01*
X1248142D01*
Y796848D01*
X1249809D01*
Y796014D02*
Y796848D01*
Y796014D02*
X1250642D01*
Y794348D02*
Y796014D01*
X1249809Y794348D02*
X1250642D01*
X1249809Y793514D02*
Y794348D01*
X1248142Y793514D02*
X1249809D01*
X1248142D02*
Y794348D01*
X1247351Y790440D02*
X1248185D01*
X1247351D02*
Y792107D01*
X1248185D01*
Y792940D01*
X1249851D01*
Y792107D02*
Y792940D01*
Y792107D02*
X1250685D01*
Y790440D02*
Y792107D01*
X1249851Y790440D02*
X1250685D01*
X1249851Y789607D02*
Y790440D01*
X1248185Y789607D02*
X1249851D01*
X1248185D02*
Y790440D01*
X1212205Y795642D02*
X1213039D01*
X1212205D02*
Y797309D01*
X1213039D01*
Y798142D01*
X1214705D01*
Y797309D02*
Y798142D01*
Y797309D02*
X1215539D01*
Y795642D02*
Y797309D01*
X1214705Y795642D02*
X1215539D01*
X1214705Y794809D02*
Y795642D01*
X1213039Y794809D02*
X1214705D01*
X1213039D02*
Y795642D01*
X1212558Y792051D02*
X1213392D01*
X1212558D02*
Y793717D01*
X1213392D01*
Y794551D01*
X1215059D01*
Y793717D02*
Y794551D01*
Y793717D02*
X1215892D01*
Y792051D02*
Y793717D01*
X1215059Y792051D02*
X1215892D01*
X1215059Y791217D02*
Y792051D01*
X1213392Y791217D02*
X1215059D01*
X1213392D02*
Y792051D01*
X1213934Y793796D02*
X1214767D01*
X1213934D02*
Y795463D01*
X1214767D01*
Y796296D01*
X1216434D01*
Y795463D02*
Y796296D01*
Y795463D02*
X1217267D01*
Y793796D02*
Y795463D01*
X1216434Y793796D02*
X1217267D01*
X1216434Y792963D02*
Y793796D01*
X1214767Y792963D02*
X1216434D01*
X1214767D02*
Y793796D01*
X1208775Y792079D02*
X1209609D01*
X1208775D02*
Y793746D01*
X1209609D01*
Y794579D01*
X1211275D01*
Y793746D02*
Y794579D01*
Y793746D02*
X1212109D01*
Y792079D02*
Y793746D01*
X1211275Y792079D02*
X1212109D01*
X1211275Y791246D02*
Y792079D01*
X1209609Y791246D02*
X1211275D01*
X1209609D02*
Y792079D01*
X1215896Y784444D02*
X1216729D01*
X1215896D02*
Y786111D01*
X1216729D01*
Y786944D01*
X1218396D01*
Y786111D02*
Y786944D01*
Y786111D02*
X1219229D01*
Y784444D02*
Y786111D01*
X1218396Y784444D02*
X1219229D01*
X1218396Y783611D02*
Y784444D01*
X1216729Y783611D02*
X1218396D01*
X1216729D02*
Y784444D01*
X1215876Y786026D02*
X1216709D01*
X1215876D02*
Y787693D01*
X1216709D01*
Y788526D01*
X1218376D01*
Y787693D02*
Y788526D01*
Y787693D02*
X1219209D01*
Y786026D02*
Y787693D01*
X1218376Y786026D02*
X1219209D01*
X1218376Y785193D02*
Y786026D01*
X1216709Y785193D02*
X1218376D01*
X1216709D02*
Y786026D01*
X1213990Y786006D02*
X1214823D01*
X1213990D02*
Y787673D01*
X1214823D01*
Y788506D01*
X1216490D01*
Y787673D02*
Y788506D01*
Y787673D02*
X1217323D01*
Y786006D02*
Y787673D01*
X1216490Y786006D02*
X1217323D01*
X1216490Y785173D02*
Y786006D01*
X1214823Y785173D02*
X1216490D01*
X1214823D02*
Y786006D01*
X1184067Y748834D02*
X1184900D01*
X1184067D02*
Y750501D01*
X1184900D01*
Y751334D01*
X1186567D01*
Y750501D02*
Y751334D01*
Y750501D02*
X1187400D01*
Y748834D02*
Y750501D01*
X1186567Y748834D02*
X1187400D01*
X1186567Y748001D02*
Y748834D01*
X1184900Y748001D02*
X1186567D01*
X1184900D02*
Y748834D01*
X1184032Y751923D02*
X1184865D01*
X1184032D02*
Y753590D01*
X1184865D01*
Y754423D01*
X1186532D01*
Y753590D02*
Y754423D01*
Y753590D02*
X1187365D01*
Y751923D02*
Y753590D01*
X1186532Y751923D02*
X1187365D01*
X1186532Y751090D02*
Y751923D01*
X1184865Y751090D02*
X1186532D01*
X1184865D02*
Y751923D01*
X1209511Y771424D02*
X1210345D01*
X1209511D02*
Y773091D01*
X1210345D01*
Y773924D01*
X1212011D01*
Y773091D02*
Y773924D01*
Y773091D02*
X1212845D01*
Y771424D02*
Y773091D01*
X1212011Y771424D02*
X1212845D01*
X1212011Y770591D02*
Y771424D01*
X1210345Y770591D02*
X1212011D01*
X1210345D02*
Y771424D01*
X1202091Y765500D02*
X1202925D01*
X1202091D02*
Y767167D01*
X1202925D01*
Y768000D01*
X1204591D01*
Y767167D02*
Y768000D01*
Y767167D02*
X1205425D01*
Y765500D02*
Y767167D01*
X1204591Y765500D02*
X1205425D01*
X1204591Y764667D02*
Y765500D01*
X1202925Y764667D02*
X1204591D01*
X1202925D02*
Y765500D01*
X1117170Y776493D02*
X1118003D01*
X1117170D02*
Y778160D01*
X1118003D01*
Y778993D01*
X1119670D01*
Y778160D02*
Y778993D01*
Y778160D02*
X1120503D01*
Y776493D02*
Y778160D01*
X1119670Y776493D02*
X1120503D01*
X1119670Y775660D02*
Y776493D01*
X1118003Y775660D02*
X1119670D01*
X1118003D02*
Y776493D01*
X1121809Y781248D02*
X1122642D01*
X1121809D02*
Y782914D01*
X1122642D01*
Y783748D01*
X1124309D01*
Y782914D02*
Y783748D01*
Y782914D02*
X1125142D01*
Y781248D02*
Y782914D01*
X1124309Y781248D02*
X1125142D01*
X1124309Y780414D02*
Y781248D01*
X1122642Y780414D02*
X1124309D01*
X1122642D02*
Y781248D01*
X1118309Y783248D02*
X1119142D01*
X1118309D02*
Y784914D01*
X1119142D01*
Y785748D01*
X1120809D01*
Y784914D02*
Y785748D01*
Y784914D02*
X1121642D01*
Y783248D02*
Y784914D01*
X1120809Y783248D02*
X1121642D01*
X1120809Y782414D02*
Y783248D01*
X1119142Y782414D02*
X1120809D01*
X1119142D02*
Y783248D01*
X1118309Y792748D02*
X1119142D01*
X1118309D02*
Y794414D01*
X1119142D01*
Y795248D01*
X1120809D01*
Y794414D02*
Y795248D01*
Y794414D02*
X1121642D01*
Y792748D02*
Y794414D01*
X1120809Y792748D02*
X1121642D01*
X1120809Y791914D02*
Y792748D01*
X1119142Y791914D02*
X1120809D01*
X1119142D02*
Y792748D01*
X1121809Y792848D02*
X1122642D01*
X1121809D02*
Y794514D01*
X1122642D01*
Y795348D01*
X1124309D01*
Y794514D02*
Y795348D01*
Y794514D02*
X1125142D01*
Y792848D02*
Y794514D01*
X1124309Y792848D02*
X1125142D01*
X1124309Y792014D02*
Y792848D01*
X1122642Y792014D02*
X1124309D01*
X1122642D02*
Y792848D01*
X1125809Y803748D02*
X1126642D01*
X1125809D02*
Y805414D01*
X1126642D01*
Y806248D01*
X1128309D01*
Y805414D02*
Y806248D01*
Y805414D02*
X1129142D01*
Y803748D02*
Y805414D01*
X1128309Y803748D02*
X1129142D01*
X1128309Y802914D02*
Y803748D01*
X1126642Y802914D02*
X1128309D01*
X1126642D02*
Y803748D01*
X1130009Y800948D02*
X1130842D01*
X1130009D02*
Y802614D01*
X1130842D01*
Y803448D01*
X1132509D01*
Y802614D02*
Y803448D01*
Y802614D02*
X1133342D01*
Y800948D02*
Y802614D01*
X1132509Y800948D02*
X1133342D01*
X1132509Y800114D02*
Y800948D01*
X1130842Y800114D02*
X1132509D01*
X1130842D02*
Y800948D01*
X1133969Y804879D02*
X1134803D01*
X1133969D02*
Y806546D01*
X1134803D01*
Y807379D01*
X1136469D01*
Y806546D02*
Y807379D01*
Y806546D02*
X1137303D01*
Y804879D02*
Y806546D01*
X1136469Y804879D02*
X1137303D01*
X1136469Y804046D02*
Y804879D01*
X1134803Y804046D02*
X1136469D01*
X1134803D02*
Y804879D01*
X1147809Y804448D02*
X1148642D01*
X1147809D02*
Y806114D01*
X1148642D01*
Y806948D01*
X1150309D01*
Y806114D02*
Y806948D01*
Y806114D02*
X1151142D01*
Y804448D02*
Y806114D01*
X1150309Y804448D02*
X1151142D01*
X1150309Y803614D02*
Y804448D01*
X1148642Y803614D02*
X1150309D01*
X1148642D02*
Y804448D01*
X1157309D02*
X1158142D01*
X1157309D02*
Y806114D01*
X1158142D01*
Y806948D01*
X1159809D01*
Y806114D02*
Y806948D01*
Y806114D02*
X1160642D01*
Y804448D02*
Y806114D01*
X1159809Y804448D02*
X1160642D01*
X1159809Y803614D02*
Y804448D01*
X1158142Y803614D02*
X1159809D01*
X1158142D02*
Y804448D01*
X1166109D02*
X1166942D01*
X1166109D02*
Y806114D01*
X1166942D01*
Y806948D01*
X1168609D01*
Y806114D02*
Y806948D01*
Y806114D02*
X1169442D01*
Y804448D02*
Y806114D01*
X1168609Y804448D02*
X1169442D01*
X1168609Y803614D02*
Y804448D01*
X1166942Y803614D02*
X1168609D01*
X1166942D02*
Y804448D01*
X1174809D02*
X1175642D01*
X1174809D02*
Y806114D01*
X1175642D01*
Y806948D01*
X1177309D01*
Y806114D02*
Y806948D01*
Y806114D02*
X1178142D01*
Y804448D02*
Y806114D01*
X1177309Y804448D02*
X1178142D01*
X1177309Y803614D02*
Y804448D01*
X1175642Y803614D02*
X1177309D01*
X1175642D02*
Y804448D01*
X1185309D02*
X1186142D01*
X1185309D02*
Y806114D01*
X1186142D01*
Y806948D01*
X1187809D01*
Y806114D02*
Y806948D01*
Y806114D02*
X1188642D01*
Y804448D02*
Y806114D01*
X1187809Y804448D02*
X1188642D01*
X1187809Y803614D02*
Y804448D01*
X1186142Y803614D02*
X1187809D01*
X1186142D02*
Y804448D01*
X1196009D02*
X1196842D01*
X1196009D02*
Y806114D01*
X1196842D01*
Y806948D01*
X1198509D01*
Y806114D02*
Y806948D01*
Y806114D02*
X1199342D01*
Y804448D02*
Y806114D01*
X1198509Y804448D02*
X1199342D01*
X1198509Y803614D02*
Y804448D01*
X1196842Y803614D02*
X1198509D01*
X1196842D02*
Y804448D01*
X1179609Y801048D02*
X1180442D01*
X1179609D02*
Y802714D01*
X1180442D01*
Y803548D01*
X1182109D01*
Y802714D02*
Y803548D01*
Y802714D02*
X1182942D01*
Y801048D02*
Y802714D01*
X1182109Y801048D02*
X1182942D01*
X1182109Y800214D02*
Y801048D01*
X1180442Y800214D02*
X1182109D01*
X1180442D02*
Y801048D01*
X1162009D02*
X1162842D01*
X1162009D02*
Y802714D01*
X1162842D01*
Y803548D01*
X1164509D01*
Y802714D02*
Y803548D01*
Y802714D02*
X1165342D01*
Y801048D02*
Y802714D01*
X1164509Y801048D02*
X1165342D01*
X1164509Y800214D02*
Y801048D01*
X1162842Y800214D02*
X1164509D01*
X1162842D02*
Y801048D01*
X1190609D02*
X1191442D01*
X1190609D02*
Y802714D01*
X1191442D01*
Y803548D01*
X1193109D01*
Y802714D02*
Y803548D01*
Y802714D02*
X1193942D01*
Y801048D02*
Y802714D01*
X1193109Y801048D02*
X1193942D01*
X1193109Y800214D02*
Y801048D01*
X1191442Y800214D02*
X1193109D01*
X1191442D02*
Y801048D01*
X1170609D02*
X1171442D01*
X1170609D02*
Y802714D01*
X1171442D01*
Y803548D01*
X1173109D01*
Y802714D02*
Y803548D01*
Y802714D02*
X1173942D01*
Y801048D02*
Y802714D01*
X1173109Y801048D02*
X1173942D01*
X1173109Y800214D02*
Y801048D01*
X1171442Y800214D02*
X1173109D01*
X1171442D02*
Y801048D01*
X1153109D02*
X1153942D01*
X1153109D02*
Y802714D01*
X1153942D01*
Y803548D01*
X1155609D01*
Y802714D02*
Y803548D01*
Y802714D02*
X1156442D01*
Y801048D02*
Y802714D01*
X1155609Y801048D02*
X1156442D01*
X1155609Y800214D02*
Y801048D01*
X1153942Y800214D02*
X1155609D01*
X1153942D02*
Y801048D01*
X1200709Y800948D02*
X1201542D01*
X1200709D02*
Y802614D01*
X1201542D01*
Y803448D01*
X1203209D01*
Y802614D02*
Y803448D01*
Y802614D02*
X1204042D01*
Y800948D02*
Y802614D01*
X1203209Y800948D02*
X1204042D01*
X1203209Y800114D02*
Y800948D01*
X1201542Y800114D02*
X1203209D01*
X1201542D02*
Y800948D01*
X1214809Y804448D02*
X1215642D01*
X1214809D02*
Y806114D01*
X1215642D01*
Y806948D01*
X1217309D01*
Y806114D02*
Y806948D01*
Y806114D02*
X1218142D01*
Y804448D02*
Y806114D01*
X1217309Y804448D02*
X1218142D01*
X1217309Y803614D02*
Y804448D01*
X1215642Y803614D02*
X1217309D01*
X1215642D02*
Y804448D01*
X1215209Y800948D02*
X1216042D01*
X1215209D02*
Y802614D01*
X1216042D01*
Y803448D01*
X1217709D01*
Y802614D02*
Y803448D01*
Y802614D02*
X1218542D01*
Y800948D02*
Y802614D01*
X1217709Y800948D02*
X1218542D01*
X1217709Y800114D02*
Y800948D01*
X1216042Y800114D02*
X1217709D01*
X1216042D02*
Y800948D01*
X1224109Y804448D02*
X1224942D01*
X1224109D02*
Y806114D01*
X1224942D01*
Y806948D01*
X1226609D01*
Y806114D02*
Y806948D01*
Y806114D02*
X1227442D01*
Y804448D02*
Y806114D01*
X1226609Y804448D02*
X1227442D01*
X1226609Y803614D02*
Y804448D01*
X1224942Y803614D02*
X1226609D01*
X1224942D02*
Y804448D01*
X1239109Y804648D02*
X1239942D01*
X1239109D02*
Y806314D01*
X1239942D01*
Y807148D01*
X1241609D01*
Y806314D02*
Y807148D01*
Y806314D02*
X1242442D01*
Y804648D02*
Y806314D01*
X1241609Y804648D02*
X1242442D01*
X1241609Y803814D02*
Y804648D01*
X1239942Y803814D02*
X1241609D01*
X1239942D02*
Y804648D01*
X1252809Y795148D02*
X1253642D01*
X1252809D02*
Y796814D01*
X1253642D01*
Y797648D01*
X1255309D01*
Y796814D02*
Y797648D01*
Y796814D02*
X1256142D01*
Y795148D02*
Y796814D01*
X1255309Y795148D02*
X1256142D01*
X1255309Y794314D02*
Y795148D01*
X1253642Y794314D02*
X1255309D01*
X1253642D02*
Y795148D01*
X1252779Y789813D02*
X1253612D01*
X1252779D02*
Y791479D01*
X1253612D01*
Y792313D01*
X1255279D01*
Y791479D02*
Y792313D01*
Y791479D02*
X1256112D01*
Y789813D02*
Y791479D01*
X1255279Y789813D02*
X1256112D01*
X1255279Y788979D02*
Y789813D01*
X1253612Y788979D02*
X1255279D01*
X1253612D02*
Y789813D01*
X1250409Y787548D02*
X1251242D01*
X1250409D02*
Y789214D01*
X1251242D01*
Y790048D01*
X1252909D01*
Y789214D02*
Y790048D01*
Y789214D02*
X1253742D01*
Y787548D02*
Y789214D01*
X1252909Y787548D02*
X1253742D01*
X1252909Y786714D02*
Y787548D01*
X1251242Y786714D02*
X1252909D01*
X1251242D02*
Y787548D01*
X1250409Y782948D02*
X1251242D01*
X1250409D02*
Y784614D01*
X1251242D01*
Y785448D01*
X1252909D01*
Y784614D02*
Y785448D01*
Y784614D02*
X1253742D01*
Y782948D02*
Y784614D01*
X1252909Y782948D02*
X1253742D01*
X1252909Y782114D02*
Y782948D01*
X1251242Y782114D02*
X1252909D01*
X1251242D02*
Y782948D01*
X1250809Y778848D02*
X1251642D01*
X1250809D02*
Y780514D01*
X1251642D01*
Y781348D01*
X1253309D01*
Y780514D02*
Y781348D01*
Y780514D02*
X1254142D01*
Y778848D02*
Y780514D01*
X1253309Y778848D02*
X1254142D01*
X1253309Y778014D02*
Y778848D01*
X1251642Y778014D02*
X1253309D01*
X1251642D02*
Y778848D01*
X1239531Y775361D02*
X1240364D01*
X1239531D02*
Y777028D01*
X1240364D01*
Y777861D01*
X1242031D01*
Y777028D02*
Y777861D01*
Y777028D02*
X1242864D01*
Y775361D02*
Y777028D01*
X1242031Y775361D02*
X1242864D01*
X1242031Y774528D02*
Y775361D01*
X1240364Y774528D02*
X1242031D01*
X1240364D02*
Y775361D01*
X1253257Y752788D02*
X1254090D01*
X1253257D02*
Y754455D01*
X1254090D01*
Y755288D01*
X1255757D01*
Y754455D02*
Y755288D01*
Y754455D02*
X1256590D01*
Y752788D02*
Y754455D01*
X1255757Y752788D02*
X1256590D01*
X1255757Y751955D02*
Y752788D01*
X1254090Y751955D02*
X1255757D01*
X1254090D02*
Y752788D01*
X1259209Y748348D02*
X1260042D01*
X1259209D02*
Y750014D01*
X1260042D01*
Y750848D01*
X1261709D01*
Y750014D02*
Y750848D01*
Y750014D02*
X1262542D01*
Y748348D02*
Y750014D01*
X1261709Y748348D02*
X1262542D01*
X1261709Y747514D02*
Y748348D01*
X1260042Y747514D02*
X1261709D01*
X1260042D02*
Y748348D01*
X1239528Y761500D02*
X1240361D01*
X1239528D02*
Y763167D01*
X1240361D01*
Y764000D01*
X1242028D01*
Y763167D02*
Y764000D01*
Y763167D02*
X1242861D01*
Y761500D02*
Y763167D01*
X1242028Y761500D02*
X1242861D01*
X1242028Y760667D02*
Y761500D01*
X1240361Y760667D02*
X1242028D01*
X1240361D02*
Y761500D01*
X1075555Y739534D02*
X1076388D01*
X1075555D02*
Y741201D01*
X1076388D01*
Y742034D01*
X1078055D01*
Y741201D02*
Y742034D01*
Y741201D02*
X1078888D01*
Y739534D02*
Y741201D01*
X1078055Y739534D02*
X1078888D01*
X1078055Y738701D02*
Y739534D01*
X1076388Y738701D02*
X1078055D01*
X1076388D02*
Y739534D01*
X1076984Y739409D02*
X1077817D01*
X1076984D02*
Y741076D01*
X1077817D01*
Y741910D01*
X1079484D01*
Y741076D02*
Y741910D01*
Y741076D02*
X1080317D01*
Y739409D02*
Y741076D01*
X1079484Y739409D02*
X1080317D01*
X1079484Y738576D02*
Y739409D01*
X1077817Y738576D02*
X1079484D01*
X1077817D02*
Y739409D01*
X1074119Y739461D02*
X1074953D01*
X1074119D02*
Y741128D01*
X1074953D01*
Y741961D01*
X1076619D01*
Y741128D02*
Y741961D01*
Y741128D02*
X1077453D01*
Y739461D02*
Y741128D01*
X1076619Y739461D02*
X1077453D01*
X1076619Y738628D02*
Y739461D01*
X1074953Y738628D02*
X1076619D01*
X1074953D02*
Y739461D01*
X1086338Y740093D02*
X1087171D01*
X1086338D02*
Y741759D01*
X1087171D01*
Y742593D01*
X1088838D01*
Y741759D02*
Y742593D01*
Y741759D02*
X1089671D01*
Y740093D02*
Y741759D01*
X1088838Y740093D02*
X1089671D01*
X1088838Y739259D02*
Y740093D01*
X1087171Y739259D02*
X1088838D01*
X1087171D02*
Y740093D01*
X1080751Y742635D02*
X1081585D01*
X1080751D02*
Y744302D01*
X1081585D01*
Y745135D01*
X1083251D01*
Y744302D02*
Y745135D01*
Y744302D02*
X1084085D01*
Y742635D02*
Y744302D01*
X1083251Y742635D02*
X1084085D01*
X1083251Y741802D02*
Y742635D01*
X1081585Y741802D02*
X1083251D01*
X1081585D02*
Y742635D01*
X1064989Y752028D02*
X1065822D01*
X1064989D02*
Y753694D01*
X1065822D01*
Y754528D01*
X1067489D01*
Y753694D02*
Y754528D01*
Y753694D02*
X1068322D01*
Y752028D02*
Y753694D01*
X1067489Y752028D02*
X1068322D01*
X1067489Y751194D02*
Y752028D01*
X1065822Y751194D02*
X1067489D01*
X1065822D02*
Y752028D01*
X1066549Y750478D02*
X1067382D01*
X1066549D02*
Y752144D01*
X1067382D01*
Y752978D01*
X1069049D01*
Y752144D02*
Y752978D01*
Y752144D02*
X1069882D01*
Y750478D02*
Y752144D01*
X1069049Y750478D02*
X1069882D01*
X1069049Y749644D02*
Y750478D01*
X1067382Y749644D02*
X1069049D01*
X1067382D02*
Y750478D01*
X1064314Y750464D02*
X1065148D01*
X1064314D02*
Y752131D01*
X1065148D01*
Y752964D01*
X1066815D01*
Y752131D02*
Y752964D01*
Y752131D02*
X1067648D01*
Y750464D02*
Y752131D01*
X1066815Y750464D02*
X1067648D01*
X1066815Y749631D02*
Y750464D01*
X1065148Y749631D02*
X1066815D01*
X1065148D02*
Y750464D01*
X1063447Y751314D02*
X1064280D01*
X1063447D02*
Y752981D01*
X1064280D01*
Y753814D01*
X1065947D01*
Y752981D02*
Y753814D01*
Y752981D02*
X1066780D01*
Y751314D02*
Y752981D01*
X1065947Y751314D02*
X1066780D01*
X1065947Y750481D02*
Y751314D01*
X1064280Y750481D02*
X1065947D01*
X1064280D02*
Y751314D01*
X1064154Y767474D02*
X1064988D01*
X1064154D02*
Y769140D01*
X1064988D01*
Y769974D01*
X1066654D01*
Y769140D02*
Y769974D01*
Y769140D02*
X1067488D01*
Y767474D02*
Y769140D01*
X1066654Y767474D02*
X1067488D01*
X1066654Y766641D02*
Y767474D01*
X1064988Y766641D02*
X1066654D01*
X1064988D02*
Y767474D01*
X1064206Y765515D02*
X1065039D01*
X1064206D02*
Y767181D01*
X1065039D01*
Y768015D01*
X1066706D01*
Y767181D02*
Y768015D01*
Y767181D02*
X1067539D01*
Y765515D02*
Y767181D01*
X1066706Y765515D02*
X1067539D01*
X1066706Y764681D02*
Y765515D01*
X1065039Y764681D02*
X1066706D01*
X1065039D02*
Y765515D01*
X1065503Y770202D02*
X1066336D01*
X1065503D02*
Y771869D01*
X1066336D01*
Y772702D01*
X1068003D01*
Y771869D02*
Y772702D01*
Y771869D02*
X1068836D01*
Y770202D02*
Y771869D01*
X1068003Y770202D02*
X1068836D01*
X1068003Y769369D02*
Y770202D01*
X1066336Y769369D02*
X1068003D01*
X1066336D02*
Y770202D01*
X1056066Y770932D02*
X1056900D01*
X1056066D02*
Y772599D01*
X1056900D01*
Y773432D01*
X1058566D01*
Y772599D02*
Y773432D01*
Y772599D02*
X1059400D01*
Y770932D02*
Y772599D01*
X1058566Y770932D02*
X1059400D01*
X1058566Y770099D02*
Y770932D01*
X1056900Y770099D02*
X1058566D01*
X1056900D02*
Y770932D01*
X1056034Y775364D02*
X1056867D01*
X1056034D02*
Y777031D01*
X1056867D01*
Y777864D01*
X1058533D01*
Y777031D02*
Y777864D01*
Y777031D02*
X1059367D01*
Y775364D02*
Y777031D01*
X1058533Y775364D02*
X1059367D01*
X1058533Y774531D02*
Y775364D01*
X1056867Y774531D02*
X1058533D01*
X1056867D02*
Y775364D01*
X1055937Y755973D02*
X1056770D01*
X1055937D02*
Y757640D01*
X1056770D01*
Y758473D01*
X1058437D01*
Y757640D02*
Y758473D01*
Y757640D02*
X1059270D01*
Y755973D02*
Y757640D01*
X1058437Y755973D02*
X1059270D01*
X1058437Y755140D02*
Y755973D01*
X1056770Y755140D02*
X1058437D01*
X1056770D02*
Y755973D01*
X1053426Y758040D02*
X1054259D01*
X1053426D02*
Y759707D01*
X1054259D01*
Y760540D01*
X1055925D01*
Y759707D02*
Y760540D01*
Y759707D02*
X1056759D01*
Y758040D02*
Y759707D01*
X1055925Y758040D02*
X1056759D01*
X1055925Y757207D02*
Y758040D01*
X1054259Y757207D02*
X1055925D01*
X1054259D02*
Y758040D01*
X1055351Y750081D02*
X1056184D01*
X1055351D02*
Y751748D01*
X1056184D01*
Y752581D01*
X1057851D01*
Y751748D02*
Y752581D01*
Y751748D02*
X1058684D01*
Y750081D02*
Y751748D01*
X1057851Y750081D02*
X1058684D01*
X1057851Y749248D02*
Y750081D01*
X1056184Y749248D02*
X1057851D01*
X1056184D02*
Y750081D01*
X1054623Y747499D02*
X1055456D01*
X1054623D02*
Y749165D01*
X1055456D01*
Y749999D01*
X1057123D01*
Y749165D02*
Y749999D01*
Y749165D02*
X1057956D01*
Y747499D02*
Y749165D01*
X1057123Y747499D02*
X1057956D01*
X1057123Y746665D02*
Y747499D01*
X1055456Y746665D02*
X1057123D01*
X1055456D02*
Y747499D01*
X1054559Y745130D02*
X1055392D01*
X1054559D02*
Y746796D01*
X1055392D01*
Y747629D01*
X1057059D01*
Y746796D02*
Y747629D01*
Y746796D02*
X1057893D01*
Y745130D02*
Y746796D01*
X1057059Y745130D02*
X1057893D01*
X1057059Y744296D02*
Y745130D01*
X1055392Y744296D02*
X1057059D01*
X1055392D02*
Y745130D01*
X1107609Y800548D02*
X1108442D01*
X1107609D02*
Y802214D01*
X1108442D01*
Y803048D01*
X1110109D01*
Y802214D02*
Y803048D01*
Y802214D02*
X1110942D01*
Y800548D02*
Y802214D01*
X1110109Y800548D02*
X1110942D01*
X1110109Y799714D02*
Y800548D01*
X1108442Y799714D02*
X1110109D01*
X1108442D02*
Y800548D01*
X1099907Y802057D02*
X1100741D01*
X1099907D02*
Y803724D01*
X1100741D01*
Y804557D01*
X1102407D01*
Y803724D02*
Y804557D01*
Y803724D02*
X1103241D01*
Y802057D02*
Y803724D01*
X1102407Y802057D02*
X1103241D01*
X1102407Y801224D02*
Y802057D01*
X1100741Y801224D02*
X1102407D01*
X1100741D02*
Y802057D01*
X1090921Y802017D02*
X1091755D01*
X1090921D02*
Y803684D01*
X1091755D01*
Y804517D01*
X1093421D01*
Y803684D02*
Y804517D01*
Y803684D02*
X1094254D01*
Y802017D02*
Y803684D01*
X1093421Y802017D02*
X1094254D01*
X1093421Y801184D02*
Y802017D01*
X1091755Y801184D02*
X1093421D01*
X1091755D02*
Y802017D01*
X1087650Y798313D02*
X1088483D01*
X1087650D02*
Y799979D01*
X1088483D01*
Y800813D01*
X1090150D01*
Y799979D02*
Y800813D01*
Y799979D02*
X1090983D01*
Y798313D02*
Y799979D01*
X1090150Y798313D02*
X1090983D01*
X1090150Y797479D02*
Y798313D01*
X1088483Y797479D02*
X1090150D01*
X1088483D02*
Y798313D01*
X1072695Y804887D02*
X1073528D01*
X1072695D02*
Y806554D01*
X1073528D01*
Y807388D01*
X1075195D01*
Y806554D02*
Y807388D01*
Y806554D02*
X1076028D01*
Y804887D02*
Y806554D01*
X1075195Y804887D02*
X1076028D01*
X1075195Y804054D02*
Y804887D01*
X1073528Y804054D02*
X1075195D01*
X1073528D02*
Y804887D01*
X1078925Y809280D02*
X1079758D01*
X1078925D02*
Y810947D01*
X1079758D01*
Y811780D01*
X1081425D01*
Y810947D02*
Y811780D01*
Y810947D02*
X1082258D01*
Y809280D02*
Y810947D01*
X1081425Y809280D02*
X1082258D01*
X1081425Y808447D02*
Y809280D01*
X1079758Y808447D02*
X1081425D01*
X1079758D02*
Y809280D01*
X1074261Y792274D02*
X1075094D01*
X1074261D02*
Y793941D01*
X1075094D01*
Y794774D01*
X1076761D01*
Y793941D02*
Y794774D01*
Y793941D02*
X1077594D01*
Y792274D02*
Y793941D01*
X1076761Y792274D02*
X1077594D01*
X1076761Y791441D02*
Y792274D01*
X1075094Y791441D02*
X1076761D01*
X1075094D02*
Y792274D01*
X1071219Y787076D02*
X1072053D01*
X1071219D02*
Y788743D01*
X1072053D01*
Y789576D01*
X1073719D01*
Y788743D02*
Y789576D01*
Y788743D02*
X1074553D01*
Y787076D02*
Y788743D01*
X1073719Y787076D02*
X1074553D01*
X1073719Y786243D02*
Y787076D01*
X1072053Y786243D02*
X1073719D01*
X1072053D02*
Y787076D01*
X1077009Y789248D02*
X1077842D01*
X1077009D02*
Y790914D01*
X1077842D01*
Y791748D01*
X1079509D01*
Y790914D02*
Y791748D01*
Y790914D02*
X1080342D01*
Y789248D02*
Y790914D01*
X1079509Y789248D02*
X1080342D01*
X1079509Y788414D02*
Y789248D01*
X1077842Y788414D02*
X1079509D01*
X1077842D02*
Y789248D01*
X1081209Y787848D02*
X1082042D01*
X1081209D02*
Y789514D01*
X1082042D01*
Y790348D01*
X1083709D01*
Y789514D02*
Y790348D01*
Y789514D02*
X1084542D01*
Y787848D02*
Y789514D01*
X1083709Y787848D02*
X1084542D01*
X1083709Y787014D02*
Y787848D01*
X1082042Y787014D02*
X1083709D01*
X1082042D02*
Y787848D01*
X1077196Y785567D02*
X1078030D01*
X1077196D02*
Y787234D01*
X1078030D01*
Y788067D01*
X1079696D01*
Y787234D02*
Y788067D01*
Y787234D02*
X1080530D01*
Y785567D02*
Y787234D01*
X1079696Y785567D02*
X1080530D01*
X1079696Y784734D02*
Y785567D01*
X1078030Y784734D02*
X1079696D01*
X1078030D02*
Y785567D01*
X1071509Y783548D02*
X1072342D01*
X1071509D02*
Y785214D01*
X1072342D01*
Y786048D01*
X1074009D01*
Y785214D02*
Y786048D01*
Y785214D02*
X1074842D01*
Y783548D02*
Y785214D01*
X1074009Y783548D02*
X1074842D01*
X1074009Y782714D02*
Y783548D01*
X1072342Y782714D02*
X1074009D01*
X1072342D02*
Y783548D01*
X1076509Y782795D02*
X1077343D01*
X1076509D02*
Y784462D01*
X1077343D01*
Y785295D01*
X1079009D01*
Y784462D02*
Y785295D01*
Y784462D02*
X1079842D01*
Y782795D02*
Y784462D01*
X1079009Y782795D02*
X1079842D01*
X1079009Y781962D02*
Y782795D01*
X1077343Y781962D02*
X1079009D01*
X1077343D02*
Y782795D01*
X1084751Y782528D02*
X1085584D01*
X1084751D02*
Y784195D01*
X1085584D01*
Y785028D01*
X1087251D01*
Y784195D02*
Y785028D01*
Y784195D02*
X1088084D01*
Y782528D02*
Y784195D01*
X1087251Y782528D02*
X1088084D01*
X1087251Y781695D02*
Y782528D01*
X1085584Y781695D02*
X1087251D01*
X1085584D02*
Y782528D01*
X1084799Y780303D02*
X1085632D01*
X1084799D02*
Y781970D01*
X1085632D01*
Y782803D01*
X1087299D01*
Y781970D02*
Y782803D01*
Y781970D02*
X1088132D01*
Y780303D02*
Y781970D01*
X1087299Y780303D02*
X1088132D01*
X1087299Y779470D02*
Y780303D01*
X1085632Y779470D02*
X1087299D01*
X1085632D02*
Y780303D01*
X1062356Y764675D02*
X1063190D01*
X1062356D02*
Y766341D01*
X1063190D01*
Y767175D01*
X1064857D01*
Y766341D02*
Y767175D01*
Y766341D02*
X1065690D01*
Y764675D02*
Y766341D01*
X1064857Y764675D02*
X1065690D01*
X1064857Y763841D02*
Y764675D01*
X1063190Y763841D02*
X1064857D01*
X1063190D02*
Y764675D01*
X1051909Y764948D02*
X1052742D01*
X1051909D02*
Y766614D01*
X1052742D01*
Y767448D01*
X1054409D01*
Y766614D02*
Y767448D01*
Y766614D02*
X1055242D01*
Y764948D02*
Y766614D01*
X1054409Y764948D02*
X1055242D01*
X1054409Y764114D02*
Y764948D01*
X1052742Y764114D02*
X1054409D01*
X1052742D02*
Y764948D01*
X1049819Y766228D02*
X1050652D01*
X1049819D02*
Y767894D01*
X1050652D01*
Y768728D01*
X1052319D01*
Y767894D02*
Y768728D01*
Y767894D02*
X1053152D01*
Y766228D02*
Y767894D01*
X1052319Y766228D02*
X1053152D01*
X1052319Y765394D02*
Y766228D01*
X1050652Y765394D02*
X1052319D01*
X1050652D02*
Y766228D01*
X1044189Y766118D02*
X1045022D01*
X1044189D02*
Y767784D01*
X1045022D01*
Y768618D01*
X1046689D01*
Y767784D02*
Y768618D01*
Y767784D02*
X1047522D01*
Y766118D02*
Y767784D01*
X1046689Y766118D02*
X1047522D01*
X1046689Y765284D02*
Y766118D01*
X1045022Y765284D02*
X1046689D01*
X1045022D02*
Y766118D01*
X1044019Y764448D02*
X1044852D01*
X1044019D02*
Y766114D01*
X1044852D01*
Y766948D01*
X1046519D01*
Y766114D02*
Y766948D01*
Y766114D02*
X1047352D01*
Y764448D02*
Y766114D01*
X1046519Y764448D02*
X1047352D01*
X1046519Y763614D02*
Y764448D01*
X1044852Y763614D02*
X1046519D01*
X1044852D02*
Y764448D01*
X1234832Y775263D02*
X1235665D01*
X1234832D02*
Y776930D01*
X1235665D01*
Y777763D01*
X1237332D01*
Y776930D02*
Y777763D01*
Y776930D02*
X1238165D01*
Y775263D02*
Y776930D01*
X1237332Y775263D02*
X1238165D01*
X1237332Y774430D02*
Y775263D01*
X1235665Y774430D02*
X1237332D01*
X1235665D02*
Y775263D01*
X1234778Y778855D02*
X1235612D01*
X1234778D02*
Y780521D01*
X1235612D01*
Y781355D01*
X1237278D01*
Y780521D02*
Y781355D01*
Y780521D02*
X1238111D01*
Y778855D02*
Y780521D01*
X1237278Y778855D02*
X1238111D01*
X1237278Y778021D02*
Y778855D01*
X1235612Y778021D02*
X1237278D01*
X1235612D02*
Y778855D01*
X1155573Y753592D02*
X1156406D01*
X1155573D02*
Y755259D01*
X1156406D01*
Y756092D01*
X1158073D01*
Y755259D02*
Y756092D01*
Y755259D02*
X1158906D01*
Y753592D02*
Y755259D01*
X1158073Y753592D02*
X1158906D01*
X1158073Y752759D02*
Y753592D01*
X1156406Y752759D02*
X1158073D01*
X1156406D02*
Y753592D01*
X1155557Y749528D02*
X1156390D01*
X1155557D02*
Y751195D01*
X1156390D01*
Y752028D01*
X1158057D01*
Y751195D02*
Y752028D01*
Y751195D02*
X1158890D01*
Y749528D02*
Y751195D01*
X1158057Y749528D02*
X1158890D01*
X1158057Y748695D02*
Y749528D01*
X1156390Y748695D02*
X1158057D01*
X1156390D02*
Y749528D01*
X1174572Y769948D02*
X1175406D01*
X1174572D02*
Y771614D01*
X1175406D01*
Y772448D01*
X1177072D01*
Y771614D02*
Y772448D01*
Y771614D02*
X1177906D01*
Y769948D02*
Y771614D01*
X1177072Y769948D02*
X1177906D01*
X1177072Y769114D02*
Y769948D01*
X1175406Y769114D02*
X1177072D01*
X1175406D02*
Y769948D01*
X1172052Y767282D02*
X1172886D01*
X1172052D02*
Y768948D01*
X1172886D01*
Y769782D01*
X1174552D01*
Y768948D02*
Y769782D01*
Y768948D02*
X1175386D01*
Y767282D02*
Y768948D01*
X1174552Y767282D02*
X1175386D01*
X1174552Y766448D02*
Y767282D01*
X1172886Y766448D02*
X1174552D01*
X1172886D02*
Y767282D01*
X1172093Y770240D02*
X1172927D01*
X1172093D02*
Y771906D01*
X1172927D01*
Y772740D01*
X1174593D01*
Y771906D02*
Y772740D01*
Y771906D02*
X1175427D01*
Y770240D02*
Y771906D01*
X1174593Y770240D02*
X1175427D01*
X1174593Y769406D02*
Y770240D01*
X1172927Y769406D02*
X1174593D01*
X1172927D02*
Y770240D01*
X1173394Y766112D02*
X1174228D01*
X1173394D02*
Y767779D01*
X1174228D01*
Y768612D01*
X1175895D01*
Y767779D02*
Y768612D01*
Y767779D02*
X1176728D01*
Y766112D02*
Y767779D01*
X1175895Y766112D02*
X1176728D01*
X1175895Y765279D02*
Y766112D01*
X1174228Y765279D02*
X1175895D01*
X1174228D02*
Y766112D01*
X1171814Y765642D02*
X1172647D01*
X1171814D02*
Y767309D01*
X1172647D01*
Y768142D01*
X1174314D01*
Y767309D02*
Y768142D01*
Y767309D02*
X1175147D01*
Y765642D02*
Y767309D01*
X1174314Y765642D02*
X1175147D01*
X1174314Y764809D02*
Y765642D01*
X1172647Y764809D02*
X1174314D01*
X1172647D02*
Y765642D01*
X1251009Y744048D02*
X1251842D01*
X1251009D02*
Y745714D01*
X1251842D01*
Y746548D01*
X1253509D01*
Y745714D02*
Y746548D01*
Y745714D02*
X1254342D01*
Y744048D02*
Y745714D01*
X1253509Y744048D02*
X1254342D01*
X1253509Y743214D02*
Y744048D01*
X1251842Y743214D02*
X1253509D01*
X1251842D02*
Y744048D01*
X1054049Y762378D02*
X1054882D01*
X1054049D02*
Y764044D01*
X1054882D01*
Y764878D01*
X1056549D01*
Y764044D02*
Y764878D01*
Y764044D02*
X1057382D01*
Y762378D02*
Y764044D01*
X1056549Y762378D02*
X1057382D01*
X1056549Y761544D02*
Y762378D01*
X1054882Y761544D02*
X1056549D01*
X1054882D02*
Y762378D01*
X1049809Y761948D02*
X1050642D01*
X1049809D02*
Y763614D01*
X1050642D01*
Y764448D01*
X1052309D01*
Y763614D02*
Y764448D01*
Y763614D02*
X1053142D01*
Y761948D02*
Y763614D01*
X1052309Y761948D02*
X1053142D01*
X1052309Y761114D02*
Y761948D01*
X1050642Y761114D02*
X1052309D01*
X1050642D02*
Y761948D01*
X1036547Y753217D02*
X1037381D01*
X1036547D02*
Y754883D01*
X1037381D01*
Y755717D01*
X1039047D01*
Y754883D02*
Y755717D01*
Y754883D02*
X1039880D01*
Y753217D02*
Y754883D01*
X1039047Y753217D02*
X1039880D01*
X1039047Y752383D02*
Y753217D01*
X1037381Y752383D02*
X1039047D01*
X1037381D02*
Y753217D01*
X1036548Y754951D02*
X1037381D01*
X1036548D02*
Y756617D01*
X1037381D01*
Y757451D01*
X1039048D01*
Y756617D02*
Y757451D01*
Y756617D02*
X1039881D01*
Y754951D02*
Y756617D01*
X1039048Y754951D02*
X1039881D01*
X1039048Y754117D02*
Y754951D01*
X1037381Y754117D02*
X1039048D01*
X1037381D02*
Y754951D01*
X1049109Y734348D02*
X1049942D01*
X1049109D02*
Y736014D01*
X1049942D01*
Y736848D01*
X1051609D01*
Y736014D02*
Y736848D01*
Y736014D02*
X1052442D01*
Y734348D02*
Y736014D01*
X1051609Y734348D02*
X1052442D01*
X1051609Y733514D02*
Y734348D01*
X1049942Y733514D02*
X1051609D01*
X1049942D02*
Y734348D01*
X1053090Y729374D02*
X1053924D01*
X1053090D02*
Y731040D01*
X1053924D01*
Y731874D01*
X1055590D01*
Y731040D02*
Y731874D01*
Y731040D02*
X1056423D01*
Y729374D02*
Y731040D01*
X1055590Y729374D02*
X1056423D01*
X1055590Y728541D02*
Y729374D01*
X1053924Y728541D02*
X1055590D01*
X1053924D02*
Y729374D01*
X1056589Y726160D02*
X1057422D01*
X1056589D02*
Y727827D01*
X1057422D01*
Y728660D01*
X1059089D01*
Y727827D02*
Y728660D01*
Y727827D02*
X1059922D01*
Y726160D02*
Y727827D01*
X1059089Y726160D02*
X1059922D01*
X1059089Y725327D02*
Y726160D01*
X1057422Y725327D02*
X1059089D01*
X1057422D02*
Y726160D01*
X1043714Y734048D02*
X1044547D01*
X1043714D02*
Y735715D01*
X1044547D01*
Y736548D01*
X1046214D01*
Y735715D02*
Y736548D01*
Y735715D02*
X1047047D01*
Y734048D02*
Y735715D01*
X1046214Y734048D02*
X1047047D01*
X1046214Y733215D02*
Y734048D01*
X1044547Y733215D02*
X1046214D01*
X1044547D02*
Y734048D01*
X1047860Y729986D02*
X1048693D01*
X1047860D02*
Y731653D01*
X1048693D01*
Y732486D01*
X1050360D01*
Y731653D02*
Y732486D01*
Y731653D02*
X1051193D01*
Y729986D02*
Y731653D01*
X1050360Y729986D02*
X1051193D01*
X1050360Y729153D02*
Y729986D01*
X1048693Y729153D02*
X1050360D01*
X1048693D02*
Y729986D01*
X1046051Y731655D02*
X1046884D01*
X1046051D02*
Y733322D01*
X1046884D01*
Y734155D01*
X1048551D01*
Y733322D02*
Y734155D01*
Y733322D02*
X1049384D01*
Y731655D02*
Y733322D01*
X1048551Y731655D02*
X1049384D01*
X1048551Y730822D02*
Y731655D01*
X1046884Y730822D02*
X1048551D01*
X1046884D02*
Y731655D01*
X1041609Y736248D02*
X1042442D01*
X1041609D02*
Y737914D01*
X1042442D01*
Y738748D01*
X1044109D01*
Y737914D02*
Y738748D01*
Y737914D02*
X1044942D01*
Y736248D02*
Y737914D01*
X1044109Y736248D02*
X1044942D01*
X1044109Y735414D02*
Y736248D01*
X1042442Y735414D02*
X1044109D01*
X1042442D02*
Y736248D01*
X1038836Y759820D02*
X1039669D01*
X1038836D02*
Y761487D01*
X1039669D01*
Y762320D01*
X1041335D01*
Y761487D02*
Y762320D01*
Y761487D02*
X1042169D01*
Y759820D02*
Y761487D01*
X1041335Y759820D02*
X1042169D01*
X1041335Y758987D02*
Y759820D01*
X1039669Y758987D02*
X1041335D01*
X1039669D02*
Y759820D01*
X1040459Y759855D02*
X1041293D01*
X1040459D02*
Y761521D01*
X1041293D01*
Y762355D01*
X1042959D01*
Y761521D02*
Y762355D01*
Y761521D02*
X1043793D01*
Y759855D02*
Y761521D01*
X1042959Y759855D02*
X1043793D01*
X1042959Y759021D02*
Y759855D01*
X1041293Y759021D02*
X1042959D01*
X1041293D02*
Y759855D01*
X1042037Y759889D02*
X1042871D01*
X1042037D02*
Y761556D01*
X1042871D01*
Y762389D01*
X1044537D01*
Y761556D02*
Y762389D01*
Y761556D02*
X1045371D01*
Y759889D02*
Y761556D01*
X1044537Y759889D02*
X1045371D01*
X1044537Y759056D02*
Y759889D01*
X1042871Y759056D02*
X1044537D01*
X1042871D02*
Y759889D01*
X1050809Y758748D02*
X1051642D01*
X1050809D02*
Y760414D01*
X1051642D01*
Y761248D01*
X1053309D01*
Y760414D02*
Y761248D01*
Y760414D02*
X1054142D01*
Y758748D02*
Y760414D01*
X1053309Y758748D02*
X1054142D01*
X1053309Y757914D02*
Y758748D01*
X1051642Y757914D02*
X1053309D01*
X1051642D02*
Y758748D01*
X1036549Y765057D02*
X1037383D01*
X1036549D02*
Y766723D01*
X1037383D01*
Y767556D01*
X1039049D01*
Y766723D02*
Y767556D01*
Y766723D02*
X1039883D01*
Y765057D02*
Y766723D01*
X1039049Y765057D02*
X1039883D01*
X1039049Y764223D02*
Y765057D01*
X1037383Y764223D02*
X1039049D01*
X1037383D02*
Y765057D01*
X1184894Y724210D02*
X1185727D01*
X1184894D02*
Y725877D01*
X1185727D01*
Y726710D01*
X1187393D01*
Y725877D02*
Y726710D01*
Y725877D02*
X1188227D01*
Y724210D02*
Y725877D01*
X1187393Y724210D02*
X1188227D01*
X1187393Y723377D02*
Y724210D01*
X1185727Y723377D02*
X1187393D01*
X1185727D02*
Y724210D01*
X1170674Y715609D02*
X1171507D01*
X1170674D02*
Y717276D01*
X1171507D01*
Y718109D01*
X1173174D01*
Y717276D02*
Y718109D01*
Y717276D02*
X1174008D01*
Y715609D02*
Y717276D01*
X1173174Y715609D02*
X1174008D01*
X1173174Y714776D02*
Y715609D01*
X1171507Y714776D02*
X1173174D01*
X1171507D02*
Y715609D01*
X1166177Y712175D02*
X1167010D01*
X1166177D02*
Y713842D01*
X1167010D01*
Y714675D01*
X1168676D01*
Y713842D02*
Y714675D01*
Y713842D02*
X1169510D01*
Y712175D02*
Y713842D01*
X1168676Y712175D02*
X1169510D01*
X1168676Y711342D02*
Y712175D01*
X1167010Y711342D02*
X1168676D01*
X1167010D02*
Y712175D01*
X1191166Y713557D02*
X1192000D01*
X1191166D02*
Y715224D01*
X1192000D01*
Y716057D01*
X1193666D01*
Y715224D02*
Y716057D01*
Y715224D02*
X1194500D01*
Y713557D02*
Y715224D01*
X1193666Y713557D02*
X1194500D01*
X1193666Y712724D02*
Y713557D01*
X1192000Y712724D02*
X1193666D01*
X1192000D02*
Y713557D01*
X1186892Y713633D02*
X1187725D01*
X1186892D02*
Y715300D01*
X1187725D01*
Y716133D01*
X1189392D01*
Y715300D02*
Y716133D01*
Y715300D02*
X1190225D01*
Y713633D02*
Y715300D01*
X1189392Y713633D02*
X1190225D01*
X1189392Y712800D02*
Y713633D01*
X1187725Y712800D02*
X1189392D01*
X1187725D02*
Y713633D01*
X1200047Y713594D02*
X1200880D01*
X1200047D02*
Y715261D01*
X1200880D01*
Y716094D01*
X1202547D01*
Y715261D02*
Y716094D01*
Y715261D02*
X1203380D01*
Y713594D02*
Y715261D01*
X1202547Y713594D02*
X1203380D01*
X1202547Y712761D02*
Y713594D01*
X1200880Y712761D02*
X1202547D01*
X1200880D02*
Y713594D01*
X1194049Y713687D02*
X1194883D01*
X1194049D02*
Y715354D01*
X1194883D01*
Y716187D01*
X1196549D01*
Y715354D02*
Y716187D01*
Y715354D02*
X1197383D01*
Y713687D02*
Y715354D01*
X1196549Y713687D02*
X1197383D01*
X1196549Y712854D02*
Y713687D01*
X1194883Y712854D02*
X1196549D01*
X1194883D02*
Y713687D01*
X1209209Y713876D02*
X1210043D01*
X1209209D02*
Y715543D01*
X1210043D01*
Y716376D01*
X1211709D01*
Y715543D02*
Y716376D01*
Y715543D02*
X1212543D01*
Y713876D02*
Y715543D01*
X1211709Y713876D02*
X1212543D01*
X1211709Y713043D02*
Y713876D01*
X1210043Y713043D02*
X1211709D01*
X1210043D02*
Y713876D01*
X1214028Y713671D02*
X1214861D01*
X1214028D02*
Y715338D01*
X1214861D01*
Y716172D01*
X1216528D01*
Y715338D02*
Y716172D01*
Y715338D02*
X1217361D01*
Y713671D02*
Y715338D01*
X1216528Y713671D02*
X1217361D01*
X1216528Y712838D02*
Y713671D01*
X1214861Y712838D02*
X1216528D01*
X1214861D02*
Y713671D01*
X1189281Y710045D02*
X1190115D01*
X1189281D02*
Y711712D01*
X1190115D01*
Y712545D01*
X1191781D01*
Y711712D02*
Y712545D01*
Y711712D02*
X1192615D01*
Y710045D02*
Y711712D01*
X1191781Y710045D02*
X1192615D01*
X1191781Y709211D02*
Y710045D01*
X1190115Y709211D02*
X1191781D01*
X1190115D02*
Y710045D01*
X1183098Y710314D02*
X1183931D01*
X1183098D02*
Y711981D01*
X1183931D01*
Y712814D01*
X1185598D01*
Y711981D02*
Y712814D01*
Y711981D02*
X1186431D01*
Y710314D02*
Y711981D01*
X1185598Y710314D02*
X1186431D01*
X1185598Y709481D02*
Y710314D01*
X1183931Y709481D02*
X1185598D01*
X1183931D02*
Y710314D01*
X1228309Y800948D02*
X1229142D01*
X1228309D02*
Y802614D01*
X1229142D01*
Y803448D01*
X1230809D01*
Y802614D02*
Y803448D01*
Y802614D02*
X1231642D01*
Y800948D02*
Y802614D01*
X1230809Y800948D02*
X1231642D01*
X1230809Y800114D02*
Y800948D01*
X1229142Y800114D02*
X1230809D01*
X1229142D02*
Y800948D01*
X1227909Y804448D02*
X1228742D01*
X1227909D02*
Y806114D01*
X1228742D01*
Y806948D01*
X1230409D01*
Y806114D02*
Y806948D01*
Y806114D02*
X1231242D01*
Y804448D02*
Y806114D01*
X1230409Y804448D02*
X1231242D01*
X1230409Y803614D02*
Y804448D01*
X1228742Y803614D02*
X1230409D01*
X1228742D02*
Y804448D01*
X1243109D02*
X1243942D01*
X1243109D02*
Y806114D01*
X1243942D01*
Y806948D01*
X1245609D01*
Y806114D02*
Y806948D01*
Y806114D02*
X1246442D01*
Y804448D02*
Y806114D01*
X1245609Y804448D02*
X1246442D01*
X1245609Y803614D02*
Y804448D01*
X1243942Y803614D02*
X1245609D01*
X1243942D02*
Y804448D01*
X1233809D02*
X1234642D01*
X1233809D02*
Y806114D01*
X1234642D01*
Y806948D01*
X1236309D01*
Y806114D02*
Y806948D01*
Y806114D02*
X1237142D01*
Y804448D02*
Y806114D01*
X1236309Y804448D02*
X1237142D01*
X1236309Y803614D02*
Y804448D01*
X1234642Y803614D02*
X1236309D01*
X1234642D02*
Y804448D01*
X1219609D02*
X1220442D01*
X1219609D02*
Y806114D01*
X1220442D01*
Y806948D01*
X1222109D01*
Y806114D02*
Y806948D01*
Y806114D02*
X1222942D01*
Y804448D02*
Y806114D01*
X1222109Y804448D02*
X1222942D01*
X1222109Y803614D02*
Y804448D01*
X1220442Y803614D02*
X1222109D01*
X1220442D02*
Y804448D01*
X1200709D02*
X1201542D01*
X1200709D02*
Y806114D01*
X1201542D01*
Y806948D01*
X1203209D01*
Y806114D02*
Y806948D01*
Y806114D02*
X1204042D01*
Y804448D02*
Y806114D01*
X1203209Y804448D02*
X1204042D01*
X1203209Y803614D02*
Y804448D01*
X1201542Y803614D02*
X1203209D01*
X1201542D02*
Y804448D01*
X1190809D02*
X1191642D01*
X1190809D02*
Y806114D01*
X1191642D01*
Y806948D01*
X1193309D01*
Y806114D02*
Y806948D01*
Y806114D02*
X1194142D01*
Y804448D02*
Y806114D01*
X1193309Y804448D02*
X1194142D01*
X1193309Y803614D02*
Y804448D01*
X1191642Y803614D02*
X1193309D01*
X1191642D02*
Y804448D01*
X1185109Y801048D02*
X1185942D01*
X1185109D02*
Y802714D01*
X1185942D01*
Y803548D01*
X1187609D01*
Y802714D02*
Y803548D01*
Y802714D02*
X1188442D01*
Y801048D02*
Y802714D01*
X1187609Y801048D02*
X1188442D01*
X1187609Y800214D02*
Y801048D01*
X1185942Y800214D02*
X1187609D01*
X1185942D02*
Y801048D01*
X1179509Y804448D02*
X1180342D01*
X1179509D02*
Y806114D01*
X1180342D01*
Y806948D01*
X1182009D01*
Y806114D02*
Y806948D01*
Y806114D02*
X1182842D01*
Y804448D02*
Y806114D01*
X1182009Y804448D02*
X1182842D01*
X1182009Y803614D02*
Y804448D01*
X1180342Y803614D02*
X1182009D01*
X1180342D02*
Y804448D01*
X1174709Y801048D02*
X1175542D01*
X1174709D02*
Y802714D01*
X1175542D01*
Y803548D01*
X1177209D01*
Y802714D02*
Y803548D01*
Y802714D02*
X1178042D01*
Y801048D02*
Y802714D01*
X1177209Y801048D02*
X1178042D01*
X1177209Y800214D02*
Y801048D01*
X1175542Y800214D02*
X1177209D01*
X1175542D02*
Y801048D01*
X1170609Y804448D02*
X1171442D01*
X1170609D02*
Y806114D01*
X1171442D01*
Y806948D01*
X1173109D01*
Y806114D02*
Y806948D01*
Y806114D02*
X1173942D01*
Y804448D02*
Y806114D01*
X1173109Y804448D02*
X1173942D01*
X1173109Y803614D02*
Y804448D01*
X1171442Y803614D02*
X1173109D01*
X1171442D02*
Y804448D01*
X1161909D02*
X1162742D01*
X1161909D02*
Y806114D01*
X1162742D01*
Y806948D01*
X1164409D01*
Y806114D02*
Y806948D01*
Y806114D02*
X1165242D01*
Y804448D02*
Y806114D01*
X1164409Y804448D02*
X1165242D01*
X1164409Y803614D02*
Y804448D01*
X1162742Y803614D02*
X1164409D01*
X1162742D02*
Y804448D01*
X1166109Y801048D02*
X1166942D01*
X1166109D02*
Y802714D01*
X1166942D01*
Y803548D01*
X1168609D01*
Y802714D02*
Y803548D01*
Y802714D02*
X1169442D01*
Y801048D02*
Y802714D01*
X1168609Y801048D02*
X1169442D01*
X1168609Y800214D02*
Y801048D01*
X1166942Y800214D02*
X1168609D01*
X1166942D02*
Y801048D01*
X1157409D02*
X1158242D01*
X1157409D02*
Y802714D01*
X1158242D01*
Y803548D01*
X1159909D01*
Y802714D02*
Y803548D01*
Y802714D02*
X1160742D01*
Y801048D02*
Y802714D01*
X1159909Y801048D02*
X1160742D01*
X1159909Y800214D02*
Y801048D01*
X1158242Y800214D02*
X1159909D01*
X1158242D02*
Y801048D01*
X1152509Y804448D02*
X1153342D01*
X1152509D02*
Y806114D01*
X1153342D01*
Y806948D01*
X1155009D01*
Y806114D02*
Y806948D01*
Y806114D02*
X1155842D01*
Y804448D02*
Y806114D01*
X1155009Y804448D02*
X1155842D01*
X1155009Y803614D02*
Y804448D01*
X1153342Y803614D02*
X1155009D01*
X1153342D02*
Y804448D01*
X1148609Y801048D02*
X1149442D01*
X1148609D02*
Y802714D01*
X1149442D01*
Y803548D01*
X1151109D01*
Y802714D02*
Y803548D01*
Y802714D02*
X1151942D01*
Y801048D02*
Y802714D01*
X1151109Y801048D02*
X1151942D01*
X1151109Y800214D02*
Y801048D01*
X1149442Y800214D02*
X1151109D01*
X1149442D02*
Y801048D01*
X1143709Y804448D02*
X1144542D01*
X1143709D02*
Y806114D01*
X1144542D01*
Y806948D01*
X1146209D01*
Y806114D02*
Y806948D01*
Y806114D02*
X1147042D01*
Y804448D02*
Y806114D01*
X1146209Y804448D02*
X1147042D01*
X1146209Y803614D02*
Y804448D01*
X1144542Y803614D02*
X1146209D01*
X1144542D02*
Y804448D01*
X1122309Y801648D02*
X1123142D01*
X1122309D02*
Y803314D01*
X1123142D01*
Y804148D01*
X1124809D01*
Y803314D02*
Y804148D01*
Y803314D02*
X1125642D01*
Y801648D02*
Y803314D01*
X1124809Y801648D02*
X1125642D01*
X1124809Y800814D02*
Y801648D01*
X1123142Y800814D02*
X1124809D01*
X1123142D02*
Y801648D01*
X1127209Y800448D02*
X1128042D01*
X1127209D02*
Y802114D01*
X1128042D01*
Y802948D01*
X1129709D01*
Y802114D02*
Y802948D01*
Y802114D02*
X1130542D01*
Y800448D02*
Y802114D01*
X1129709Y800448D02*
X1130542D01*
X1129709Y799614D02*
Y800448D01*
X1128042Y799614D02*
X1129709D01*
X1128042D02*
Y800448D01*
X1118609Y795448D02*
X1119442D01*
X1118609D02*
Y797114D01*
X1119442D01*
Y797948D01*
X1121109D01*
Y797114D02*
Y797948D01*
Y797114D02*
X1121942D01*
Y795448D02*
Y797114D01*
X1121109Y795448D02*
X1121942D01*
X1121109Y794614D02*
Y795448D01*
X1119442Y794614D02*
X1121109D01*
X1119442D02*
Y795448D01*
X1121809Y789548D02*
X1122642D01*
X1121809D02*
Y791214D01*
X1122642D01*
Y792048D01*
X1124309D01*
Y791214D02*
Y792048D01*
Y791214D02*
X1125142D01*
Y789548D02*
Y791214D01*
X1124309Y789548D02*
X1125142D01*
X1124309Y788714D02*
Y789548D01*
X1122642Y788714D02*
X1124309D01*
X1122642D02*
Y789548D01*
X1118309Y786748D02*
X1119142D01*
X1118309D02*
Y788414D01*
X1119142D01*
Y789248D01*
X1120809D01*
Y788414D02*
Y789248D01*
Y788414D02*
X1121642D01*
Y786748D02*
Y788414D01*
X1120809Y786748D02*
X1121642D01*
X1120809Y785914D02*
Y786748D01*
X1119142Y785914D02*
X1120809D01*
X1119142D02*
Y786748D01*
X1118209Y789848D02*
X1119042D01*
X1118209D02*
Y791514D01*
X1119042D01*
Y792348D01*
X1120709D01*
Y791514D02*
Y792348D01*
Y791514D02*
X1121542D01*
Y789848D02*
Y791514D01*
X1120709Y789848D02*
X1121542D01*
X1120709Y789014D02*
Y789848D01*
X1119042Y789014D02*
X1120709D01*
X1119042D02*
Y789848D01*
X1121809Y783548D02*
X1122642D01*
X1121809D02*
Y785214D01*
X1122642D01*
Y786048D01*
X1124309D01*
Y785214D02*
Y786048D01*
Y785214D02*
X1125142D01*
Y783548D02*
Y785214D01*
X1124309Y783548D02*
X1125142D01*
X1124309Y782714D02*
Y783548D01*
X1122642Y782714D02*
X1124309D01*
X1122642D02*
Y783548D01*
X1118309Y780048D02*
X1119142D01*
X1118309D02*
Y781714D01*
X1119142D01*
Y782548D01*
X1120809D01*
Y781714D02*
Y782548D01*
Y781714D02*
X1121642D01*
Y780048D02*
Y781714D01*
X1120809Y780048D02*
X1121642D01*
X1120809Y779214D02*
Y780048D01*
X1119142Y779214D02*
X1120809D01*
X1119142D02*
Y780048D01*
X1127409Y770948D02*
X1128242D01*
X1127409D02*
Y772614D01*
X1128242D01*
Y773448D01*
X1129909D01*
Y772614D02*
Y773448D01*
Y772614D02*
X1130742D01*
Y770948D02*
Y772614D01*
X1129909Y770948D02*
X1130742D01*
X1129909Y770114D02*
Y770948D01*
X1128242Y770114D02*
X1129909D01*
X1128242D02*
Y770948D01*
X1129165Y769404D02*
X1129998D01*
X1129165D02*
Y771070D01*
X1129998D01*
Y771904D01*
X1131664D01*
Y771070D02*
Y771904D01*
Y771070D02*
X1132498D01*
Y769404D02*
Y771070D01*
X1131664Y769404D02*
X1132498D01*
X1131664Y768570D02*
Y769404D01*
X1129998Y768570D02*
X1131664D01*
X1129998D02*
Y769404D01*
X1125769Y771205D02*
X1126602D01*
X1125769D02*
Y772871D01*
X1126602D01*
Y773705D01*
X1128269D01*
Y772871D02*
Y773705D01*
Y772871D02*
X1129102D01*
Y771205D02*
Y772871D01*
X1128269Y771205D02*
X1129102D01*
X1128269Y770371D02*
Y771205D01*
X1126602Y770371D02*
X1128269D01*
X1126602D02*
Y771205D01*
X1122898Y771223D02*
X1123732D01*
X1122898D02*
Y772890D01*
X1123732D01*
Y773723D01*
X1125398D01*
Y772890D02*
Y773723D01*
Y772890D02*
X1126232D01*
Y771223D02*
Y772890D01*
X1125398Y771223D02*
X1126232D01*
X1125398Y770390D02*
Y771223D01*
X1123732Y770390D02*
X1125398D01*
X1123732D02*
Y771223D01*
X1120347D02*
X1121180D01*
X1120347D02*
Y772890D01*
X1121180D01*
Y773723D01*
X1122847D01*
Y772890D02*
Y773723D01*
Y772890D02*
X1123680D01*
Y771223D02*
Y772890D01*
X1122847Y771223D02*
X1123680D01*
X1122847Y770390D02*
Y771223D01*
X1121180Y770390D02*
X1122847D01*
X1121180D02*
Y771223D01*
X1120194Y767813D02*
X1121027D01*
X1120194D02*
Y769480D01*
X1121027D01*
Y770313D01*
X1122694D01*
Y769480D02*
Y770313D01*
Y769480D02*
X1123528D01*
Y767813D02*
Y769480D01*
X1122694Y767813D02*
X1123528D01*
X1122694Y766980D02*
Y767813D01*
X1121027Y766980D02*
X1122694D01*
X1121027D02*
Y767813D01*
X1122735Y767794D02*
X1123568D01*
X1122735D02*
Y769460D01*
X1123568D01*
Y770294D01*
X1125235D01*
Y769460D02*
Y770294D01*
Y769460D02*
X1126068D01*
Y767794D02*
Y769460D01*
X1125235Y767794D02*
X1126068D01*
X1125235Y766961D02*
Y767794D01*
X1123568Y766961D02*
X1125235D01*
X1123568D02*
Y767794D01*
X1118309Y772348D02*
X1119142D01*
X1118309D02*
Y774014D01*
X1119142D01*
Y774848D01*
X1120809D01*
Y774014D02*
Y774848D01*
Y774014D02*
X1121642D01*
Y772348D02*
Y774014D01*
X1120809Y772348D02*
X1121642D01*
X1120809Y771514D02*
Y772348D01*
X1119142Y771514D02*
X1120809D01*
X1119142D02*
Y772348D01*
X1115425Y766671D02*
X1116258D01*
X1115425D02*
Y768337D01*
X1116258D01*
Y769171D01*
X1117925D01*
Y768337D02*
Y769171D01*
Y768337D02*
X1118758D01*
Y766671D02*
Y768337D01*
X1117925Y766671D02*
X1118758D01*
X1117925Y765837D02*
Y766671D01*
X1116258Y765837D02*
X1117925D01*
X1116258D02*
Y766671D01*
X1113426Y766715D02*
X1114259D01*
X1113426D02*
Y768381D01*
X1114259D01*
Y769215D01*
X1115926D01*
Y768381D02*
Y769215D01*
Y768381D02*
X1116759D01*
Y766715D02*
Y768381D01*
X1115926Y766715D02*
X1116759D01*
X1115926Y765881D02*
Y766715D01*
X1114259Y765881D02*
X1115926D01*
X1114259D02*
Y766715D01*
X1117615Y766759D02*
X1118449D01*
X1117615D02*
Y768425D01*
X1118449D01*
Y769259D01*
X1120115D01*
Y768425D02*
Y769259D01*
Y768425D02*
X1120949D01*
Y766759D02*
Y768425D01*
X1120115Y766759D02*
X1120949D01*
X1120115Y765925D02*
Y766759D01*
X1118449Y765925D02*
X1120115D01*
X1118449D02*
Y766759D01*
X1086369Y737821D02*
X1087203D01*
X1086369D02*
Y739488D01*
X1087203D01*
Y740321D01*
X1088869D01*
Y739488D02*
Y740321D01*
Y739488D02*
X1089703D01*
Y737821D02*
Y739488D01*
X1088869Y737821D02*
X1089703D01*
X1088869Y736988D02*
Y737821D01*
X1087203Y736988D02*
X1088869D01*
X1087203D02*
Y737821D01*
X1084183Y735900D02*
X1085016D01*
X1084183D02*
Y737567D01*
X1085016D01*
Y738400D01*
X1086683D01*
Y737567D02*
Y738400D01*
Y737567D02*
X1087516D01*
Y735900D02*
Y737567D01*
X1086683Y735900D02*
X1087516D01*
X1086683Y735067D02*
Y735900D01*
X1085016Y735067D02*
X1086683D01*
X1085016D02*
Y735900D01*
X1082075Y742388D02*
X1082909D01*
X1082075D02*
Y744055D01*
X1082909D01*
Y744888D01*
X1084575D01*
Y744055D02*
Y744888D01*
Y744055D02*
X1085409D01*
Y742388D02*
Y744055D01*
X1084575Y742388D02*
X1085409D01*
X1084575Y741555D02*
Y742388D01*
X1082909Y741555D02*
X1084575D01*
X1082909D02*
Y742388D01*
X1086429Y750174D02*
X1087262D01*
X1086429D02*
Y751841D01*
X1087262D01*
Y752674D01*
X1088929D01*
Y751841D02*
Y752674D01*
Y751841D02*
X1089762D01*
Y750174D02*
Y751841D01*
X1088929Y750174D02*
X1089762D01*
X1088929Y749341D02*
Y750174D01*
X1087262Y749341D02*
X1088929D01*
X1087262D02*
Y750174D01*
X1084209Y741716D02*
X1085042D01*
X1084209D02*
Y743383D01*
X1085042D01*
Y744216D01*
X1086709D01*
Y743383D02*
Y744216D01*
Y743383D02*
X1087542D01*
Y741716D02*
Y743383D01*
X1086709Y741716D02*
X1087542D01*
X1086709Y740883D02*
Y741716D01*
X1085042Y740883D02*
X1086709D01*
X1085042D02*
Y741716D01*
X1088804Y742710D02*
X1089638D01*
X1088804D02*
Y744377D01*
X1089638D01*
Y745210D01*
X1091304D01*
Y744377D02*
Y745210D01*
Y744377D02*
X1092138D01*
Y742710D02*
Y744377D01*
X1091304Y742710D02*
X1092138D01*
X1091304Y741877D02*
Y742710D01*
X1089638Y741877D02*
X1091304D01*
X1089638D02*
Y742710D01*
X1086458Y742707D02*
X1087291D01*
X1086458D02*
Y744374D01*
X1087291D01*
Y745207D01*
X1088958D01*
Y744374D02*
Y745207D01*
Y744374D02*
X1089791D01*
Y742707D02*
Y744374D01*
X1088958Y742707D02*
X1089791D01*
X1088958Y741874D02*
Y742707D01*
X1087291Y741874D02*
X1088958D01*
X1087291D02*
Y742707D01*
X1087097Y744500D02*
X1087930D01*
X1087097D02*
Y746167D01*
X1087930D01*
Y747000D01*
X1089597D01*
Y746167D02*
Y747000D01*
Y746167D02*
X1090430D01*
Y744500D02*
Y746167D01*
X1089597Y744500D02*
X1090430D01*
X1089597Y743667D02*
Y744500D01*
X1087930Y743667D02*
X1089597D01*
X1087930D02*
Y744500D01*
X1086597Y748215D02*
X1087430D01*
X1086597D02*
Y749882D01*
X1087430D01*
Y750715D01*
X1089097D01*
Y749882D02*
Y750715D01*
Y749882D02*
X1089930D01*
Y748215D02*
Y749882D01*
X1089097Y748215D02*
X1089930D01*
X1089097Y747382D02*
Y748215D01*
X1087430Y747382D02*
X1089097D01*
X1087430D02*
Y748215D01*
X1094720Y747681D02*
X1095553D01*
X1094720D02*
Y749348D01*
X1095553D01*
Y750181D01*
X1097220D01*
Y749348D02*
Y750181D01*
Y749348D02*
X1098053D01*
Y747681D02*
Y749348D01*
X1097220Y747681D02*
X1098053D01*
X1097220Y746848D02*
Y747681D01*
X1095553Y746848D02*
X1097220D01*
X1095553D02*
Y747681D01*
X1093303Y746346D02*
X1094137D01*
X1093303D02*
Y748012D01*
X1094137D01*
Y748846D01*
X1095803D01*
Y748012D02*
Y748846D01*
Y748012D02*
X1096637D01*
Y746346D02*
Y748012D01*
X1095803Y746346D02*
X1096637D01*
X1095803Y745512D02*
Y746346D01*
X1094137Y745512D02*
X1095803D01*
X1094137D02*
Y746346D01*
X1090875Y746184D02*
X1091709D01*
X1090875D02*
Y747851D01*
X1091709D01*
Y748684D01*
X1093375D01*
Y747851D02*
Y748684D01*
Y747851D02*
X1094209D01*
Y746184D02*
Y747851D01*
X1093375Y746184D02*
X1094209D01*
X1093375Y745351D02*
Y746184D01*
X1091709Y745351D02*
X1093375D01*
X1091709D02*
Y746184D01*
X1089747Y751599D02*
X1090581D01*
X1089747D02*
Y753266D01*
X1090581D01*
Y754099D01*
X1092247D01*
Y753266D02*
Y754099D01*
Y753266D02*
X1093081D01*
Y751599D02*
Y753266D01*
X1092247Y751599D02*
X1093081D01*
X1092247Y750766D02*
Y751599D01*
X1090581Y750766D02*
X1092247D01*
X1090581D02*
Y751599D01*
X1115307Y752663D02*
X1116140D01*
X1115307D02*
Y754330D01*
X1116140D01*
Y755163D01*
X1117807D01*
Y754330D02*
Y755163D01*
Y754330D02*
X1118640D01*
Y752663D02*
Y754330D01*
X1117807Y752663D02*
X1118640D01*
X1117807Y751830D02*
Y752663D01*
X1116140Y751830D02*
X1117807D01*
X1116140D02*
Y752663D01*
X1087109Y779848D02*
X1087942D01*
X1087109D02*
Y781514D01*
X1087942D01*
Y782348D01*
X1089609D01*
Y781514D02*
Y782348D01*
Y781514D02*
X1090442D01*
Y779848D02*
Y781514D01*
X1089609Y779848D02*
X1090442D01*
X1089609Y779014D02*
Y779848D01*
X1087942Y779014D02*
X1089609D01*
X1087942D02*
Y779848D01*
X1247409Y801048D02*
X1248242D01*
X1247409D02*
Y802714D01*
X1248242D01*
Y803548D01*
X1249909D01*
Y802714D02*
Y803548D01*
Y802714D02*
X1250742D01*
Y801048D02*
Y802714D01*
X1249909Y801048D02*
X1250742D01*
X1249909Y800214D02*
Y801048D01*
X1248242Y800214D02*
X1249909D01*
X1248242D02*
Y801048D01*
X1237409Y800948D02*
X1238242D01*
X1237409D02*
Y802614D01*
X1238242D01*
Y803448D01*
X1239909D01*
Y802614D02*
Y803448D01*
Y802614D02*
X1240742D01*
Y800948D02*
Y802614D01*
X1239909Y800948D02*
X1240742D01*
X1239909Y800114D02*
Y800948D01*
X1238242Y800114D02*
X1239909D01*
X1238242D02*
Y800948D01*
X1247809Y796648D02*
X1248642D01*
X1247809D02*
Y798314D01*
X1248642D01*
Y799148D01*
X1250309D01*
Y798314D02*
Y799148D01*
Y798314D02*
X1251142D01*
Y796648D02*
Y798314D01*
X1250309Y796648D02*
X1251142D01*
X1250309Y795814D02*
Y796648D01*
X1248642Y795814D02*
X1250309D01*
X1248642D02*
Y796648D01*
X1252322Y800811D02*
X1253155D01*
X1252322D02*
Y802478D01*
X1253155D01*
Y803311D01*
X1254822D01*
Y802478D02*
Y803311D01*
Y802478D02*
X1255655D01*
Y800811D02*
Y802478D01*
X1254822Y800811D02*
X1255655D01*
X1254822Y799978D02*
Y800811D01*
X1253155Y799978D02*
X1254822D01*
X1253155D02*
Y800811D01*
X1252322Y804023D02*
X1253155D01*
X1252322D02*
Y805689D01*
X1253155D01*
Y806522D01*
X1254822D01*
Y805689D02*
Y806522D01*
Y805689D02*
X1255655D01*
Y804023D02*
Y805689D01*
X1254822Y804023D02*
X1255655D01*
X1254822Y803189D02*
Y804023D01*
X1253155Y803189D02*
X1254822D01*
X1253155D02*
Y804023D01*
X1247509Y804448D02*
X1248342D01*
X1247509D02*
Y806114D01*
X1248342D01*
Y806948D01*
X1250009D01*
Y806114D02*
Y806948D01*
Y806114D02*
X1250842D01*
Y804448D02*
Y806114D01*
X1250009Y804448D02*
X1250842D01*
X1250009Y803614D02*
Y804448D01*
X1248342Y803614D02*
X1250009D01*
X1248342D02*
Y804448D01*
X1207080Y793537D02*
X1207914D01*
X1207080D02*
Y795204D01*
X1207914D01*
Y796037D01*
X1209581D01*
Y795204D02*
Y796037D01*
Y795204D02*
X1210414D01*
Y793537D02*
Y795204D01*
X1209581Y793537D02*
X1210414D01*
X1209581Y792704D02*
Y793537D01*
X1207914Y792704D02*
X1209581D01*
X1207914D02*
Y793537D01*
X1205002Y792023D02*
X1205835D01*
X1205002D02*
Y793690D01*
X1205835D01*
Y794523D01*
X1207501D01*
Y793690D02*
Y794523D01*
Y793690D02*
X1208335D01*
Y792023D02*
Y793690D01*
X1207501Y792023D02*
X1208335D01*
X1207501Y791190D02*
Y792023D01*
X1205835Y791190D02*
X1207501D01*
X1205835D02*
Y792023D01*
X1200761Y793764D02*
X1201594D01*
X1200761D02*
Y795431D01*
X1201594D01*
Y796264D01*
X1203261D01*
Y795431D02*
Y796264D01*
Y795431D02*
X1204094D01*
Y793764D02*
Y795431D01*
X1203261Y793764D02*
X1204094D01*
X1203261Y792931D02*
Y793764D01*
X1201594Y792931D02*
X1203261D01*
X1201594D02*
Y793764D01*
X1201924Y793746D02*
X1202757D01*
X1201924D02*
Y795413D01*
X1202757D01*
Y796246D01*
X1204424D01*
Y795413D02*
Y796246D01*
Y795413D02*
X1205257D01*
Y793746D02*
Y795413D01*
X1204424Y793746D02*
X1205257D01*
X1204424Y792913D02*
Y793746D01*
X1202757Y792913D02*
X1204424D01*
X1202757D02*
Y793746D01*
X1200690Y792118D02*
X1201523D01*
X1200690D02*
Y793785D01*
X1201523D01*
Y794618D01*
X1203189D01*
Y793785D02*
Y794618D01*
Y793785D02*
X1204023D01*
Y792118D02*
Y793785D01*
X1203189Y792118D02*
X1204023D01*
X1203189Y791285D02*
Y792118D01*
X1201523Y791285D02*
X1203189D01*
X1201523D02*
Y792118D01*
X1200511Y785552D02*
X1201344D01*
X1200511D02*
Y787219D01*
X1201344D01*
Y788052D01*
X1203011D01*
Y787219D02*
Y788052D01*
Y787219D02*
X1203844D01*
Y785552D02*
Y787219D01*
X1203011Y785552D02*
X1203844D01*
X1203011Y784719D02*
Y785552D01*
X1201344Y784719D02*
X1203011D01*
X1201344D02*
Y785552D01*
X1205592Y785892D02*
X1206425D01*
X1205592D02*
Y787559D01*
X1206425D01*
Y788392D01*
X1208092D01*
Y787559D02*
Y788392D01*
Y787559D02*
X1208925D01*
Y785892D02*
Y787559D01*
X1208092Y785892D02*
X1208925D01*
X1208092Y785059D02*
Y785892D01*
X1206425Y785059D02*
X1208092D01*
X1206425D02*
Y785892D01*
X1204196D02*
X1205030D01*
X1204196D02*
Y787559D01*
X1205030D01*
Y788392D01*
X1206696D01*
Y787559D02*
Y788392D01*
Y787559D02*
X1207530D01*
Y785892D02*
Y787559D01*
X1206696Y785892D02*
X1207530D01*
X1206696Y785059D02*
Y785892D01*
X1205030Y785059D02*
X1206696D01*
X1205030D02*
Y785892D01*
X1207310Y785910D02*
X1208143D01*
X1207310D02*
Y787576D01*
X1208143D01*
Y788410D01*
X1209809D01*
Y787576D02*
Y788410D01*
Y787576D02*
X1210643D01*
Y785910D02*
Y787576D01*
X1209809Y785910D02*
X1210643D01*
X1209809Y785077D02*
Y785910D01*
X1208143Y785077D02*
X1209809D01*
X1208143D02*
Y785910D01*
X1203642Y784264D02*
X1204475D01*
X1203642D02*
Y785930D01*
X1204475D01*
Y786764D01*
X1206142D01*
Y785930D02*
Y786764D01*
Y785930D02*
X1206975D01*
Y784264D02*
Y785930D01*
X1206142Y784264D02*
X1206975D01*
X1206142Y783430D02*
Y784264D01*
X1204475Y783430D02*
X1206142D01*
X1204475D02*
Y784264D01*
X1205520Y784282D02*
X1206354D01*
X1205520D02*
Y785948D01*
X1206354D01*
Y786782D01*
X1208020D01*
Y785948D02*
Y786782D01*
Y785948D02*
X1208854D01*
Y784282D02*
Y785948D01*
X1208020Y784282D02*
X1208854D01*
X1208020Y783448D02*
Y784282D01*
X1206354Y783448D02*
X1208020D01*
X1206354D02*
Y784282D01*
X1207685Y784300D02*
X1208519D01*
X1207685D02*
Y785966D01*
X1208519D01*
Y786800D01*
X1210185D01*
Y785966D02*
Y786800D01*
Y785966D02*
X1211018D01*
Y784300D02*
Y785966D01*
X1210185Y784300D02*
X1211018D01*
X1210185Y783466D02*
Y784300D01*
X1208519Y783466D02*
X1210185D01*
X1208519D02*
Y784300D01*
X1196830Y783565D02*
X1197663D01*
X1196830D02*
Y785231D01*
X1197663D01*
Y786065D01*
X1199330D01*
Y785231D02*
Y786065D01*
Y785231D02*
X1200163D01*
Y783565D02*
Y785231D01*
X1199330Y783565D02*
X1200163D01*
X1199330Y782731D02*
Y783565D01*
X1197663Y782731D02*
X1199330D01*
X1197663D02*
Y783565D01*
X1192788Y785531D02*
X1193621D01*
X1192788D02*
Y787198D01*
X1193621D01*
Y788031D01*
X1195288D01*
Y787198D02*
Y788031D01*
Y787198D02*
X1196121D01*
Y785531D02*
Y787198D01*
X1195288Y785531D02*
X1196121D01*
X1195288Y784698D02*
Y785531D01*
X1193621Y784698D02*
X1195288D01*
X1193621D02*
Y785531D01*
X1194574Y785572D02*
X1195408D01*
X1194574D02*
Y787239D01*
X1195408D01*
Y788072D01*
X1197074D01*
Y787239D02*
Y788072D01*
Y787239D02*
X1197908D01*
Y785572D02*
Y787239D01*
X1197074Y785572D02*
X1197908D01*
X1197074Y784739D02*
Y785572D01*
X1195408Y784739D02*
X1197074D01*
X1195408D02*
Y785572D01*
X1188552Y788976D02*
X1189385D01*
X1188552D02*
Y790642D01*
X1189385D01*
Y791476D01*
X1191052D01*
Y790642D02*
Y791476D01*
Y790642D02*
X1191885D01*
Y788976D02*
Y790642D01*
X1191052Y788976D02*
X1191885D01*
X1191052Y788142D02*
Y788976D01*
X1189385Y788142D02*
X1191052D01*
X1189385D02*
Y788976D01*
X1189083Y790235D02*
X1189917D01*
X1189083D02*
Y791901D01*
X1189917D01*
Y792735D01*
X1191584D01*
Y791901D02*
Y792735D01*
Y791901D02*
X1192417D01*
Y790235D02*
Y791901D01*
X1191584Y790235D02*
X1192417D01*
X1191584Y789401D02*
Y790235D01*
X1189917Y789401D02*
X1191584D01*
X1189917D02*
Y790235D01*
X1190440Y791074D02*
X1191274D01*
X1190440D02*
Y792741D01*
X1191274D01*
Y793574D01*
X1192941D01*
Y792741D02*
Y793574D01*
Y792741D02*
X1193774D01*
Y791074D02*
Y792741D01*
X1192941Y791074D02*
X1193774D01*
X1192941Y790241D02*
Y791074D01*
X1191274Y790241D02*
X1192941D01*
X1191274D02*
Y791074D01*
X1192634Y791686D02*
X1193468D01*
X1192634D02*
Y793353D01*
X1193468D01*
Y794186D01*
X1195134D01*
Y793353D02*
Y794186D01*
Y793353D02*
X1195968D01*
Y791686D02*
Y793353D01*
X1195134Y791686D02*
X1195968D01*
X1195134Y790853D02*
Y791686D01*
X1193468Y790853D02*
X1195134D01*
X1193468D02*
Y791686D01*
X1196413D02*
X1197246D01*
X1196413D02*
Y793353D01*
X1197246D01*
Y794186D01*
X1198913D01*
Y793353D02*
Y794186D01*
Y793353D02*
X1199746D01*
Y791686D02*
Y793353D01*
X1198913Y791686D02*
X1199746D01*
X1198913Y790853D02*
Y791686D01*
X1197246Y790853D02*
X1198913D01*
X1197246D02*
Y791686D01*
X1196413Y793189D02*
X1197246D01*
X1196413D02*
Y794856D01*
X1197246D01*
Y795689D01*
X1198913D01*
Y794856D02*
Y795689D01*
Y794856D02*
X1199746D01*
Y793189D02*
Y794856D01*
X1198913Y793189D02*
X1199746D01*
X1198913Y792356D02*
Y793189D01*
X1197246Y792356D02*
X1198913D01*
X1197246D02*
Y793189D01*
X1196253Y796269D02*
X1197086D01*
X1196253D02*
Y797936D01*
X1197086D01*
Y798769D01*
X1198753D01*
Y797936D02*
Y798769D01*
Y797936D02*
X1199586D01*
Y796269D02*
Y797936D01*
X1198753Y796269D02*
X1199586D01*
X1198753Y795436D02*
Y796269D01*
X1197086Y795436D02*
X1198753D01*
X1197086D02*
Y796269D01*
X1192386Y795396D02*
X1193220D01*
X1192386D02*
Y797062D01*
X1193220D01*
Y797896D01*
X1194886D01*
Y797062D02*
Y797896D01*
Y797062D02*
X1195720D01*
Y795396D02*
Y797062D01*
X1194886Y795396D02*
X1195720D01*
X1194886Y794562D02*
Y795396D01*
X1193220Y794562D02*
X1194886D01*
X1193220D02*
Y795396D01*
X1192386Y794117D02*
X1193220D01*
X1192386D02*
Y795784D01*
X1193220D01*
Y796617D01*
X1194886D01*
Y795784D02*
Y796617D01*
Y795784D02*
X1195720D01*
Y794117D02*
Y795784D01*
X1194886Y794117D02*
X1195720D01*
X1194886Y793284D02*
Y794117D01*
X1193220Y793284D02*
X1194886D01*
X1193220D02*
Y794117D01*
X1190936Y794071D02*
X1191770D01*
X1190936D02*
Y795737D01*
X1191770D01*
Y796571D01*
X1193436D01*
Y795737D02*
Y796571D01*
Y795737D02*
X1194270D01*
Y794071D02*
Y795737D01*
X1193436Y794071D02*
X1194270D01*
X1193436Y793237D02*
Y794071D01*
X1191770Y793237D02*
X1193436D01*
X1191770D02*
Y794071D01*
X1188972Y793509D02*
X1189805D01*
X1188972D02*
Y795176D01*
X1189805D01*
Y796009D01*
X1191472D01*
Y795176D02*
Y796009D01*
Y795176D02*
X1192305D01*
Y793509D02*
Y795176D01*
X1191472Y793509D02*
X1192305D01*
X1191472Y792676D02*
Y793509D01*
X1189805Y792676D02*
X1191472D01*
X1189805D02*
Y793509D01*
X1187803Y792418D02*
X1188636D01*
X1187803D02*
Y794085D01*
X1188636D01*
Y794918D01*
X1190303D01*
Y794085D02*
Y794918D01*
Y794085D02*
X1191136D01*
Y792418D02*
Y794085D01*
X1190303Y792418D02*
X1191136D01*
X1190303Y791585D02*
Y792418D01*
X1188636Y791585D02*
X1190303D01*
X1188636D02*
Y792418D01*
X1186758Y791436D02*
X1187591D01*
X1186758D02*
Y793102D01*
X1187591D01*
Y793936D01*
X1189258D01*
Y793102D02*
Y793936D01*
Y793102D02*
X1190091D01*
Y791436D02*
Y793102D01*
X1189258Y791436D02*
X1190091D01*
X1189258Y790602D02*
Y791436D01*
X1187591Y790602D02*
X1189258D01*
X1187591D02*
Y791436D01*
X1185764Y791775D02*
X1186597D01*
X1185764D02*
Y793442D01*
X1186597D01*
Y794275D01*
X1188264D01*
Y793442D02*
Y794275D01*
Y793442D02*
X1189097D01*
Y791775D02*
Y793442D01*
X1188264Y791775D02*
X1189097D01*
X1188264Y790942D02*
Y791775D01*
X1186597Y790942D02*
X1188264D01*
X1186597D02*
Y791775D01*
X1179817Y791739D02*
X1180650D01*
X1179817D02*
Y793406D01*
X1180650D01*
Y794239D01*
X1182317D01*
Y793406D02*
Y794239D01*
Y793406D02*
X1183150D01*
Y791739D02*
Y793406D01*
X1182317Y791739D02*
X1183150D01*
X1182317Y790906D02*
Y791739D01*
X1180650Y790906D02*
X1182317D01*
X1180650D02*
Y791739D01*
X1178264Y791758D02*
X1179097D01*
X1178264D02*
Y793425D01*
X1179097D01*
Y794258D01*
X1180764D01*
Y793425D02*
Y794258D01*
Y793425D02*
X1181597D01*
Y791758D02*
Y793425D01*
X1180764Y791758D02*
X1181597D01*
X1180764Y790925D02*
Y791758D01*
X1179097Y790925D02*
X1180764D01*
X1179097D02*
Y791758D01*
X1176501Y791778D02*
X1177334D01*
X1176501D02*
Y793444D01*
X1177334D01*
Y794278D01*
X1179000D01*
Y793444D02*
Y794278D01*
Y793444D02*
X1179834D01*
Y791778D02*
Y793444D01*
X1179000Y791778D02*
X1179834D01*
X1179000Y790944D02*
Y791778D01*
X1177334Y790944D02*
X1179000D01*
X1177334D02*
Y791778D01*
X1187231Y787010D02*
X1188064D01*
X1187231D02*
Y788677D01*
X1188064D01*
Y789510D01*
X1189731D01*
Y788677D02*
Y789510D01*
Y788677D02*
X1190564D01*
Y787010D02*
Y788677D01*
X1189731Y787010D02*
X1190564D01*
X1189731Y786177D02*
Y787010D01*
X1188064Y786177D02*
X1189731D01*
X1188064D02*
Y787010D01*
X1185414Y778544D02*
X1186247D01*
X1185414D02*
Y780211D01*
X1186247D01*
Y781044D01*
X1187914D01*
Y780211D02*
Y781044D01*
Y780211D02*
X1188747D01*
Y778544D02*
Y780211D01*
X1187914Y778544D02*
X1188747D01*
X1187914Y777711D02*
Y778544D01*
X1186247Y777711D02*
X1187914D01*
X1186247D02*
Y778544D01*
X1184485Y777581D02*
X1185319D01*
X1184485D02*
Y779248D01*
X1185319D01*
Y780081D01*
X1186985D01*
Y779248D02*
Y780081D01*
Y779248D02*
X1187819D01*
Y777581D02*
Y779248D01*
X1186985Y777581D02*
X1187819D01*
X1186985Y776748D02*
Y777581D01*
X1185319Y776748D02*
X1186985D01*
X1185319D02*
Y777581D01*
X1183534Y776653D02*
X1184367D01*
X1183534D02*
Y778319D01*
X1184367D01*
Y779153D01*
X1186034D01*
Y778319D02*
Y779153D01*
Y778319D02*
X1186867D01*
Y776653D02*
Y778319D01*
X1186034Y776653D02*
X1186867D01*
X1186034Y775819D02*
Y776653D01*
X1184367Y775819D02*
X1186034D01*
X1184367D02*
Y776653D01*
X1182582Y775678D02*
X1183415D01*
X1182582D02*
Y777345D01*
X1183415D01*
Y778178D01*
X1185082D01*
Y777345D02*
Y778178D01*
Y777345D02*
X1185915D01*
Y775678D02*
Y777345D01*
X1185082Y775678D02*
X1185915D01*
X1185082Y774845D02*
Y775678D01*
X1183415Y774845D02*
X1185082D01*
X1183415D02*
Y775678D01*
X1171346Y777048D02*
X1172179D01*
X1171346D02*
Y778715D01*
X1172179D01*
Y779548D01*
X1173846D01*
Y778715D02*
Y779548D01*
Y778715D02*
X1174679D01*
Y777048D02*
Y778715D01*
X1173846Y777048D02*
X1174679D01*
X1173846Y776215D02*
Y777048D01*
X1172179Y776215D02*
X1173846D01*
X1172179D02*
Y777048D01*
X1169994Y775761D02*
X1170828D01*
X1169994D02*
Y777428D01*
X1170828D01*
Y778261D01*
X1172494D01*
Y777428D02*
Y778261D01*
Y777428D02*
X1173328D01*
Y775761D02*
Y777428D01*
X1172494Y775761D02*
X1173328D01*
X1172494Y774928D02*
Y775761D01*
X1170828Y774928D02*
X1172494D01*
X1170828D02*
Y775761D01*
X1168626Y774328D02*
X1169460D01*
X1168626D02*
Y775995D01*
X1169460D01*
Y776828D01*
X1171126D01*
Y775995D02*
Y776828D01*
Y775995D02*
X1171960D01*
Y774328D02*
Y775995D01*
X1171126Y774328D02*
X1171960D01*
X1171126Y773495D02*
Y774328D01*
X1169460Y773495D02*
X1171126D01*
X1169460D02*
Y774328D01*
X1167261Y772999D02*
X1168094D01*
X1167261D02*
Y774665D01*
X1168094D01*
Y775499D01*
X1169761D01*
Y774665D02*
Y775499D01*
Y774665D02*
X1170594D01*
Y772999D02*
Y774665D01*
X1169761Y772999D02*
X1170594D01*
X1169761Y772165D02*
Y772999D01*
X1168094Y772165D02*
X1169761D01*
X1168094D02*
Y772999D01*
X1174226Y772062D02*
X1175059D01*
X1174226D02*
Y773729D01*
X1175059D01*
Y774562D01*
X1176726D01*
Y773729D02*
Y774562D01*
Y773729D02*
X1177559D01*
Y772062D02*
Y773729D01*
X1176726Y772062D02*
X1177559D01*
X1176726Y771229D02*
Y772062D01*
X1175059Y771229D02*
X1176726D01*
X1175059D02*
Y772062D01*
X1176430Y770833D02*
X1177264D01*
X1176430D02*
Y772500D01*
X1177264D01*
Y773333D01*
X1178930D01*
Y772500D02*
Y773333D01*
Y772500D02*
X1179764D01*
Y770833D02*
Y772500D01*
X1178930Y770833D02*
X1179764D01*
X1178930Y770000D02*
Y770833D01*
X1177264Y770000D02*
X1178930D01*
X1177264D02*
Y770833D01*
X1159991Y749613D02*
X1160825D01*
X1159991D02*
Y751279D01*
X1160825D01*
Y752113D01*
X1162491D01*
Y751279D02*
Y752113D01*
Y751279D02*
X1163325D01*
Y749613D02*
Y751279D01*
X1162491Y749613D02*
X1163325D01*
X1162491Y748779D02*
Y749613D01*
X1160825Y748779D02*
X1162491D01*
X1160825D02*
Y749613D01*
X1175029Y772737D02*
X1175863D01*
X1175029D02*
Y774404D01*
X1175863D01*
Y775237D01*
X1177529D01*
Y774404D02*
Y775237D01*
Y774404D02*
X1178363D01*
Y772737D02*
Y774404D01*
X1177529Y772737D02*
X1178363D01*
X1177529Y771904D02*
Y772737D01*
X1175863Y771904D02*
X1177529D01*
X1175863D02*
Y772737D01*
X1173978Y773253D02*
X1174811D01*
X1173978D02*
Y774919D01*
X1174811D01*
Y775753D01*
X1176478D01*
Y774919D02*
Y775753D01*
Y774919D02*
X1177311D01*
Y773253D02*
Y774919D01*
X1176478Y773253D02*
X1177311D01*
X1176478Y772419D02*
Y773253D01*
X1174811Y772419D02*
X1176478D01*
X1174811D02*
Y773253D01*
X1162934Y757181D02*
X1163768D01*
X1162934D02*
Y758848D01*
X1163768D01*
Y759681D01*
X1165434D01*
Y758848D02*
Y759681D01*
Y758848D02*
X1166268D01*
Y757181D02*
Y758848D01*
X1165434Y757181D02*
X1166268D01*
X1165434Y756348D02*
Y757181D01*
X1163768Y756348D02*
X1165434D01*
X1163768D02*
Y757181D01*
X1163033Y753679D02*
X1163866D01*
X1163033D02*
Y755345D01*
X1163866D01*
Y756179D01*
X1165533D01*
Y755345D02*
Y756179D01*
Y755345D02*
X1166366D01*
Y753679D02*
Y755345D01*
X1165533Y753679D02*
X1166366D01*
X1165533Y752845D02*
Y753679D01*
X1163866Y752845D02*
X1165533D01*
X1163866D02*
Y753679D01*
X1162876Y759323D02*
X1163710D01*
X1162876D02*
Y760990D01*
X1163710D01*
Y761823D01*
X1165376D01*
Y760990D02*
Y761823D01*
Y760990D02*
X1166210D01*
Y759323D02*
Y760990D01*
X1165376Y759323D02*
X1166210D01*
X1165376Y758490D02*
Y759323D01*
X1163710Y758490D02*
X1165376D01*
X1163710D02*
Y759323D01*
X1171078Y770578D02*
X1171911D01*
X1171078D02*
Y772244D01*
X1171911D01*
Y773078D01*
X1173578D01*
Y772244D02*
Y773078D01*
Y772244D02*
X1174411D01*
Y770578D02*
Y772244D01*
X1173578Y770578D02*
X1174411D01*
X1173578Y769744D02*
Y770578D01*
X1171911Y769744D02*
X1173578D01*
X1171911D02*
Y770578D01*
X1163262Y746107D02*
X1164095D01*
X1163262D02*
Y747774D01*
X1164095D01*
Y748607D01*
X1165762D01*
Y747774D02*
Y748607D01*
Y747774D02*
X1166595D01*
Y746107D02*
Y747774D01*
X1165762Y746107D02*
X1166595D01*
X1165762Y745274D02*
Y746107D01*
X1164095Y745274D02*
X1165762D01*
X1164095D02*
Y746107D01*
X1163209Y749611D02*
X1164042D01*
X1163209D02*
Y751278D01*
X1164042D01*
Y752111D01*
X1165709D01*
Y751278D02*
Y752111D01*
Y751278D02*
X1166542D01*
Y749611D02*
Y751278D01*
X1165709Y749611D02*
X1166542D01*
X1165709Y748778D02*
Y749611D01*
X1164042Y748778D02*
X1165709D01*
X1164042D02*
Y749611D01*
X1167709Y767148D02*
X1168542D01*
X1167709D02*
Y768814D01*
X1168542D01*
Y769648D01*
X1170209D01*
Y768814D02*
Y769648D01*
Y768814D02*
X1171042D01*
Y767148D02*
Y768814D01*
X1170209Y767148D02*
X1171042D01*
X1170209Y766314D02*
Y767148D01*
X1168542Y766314D02*
X1170209D01*
X1168542D02*
Y767148D01*
X1175974Y769028D02*
X1176807D01*
X1175974D02*
Y770694D01*
X1176807D01*
Y771527D01*
X1178474D01*
Y770694D02*
Y771527D01*
Y770694D02*
X1179307D01*
Y769028D02*
Y770694D01*
X1178474Y769028D02*
X1179307D01*
X1178474Y768194D02*
Y769028D01*
X1176807Y768194D02*
X1178474D01*
X1176807D02*
Y769028D01*
X1173316Y768902D02*
X1174150D01*
X1173316D02*
Y770569D01*
X1174150D01*
Y771402D01*
X1175816D01*
Y770569D02*
Y771402D01*
Y770569D02*
X1176650D01*
Y768902D02*
Y770569D01*
X1175816Y768902D02*
X1176650D01*
X1175816Y768069D02*
Y768902D01*
X1174150Y768069D02*
X1175816D01*
X1174150D02*
Y768902D01*
X1173297Y767771D02*
X1174130D01*
X1173297D02*
Y769438D01*
X1174130D01*
Y770271D01*
X1175797D01*
Y769438D02*
Y770271D01*
Y769438D02*
X1176630D01*
Y767771D02*
Y769438D01*
X1175797Y767771D02*
X1176630D01*
X1175797Y766938D02*
Y767771D01*
X1174130Y766938D02*
X1175797D01*
X1174130D02*
Y767771D01*
X1175954Y767522D02*
X1176788D01*
X1175954D02*
Y769189D01*
X1176788D01*
Y770022D01*
X1178454D01*
Y769189D02*
Y770022D01*
Y769189D02*
X1179288D01*
Y767522D02*
Y769189D01*
X1178454Y767522D02*
X1179288D01*
X1178454Y766689D02*
Y767522D01*
X1176788Y766689D02*
X1178454D01*
X1176788D02*
Y767522D01*
X1152961Y767422D02*
X1153794D01*
X1152961D02*
Y769089D01*
X1153794D01*
Y769922D01*
X1155461D01*
Y769089D02*
Y769922D01*
Y769089D02*
X1156294D01*
Y767422D02*
Y769089D01*
X1155461Y767422D02*
X1156294D01*
X1155461Y766589D02*
Y767422D01*
X1153794Y766589D02*
X1155461D01*
X1153794D02*
Y767422D01*
X1102209Y778348D02*
X1103042D01*
X1102209D02*
Y780014D01*
X1103042D01*
Y780848D01*
X1104709D01*
Y780014D02*
Y780848D01*
Y780014D02*
X1105542D01*
Y778348D02*
Y780014D01*
X1104709Y778348D02*
X1105542D01*
X1104709Y777514D02*
Y778348D01*
X1103042Y777514D02*
X1104709D01*
X1103042D02*
Y778348D01*
X1102209Y776648D02*
X1103042D01*
X1102209D02*
Y778314D01*
X1103042D01*
Y779148D01*
X1104709D01*
Y778314D02*
Y779148D01*
Y778314D02*
X1105542D01*
Y776648D02*
Y778314D01*
X1104709Y776648D02*
X1105542D01*
X1104709Y775814D02*
Y776648D01*
X1103042Y775814D02*
X1104709D01*
X1103042D02*
Y776648D01*
X1102209Y780048D02*
X1103042D01*
X1102209D02*
Y781714D01*
X1103042D01*
Y782548D01*
X1104709D01*
Y781714D02*
Y782548D01*
Y781714D02*
X1105542D01*
Y780048D02*
Y781714D01*
X1104709Y780048D02*
X1105542D01*
X1104709Y779214D02*
Y780048D01*
X1103042Y779214D02*
X1104709D01*
X1103042D02*
Y780048D01*
X1095709Y776148D02*
X1096542D01*
X1095709D02*
Y777814D01*
X1096542D01*
Y778648D01*
X1098209D01*
Y777814D02*
Y778648D01*
Y777814D02*
X1099042D01*
Y776148D02*
Y777814D01*
X1098209Y776148D02*
X1099042D01*
X1098209Y775314D02*
Y776148D01*
X1096542Y775314D02*
X1098209D01*
X1096542D02*
Y776148D01*
X1094209D02*
X1095042D01*
X1094209D02*
Y777814D01*
X1095042D01*
Y778648D01*
X1096709D01*
Y777814D02*
Y778648D01*
Y777814D02*
X1097542D01*
Y776148D02*
Y777814D01*
X1096709Y776148D02*
X1097542D01*
X1096709Y775314D02*
Y776148D01*
X1095042Y775314D02*
X1096709D01*
X1095042D02*
Y776148D01*
X1092909D02*
X1093742D01*
X1092909D02*
Y777814D01*
X1093742D01*
Y778648D01*
X1095409D01*
Y777814D02*
Y778648D01*
Y777814D02*
X1096242D01*
Y776148D02*
Y777814D01*
X1095409Y776148D02*
X1096242D01*
X1095409Y775314D02*
Y776148D01*
X1093742Y775314D02*
X1095409D01*
X1093742D02*
Y776148D01*
X1047929Y766098D02*
X1048762D01*
X1047929D02*
Y767764D01*
X1048762D01*
Y768598D01*
X1050429D01*
Y767764D02*
Y768598D01*
Y767764D02*
X1051262D01*
Y766098D02*
Y767764D01*
X1050429Y766098D02*
X1051262D01*
X1050429Y765264D02*
Y766098D01*
X1048762Y765264D02*
X1050429D01*
X1048762D02*
Y766098D01*
X1045639Y766168D02*
X1046472D01*
X1045639D02*
Y767834D01*
X1046472D01*
Y768668D01*
X1048139D01*
Y767834D02*
Y768668D01*
Y767834D02*
X1048972D01*
Y766168D02*
Y767834D01*
X1048139Y766168D02*
X1048972D01*
X1048139Y765334D02*
Y766168D01*
X1046472Y765334D02*
X1048139D01*
X1046472D02*
Y766168D01*
X1038669Y762648D02*
X1039502D01*
X1038669D02*
Y764314D01*
X1039502D01*
Y765148D01*
X1041169D01*
Y764314D02*
Y765148D01*
Y764314D02*
X1042002D01*
Y762648D02*
Y764314D01*
X1041169Y762648D02*
X1042002D01*
X1041169Y761814D02*
Y762648D01*
X1039502Y761814D02*
X1041169D01*
X1039502D02*
Y762648D01*
X1039909Y762668D02*
X1040742D01*
X1039909D02*
Y764334D01*
X1040742D01*
Y765168D01*
X1042409D01*
Y764334D02*
Y765168D01*
Y764334D02*
X1043242D01*
Y762668D02*
Y764334D01*
X1042409Y762668D02*
X1043242D01*
X1042409Y761834D02*
Y762668D01*
X1040742Y761834D02*
X1042409D01*
X1040742D02*
Y762668D01*
X1041139D02*
X1041972D01*
X1041139D02*
Y764334D01*
X1041972D01*
Y765168D01*
X1043639D01*
Y764334D02*
Y765168D01*
Y764334D02*
X1044472D01*
Y762668D02*
Y764334D01*
X1043639Y762668D02*
X1044472D01*
X1043639Y761834D02*
Y762668D01*
X1041972Y761834D02*
X1043639D01*
X1041972D02*
Y762668D01*
X1042439Y762708D02*
X1043272D01*
X1042439D02*
Y764374D01*
X1043272D01*
Y765208D01*
X1044939D01*
Y764374D02*
Y765208D01*
Y764374D02*
X1045772D01*
Y762708D02*
Y764374D01*
X1044939Y762708D02*
X1045772D01*
X1044939Y761874D02*
Y762708D01*
X1043272Y761874D02*
X1044939D01*
X1043272D02*
Y762708D01*
X1084456Y752583D02*
X1085289D01*
X1084456D02*
Y754250D01*
X1085289D01*
Y755083D01*
X1086956D01*
Y754250D02*
Y755083D01*
Y754250D02*
X1087789D01*
Y752583D02*
Y754250D01*
X1086956Y752583D02*
X1087789D01*
X1086956Y751750D02*
Y752583D01*
X1085289Y751750D02*
X1086956D01*
X1085289D02*
Y752583D01*
X1085179Y750109D02*
X1086012D01*
X1085179D02*
Y751775D01*
X1086012D01*
Y752609D01*
X1087679D01*
Y751775D02*
Y752609D01*
Y751775D02*
X1088512D01*
Y750109D02*
Y751775D01*
X1087679Y750109D02*
X1088512D01*
X1087679Y749275D02*
Y750109D01*
X1086012Y749275D02*
X1087679D01*
X1086012D02*
Y750109D01*
X1085908Y752657D02*
X1086741D01*
X1085908D02*
Y754324D01*
X1086741D01*
Y755157D01*
X1088408D01*
Y754324D02*
Y755157D01*
Y754324D02*
X1089241D01*
Y752657D02*
Y754324D01*
X1088408Y752657D02*
X1089241D01*
X1088408Y751824D02*
Y752657D01*
X1086741Y751824D02*
X1088408D01*
X1086741D02*
Y752657D01*
X1084996Y770058D02*
X1085829D01*
X1084996D02*
Y771724D01*
X1085829D01*
Y772558D01*
X1087496D01*
Y771724D02*
Y772558D01*
Y771724D02*
X1088329D01*
Y770058D02*
Y771724D01*
X1087496Y770058D02*
X1088329D01*
X1087496Y769224D02*
Y770058D01*
X1085829Y769224D02*
X1087496D01*
X1085829D02*
Y770058D01*
X1088309Y770348D02*
X1089142D01*
X1088309D02*
Y772014D01*
X1089142D01*
Y772848D01*
X1090809D01*
Y772014D02*
Y772848D01*
Y772014D02*
X1091642D01*
Y770348D02*
Y772014D01*
X1090809Y770348D02*
X1091642D01*
X1090809Y769514D02*
Y770348D01*
X1089142Y769514D02*
X1090809D01*
X1089142D02*
Y770348D01*
X1086178Y770648D02*
X1087011D01*
X1086178D02*
Y772315D01*
X1087011D01*
Y773148D01*
X1088678D01*
Y772315D02*
Y773148D01*
Y772315D02*
X1089511D01*
Y770648D02*
Y772315D01*
X1088678Y770648D02*
X1089511D01*
X1088678Y769815D02*
Y770648D01*
X1087011Y769815D02*
X1088678D01*
X1087011D02*
Y770648D01*
X1248909Y752748D02*
X1249742D01*
X1248909D02*
Y754414D01*
X1249742D01*
Y755248D01*
X1251409D01*
Y754414D02*
Y755248D01*
Y754414D02*
X1252242D01*
Y752748D02*
Y754414D01*
X1251409Y752748D02*
X1252242D01*
X1251409Y751914D02*
Y752748D01*
X1249742Y751914D02*
X1251409D01*
X1249742D02*
Y752748D01*
X1253609Y754748D02*
X1254442D01*
X1253609D02*
Y756414D01*
X1254442D01*
Y757248D01*
X1256109D01*
Y756414D02*
Y757248D01*
Y756414D02*
X1256942D01*
Y754748D02*
Y756414D01*
X1256109Y754748D02*
X1256942D01*
X1256109Y753914D02*
Y754748D01*
X1254442Y753914D02*
X1256109D01*
X1254442D02*
Y754748D01*
X1253109Y758448D02*
X1253942D01*
X1253109D02*
Y760114D01*
X1253942D01*
Y760948D01*
X1255609D01*
Y760114D02*
Y760948D01*
Y760114D02*
X1256442D01*
Y758448D02*
Y760114D01*
X1255609Y758448D02*
X1256442D01*
X1255609Y757614D02*
Y758448D01*
X1253942Y757614D02*
X1255609D01*
X1253942D02*
Y758448D01*
X1253009Y760548D02*
X1253842D01*
X1253009D02*
Y762214D01*
X1253842D01*
Y763048D01*
X1255509D01*
Y762214D02*
Y763048D01*
Y762214D02*
X1256342D01*
Y760548D02*
Y762214D01*
X1255509Y760548D02*
X1256342D01*
X1255509Y759714D02*
Y760548D01*
X1253842Y759714D02*
X1255509D01*
X1253842D02*
Y760548D01*
X1250909Y761748D02*
X1251742D01*
X1250909D02*
Y763414D01*
X1251742D01*
Y764248D01*
X1253409D01*
Y763414D02*
Y764248D01*
Y763414D02*
X1254242D01*
Y761748D02*
Y763414D01*
X1253409Y761748D02*
X1254242D01*
X1253409Y760914D02*
Y761748D01*
X1251742Y760914D02*
X1253409D01*
X1251742D02*
Y761748D01*
X1248509Y761848D02*
X1249342D01*
X1248509D02*
Y763514D01*
X1249342D01*
Y764348D01*
X1251009D01*
Y763514D02*
Y764348D01*
Y763514D02*
X1251842D01*
Y761848D02*
Y763514D01*
X1251009Y761848D02*
X1251842D01*
X1251009Y761014D02*
Y761848D01*
X1249342Y761014D02*
X1251009D01*
X1249342D02*
Y761848D01*
X1246109D02*
X1246942D01*
X1246109D02*
Y763514D01*
X1246942D01*
Y764348D01*
X1248609D01*
Y763514D02*
Y764348D01*
Y763514D02*
X1249442D01*
Y761848D02*
Y763514D01*
X1248609Y761848D02*
X1249442D01*
X1248609Y761014D02*
Y761848D01*
X1246942Y761014D02*
X1248609D01*
X1246942D02*
Y761848D01*
X1240909Y761648D02*
X1241742D01*
X1240909D02*
Y763314D01*
X1241742D01*
Y764148D01*
X1243409D01*
Y763314D02*
Y764148D01*
Y763314D02*
X1244242D01*
Y761648D02*
Y763314D01*
X1243409Y761648D02*
X1244242D01*
X1243409Y760814D02*
Y761648D01*
X1241742Y760814D02*
X1243409D01*
X1241742D02*
Y761648D01*
X1242309Y761148D02*
X1243142D01*
X1242309D02*
Y762814D01*
X1243142D01*
Y763648D01*
X1244809D01*
Y762814D02*
Y763648D01*
Y762814D02*
X1245642D01*
Y761148D02*
Y762814D01*
X1244809Y761148D02*
X1245642D01*
X1244809Y760314D02*
Y761148D01*
X1243142Y760314D02*
X1244809D01*
X1243142D02*
Y761148D01*
X1243809Y758448D02*
X1244642D01*
X1243809D02*
Y760114D01*
X1244642D01*
Y760948D01*
X1246309D01*
Y760114D02*
Y760948D01*
Y760114D02*
X1247142D01*
Y758448D02*
Y760114D01*
X1246309Y758448D02*
X1247142D01*
X1246309Y757614D02*
Y758448D01*
X1244642Y757614D02*
X1246309D01*
X1244642D02*
Y758448D01*
X1244609Y756548D02*
X1245442D01*
X1244609D02*
Y758214D01*
X1245442D01*
Y759048D01*
X1247109D01*
Y758214D02*
Y759048D01*
Y758214D02*
X1247942D01*
Y756548D02*
Y758214D01*
X1247109Y756548D02*
X1247942D01*
X1247109Y755714D02*
Y756548D01*
X1245442Y755714D02*
X1247109D01*
X1245442D02*
Y756548D01*
X1248409Y763948D02*
X1249242D01*
X1248409D02*
Y765614D01*
X1249242D01*
Y766448D01*
X1250909D01*
Y765614D02*
Y766448D01*
Y765614D02*
X1251742D01*
Y763948D02*
Y765614D01*
X1250909Y763948D02*
X1251742D01*
X1250909Y763114D02*
Y763948D01*
X1249242Y763114D02*
X1250909D01*
X1249242D02*
Y763948D01*
X1248409Y759748D02*
X1249242D01*
X1248409D02*
Y761414D01*
X1249242D01*
Y762248D01*
X1250909D01*
Y761414D02*
Y762248D01*
Y761414D02*
X1251742D01*
Y759748D02*
Y761414D01*
X1250909Y759748D02*
X1251742D01*
X1250909Y758914D02*
Y759748D01*
X1249242Y758914D02*
X1250909D01*
X1249242D02*
Y759748D01*
X1250909Y763848D02*
X1251742D01*
X1250909D02*
Y765514D01*
X1251742D01*
Y766348D01*
X1253409D01*
Y765514D02*
Y766348D01*
Y765514D02*
X1254242D01*
Y763848D02*
Y765514D01*
X1253409Y763848D02*
X1254242D01*
X1253409Y763014D02*
Y763848D01*
X1251742Y763014D02*
X1253409D01*
X1251742D02*
Y763848D01*
X1057309Y764648D02*
X1058142D01*
X1057309D02*
Y766314D01*
X1058142D01*
Y767148D01*
X1059809D01*
Y766314D02*
Y767148D01*
Y766314D02*
X1060642D01*
Y764648D02*
Y766314D01*
X1059809Y764648D02*
X1060642D01*
X1059809Y763814D02*
Y764648D01*
X1058142Y763814D02*
X1059809D01*
X1058142D02*
Y764648D01*
X1121809Y786748D02*
X1122642D01*
X1121809D02*
Y788414D01*
X1122642D01*
Y789248D01*
X1124309D01*
Y788414D02*
Y789248D01*
Y788414D02*
X1125142D01*
Y786748D02*
Y788414D01*
X1124309Y786748D02*
X1125142D01*
X1124309Y785914D02*
Y786748D01*
X1122642Y785914D02*
X1124309D01*
X1122642D02*
Y786748D01*
X1144409Y801048D02*
X1145242D01*
X1144409D02*
Y802714D01*
X1145242D01*
Y803548D01*
X1146909D01*
Y802714D02*
Y803548D01*
Y802714D02*
X1147742D01*
Y801048D02*
Y802714D01*
X1146909Y801048D02*
X1147742D01*
X1146909Y800214D02*
Y801048D01*
X1145242Y800214D02*
X1146909D01*
X1145242D02*
Y801048D01*
X1140109D02*
X1140942D01*
X1140109D02*
Y802714D01*
X1140942D01*
Y803548D01*
X1142609D01*
Y802714D02*
Y803548D01*
Y802714D02*
X1143442D01*
Y801048D02*
Y802714D01*
X1142609Y801048D02*
X1143442D01*
X1142609Y800214D02*
Y801048D01*
X1140942Y800214D02*
X1142609D01*
X1140942D02*
Y801048D01*
X1182809Y791548D02*
X1183642D01*
X1182809D02*
Y793214D01*
X1183642D01*
Y794048D01*
X1185309D01*
Y793214D02*
Y794048D01*
Y793214D02*
X1186142D01*
Y791548D02*
Y793214D01*
X1185309Y791548D02*
X1186142D01*
X1185309Y790714D02*
Y791548D01*
X1183642Y790714D02*
X1185309D01*
X1183642D02*
Y791548D01*
X1064209Y761648D02*
X1065042D01*
X1064209D02*
Y763314D01*
X1065042D01*
Y764148D01*
X1066709D01*
Y763314D02*
Y764148D01*
Y763314D02*
X1067542D01*
Y761648D02*
Y763314D01*
X1066709Y761648D02*
X1067542D01*
X1066709Y760814D02*
Y761648D01*
X1065042Y760814D02*
X1066709D01*
X1065042D02*
Y761648D01*
X1064209Y759848D02*
X1065042D01*
X1064209D02*
Y761514D01*
X1065042D01*
Y762348D01*
X1066709D01*
Y761514D02*
Y762348D01*
Y761514D02*
X1067542D01*
Y759848D02*
Y761514D01*
X1066709Y759848D02*
X1067542D01*
X1066709Y759014D02*
Y759848D01*
X1065042Y759014D02*
X1066709D01*
X1065042D02*
Y759848D01*
X1064009Y755348D02*
X1064842D01*
X1064009D02*
Y757014D01*
X1064842D01*
Y757848D01*
X1066509D01*
Y757014D02*
Y757848D01*
Y757014D02*
X1067342D01*
Y755348D02*
Y757014D01*
X1066509Y755348D02*
X1067342D01*
X1066509Y754514D02*
Y755348D01*
X1064842Y754514D02*
X1066509D01*
X1064842D02*
Y755348D01*
X1064009Y753948D02*
X1064842D01*
X1064009D02*
Y755614D01*
X1064842D01*
Y756448D01*
X1066509D01*
Y755614D02*
Y756448D01*
Y755614D02*
X1067342D01*
Y753948D02*
Y755614D01*
X1066509Y753948D02*
X1067342D01*
X1066509Y753114D02*
Y753948D01*
X1064842Y753114D02*
X1066509D01*
X1064842D02*
Y753948D01*
X1061909Y753348D02*
X1062742D01*
X1061909D02*
Y755014D01*
X1062742D01*
Y755848D01*
X1064409D01*
Y755014D02*
Y755848D01*
Y755014D02*
X1065242D01*
Y753348D02*
Y755014D01*
X1064409Y753348D02*
X1065242D01*
X1064409Y752514D02*
Y753348D01*
X1062742Y752514D02*
X1064409D01*
X1062742D02*
Y753348D01*
X1057709Y753448D02*
X1058542D01*
X1057709D02*
Y755114D01*
X1058542D01*
Y755948D01*
X1060209D01*
Y755114D02*
Y755948D01*
Y755114D02*
X1061042D01*
Y753448D02*
Y755114D01*
X1060209Y753448D02*
X1061042D01*
X1060209Y752614D02*
Y753448D01*
X1058542Y752614D02*
X1060209D01*
X1058542D02*
Y753448D01*
X1057609Y751548D02*
X1058442D01*
X1057609D02*
Y753214D01*
X1058442D01*
Y754048D01*
X1060109D01*
Y753214D02*
Y754048D01*
Y753214D02*
X1060942D01*
Y751548D02*
Y753214D01*
X1060109Y751548D02*
X1060942D01*
X1060109Y750714D02*
Y751548D01*
X1058442Y750714D02*
X1060109D01*
X1058442D02*
Y751548D01*
X1061309Y751648D02*
X1062142D01*
X1061309D02*
Y753314D01*
X1062142D01*
Y754148D01*
X1063809D01*
Y753314D02*
Y754148D01*
Y753314D02*
X1064642D01*
Y751648D02*
Y753314D01*
X1063809Y751648D02*
X1064642D01*
X1063809Y750814D02*
Y751648D01*
X1062142Y750814D02*
X1063809D01*
X1062142D02*
Y751648D01*
D167*
X1547088Y879781D02*
X1934985D01*
X1547088Y864781D02*
X1934985D01*
X1547088Y849781D02*
X1934985D01*
Y894781D01*
X1547088D02*
X1934985D01*
X1547088Y849781D02*
Y894781D01*
X1857105Y849781D02*
Y894781D01*
X1806517Y849781D02*
Y894781D01*
X1671957Y849781D02*
Y894781D01*
X1602176Y849781D02*
Y894781D01*
M02*
