M48
;Layer_Color=6321
;FILE_FORMAT=2:5
INCH,LZ
;TYPE=PLATED
T1F00S00C0.00400
;TYPE=NON_PLATED
%
T01
X1061526Y0703281
X1062826Y0701981
X1064726Y0701281
X1070626Y0701381
X1072126Y0704581
X1075026Y0704681
X1076726Y0704581
X1079326Y0704681
X1081226
X1084826
X1086526Y0704581
X1089026Y0704681
X1092726
X1091426Y0701381
X1084526
X1077526
X1068726Y0704581
X1060226Y0704781
X1060176Y0708181
X1063876Y0709481
X1061276Y0712981
X1061176Y0715381
X1057976Y0721981
X1055776Y0724181
X1058255Y0726994
X1054757Y0730207
X1049526Y0730819
X1047718Y0732489
X1045381Y0734881
X1043276Y0737081
X1042876Y0740381
Y0742681
X1042676Y0744281
X1042876Y0745981
Y0748481
X1042776Y0751981
Y0753681
Y0755081
X1038215Y0755784
X1038214Y075405
X1040576Y0751981
X1040502Y0760654
X1042126Y0760688
X1043704Y0760722
X1044106Y0763541
X1042806Y0763501
X1041576
X1040336Y0763481
X1038216Y076589
X1045686Y0765281
X1045856Y0766951
X1047306Y0767001
X1049596Y0766931
X1051486Y0767061
X1053576Y0765781
X1053376Y0763181
X1051476Y0762781
X1052476Y0759581
X1055276Y0756081
X1057604Y0756807
X1059376Y0754281
X1059276Y0752381
X1057018Y0750915
X1056289Y0748332
X1056226Y0745963
X1062976Y0752481
X1063576Y0754181
X1065676Y0754781
Y0756181
X1066656Y0752861
X1065981Y0751298
X1065114Y0752147
X1068216Y0751311
X1074855Y0756215
X1074276Y0761981
X1071976
X1071966Y0764396
X1074276Y0764481
X1080276Y0764981
X1080376Y0763381
X1080276Y0761381
X1080476Y0758681
X1082826Y0761981
X1083926
Y0763081
X1082826
X1081076Y0765881
X1090776Y0767281
X1089976Y0771181
X1087844Y0771481
X1086476Y0772681
X1086376Y0775281
X1086576Y0776481
X1086465Y0781136
X1088776Y0780681
X1090532Y0778939
X1090582Y0777521
X1091876Y0777381
X1093276Y0776981
X1091414Y0752433
X1088096Y0751008
X1086845Y0750942
X1086122Y0753417
X1087575Y075349
X1088264Y0749049
X1088764Y0745334
X1088125Y074354
X1090471Y0743543
X109268Y074526
X1092542Y0747017
X1088005Y0740926
X1088036Y0738654
X1085849Y0736734
X1085876Y074255
X1083742Y0743221
X1082418Y0743469
X107865Y0740243
X1077221Y0740368
X1075786Y0740294
X1077276Y0725081
X1079476Y0722281
X1080476Y0726981
X1083076Y0725481
X1085376Y0726981
X1088176Y0725581
X1092776Y0727281
X1093276Y0731481
X1050776Y0735181
X1046076Y0738881
Y0740181
X1047876Y0756281
X1055716Y0763211
X1057326Y0762481
X1058976Y0765481
X1064023Y0765508
X1065872Y0766348
X1065821Y0768307
X1065838Y0764355
X1065876Y0762481
Y0760681
X1067169Y0771036
X10597Y0771797
X1057733Y0771765
X10577Y0776197
X10597Y077615
X1094576Y0776981
X1095876
X1097376
X1099476Y0775181
X1099676Y0773281
X1099776Y0771281
Y0769981
X1094176Y0768881
X1095876Y0761681
X1097792Y0759757
X1099476Y0760981
X1099876Y0758581
X1097792Y0755919
X1097703Y0749989
X1096387Y0748515
X109497Y0747179
X1099576Y0751281
X1100576Y0738881
X1102476Y0739481
X1102376Y0736981
X1102576Y0734981
X1102776Y0732981
X1102676Y0730781
X1101876Y0729181
X1101376Y0727281
X1098276
Y0729781
X1095476
X1095376Y0727281
X1095476Y0733681
X1099476Y0733781
X1097476Y0735781
X1099176Y0737681
X1106676Y0736881
X1106476Y0735081
Y0733181
X1106776Y0738981
X1112111Y0753488
X1114363Y0753483
X1116974Y0753497
X1121976Y0759081
X1125376
X1127676Y0759181
X1124676Y0763681
X1121476Y0762981
X1121861Y0768646
X1124401Y0768627
X1124565Y0772056
X1122013
X1119976Y0773181
X1118837Y0777326
X1119976Y0780881
X1123476Y0779181
X1127435Y0772038
X1129076Y0771781
X1130831Y0770237
X1119282Y0767592
X1117092Y0767504
X1115092Y0767548
X1112676Y0767781
Y0773281
X1107676
X1105176
X1103676
X1103876Y0775481
Y0777481
Y0779181
Y0780881
X1115176Y0763781
X1138776Y0759581
X114096Y0761314
X1141988Y0762557
X1144676Y0762281
X1143376Y0765181
X1149576Y0766181
X1154628Y0768256
X1153963Y0769055
X1153304Y0770978
X1154414Y0775741
X1156047Y0774324
X1157276Y0777681
X1162207Y0775581
X1164032Y0773242
X1168928Y0773832
X1170293Y0775162
X1171661Y0776595
X1173013Y0777881
X1175654Y0774963
X1176526Y0772781
X1177676Y0772831
X117764Y0769861
X1176239Y0770781
X1174526Y0770131
X1175061Y0766945
X1173526Y0766781
X1169376Y0767981
X1172076Y0771481
X1179626Y0774331
X1180676Y0773481
X1182076Y0773631
X1182926Y0774531
X1183876Y0775381
X1184776Y0776281
X1185626Y0777181
X1186526Y0778081
X1187376Y0778981
X1180976Y0779131
X1180076Y0778381
X1179976Y0777331
X1175976Y0780731
X1151776Y0779831
X1148426Y0773281
X1147076Y0757181
X1148576Y0750631
X1157224Y0750362
X115724Y0754426
X1164699Y0754512
X1164601Y0758014
X1164543Y0760157
X1161658Y0750446
X1158376Y0742581
X1157261Y0739799
X1155292
X1160476Y0728681
X1161476Y0729581
X1162576Y0730581
X1167843Y0713008
X1171526Y0716681
X1184071Y0716777
Y0719998
X1186376Y0723881
X1189876Y0723181
X1195576Y0723381
X1200276
X1206076Y0723481
X1201714Y0714427
X1195716Y071452
X1192833Y0714391
X1188559Y0714466
X1190948Y0710878
X1184765Y0711147
X1169726Y0704581
X1168126
X1165926
X1164026
X1162326
X1159126
X1156526
X1155826Y0701281
X1150326Y0701381
X1148626Y0704581
X1146326
X1144926
X1144726Y0701381
X1138726
X1139526Y0704581
X1141026
X1136626
X1135426
X1134226
X1130926
X1129426
X1126326
X1122626Y0704681
X1119026Y0704581
X1117026
X1112726Y0704681
X1108826Y0704581
X1106326
X1103126
X1101826
X1098526
X1096526Y0704681
X1098026Y0701381
X1103626
X1109926
X1115726
X1121326
X1127126
X1133026
X1131376Y0712681
X1127276Y0714381
X1123076Y0714581
Y0717781
X1123176Y0720881
X1121476Y0723181
X1125476
X1128576
X1131376
X1132176Y0720481
X1133976Y0717081
X1135976Y0714381
X1132476Y0729281
X1128996Y0729141
X1135676Y0733681
X1137776Y0734381
X1130976Y0747581
X1117576Y0723081
X1114076
X1114676Y0711881
X1119776Y0711781
X1161726Y0701381
X1167426
X1210876Y071471
X1215694Y0714505
X1229949Y0728887
X1229913Y073123
X1231276Y0730881
X1232376
X1233876
X1233976Y0732981
X1232376
X1231276
X1229984Y0733073
X1228676Y0733081
X1229926Y0734781
X1231276Y0734481
X1232576
X1234176
X1235376Y0735081
X1236876
Y0736581
X1235376
Y0738081
X1235276Y0739481
X1234226Y0740081
X1234476Y0741881
X1236127Y0744026
X1238076Y0743981
Y0745681
X1234176
X1232426Y0743981
X1230576
Y0745681
Y0747681
X1228226Y0748081
Y0746881
X1228176Y0745681
Y0744181
X1224591Y0743991
X1224376Y0750581
X1223176
X1223476Y0758281
Y0759681
Y0761181
X1223376Y0763881
X1226726Y0765381
Y0768981
Y0771681
X1226826Y0774581
X1226526Y0777281
X1225026Y0778581
X1223245Y0779658
X12233Y0775839
X1220826Y0775981
Y0777781
Y0773981
Y0771881
X1216526Y0770181
X1215626Y0770881
Y0769381
X1215876Y0772981
Y0774181
Y0775381
Y0776681
Y0777781
Y0778981
X1215926Y0780081
X1229976Y0779781
X1231376Y0779881
X122988Y0775814
X1237076Y0775381
Y0776581
X1238076Y0775981
X1237026Y0774081
Y0772981
Y0770181
Y0769181
X1236926Y0766381
Y0765181
X1236826Y0762281
X1241195Y0762333
X1242526Y0762331
X1243776
X1244676Y0761581
X1245476Y0759281
X1245576Y0757481
X1244376Y0752481
X1242176Y0752181
X1240176
X1241076Y0753281
X1238176Y0751681
X1231176Y0753481
X1231526Y0758481
X1230426
X1229326
X1229826Y0759481
X1230926
X1226826Y0758581
X1226476Y0761781
X1220076Y0761681
X1216876Y0761381
X1215626Y0761881
Y0760781
X1215776Y0759481
X1216976
X1218176
X1215626Y0762981
Y0764081
X1218676Y0767281
X1210526Y0765581
X1209426
X1203758Y0766333
X1237126Y0778681
X1237105Y0779938
X1244176Y0780031
X1248976Y0762681
X1246276Y0743681
X1244576Y0743781
X1241976
Y0739981
X1242776Y0736081
Y0734881
X1242902Y0733328
X1241476Y0732981
X1240176
X1238076
X1238176Y0734481
X1239576
X1241176
X1241476Y0730781
X1240176
X1240976Y0728881
X1242876
X1242883Y0731181
X1244076Y0736081
X1246276Y0737681
X1246376Y0740381
X1237076Y0739581
X1236776Y0738181
X1236076Y0732981
X1234676Y0728881
X1232596Y0728905
X1229526Y0736781
X1225876Y0736381
X1225926Y0734881
X1230476Y0739981
X1251426Y0737781
X1252076Y0735681
X1254476
X1254376Y0733181
X1252176Y0733081
X1252676Y0744881
X1255276Y0751481
X1254924Y0753622
X1255276Y0755581
X1254776Y0759281
X1254676Y0761381
X1253626Y0762681
X1252476
X1251326
X1250176
X1250076Y0764781
X1252576Y0764681
X1250076Y0760581
X1250576Y0753581
X1260876Y0749181
X1265676Y0745681
X1265476Y0743381
X1262217Y0759816
X1260404Y0766563
X1253026Y0775131
X1253076Y0779731
X1253026Y0783731
X1253076Y0786731
X1254445Y0790646
X1251832Y0792781
X1254476Y0795981
X1254176Y0799481
X1253988Y0801645
Y0804856
X1251676Y0805881
X1249176Y0805281
X1249076Y0801881
Y0799581
X1249676Y0797481
X1247776
X1245876Y0797381
X1244576
X1243876Y0795381
Y0794031
X1243826Y0792481
X1242826Y0793281
X1243376Y0790331
X1244176Y0787931
Y0782981
X124632Y0792781
X1235176Y0793905
X1233876
X1232724
X1229976Y0801781
X1226176
X1225776Y0805281
X1229576
X1235476
Y0801781
X1239076
X1240776Y0805481
X1244776Y0805281
X1221276
X1221476Y0801781
X1216876
X1216476Y0805281
X1211076
X1207176
X1207076Y0801781
X1202376
Y0805281
X1197676
X1198076Y0801781
X119792Y0797102
X119808Y0794023
Y079252
X1194301
X1192107Y0791908
X119075Y0791068
X1190219Y0789809
X1189113Y0789515
X1188897Y0787843
X1187871Y0788521
Y0786778
X118427Y078734
X118425Y0788676
X1184309Y078581
X118425Y0784494
X1184214Y0783226
X1182646Y0787159
X1180674Y0787194
X1179931Y0792592
X1181483Y0792573
X1184476Y0792381
X1186366Y0792558
X1187431Y0792608
Y0791392
X1188425Y0792269
X1189469Y0793251
X1190639Y0794343
X1192603Y0794904
X1192276Y0801881
X1192476Y0805281
X1186976
X1186776Y0801881
X1181276
X1181176Y0805281
X1176476
X1176376Y0801881
X1172276
Y0805281
X1167776
Y0801881
X1163676
X1163576Y0805281
X1158976
X1159076Y0801881
X1154776
X1154176Y0805281
X1149476
X1145376
X1146076Y0801881
X1150276
X1141776
X1140276Y0805281
X1135636Y0805713
X1135776Y0801781
X1131676
X1128876Y0801281
X1125976Y0799481
X1121676Y0799681
X1120276Y0796281
X1119976Y0793581
X1119876Y0790681
X1119976Y0787581
Y0784081
X1123476Y0784381
Y0782081
Y0787581
Y0790381
Y0793681
X1124076Y0796781
X1123976Y0802481
X1127476Y0804581
X1131576Y0805281
X1109276Y0801381
Y0799981
X1105976Y0802981
X1101574Y080289
X1101876Y0799281
X1097476
X1097076Y0802781
X1151477Y0789794
X1151413Y0788071
X1151776Y0786281
Y0784431
Y0782631
X1176926Y0781531
X1178167Y0792611
X1194455Y0786365
X1196241Y0786405
X1198497Y0784398
X1202177Y0786385
X1202033Y078832
X1203428Y0788306
X1206276Y0788281
X1205863Y0786725
X1207259
X1207187Y0785115
X1205308Y0785097
X1209352Y0785133
X1208976Y0786743
X1215656Y0786839
X1217542Y0786859
X1217563Y0785278
X1221776Y0781481
X1225476Y0781681
X1229576Y0785381
X1228876Y0786131
X1223921Y0788893
X1222576Y0789581
X12223Y0791549
X1214225Y0792884
X12156Y079463
X1213872Y0796476
X1210442Y0792913
X1208747Y079437
X1206668Y0792856
X1203591Y079297
X1202356Y0792952
X1202428Y0794598
X1203591Y079458
X1211776Y0801881
X1092588Y0802851
X1088676Y0802781
X1087976Y0805281
X1085476Y0805581
X1083176Y0804881
Y0802581
Y0799881
X1083276Y0796981
X1085676Y0796381
X1088276Y0796981
X1089317Y0799146
X1093176Y0799281
X1088376Y0792181
X1088676Y0789581
Y0786381
X1088276Y0784181
X1086417Y0783361
X1079211Y078226
X1077633Y0782327
X1078176Y0783629
X1075976Y0783681
X1073176Y0784381
X1072876Y0785981
X1072886Y078791
X1072976Y0790181
X1073376Y0792381
X1075927Y0793107
X1078276Y0792481
X1078676Y0790081
X1081076Y0789781
X1082876Y0790681
Y0788681
X1083376Y0792381
X1085776Y0792881
X1078176Y0796881
X1075876Y0796281
X1073976Y0796781
X1072976Y0799381
Y0801781
Y0804181
X1074726Y0805831
X1074526Y0807881
X1075576Y0809331
X1077076Y0809881
X1079576Y0809481
X1081076
X1082676Y0807181
X1078526Y0804681
X1078476Y0802581
Y0799881
X1078863Y07864
M30
