M48
;Layer_Color=6321
;FILE_FORMAT=2:5
INCH,LZ
;TYPE=PLATED
T1F00S00C0.00400
;TYPE=NON_PLATED
%
T01
X1075776Y0761581
Y0764181
X1080576
Y0761581
X1085376
X1086976
X1088276
X1089576Y0761881
X1091076
X1092276Y0761181
X1091476Y0766081
X1090076Y0766181
X1088676Y0766281
X1087376
X1086176
X1086476Y0763981
X1084576Y0764281
X1092676Y0766881
X1094376
X1095576Y0766981
X1096676Y0768281
Y0769781
Y0771281
X1098476
X1099576
X1100676Y0769881
Y0768281
X1098476
X1098776Y0759681
X1100776
Y0758181
X1100876Y0756581
X1098776Y0756681
X1096676
Y0758181
Y0759681
X1095576Y0761181
X1093976
X1114476Y0761681
X1118176Y0762581
X1116876Y0765281
X1116737Y0768335
X1113276Y0769081
X1113176Y0772081
X1113276Y0775281
X1112304Y0776699
X1112876Y0779181
X1117344Y0779424
X1118676Y0779481
X1119326Y0777977
X1117376Y0776181
X1116693Y0772897
X1124497Y0772939
X1126289Y0770962
X1126247Y0774963
X1126201Y0779375
X1123876Y0777977
X1129994Y0770618
X1131472Y0769401
X1133177Y0772948
X1134155Y0772027
X1134174Y0773926
X1135151Y0772948
X1137013Y0772986
X1136167Y0773888
X1136148Y0771951
X1138476Y0770281
X1140376Y0769881
X1142076Y0769781
X1143676Y0770481
X1145176Y0769781
X1146076Y0770481
X1145076Y0766181
X1142076
X1142176Y0762181
X1141576Y0760681
X1144076Y0760581
X1145076Y0762181
X1148076Y0760581
X1147976Y0757181
X1145876
X1141076
X1136276
X1131776
X1127976
X1127876Y0760581
X1124376
X1123876Y0757181
X1119976Y0757381
X1120676Y0760881
X1116676Y0759081
X1113276Y0765581
X1133276Y0762481
X1137176Y0762581
X1137156Y0752746
X1132433Y0752886
X1127235Y0752874
X1128692Y0744759
X1130676Y0744781
X1123886Y0744791
X1135001Y0739189
X1136422Y0739114
X1135418Y0738034
X1135493Y0735609
X1138639Y0735643
X115046Y0739522
X1150376Y0741381
X1149176
X1149249Y0743482
X1150397Y0743492
X1150432Y0745068
X1149214Y0745065
X1149627Y0752828
X1151076Y0757181
X1154976
X1159476
X1164476
X1169876
X1175376
X1178476
X1181476
X1185076
X1188376
X1188576Y0760581
X1185176
X1181976
X1178476
X1175376
X1175776Y0763081
X1178876Y0765396
X1179776Y0774381
X1180876Y0773581
X1182776Y0772081
X1184776Y0773581
X1185776Y0774081
X1187876Y0774581
X1185776Y0779281
X1182876Y0778681
X1179776Y0779481
X1178676Y0779781
X1177976Y0775181
X1172106Y0775841
X1170276Y0773081
X1168276
X1165076Y0774081
X1162776Y0773681
Y0775181
X1161886Y0775931
X1161876Y0777081
X1161776Y0778881
X1161786Y0780234
X1160876Y0780981
X1162776
X1164776Y0779781
Y0776581
X1161836Y077436
X1161786Y0772931
X1160876Y0773681
Y0775181
X1158876Y0776181
Y0778981
X1158376Y0773781
X1154476Y0773081
X1153676Y0769781
X1156776
Y0766081
X1157976
X1160676Y0766181
X1160695Y0763353
X1156776Y0762181
X1153776
X1151876Y0760581
X1153776Y0766081
X1150026Y0775561
X1147276Y0776481
X1138276Y0773981
X1142098Y0752816
X1154599Y0740586
X1157864Y0737672
X1158974
X1160084
X1159908Y073572
X1159889Y0733986
X1158076Y0733681
X1156697Y0732796
X1156205Y0731164
X1156658Y0735482
X1164134Y0735718
X1162476Y0715381
X1184376Y0716181
X1184276Y0720381
X1185576Y0721781
X1186876Y0723181
Y0726181
X1186776Y0728181
X1186876Y0730881
X1188276Y0732481
X1189876Y0734081
X1191376Y0735581
X1193276Y0737281
X1194776Y0738981
X1195776Y0739981
X1198076
X1200876
X1203376
X1206176
X1206276Y0743181
X1202276
X1198976
X1195376Y0743281
X1192876Y0741781
X1190376Y0738981
X1187676Y0736481
X1185476Y0734181
X1183676Y0727681
X1181376Y0722281
X1180976Y0720281
X1194525Y0731561
X1193156Y0752809
X1197445Y0752858
X1202859Y0752863
X1201976Y0757181
X1198676
X1195576
X1191976
X1192376Y0760581
X1195876
X1198676Y0760681
X1204076Y0760581
X1207876
X1211776
X1211176Y0757181
X1206576
X1218176
X1222276
X1226276
X1230876Y0757081
X1231876Y0761181
X1232476Y0763981
X1232376Y0766781
Y0769781
Y0772881
X1231776Y0777581
Y0778881
X1231793Y0780047
X1230076Y0778781
X1227472Y0781014
X1225371Y0780991
X1223176Y0778281
X1220976Y0778381
X1220476Y0777281
X1218676Y0776562
X1219231Y077538
X121747Y077427
X1214776Y0773981
X1212376Y0774081
X1209876Y0774281
X1208254Y0773956
X1205976Y0774481
X1203276Y0774281
X1197876Y0774781
X1197076Y0773981
X1197028Y0775638
X1197876Y0776481
X1196124Y0776475
X1195676Y0779281
X1197276
X1200176Y0779981
X1202476
X1207018Y0779422
X1208176Y0780781
X1209576
X1210976
X1212376
X1212139Y0779302
X1210676Y0779181
X1209276Y0779081
X1209955Y0771991
X1208313Y0770202
X1198876Y0771681
X1201245Y0765084
X1192899Y0765662
X1193576Y0779981
X1174476Y0771081
X1175968Y0752628
X118271Y075281
X1209776Y0745251
X1209676Y0739981
X1218098Y0750468
X1219688Y0752882
X1227409Y0752849
X1226523Y0750479
X1224136Y0746601
X1234082Y0746534
X1236151Y0750495
X1235201Y0753395
X1234576Y0758881
X1235976Y0762281
Y0765681
Y0769681
Y0775081
Y0779681
X124114Y0780976
X1245713Y0774664
X1249867Y0763844
X1243076Y07492
X1242176Y0737781
X1241176
Y0736681
X1242176
X1242076Y0730781
X1243776Y0732081
X1245476Y0730781
Y0733381
X1247276Y0732081
X1249276Y0733481
Y0735281
Y0730681
X1231076
Y0731981
X1230176Y0731381
X1230776Y0735381
X1230676Y0739381
X1232476Y0739481
X1233876Y0739381
X1235176Y0739581
X1237476Y0741692
X1216576Y0725781
X1220535Y0773304
X1224449Y0776858
X1226449Y0776719
X1254076Y0739381
X1255276
X1256476
X1256876Y0736981
X1254476Y0733181
X1252176
X1252876Y0795081
X1256276
X1256376Y0798581
X1252676
X1260476
X1260276Y0795081
X1264576Y0798581
X1265202Y0801048
X1265276Y0802981
X1269472Y0803048
X1269476Y0801081
X1267276Y0794081
X1280322Y0791466
X1279856Y0802176
X1248876Y0798581
X1246876Y0799081
X1246776Y0800481
X1244476Y0801481
X1242476Y0799781
X1237476Y0799381
X1239876Y0796881
X1238776Y0793781
X1239476Y0791181
X1236776
X1234676Y0791281
Y0793181
X1231076Y0793481
X1228876Y0794381
X1226576
X1224476Y0787681
X1223276Y0785781
X1220876
X1219576Y0787581
X1217676Y0787681
X1216476Y0787481
X1216676Y0783881
X1212276Y0784181
Y0785881
X1212561Y0787557
X1212476Y0789381
X121226Y0791113
X1209876Y0789181
X1208458Y0789081
X1205976Y0789181
X1203376
X120143Y078975
X1198976Y0789581
X1199276Y0788281
X11981Y0788222
X1197276Y0790081
X1195852Y0789798
X1194405Y0790094
X1194276Y0791781
X1194346Y0788153
X1198076Y0784981
Y0783181
X1199081Y0792151
X1202027Y0792166
X1202133Y0796412
X119893Y0796503
X1194176Y0795681
X1192676Y0795981
X1190476Y0796081
X1189276Y0796381
X1187976Y0795981
X1185776Y0796081
X1184176Y0795981
Y0797481
X1181957Y0798399
X1182576Y0800281
X1182676Y0801681
X1181076
Y0800281
X1179715Y0796552
X1177876Y0795981
X1175976Y0795481
X1174176Y0794981
X1172176Y0793681
X1170676Y0795781
X1171104Y0797389
X1167576Y0796081
X1165576Y0795681
X1162776Y0795481
Y0794181
X1161826Y0794813
X1161876Y0793481
X1160876Y0794181
Y0795581
X1161876Y0796181
X1158176Y0795581
X1155376Y0796081
X1152776Y0795681
X1151976Y0793481
X1151076Y0791881
X1148936Y0791281
X1151876Y0789381
Y0784381
X1150504Y0784431
X1149076Y0784481
X1147576
Y0782981
X1149076Y0782881
X1150504Y0782831
X1151876Y0782881
X1153476
X1153576Y0785781
X1155676Y0786281
X1157676Y0786481
X1160876Y0786781
X1161776Y0786081
X1161826Y0787509
X1161876Y0789081
X1162776Y0788281
Y0786781
X1165676Y0786381
X1168376Y0786181
Y0782981
X1165576Y0782581
X1162776Y0782381
X1161836Y0781663
X1161886Y0783234
X1160876Y0782481
X1157776Y0782781
X1158776Y0789481
X1160876Y0788381
X1164776Y0789381
Y0792981
X1158776Y0792781
X1157657Y0800182
X1157176Y0801781
X1160176Y0801681
X1160376Y0799981
X1160176Y0805781
X1157076Y0805681
X1148576Y0805481
X1145476
X1148576Y0801781
X1149476Y0800481
Y0798681
X1148476Y0797981
X1143176Y0796581
X1140376Y0797181
X1138476Y0796681
X1138072Y0795395
X1138233Y0793859
X1136789Y0794144
X1136051Y0793277
X113512Y0794144
X1134157Y0793309
X113419Y0795107
X1135954
X1133195Y0794208
X1131956Y0793858
X1132072Y0795538
X1129376Y079505
X112686Y0796514
X1127076Y0797581
X1125776Y0797281
X1124646Y0796718
X1124611Y0797954
X1124469Y0799156
X1123105Y0798109
X1123374Y0796806
X1121713
X1120106Y0796841
X112088Y0797964
X1120576Y0799181
X1121783Y0799222
X1121676Y0804181
X1123276Y0803981
X1125676Y0804181
Y0805881
X1127776Y0807581
X1129976Y0805881
Y0804181
X1131376Y0804381
X1133276Y0803881
X1136076Y0804181
X1137176Y0801981
X1136876Y0799581
X1131976Y0799281
X1127876Y0799181
X1126576Y0798681
X1118092Y079647
X1116076Y0800781
X1115876Y0802181
X1116476Y0803381
X1116376Y0805681
X1118576Y0807381
X1112576Y0803981
X111475Y0787222
X1116443Y0785195
Y0783584
X1114376Y0783681
X111138Y0783986
X1112476Y0781381
X1120687Y0782205
X1122692
X1121693Y0783217
X112262Y078421
X1120704
X1123802Y078328
X1127293Y078319
X1130562Y0782298
Y0784399
X1133492Y0784192
Y0782357
X1135976Y0782281
X1135876Y0784681
X1138476Y0785181
X1140976Y0784581
X1141376Y0783381
X1140976Y0782181
X1138376Y0781781
X1145576Y0781981
X1145376Y0785081
X1143976Y0785681
X1134976Y0789581
X1135076Y0792281
X1118066Y078872
Y0786767
X1171176Y0785481
X1173776Y0784781
Y0782781
X1172776Y0783781
X1174836Y0783751
X1175876Y0782781
Y0784781
X1176876Y0783781
X1178076Y0782781
Y0784881
X1178676Y0787381
X1180476Y0789581
X1179976Y0791681
X1182876Y0791581
X1184917Y0790967
X1185076Y0789281
X1186911Y0787555
X1188476Y0785881
X1187152Y0784384
X1188451Y0789488
X118987Y0790907
X1187376Y0791381
X1187328Y0798575
X1189209Y0800702
X1204276Y0798981
X1206876Y0797281
Y0795381
X1208576Y0795281
X1208376Y0791781
X1206876
X1208076Y0783881
X1210003Y0783829
X1219143Y078979
X1217619Y0791953
X1216876Y0793781
X1225376Y0783081
X1226417Y0782035
X1227476Y0783081
X1229476Y0786081
X123189Y0786004
X1235476Y0785981
X1237476
X1241178Y0785238
X1244576Y0785181
X1246876Y0787581
Y0790181
X1246776Y0793081
Y0795181
X1249076
X1242676Y0790981
X1234876Y0783981
X1231698Y0782029
X1179776Y0783381
X1183105Y0787494
X1174096Y0790813
X1172076Y0789481
X1171276Y0782281
M30
