M48
;Layer_Color=6321
;FILE_FORMAT=2:5
INCH,LZ
;TYPE=PLATED
T1F00S00C0.00400
;TYPE=NON_PLATED
%
T01
X1047718Y0732489
X1049526Y0730819
X1053366Y0731431
X1054757Y0730207
X1058255Y0726994
X1050776Y0735181
X1045381Y0734881
X1043276Y0737081
X1042876Y0740381
Y0742681
X1042676Y0744281
X1042876Y0745981
Y0748481
X1042776Y0751981
Y0753681
Y0755081
X1038215Y0755784
X1038214Y075405
X1040576Y0751981
X1040502Y0760654
X1042126Y0760688
X1043704Y0760722
X1044106Y0763541
X1042806Y0763501
X1041576
X1040336Y0763481
X1038216Y076589
X1045686Y0765281
X1045856Y0766951
X1047306Y0767001
X1049596Y0766931
X1051486Y0767061
X1053576Y0765781
X1053376Y0763181
X1051476Y0762781
X1052476Y0759581
X1055092Y0758873
X1057604Y0756807
X1057018Y0750915
X1056289Y0748332
X1056226Y0745963
X1065114Y0752147
X1065981Y0751298
X1066656Y0752861
X1068216Y0751311
X1065366Y0759991
X1065783Y07615
X1065176Y0762781
X1065838Y0764355
X1065872Y0766348
X1065821Y0768307
X1067169Y0771036
X10597Y0771797
X1057733Y0771765
X10577Y0776197
X10597Y077615
X1058976Y0765481
X1064023Y0765508
X1071966Y0764396
X1074276Y0764481
Y0761981
X1071976
X1074855Y0756215
X1080476Y0758681
X1080276Y0761381
X1080376Y0763381
X1080276Y0764981
X1081076Y0765881
X1086663Y0770891
X1087844Y0771481
X1089976Y0771181
X1090776Y0767281
X1090582Y0777521
X1091876Y0777381
X1093276Y0776981
X1090532Y0778939
X1088776Y0780681
X1086465Y0781136
X1086576Y0776481
X1086376Y0775281
X1086122Y0753417
X1087575Y075349
X1088096Y0751008
X1086845Y0750942
X1088264Y0749049
X1088764Y0745334
X1088125Y074354
X1090471Y0743543
X109268Y074526
X1092542Y0747017
X1091414Y0752433
X1088005Y0740926
X1088036Y0738654
X1085849Y0736734
X1085876Y074255
X1083742Y0743221
X1082418Y0743469
X107865Y0740243
X1077221Y0740368
X1075786Y0740294
X1046076Y0740181
Y0738881
X1047876Y0756281
X1049276Y0757681
X1055716Y0763211
X1095876Y0761681
X1097792Y0759757
X1099476Y0760981
X1099876Y0758581
X1097792Y0755919
X1097703Y0749989
X1096387Y0748515
X109497Y0747179
X1099576Y0751281
X1105076Y0757581
X1108476Y0757881
X1110611Y0758231
X1112754Y0758838
X1112676Y0760481
X1112976Y0762481
X1115376Y0763281
X1118076Y0763181
X1121476Y0762981
X1124676Y0763681
X1124401Y0768627
X1121861Y0768646
X1122013Y0772056
X1124565
X1127435Y0772038
X1129076Y0771781
X1130831Y0770237
X1119976Y0773181
X1116776
X1114376
X1112663Y0771794
X1112876Y0768481
X1111476Y0769081
X1110976Y0765381
X1107976Y0763181
X1108976Y0761881
X1109076Y0760081
X1113776Y0757681
X1116576Y0757481
X1119276
X1121976Y0759081
X1125376
X1127676Y0759181
X1138776Y0759581
X114096Y0761314
X1141988Y0762557
X1144276Y0762281
X1143656Y0765158
X1149576Y0766181
Y0772081
X1153304Y0770978
X1153963Y0769055
X1154628Y0768256
X1156047Y0774324
X1154414Y0775741
X1157276Y0777681
X1162207Y0775581
X1164811Y0775192
X1168928Y0773832
X1170293Y0775162
X1171661Y0776595
X1173013Y0777881
X1176251Y0779047
X1177582
X1176888Y0780054
X117849Y0779996
X1179293Y0779065
X11852Y0777486
X1186152Y0778414
X118708Y0779378
X1184249Y0776511
X1176696Y077357
X1175893Y0772896
X1175645Y0774086
X1176239Y0770781
X1174983Y0769735
X1174964Y0768605
X1173719Y0768115
X117348Y0766475
X1175061Y0766945
X1177621Y0768356
X117764Y0769861
X1178097Y0771666
X117376Y0771073
X1172745Y0771411
X1169376Y0767981
X1164543Y0760157
X1164601Y0758014
X1164699Y0754512
X1164876Y0750444
X1161658Y0750446
X1157224Y0750362
X115724Y0754426
X1148576Y0750631
X1147076Y0757181
X1162176Y0762381
X1164928Y074694
X1158376Y0742581
X1157261Y0739799
X1155292
X1157876Y0736681
X1159876Y0735781
X1166187Y0730378
X1164091Y0728211
X1162135Y0726284
X1167843Y0713008
X1172341Y0716442
X1184071Y0716777
Y0719998
X118656Y0725044
X1188559Y0714466
X1192833Y0714391
X1195716Y071452
X1201714Y0714427
X1210876Y071471
X1215694Y0714505
X1190948Y0710878
X1184765Y0711147
X1185734Y0749668
X1185699Y0752757
X1178583Y0753579
X1203758Y0766333
X1211178Y0772258
X1216795Y0775789
X1216736Y0779628
X1223245Y0779658
X12233Y0775839
X122988Y0775814
X1229976Y0779781
X1236445Y0779688
X1236499Y0776096
X1241198Y0776194
X1244676Y0775981
X1244976Y0779581
X1243976Y0761981
X1242576Y0762481
X1241195Y0762333
X1247776Y0762681
X1245476Y0759281
X1246276Y0757381
X1244376Y0752481
X1242176Y0752181
X1240176
X1241076Y0753281
X1238176Y0751681
X1238076Y0745681
Y0743981
X1236127Y0744026
X1234176Y0745681
X1232331Y0744102
X1230576Y0743981
Y0745681
Y0747681
X1228176Y0747281
Y0745681
Y0744181
X1224591Y0743991
X1224448Y0746923
X1224376Y0750581
X1223176
X1231176Y0753481
X1234476Y0741881
X1236276Y0736681
X1236127Y0734726
X1236076Y0732981
X1238076
X1240176
X1241476
X1242902Y0733328
X1242776Y0734881
X1244076Y0736081
X1246276Y0737681
X1246376Y0740381
X1246276Y0743681
X1244576Y0743781
X1241976
X1241476Y0730781
X1240176
X1240976Y0728881
X1242876
X1242883Y0731181
X1234676Y0728881
X1232596Y0728905
X1232376Y0730881
X1231276
X1229913Y073123
X1229984Y0733073
X1228676Y0733081
X1231276Y0732981
X1232376
X1233976
X1229949Y0728887
X1226248Y073484
X1140576Y0736181
X1137776Y0734381
X1135676Y0733681
X1132476Y0729281
X1128996Y0729141
X1116276Y0732881
X1116974Y0753497
X1114363Y0753483
X1112111Y0753488
X1115092Y0767548
X1117092Y0767504
X1119282Y0767592
X1118837Y0777326
X1119976Y0780881
X1123476Y0779181
X1103876
Y0780881
Y0777481
Y0775481
X1102776Y0773281
X1105176
X1107676
X1100176Y0772681
X1099776Y0771281
Y0769981
X1095876Y0769281
X1094176Y0768881
X1094576Y0776981
X1095876
X1097376
X1099476Y0775181
X1151391Y0779826
X1130976Y0747581
X1252676Y0744881
X125759Y0745657
X1260876Y0749181
X1255276Y0751481
X1254924Y0753622
X1255276Y0755581
X1254776Y0759281
X1254676Y0761381
X1252576Y0762581
Y0764681
X1250076Y0764781
X1250176Y0762681
X1250076Y0760581
X1250576Y0753581
Y0737781
X1252076Y0735681
X1254476
X1254376Y0733181
X1252176Y0733081
X1265476Y0743381
X1265676Y0745681
X1262217Y0759816
X1260404Y0766563
X1251976Y0775481
X1252476Y0779681
X1252076Y0783781
Y0788381
X1254445Y0790646
X1251832Y0792781
X1254476Y0795981
X1254176Y0799481
X1253988Y0801645
Y0804856
X1251676Y0805881
X1249176Y0805281
X1249076Y0801881
Y0799581
X1249476Y0797481
X1247776
X1245876Y0797381
X1244576
X1243876Y0795381
X1243976Y0793281
X1243576Y0790881
X1245376Y0788381
X1245476Y0783781
X124632Y0792781
X1249018Y0791273
X1248976Y0795181
X1244776Y0805281
X1240776Y0805481
X1239076Y0801781
X1235476
Y0805281
X1229576
X1225776
X1226176Y0801781
X1229976
X1221476
X1221276Y0805281
X1216476
X1216876Y0801781
X1211776Y0801881
X1211076Y0805281
X1207176
X1207076Y0801781
X1202376
Y0805281
X1197676
X1198076Y0801781
X119792Y0797102
X119808Y0794023
Y079252
X1194301
X1194053Y0794951
Y0796229
X1192603Y0794904
X1190639Y0794343
X1189469Y0793251
X1188425Y0792269
X1187431Y0792608
X1186366Y0792558
X1187431Y0791392
X1187871Y0788521
X1188897Y0787843
X1189113Y0789515
X1190219Y0789809
X119075Y0791068
X1192107Y0791908
X1194455Y0786365
X1196241Y0786405
X1198497Y0784398
X1202177Y0786385
X1202033Y078832
X1203428Y0788306
X1206276Y0788281
X1205863Y0786725
X1207259
X1207187Y0785115
X1205308Y0785097
X1209352Y0785133
X1208976Y0786743
X1215656Y0786839
X1217542Y0786859
X1217563Y0785278
X1221776Y0781481
X1225476Y0781681
X1223921Y0788893
X1222576Y0789581
X12223Y0791549
X1214225Y0792884
X12156Y079463
X1213872Y0796476
X1210442Y0792913
X1208747Y079437
X1206668Y0792856
X1203591Y079297
X1202356Y0792952
X1202428Y0794598
X1203591Y079458
X1192276Y0801881
X1192476Y0805281
X1186976
X1186776Y0801881
X1181276
X1181176Y0805281
X1176476
X1176376Y0801881
X1172276
Y0805281
X1167776
Y0801881
X1163676
X1163576Y0805281
X1158976
X1159076Y0801881
X1154776
X1154176Y0805281
X1149476
X1145376
X1146076Y0801881
X1150276
X1141776
X1140276Y0805281
X1135636Y0805713
X1135776Y0801781
X1131676
X1128876Y0801281
X1127476Y0804581
X1131576Y0805281
X1123976Y0802481
X1125976Y0799481
X1121676Y0799681
X1120276Y0796281
X1119976Y0793581
X1119876Y0790681
X1119976Y0787581
X1123476
Y0790381
Y0793681
X1124076Y0796781
X1123476Y0784381
Y0782081
X1119976Y0784081
X1110363Y0801196
X1109276Y0800681
X1105976Y0802981
X1101574Y080289
X1101876Y0799281
X1097476
X1097076Y0802781
X1151477Y0789794
X1151413Y0788071
X1151456Y0786285
X1151434Y0784433
X1151413Y0782625
X1174686Y0784181
X1180674Y0787194
X1180777Y0788821
X1182543
X1182646Y0787159
X118427Y078734
X118425Y0788676
X1184309Y078581
X118425Y0784494
X1184214Y0783226
X1187871Y0786778
X1182825Y0791001
X1181119Y0791058
X1179432Y0791039
X1179931Y0792592
X1181483Y0792573
X1178167Y0792611
X1232724Y0793905
X1233876
X1235176
X1093176Y0799281
X1089317Y0799146
X1088276Y0796981
X1085676Y0796381
X1083276Y0796981
X1083176Y0799881
Y0802581
Y0804881
X1085476Y0805581
X1087976Y0805281
X1088676Y0802781
X1092588Y0802851
X1078476Y0802581
Y0799881
X1078176Y0796881
X1075876Y0796281
X1073476Y0796781
X1072976Y0799381
Y0801781
Y0804181
X1074362Y0805721
X1073476Y0807581
X1073976Y0809781
X1075976Y0810581
X1078576Y0810081
X1080592Y0810114
X1081276Y0807981
X1080576Y0805681
X1079076
X1077676
X1078276Y0792481
X1078676Y0790081
X1081076Y0789781
X1082876Y0790681
Y0788681
X1083376Y0792381
X1085776Y0792881
X1088376Y0792181
X1088676Y0789581
Y0786381
X1088276Y0784181
X1086417Y0783361
X1079211Y078226
X1077633Y0782327
X1078176Y0783629
X1075976Y0783681
X1073176Y0784381
X1072876Y0785981
X1072886Y078791
X1072976Y0790181
X1073376Y0792381
X1075927Y0793107
X1078863Y07864
M30
