M48
;Layer_Color=6321
;FILE_FORMAT=2:5
INCH,LZ
;TYPE=PLATED
T2F00S00C0.00800
T3F00S00C0.01811
T4F00S00C0.02362
T5F00S00C0.03150
T6F00S00C0.03543
;TYPE=NON_PLATED
T7F00S00C0.10827
%
T02
X1053976Y0701381
X1055976Y0702381
X1059976Y0701381
X1059834Y0706775
X1063676Y0706881
X1064976Y0704981
X1070776Y0704881
X1073476Y0704981
X1072515Y0706709
X1072604Y071
X1071513Y0714187
X1073438Y0716144
X1071513Y0718124
Y0722061
X1075476Y0721981
X1070976Y0726281
X1064076Y0724981
X1060839Y0724745
X1059976Y0719981
X1060976Y0717281
X1064776Y0714681
X1064676Y0712081
X1067576Y0714187
X1064165Y0721342
X1053776Y0725981
X1049976Y0726381
X1050723Y0729067
X1056161Y0729239
X1054376Y0731781
X1053016Y0733478
X1050376Y0737281
X1050548Y074332
X1050676Y0747581
Y0749581
X1051587Y0754051
X1051276Y0758131
X1053472Y0758287
X1055476Y0757981
X1055494Y0761085
X1057176Y0764381
X1055376Y0766081
X1052107Y0771834
X1052242Y07749
X1053149Y0778383
X1055096Y0780141
X1057696Y0773969
X1060686Y0770584
X1068476Y0772081
X1071876Y0769081
Y0767181
X1074176Y0768181
X1077468Y0768279
X1077406Y0764465
X1077437Y0760651
X1077576Y0756481
X1083121Y0756501
X1083146Y0760651
X1083115Y0764465
X1083177Y0768279
X1077625Y0776214
X1071144Y0778281
X1071876Y0759781
Y0757281
X1074076Y0758581
X1065276Y0759181
X105716Y0753917
X1055765Y0752376
X1058028Y0749817
X1057947Y0747113
X1056552Y0744108
X1057576Y0742281
Y0740281
X1064976Y0739081
X1066416Y0737614
X1067676Y0739481
X1078993Y0737809
X1078895Y0734758
X1081192Y0736301
X1083324Y0738005
X1083473Y0734716
X1082963Y0742111
X1080335Y0740144
X1078747Y0746027
X108989Y0751697
X1090512Y0759381
X1090787Y0728615
X1090721Y0726336
X1090676Y0715381
X1093166Y0712218
Y0708281
X1090976Y0704981
X1087976Y0701181
X1080976
X1083176Y0704981
X1082561Y0706602
X1082657Y0710292
X1084476Y0715381
X1073976Y0701181
X1067176
X1044976Y0726381
X1039976Y0723381
X1036976Y0726381
Y0731381
Y0737381
Y0739381
Y0741381
Y0746381
X1041676Y0747581
Y0749481
X1036976Y0752381
Y0758381
Y0760381
Y0762381
Y0767381
Y0773381
Y0778381
X1042065Y0778236
X1041788Y0774915
X1041872Y0771924
X1047508Y0771699
Y0774855
X1047662Y077831
X1047976Y0768281
X1050176Y0769981
X1043876Y0767281
X1043576Y0759081
X1041676
Y0757281
X1043376
X1049076Y0757481
X1041276Y0738331
X1036976Y0720381
X1097076Y0725381
X1099176Y0725481
X1107076
X1109876Y0727381
X1112676Y0721281
X1114476Y0720981
X1111476Y0719981
X1112629Y0716222
X1112851Y071025
X1110876Y0704981
X1114876
X1112976Y0701181
X1118576
X1123976
X1124676Y0705081
X1120776Y0704881
X1122694Y071025
X1120549Y0714742
X1119276Y0722081
X1123976Y0729581
X1127376
X1129876Y0731481
X1129576Y0734581
X1119876Y0734681
X1117936Y0736511
X1115976Y0738281
Y0734681
X1114276
X1111876Y0736781
Y0739481
X1108676
X1108576Y0736981
X1104576Y0735081
Y0749981
X1109176Y0751081
X1112676Y0756281
X1115176
X1112676Y0760281
Y0763781
X1119176Y0764281
X1123882Y0765471
X1126476Y0763881
X1128676
X1127776Y0765981
X1127276Y0767781
X1129583Y0768321
X1131858Y0767443
X1131776Y0760881
X1129576
X1134276
X1136776Y0760981
X1138146Y0766746
X1144139Y0755079
X1145276Y0750781
X1147241Y0751837
X1146476Y0747981
X1142296Y0748221
X1142306Y0749941
X1136666Y0748241
X1134166Y0748861
X1134376Y0745781
X1127676Y0746381
X1125876
X1123676Y0746401
X1126286Y0748891
X1127976Y0748881
X1129676Y0748981
X1119976Y0740181
X1120016Y0738341
X1112996Y0743471
X1100576Y0754681
X1093811Y0749391
X1101876Y0718081
X1102522Y0716079
X1102476Y0712681
X1102376Y0709081
X1104576Y0704981
X1100176Y0704881
X1100976Y0701181
X1106976
X1094776
X1094476Y0704981
X1097576Y0712981
X1132476Y0704981
X1129976Y0701181
X1135976
X1141776
X1142776Y0704881
X1142783Y0707346
X1142776Y0710281
X1140776Y0715781
X1141976Y0723381
X1143176Y0724781
X1145176Y0726581
X1146126Y0722281
X1144376Y0721081
X1149266Y072274
X115053Y072457
X1153009
X1155908
X1157876Y0724581
X1159376Y0727581
X1157876Y0734331
X1155826Y0733731
X1154576Y0732481
X1152526Y0737481
X1150376
X1146076Y0739411
X1140876Y0733681
X1137976Y0731881
X1136676Y0730681
X1135376Y0729581
X1133076Y0722381
X1150976Y0715781
X1152676Y0709381
Y0707081
X1152776Y0704881
X1154976
X1150276
X1147776Y0701181
X1152976
X1158976
X1160476Y0705181
X1161876Y0707781
X1164032Y0712218
X1165526Y0714531
X1170176Y0714631
X1171226Y0710731
X1173526Y0712931
X1175426Y0714231
X1178175Y0712775
X1179793Y071469
X1180579Y0711174
X1182976Y0712581
X1183225Y0708084
X1180776Y0705381
X1181976Y0701381
X1176976
X1173176Y0702181
X1169976Y0701181
X1170627Y0705624
X1174776Y0704981
X1164776Y0701181
X1159776Y0713181
X1160876Y0720831
X1164776Y0721381
X1170076Y0721631
X1175226Y0721831
X1176729Y0722946
X1181476Y0724281
X1183276Y0724481
X1181976Y0727081
X1180176
X1179676Y0729181
X1177626
Y0732281
X1177639Y0734856
X1180376Y0734981
X1180876Y0732831
X1180976Y0730781
X1183076Y0729281
X1183276Y0732681
Y0734981
X1180376Y0739581
X1188276Y0739381
X1187761Y0749668
X1187787Y0752444
X1179576Y0753231
X1179876Y0750881
X1179776Y0748081
X1171547Y0748484
X1171576Y0745581
X1166776Y0745781
X1166672Y0749038
X1166636Y0752337
X1171507
X1171536Y0756221
X1171576Y0760781
X1171826Y0767731
X1172797Y0769701
X1174576Y0768631
X1178326Y0771631
X1180376Y0771704
X1178276Y0776431
X1166276Y0777381
X1163976Y0768181
X1161976Y0760681
X1161826Y0756051
X1156806Y0755971
X1156894Y0752337
X1156946Y0748741
X1156976Y0745781
X1161934Y0745861
X1161916Y0749101
X1153676Y0743281
X1159276Y0735781
X1163576Y0731781
X1166576Y0732239
X1171476Y0736369
X1172426Y0728781
X1200376Y0725681
X1202176
X1202899Y0720207
X1213245Y0720092
Y0716155
X1213576Y0709881
Y0706981
X1211076Y0710781
X1204076Y0710681
X1201434Y071025
X1201926Y0707592
X1200976Y0701381
X1207976
X1214976
X1221976
X1226976
X1232976
X1232676Y0705181
X1232733Y0707592
X1232676Y0709981
X1231876Y0716081
X1232176Y0717981
X1232076Y0720081
X1232401Y0724337
X1235128Y0724282
X1237476Y0724781
Y0722781
X1237576Y0726781
Y0728781
Y0730781
X1226676Y0732681
X1225576Y0737881
X1224276Y0736681
X1221576Y0736481
Y0734781
X1219876Y0733381
X1215676Y0735581
X1213976
X1214276Y0738681
X1211776Y0738981
X1213377Y0742264
X1209776Y0743481
X1211676Y0745481
X1214165Y0746539
X1215776Y0748081
X1215676Y0750481
Y0752781
X1217576
X1212576
X1212776Y0754781
X1210376Y0753881
X1208676Y0754181
X1206976Y0752581
X1207476Y0750281
X1204876Y0750481
X1203526Y0746631
X1207476Y0747381
X1210276Y0748681
X1210376Y0751581
X1212576Y0750481
X1221476Y0750981
X1223876Y0752581
X1225676
X1231166Y0751886
X1233476Y0750781
X1234257Y0743904
X1237076Y0746681
X1239276Y0753381
X1239076Y0756581
X1243376Y0757781
Y0760381
X1236476Y0760601
X1236473Y0763793
Y076773
Y0771667
X1229912
Y076773
Y0763793
X1229866Y0760881
X122335Y076773
Y0771667
X1220676Y0769881
X1216788Y0771667
X1210276Y077221
X1210283Y0766305
X1216976Y0763681
X1203776Y0763081
X1201576Y0762981
X1201176Y0760981
X1201566Y0767011
X1196176Y0770281
X1190476Y0770581
X1190576Y0773581
X1190176Y0780231
X1191926
X1193776Y0780181
X1195676
X1197576
X1188426
X1153776Y0778981
X1152176Y0778081
X1152976Y0773181
X1146426Y0776681
X1130876Y0777281
X1124162Y0776473
X1121712Y0776805
X1122338Y0774456
X1119694Y0775356
X1112269Y0770446
X1156776Y0760681
X1200676Y0743381
X1205276
X1218476Y0742081
X1218376Y0740281
X1221576Y0738281
X1226336Y0743432
X1227176Y0724481
X1228676Y0722381
X1224176Y0721181
X1221976Y0724581
X1218776Y0722181
X1219876Y0714681
X1224476Y0711381
X1223276Y0707881
X1230176Y0714581
X1236176Y0713881
X1240676Y0713981
X1241477Y0709895
X1240823Y0704324
X1237976Y0701381
X1243976
X1248976
X1243476Y0716681
X1243376Y0719981
X1247376Y0741681
X1245644Y0749227
X1247776Y0753581
X1247526Y0756931
X1249776Y0755681
X1242776Y0753481
X1242876Y0768481
Y0770181
X1245076
Y0768481
X1247276Y0768531
X1247176Y0770281
X1249276Y0770081
X1243776Y0776381
Y0778081
X1241776Y0776381
X1215676Y0730181
X1213976
X119356Y071025
X1191493Y0706313
X1193976Y0701381
X1187976
X1254976
X1260976
X1265976
X1266176Y0705081
X1269076Y0702281
X1263976Y0709681
X1266576Y0721781
X1257676Y0723481
X1255576
X1255676Y0725781
X1257676Y0725881
Y0728081
X1257376Y0730081
X1258576Y0731681
X1257676Y0733281
Y0735781
Y0738181
X1257776Y0742581
X1253476Y0742981
X1250976Y0745481
X1250576Y0747381
X1250326Y0749481
X1252676Y0748681
X1254976Y0749481
X1254726Y0747281
X1258376Y0746781
Y0749481
X1264051Y0749693
X1264176Y0747081
X1264076Y0742681
X1266976Y0741781
X1270076Y0743081
X1269976Y0746381
X1270095Y0749765
X1273176Y0749781
X1273031Y0754181
X1272976Y0758531
X1272876Y0762831
X1279576Y0762881
X1287307Y0762684
X1288976Y0764381
Y0770381
Y0776381
X1287401Y0779094
X1280176Y0778681
X1272981Y077882
X1266776Y0776581
X1265326Y0773931
X1265226Y0770681
X1266476Y0767981
X1259676Y0771581
X1256176Y0771781
X1255076Y0769581
X1252576Y0770281
X1251026Y0770931
X1253076Y0772381
X1252576Y0767831
X1250176
Y0757681
X1254476Y0757381
X1267176Y0751781
X1279676Y0754081
X1280176Y0749781
X1288676
X1288976Y0752381
X1287401Y0754275
X1287276Y0758281
X1287176Y0739781
X1288976Y0739381
Y0737381
X1287176Y0734781
Y0730781
Y0726781
X1288976Y0724381
X1285076Y0723681
X1287476Y0720981
X1288976Y0718381
X1280176Y0726781
X1273176
Y0734781
Y0739781
X1268476Y0738081
Y0735981
Y0733981
X1265976Y0733881
Y0735881
Y0738081
X1255476Y0734281
Y0731981
X1253276
X1251076
Y0734281
X1253276Y0734381
X1280176Y0734781
Y0739781
X1253226Y0777531
X1255639Y0782436
X1259076Y0782381
X1264823Y078299
X1266776Y0788281
Y0791881
X1261885Y0791795
X1261976Y0788281
X1256376Y0788381
X1254376
X1253926Y0792731
X1255626
X1258476Y0790581
X1264376Y0794781
X1270176Y0794681
X1270276Y0798781
X1272976Y0802381
X1272676Y0806281
X1269435Y0806038
X1267376Y0803681
X1257876Y0804481
X1256076Y0805781
Y0802681
X1256176Y0800181
X1257976Y0801481
X1255976Y0815381
X1265976
X1272876Y0814881
X1272676Y0810681
X1280076Y0810581
X1280176Y0806181
X1281976Y0802381
X1288976
X1287395Y0806333
X1287476Y0810681
Y0814881
X1279976Y0815081
X1281976Y0791381
X1280076Y0787481
X1280176Y0783181
X1287476
X1287606Y0787294
X1288976Y0791381
X1272976
X1272913Y0787363
X1272876Y0783181
X1242776Y0784481
X1238976Y0785481
X1237176
X1239676Y0782381
X1238576Y0792181
X1238676Y0795481
X1240376Y0795181
Y0798581
X1240276Y0800581
X1242176Y0796881
X1248726Y0794781
Y0792781
X1247476Y0806281
X1242776
X1238276
X1233176
X1228276
X1229292Y0797481
X1223226Y0795881
X1221587Y0795915
X1221576Y0794131
X1223226
X1224076Y0792481
Y0790681
X1225876Y0790581
Y0792681
X1230976Y0786081
X1210776Y0786881
Y0784981
X1206776Y0781781
X1201976Y0781681
X1199876Y0781481
X1199859Y0785721
X1200576Y0792681
Y0794481
Y0796281
X1200523Y0798817
X1196026Y0800281
X1196305Y0808342
X1198023Y080835
X1193776Y0808881
X1189202Y0807577
X1184706Y0806296
X1183976Y0815381
X1189976
X1194976
X1199976
X1206976
X1212976
X1219976
X1225976
X1231976
X1238976
X1215376Y0806181
X1209676
X1207676Y0798781
X1212476
Y0795681
X1188176Y0790281
X1186176
X117872Y0790163
X1177944Y0798507
X1174676Y0796581
X1171104Y0797389
X1163876Y0790981
X1166976Y0784081
X1168776
X1170676
X1166276Y0781581
X1153076Y0785981
X1153176Y0787881
X1148576Y0791431
X1146776Y0797881
X1144776Y0797381
X1141376Y0798381
X1138576Y0799381
X1138276Y0807581
X1141276Y0807981
X1143137Y0807021
X1145876Y0809081
X1148276
X1147976Y0815381
X1154976
X1161976
X1169976
X1176976
X1172776Y0809881
X1167262Y0808473
X1159876Y0809081
X1157376
X1140976Y0815381
X1133976
X1126976
X1120976
X1115976
X1115198Y08041
X1110276Y0803981
X1109876Y0805981
X1108676Y0802981
X1107076Y0801006
X1108276Y0798881
X1105476
X1104876Y0796081
X1104776Y0792581
Y0788781
X1106676Y0785881
X1109776Y0788481
Y0792781
X1108342Y0795654
X1111468Y0795562
X1110076Y0797781
X1114744Y0790299
X1116726Y0787881
X1114776Y0785381
X1124676Y0788981
X1127028Y0789786
X1128776Y0783381
X1132326
X1139626Y0783481
X1143376Y0784481
X1143426Y0782081
X1145376Y0783531
X1181876Y0783881
X1103698Y0782494
X1094276Y0781881
X1095875Y0797311
X1095976Y0813381
X1100976
X1120876Y0805681
X1091976Y0813381
X1085976
X1081976Y0815381
X1076976
X1073976
X1070976
X1068476
X1058976
X1054976
X1059702Y0810643
X1061976Y0804381
X1060976Y0798381
X1057976Y0794381
X1052976Y0791381
X1046976Y0790381
X1040976Y0792381
X1036976Y0789381
Y0784381
Y0796381
X1035976Y0799381
X1068576Y0799181
X1069376Y0795581
X1077576Y0794181
X1085776Y0794481
X1091134Y0793955
Y0788895
X1092176Y0781881
X1059866Y0781351
X1060776Y0783478
X1082826Y0809931
T03
X1268422Y0730948
Y0758448
Y0783114
Y0810614
T04
X1104348Y0812331
X1088403
T05
X1111576Y0813563
X1248276Y0813561
T06
X1067576Y0708281
Y0718281
X1077576
Y0708281
X1087576
Y0718281
X1097576
X1107576
X1117576
X1127576
X1137576
X1147576
X1157576
X1167576
X1177576
X1187576
X1197576
X1207576
X1217576
X1227576
X1237576
X1247576
Y0708281
X1237576
X1227576
X1217576
X1207576
X1197576
X1187576
X1177576
X1167576
X1157576
X1147576
X1137576
X1127576
X1117576
X1107576
X1097576
X1257576
Y0718281
T07
X1048402Y0713281
X1276749Y0713281
X1048402Y0803832
M30
