M48
;Layer_Color=6321
;FILE_FORMAT=2:5
INCH,LZ
;TYPE=PLATED
T1F00S00C0.00400
;TYPE=NON_PLATED
%
T01
X1075776Y0761581
Y0764181
X1080576
Y0761581
X1085376
X1086976
X1088276
X1089576Y0761881
X1091076
X1092276Y0761181
X1091476Y0766081
X1090076Y0766181
X1088676Y0766281
X1087376
X1086176
X1086476Y0763981
X1084576Y0764281
X1092676Y0766881
X1094376
X1095576Y0766981
X1096676Y0768281
Y0769781
Y0771281
X1098476
X1100676
Y0769881
Y0768281
X1098476
X1098776Y0759681
X1100776
Y0758181
X1100876Y0756581
X1098776Y0756681
X1096676
Y0758181
Y0759681
X1095576Y0761181
X1093976
X1114476Y0761681
X1118176Y0762581
X1116876Y0765281
X1116737Y0768335
X1113276Y0769081
X1113176Y0772081
X1113276Y0775281
X1112304Y0776699
X1112876Y0779181
X1117344Y0779424
X1118676Y0779481
X1119326Y0777977
X1117376Y0776181
X1116693Y0772897
X1124497Y0772939
X1126289Y0770962
X1127676Y0769181
X1128776Y0770281
X1129994Y0770618
X1131472Y0769401
X1133276Y0766781
Y0762481
X1135276Y0761981
X1137176Y0762581
X1139296Y0761343
X1141576Y0760681
X1141976Y0761781
X1144976Y0761881
X1144076Y0760581
X1148076
X1147976Y0757181
X1145876
X1141076
X1136276
X1131776
X1127976
X1127876Y0760581
X1124376
X1123876Y0757181
X1119976Y0757381
X1120676Y0760881
X1116676Y0759081
X1113276Y0765581
X1126247Y0774963
X1126201Y0779375
X1123876Y0777977
X1133177Y0772948
X1134155Y0772027
X1134174Y0773926
X1135151Y0772948
X1136167Y0773888
X1137076Y0772881
X1136148Y0771951
X1138476Y0770281
X1140376Y0769881
X1141976Y0769281
X1143676Y0770481
X1145776Y0770281
X1144976Y0769281
Y0765681
X1141876Y0765581
X1138276Y0773981
X1154276Y0772381
X1155576Y0771981
X1157426
X1159276Y0772131
X1160976Y0773481
X1162676Y0773381
Y0774881
X1163686Y0775631
X1163676Y0777081
X1163576Y0778581
X1163586Y0779934
X1162676Y0780681
X1164576
X1166576Y0779481
X1166526Y0775531
X1166576Y0773881
X1164576Y0773381
Y0774881
X1163636Y0774059
X1163676Y0772681
X1165676Y0771481
X1167576Y0772181
X1167876Y0770481
X1169726Y0772081
X1172026Y0771981
X1173976Y0771181
X1175026
X1178876Y0765396
X1178476Y0760581
X1175376
Y0757181
X1178476
X1181476
X1185076
X1188376
X1188576Y0760581
X1185176
X1181976
X1192376
X1195876
X1198676Y0760681
Y0757181
X1195576
X1191976
X1193156Y0752809
X1197445Y0752858
X1202859Y0752863
X1201976Y0757181
X1206576
X1211176
X1211776Y0760581
X1207876
X1204076
X1201245Y0765084
X1192899Y0765662
X1198876Y0771681
X1197876Y0774781
X1197076Y0773981
X1196176Y0774781
X1197028Y0775638
X1197876Y0776481
X1196124Y0776475
X1197028Y0777433
X1200176Y0779981
X1202476
X1207018Y0779422
X1208176Y0780781
X1209576
X1210976
X1212376
X1212139Y0779302
X1210676Y0779181
X1209276Y0779081
X1209876Y0774281
X1208254Y0773956
X1205976Y0774481
X1203276Y0774281
X1208313Y0770202
X1212376Y0774081
X1214776Y0773981
X121747Y077427
X1218776Y0774281
X1220535Y0773304
X1220476Y0777481
X1219376
X1221776
X1222976
X1224449Y0775343
X1227205
X1230676Y0777781
X1232176
Y0779281
Y0780781
X1235976Y0779681
Y0775081
Y0769681
X1232376Y0769781
Y0766781
X1232476Y0763981
X1231876Y0761181
X1234576Y0758881
X1235976Y0762281
Y0765681
X1232376Y0772881
X1227472Y0781014
X1225371Y0780991
X124114Y0780976
X1245713Y0774664
X1249867Y0763844
X1243076Y07492
X1236151Y0750495
X1235201Y0753395
X1234082Y0746534
X1233876Y0739381
X1235176Y0739581
X1232476Y0739481
X1230676Y0739381
X1230776Y0735381
X1231076Y0731481
Y0730181
X1230176Y0730881
X1242076Y0730781
X1243776Y0732081
X1245476Y0730781
Y0733381
X1247276Y0732081
X1249276Y0733481
Y0735281
Y0730681
X1242176Y0736681
X1241176
Y0737781
X1242176
X1237476Y0741692
X1224136Y0746601
X1226523Y0750479
X1227409Y0752849
X1226276Y0757181
X1222276
X1218176
X1219688Y0752882
X1218098Y0750468
X1209776Y0745251
X1209676Y0739981
X1206176
X1203376
X1200876
X1198076
X1195776
X1194776Y0738981
X1193276Y0737281
X1191376Y0735581
X1189876Y0734081
X1188276Y0732481
X1186876Y0730881
X1186776Y0728181
X1186876Y0726181
Y0723181
X1185576Y0721781
X1184276Y0720381
X1180976Y0720281
X1181376Y0722281
X1183576Y0727731
X1185476Y0734181
X1187676Y0736481
X1190376Y0738981
X1192876Y0741781
X1195376Y0743281
X1198976Y0743181
X1202276
X1209176Y0733281
X1216576Y0725781
X1194525Y0731561
X1184376Y0716181
X1162476Y0715381
X1159889Y0733986
X1160084Y0737672
X1158974
X1157864
X1157426Y0735931
X1156205Y0731164
X1154599Y0740586
X1150376Y0741381
X1149176
X1149249Y0743482
X1150397Y0743492
X1150432Y0745068
X1149214Y0745065
X115046Y0739522
X1149627Y0752828
X1151076Y0757181
X1154976
X1159476
X1164476
X1169876
X1172676Y0762981
X1160695Y0763353
X1160676Y0766181
X1160976Y0769881
X1156276Y0769281
X1153776
X1153576Y0766081
X1156376
Y0761981
X1153676Y0761881
X1151876Y0760581
X1142098Y0752816
X1137156Y0752746
X1132433Y0752886
X1127235Y0752874
X1128692Y0744759
X1130676Y0744781
X1123886Y0744791
X1135001Y0739189
X1136422Y0739114
X1135418Y0738034
X1135493Y0735609
X1138639Y0735643
X1164134Y0735718
X1175968Y0752628
X1185776Y0779281
X1160976Y0780181
X1161076Y0776981
X1230876Y0757081
X1254076Y0739381
X1255276
X1256476
X1256876Y0736981
X1254476Y0733181
X1252176
X1252876Y0795081
X1256276
X1256376Y0798581
X1252676
X1260476
X1260276Y0795081
X1264576Y0798581
X1265202Y0801048
X1265276Y0802981
X1269472Y0803048
X1269476Y0801081
X1267276Y0794081
X1280322Y0791466
X1279856Y0802176
X1246776Y0801381
X1246876Y0799781
Y0798581
X1248876
X1246776Y0795181
Y0793081
X1246876Y0790181
Y0787581
X1244676Y0786081
X1242676Y0786581
X1240976Y0786081
X1235476Y0785981
X1233576Y0786581
X1232726Y0785481
X1234876Y0783981
X1231698Y0782029
X1227476Y0783081
X1225376
X1226417Y0782035
X1223276Y0785781
X1220876
X1219176Y0787481
X1217776
X1216476
X1212276Y0787581
Y0785881
Y0784181
X1208521Y0783872
X1208458Y0789081
X1210176Y0789081
X1212276Y0789381
X121226Y0791113
X1208376Y0791781
X1206876
X1206376Y0789181
X1203376
X1201176Y0790181
X1198976Y0789581
Y0788181
X1197876
X1197276Y0790081
X1195876
X1194405Y0790094
X1194276Y0791781
X1193876Y0795981
X1192676
X1190676Y0796181
X1189276
X1187976
X1186076
X1185776Y0798381
X1184376
X1181957Y0798399
X1182576Y0800281
X1181076
Y0801681
X1182676
X1189209Y0800702
X1187376Y0798381
X1179715Y0796552
X1177876Y0796581
X1176476Y0796381
X1177676Y0794281
X1179176
Y0792281
X1177076Y0792081
X1177844Y0784781
X1178844Y0783781
X1177844Y0782781
X1176804Y0783751
X1175744Y0782781
X1174744Y0783781
X1175744Y0784781
X1172276Y0783881
Y0781781
X1170176Y0781881
X1168276
X1164576Y0782081
X1163636Y0781363
X1163686Y0782934
X1162676Y0782181
X1160976Y0782481
X1160876Y0784581
X1159676Y0786481
X1157276Y0786081
X1155076Y0786181
X1150504Y0784431
X1149076Y0784481
X1147576
Y0782981
X1149076Y0782881
X1150504Y0782831
X1145576Y0781981
X1145376Y0785081
X1143976Y0785681
X1140976Y0784581
X1141376Y0783381
X1140976Y0782181
X1138376Y0781781
X1135976Y0782281
X1135876Y0784681
X1133492Y0784192
Y0782357
X1130562Y0782298
Y0784399
X1127293Y078319
X1123802Y078328
X112262Y078421
X1120704
X1121693Y0783217
X1122692Y0782205
X1120687
X1116443Y0783584
Y0785195
X1118066Y0786767
Y078872
X111475Y0787222
X1114376Y0783681
X111138Y0783986
X1112476Y0781381
X1114876Y0796081
X1116176Y0796481
X1118376Y0796181
X1120106Y0796841
X1121676Y0797081
X1123276
Y0798281
X1124611Y0797954
X1124469Y0799156
X1122276Y0799181
X1120576
X112088Y0797964
X1125276Y0797081
X1126476Y0798281
Y0799581
X1127876Y0799181
X1129376Y0799681
X1129176Y0798081
X1130476Y0798781
X1131676Y0799181
X1133276Y0799581
X1136876Y0799681
X1137176Y0801981
X1136076Y0804181
X1133276Y0803881
X1131376Y0804381
X1129976Y0804181
Y0805881
X1127776Y0807581
X1125676Y0805881
Y0804181
X1123276Y0803981
X1121676Y0804181
X1116476Y0803381
X1115876Y0802181
X1116076Y0800781
X1116376Y0805681
X1118576Y0807381
X1112576Y0803981
X1127076Y0796381
Y0794981
X1129376Y079505
X1128276Y0796881
X1133076Y0794181
X1134157Y0793309
X113512Y0794144
X1136051Y0793277
X1135954Y0795107
X113419
X1137076Y0794181
X1139976Y0797381
X1142576Y0796681
X1146176Y0793581
Y0792481
Y0790981
Y0789481
X1148476Y0797981
X1149476Y0798681
Y0800481
X1148576Y0801781
X1145576
X1145476Y0805481
X1148576
X1157076Y0805681
X1160176Y0805781
Y0801681
X1160376Y0799981
X1157657Y0800182
X1157176Y0801781
X1157376Y0796081
X1154776
X1152376Y0796281
X1160176Y0795581
X1162876
Y0794181
X1163826Y0794813
X1163876Y0793481
X1164776Y0794181
Y0795481
X1163876Y0796181
X1167576Y0795681
X1169576Y0796081
X1172676Y0795881
X1166776Y0792981
Y0789381
X1164776Y0788281
Y0786781
X1163826Y0787509
X1163776Y0786081
X1162876Y0786781
Y0788381
X1163876Y0789081
X1160776Y0789481
Y0792781
X1167676Y0786381
X1169976Y0786081
X1172276Y0786181
X1184676Y0789281
Y0790781
X118987Y0790907
X1187476Y0787481
X1188476Y0785881
X1188807Y0784181
X1198076Y0784981
Y0783181
X1199081Y0792151
X1202027Y0792166
X1202133Y0796412
X119893Y0796503
X1204276Y0798981
X1206876Y0797281
Y0795381
X1208576Y0795281
X1216876Y0793781
X1216376Y0791981
X1217776
X1219176
Y0789681
X1224476Y0787681
X1229376Y0786381
X1228876Y0794381
X1226576
X1231076Y0793481
X1234676Y0793181
Y0791281
X1236776Y0791181
X1239476
X1238776Y0793781
X1239876Y0796881
X1237476Y0799381
X1242476Y0799781
Y0801381
X1244476Y0801481
X1242676Y0790981
X1138476Y0785181
X1131276Y0789481
X1129276Y0789681
M30
