M48
;Layer_Color=9474304
;FILE_FORMAT=2:5
INCH,LZ
;TYPE=PLATED
T1F00S00C0.01400
T2F00S00C0.02800
T3F00S00C0.03937
;TYPE=NON_PLATED
T4F00S00C0.04291
T5F00S00C0.10827
%
T01
X0106299Y0107283
X0125
X0111221Y0149606
X0151575Y0154528
X0298228Y0153543
X0309055Y0104331
X0320866
X0345472Y0106299
X0347441Y0142717
Y0153543
X0329724
X0322835Y0144685
X0329724Y015748
Y0161417
X0322835Y0166339
X0315945
X0323205Y0173727
X0325509Y0184364
X0347441Y0189961
Y0177165
Y016437
Y0219488
X0346457Y0248031
X0327756Y0247047
X0291004Y0247006
X025689Y0246063
X0205709Y0237205
X0194709Y0246184
X0193898Y0225394
Y020374
X0192913Y0184055
X0209646Y0183071
X0207677Y0191929
X0206439Y0212709
X0174213Y0212598
Y0197835
X0163386Y0199803
X0162402Y0231299
X0174213
X0166339Y0165354
X0195866Y016437
X0226378Y0160433
X0233268Y0167323
X0237795Y0167542
X0234252Y017815
Y0186024
X0226378
Y017815
X0230315Y0182087
X0246063Y0181102
X0252953Y0172244
X0257874
X0270669Y0170276
X0280512Y0174213
X028937Y0177165
X0293307
X0297244
X030315Y0173228
X0310039Y0175197
X0304134Y0183071
Y0195866
X0299213
X0292815Y0201772
X0281878Y0201715
X0284449Y0195866
X0272638
X0267717Y0187008
X0257874
X0236221Y0200787
X0298228Y0161417
Y015748
X0150591Y0180118
X013189Y0165354
X0130905Y0198819
Y0230315
X0148622Y0214567
X0110236Y0211614
X0111221Y0183071
X0110236Y0244094
T02
X0133173Y0105
X0143173
X0153173
Y0145
X0143173
X0133173
X0163173
X0173173
X0183173
X0193173
X0203173
X0213173
X0223173
X0233173
X0243173
X0253173
X0263173
X0273173
X0283173
X0293173
X0303173
Y0105
X0293173
X0283173
X0273173
X0263173
X0253173
X0243173
X0233173
X0223173
X0213173
X0203173
X0193173
X0183173
X0173173
X0163173
X0313173Y0145
T03
X0159291Y0244094
X0169291
X0179291
X0215394
Y0234095
X0225394
X0235394
Y0244094
X0225394
X0149291
T04
X0138173Y0125
X0318173
T05
X0114Y0125
X0342347Y0125
M30
