G04*
G04 #@! TF.GenerationSoftware,Altium Limited,CircuitStudio,1.5.2 (30)*
G04*
G04 Layer_Color=8150272*
%FSLAX25Y25*%
%MOIN*%
G70*
G01*
G75*
%ADD53C,0.00500*%
G04:AMPARAMS|DCode=103|XSize=26.38mil|YSize=22.44mil|CornerRadius=6.3mil|HoleSize=0mil|Usage=FLASHONLY|Rotation=180.000|XOffset=0mil|YOffset=0mil|HoleType=Round|Shape=RoundedRectangle|*
%AMROUNDEDRECTD103*
21,1,0.02638,0.00984,0,0,180.0*
21,1,0.01378,0.02244,0,0,180.0*
1,1,0.01260,-0.00689,0.00492*
1,1,0.01260,0.00689,0.00492*
1,1,0.01260,0.00689,-0.00492*
1,1,0.01260,-0.00689,-0.00492*
%
%ADD103ROUNDEDRECTD103*%
G04:AMPARAMS|DCode=104|XSize=26.38mil|YSize=22.44mil|CornerRadius=6.3mil|HoleSize=0mil|Usage=FLASHONLY|Rotation=270.000|XOffset=0mil|YOffset=0mil|HoleType=Round|Shape=RoundedRectangle|*
%AMROUNDEDRECTD104*
21,1,0.02638,0.00984,0,0,270.0*
21,1,0.01378,0.02244,0,0,270.0*
1,1,0.01260,-0.00492,-0.00689*
1,1,0.01260,-0.00492,0.00689*
1,1,0.01260,0.00492,0.00689*
1,1,0.01260,0.00492,-0.00689*
%
%ADD104ROUNDEDRECTD104*%
%ADD107C,0.04137*%
G04:AMPARAMS|DCode=112|XSize=16.93mil|YSize=25.76mil|CornerRadius=2.09mil|HoleSize=0mil|Usage=FLASHONLY|Rotation=180.000|XOffset=0mil|YOffset=0mil|HoleType=Round|Shape=RoundedRectangle|*
%AMROUNDEDRECTD112*
21,1,0.01693,0.02158,0,0,180.0*
21,1,0.01276,0.02576,0,0,180.0*
1,1,0.00417,-0.00638,0.01079*
1,1,0.00417,0.00638,0.01079*
1,1,0.00417,0.00638,-0.01079*
1,1,0.00417,-0.00638,-0.01079*
%
%ADD112ROUNDEDRECTD112*%
G04:AMPARAMS|DCode=113|XSize=16.93mil|YSize=25.76mil|CornerRadius=2.09mil|HoleSize=0mil|Usage=FLASHONLY|Rotation=90.000|XOffset=0mil|YOffset=0mil|HoleType=Round|Shape=RoundedRectangle|*
%AMROUNDEDRECTD113*
21,1,0.01693,0.02158,0,0,90.0*
21,1,0.01276,0.02576,0,0,90.0*
1,1,0.00417,0.01079,0.00638*
1,1,0.00417,0.01079,-0.00638*
1,1,0.00417,-0.01079,-0.00638*
1,1,0.00417,-0.01079,0.00638*
%
%ADD113ROUNDEDRECTD113*%
G04:AMPARAMS|DCode=114|XSize=26.38mil|YSize=20.47mil|CornerRadius=5.81mil|HoleSize=0mil|Usage=FLASHONLY|Rotation=90.000|XOffset=0mil|YOffset=0mil|HoleType=Round|Shape=RoundedRectangle|*
%AMROUNDEDRECTD114*
21,1,0.02638,0.00886,0,0,90.0*
21,1,0.01476,0.02047,0,0,90.0*
1,1,0.01161,0.00443,0.00738*
1,1,0.01161,0.00443,-0.00738*
1,1,0.01161,-0.00443,-0.00738*
1,1,0.01161,-0.00443,0.00738*
%
%ADD114ROUNDEDRECTD114*%
G04:AMPARAMS|DCode=115|XSize=26.38mil|YSize=20.47mil|CornerRadius=5.81mil|HoleSize=0mil|Usage=FLASHONLY|Rotation=0.000|XOffset=0mil|YOffset=0mil|HoleType=Round|Shape=RoundedRectangle|*
%AMROUNDEDRECTD115*
21,1,0.02638,0.00886,0,0,0.0*
21,1,0.01476,0.02047,0,0,0.0*
1,1,0.01161,0.00738,-0.00443*
1,1,0.01161,-0.00738,-0.00443*
1,1,0.01161,-0.00738,0.00443*
1,1,0.01161,0.00738,0.00443*
%
%ADD115ROUNDEDRECTD115*%
%ADD118C,0.07874*%
%ADD119R,0.16796X0.10792*%
G04:AMPARAMS|DCode=122|XSize=24.41mil|YSize=20.47mil|CornerRadius=5.81mil|HoleSize=0mil|Usage=FLASHONLY|Rotation=90.000|XOffset=0mil|YOffset=0mil|HoleType=Round|Shape=RoundedRectangle|*
%AMROUNDEDRECTD122*
21,1,0.02441,0.00886,0,0,90.0*
21,1,0.01280,0.02047,0,0,90.0*
1,1,0.01161,0.00443,0.00640*
1,1,0.01161,0.00443,-0.00640*
1,1,0.01161,-0.00443,-0.00640*
1,1,0.01161,-0.00443,0.00640*
%
%ADD122ROUNDEDRECTD122*%
G04:AMPARAMS|DCode=123|XSize=24.41mil|YSize=20.47mil|CornerRadius=5.81mil|HoleSize=0mil|Usage=FLASHONLY|Rotation=180.000|XOffset=0mil|YOffset=0mil|HoleType=Round|Shape=RoundedRectangle|*
%AMROUNDEDRECTD123*
21,1,0.02441,0.00886,0,0,180.0*
21,1,0.01280,0.02047,0,0,180.0*
1,1,0.01161,-0.00640,0.00443*
1,1,0.01161,0.00640,0.00443*
1,1,0.01161,0.00640,-0.00443*
1,1,0.01161,-0.00640,-0.00443*
%
%ADD123ROUNDEDRECTD123*%
%ADD137C,0.23748*%
%ADD138R,0.06206X0.06206*%
%ADD139C,0.06206*%
%ADD140C,0.02662*%
%ADD142C,0.04300*%
G04:AMPARAMS|DCode=143|XSize=68mil|YSize=33mil|CornerRadius=4.5mil|HoleSize=0mil|Usage=FLASHONLY|Rotation=180.000|XOffset=0mil|YOffset=0mil|HoleType=Round|Shape=RoundedRectangle|*
%AMROUNDEDRECTD143*
21,1,0.06800,0.02400,0,0,180.0*
21,1,0.05900,0.03300,0,0,180.0*
1,1,0.00900,-0.02950,0.01200*
1,1,0.00900,0.02950,0.01200*
1,1,0.00900,0.02950,-0.01200*
1,1,0.00900,-0.02950,-0.01200*
%
%ADD143ROUNDEDRECTD143*%
G04:AMPARAMS|DCode=144|XSize=38.19mil|YSize=46.06mil|CornerRadius=2.26mil|HoleSize=0mil|Usage=FLASHONLY|Rotation=0.000|XOffset=0mil|YOffset=0mil|HoleType=Round|Shape=RoundedRectangle|*
%AMROUNDEDRECTD144*
21,1,0.03819,0.04154,0,0,0.0*
21,1,0.03366,0.04606,0,0,0.0*
1,1,0.00453,0.01683,-0.02077*
1,1,0.00453,-0.01683,-0.02077*
1,1,0.00453,-0.01683,0.02077*
1,1,0.00453,0.01683,0.02077*
%
%ADD144ROUNDEDRECTD144*%
G04:AMPARAMS|DCode=145|XSize=67.96mil|YSize=32.92mil|CornerRadius=3mil|HoleSize=0mil|Usage=FLASHONLY|Rotation=90.000|XOffset=0mil|YOffset=0mil|HoleType=Round|Shape=RoundedRectangle|*
%AMROUNDEDRECTD145*
21,1,0.06796,0.02693,0,0,90.0*
21,1,0.06197,0.03292,0,0,90.0*
1,1,0.00599,0.01347,0.03098*
1,1,0.00599,0.01347,-0.03098*
1,1,0.00599,-0.01347,-0.03098*
1,1,0.00599,-0.01347,0.03098*
%
%ADD145ROUNDEDRECTD145*%
G04:AMPARAMS|DCode=146|XSize=26.38mil|YSize=20.47mil|CornerRadius=5.81mil|HoleSize=0mil|Usage=FLASHONLY|Rotation=225.000|XOffset=0mil|YOffset=0mil|HoleType=Round|Shape=RoundedRectangle|*
%AMROUNDEDRECTD146*
21,1,0.02638,0.00886,0,0,225.0*
21,1,0.01476,0.02047,0,0,225.0*
1,1,0.01161,-0.00835,-0.00209*
1,1,0.01161,0.00209,0.00835*
1,1,0.01161,0.00835,0.00209*
1,1,0.01161,-0.00209,-0.00835*
%
%ADD146ROUNDEDRECTD146*%
G04:AMPARAMS|DCode=147|XSize=28.59mil|YSize=16.78mil|CornerRadius=2.88mil|HoleSize=0mil|Usage=FLASHONLY|Rotation=90.000|XOffset=0mil|YOffset=0mil|HoleType=Round|Shape=RoundedRectangle|*
%AMROUNDEDRECTD147*
21,1,0.02859,0.01102,0,0,90.0*
21,1,0.02284,0.01678,0,0,90.0*
1,1,0.00576,0.00551,0.01142*
1,1,0.00576,0.00551,-0.01142*
1,1,0.00576,-0.00551,-0.01142*
1,1,0.00576,-0.00551,0.01142*
%
%ADD147ROUNDEDRECTD147*%
G04:AMPARAMS|DCode=148|XSize=28.59mil|YSize=16.78mil|CornerRadius=2.88mil|HoleSize=0mil|Usage=FLASHONLY|Rotation=180.000|XOffset=0mil|YOffset=0mil|HoleType=Round|Shape=RoundedRectangle|*
%AMROUNDEDRECTD148*
21,1,0.02859,0.01102,0,0,180.0*
21,1,0.02284,0.01678,0,0,180.0*
1,1,0.00576,-0.01142,0.00551*
1,1,0.00576,0.01142,0.00551*
1,1,0.00576,0.01142,-0.00551*
1,1,0.00576,-0.01142,-0.00551*
%
%ADD148ROUNDEDRECTD148*%
G04:AMPARAMS|DCode=149|XSize=31.53mil|YSize=13.81mil|CornerRadius=3.95mil|HoleSize=0mil|Usage=FLASHONLY|Rotation=270.000|XOffset=0mil|YOffset=0mil|HoleType=Round|Shape=RoundedRectangle|*
%AMROUNDEDRECTD149*
21,1,0.03153,0.00591,0,0,270.0*
21,1,0.02363,0.01381,0,0,270.0*
1,1,0.00791,-0.00295,-0.01181*
1,1,0.00791,-0.00295,0.01181*
1,1,0.00791,0.00295,0.01181*
1,1,0.00791,0.00295,-0.01181*
%
%ADD149ROUNDEDRECTD149*%
G04:AMPARAMS|DCode=150|XSize=59.09mil|YSize=55.15mil|CornerRadius=6.32mil|HoleSize=0mil|Usage=FLASHONLY|Rotation=180.000|XOffset=0mil|YOffset=0mil|HoleType=Round|Shape=RoundedRectangle|*
%AMROUNDEDRECTD150*
21,1,0.05909,0.04252,0,0,180.0*
21,1,0.04646,0.05515,0,0,180.0*
1,1,0.01263,-0.02323,0.02126*
1,1,0.01263,0.02323,0.02126*
1,1,0.01263,0.02323,-0.02126*
1,1,0.01263,-0.02323,-0.02126*
%
%ADD150ROUNDEDRECTD150*%
G04:AMPARAMS|DCode=151|XSize=18.75mil|YSize=11.66mil|CornerRadius=2.37mil|HoleSize=0mil|Usage=FLASHONLY|Rotation=180.000|XOffset=0mil|YOffset=0mil|HoleType=Round|Shape=RoundedRectangle|*
%AMROUNDEDRECTD151*
21,1,0.01875,0.00693,0,0,180.0*
21,1,0.01402,0.01166,0,0,180.0*
1,1,0.00473,-0.00701,0.00347*
1,1,0.00473,0.00701,0.00347*
1,1,0.00473,0.00701,-0.00347*
1,1,0.00473,-0.00701,-0.00347*
%
%ADD151ROUNDEDRECTD151*%
G04:AMPARAMS|DCode=152|XSize=18.75mil|YSize=11.66mil|CornerRadius=2.37mil|HoleSize=0mil|Usage=FLASHONLY|Rotation=90.000|XOffset=0mil|YOffset=0mil|HoleType=Round|Shape=RoundedRectangle|*
%AMROUNDEDRECTD152*
21,1,0.01875,0.00693,0,0,90.0*
21,1,0.01402,0.01166,0,0,90.0*
1,1,0.00473,0.00347,0.00701*
1,1,0.00473,0.00347,-0.00701*
1,1,0.00473,-0.00347,-0.00701*
1,1,0.00473,-0.00347,0.00701*
%
%ADD152ROUNDEDRECTD152*%
G04:AMPARAMS|DCode=153|XSize=176.23mil|YSize=176.23mil|CornerRadius=5.83mil|HoleSize=0mil|Usage=FLASHONLY|Rotation=180.000|XOffset=0mil|YOffset=0mil|HoleType=Round|Shape=RoundedRectangle|*
%AMROUNDEDRECTD153*
21,1,0.17623,0.16457,0,0,180.0*
21,1,0.16457,0.17623,0,0,180.0*
1,1,0.01166,-0.08228,0.08228*
1,1,0.01166,0.08228,0.08228*
1,1,0.01166,0.08228,-0.08228*
1,1,0.01166,-0.08228,-0.08228*
%
%ADD153ROUNDEDRECTD153*%
G04:AMPARAMS|DCode=154|XSize=36.47mil|YSize=14.81mil|CornerRadius=6.22mil|HoleSize=0mil|Usage=FLASHONLY|Rotation=180.000|XOffset=0mil|YOffset=0mil|HoleType=Round|Shape=RoundedRectangle|*
%AMROUNDEDRECTD154*
21,1,0.03647,0.00236,0,0,180.0*
21,1,0.02402,0.01481,0,0,180.0*
1,1,0.01245,-0.01201,0.00118*
1,1,0.01245,0.01201,0.00118*
1,1,0.01245,0.01201,-0.00118*
1,1,0.01245,-0.01201,-0.00118*
%
%ADD154ROUNDEDRECTD154*%
G04:AMPARAMS|DCode=155|XSize=36.47mil|YSize=14.81mil|CornerRadius=6.22mil|HoleSize=0mil|Usage=FLASHONLY|Rotation=90.000|XOffset=0mil|YOffset=0mil|HoleType=Round|Shape=RoundedRectangle|*
%AMROUNDEDRECTD155*
21,1,0.03647,0.00236,0,0,90.0*
21,1,0.02402,0.01481,0,0,90.0*
1,1,0.01245,0.00118,0.01201*
1,1,0.01245,0.00118,-0.01201*
1,1,0.01245,-0.00118,-0.01201*
1,1,0.01245,-0.00118,0.01201*
%
%ADD155ROUNDEDRECTD155*%
G04:AMPARAMS|DCode=156|XSize=227.41mil|YSize=227.41mil|CornerRadius=7.11mil|HoleSize=0mil|Usage=FLASHONLY|Rotation=90.000|XOffset=0mil|YOffset=0mil|HoleType=Round|Shape=RoundedRectangle|*
%AMROUNDEDRECTD156*
21,1,0.22741,0.21319,0,0,90.0*
21,1,0.21319,0.22741,0,0,90.0*
1,1,0.01422,0.10659,0.10659*
1,1,0.01422,0.10659,-0.10659*
1,1,0.01422,-0.10659,-0.10659*
1,1,0.01422,-0.10659,0.10659*
%
%ADD156ROUNDEDRECTD156*%
%ADD157R,0.14867X0.14867*%
%ADD158O,0.03450X0.01284*%
%ADD159O,0.01284X0.03450*%
G04:AMPARAMS|DCode=160|XSize=42.37mil|YSize=40.4mil|CornerRadius=3.37mil|HoleSize=0mil|Usage=FLASHONLY|Rotation=180.000|XOffset=0mil|YOffset=0mil|HoleType=Round|Shape=RoundedRectangle|*
%AMROUNDEDRECTD160*
21,1,0.04237,0.03366,0,0,180.0*
21,1,0.03563,0.04040,0,0,180.0*
1,1,0.00674,-0.01782,0.01683*
1,1,0.00674,0.01782,0.01683*
1,1,0.00674,0.01782,-0.01683*
1,1,0.00674,-0.01782,-0.01683*
%
%ADD160ROUNDEDRECTD160*%
G04:AMPARAMS|DCode=161|XSize=42.37mil|YSize=40.4mil|CornerRadius=3.37mil|HoleSize=0mil|Usage=FLASHONLY|Rotation=90.000|XOffset=0mil|YOffset=0mil|HoleType=Round|Shape=RoundedRectangle|*
%AMROUNDEDRECTD161*
21,1,0.04237,0.03366,0,0,90.0*
21,1,0.03563,0.04040,0,0,90.0*
1,1,0.00674,0.01683,0.01782*
1,1,0.00674,0.01683,-0.01782*
1,1,0.00674,-0.01683,-0.01782*
1,1,0.00674,-0.01683,0.01782*
%
%ADD161ROUNDEDRECTD161*%
G36*
X1051006Y763781D02*
X1049306D01*
Y763881D01*
X1050206Y764781D01*
Y765081D01*
X1049306Y765981D01*
Y766081D01*
X1051006D01*
Y763781D01*
D02*
G37*
G36*
X1156676Y786681D02*
X1154376D01*
Y788381D01*
X1154476D01*
X1155376Y787481D01*
X1155676D01*
X1156576Y788381D01*
X1156676D01*
Y786681D01*
D02*
G37*
G36*
X1159876D02*
X1157576D01*
Y788381D01*
X1157676D01*
X1158576Y787481D01*
X1158876D01*
X1159776Y788381D01*
X1159876D01*
Y786681D01*
D02*
G37*
G36*
X1060946Y763551D02*
Y763251D01*
X1059946Y762251D01*
X1059146D01*
Y764551D01*
X1059946D01*
X1060946Y763551D01*
D02*
G37*
G36*
X1062706Y762251D02*
X1061006D01*
Y762351D01*
X1061906Y763251D01*
Y763551D01*
X1061006Y764451D01*
Y764551D01*
X1062706D01*
Y762251D01*
D02*
G37*
G36*
X1049246Y765081D02*
Y764781D01*
X1048246Y763781D01*
X1047446D01*
Y766081D01*
X1048246D01*
X1049246Y765081D01*
D02*
G37*
G36*
X1159876Y789281D02*
X1158876Y788281D01*
X1158576D01*
X1157576Y789281D01*
Y790081D01*
X1159876D01*
Y789281D01*
D02*
G37*
G36*
X1163076D02*
X1162076Y788281D01*
X1161776D01*
X1160776Y789281D01*
Y790081D01*
X1163076D01*
Y789281D01*
D02*
G37*
G36*
X1166476D02*
X1165476Y788281D01*
X1165176D01*
X1164176Y789281D01*
Y790081D01*
X1166476D01*
Y789281D01*
D02*
G37*
G36*
X1163076Y786681D02*
X1160776D01*
Y788381D01*
X1160876D01*
X1161776Y787481D01*
X1162076D01*
X1162976Y788381D01*
X1163076D01*
Y786681D01*
D02*
G37*
G36*
X1166476D02*
X1164176D01*
Y788381D01*
X1164276D01*
X1165176Y787481D01*
X1165476D01*
X1166376Y788381D01*
X1166476D01*
Y786681D01*
D02*
G37*
G36*
X1156676Y789281D02*
X1155676Y788281D01*
X1155376D01*
X1154376Y789281D01*
Y790081D01*
X1156676D01*
Y789281D01*
D02*
G37*
D53*
X1290528Y813564D02*
G03*
X1286362Y817730I-4166J0D01*
G01*
X1048995D02*
G03*
X1034623Y803358I0J-14372D01*
G01*
X1034623Y712769D02*
G03*
X1047891Y699502I13268J0D01*
G01*
X1276749Y699502D02*
G03*
X1290528Y713281I0J13780D01*
G01*
X1107961Y815466D02*
X1110224Y817730D01*
X1048995D02*
X1082327D01*
X1084591Y815466D01*
X1290528Y767631D02*
Y813564D01*
X1110224Y817730D02*
X1286362D01*
X1290528Y713281D02*
Y718006D01*
X1034623Y796470D02*
Y803358D01*
X1084591Y815466D02*
X1107961D01*
X1290528Y718006D02*
Y767631D01*
X1034623Y712769D02*
X1034623Y796470D01*
X1047891Y699502D02*
X1276749Y699502D01*
D103*
X1251631Y803557D02*
D03*
Y799620D02*
D03*
X1250253Y781509D02*
D03*
Y777572D02*
D03*
X1236070Y745635D02*
D03*
Y749572D02*
D03*
X1252676Y751413D02*
D03*
Y755350D02*
D03*
X1069876Y783313D02*
D03*
Y787250D02*
D03*
X1090410Y749226D02*
D03*
Y745289D02*
D03*
X1227976Y734813D02*
D03*
Y738750D02*
D03*
X1080322Y746027D02*
D03*
Y742090D02*
D03*
X1077172Y746027D02*
D03*
Y742090D02*
D03*
X1070479D02*
D03*
Y746027D02*
D03*
X1079239Y776490D02*
D03*
Y780427D02*
D03*
X1076076Y776513D02*
D03*
Y780450D02*
D03*
X1060176Y742113D02*
D03*
Y746050D02*
D03*
X1164032Y769305D02*
D03*
Y773242D02*
D03*
X1172376Y730213D02*
D03*
Y734150D02*
D03*
X1147876Y735613D02*
D03*
Y739550D02*
D03*
X1156175Y772664D02*
D03*
Y768727D02*
D03*
X1097376Y771213D02*
D03*
Y775150D02*
D03*
X1208708Y792879D02*
D03*
Y788942D02*
D03*
X1212251D02*
D03*
Y792879D02*
D03*
X1232330Y745635D02*
D03*
Y749572D02*
D03*
X1222276Y748650D02*
D03*
Y744713D02*
D03*
X1247103Y781509D02*
D03*
Y777572D02*
D03*
X1236076Y791850D02*
D03*
Y787913D02*
D03*
X1240204Y749572D02*
D03*
Y745635D02*
D03*
X1244141Y737761D02*
D03*
Y741698D02*
D03*
X1111976Y734680D02*
D03*
Y730743D02*
D03*
X1090776Y771213D02*
D03*
Y775150D02*
D03*
X1085876Y742350D02*
D03*
Y738413D02*
D03*
X1199991Y791421D02*
D03*
Y787484D02*
D03*
X1134506Y735983D02*
D03*
Y739920D02*
D03*
X1137806Y736003D02*
D03*
Y739940D02*
D03*
X1236076Y794613D02*
D03*
Y798550D02*
D03*
D104*
X1182007Y752681D02*
D03*
X1185944D02*
D03*
Y749481D02*
D03*
X1182007D02*
D03*
X1105642Y775662D02*
D03*
X1109579D02*
D03*
X1105666Y779049D02*
D03*
X1109603D02*
D03*
X1105666Y782494D02*
D03*
X1109603D02*
D03*
X1075843Y807887D02*
D03*
X1079780D02*
D03*
X1123678Y761234D02*
D03*
X1127615D02*
D03*
X1093855Y752080D02*
D03*
X1097792D02*
D03*
X1093855Y755919D02*
D03*
X1097792D02*
D03*
X1071144Y779981D02*
D03*
X1067207D02*
D03*
X1071144Y776581D02*
D03*
X1067207D02*
D03*
X1088744Y778681D02*
D03*
X1084807D02*
D03*
X1093855Y759757D02*
D03*
X1097792D02*
D03*
X1070085Y738940D02*
D03*
X1074022D02*
D03*
X1063944Y750081D02*
D03*
X1060007D02*
D03*
X1063144Y756681D02*
D03*
X1059207D02*
D03*
X1059209Y760053D02*
D03*
X1063146D02*
D03*
X1147044Y747081D02*
D03*
X1143107D02*
D03*
X1141007Y759781D02*
D03*
X1144944D02*
D03*
X1219444Y796381D02*
D03*
X1215507D02*
D03*
X1228807Y788181D02*
D03*
X1232744D02*
D03*
X1228807Y791681D02*
D03*
X1232744D02*
D03*
X1215507Y792781D02*
D03*
X1219444D02*
D03*
X1215507Y789181D02*
D03*
X1219444D02*
D03*
X1225207Y794981D02*
D03*
X1229144D02*
D03*
X1203787Y766305D02*
D03*
X1207724D02*
D03*
X1228590Y741895D02*
D03*
X1232527D02*
D03*
X1236267Y741698D02*
D03*
X1240204D02*
D03*
X1063144Y763381D02*
D03*
X1059207D02*
D03*
X1044407Y745781D02*
D03*
X1048344D02*
D03*
X1044407Y742381D02*
D03*
X1048344D02*
D03*
X1066507Y790381D02*
D03*
X1070444D02*
D03*
X1044407Y749181D02*
D03*
X1048344D02*
D03*
X1184544Y790081D02*
D03*
X1180607D02*
D03*
D107*
X1223876Y740681D02*
D03*
X1259076Y808281D02*
D03*
D112*
X1250176Y785281D02*
D03*
X1247176D02*
D03*
X1108676Y755781D02*
D03*
X1105676D02*
D03*
D113*
X1094076Y766481D02*
D03*
Y763481D02*
D03*
X1101676Y778281D02*
D03*
Y775281D02*
D03*
D114*
X1144576Y736181D02*
D03*
X1140576D02*
D03*
X1087587Y749029D02*
D03*
X1083587D02*
D03*
X1144566Y739411D02*
D03*
X1140566D02*
D03*
X1194059Y745870D02*
D03*
X1190059D02*
D03*
X1105776Y752281D02*
D03*
X1101776D02*
D03*
X1087587Y745486D02*
D03*
X1083587D02*
D03*
X1194059Y749118D02*
D03*
X1190059D02*
D03*
X1194035Y753557D02*
D03*
X1190035D02*
D03*
X1194059Y756795D02*
D03*
X1190059D02*
D03*
X1263176Y773881D02*
D03*
X1267176D02*
D03*
X1263176Y770581D02*
D03*
X1267176D02*
D03*
X1256176Y773981D02*
D03*
X1260176D02*
D03*
X1256176Y778981D02*
D03*
X1260176D02*
D03*
X1047556Y764911D02*
D03*
X1051556D02*
D03*
X1242776Y803581D02*
D03*
X1246776D02*
D03*
X1242776Y800081D02*
D03*
X1246776D02*
D03*
D115*
X1097976Y763581D02*
D03*
Y767581D02*
D03*
X1226425Y749604D02*
D03*
Y745604D02*
D03*
X1063576Y742081D02*
D03*
Y746081D02*
D03*
X1094076Y771181D02*
D03*
Y775181D02*
D03*
X1067076Y746081D02*
D03*
Y742081D02*
D03*
X1073876D02*
D03*
Y746081D02*
D03*
X1104976Y731281D02*
D03*
Y727281D02*
D03*
X1185953Y761245D02*
D03*
Y757245D02*
D03*
X1186080Y767761D02*
D03*
Y763761D02*
D03*
X1218876Y744681D02*
D03*
Y748681D02*
D03*
X1196956Y749566D02*
D03*
Y745566D02*
D03*
X1196956Y757243D02*
D03*
Y753243D02*
D03*
X1155536Y790411D02*
D03*
Y786411D02*
D03*
X1158716Y790391D02*
D03*
Y786391D02*
D03*
X1161956Y790401D02*
D03*
Y786401D02*
D03*
X1165316Y790401D02*
D03*
Y786401D02*
D03*
X1108586Y730741D02*
D03*
Y734741D02*
D03*
X1127216Y730671D02*
D03*
Y734671D02*
D03*
X1124026Y730711D02*
D03*
Y734711D02*
D03*
X1249476Y741681D02*
D03*
Y737681D02*
D03*
D118*
X1042280Y731214D02*
D03*
X1098136Y808401D02*
D03*
X1283127Y770886D02*
D03*
D119*
X1280174Y783114D02*
D03*
Y810614D02*
D03*
Y730948D02*
D03*
Y758448D02*
D03*
D122*
X1066549Y786981D02*
D03*
X1063203D02*
D03*
X1066549Y783681D02*
D03*
X1063203D02*
D03*
D123*
X1232330Y795439D02*
D03*
Y798785D02*
D03*
X1244141Y749277D02*
D03*
Y745931D02*
D03*
X1048275Y736007D02*
D03*
Y739354D02*
D03*
X1135766Y745880D02*
D03*
Y742534D02*
D03*
D137*
X1276749Y713281D02*
D03*
X1048402Y803832D02*
D03*
Y713281D02*
D03*
D138*
X1257576Y718281D02*
D03*
D139*
Y708281D02*
D03*
X1247576Y718281D02*
D03*
Y708281D02*
D03*
X1237576Y718281D02*
D03*
Y708281D02*
D03*
X1227576Y718281D02*
D03*
Y708281D02*
D03*
X1217576Y718281D02*
D03*
Y708281D02*
D03*
X1207576Y718281D02*
D03*
Y708281D02*
D03*
X1197576Y718281D02*
D03*
Y708281D02*
D03*
X1187576Y718281D02*
D03*
Y708281D02*
D03*
X1177576Y718281D02*
D03*
Y708281D02*
D03*
X1167576Y718281D02*
D03*
Y708281D02*
D03*
X1157576Y718281D02*
D03*
Y708281D02*
D03*
X1147576Y718281D02*
D03*
Y708281D02*
D03*
X1137576Y718281D02*
D03*
Y708281D02*
D03*
X1127576Y718281D02*
D03*
Y708281D02*
D03*
X1117576Y718281D02*
D03*
Y708281D02*
D03*
X1107576Y718281D02*
D03*
Y708281D02*
D03*
X1067576D02*
D03*
Y718281D02*
D03*
X1077576Y708281D02*
D03*
Y718281D02*
D03*
X1087576Y708281D02*
D03*
Y718281D02*
D03*
X1097576Y708281D02*
D03*
Y718281D02*
D03*
D140*
X1088403Y812331D02*
D03*
X1104348D02*
D03*
D142*
X1248276Y813561D02*
D03*
X1110176D02*
D03*
D143*
X1117333Y770368D02*
D03*
Y760368D02*
D03*
X1104433Y770368D02*
D03*
Y765368D02*
D03*
Y760368D02*
D03*
D144*
X1130735Y738935D02*
D03*
X1125616D02*
D03*
Y745627D02*
D03*
X1130735D02*
D03*
D145*
X1075792Y788250D02*
D03*
X1085792D02*
D03*
X1075792Y801006D02*
D03*
X1085792D02*
D03*
X1080792D02*
D03*
D146*
X1184738Y770646D02*
D03*
X1181909Y773475D02*
D03*
D147*
X1247517Y765437D02*
D03*
X1250076D02*
D03*
X1252635D02*
D03*
X1247517Y759925D02*
D03*
X1250076D02*
D03*
X1252635D02*
D03*
D148*
X1246320Y790222D02*
D03*
Y792781D02*
D03*
Y795340D02*
D03*
X1251832Y790222D02*
D03*
Y792781D02*
D03*
Y795340D02*
D03*
D149*
X1114983Y742417D02*
D03*
X1116952D02*
D03*
X1118920D02*
D03*
X1120889D02*
D03*
Y730605D02*
D03*
X1118920D02*
D03*
X1116952D02*
D03*
X1114983D02*
D03*
D150*
X1117936Y736511D02*
D03*
D151*
X1176971Y763428D02*
D03*
Y761459D02*
D03*
Y759491D02*
D03*
Y757522D02*
D03*
Y755554D02*
D03*
Y753585D02*
D03*
Y751617D02*
D03*
Y749648D02*
D03*
Y747680D02*
D03*
Y745711D02*
D03*
Y743743D02*
D03*
Y741774D02*
D03*
X1151380D02*
D03*
Y743743D02*
D03*
Y745711D02*
D03*
Y747680D02*
D03*
Y749648D02*
D03*
Y751617D02*
D03*
Y753585D02*
D03*
Y755554D02*
D03*
Y757522D02*
D03*
Y759491D02*
D03*
Y761459D02*
D03*
Y763428D02*
D03*
X1174412Y760475D02*
D03*
Y758507D02*
D03*
Y756538D02*
D03*
Y754570D02*
D03*
Y752601D02*
D03*
Y750633D02*
D03*
Y748664D02*
D03*
Y746696D02*
D03*
Y744727D02*
D03*
X1153939D02*
D03*
Y746696D02*
D03*
Y748664D02*
D03*
Y750633D02*
D03*
Y752601D02*
D03*
Y754570D02*
D03*
Y756538D02*
D03*
Y758507D02*
D03*
Y760475D02*
D03*
D152*
X1175002Y739806D02*
D03*
X1173034D02*
D03*
X1171065D02*
D03*
X1169097D02*
D03*
X1167128D02*
D03*
X1165160D02*
D03*
X1163191D02*
D03*
X1161223D02*
D03*
X1159254D02*
D03*
X1157286D02*
D03*
X1155317D02*
D03*
X1153349D02*
D03*
Y765396D02*
D03*
X1155317D02*
D03*
X1157286D02*
D03*
X1159254D02*
D03*
X1161223D02*
D03*
X1163191D02*
D03*
X1165160D02*
D03*
X1167128D02*
D03*
X1169097D02*
D03*
X1171065D02*
D03*
X1173034D02*
D03*
X1175002D02*
D03*
X1172050Y742365D02*
D03*
X1170081D02*
D03*
X1168113D02*
D03*
X1166144D02*
D03*
X1164176D02*
D03*
X1162207D02*
D03*
X1160239D02*
D03*
X1158270D02*
D03*
X1156302D02*
D03*
Y762837D02*
D03*
X1158270D02*
D03*
X1160239D02*
D03*
X1162207D02*
D03*
X1164176D02*
D03*
X1166144D02*
D03*
X1168113D02*
D03*
X1170081D02*
D03*
X1172050D02*
D03*
D153*
X1164176Y752601D02*
D03*
D154*
X1240007Y780084D02*
D03*
Y778116D02*
D03*
Y776147D02*
D03*
Y774179D02*
D03*
Y772210D02*
D03*
Y770242D02*
D03*
Y768273D02*
D03*
Y766305D02*
D03*
Y764336D02*
D03*
Y762368D02*
D03*
Y760399D02*
D03*
Y758431D02*
D03*
X1212842D02*
D03*
Y760399D02*
D03*
Y762368D02*
D03*
Y764336D02*
D03*
Y766305D02*
D03*
Y768273D02*
D03*
Y770242D02*
D03*
Y772210D02*
D03*
Y774179D02*
D03*
Y776147D02*
D03*
Y778116D02*
D03*
Y780084D02*
D03*
D155*
X1237251Y755675D02*
D03*
X1235283D02*
D03*
X1233314D02*
D03*
X1231346D02*
D03*
X1229377D02*
D03*
X1227409D02*
D03*
X1225440D02*
D03*
X1223472D02*
D03*
X1221503D02*
D03*
X1219535D02*
D03*
X1217566D02*
D03*
X1215598D02*
D03*
Y782840D02*
D03*
X1217566D02*
D03*
X1219535D02*
D03*
X1221503D02*
D03*
X1223472D02*
D03*
X1225440D02*
D03*
X1227409D02*
D03*
X1229377D02*
D03*
X1231346D02*
D03*
X1233314D02*
D03*
X1235283D02*
D03*
X1237251D02*
D03*
D156*
X1226425Y769257D02*
D03*
D157*
X1077713Y762415D02*
D03*
D158*
X1087261Y755525D02*
D03*
Y757494D02*
D03*
Y759462D02*
D03*
Y761431D02*
D03*
Y763399D02*
D03*
Y765368D02*
D03*
Y767336D02*
D03*
Y769305D02*
D03*
X1068166D02*
D03*
Y767336D02*
D03*
Y765368D02*
D03*
Y763399D02*
D03*
Y761431D02*
D03*
Y759462D02*
D03*
Y757494D02*
D03*
Y755525D02*
D03*
D159*
X1084603Y771962D02*
D03*
X1082635D02*
D03*
X1080666D02*
D03*
X1078698D02*
D03*
X1076729D02*
D03*
X1074761D02*
D03*
X1072792D02*
D03*
X1070824D02*
D03*
Y752868D02*
D03*
X1072792D02*
D03*
X1074761D02*
D03*
X1076729D02*
D03*
X1078698D02*
D03*
X1080666D02*
D03*
X1082635D02*
D03*
X1084603D02*
D03*
D160*
X1232434Y737237D02*
D03*
Y731725D02*
D03*
X1239717D02*
D03*
Y737237D02*
D03*
D161*
X1047031Y760723D02*
D03*
X1041520D02*
D03*
Y753439D02*
D03*
X1047031D02*
D03*
M02*
