G04*
G04 #@! TF.GenerationSoftware,Altium Limited,CircuitStudio,1.5.2 (30)*
G04*
G04 Layer_Color=52428*
%FSLAX25Y25*%
%MOIN*%
G70*
G01*
G75*
%ADD44C,0.00600*%
%ADD45C,0.00800*%
%ADD54C,0.00500*%
%ADD97C,0.00787*%
%ADD160C,0.00984*%
%ADD161C,0.00984*%
%ADD162C,0.00394*%
G36*
X1263476Y724381D02*
X1250476D01*
Y728781D01*
X1263476D01*
Y724381D01*
D02*
G37*
G36*
X1119825Y808368D02*
X1119915Y808322D01*
X1120006Y808277D01*
X1120084Y808231D01*
X1120155Y808193D01*
X1120220Y808154D01*
X1120278Y808121D01*
X1120375Y808063D01*
X1120447Y808018D01*
X1120498Y807979D01*
X1120531Y807959D01*
X1120537Y807953D01*
X1120609Y807894D01*
X1120680Y807830D01*
X1120745Y807765D01*
X1120796Y807707D01*
X1120842Y807655D01*
X1120874Y807609D01*
X1120900Y807583D01*
X1120907Y807570D01*
X1120945Y807732D01*
X1120997Y807868D01*
X1121062Y807992D01*
X1121133Y808089D01*
X1121192Y808167D01*
X1121244Y808225D01*
X1121282Y808257D01*
X1121289Y808270D01*
X1121295D01*
X1121425Y808354D01*
X1121561Y808419D01*
X1121697Y808465D01*
X1121827Y808491D01*
X1121943Y808510D01*
X1121995Y808517D01*
X1122041D01*
X1122073Y808523D01*
X1122125D01*
X1122274Y808517D01*
X1122404Y808497D01*
X1122527Y808471D01*
X1122630Y808445D01*
X1122708Y808413D01*
X1122773Y808387D01*
X1122812Y808368D01*
X1122825Y808361D01*
X1122928Y808296D01*
X1123013Y808225D01*
X1123084Y808160D01*
X1123136Y808095D01*
X1123181Y808037D01*
X1123213Y807992D01*
X1123227Y807959D01*
X1123233Y807946D01*
X1123252Y807894D01*
X1123272Y807836D01*
X1123304Y807707D01*
X1123324Y807570D01*
X1123343Y807434D01*
X1123350Y807311D01*
Y807253D01*
X1123356Y807208D01*
Y807169D01*
Y807136D01*
Y807117D01*
Y807110D01*
Y805581D01*
X1118976D01*
Y806307D01*
X1120803D01*
Y806449D01*
Y806540D01*
X1120796Y806611D01*
X1120790Y806676D01*
X1120777Y806728D01*
X1120771Y806767D01*
X1120758Y806793D01*
X1120751Y806806D01*
Y806812D01*
X1120732Y806858D01*
X1120699Y806896D01*
X1120641Y806961D01*
X1120615Y806987D01*
X1120589Y807007D01*
X1120576Y807020D01*
X1120570Y807026D01*
X1120544Y807046D01*
X1120505Y807071D01*
X1120466Y807104D01*
X1120421Y807130D01*
X1120310Y807195D01*
X1120200Y807259D01*
X1120097Y807318D01*
X1120051Y807344D01*
X1120012Y807370D01*
X1119980Y807389D01*
X1119954Y807402D01*
X1119935Y807415D01*
X1119928D01*
X1118976Y807933D01*
Y808808D01*
X1119825Y808368D01*
D02*
G37*
G36*
X1166376Y796181D02*
X1166676D01*
Y792381D01*
X1154076D01*
Y796181D01*
X1154376D01*
Y799981D01*
X1166376D01*
Y796181D01*
D02*
G37*
G36*
X1167376Y730281D02*
X1152376D01*
Y734481D01*
X1167376D01*
Y730281D01*
D02*
G37*
G36*
X1237376Y801881D02*
X1216576D01*
Y806081D01*
X1237376D01*
Y801881D01*
D02*
G37*
G36*
X1093176Y730781D02*
X1074476D01*
Y734581D01*
X1093176D01*
Y730781D01*
D02*
G37*
G36*
X1263176Y731581D02*
X1247676D01*
Y735581D01*
X1263176D01*
Y731581D01*
D02*
G37*
G36*
X1246576D02*
X1243576Y733581D01*
X1246576Y735581D01*
Y731581D01*
D02*
G37*
G36*
X1123369Y814439D02*
X1123227Y814387D01*
X1123097Y814323D01*
X1122980Y814251D01*
X1122883Y814180D01*
X1122799Y814115D01*
X1122734Y814063D01*
X1122695Y814025D01*
X1122689Y814018D01*
X1122682Y814012D01*
X1122579Y813895D01*
X1122494Y813785D01*
X1122423Y813688D01*
X1122365Y813597D01*
X1122326Y813519D01*
X1122293Y813467D01*
X1122280Y813428D01*
X1122274Y813422D01*
Y813415D01*
X1121509D01*
X1121593Y813597D01*
X1121691Y813772D01*
X1121801Y813921D01*
X1121905Y814050D01*
X1121950Y814109D01*
X1121995Y814161D01*
X1122041Y814206D01*
X1122073Y814238D01*
X1122105Y814271D01*
X1122125Y814290D01*
X1122138Y814303D01*
X1122144Y814310D01*
X1118976D01*
Y815003D01*
X1123369D01*
Y814439D01*
D02*
G37*
G36*
X1081176Y735781D02*
X1077176D01*
X1079176Y738781D01*
X1081176Y735781D01*
D02*
G37*
G36*
X1222176Y797781D02*
X1220176Y800781D01*
X1224176D01*
X1222176Y797781D01*
D02*
G37*
G36*
X1162176Y735781D02*
X1158176D01*
X1160176Y738781D01*
X1162176Y735781D01*
D02*
G37*
G36*
X1119818Y811983D02*
X1118976D01*
Y812670D01*
X1119818D01*
Y811983D01*
D02*
G37*
G36*
X1122332Y811361D02*
X1122488Y811329D01*
X1122630Y811283D01*
X1122753Y811232D01*
X1122857Y811173D01*
X1122902Y811147D01*
X1122935Y811128D01*
X1122961Y811108D01*
X1122980Y811096D01*
X1122993Y811089D01*
X1123000Y811083D01*
X1123065Y811024D01*
X1123123Y810966D01*
X1123168Y810901D01*
X1123213Y810830D01*
X1123252Y810759D01*
X1123278Y810687D01*
X1123324Y810551D01*
X1123350Y810422D01*
X1123356Y810370D01*
X1123363Y810318D01*
X1123369Y810279D01*
Y810253D01*
Y810234D01*
Y810227D01*
X1123363Y810137D01*
X1123356Y810046D01*
X1123317Y809884D01*
X1123272Y809741D01*
X1123213Y809625D01*
X1123155Y809527D01*
X1123123Y809495D01*
X1123103Y809463D01*
X1123084Y809437D01*
X1123065Y809417D01*
X1123058Y809411D01*
X1123051Y809404D01*
X1122987Y809346D01*
X1122922Y809301D01*
X1122766Y809216D01*
X1122604Y809152D01*
X1122449Y809106D01*
X1122371Y809087D01*
X1122300Y809067D01*
X1122235Y809061D01*
X1122183Y809048D01*
X1122138Y809041D01*
X1122105D01*
X1122079Y809035D01*
X1122073D01*
X1121982Y809722D01*
X1122105Y809735D01*
X1122209Y809754D01*
X1122300Y809780D01*
X1122378Y809813D01*
X1122449Y809851D01*
X1122501Y809890D01*
X1122546Y809936D01*
X1122585Y809981D01*
X1122611Y810026D01*
X1122630Y810065D01*
X1122656Y810143D01*
X1122663Y810169D01*
X1122669Y810195D01*
Y810208D01*
Y810214D01*
X1122663Y810286D01*
X1122643Y810357D01*
X1122624Y810415D01*
X1122598Y810460D01*
X1122565Y810499D01*
X1122546Y810525D01*
X1122527Y810545D01*
X1122520Y810551D01*
X1122462Y810597D01*
X1122391Y810629D01*
X1122319Y810648D01*
X1122248Y810668D01*
X1122183Y810674D01*
X1122131Y810681D01*
X1122086D01*
X1121989Y810674D01*
X1121892Y810655D01*
X1121801Y810629D01*
X1121723Y810603D01*
X1121652Y810577D01*
X1121600Y810551D01*
X1121568Y810532D01*
X1121555Y810525D01*
X1121516Y810499D01*
X1121470Y810467D01*
X1121367Y810389D01*
X1121257Y810299D01*
X1121140Y810201D01*
X1121030Y810111D01*
X1120978Y810072D01*
X1120939Y810033D01*
X1120907Y810007D01*
X1120881Y809981D01*
X1120861Y809968D01*
X1120855Y809962D01*
X1120738Y809858D01*
X1120621Y809767D01*
X1120518Y809676D01*
X1120421Y809599D01*
X1120323Y809527D01*
X1120239Y809469D01*
X1120161Y809411D01*
X1120090Y809365D01*
X1120025Y809320D01*
X1119973Y809281D01*
X1119922Y809255D01*
X1119883Y809229D01*
X1119850Y809210D01*
X1119831Y809203D01*
X1119818Y809190D01*
X1119812D01*
X1119662Y809126D01*
X1119513Y809074D01*
X1119371Y809028D01*
X1119248Y809002D01*
X1119138Y808983D01*
X1119092Y808970D01*
X1119053Y808964D01*
X1119021D01*
X1118995Y808957D01*
X1118976D01*
Y811374D01*
X1119753D01*
Y810001D01*
X1119837Y810046D01*
X1119909Y810091D01*
X1119935Y810111D01*
X1119960Y810130D01*
X1119973Y810137D01*
X1119980Y810143D01*
X1120038Y810188D01*
X1120110Y810247D01*
X1120187Y810318D01*
X1120272Y810389D01*
X1120349Y810454D01*
X1120414Y810512D01*
X1120440Y810532D01*
X1120459Y810551D01*
X1120466Y810558D01*
X1120473Y810564D01*
X1120615Y810687D01*
X1120745Y810791D01*
X1120855Y810882D01*
X1120952Y810953D01*
X1121023Y811005D01*
X1121082Y811044D01*
X1121114Y811063D01*
X1121127Y811070D01*
X1121224Y811121D01*
X1121315Y811173D01*
X1121399Y811212D01*
X1121477Y811245D01*
X1121542Y811264D01*
X1121587Y811283D01*
X1121619Y811296D01*
X1121632D01*
X1121730Y811322D01*
X1121820Y811342D01*
X1121911Y811355D01*
X1121989Y811368D01*
X1122060D01*
X1122112Y811374D01*
X1122248D01*
X1122332Y811361D01*
D02*
G37*
%LPC*%
G36*
X1158473Y734157D02*
X1158324D01*
X1158272Y734150D01*
X1158142Y734144D01*
X1158000Y734131D01*
X1157851Y734111D01*
X1157714Y734085D01*
X1157650Y734066D01*
X1157591Y734047D01*
X1157585D01*
X1157578Y734040D01*
X1157540Y734027D01*
X1157488Y734001D01*
X1157423Y733969D01*
X1157345Y733923D01*
X1157261Y733865D01*
X1157183Y733794D01*
X1157105Y733716D01*
X1157099Y733703D01*
X1157073Y733677D01*
X1157041Y733625D01*
X1156995Y733561D01*
X1156950Y733483D01*
X1156898Y733386D01*
X1156853Y733275D01*
X1156814Y733152D01*
X1157870Y732964D01*
Y732971D01*
X1157883Y732997D01*
X1157902Y733036D01*
X1157922Y733081D01*
X1157954Y733126D01*
X1157993Y733178D01*
X1158045Y733223D01*
X1158097Y733269D01*
X1158103Y733275D01*
X1158123Y733288D01*
X1158162Y733301D01*
X1158207Y733327D01*
X1158265Y733347D01*
X1158330Y733360D01*
X1158408Y733372D01*
X1158499Y733379D01*
X1158531D01*
X1158557Y733372D01*
X1158622Y733366D01*
X1158706Y733347D01*
X1158797Y733321D01*
X1158894Y733275D01*
X1158991Y733211D01*
X1159075Y733126D01*
X1159082Y733113D01*
X1159108Y733081D01*
X1159140Y733016D01*
X1159179Y732932D01*
X1159224Y732822D01*
X1159237Y732757D01*
X1159257Y732686D01*
X1159270Y732608D01*
X1159283Y732524D01*
X1159289Y732433D01*
Y732336D01*
Y732329D01*
Y732310D01*
Y732284D01*
X1159283Y732245D01*
Y732193D01*
X1159276Y732141D01*
X1159263Y732018D01*
X1159237Y731882D01*
X1159198Y731746D01*
X1159147Y731616D01*
X1159114Y731565D01*
X1159075Y731513D01*
X1159062Y731500D01*
X1159036Y731474D01*
X1158985Y731435D01*
X1158913Y731390D01*
X1158829Y731344D01*
X1158725Y731305D01*
X1158602Y731280D01*
X1158466Y731266D01*
X1158401D01*
X1158356Y731273D01*
X1158298Y731280D01*
X1158239Y731286D01*
X1158116Y731318D01*
X1158110D01*
X1158084Y731331D01*
X1158051Y731344D01*
X1158006Y731364D01*
X1157948Y731383D01*
X1157883Y731416D01*
X1157805Y731454D01*
X1157728Y731500D01*
Y731837D01*
X1158466D01*
Y732576D01*
X1156768D01*
Y731059D01*
X1156775Y731053D01*
X1156788Y731046D01*
X1156814Y731027D01*
X1156853Y731007D01*
X1156892Y730981D01*
X1156943Y730949D01*
X1157060Y730878D01*
X1157196Y730806D01*
X1157345Y730729D01*
X1157494Y730657D01*
X1157637Y730606D01*
X1157643D01*
X1157656Y730599D01*
X1157676Y730593D01*
X1157701Y730586D01*
X1157740Y730580D01*
X1157779Y730567D01*
X1157831Y730560D01*
X1157883Y730547D01*
X1158013Y730528D01*
X1158168Y730508D01*
X1158337Y730495D01*
X1158525Y730489D01*
X1158583D01*
X1158628Y730495D01*
X1158687D01*
X1158745Y730502D01*
X1158816Y730508D01*
X1158894Y730515D01*
X1159056Y730541D01*
X1159231Y730580D01*
X1159399Y730631D01*
X1159561Y730703D01*
X1159568D01*
X1159581Y730716D01*
X1159600Y730729D01*
X1159626Y730742D01*
X1159697Y730794D01*
X1159788Y730865D01*
X1159885Y730949D01*
X1159989Y731059D01*
X1160086Y731189D01*
X1160177Y731338D01*
Y731344D01*
X1160183Y731357D01*
X1160196Y731383D01*
X1160209Y731416D01*
X1160229Y731454D01*
X1160242Y731500D01*
X1160261Y731558D01*
X1160281Y731623D01*
X1160306Y731688D01*
X1160326Y731766D01*
X1160358Y731934D01*
X1160384Y732122D01*
X1160391Y732323D01*
Y732329D01*
Y732349D01*
Y732381D01*
X1160384Y732420D01*
Y732472D01*
X1160378Y732530D01*
X1160371Y732595D01*
X1160358Y732666D01*
X1160332Y732822D01*
X1160287Y732990D01*
X1160229Y733159D01*
X1160151Y733327D01*
Y733334D01*
X1160138Y733347D01*
X1160125Y733366D01*
X1160106Y733398D01*
X1160054Y733476D01*
X1159976Y733573D01*
X1159872Y733677D01*
X1159756Y733787D01*
X1159613Y733891D01*
X1159451Y733982D01*
X1159445D01*
X1159432Y733988D01*
X1159412Y734001D01*
X1159386Y734008D01*
X1159348Y734021D01*
X1159302Y734040D01*
X1159250Y734053D01*
X1159192Y734072D01*
X1159127Y734085D01*
X1159049Y734098D01*
X1158972Y734118D01*
X1158887Y734131D01*
X1158790Y734144D01*
X1158693Y734150D01*
X1158473Y734157D01*
D02*
G37*
G36*
X1167143Y734098D02*
X1164428D01*
Y733334D01*
X1166041D01*
Y732718D01*
X1164661D01*
Y731999D01*
X1166041D01*
Y730547D01*
X1167143D01*
Y734098D01*
D02*
G37*
G36*
X1078531Y734457D02*
X1076575D01*
X1076529Y734450D01*
X1076412Y734444D01*
X1076289Y734437D01*
X1076160Y734418D01*
X1076037Y734398D01*
X1075926Y734366D01*
X1075914Y734359D01*
X1075881Y734346D01*
X1075829Y734327D01*
X1075771Y734295D01*
X1075700Y734249D01*
X1075628Y734191D01*
X1075557Y734126D01*
X1075492Y734042D01*
X1075486Y734029D01*
X1075466Y734003D01*
X1075441Y733951D01*
X1075408Y733880D01*
X1075376Y733796D01*
X1075350Y733698D01*
X1075330Y733588D01*
X1075324Y733465D01*
Y733452D01*
Y733413D01*
X1075330Y733361D01*
X1075337Y733290D01*
X1075356Y733212D01*
X1075376Y733128D01*
X1075408Y733038D01*
X1075453Y732953D01*
X1075460Y732947D01*
X1075473Y732921D01*
X1075505Y732882D01*
X1075544Y732830D01*
X1075596Y732778D01*
X1075654Y732720D01*
X1075726Y732662D01*
X1075803Y732610D01*
X1075810Y732603D01*
X1075829Y732597D01*
X1075862Y732577D01*
X1075900Y732558D01*
X1075959Y732539D01*
X1076024Y732513D01*
X1076101Y732493D01*
X1076186Y732467D01*
X1076179D01*
X1076153Y732454D01*
X1076121Y732441D01*
X1076075Y732428D01*
X1075985Y732383D01*
X1075939Y732364D01*
X1075900Y732338D01*
X1075888Y732331D01*
X1075875Y732318D01*
X1075855Y732299D01*
X1075829Y732273D01*
X1075803Y732240D01*
X1075764Y732202D01*
X1075726Y732150D01*
X1075719Y732143D01*
X1075706Y732124D01*
X1075687Y732098D01*
X1075661Y732072D01*
X1075609Y731994D01*
X1075589Y731962D01*
X1075570Y731929D01*
X1075032Y730906D01*
X1076276D01*
X1076866Y731988D01*
X1076873Y731994D01*
X1076886Y732020D01*
X1076905Y732059D01*
X1076931Y732098D01*
X1076996Y732189D01*
X1077034Y732228D01*
X1077067Y732260D01*
X1077073Y732266D01*
X1077086Y732273D01*
X1077112Y732286D01*
X1077145Y732305D01*
X1077184Y732318D01*
X1077229Y732331D01*
X1077281Y732338D01*
X1077339Y732344D01*
X1077430D01*
Y730906D01*
X1078531D01*
Y734457D01*
D02*
G37*
G36*
X1092619D02*
X1091174D01*
X1090623Y732292D01*
X1090066Y734457D01*
X1088621D01*
Y730906D01*
X1089522D01*
Y733614D01*
X1090215Y730906D01*
X1091031D01*
X1091718Y733614D01*
Y730906D01*
X1092619D01*
Y734457D01*
D02*
G37*
G36*
X1087876D02*
X1086774D01*
Y730906D01*
X1087876D01*
Y734457D01*
D02*
G37*
G36*
X1082128D02*
X1079186D01*
Y733698D01*
X1081026D01*
Y733135D01*
X1079322D01*
Y732409D01*
X1081026D01*
Y731709D01*
X1079134D01*
Y730906D01*
X1082128D01*
Y734457D01*
D02*
G37*
G36*
X1155736Y795928D02*
X1155682D01*
X1155622Y795922D01*
X1155544Y795916D01*
X1155459Y795910D01*
X1155369Y795892D01*
X1155279Y795874D01*
X1155195Y795844D01*
X1155183Y795838D01*
X1155159Y795832D01*
X1155117Y795808D01*
X1155069Y795784D01*
X1155015Y795753D01*
X1154955Y795717D01*
X1154900Y795675D01*
X1154846Y795627D01*
X1154840Y795621D01*
X1154822Y795603D01*
X1154798Y795579D01*
X1154768Y795543D01*
X1154732Y795507D01*
X1154696Y795459D01*
X1154630Y795351D01*
X1154624Y795345D01*
X1154618Y795327D01*
X1154600Y795297D01*
X1154582Y795255D01*
X1154564Y795207D01*
X1154546Y795147D01*
X1154522Y795086D01*
X1154504Y795014D01*
Y795008D01*
X1154498Y794996D01*
X1154492Y794978D01*
X1154486Y794948D01*
X1154480Y794918D01*
X1154474Y794876D01*
X1154456Y794780D01*
X1154438Y794666D01*
X1154420Y794539D01*
X1154414Y794395D01*
X1154408Y794251D01*
Y794239D01*
Y794209D01*
Y794167D01*
X1154414Y794107D01*
X1154420Y794029D01*
X1154426Y793945D01*
X1154432Y793854D01*
X1154444Y793752D01*
X1154480Y793536D01*
X1154534Y793320D01*
X1154570Y793217D01*
X1154612Y793115D01*
X1154660Y793025D01*
X1154714Y792941D01*
X1154720Y792935D01*
X1154726Y792923D01*
X1154744Y792905D01*
X1154774Y792875D01*
X1154810Y792845D01*
X1154852Y792809D01*
X1154900Y792773D01*
X1154961Y792736D01*
X1155027Y792694D01*
X1155105Y792658D01*
X1155189Y792622D01*
X1155285Y792592D01*
X1155387Y792562D01*
X1155501Y792544D01*
X1155628Y792532D01*
X1155760Y792526D01*
X1155832D01*
X1155868Y792532D01*
X1155904D01*
X1156000Y792544D01*
X1156108Y792556D01*
X1156223Y792580D01*
X1156337Y792616D01*
X1156439Y792658D01*
X1156451Y792664D01*
X1156481Y792682D01*
X1156529Y792712D01*
X1156583Y792755D01*
X1156655Y792809D01*
X1156721Y792875D01*
X1156794Y792953D01*
X1156860Y793043D01*
X1156866Y793049D01*
X1156878Y793079D01*
X1156902Y793115D01*
X1156926Y793175D01*
X1156956Y793241D01*
X1156986Y793326D01*
X1157016Y793428D01*
X1157040Y793536D01*
Y793542D01*
Y793548D01*
X1157046Y793566D01*
X1157052Y793590D01*
X1157058Y793656D01*
X1157070Y793746D01*
X1157082Y793848D01*
X1157094Y793969D01*
X1157100Y794101D01*
X1157106Y794239D01*
Y794251D01*
Y794281D01*
Y794329D01*
X1157100Y794389D01*
X1157094Y794467D01*
X1157088Y794558D01*
X1157076Y794654D01*
X1157064Y794756D01*
X1157022Y794972D01*
X1156962Y795189D01*
X1156926Y795291D01*
X1156878Y795387D01*
X1156830Y795471D01*
X1156770Y795549D01*
X1156764Y795555D01*
X1156752Y795567D01*
X1156734Y795585D01*
X1156703Y795609D01*
X1156667Y795639D01*
X1156625Y795669D01*
X1156571Y795706D01*
X1156511Y795742D01*
X1156445Y795772D01*
X1156367Y795808D01*
X1156283Y795838D01*
X1156193Y795868D01*
X1156091Y795892D01*
X1155982Y795910D01*
X1155862Y795922D01*
X1155736Y795928D01*
D02*
G37*
G36*
X1161920D02*
X1161842D01*
X1161800Y795922D01*
X1161752D01*
X1161644Y795916D01*
X1161524Y795898D01*
X1161397Y795880D01*
X1161277Y795850D01*
X1161169Y795814D01*
X1161163D01*
X1161157Y795808D01*
X1161127Y795796D01*
X1161073Y795766D01*
X1161013Y795729D01*
X1160946Y795681D01*
X1160874Y795627D01*
X1160802Y795555D01*
X1160742Y795477D01*
X1160736Y795465D01*
X1160718Y795435D01*
X1160694Y795393D01*
X1160664Y795327D01*
X1160634Y795255D01*
X1160610Y795165D01*
X1160592Y795068D01*
X1160586Y794966D01*
Y794960D01*
Y794954D01*
Y794936D01*
Y794918D01*
X1160598Y794858D01*
X1160610Y794780D01*
X1160628Y794696D01*
X1160664Y794594D01*
X1160706Y794491D01*
X1160766Y794389D01*
X1160772Y794377D01*
X1160802Y794341D01*
X1160844Y794287D01*
X1160911Y794215D01*
X1161001Y794125D01*
X1161055Y794077D01*
X1161109Y794023D01*
X1161175Y793969D01*
X1161247Y793909D01*
X1161325Y793848D01*
X1161409Y793788D01*
X1161421Y793782D01*
X1161451Y793758D01*
X1161500Y793722D01*
X1161560Y793680D01*
X1161620Y793638D01*
X1161686Y793596D01*
X1161740Y793554D01*
X1161782Y793518D01*
X1161788Y793512D01*
X1161800Y793506D01*
X1161818Y793488D01*
X1161842Y793470D01*
X1161908Y793404D01*
X1161998Y793326D01*
X1160562D01*
Y792580D01*
X1163315D01*
Y792586D01*
Y792598D01*
X1163309Y792622D01*
X1163303Y792646D01*
X1163297Y792682D01*
X1163290Y792725D01*
X1163260Y792827D01*
X1163224Y792941D01*
X1163176Y793067D01*
X1163110Y793205D01*
X1163032Y793337D01*
X1163026Y793343D01*
X1163020Y793356D01*
X1163008Y793374D01*
X1162984Y793404D01*
X1162954Y793434D01*
X1162924Y793476D01*
X1162876Y793524D01*
X1162828Y793578D01*
X1162774Y793638D01*
X1162708Y793704D01*
X1162635Y793770D01*
X1162551Y793848D01*
X1162461Y793926D01*
X1162359Y794011D01*
X1162251Y794095D01*
X1162131Y794185D01*
X1162125Y794191D01*
X1162113Y794197D01*
X1162094Y794215D01*
X1162064Y794233D01*
X1161998Y794287D01*
X1161914Y794353D01*
X1161830Y794431D01*
X1161740Y794503D01*
X1161668Y794576D01*
X1161638Y794612D01*
X1161614Y794642D01*
X1161608Y794648D01*
X1161596Y794666D01*
X1161578Y794696D01*
X1161553Y794738D01*
X1161535Y794780D01*
X1161518Y794834D01*
X1161506Y794882D01*
X1161500Y794936D01*
Y794942D01*
Y794960D01*
X1161506Y794990D01*
X1161512Y795026D01*
X1161530Y795068D01*
X1161547Y795111D01*
X1161578Y795153D01*
X1161614Y795195D01*
X1161620Y795201D01*
X1161632Y795213D01*
X1161656Y795231D01*
X1161692Y795249D01*
X1161734Y795267D01*
X1161782Y795285D01*
X1161836Y795297D01*
X1161896Y795303D01*
X1161926D01*
X1161956Y795297D01*
X1161998Y795291D01*
X1162040Y795273D01*
X1162088Y795255D01*
X1162136Y795225D01*
X1162185Y795189D01*
X1162191Y795183D01*
X1162203Y795171D01*
X1162221Y795141D01*
X1162245Y795098D01*
X1162269Y795044D01*
X1162293Y794978D01*
X1162311Y794900D01*
X1162329Y794804D01*
X1163248Y794876D01*
Y794882D01*
Y794894D01*
X1163242Y794912D01*
X1163236Y794942D01*
X1163224Y795008D01*
X1163206Y795098D01*
X1163176Y795195D01*
X1163146Y795291D01*
X1163104Y795387D01*
X1163056Y795477D01*
X1163050Y795489D01*
X1163032Y795513D01*
X1162996Y795549D01*
X1162948Y795597D01*
X1162894Y795651D01*
X1162822Y795706D01*
X1162743Y795760D01*
X1162647Y795808D01*
X1162641D01*
X1162635Y795814D01*
X1162599Y795826D01*
X1162539Y795844D01*
X1162455Y795868D01*
X1162353Y795892D01*
X1162227Y795910D01*
X1162082Y795922D01*
X1161920Y795928D01*
D02*
G37*
G36*
X1156685Y799757D02*
X1156536D01*
X1156484Y799750D01*
X1156355Y799744D01*
X1156212Y799731D01*
X1156063Y799711D01*
X1155927Y799685D01*
X1155862Y799666D01*
X1155804Y799647D01*
X1155797D01*
X1155791Y799640D01*
X1155752Y799627D01*
X1155700Y799601D01*
X1155636Y799569D01*
X1155558Y799523D01*
X1155474Y799465D01*
X1155396Y799394D01*
X1155318Y799316D01*
X1155311Y799303D01*
X1155285Y799277D01*
X1155253Y799225D01*
X1155208Y799160D01*
X1155162Y799083D01*
X1155111Y798985D01*
X1155065Y798875D01*
X1155026Y798752D01*
X1156083Y798564D01*
Y798571D01*
X1156096Y798597D01*
X1156115Y798636D01*
X1156134Y798681D01*
X1156167Y798726D01*
X1156206Y798778D01*
X1156258Y798823D01*
X1156309Y798869D01*
X1156316Y798875D01*
X1156335Y798888D01*
X1156374Y798901D01*
X1156419Y798927D01*
X1156478Y798947D01*
X1156543Y798960D01*
X1156620Y798973D01*
X1156711Y798979D01*
X1156744D01*
X1156769Y798973D01*
X1156834Y798966D01*
X1156919Y798947D01*
X1157009Y798921D01*
X1157106Y798875D01*
X1157204Y798810D01*
X1157288Y798726D01*
X1157294Y798713D01*
X1157320Y798681D01*
X1157353Y798616D01*
X1157391Y798532D01*
X1157437Y798422D01*
X1157450Y798357D01*
X1157469Y798286D01*
X1157482Y798208D01*
X1157495Y798124D01*
X1157502Y798033D01*
Y797936D01*
Y797929D01*
Y797910D01*
Y797884D01*
X1157495Y797845D01*
Y797793D01*
X1157489Y797741D01*
X1157476Y797618D01*
X1157450Y797482D01*
X1157411Y797346D01*
X1157359Y797216D01*
X1157327Y797165D01*
X1157288Y797113D01*
X1157275Y797100D01*
X1157249Y797074D01*
X1157197Y797035D01*
X1157126Y796990D01*
X1157042Y796944D01*
X1156938Y796905D01*
X1156815Y796879D01*
X1156679Y796867D01*
X1156614D01*
X1156569Y796873D01*
X1156510Y796879D01*
X1156452Y796886D01*
X1156329Y796918D01*
X1156322D01*
X1156296Y796931D01*
X1156264Y796944D01*
X1156219Y796964D01*
X1156160Y796983D01*
X1156096Y797016D01*
X1156018Y797054D01*
X1155940Y797100D01*
Y797437D01*
X1156679D01*
Y798175D01*
X1154981D01*
Y796659D01*
X1154988Y796653D01*
X1155000Y796646D01*
X1155026Y796627D01*
X1155065Y796607D01*
X1155104Y796581D01*
X1155156Y796549D01*
X1155273Y796478D01*
X1155409Y796407D01*
X1155558Y796329D01*
X1155707Y796257D01*
X1155849Y796206D01*
X1155856D01*
X1155869Y796199D01*
X1155888Y796193D01*
X1155914Y796186D01*
X1155944Y796181D01*
X1157448D01*
X1157612Y796232D01*
X1157774Y796303D01*
X1157780D01*
X1157793Y796316D01*
X1157813Y796329D01*
X1157839Y796342D01*
X1157910Y796393D01*
X1158001Y796465D01*
X1158098Y796549D01*
X1158202Y796659D01*
X1158299Y796789D01*
X1158389Y796938D01*
Y796944D01*
X1158396Y796957D01*
X1158409Y796983D01*
X1158422Y797016D01*
X1158441Y797054D01*
X1158454Y797100D01*
X1158474Y797158D01*
X1158493Y797223D01*
X1158519Y797288D01*
X1158539Y797366D01*
X1158571Y797534D01*
X1158597Y797722D01*
X1158603Y797923D01*
Y797929D01*
Y797949D01*
Y797981D01*
X1158597Y798020D01*
Y798072D01*
X1158590Y798130D01*
X1158584Y798195D01*
X1158571Y798266D01*
X1158545Y798422D01*
X1158500Y798590D01*
X1158441Y798759D01*
X1158364Y798927D01*
Y798934D01*
X1158351Y798947D01*
X1158338Y798966D01*
X1158318Y798998D01*
X1158266Y799076D01*
X1158189Y799173D01*
X1158085Y799277D01*
X1157968Y799387D01*
X1157826Y799491D01*
X1157664Y799582D01*
X1157657D01*
X1157644Y799588D01*
X1157625Y799601D01*
X1157599Y799608D01*
X1157560Y799620D01*
X1157515Y799640D01*
X1157463Y799653D01*
X1157405Y799672D01*
X1157340Y799685D01*
X1157262Y799698D01*
X1157184Y799718D01*
X1157100Y799731D01*
X1157003Y799744D01*
X1156906Y799750D01*
X1156685Y799757D01*
D02*
G37*
G36*
X1165015Y795928D02*
X1164955D01*
X1164907Y795922D01*
X1164853D01*
X1164793Y795916D01*
X1164727Y795910D01*
X1164655Y795898D01*
X1164499Y795868D01*
X1164348Y795826D01*
X1164198Y795766D01*
X1164138Y795729D01*
X1164078Y795687D01*
X1164072D01*
X1164066Y795675D01*
X1164030Y795645D01*
X1163988Y795591D01*
X1163933Y795519D01*
X1163879Y795435D01*
X1163831Y795333D01*
X1163801Y795213D01*
X1163795Y795147D01*
X1163789Y795080D01*
Y795068D01*
Y795044D01*
X1163795Y795002D01*
X1163801Y794954D01*
X1163819Y794894D01*
X1163837Y794828D01*
X1163867Y794762D01*
X1163910Y794696D01*
X1163916Y794690D01*
X1163933Y794666D01*
X1163958Y794636D01*
X1163994Y794594D01*
X1164042Y794552D01*
X1164102Y794497D01*
X1164174Y794443D01*
X1164258Y794395D01*
X1164252D01*
X1164228Y794389D01*
X1164192Y794377D01*
X1164150Y794365D01*
X1164060Y794329D01*
X1164012Y794311D01*
X1163970Y794287D01*
X1163964Y794281D01*
X1163945Y794269D01*
X1163916Y794245D01*
X1163879Y794215D01*
X1163837Y794179D01*
X1163795Y794131D01*
X1163753Y794077D01*
X1163717Y794017D01*
X1163711Y794011D01*
X1163699Y793987D01*
X1163687Y793951D01*
X1163669Y793909D01*
X1163651Y793848D01*
X1163633Y793782D01*
X1163627Y793710D01*
X1163621Y793626D01*
Y793620D01*
Y793614D01*
Y793578D01*
X1163627Y793524D01*
X1163639Y793452D01*
X1163657Y793362D01*
X1163687Y793271D01*
X1163723Y793175D01*
X1163777Y793073D01*
X1163783Y793061D01*
X1163807Y793031D01*
X1163837Y792983D01*
X1163885Y792923D01*
X1163951Y792857D01*
X1164024Y792791D01*
X1164108Y792725D01*
X1164210Y792664D01*
X1164216D01*
X1164222Y792658D01*
X1164240Y792652D01*
X1164264Y792640D01*
X1164288Y792634D01*
X1164324Y792622D01*
X1164408Y792598D01*
X1164517Y792568D01*
X1164643Y792550D01*
X1164793Y792532D01*
X1164955Y792526D01*
X1165027D01*
X1165063Y792532D01*
X1165112D01*
X1165208Y792538D01*
X1165322Y792550D01*
X1165442Y792568D01*
X1165556Y792592D01*
X1165664Y792628D01*
X1165676Y792634D01*
X1165707Y792646D01*
X1165755Y792670D01*
X1165815Y792706D01*
X1165881Y792748D01*
X1165953Y792803D01*
X1166025Y792863D01*
X1166091Y792935D01*
X1166097Y792947D01*
X1166121Y792971D01*
X1166151Y793013D01*
X1166187Y793073D01*
X1166229Y793151D01*
X1166265Y793235D01*
X1166308Y793337D01*
X1166343Y793446D01*
X1165430Y793572D01*
Y793560D01*
X1165418Y793530D01*
X1165406Y793482D01*
X1165388Y793422D01*
X1165340Y793295D01*
X1165304Y793235D01*
X1165268Y793187D01*
X1165262Y793181D01*
X1165250Y793169D01*
X1165220Y793157D01*
X1165190Y793139D01*
X1165147Y793115D01*
X1165093Y793103D01*
X1165039Y793091D01*
X1164973Y793085D01*
X1164943D01*
X1164907Y793091D01*
X1164865Y793103D01*
X1164817Y793115D01*
X1164763Y793139D01*
X1164715Y793175D01*
X1164667Y793217D01*
X1164661Y793223D01*
X1164649Y793241D01*
X1164625Y793271D01*
X1164601Y793314D01*
X1164583Y793362D01*
X1164559Y793428D01*
X1164546Y793500D01*
X1164540Y793578D01*
Y793590D01*
Y793614D01*
X1164546Y793656D01*
X1164552Y793710D01*
X1164571Y793764D01*
X1164589Y793824D01*
X1164619Y793878D01*
X1164661Y793932D01*
X1164667Y793938D01*
X1164685Y793951D01*
X1164709Y793975D01*
X1164745Y793999D01*
X1164793Y794017D01*
X1164847Y794041D01*
X1164913Y794053D01*
X1164985Y794059D01*
X1165027D01*
X1165063Y794053D01*
X1165106Y794047D01*
X1165154Y794035D01*
X1165214Y794023D01*
X1165280Y794005D01*
X1165238Y794654D01*
X1165196D01*
X1165154Y794648D01*
X1165087D01*
X1165051Y794654D01*
X1165009Y794660D01*
X1164967Y794672D01*
X1164913Y794696D01*
X1164865Y794720D01*
X1164817Y794756D01*
X1164811Y794762D01*
X1164799Y794774D01*
X1164775Y794798D01*
X1164751Y794834D01*
X1164733Y794870D01*
X1164709Y794918D01*
X1164697Y794972D01*
X1164691Y795026D01*
Y795032D01*
Y795050D01*
X1164697Y795080D01*
X1164703Y795111D01*
X1164715Y795153D01*
X1164727Y795189D01*
X1164751Y795231D01*
X1164781Y795267D01*
X1164787Y795273D01*
X1164799Y795279D01*
X1164817Y795297D01*
X1164847Y795315D01*
X1164883Y795327D01*
X1164925Y795345D01*
X1164973Y795351D01*
X1165033Y795357D01*
X1165057D01*
X1165087Y795351D01*
X1165129Y795345D01*
X1165172Y795333D01*
X1165214Y795315D01*
X1165256Y795291D01*
X1165298Y795255D01*
X1165304Y795249D01*
X1165316Y795237D01*
X1165328Y795213D01*
X1165352Y795177D01*
X1165370Y795128D01*
X1165394Y795074D01*
X1165412Y795002D01*
X1165430Y794918D01*
X1166295Y795068D01*
Y795074D01*
X1166289Y795086D01*
X1166283Y795111D01*
X1166277Y795134D01*
X1166259Y795171D01*
X1166247Y795213D01*
X1166205Y795303D01*
X1166151Y795405D01*
X1166079Y795513D01*
X1165995Y795615D01*
X1165887Y795706D01*
X1165881D01*
X1165875Y795717D01*
X1165857Y795723D01*
X1165827Y795742D01*
X1165797Y795760D01*
X1165761Y795778D01*
X1165713Y795796D01*
X1165658Y795820D01*
X1165604Y795838D01*
X1165538Y795856D01*
X1165466Y795874D01*
X1165388Y795892D01*
X1165304Y795910D01*
X1165214Y795916D01*
X1165015Y795928D01*
D02*
G37*
G36*
X1161772Y799698D02*
X1159057D01*
Y798934D01*
X1160670D01*
Y798318D01*
X1159290D01*
Y797599D01*
X1160670D01*
Y796181D01*
X1161772D01*
Y799698D01*
D02*
G37*
G36*
X1155148Y734098D02*
X1153943D01*
X1152608Y730547D01*
X1153762D01*
X1153937Y731131D01*
X1155181D01*
X1155356Y730547D01*
X1156477D01*
X1155148Y734098D01*
D02*
G37*
G36*
X1163845D02*
X1161965D01*
X1161926Y734092D01*
X1161875D01*
X1161816Y734085D01*
X1161687Y734066D01*
X1161544Y734027D01*
X1161395Y733975D01*
X1161253Y733910D01*
X1161188Y733865D01*
X1161129Y733813D01*
X1161123D01*
X1161117Y733800D01*
X1161104Y733781D01*
X1161084Y733761D01*
X1161032Y733697D01*
X1160980Y733606D01*
X1160929Y733489D01*
X1160877Y733353D01*
X1160844Y733191D01*
X1160831Y733107D01*
Y733010D01*
Y733003D01*
Y732984D01*
Y732958D01*
X1160838Y732919D01*
Y732874D01*
X1160851Y732822D01*
X1160870Y732705D01*
X1160909Y732569D01*
X1160968Y732427D01*
X1161006Y732355D01*
X1161045Y732290D01*
X1161097Y732226D01*
X1161155Y732167D01*
X1161162D01*
X1161168Y732154D01*
X1161188Y732141D01*
X1161214Y732122D01*
X1161253Y732096D01*
X1161292Y732070D01*
X1161343Y732044D01*
X1161402Y732018D01*
X1161466Y731992D01*
X1161538Y731966D01*
X1161622Y731940D01*
X1161713Y731915D01*
X1161810Y731895D01*
X1161914Y731882D01*
X1162024Y731876D01*
X1162147Y731869D01*
X1162743D01*
Y730547D01*
X1163845D01*
Y734098D01*
D02*
G37*
G36*
X1163975Y799757D02*
X1163910D01*
X1163865Y799750D01*
X1163807D01*
X1163742Y799744D01*
X1163671Y799737D01*
X1163593Y799724D01*
X1163418Y799692D01*
X1163243Y799640D01*
X1163074Y799575D01*
X1162997Y799530D01*
X1162919Y799484D01*
X1162912D01*
X1162900Y799472D01*
X1162880Y799459D01*
X1162854Y799433D01*
X1162822Y799407D01*
X1162783Y799368D01*
X1162744Y799329D01*
X1162699Y799277D01*
X1162653Y799225D01*
X1162608Y799160D01*
X1162556Y799096D01*
X1162511Y799018D01*
X1162465Y798934D01*
X1162420Y798849D01*
X1162381Y798752D01*
X1162342Y798649D01*
X1163314Y798435D01*
Y798441D01*
X1163321Y798461D01*
X1163334Y798493D01*
X1163347Y798525D01*
X1163385Y798603D01*
X1163405Y798636D01*
X1163424Y798668D01*
X1163431Y798674D01*
X1163437Y798687D01*
X1163463Y798713D01*
X1163489Y798739D01*
X1163560Y798804D01*
X1163651Y798862D01*
X1163658Y798869D01*
X1163671Y798875D01*
X1163703Y798888D01*
X1163735Y798901D01*
X1163781Y798914D01*
X1163833Y798921D01*
X1163891Y798934D01*
X1163988D01*
X1164008Y798927D01*
X1164079Y798921D01*
X1164163Y798895D01*
X1164254Y798862D01*
X1164351Y798804D01*
X1164442Y798733D01*
X1164481Y798681D01*
X1164520Y798629D01*
X1164526Y798616D01*
X1164546Y798590D01*
X1164565Y798532D01*
X1164591Y798461D01*
X1164623Y798363D01*
X1164643Y798247D01*
X1164662Y798104D01*
X1164669Y797936D01*
Y797929D01*
Y797910D01*
Y797877D01*
Y797838D01*
X1164662Y797793D01*
Y797735D01*
X1164649Y797612D01*
X1164623Y797482D01*
X1164597Y797346D01*
X1164552Y797223D01*
X1164526Y797171D01*
X1164494Y797126D01*
X1164487Y797119D01*
X1164461Y797093D01*
X1164416Y797061D01*
X1164364Y797022D01*
X1164293Y796977D01*
X1164202Y796944D01*
X1164105Y796918D01*
X1163988Y796912D01*
X1163936D01*
X1163878Y796918D01*
X1163807Y796931D01*
X1163729Y796957D01*
X1163651Y796983D01*
X1163573Y797028D01*
X1163509Y797087D01*
X1163502Y797093D01*
X1163483Y797119D01*
X1163450Y797158D01*
X1163418Y797216D01*
X1163379Y797288D01*
X1163340Y797378D01*
X1163301Y797482D01*
X1163269Y797605D01*
X1162310Y797307D01*
Y797301D01*
X1162316Y797288D01*
X1162323Y797268D01*
X1162329Y797242D01*
X1162349Y797165D01*
X1162388Y797074D01*
X1162426Y796964D01*
X1162485Y796854D01*
X1162543Y796743D01*
X1162621Y796633D01*
X1162627Y796620D01*
X1162660Y796588D01*
X1162705Y796543D01*
X1162764Y796478D01*
X1162841Y796413D01*
X1162926Y796348D01*
X1163029Y796283D01*
X1163139Y796225D01*
X1163146D01*
X1163152Y796218D01*
X1163172Y796212D01*
X1163191Y796206D01*
X1163258Y796181D01*
X1164655D01*
X1164727Y796199D01*
X1164876Y796251D01*
X1164882D01*
X1164889Y796257D01*
X1164908Y796270D01*
X1164934Y796283D01*
X1165006Y796329D01*
X1165090Y796387D01*
X1165187Y796471D01*
X1165297Y796568D01*
X1165401Y796692D01*
X1165504Y796841D01*
Y796847D01*
X1165518Y796860D01*
X1165530Y796886D01*
X1165543Y796918D01*
X1165563Y796957D01*
X1165589Y797009D01*
X1165615Y797067D01*
X1165634Y797139D01*
X1165660Y797210D01*
X1165686Y797294D01*
X1165705Y797385D01*
X1165731Y797482D01*
X1165744Y797586D01*
X1165757Y797696D01*
X1165770Y797929D01*
Y797942D01*
Y797968D01*
X1165764Y798013D01*
Y798072D01*
X1165757Y798150D01*
X1165744Y798234D01*
X1165731Y798324D01*
X1165712Y798428D01*
X1165686Y798538D01*
X1165654Y798649D01*
X1165621Y798759D01*
X1165576Y798875D01*
X1165518Y798985D01*
X1165459Y799089D01*
X1165388Y799193D01*
X1165304Y799284D01*
X1165297Y799290D01*
X1165284Y799303D01*
X1165252Y799329D01*
X1165219Y799355D01*
X1165168Y799394D01*
X1165109Y799433D01*
X1165044Y799478D01*
X1164960Y799523D01*
X1164876Y799562D01*
X1164772Y799608D01*
X1164662Y799647D01*
X1164546Y799685D01*
X1164416Y799711D01*
X1164280Y799737D01*
X1164131Y799750D01*
X1163975Y799757D01*
D02*
G37*
G36*
X1158855Y795928D02*
X1158098D01*
Y792580D01*
X1159023D01*
Y794768D01*
X1159035Y794762D01*
X1159059Y794738D01*
X1159107Y794708D01*
X1159162Y794666D01*
X1159228Y794624D01*
X1159306Y794576D01*
X1159384Y794527D01*
X1159462Y794485D01*
X1159474Y794479D01*
X1159498Y794467D01*
X1159546Y794449D01*
X1159606Y794425D01*
X1159684Y794395D01*
X1159769Y794359D01*
X1159871Y794329D01*
X1159985Y794293D01*
Y795038D01*
X1159979D01*
X1159967Y795044D01*
X1159943Y795056D01*
X1159907Y795062D01*
X1159871Y795080D01*
X1159823Y795098D01*
X1159721Y795141D01*
X1159606Y795195D01*
X1159486Y795255D01*
X1159366Y795321D01*
X1159264Y795399D01*
X1159258D01*
X1159252Y795411D01*
X1159222Y795435D01*
X1159174Y795483D01*
X1159114Y795549D01*
X1159047Y795621D01*
X1158981Y795712D01*
X1158915Y795814D01*
X1158855Y795928D01*
D02*
G37*
G36*
X1086236Y734457D02*
X1085024D01*
X1084402Y733361D01*
X1083787Y734457D01*
X1082588D01*
X1083696Y732733D01*
X1082484Y730906D01*
X1083715D01*
X1084422Y732046D01*
X1085122Y730906D01*
X1086346D01*
X1085122Y732752D01*
X1086236Y734457D01*
D02*
G37*
G36*
X1262978Y735298D02*
X1259641D01*
Y734423D01*
X1260762D01*
Y731747D01*
X1261857D01*
Y734423D01*
X1262978D01*
Y735298D01*
D02*
G37*
G36*
X1257477Y735357D02*
X1257412D01*
X1257366Y735350D01*
X1257308D01*
X1257243Y735344D01*
X1257172Y735337D01*
X1257094Y735324D01*
X1256919Y735292D01*
X1256744Y735240D01*
X1256576Y735175D01*
X1256498Y735130D01*
X1256420Y735084D01*
X1256414D01*
X1256401Y735072D01*
X1256381Y735058D01*
X1256355Y735033D01*
X1256323Y735007D01*
X1256284Y734968D01*
X1256245Y734929D01*
X1256200Y734877D01*
X1256155Y734825D01*
X1256109Y734761D01*
X1256057Y734696D01*
X1256012Y734618D01*
X1255967Y734534D01*
X1255921Y734449D01*
X1255882Y734352D01*
X1255844Y734248D01*
X1256816Y734035D01*
Y734041D01*
X1256822Y734061D01*
X1256835Y734093D01*
X1256848Y734125D01*
X1256887Y734203D01*
X1256906Y734236D01*
X1256926Y734268D01*
X1256932Y734274D01*
X1256939Y734287D01*
X1256965Y734313D01*
X1256991Y734339D01*
X1257062Y734404D01*
X1257152Y734462D01*
X1257159Y734469D01*
X1257172Y734475D01*
X1257204Y734488D01*
X1257237Y734501D01*
X1257282Y734514D01*
X1257334Y734521D01*
X1257392Y734534D01*
X1257489D01*
X1257509Y734527D01*
X1257580Y734521D01*
X1257664Y734495D01*
X1257755Y734462D01*
X1257852Y734404D01*
X1257943Y734333D01*
X1257982Y734281D01*
X1258021Y734229D01*
X1258027Y734216D01*
X1258047Y734190D01*
X1258066Y734132D01*
X1258092Y734061D01*
X1258125Y733963D01*
X1258144Y733847D01*
X1258163Y733704D01*
X1258170Y733536D01*
Y733529D01*
Y733510D01*
Y733477D01*
Y733438D01*
X1258163Y733393D01*
Y733335D01*
X1258150Y733212D01*
X1258125Y733082D01*
X1258099Y732946D01*
X1258053Y732823D01*
X1258027Y732771D01*
X1257995Y732726D01*
X1257988Y732719D01*
X1257963Y732693D01*
X1257917Y732661D01*
X1257865Y732622D01*
X1257794Y732577D01*
X1257703Y732544D01*
X1257606Y732518D01*
X1257489Y732512D01*
X1257438D01*
X1257379Y732518D01*
X1257308Y732531D01*
X1257230Y732557D01*
X1257152Y732583D01*
X1257075Y732628D01*
X1257010Y732687D01*
X1257003Y732693D01*
X1256984Y732719D01*
X1256952Y732758D01*
X1256919Y732816D01*
X1256880Y732888D01*
X1256841Y732978D01*
X1256803Y733082D01*
X1256770Y733205D01*
X1255811Y732907D01*
Y732901D01*
X1255818Y732888D01*
X1255824Y732868D01*
X1255831Y732842D01*
X1255850Y732765D01*
X1255889Y732674D01*
X1255928Y732564D01*
X1255986Y732454D01*
X1256044Y732343D01*
X1256122Y732233D01*
X1256129Y732220D01*
X1256161Y732188D01*
X1256206Y732142D01*
X1256265Y732078D01*
X1256343Y732013D01*
X1256427Y731948D01*
X1256530Y731883D01*
X1256641Y731825D01*
X1256647D01*
X1256653Y731818D01*
X1256673Y731812D01*
X1256692Y731806D01*
X1256764Y731780D01*
X1256854Y731760D01*
X1256965Y731734D01*
X1257101Y731708D01*
X1257256Y731695D01*
X1257425Y731689D01*
X1257522D01*
X1257574Y731695D01*
X1257625D01*
X1257690Y731702D01*
X1257762Y731708D01*
X1257911Y731728D01*
X1258073Y731760D01*
X1258228Y731799D01*
X1258377Y731851D01*
X1258384D01*
X1258390Y731857D01*
X1258410Y731870D01*
X1258436Y731883D01*
X1258507Y731929D01*
X1258591Y731987D01*
X1258688Y732071D01*
X1258798Y732168D01*
X1258902Y732292D01*
X1259006Y732441D01*
Y732447D01*
X1259019Y732460D01*
X1259032Y732486D01*
X1259045Y732518D01*
X1259064Y732557D01*
X1259090Y732609D01*
X1259116Y732667D01*
X1259135Y732739D01*
X1259161Y732810D01*
X1259187Y732894D01*
X1259207Y732985D01*
X1259233Y733082D01*
X1259246Y733186D01*
X1259258Y733296D01*
X1259272Y733529D01*
Y733542D01*
Y733568D01*
X1259265Y733613D01*
Y733672D01*
X1259258Y733750D01*
X1259246Y733834D01*
X1259233Y733924D01*
X1259213Y734028D01*
X1259187Y734138D01*
X1259155Y734248D01*
X1259122Y734359D01*
X1259077Y734475D01*
X1259019Y734586D01*
X1258960Y734689D01*
X1258889Y734793D01*
X1258805Y734884D01*
X1258798Y734890D01*
X1258786Y734903D01*
X1258753Y734929D01*
X1258721Y734955D01*
X1258669Y734994D01*
X1258611Y735033D01*
X1258546Y735078D01*
X1258461Y735123D01*
X1258377Y735162D01*
X1258274Y735208D01*
X1258163Y735247D01*
X1258047Y735285D01*
X1257917Y735311D01*
X1257781Y735337D01*
X1257632Y735350D01*
X1257477Y735357D01*
D02*
G37*
G36*
X1237107Y805698D02*
X1235662D01*
X1235111Y803534D01*
X1234554Y805698D01*
X1233109D01*
Y802147D01*
X1234010D01*
Y804856D01*
X1234703Y802147D01*
X1235520D01*
X1236206Y804856D01*
Y802147D01*
X1237107D01*
Y805698D01*
D02*
G37*
G36*
X1249720Y735357D02*
X1249636D01*
X1249577Y735350D01*
X1249500Y735344D01*
X1249415Y735331D01*
X1249318Y735318D01*
X1249221Y735298D01*
X1249111Y735272D01*
X1249001Y735240D01*
X1248884Y735201D01*
X1248774Y735156D01*
X1248664Y735097D01*
X1248553Y735033D01*
X1248456Y734961D01*
X1248359Y734877D01*
X1248353Y734871D01*
X1248340Y734858D01*
X1248314Y734825D01*
X1248281Y734793D01*
X1248249Y734741D01*
X1248204Y734683D01*
X1248158Y734611D01*
X1248113Y734534D01*
X1248067Y734443D01*
X1248029Y734346D01*
X1247983Y734236D01*
X1247951Y734119D01*
X1247919Y733989D01*
X1247893Y733853D01*
X1247880Y733704D01*
X1247873Y733549D01*
Y733542D01*
Y733523D01*
Y733490D01*
Y733445D01*
X1247880Y733393D01*
X1247886Y733328D01*
X1247893Y733264D01*
X1247899Y733186D01*
X1247925Y733024D01*
X1247964Y732855D01*
X1248016Y732687D01*
X1248087Y732525D01*
Y732518D01*
X1248094Y732505D01*
X1248106Y732486D01*
X1248126Y732460D01*
X1248171Y732389D01*
X1248242Y732298D01*
X1248327Y732201D01*
X1248430Y732097D01*
X1248547Y732000D01*
X1248690Y731909D01*
X1248696D01*
X1248709Y731903D01*
X1248728Y731890D01*
X1248761Y731877D01*
X1248800Y731857D01*
X1248845Y731838D01*
X1248897Y731818D01*
X1248962Y731799D01*
X1249033Y731780D01*
X1249104Y731760D01*
X1249273Y731721D01*
X1249467Y731695D01*
X1249681Y731689D01*
X1249778D01*
X1249830Y731695D01*
X1249888Y731702D01*
X1249953D01*
X1250031Y731715D01*
X1250187Y731734D01*
X1250348Y731767D01*
X1250517Y731812D01*
X1250673Y731877D01*
X1250679D01*
X1250692Y731883D01*
X1250711Y731896D01*
X1250737Y731916D01*
X1250809Y731961D01*
X1250899Y732026D01*
X1251003Y732104D01*
X1251107Y732214D01*
X1251217Y732337D01*
X1251314Y732479D01*
Y732486D01*
X1251327Y732499D01*
X1251334Y732525D01*
X1251353Y732557D01*
X1251372Y732596D01*
X1251392Y732642D01*
X1251411Y732700D01*
X1251431Y732765D01*
X1251457Y732836D01*
X1251476Y732914D01*
X1251495Y732998D01*
X1251515Y733095D01*
X1251541Y733296D01*
X1251554Y733516D01*
Y733529D01*
Y733555D01*
X1251547Y733601D01*
Y733659D01*
X1251541Y733730D01*
X1251528Y733814D01*
X1251515Y733912D01*
X1251495Y734009D01*
X1251470Y734119D01*
X1251437Y734229D01*
X1251398Y734339D01*
X1251353Y734456D01*
X1251295Y734566D01*
X1251230Y734676D01*
X1251159Y734773D01*
X1251074Y734871D01*
X1251068Y734877D01*
X1251048Y734890D01*
X1251022Y734916D01*
X1250984Y734948D01*
X1250932Y734981D01*
X1250873Y735026D01*
X1250802Y735072D01*
X1250724Y735117D01*
X1250634Y735162D01*
X1250530Y735201D01*
X1250420Y735247D01*
X1250297Y735279D01*
X1250167Y735311D01*
X1250025Y735337D01*
X1249876Y735350D01*
X1249720Y735357D01*
D02*
G37*
G36*
X1255526Y735298D02*
X1254314D01*
X1253692Y734203D01*
X1253077Y735298D01*
X1251878D01*
X1252986Y733575D01*
X1251774Y731747D01*
X1253005D01*
X1253712Y732888D01*
X1254412Y731747D01*
X1255636D01*
X1254412Y733594D01*
X1255526Y735298D01*
D02*
G37*
G36*
X1261874Y728609D02*
X1259640D01*
X1259588Y728601D01*
X1259455Y728594D01*
X1259314Y728586D01*
X1259166Y728564D01*
X1259025Y728542D01*
X1258900Y728505D01*
X1258885Y728498D01*
X1258848Y728483D01*
X1258789Y728461D01*
X1258722Y728424D01*
X1258641Y728372D01*
X1258559Y728305D01*
X1258478Y728231D01*
X1258404Y728135D01*
X1258396Y728120D01*
X1258374Y728091D01*
X1258345Y728031D01*
X1258308Y727950D01*
X1258271Y727854D01*
X1258241Y727743D01*
X1258219Y727617D01*
X1258211Y727477D01*
Y727462D01*
Y727417D01*
X1258219Y727358D01*
X1258226Y727277D01*
X1258248Y727188D01*
X1258271Y727092D01*
X1258308Y726988D01*
X1258359Y726892D01*
X1258367Y726885D01*
X1258382Y726855D01*
X1258419Y726811D01*
X1258463Y726751D01*
X1258522Y726692D01*
X1258589Y726625D01*
X1258670Y726559D01*
X1258759Y726500D01*
X1258766Y726492D01*
X1258789Y726485D01*
X1258826Y726463D01*
X1258870Y726440D01*
X1258937Y726418D01*
X1259011Y726389D01*
X1259099Y726367D01*
X1259196Y726337D01*
X1259188D01*
X1259159Y726322D01*
X1259122Y726307D01*
X1259070Y726293D01*
X1258966Y726241D01*
X1258914Y726219D01*
X1258870Y726189D01*
X1258855Y726182D01*
X1258840Y726167D01*
X1258818Y726145D01*
X1258789Y726115D01*
X1258759Y726078D01*
X1258715Y726033D01*
X1258670Y725974D01*
X1258663Y725967D01*
X1258648Y725945D01*
X1258626Y725915D01*
X1258596Y725885D01*
X1258537Y725797D01*
X1258515Y725760D01*
X1258493Y725723D01*
X1257878Y724553D01*
X1259299D01*
X1259973Y725789D01*
X1259980Y725797D01*
X1259995Y725826D01*
X1260017Y725871D01*
X1260047Y725915D01*
X1260121Y726019D01*
X1260165Y726063D01*
X1260202Y726100D01*
X1260209Y726108D01*
X1260224Y726115D01*
X1260254Y726130D01*
X1260291Y726152D01*
X1260335Y726167D01*
X1260387Y726182D01*
X1260446Y726189D01*
X1260513Y726196D01*
X1260616D01*
Y724553D01*
X1261874D01*
Y728609D01*
D02*
G37*
G36*
X1122099Y807771D02*
X1122066D01*
X1121989Y807765D01*
X1121924Y807758D01*
X1121859Y807745D01*
X1121814Y807732D01*
X1121768Y807713D01*
X1121743Y807700D01*
X1121723Y807694D01*
X1121717Y807687D01*
X1121671Y807655D01*
X1121632Y807616D01*
X1121607Y807583D01*
X1121581Y807545D01*
X1121561Y807512D01*
X1121548Y807493D01*
X1121542Y807473D01*
Y807467D01*
X1121535Y807434D01*
X1121529Y807402D01*
X1121522Y807311D01*
X1121509Y807208D01*
Y807104D01*
X1121503Y807000D01*
Y806955D01*
Y806916D01*
Y806884D01*
Y806858D01*
Y806845D01*
Y806838D01*
Y806307D01*
X1122617D01*
Y806871D01*
Y806955D01*
Y807033D01*
X1122611Y807104D01*
Y807169D01*
Y807220D01*
X1122604Y807272D01*
Y807311D01*
X1122598Y807350D01*
X1122591Y807402D01*
X1122585Y807434D01*
X1122579Y807454D01*
Y807460D01*
X1122559Y807512D01*
X1122533Y807557D01*
X1122501Y807596D01*
X1122475Y807629D01*
X1122449Y807655D01*
X1122423Y807674D01*
X1122410Y807681D01*
X1122404Y807687D01*
X1122352Y807713D01*
X1122300Y807739D01*
X1122190Y807758D01*
X1122138Y807765D01*
X1122099Y807771D01*
D02*
G37*
G36*
X1253335Y728609D02*
X1252077D01*
Y724553D01*
X1253335D01*
Y728609D01*
D02*
G37*
G36*
X1257486D02*
X1255340D01*
X1255296Y728601D01*
X1255237D01*
X1255170Y728594D01*
X1255022Y728572D01*
X1254859Y728527D01*
X1254689Y728468D01*
X1254526Y728394D01*
X1254452Y728342D01*
X1254386Y728283D01*
X1254378D01*
X1254371Y728268D01*
X1254356Y728246D01*
X1254334Y728224D01*
X1254275Y728150D01*
X1254215Y728046D01*
X1254156Y727913D01*
X1254097Y727758D01*
X1254060Y727573D01*
X1254045Y727477D01*
Y727365D01*
Y727358D01*
Y727336D01*
Y727306D01*
X1254053Y727262D01*
Y727210D01*
X1254067Y727151D01*
X1254090Y727018D01*
X1254134Y726862D01*
X1254201Y726699D01*
X1254245Y726618D01*
X1254289Y726544D01*
X1254349Y726470D01*
X1254415Y726404D01*
X1254423D01*
X1254430Y726389D01*
X1254452Y726374D01*
X1254482Y726352D01*
X1254526Y726322D01*
X1254571Y726293D01*
X1254630Y726263D01*
X1254696Y726233D01*
X1254770Y726204D01*
X1254852Y726174D01*
X1254948Y726145D01*
X1255052Y726115D01*
X1255163Y726093D01*
X1255281Y726078D01*
X1255407Y726070D01*
X1255547Y726063D01*
X1256228D01*
Y724553D01*
X1257486D01*
Y728609D01*
D02*
G37*
G36*
X1228262Y805698D02*
X1226558D01*
X1226512Y805692D01*
X1226467D01*
X1226357Y805679D01*
X1226227Y805666D01*
X1226098Y805640D01*
X1225968Y805608D01*
X1225851Y805562D01*
X1225845D01*
X1225838Y805556D01*
X1225799Y805536D01*
X1225748Y805510D01*
X1225676Y805465D01*
X1225599Y805413D01*
X1225514Y805348D01*
X1225437Y805271D01*
X1225359Y805186D01*
X1225352Y805173D01*
X1225326Y805141D01*
X1225294Y805096D01*
X1225249Y805024D01*
X1225203Y804940D01*
X1225158Y804843D01*
X1225119Y804733D01*
X1225080Y804616D01*
Y804610D01*
X1225074Y804603D01*
Y804584D01*
X1225067Y804558D01*
X1225054Y804493D01*
X1225035Y804409D01*
X1225015Y804305D01*
X1225002Y804189D01*
X1224996Y804065D01*
X1224990Y803929D01*
Y803923D01*
Y803903D01*
Y803877D01*
Y803839D01*
X1224996Y803787D01*
Y803735D01*
X1225009Y803605D01*
X1225022Y803469D01*
X1225048Y803320D01*
X1225080Y803178D01*
X1225126Y803048D01*
Y803041D01*
X1225132Y803035D01*
X1225152Y802996D01*
X1225177Y802938D01*
X1225216Y802866D01*
X1225268Y802782D01*
X1225333Y802698D01*
X1225404Y802607D01*
X1225488Y802523D01*
X1225501Y802517D01*
X1225527Y802491D01*
X1225573Y802452D01*
X1225631Y802407D01*
X1225709Y802361D01*
X1225786Y802316D01*
X1225877Y802270D01*
X1225974Y802238D01*
X1225981D01*
X1225987Y802232D01*
X1226007D01*
X1226033Y802225D01*
X1226104Y802212D01*
X1226195Y802193D01*
X1226292Y802173D01*
X1226409Y802160D01*
X1226519Y802154D01*
X1226635Y802147D01*
X1228262D01*
Y805698D01*
D02*
G37*
G36*
X1224413D02*
X1221471D01*
Y804940D01*
X1223311D01*
Y804376D01*
X1221607D01*
Y803651D01*
X1223311D01*
Y802951D01*
X1221419D01*
Y802147D01*
X1224413D01*
Y805698D01*
D02*
G37*
G36*
X1230711Y805757D02*
X1230627D01*
X1230569Y805750D01*
X1230491Y805744D01*
X1230407Y805731D01*
X1230309Y805718D01*
X1230212Y805698D01*
X1230102Y805672D01*
X1229992Y805640D01*
X1229875Y805601D01*
X1229765Y805556D01*
X1229655Y805497D01*
X1229545Y805433D01*
X1229448Y805361D01*
X1229350Y805277D01*
X1229344Y805271D01*
X1229331Y805258D01*
X1229305Y805225D01*
X1229273Y805193D01*
X1229240Y805141D01*
X1229195Y805083D01*
X1229150Y805011D01*
X1229104Y804934D01*
X1229059Y804843D01*
X1229020Y804746D01*
X1228975Y804636D01*
X1228942Y804519D01*
X1228910Y804389D01*
X1228884Y804253D01*
X1228871Y804104D01*
X1228864Y803949D01*
Y803942D01*
Y803923D01*
Y803890D01*
Y803845D01*
X1228871Y803793D01*
X1228878Y803728D01*
X1228884Y803664D01*
X1228890Y803586D01*
X1228916Y803424D01*
X1228955Y803255D01*
X1229007Y803087D01*
X1229078Y802925D01*
Y802918D01*
X1229085Y802905D01*
X1229098Y802886D01*
X1229117Y802860D01*
X1229163Y802789D01*
X1229234Y802698D01*
X1229318Y802601D01*
X1229422Y802497D01*
X1229538Y802400D01*
X1229681Y802309D01*
X1229688D01*
X1229700Y802303D01*
X1229720Y802290D01*
X1229752Y802277D01*
X1229791Y802257D01*
X1229836Y802238D01*
X1229888Y802219D01*
X1229953Y802199D01*
X1230024Y802180D01*
X1230096Y802160D01*
X1230264Y802121D01*
X1230459Y802095D01*
X1230672Y802089D01*
X1230770D01*
X1230822Y802095D01*
X1230880Y802102D01*
X1230945D01*
X1231022Y802115D01*
X1231178Y802134D01*
X1231340Y802167D01*
X1231508Y802212D01*
X1231664Y802277D01*
X1231670D01*
X1231683Y802283D01*
X1231703Y802296D01*
X1231729Y802316D01*
X1231800Y802361D01*
X1231891Y802426D01*
X1231994Y802504D01*
X1232098Y802614D01*
X1232208Y802737D01*
X1232305Y802880D01*
Y802886D01*
X1232318Y802899D01*
X1232325Y802925D01*
X1232344Y802957D01*
X1232364Y802996D01*
X1232383Y803041D01*
X1232403Y803100D01*
X1232422Y803165D01*
X1232448Y803236D01*
X1232467Y803314D01*
X1232487Y803398D01*
X1232506Y803495D01*
X1232532Y803696D01*
X1232545Y803916D01*
Y803929D01*
Y803955D01*
X1232539Y804000D01*
Y804059D01*
X1232532Y804130D01*
X1232519Y804214D01*
X1232506Y804312D01*
X1232487Y804409D01*
X1232461Y804519D01*
X1232428Y804629D01*
X1232390Y804739D01*
X1232344Y804856D01*
X1232286Y804966D01*
X1232221Y805076D01*
X1232150Y805173D01*
X1232066Y805271D01*
X1232059Y805277D01*
X1232040Y805290D01*
X1232014Y805316D01*
X1231975Y805348D01*
X1231923Y805381D01*
X1231865Y805426D01*
X1231793Y805472D01*
X1231716Y805517D01*
X1231625Y805562D01*
X1231521Y805601D01*
X1231411Y805647D01*
X1231288Y805679D01*
X1231158Y805711D01*
X1231016Y805737D01*
X1230867Y805750D01*
X1230711Y805757D01*
D02*
G37*
G36*
X1220842Y805698D02*
X1219397D01*
X1218846Y803534D01*
X1218289Y805698D01*
X1216844D01*
Y802147D01*
X1217745D01*
Y804856D01*
X1218438Y802147D01*
X1219255D01*
X1219942Y804856D01*
Y802147D01*
X1220842D01*
Y805698D01*
D02*
G37*
%LPD*%
G36*
X1256228Y726885D02*
X1255866D01*
X1255799Y726892D01*
X1255725Y726899D01*
X1255644Y726914D01*
X1255555Y726936D01*
X1255481Y726966D01*
X1255414Y727003D01*
X1255407Y727010D01*
X1255392Y727025D01*
X1255370Y727055D01*
X1255340Y727092D01*
X1255311Y727136D01*
X1255288Y727195D01*
X1255274Y727254D01*
X1255266Y727328D01*
Y727336D01*
Y727358D01*
X1255274Y727395D01*
X1255281Y727439D01*
X1255296Y727491D01*
X1255325Y727551D01*
X1255355Y727602D01*
X1255399Y727654D01*
X1255407Y727662D01*
X1255422Y727676D01*
X1255459Y727699D01*
X1255503Y727721D01*
X1255570Y727743D01*
X1255651Y727765D01*
X1255755Y727780D01*
X1255873Y727787D01*
X1256228D01*
Y726885D01*
D02*
G37*
G36*
X1155802Y795315D02*
X1155844Y795309D01*
X1155892Y795291D01*
X1155946Y795267D01*
X1156000Y795225D01*
X1156054Y795165D01*
X1156096Y795086D01*
X1156102Y795074D01*
X1156108Y795062D01*
X1156114Y795038D01*
X1156120Y795014D01*
X1156126Y794984D01*
X1156139Y794942D01*
X1156145Y794894D01*
X1156157Y794840D01*
X1156169Y794780D01*
X1156175Y794708D01*
X1156181Y794636D01*
X1156187Y794546D01*
X1156193Y794455D01*
X1156199Y794353D01*
Y794239D01*
Y794233D01*
Y794209D01*
Y794179D01*
Y794137D01*
X1156193Y794089D01*
Y794029D01*
X1156187Y793896D01*
X1156175Y793752D01*
X1156151Y793608D01*
X1156139Y793542D01*
X1156126Y793482D01*
X1156108Y793428D01*
X1156091Y793380D01*
X1156084Y793368D01*
X1156066Y793343D01*
X1156042Y793307D01*
X1156006Y793265D01*
X1155958Y793223D01*
X1155904Y793187D01*
X1155838Y793163D01*
X1155766Y793151D01*
X1155742D01*
X1155712Y793157D01*
X1155682Y793163D01*
X1155640Y793175D01*
X1155604Y793193D01*
X1155562Y793217D01*
X1155519Y793247D01*
X1155513Y793253D01*
X1155501Y793265D01*
X1155484Y793289D01*
X1155459Y793320D01*
X1155435Y793368D01*
X1155411Y793416D01*
X1155387Y793482D01*
X1155369Y793554D01*
Y793566D01*
X1155363Y793596D01*
X1155351Y793644D01*
X1155339Y793716D01*
X1155333Y793806D01*
X1155321Y793921D01*
X1155315Y794053D01*
Y794209D01*
Y794215D01*
Y794239D01*
Y794269D01*
Y794317D01*
X1155321Y794365D01*
Y794431D01*
X1155327Y794564D01*
X1155345Y794714D01*
X1155363Y794858D01*
X1155375Y794924D01*
X1155393Y794990D01*
X1155411Y795044D01*
X1155429Y795092D01*
X1155435Y795105D01*
X1155453Y795128D01*
X1155477Y795165D01*
X1155513Y795207D01*
X1155562Y795249D01*
X1155622Y795285D01*
X1155688Y795309D01*
X1155766Y795321D01*
X1155778D01*
X1155802Y795315D01*
D02*
G37*
G36*
X1077430Y733018D02*
X1076931D01*
X1076905Y733025D01*
X1076866Y733031D01*
X1076814Y733038D01*
X1076749Y733050D01*
X1076678Y733063D01*
X1076672D01*
X1076659Y733070D01*
X1076639Y733076D01*
X1076613Y733083D01*
X1076555Y733115D01*
X1076523Y733141D01*
X1076497Y733174D01*
X1076490Y733180D01*
X1076484Y733193D01*
X1076471Y733206D01*
X1076458Y733232D01*
X1076438Y733297D01*
X1076425Y733336D01*
Y733381D01*
Y733387D01*
Y733407D01*
X1076432Y733439D01*
X1076438Y733478D01*
X1076451Y733517D01*
X1076471Y733562D01*
X1076497Y733601D01*
X1076536Y733640D01*
X1076542Y733647D01*
X1076555Y733653D01*
X1076587Y733673D01*
X1076626Y733692D01*
X1076685Y733705D01*
X1076756Y733724D01*
X1076847Y733731D01*
X1076950Y733737D01*
X1077430D01*
Y733018D01*
D02*
G37*
G36*
X1260616Y726966D02*
X1260047D01*
X1260017Y726973D01*
X1259973Y726981D01*
X1259913Y726988D01*
X1259839Y727003D01*
X1259758Y727018D01*
X1259751D01*
X1259736Y727025D01*
X1259714Y727033D01*
X1259684Y727040D01*
X1259617Y727077D01*
X1259580Y727107D01*
X1259551Y727143D01*
X1259543Y727151D01*
X1259536Y727166D01*
X1259521Y727180D01*
X1259506Y727210D01*
X1259484Y727284D01*
X1259469Y727328D01*
Y727380D01*
Y727388D01*
Y727410D01*
X1259477Y727447D01*
X1259484Y727491D01*
X1259499Y727536D01*
X1259521Y727588D01*
X1259551Y727632D01*
X1259595Y727676D01*
X1259603Y727684D01*
X1259617Y727691D01*
X1259654Y727713D01*
X1259699Y727736D01*
X1259765Y727750D01*
X1259847Y727773D01*
X1259950Y727780D01*
X1260069Y727787D01*
X1260616D01*
Y726966D01*
D02*
G37*
G36*
X1227167Y802957D02*
X1226843D01*
X1226784Y802964D01*
X1226707D01*
X1226629Y802977D01*
X1226545Y802990D01*
X1226473Y803003D01*
X1226409Y803028D01*
X1226402Y803035D01*
X1226383Y803041D01*
X1226357Y803061D01*
X1226324Y803093D01*
X1226285Y803126D01*
X1226247Y803171D01*
X1226208Y803229D01*
X1226175Y803294D01*
X1226169Y803301D01*
X1226162Y803333D01*
X1226149Y803378D01*
X1226130Y803443D01*
X1226117Y803528D01*
X1226104Y803638D01*
X1226098Y803761D01*
X1226091Y803910D01*
Y803916D01*
Y803936D01*
Y803962D01*
Y804000D01*
X1226098Y804046D01*
Y804098D01*
X1226117Y804221D01*
X1226136Y804344D01*
X1226169Y804474D01*
X1226214Y804590D01*
X1226247Y804636D01*
X1226279Y804681D01*
X1226285Y804687D01*
X1226318Y804713D01*
X1226363Y804746D01*
X1226428Y804791D01*
X1226512Y804830D01*
X1226616Y804862D01*
X1226746Y804888D01*
X1226895Y804895D01*
X1227167D01*
Y802957D01*
D02*
G37*
G36*
X1249778Y734521D02*
X1249843Y734514D01*
X1249914Y734495D01*
X1249999Y734469D01*
X1250089Y734423D01*
X1250180Y734365D01*
X1250258Y734287D01*
X1250264Y734274D01*
X1250290Y734242D01*
X1250323Y734184D01*
X1250355Y734106D01*
X1250374Y734054D01*
X1250394Y733996D01*
X1250413Y733931D01*
X1250426Y733866D01*
X1250439Y733788D01*
X1250452Y733704D01*
X1250459Y733613D01*
Y733516D01*
Y733510D01*
Y733490D01*
Y733464D01*
X1250452Y733432D01*
Y733387D01*
X1250446Y733335D01*
X1250433Y733218D01*
X1250413Y733095D01*
X1250374Y732966D01*
X1250329Y732842D01*
X1250297Y732791D01*
X1250264Y732745D01*
X1250258Y732732D01*
X1250225Y732706D01*
X1250180Y732674D01*
X1250122Y732628D01*
X1250044Y732583D01*
X1249947Y732551D01*
X1249837Y732525D01*
X1249714Y732512D01*
X1249681D01*
X1249655Y732518D01*
X1249590Y732525D01*
X1249513Y732538D01*
X1249428Y732570D01*
X1249338Y732609D01*
X1249247Y732661D01*
X1249169Y732739D01*
X1249163Y732752D01*
X1249137Y732784D01*
X1249124Y732810D01*
X1249104Y732842D01*
X1249085Y732881D01*
X1249065Y732927D01*
X1249053Y732978D01*
X1249033Y733037D01*
X1249014Y733108D01*
X1249001Y733179D01*
X1248988Y733264D01*
X1248975Y733354D01*
X1248968Y733452D01*
Y733562D01*
Y733568D01*
Y733581D01*
Y733607D01*
Y733646D01*
X1248975Y733685D01*
X1248981Y733730D01*
X1248994Y733840D01*
X1249020Y733957D01*
X1249053Y734080D01*
X1249104Y734197D01*
X1249176Y734294D01*
X1249182Y734307D01*
X1249214Y734333D01*
X1249260Y734365D01*
X1249318Y734410D01*
X1249396Y734456D01*
X1249493Y734488D01*
X1249603Y734514D01*
X1249726Y734527D01*
X1249739D01*
X1249778Y734521D01*
D02*
G37*
G36*
X1230770Y804921D02*
X1230834Y804914D01*
X1230906Y804895D01*
X1230990Y804869D01*
X1231081Y804823D01*
X1231171Y804765D01*
X1231249Y804687D01*
X1231256Y804674D01*
X1231282Y804642D01*
X1231314Y804584D01*
X1231346Y804506D01*
X1231366Y804454D01*
X1231385Y804396D01*
X1231405Y804331D01*
X1231418Y804266D01*
X1231431Y804189D01*
X1231444Y804104D01*
X1231450Y804014D01*
Y803916D01*
Y803910D01*
Y803890D01*
Y803864D01*
X1231444Y803832D01*
Y803787D01*
X1231437Y803735D01*
X1231424Y803618D01*
X1231405Y803495D01*
X1231366Y803366D01*
X1231320Y803242D01*
X1231288Y803191D01*
X1231256Y803145D01*
X1231249Y803132D01*
X1231217Y803106D01*
X1231171Y803074D01*
X1231113Y803028D01*
X1231035Y802983D01*
X1230938Y802951D01*
X1230828Y802925D01*
X1230705Y802912D01*
X1230672D01*
X1230647Y802918D01*
X1230582Y802925D01*
X1230504Y802938D01*
X1230420Y802970D01*
X1230329Y803009D01*
X1230238Y803061D01*
X1230161Y803139D01*
X1230154Y803152D01*
X1230128Y803184D01*
X1230115Y803210D01*
X1230096Y803242D01*
X1230076Y803281D01*
X1230057Y803327D01*
X1230044Y803378D01*
X1230024Y803437D01*
X1230005Y803508D01*
X1229992Y803579D01*
X1229979Y803664D01*
X1229966Y803754D01*
X1229960Y803852D01*
Y803962D01*
Y803968D01*
Y803981D01*
Y804007D01*
Y804046D01*
X1229966Y804085D01*
X1229973Y804130D01*
X1229986Y804240D01*
X1230011Y804357D01*
X1230044Y804480D01*
X1230096Y804597D01*
X1230167Y804694D01*
X1230173Y804707D01*
X1230206Y804733D01*
X1230251Y804765D01*
X1230309Y804811D01*
X1230387Y804856D01*
X1230484Y804888D01*
X1230595Y804914D01*
X1230718Y804927D01*
X1230731D01*
X1230770Y804921D01*
D02*
G37*
G36*
X1154948Y731902D02*
X1154170D01*
X1154559Y733172D01*
X1154948Y731902D01*
D02*
G37*
G36*
X1162743Y732588D02*
X1162426D01*
X1162367Y732595D01*
X1162302Y732601D01*
X1162231Y732614D01*
X1162153Y732634D01*
X1162088Y732660D01*
X1162030Y732692D01*
X1162024Y732699D01*
X1162011Y732712D01*
X1161991Y732737D01*
X1161965Y732770D01*
X1161940Y732809D01*
X1161920Y732861D01*
X1161907Y732912D01*
X1161901Y732977D01*
Y732984D01*
Y733003D01*
X1161907Y733036D01*
X1161914Y733074D01*
X1161926Y733120D01*
X1161952Y733172D01*
X1161978Y733217D01*
X1162017Y733262D01*
X1162024Y733269D01*
X1162037Y733282D01*
X1162069Y733301D01*
X1162108Y733321D01*
X1162166Y733340D01*
X1162238Y733360D01*
X1162328Y733372D01*
X1162432Y733379D01*
X1162743D01*
Y732588D01*
D02*
G37*
D44*
X1040343Y756300D02*
G03*
X1040343Y756300I-300J0D01*
G01*
X1237176Y729881D02*
G03*
X1237176Y729881I-300J0D01*
G01*
X1247476Y732481D02*
G03*
X1248476Y731481I1000J0D01*
G01*
X1262476D02*
G03*
X1263476Y732481I0J1000D01*
G01*
X1166576Y730081D02*
G03*
X1167576Y731081I0J1000D01*
G01*
X1152176D02*
G03*
X1153176Y730081I1000J0D01*
G01*
X1248476Y735881D02*
G03*
X1247476Y734881I0J-1000D01*
G01*
X1237576Y805281D02*
G03*
X1236576Y806281I-1000J0D01*
G01*
X1217376D02*
G03*
X1216376Y805281I0J-1000D01*
G01*
Y802781D02*
G03*
X1217376Y801781I1000J0D01*
G01*
X1166676Y799281D02*
G03*
X1165676Y800281I-1000J0D01*
G01*
X1075276Y734881D02*
G03*
X1074276Y733881I0J-1000D01*
G01*
X1093476D02*
G03*
X1092476Y734881I-1000J0D01*
G01*
Y730581D02*
G03*
X1093476Y731581I0J1000D01*
G01*
X1251276Y729081D02*
G03*
X1250276Y728081I0J-1000D01*
G01*
X1263476D02*
G03*
X1262476Y729081I-1000J0D01*
G01*
X1263476Y734881D02*
G03*
X1262476Y735881I-1000J0D01*
G01*
X1236576Y801781D02*
G03*
X1237576Y802781I0J1000D01*
G01*
X1074276Y731581D02*
G03*
X1075276Y730581I1000J0D01*
G01*
X1153176Y734581D02*
G03*
X1152176Y733581I0J-1000D01*
G01*
X1167576D02*
G03*
X1166576Y734581I-1000J0D01*
G01*
X1155176Y800281D02*
G03*
X1154176Y799281I0J-1000D01*
G01*
X1243976Y801656D02*
X1245576D01*
X1243976Y798506D02*
X1245576D01*
X1243976Y805156D02*
X1245576D01*
X1243976Y802006D02*
X1245576D01*
X1045463Y747606D02*
X1047288D01*
X1045463Y750756D02*
X1047288D01*
X1044242Y762700D02*
X1045043D01*
X1044242Y751500D02*
X1045043D01*
X1049242Y755900D02*
Y758300D01*
X1040242Y757300D02*
Y758300D01*
X1230476Y734081D02*
Y734881D01*
X1241676Y734081D02*
Y734881D01*
X1234876Y739081D02*
X1237276D01*
X1234876Y730081D02*
X1235876D01*
X1067563Y788806D02*
X1069388D01*
X1067563Y791956D02*
X1069388D01*
X1103376Y754006D02*
X1104976D01*
X1103376Y757156D02*
X1104976D01*
X1248476Y731481D02*
X1262476D01*
X1153176Y730081D02*
X1166576D01*
X1247476Y732481D02*
Y734881D01*
X1217376Y806281D02*
X1236576D01*
X1216376Y802781D02*
Y805281D01*
X1166676Y792181D02*
Y796381D01*
X1154176Y792181D02*
X1166676D01*
Y796381D02*
Y799281D01*
X1075276Y734881D02*
X1092476D01*
X1093476Y731581D02*
Y733881D01*
X1251050Y738881D02*
Y740481D01*
X1247901Y738881D02*
Y740481D01*
X1237650Y795669D02*
Y797494D01*
X1234501Y795669D02*
Y797494D01*
X1238925Y783757D02*
X1240425D01*
X1211924D02*
X1213925D01*
X1211924Y781757D02*
Y783757D01*
Y754757D02*
Y756757D01*
Y754757D02*
X1213925D01*
X1238925D02*
X1240924D01*
Y756757D01*
X1246576Y787481D02*
X1251576D01*
X1246576Y798081D02*
X1251576D01*
X1244776Y760181D02*
Y765181D01*
X1255376Y760181D02*
Y765181D01*
X1134541Y743832D02*
Y744619D01*
X1136991Y743832D02*
Y744619D01*
X1064501Y784906D02*
X1065288D01*
X1064501Y782456D02*
X1065288D01*
X1049501Y737269D02*
Y738056D01*
X1047051Y737269D02*
Y738056D01*
X1242916Y747229D02*
Y748016D01*
X1245366Y747229D02*
Y748016D01*
X1233555Y796700D02*
Y797487D01*
X1231105Y796700D02*
Y797487D01*
X1064501Y788206D02*
X1065288D01*
X1064501Y785756D02*
X1065288D01*
X1048756Y766486D02*
X1050356D01*
X1048756Y763336D02*
X1050356D01*
X1257376Y780556D02*
X1258976D01*
X1257376Y777406D02*
X1258976D01*
X1257376Y775556D02*
X1258976D01*
X1257376Y772406D02*
X1258976D01*
X1264376Y772156D02*
X1265976D01*
X1264376Y769006D02*
X1265976D01*
X1264376Y775456D02*
X1265976D01*
X1264376Y772306D02*
X1265976D01*
X1122451Y731911D02*
Y733511D01*
X1125600Y731911D02*
Y733511D01*
X1125641Y731871D02*
Y733471D01*
X1128790Y731871D02*
Y733471D01*
X1107011Y731941D02*
Y733541D01*
X1110160Y731941D02*
Y733541D01*
X1166890Y787601D02*
Y789201D01*
X1163741Y787601D02*
Y789201D01*
X1163530Y787601D02*
Y789201D01*
X1160381Y787601D02*
Y789201D01*
X1160290Y787591D02*
Y789191D01*
X1157141Y787591D02*
Y789191D01*
X1157110Y787611D02*
Y789211D01*
X1153961Y787611D02*
Y789211D01*
X1181644Y771513D02*
X1182776Y770381D01*
X1183871Y773740D02*
X1185003Y772609D01*
X1191259Y755221D02*
X1192859D01*
X1191259Y758370D02*
X1192859D01*
X1191235Y751982D02*
X1192835D01*
X1191235Y755131D02*
X1192835D01*
X1198531Y754443D02*
Y756043D01*
X1195382Y754443D02*
Y756043D01*
X1198531Y746766D02*
Y748365D01*
X1195382Y746766D02*
Y748365D01*
X1191259Y747543D02*
X1192859D01*
X1191259Y750693D02*
X1192859D01*
X1084787Y743911D02*
X1086387D01*
X1084787Y747061D02*
X1086387D01*
X1217301Y745881D02*
Y747481D01*
X1220450Y745881D02*
Y747481D01*
X1103376Y750706D02*
X1104976D01*
X1103376Y753856D02*
X1104976D01*
X1187654Y764961D02*
Y766561D01*
X1184505Y764961D02*
Y766561D01*
X1187528Y758445D02*
Y760045D01*
X1184378Y758445D02*
Y760045D01*
X1191259Y744295D02*
X1192859D01*
X1191259Y747445D02*
X1192859D01*
X1141766Y737836D02*
X1143366D01*
X1141766Y740986D02*
X1143366D01*
X1106150Y730081D02*
Y731681D01*
X1103001Y730081D02*
Y731681D01*
X1072301Y743281D02*
Y744881D01*
X1075450Y743281D02*
Y744881D01*
X1068650Y743281D02*
Y744881D01*
X1065501Y743281D02*
Y744881D01*
X1092501Y772381D02*
Y773981D01*
X1095650Y772381D02*
Y773981D01*
X1062001Y743281D02*
Y744881D01*
X1065150Y743281D02*
Y744881D01*
X1227999Y746804D02*
Y748404D01*
X1224850Y746804D02*
Y748404D01*
X1084787Y747454D02*
X1086387D01*
X1084787Y750604D02*
X1086387D01*
X1096401Y764781D02*
Y766381D01*
X1099550Y764781D02*
Y766381D01*
X1141776Y734606D02*
X1143376D01*
X1141776Y737756D02*
X1143376D01*
X1139380Y737059D02*
Y738884D01*
X1136231Y737059D02*
Y738884D01*
X1136080Y737039D02*
Y738864D01*
X1132931Y737039D02*
Y738864D01*
X1198417Y788540D02*
Y790365D01*
X1201566Y788540D02*
Y790365D01*
X1084301Y739469D02*
Y741294D01*
X1087450Y739469D02*
Y741294D01*
X1092350Y772269D02*
Y774094D01*
X1089201Y772269D02*
Y774094D01*
X1045463Y740806D02*
X1047288D01*
X1045463Y743956D02*
X1047288D01*
X1045463Y744206D02*
X1047288D01*
X1045463Y747356D02*
X1047288D01*
X1060263Y764956D02*
X1062088D01*
X1060263Y761806D02*
X1062088D01*
X1110401Y731799D02*
Y733624D01*
X1113550Y731799D02*
Y733624D01*
X1237323Y740124D02*
X1239148D01*
X1237323Y743273D02*
X1239148D01*
X1245716Y738817D02*
Y740642D01*
X1242566Y738817D02*
Y740642D01*
X1238629Y746691D02*
Y748516D01*
X1241779Y746691D02*
Y748516D01*
X1234501Y788969D02*
Y790794D01*
X1237650Y788969D02*
Y790794D01*
X1229646Y740320D02*
X1231471D01*
X1229646Y743470D02*
X1231471D01*
X1245528Y778628D02*
Y780453D01*
X1248678Y778628D02*
Y780453D01*
X1220701Y745769D02*
Y747594D01*
X1223850Y745769D02*
Y747594D01*
X1233905Y746691D02*
Y748516D01*
X1230755Y746691D02*
Y748516D01*
X1204843Y764730D02*
X1206668D01*
X1204843Y767879D02*
X1206668D01*
X1226263Y793406D02*
X1228088D01*
X1226263Y796556D02*
X1228088D01*
X1216563Y787606D02*
X1218388D01*
X1216563Y790756D02*
X1218388D01*
X1216563Y791206D02*
X1218388D01*
X1216563Y794356D02*
X1218388D01*
X1229863Y790106D02*
X1231688D01*
X1229863Y793256D02*
X1231688D01*
X1229863Y786606D02*
X1231688D01*
X1229863Y789756D02*
X1231688D01*
X1213826Y789998D02*
Y791823D01*
X1210676Y789998D02*
Y791823D01*
X1207133Y789998D02*
Y791823D01*
X1210283Y789998D02*
Y791823D01*
X1216563Y797956D02*
X1218388D01*
X1216563Y794806D02*
X1218388D01*
X1098950Y772269D02*
Y774094D01*
X1095801Y772269D02*
Y774094D01*
X1154600Y769783D02*
Y771608D01*
X1157750Y769783D02*
Y771608D01*
X1142063Y758206D02*
X1143888D01*
X1142063Y761356D02*
X1143888D01*
X1149450Y736669D02*
Y738494D01*
X1146301Y736669D02*
Y738494D01*
X1173950Y731269D02*
Y733094D01*
X1170801Y731269D02*
Y733094D01*
X1165607Y770361D02*
Y772186D01*
X1162457Y770361D02*
Y772186D01*
X1144163Y748656D02*
X1145988D01*
X1144163Y745506D02*
X1145988D01*
X1061750Y743169D02*
Y744994D01*
X1058601Y743169D02*
Y744994D01*
X1077650Y777569D02*
Y779394D01*
X1074501Y777569D02*
Y779394D01*
X1080814Y777546D02*
Y779371D01*
X1077664Y777546D02*
Y779371D01*
X1060265Y758478D02*
X1062090D01*
X1060265Y761627D02*
X1062090D01*
X1072054Y743146D02*
Y744971D01*
X1068904Y743146D02*
Y744971D01*
X1060263Y758256D02*
X1062088D01*
X1060263Y755106D02*
X1062088D01*
X1061063Y751656D02*
X1062888D01*
X1061063Y748506D02*
X1062888D01*
X1075597Y743146D02*
Y744971D01*
X1078747Y743146D02*
Y744971D01*
X1071141Y737366D02*
X1072966D01*
X1071141Y740515D02*
X1072966D01*
X1078747Y743146D02*
Y744971D01*
X1081896Y743146D02*
Y744971D01*
X1094911Y758183D02*
X1096736D01*
X1094911Y761332D02*
X1096736D01*
X1229550Y735869D02*
Y737694D01*
X1226401Y735869D02*
Y737694D01*
X1085863Y780256D02*
X1087688D01*
X1085863Y777106D02*
X1087688D01*
X1068263Y778156D02*
X1070088D01*
X1068263Y775006D02*
X1070088D01*
X1068263Y781556D02*
X1070088D01*
X1068263Y778406D02*
X1070088D01*
X1094911Y754344D02*
X1096736D01*
X1094911Y757494D02*
X1096736D01*
X1088835Y746345D02*
Y748170D01*
X1091985Y746345D02*
Y748170D01*
X1094911Y750505D02*
X1096736D01*
X1094911Y753655D02*
X1096736D01*
X1124734Y759659D02*
X1126559D01*
X1124734Y762809D02*
X1126559D01*
X1076899Y806313D02*
X1078724D01*
X1076899Y809462D02*
X1078724D01*
X1106722Y780919D02*
X1108547D01*
X1106722Y784068D02*
X1108547D01*
X1106722Y777474D02*
X1108547D01*
X1106722Y780624D02*
X1108547D01*
X1106698Y774087D02*
X1108523D01*
X1106698Y777237D02*
X1108523D01*
X1071450Y784369D02*
Y786194D01*
X1068301Y784369D02*
Y786194D01*
X1254250Y752469D02*
Y754294D01*
X1251101Y752469D02*
Y754294D01*
X1237645Y746691D02*
Y748516D01*
X1234495Y746691D02*
Y748516D01*
X1248678Y778628D02*
Y780453D01*
X1251828Y778628D02*
Y780453D01*
X1250056Y800676D02*
Y802501D01*
X1253205Y800676D02*
Y802501D01*
X1072918Y804943D02*
X1087288D01*
X1088666Y803564D01*
Y784077D02*
Y803564D01*
X1072918Y784077D02*
X1088666D01*
X1072918D02*
Y804943D01*
X1251276Y729081D02*
X1262476D01*
X1263476Y724381D02*
Y728081D01*
Y724381D02*
Y724381D01*
X1250276D02*
X1263476D01*
X1250276D02*
Y728081D01*
X1263476Y732481D02*
Y734881D01*
X1248476Y735881D02*
X1262476D01*
X1217376Y801781D02*
X1236576D01*
X1237576Y802781D02*
Y805281D01*
X1074276Y731581D02*
Y733881D01*
X1075276Y730581D02*
X1092476D01*
X1152176Y731081D02*
Y733581D01*
X1167576Y731081D02*
Y733581D01*
X1153176Y734581D02*
X1166576D01*
X1155176Y800281D02*
X1165676D01*
X1154176Y792181D02*
Y799281D01*
X1183063Y751056D02*
X1184888D01*
X1183063Y747906D02*
X1184888D01*
X1183063Y751106D02*
X1184888D01*
X1183063Y754256D02*
X1184888D01*
D45*
X1179776Y803681D02*
G03*
X1181876Y805781I0J2100D01*
G01*
X1116976D02*
G03*
X1119076Y803681I2100J0D01*
G01*
X1241525Y781757D02*
G03*
X1241525Y781757I-300J0D01*
G01*
X1116976Y816563D02*
X1181876D01*
Y816431D02*
Y816563D01*
Y816431D02*
X1181876D01*
Y805781D02*
Y816431D01*
X1116976Y805781D02*
Y816563D01*
X1119076Y803681D02*
X1179776D01*
X1103383Y757868D02*
X1118383D01*
X1103383Y772868D02*
X1118383D01*
D54*
X1123057Y737360D02*
G03*
X1123451Y737360I197J0D01*
G01*
D02*
G03*
X1123057Y737360I-197J0D01*
G01*
X1176307Y766701D02*
X1178276D01*
Y764733D02*
Y766701D01*
Y738501D02*
Y740470D01*
X1176307Y738501D02*
X1178276D01*
X1150076D02*
Y740470D01*
Y738501D02*
X1152044D01*
X1150076Y766701D02*
X1152044D01*
X1150076Y764733D02*
Y766701D01*
X1093001Y764431D02*
Y765931D01*
X1096151Y764431D02*
Y765931D01*
X1247926Y786856D02*
X1249426D01*
X1247926Y783706D02*
X1249426D01*
X1127880Y747694D02*
X1128471D01*
X1123876Y741481D02*
Y743056D01*
X1132476Y741481D02*
Y743056D01*
X1127880Y736868D02*
X1128471D01*
X1276749Y699502D02*
G03*
X1290528Y713281I0J13780D01*
G01*
X1034623Y712769D02*
G03*
X1047891Y699502I13268J0D01*
G01*
X1048995Y817730D02*
G03*
X1034623Y803358I0J-14372D01*
G01*
X1290528Y813564D02*
G03*
X1286362Y817730I-4166J0D01*
G01*
X1047891Y699502D02*
X1276749Y699502D01*
X1034623Y712769D02*
X1034623Y796470D01*
X1290528Y718006D02*
Y767631D01*
X1084591Y815466D02*
X1107961D01*
X1034623Y796470D02*
Y803358D01*
X1290528Y713281D02*
Y718006D01*
X1110224Y817730D02*
X1286362D01*
X1290528Y767631D02*
Y813564D01*
X1082327Y817730D02*
X1084591Y815466D01*
X1048995Y817730D02*
X1082327D01*
X1107961Y815466D02*
X1110224Y817730D01*
D97*
X1179363Y763401D02*
G03*
X1179363Y763401I-394J0D01*
G01*
X1253069Y797581D02*
G03*
X1253069Y797581I-394J0D01*
G01*
X1255269Y759081D02*
G03*
X1255269Y759081I-394J0D01*
G01*
X1088413Y752039D02*
Y753515D01*
Y771372D02*
Y773115D01*
X1086670D02*
X1088413D01*
X1067013D02*
X1068757D01*
X1067013Y771372D02*
Y773115D01*
Y751715D02*
X1068757D01*
X1067013D02*
Y753458D01*
X1061787Y703281D02*
X1263363D01*
X1061787Y723281D02*
X1263363D01*
X1061787Y703281D02*
Y723281D01*
X1263363Y703281D02*
Y723281D01*
D160*
X1087162Y751982D02*
G03*
X1087162Y751982I-492J0D01*
G01*
D161*
X1113228Y742511D02*
G03*
X1113228Y742511I-492J0D01*
G01*
D162*
X1122236Y730599D02*
Y742411D01*
X1113636Y740611D02*
X1113636Y730524D01*
M02*
