G04*
G04 #@! TF.GenerationSoftware,Altium Limited,CircuitStudio,1.5.2 (30)*
G04*
G04 Layer_Physical_Order=2*
G04 Layer_Color=16765976*
%FSLAX25Y25*%
%MOIN*%
G70*
G01*
G75*
%ADD44C,0.01400*%
%ADD46C,0.01600*%
%ADD47C,0.00600*%
%ADD48C,0.00800*%
%ADD50C,0.00400*%
%ADD54C,0.00500*%
%ADD58C,0.03819*%
%ADD59C,0.02362*%
%ADD60C,0.05906*%
%ADD62C,0.08000*%
%ADD63C,0.01600*%
%ADD64C,0.01000*%
%ADD65C,0.04000*%
%ADD66C,0.01800*%
%ADD67C,0.02600*%
G36*
X1048995Y817364D02*
X1082175D01*
X1082867Y816672D01*
X1083979Y815819D01*
X1084894Y815440D01*
X1085273Y815283D01*
X1086662Y815100D01*
X1105890D01*
X1107278Y815283D01*
X1108572Y815819D01*
X1109684Y816672D01*
X1110376Y817364D01*
X1286362D01*
X1286471Y817378D01*
X1287353Y817262D01*
X1288277Y816880D01*
X1289070Y816271D01*
X1289678Y815478D01*
X1290061Y814555D01*
X1290177Y813673D01*
X1290162Y813564D01*
Y713281D01*
X1290186Y713103D01*
X1290034Y711177D01*
X1289542Y709125D01*
X1288734Y707174D01*
X1287631Y705375D01*
X1286260Y703770D01*
X1284655Y702399D01*
X1282856Y701296D01*
X1280905Y700488D01*
X1278853Y699996D01*
X1276927Y699844D01*
X1276749Y699867D01*
X1047891Y699867D01*
X1047720Y699845D01*
X1045867Y699991D01*
X1043893Y700465D01*
X1042017Y701242D01*
X1040286Y702302D01*
X1038742Y703621D01*
X1037424Y705165D01*
X1036363Y706896D01*
X1035586Y708771D01*
X1035112Y710745D01*
X1034966Y712599D01*
X1034989Y712769D01*
X1034989Y796470D01*
Y803358D01*
X1034964Y803544D01*
X1035122Y805555D01*
X1035637Y807698D01*
X1036480Y809734D01*
X1037632Y811613D01*
X1039063Y813290D01*
X1040739Y814721D01*
X1042618Y815872D01*
X1044655Y816716D01*
X1046798Y817230D01*
X1048809Y817389D01*
X1048995Y817364D01*
D02*
G37*
%LPC*%
G36*
X1219876Y734523D02*
X1219439Y734436D01*
X1219068Y734189D01*
X1218821Y733818D01*
X1218734Y733381D01*
X1218821Y732944D01*
X1219068Y732574D01*
X1219439Y732326D01*
X1219876Y732239D01*
X1220313Y732326D01*
X1220683Y732574D01*
X1220931Y732944D01*
X1221017Y733381D01*
X1220931Y733818D01*
X1220683Y734189D01*
X1220313Y734436D01*
X1219876Y734523D01*
D02*
G37*
G36*
X1237476Y742528D02*
X1237156Y742464D01*
X1236884Y742283D01*
X1236703Y742012D01*
X1236654Y741764D01*
X1236403Y741513D01*
X1232176D01*
X1231934Y741465D01*
X1231729Y741328D01*
X1230603Y740203D01*
X1230356Y740154D01*
X1230084Y739972D01*
X1229903Y739701D01*
X1229840Y739381D01*
X1229872Y739219D01*
X1229631Y738811D01*
X1229531Y738719D01*
X1229367D01*
X1229122Y738617D01*
X1227831Y737326D01*
X1219332Y728827D01*
X1216566D01*
X1216414Y729327D01*
X1216483Y729374D01*
X1216731Y729744D01*
X1216817Y730181D01*
X1216731Y730618D01*
X1216483Y730989D01*
X1216113Y731236D01*
X1215676Y731323D01*
X1215239Y731236D01*
X1214868Y730989D01*
X1214783D01*
X1214413Y731236D01*
X1213976Y731323D01*
X1213539Y731236D01*
X1213168Y730989D01*
X1212921Y730618D01*
X1212834Y730181D01*
X1212921Y729744D01*
X1213168Y729374D01*
X1213237Y729327D01*
X1213085Y728827D01*
X1199934D01*
X1199932Y728827D01*
X1199929Y728827D01*
X1199810Y728776D01*
X1199689Y728726D01*
X1199688Y728724D01*
X1199686Y728723D01*
X1199337Y728364D01*
X1199336Y728362D01*
X1199334Y728361D01*
X1199287Y728239D01*
X1199239Y728118D01*
X1199240Y728116D01*
X1199239Y728113D01*
X1199265Y727181D01*
X1198917Y726823D01*
X1198249D01*
X1195667Y729404D01*
Y731561D01*
X1195580Y731998D01*
X1195333Y732369D01*
X1194962Y732616D01*
X1194525Y732703D01*
X1194088Y732616D01*
X1193718Y732369D01*
X1193470Y731998D01*
X1193384Y731561D01*
Y728931D01*
X1193470Y728494D01*
X1193718Y728124D01*
X1196968Y724874D01*
X1197339Y724626D01*
X1197776Y724539D01*
X1199665D01*
X1199676Y724535D01*
X1221093D01*
X1221187Y724573D01*
X1221286Y724593D01*
X1221305Y724623D01*
X1221338Y724636D01*
X1221377Y724729D01*
X1221433Y724814D01*
X1221447Y724883D01*
X1221618Y725139D01*
X1221874Y725310D01*
X1222176Y725370D01*
X1222477Y725310D01*
X1222791Y725101D01*
X1222874Y725084D01*
X1222949Y725044D01*
X1222949Y725044D01*
X1223040Y725035D01*
X1223057Y725040D01*
X1223074Y725033D01*
X1223182Y725078D01*
X1223294Y725112D01*
X1223294Y725112D01*
X1223302Y725128D01*
X1223319Y725135D01*
X1229663Y731479D01*
X1229677Y731512D01*
X1229706Y731532D01*
X1229834Y731722D01*
X1230025Y731850D01*
X1230045Y731880D01*
X1230078Y731893D01*
X1231219Y733035D01*
X1242767D01*
X1243012Y733136D01*
X1243113Y733381D01*
Y738372D01*
X1243012Y738617D01*
X1242767Y738719D01*
X1231820D01*
X1231720Y738811D01*
X1231479Y739219D01*
X1231497Y739309D01*
X1232437Y740249D01*
X1236665D01*
X1236907Y740297D01*
X1237112Y740434D01*
X1237548Y740870D01*
X1237796Y740920D01*
X1238067Y741101D01*
X1238248Y741372D01*
X1238312Y741692D01*
X1238248Y742012D01*
X1238067Y742283D01*
X1237796Y742464D01*
X1237476Y742528D01*
D02*
G37*
G36*
X1093811Y750532D02*
X1093374Y750446D01*
X1093003Y750198D01*
X1092756Y749827D01*
X1092669Y749391D01*
X1092756Y748953D01*
X1093003Y748583D01*
X1093248Y748420D01*
Y738146D01*
X1093413Y737748D01*
X1102478Y728683D01*
X1102478Y728683D01*
X1102876Y728518D01*
X1102876Y728518D01*
X1106433D01*
X1106884Y728221D01*
X1106971Y727784D01*
X1107218Y727414D01*
X1107589Y727166D01*
X1108026Y727079D01*
X1108463Y727166D01*
X1108833Y727414D01*
X1109081Y727784D01*
X1109167Y728221D01*
X1109081Y728658D01*
X1108833Y729029D01*
X1108463Y729276D01*
X1108026Y729363D01*
X1107737Y729306D01*
X1107564Y729479D01*
X1107166Y729644D01*
X1103109D01*
X1094374Y738379D01*
Y748420D01*
X1094618Y748583D01*
X1094866Y748953D01*
X1094953Y749391D01*
X1094866Y749827D01*
X1094618Y750198D01*
X1094248Y750446D01*
X1093811Y750532D01*
D02*
G37*
G36*
X1146476Y749123D02*
X1146039Y749036D01*
X1146026Y749027D01*
X1145876D01*
X1145631Y748926D01*
X1145529Y748681D01*
Y748581D01*
X1145421Y748418D01*
X1145334Y747981D01*
X1145421Y747544D01*
X1145587Y747295D01*
X1145631Y747190D01*
X1145984Y746836D01*
X1146229Y746735D01*
X1149432Y746735D01*
X1150700Y745467D01*
X1150733Y745453D01*
X1150753Y745424D01*
X1150774Y745410D01*
X1150788Y745389D01*
X1150817Y745369D01*
X1150831Y745336D01*
X1152046Y744121D01*
X1152350Y743817D01*
X1152361Y743807D01*
X1152375Y743794D01*
D01*
X1152530Y743382D01*
X1152534Y743281D01*
Y743281D01*
Y743281D01*
X1152534D01*
X1152621Y742844D01*
X1152630Y742829D01*
X1152868Y742474D01*
X1153224Y742236D01*
X1153239Y742226D01*
X1153676Y742139D01*
X1153676Y742139D01*
D01*
X1153676D01*
X1153748Y742136D01*
X1154188Y741981D01*
X1154202Y741966D01*
X1154211Y741956D01*
X1154515Y741651D01*
X1155631Y740536D01*
X1155876Y740435D01*
X1169829D01*
Y735581D01*
X1169931Y735336D01*
X1170176Y735235D01*
X1171439Y735235D01*
X1171476Y735227D01*
X1171513Y735235D01*
X1172322D01*
X1172567Y735336D01*
X1172921Y735690D01*
X1173022Y735935D01*
X1173022Y738435D01*
X1181076Y738435D01*
X1181320Y738536D01*
X1181422Y738781D01*
Y739131D01*
X1181431Y739144D01*
X1181518Y739581D01*
X1181431Y740018D01*
X1181422Y740031D01*
Y740483D01*
X1181320Y740728D01*
X1180967Y741081D01*
X1180722Y741183D01*
X1173376Y741182D01*
X1173022Y741536D01*
X1173022Y744380D01*
X1173001Y744431D01*
X1173005Y744487D01*
X1172952Y744549D01*
X1172921Y744625D01*
X1172869Y744646D01*
X1172833Y744689D01*
X1172333Y744944D01*
X1172284Y744947D01*
X1172243Y744975D01*
X1172157Y744957D01*
X1172069Y744965D01*
X1172031Y744933D01*
X1171983Y744923D01*
X1171877Y744852D01*
X1171576Y744792D01*
X1171274Y744852D01*
X1171018Y745023D01*
X1170918Y745174D01*
X1170888Y745193D01*
X1170874Y745226D01*
X1170781Y745265D01*
X1170697Y745321D01*
X1170662Y745314D01*
X1170630Y745328D01*
X1167588Y745328D01*
X1167555Y745314D01*
X1167520Y745321D01*
X1167449Y745273D01*
X1167391Y745262D01*
X1167077Y745052D01*
X1166776Y744992D01*
X1166474Y745052D01*
X1166160Y745262D01*
X1166102Y745273D01*
X1166031Y745321D01*
X1165996Y745314D01*
X1165963Y745328D01*
X1162633D01*
X1162540Y745289D01*
X1162440Y745269D01*
X1162236Y745132D01*
X1161934Y745072D01*
X1161632Y745132D01*
X1161427Y745269D01*
X1161328Y745289D01*
X1161235Y745328D01*
X1157788Y745328D01*
X1157755Y745314D01*
X1157721Y745321D01*
X1157650Y745273D01*
X1157591Y745262D01*
X1157277Y745052D01*
X1156976Y744992D01*
X1156674Y745052D01*
X1156361Y745262D01*
X1156302Y745273D01*
X1156231Y745321D01*
X1156196Y745314D01*
X1156163Y745328D01*
X1155719D01*
X1152122Y748926D01*
X1152122Y748926D01*
X1152122Y748926D01*
X1151999Y748977D01*
X1151877Y749027D01*
X1151877Y749027D01*
X1151877Y749027D01*
X1146926Y749027D01*
X1146913Y749036D01*
X1146476Y749123D01*
D02*
G37*
G36*
X1129576Y735723D02*
X1129139Y735636D01*
X1128768Y735389D01*
X1128521Y735018D01*
X1128434Y734581D01*
X1128521Y734144D01*
X1128768Y733774D01*
X1129139Y733526D01*
X1129576Y733439D01*
X1130013Y733526D01*
X1130383Y733774D01*
X1130631Y734144D01*
X1130717Y734581D01*
X1130631Y735018D01*
X1130383Y735389D01*
X1130013Y735636D01*
X1129576Y735723D01*
D02*
G37*
G36*
X1053016Y734620D02*
X1052579Y734533D01*
X1052209Y734285D01*
X1051961Y733915D01*
X1051875Y733478D01*
X1051961Y733041D01*
X1052209Y732670D01*
X1052579Y732423D01*
X1053016Y732336D01*
X1053454Y732423D01*
X1053824Y732670D01*
X1054072Y733041D01*
X1054158Y733478D01*
X1054072Y733915D01*
X1053824Y734285D01*
X1053454Y734533D01*
X1053016Y734620D01*
D02*
G37*
G36*
X1089890Y752839D02*
X1089452Y752752D01*
X1089082Y752505D01*
X1088834Y752134D01*
X1088748Y751697D01*
X1088834Y751260D01*
X1089082Y750890D01*
X1089446Y750647D01*
Y738148D01*
X1089610Y737750D01*
X1101044Y726317D01*
X1101442Y726152D01*
X1104153D01*
X1104316Y725908D01*
X1104687Y725660D01*
X1105124Y725573D01*
X1105561Y725660D01*
X1105931Y725908D01*
X1106179Y726278D01*
X1106266Y726715D01*
X1106179Y727152D01*
X1105931Y727522D01*
X1105561Y727770D01*
X1105124Y727857D01*
X1104687Y727770D01*
X1104316Y727522D01*
X1104153Y727278D01*
X1101675D01*
X1090571Y738381D01*
Y750806D01*
X1090697Y750890D01*
X1090945Y751260D01*
X1091031Y751697D01*
X1090945Y752134D01*
X1090697Y752505D01*
X1090326Y752752D01*
X1089890Y752839D01*
D02*
G37*
G36*
X1247576Y721582D02*
X1246721Y721470D01*
X1245925Y721140D01*
X1245241Y720615D01*
X1244717Y719932D01*
X1244387Y719136D01*
X1244275Y718281D01*
X1244387Y717427D01*
X1244717Y716631D01*
X1245241Y715947D01*
X1245925Y715422D01*
X1246721Y715093D01*
X1247576Y714980D01*
X1248430Y715093D01*
X1249226Y715422D01*
X1249910Y715947D01*
X1250434Y716631D01*
X1250764Y717427D01*
X1250877Y718281D01*
X1250764Y719136D01*
X1250434Y719932D01*
X1249910Y720615D01*
X1249226Y721140D01*
X1248430Y721470D01*
X1247576Y721582D01*
D02*
G37*
G36*
X1237576D02*
X1236721Y721470D01*
X1235925Y721140D01*
X1235241Y720615D01*
X1234717Y719932D01*
X1234387Y719136D01*
X1234275Y718281D01*
X1234387Y717427D01*
X1234717Y716631D01*
X1235241Y715947D01*
X1235925Y715422D01*
X1236721Y715093D01*
X1237576Y714980D01*
X1238430Y715093D01*
X1239226Y715422D01*
X1239910Y715947D01*
X1240434Y716631D01*
X1240764Y717427D01*
X1240877Y718281D01*
X1240764Y719136D01*
X1240434Y719932D01*
X1239910Y720615D01*
X1239226Y721140D01*
X1238430Y721470D01*
X1237576Y721582D01*
D02*
G37*
G36*
X1227576D02*
X1226721Y721470D01*
X1225925Y721140D01*
X1225241Y720615D01*
X1224717Y719932D01*
X1224387Y719136D01*
X1224275Y718281D01*
X1224387Y717427D01*
X1224717Y716631D01*
X1225241Y715947D01*
X1225925Y715422D01*
X1226721Y715093D01*
X1227576Y714980D01*
X1228430Y715093D01*
X1229226Y715422D01*
X1229910Y715947D01*
X1230434Y716631D01*
X1230764Y717427D01*
X1230877Y718281D01*
X1230764Y719136D01*
X1230434Y719932D01*
X1229910Y720615D01*
X1229226Y721140D01*
X1228430Y721470D01*
X1227576Y721582D01*
D02*
G37*
G36*
X1253276Y727323D02*
X1252839Y727236D01*
X1252468Y726989D01*
X1252221Y726618D01*
X1252134Y726181D01*
X1252221Y725744D01*
X1252468Y725374D01*
X1252839Y725126D01*
X1253276Y725039D01*
X1253713Y725126D01*
X1254083Y725374D01*
X1254331Y725744D01*
X1254418Y726181D01*
X1254331Y726618D01*
X1254083Y726989D01*
X1253713Y727236D01*
X1253276Y727323D01*
D02*
G37*
G36*
X1100576Y755823D02*
X1100139Y755736D01*
X1099768Y755489D01*
X1099521Y755118D01*
X1099434Y754681D01*
X1099521Y754244D01*
X1099768Y753874D01*
X1100013Y753710D01*
Y734381D01*
X1100178Y733983D01*
X1103578Y730583D01*
X1103976Y730418D01*
X1103976Y730418D01*
X1114542D01*
X1121913Y723048D01*
Y718352D01*
X1121668Y718189D01*
X1121421Y717818D01*
X1121334Y717381D01*
X1121421Y716944D01*
X1121668Y716574D01*
X1122039Y716326D01*
X1122476Y716239D01*
X1122913Y716326D01*
X1123283Y716574D01*
X1123531Y716944D01*
X1123617Y717381D01*
X1123531Y717818D01*
X1123283Y718189D01*
X1123038Y718352D01*
Y723281D01*
X1122874Y723679D01*
X1122874Y723679D01*
X1115174Y731379D01*
X1114776Y731544D01*
X1104209D01*
X1101138Y734614D01*
Y753710D01*
X1101383Y753874D01*
X1101631Y754244D01*
X1101717Y754681D01*
X1101631Y755118D01*
X1101383Y755489D01*
X1101013Y755736D01*
X1100576Y755823D01*
D02*
G37*
G36*
X1260848Y721554D02*
X1254303D01*
Y715008D01*
X1260848D01*
Y721554D01*
D02*
G37*
G36*
X1050376Y738423D02*
X1049939Y738336D01*
X1049568Y738089D01*
X1049321Y737718D01*
X1049234Y737281D01*
X1049321Y736844D01*
X1049568Y736474D01*
X1049939Y736226D01*
X1050376Y736139D01*
X1050813Y736226D01*
X1051183Y736474D01*
X1051431Y736844D01*
X1051517Y737281D01*
X1051431Y737718D01*
X1051183Y738089D01*
X1050813Y738336D01*
X1050376Y738423D01*
D02*
G37*
G36*
X1144376Y757523D02*
X1143939Y757436D01*
X1143568Y757189D01*
X1143321Y756818D01*
X1143303Y756728D01*
X1143276D01*
X1143031Y756626D01*
X1142929Y756381D01*
Y754927D01*
X1142929Y752235D01*
X1143031Y751990D01*
X1143384Y751636D01*
X1143629Y751535D01*
X1143877D01*
X1144184Y751035D01*
X1144134Y750781D01*
X1144221Y750344D01*
X1144468Y749974D01*
X1144839Y749726D01*
X1145276Y749639D01*
X1145713Y749726D01*
X1146083Y749974D01*
X1146331Y750344D01*
X1146418Y750781D01*
X1146355Y751094D01*
X1146334Y751285D01*
X1146353Y751636D01*
X1146391Y751729D01*
X1146447Y751814D01*
X1146512Y752139D01*
X1146683Y752395D01*
X1146939Y752566D01*
X1147241Y752626D01*
X1147543Y752566D01*
X1147771Y752414D01*
X1148029Y752019D01*
X1148029Y752018D01*
Y752018D01*
X1148046Y751965D01*
X1148049Y751953D01*
X1148049Y751953D01*
X1148092Y751930D01*
X1148124Y751886D01*
X1148208Y751869D01*
X1148208Y751869D01*
X1148283Y751829D01*
X1148283Y751829D01*
X1148283Y751829D01*
X1148455Y751812D01*
X1148455Y751812D01*
X1148466Y751816D01*
X1148480Y751811D01*
X1148501Y751819D01*
X1148501Y751819D01*
X1148593Y751855D01*
X1148709Y751890D01*
X1148709Y751890D01*
X1148715Y751902D01*
X1148727Y751907D01*
X1148855Y752029D01*
X1148873Y752070D01*
X1148909Y752096D01*
X1149126Y752444D01*
X1149146Y752570D01*
X1149171Y752695D01*
X1149144Y752828D01*
X1149181Y753013D01*
X1149286Y753169D01*
X1149442Y753274D01*
X1149627Y753311D01*
X1149812Y753274D01*
X1149969Y753169D01*
X1150074Y753013D01*
X1150110Y752828D01*
X1150074Y752643D01*
X1150027Y752573D01*
X1150020Y752540D01*
X1149996Y752516D01*
X1149995Y752414D01*
X1149975Y752314D01*
X1149994Y752285D01*
X1149994Y752251D01*
X1150181Y751789D01*
X1150224Y751746D01*
X1150244Y751689D01*
X1150278Y751650D01*
X1150288Y751646D01*
X1150292Y751636D01*
X1150360Y751608D01*
X1150367Y751601D01*
X1150378Y751601D01*
X1150406Y751589D01*
X1150517Y751535D01*
X1150527Y751539D01*
X1150536Y751535D01*
X1152132D01*
X1154431Y749236D01*
X1154676Y749135D01*
X1156093D01*
X1156126Y749148D01*
X1156161Y749141D01*
X1156245Y749197D01*
X1156338Y749236D01*
X1156351Y749269D01*
X1156381Y749289D01*
X1156388Y749299D01*
X1156644Y749470D01*
X1156946Y749530D01*
X1157247Y749470D01*
X1157503Y749299D01*
X1157510Y749289D01*
X1157540Y749269D01*
X1157553Y749236D01*
X1157647Y749197D01*
X1157731Y749141D01*
X1157765Y749148D01*
X1157798Y749135D01*
X1160849D01*
X1160943Y749173D01*
X1161042Y749193D01*
X1161061Y749223D01*
X1161094Y749236D01*
X1161133Y749330D01*
X1161140Y749340D01*
X1161149Y749346D01*
X1161358Y749659D01*
X1161614Y749830D01*
X1161916Y749890D01*
X1162217Y749830D01*
X1162473Y749659D01*
X1162683Y749346D01*
X1162691Y749340D01*
X1162698Y749330D01*
X1162737Y749236D01*
X1162770Y749223D01*
X1162790Y749193D01*
X1162889Y749173D01*
X1162982Y749135D01*
X1165621Y749135D01*
X1165654Y749148D01*
X1165689Y749141D01*
X1165773Y749197D01*
X1165866Y749236D01*
X1165880Y749269D01*
X1165909Y749289D01*
X1166114Y749595D01*
X1166370Y749766D01*
X1166672Y749826D01*
X1166974Y749766D01*
X1167230Y749595D01*
X1167435Y749289D01*
X1167464Y749269D01*
X1167478Y749236D01*
X1167571Y749197D01*
X1167655Y749141D01*
X1167690Y749148D01*
X1167723Y749135D01*
X1171023Y749135D01*
X1171117Y749173D01*
X1171216Y749193D01*
X1171245Y749213D01*
X1171547Y749273D01*
X1171849Y749213D01*
X1171879Y749193D01*
X1171978Y749173D01*
X1172071Y749135D01*
X1173132D01*
X1175973Y746294D01*
X1176218Y746192D01*
X1181853D01*
X1181855Y746193D01*
X1181857Y746192D01*
X1181978Y746244D01*
X1182098Y746294D01*
X1182099Y746296D01*
X1182101Y746297D01*
X1182451Y746654D01*
X1182451Y746656D01*
X1182453Y746657D01*
X1182476Y746715D01*
X1182533Y746754D01*
X1182781Y747124D01*
X1182868Y747561D01*
X1182781Y747998D01*
X1182533Y748369D01*
X1182515Y748381D01*
X1182509Y748624D01*
X1182457Y748742D01*
X1182407Y748861D01*
X1182403Y748863D01*
X1182402Y748867D01*
X1182282Y748913D01*
X1182163Y748962D01*
X1177384D01*
X1174621Y751726D01*
X1174376Y751827D01*
X1172242D01*
X1172149Y751789D01*
X1172049Y751769D01*
X1171809Y751608D01*
X1171507Y751548D01*
X1171205Y751608D01*
X1170964Y751769D01*
X1170865Y751789D01*
X1170772Y751827D01*
X1167371D01*
X1167278Y751789D01*
X1167179Y751769D01*
X1166938Y751608D01*
X1166636Y751548D01*
X1166334Y751608D01*
X1166093Y751769D01*
X1165994Y751789D01*
X1165901Y751827D01*
X1162669D01*
X1162576Y751789D01*
X1162477Y751769D01*
X1162236Y751608D01*
X1161934Y751548D01*
X1161632Y751608D01*
X1161391Y751769D01*
X1161292Y751789D01*
X1161199Y751827D01*
X1157629D01*
X1157536Y751789D01*
X1157437Y751769D01*
X1157196Y751608D01*
X1156894Y751548D01*
X1156592Y751608D01*
X1156351Y751769D01*
X1156252Y751789D01*
X1156159Y751827D01*
X1155519D01*
X1154220Y753126D01*
X1152174Y755172D01*
X1152173Y755173D01*
X1152172Y755174D01*
X1152051Y755224D01*
X1151929Y755274D01*
X1151928Y755273D01*
X1151927Y755274D01*
X1145877Y755232D01*
X1145522Y755585D01*
Y756381D01*
X1145513Y756402D01*
X1145431Y756818D01*
X1145183Y757189D01*
X1144813Y757436D01*
X1144376Y757523D01*
D02*
G37*
G36*
X1078747Y747169D02*
X1078310Y747082D01*
X1077939Y746835D01*
X1077692Y746464D01*
X1077605Y746027D01*
X1077692Y745590D01*
X1077939Y745220D01*
X1078310Y744972D01*
X1078747Y744885D01*
X1079184Y744972D01*
X1079554Y745220D01*
X1079802Y745590D01*
X1079889Y746027D01*
X1079802Y746464D01*
X1079554Y746835D01*
X1079184Y747082D01*
X1078747Y747169D01*
D02*
G37*
G36*
X1056552Y745250D02*
X1056115Y745163D01*
X1055744Y744915D01*
X1055497Y744545D01*
X1055410Y744108D01*
X1055497Y743671D01*
X1055744Y743300D01*
X1056115Y743053D01*
X1056552Y742966D01*
X1056989Y743053D01*
X1057359Y743300D01*
X1057607Y743671D01*
X1057694Y744108D01*
X1057607Y744545D01*
X1057359Y744915D01*
X1056989Y745163D01*
X1056552Y745250D01*
D02*
G37*
G36*
X1245644Y750369D02*
X1245208Y750282D01*
X1244837Y750035D01*
X1244590Y749664D01*
X1244503Y749227D01*
X1244590Y748790D01*
X1244837Y748420D01*
X1245208Y748172D01*
X1245644Y748085D01*
X1246082Y748172D01*
X1246452Y748420D01*
X1246700Y748790D01*
X1246786Y749227D01*
X1246700Y749664D01*
X1246452Y750035D01*
X1246082Y750282D01*
X1245644Y750369D01*
D02*
G37*
G36*
X1136666Y749383D02*
X1136229Y749296D01*
X1135858Y749049D01*
X1135611Y748678D01*
X1135524Y748241D01*
X1135411Y748104D01*
X1133636D01*
X1133238Y747939D01*
X1131778Y746479D01*
X1131613Y746081D01*
Y729705D01*
X1131778Y729307D01*
X1141324Y719761D01*
Y716746D01*
X1141489Y716348D01*
X1145053Y712783D01*
X1145451Y712618D01*
X1158805D01*
X1158968Y712374D01*
X1159339Y712126D01*
X1159776Y712039D01*
X1160213Y712126D01*
X1160583Y712374D01*
X1160831Y712744D01*
X1160917Y713181D01*
X1160831Y713618D01*
X1160583Y713989D01*
X1160213Y714236D01*
X1159776Y714323D01*
X1159339Y714236D01*
X1158968Y713989D01*
X1158805Y713744D01*
X1145684D01*
X1142449Y716979D01*
Y719994D01*
X1142449Y719994D01*
X1142285Y720392D01*
X1132738Y729938D01*
Y745352D01*
X1132742Y745362D01*
X1132800Y745398D01*
X1133321Y745344D01*
X1133568Y744974D01*
X1133939Y744726D01*
X1134376Y744639D01*
X1134813Y744726D01*
X1135183Y744974D01*
X1135431Y745344D01*
X1135518Y745781D01*
X1135431Y746218D01*
X1135257Y746478D01*
X1135391Y746863D01*
X1135478Y746978D01*
X1135966D01*
X1136364Y747143D01*
X1136377Y747156D01*
X1136666Y747099D01*
X1137103Y747186D01*
X1137473Y747434D01*
X1137721Y747804D01*
X1137807Y748241D01*
X1137721Y748678D01*
X1137473Y749049D01*
X1137103Y749296D01*
X1136666Y749383D01*
D02*
G37*
G36*
X1252676Y750312D02*
X1252051Y750188D01*
X1251522Y749835D01*
X1251168Y749305D01*
X1251044Y748681D01*
X1251168Y748057D01*
X1251522Y747528D01*
X1252051Y747174D01*
X1252676Y747050D01*
X1253300Y747174D01*
X1253829Y747528D01*
X1254183Y748057D01*
X1254307Y748681D01*
X1254183Y749305D01*
X1253829Y749835D01*
X1253300Y750188D01*
X1252676Y750312D01*
D02*
G37*
G36*
X1050548Y744462D02*
X1050111Y744375D01*
X1049741Y744128D01*
X1049493Y743757D01*
X1049406Y743320D01*
X1049493Y742883D01*
X1049741Y742513D01*
X1050111Y742265D01*
X1050548Y742178D01*
X1050985Y742265D01*
X1051355Y742513D01*
X1051603Y742883D01*
X1051690Y743320D01*
X1051603Y743757D01*
X1051355Y744128D01*
X1050985Y744375D01*
X1050548Y744462D01*
D02*
G37*
G36*
X1188276Y740523D02*
X1187839Y740436D01*
X1187468Y740189D01*
X1187221Y739818D01*
X1187134Y739381D01*
X1187221Y738944D01*
X1187468Y738574D01*
X1187839Y738326D01*
X1188276Y738239D01*
X1188713Y738326D01*
X1189083Y738574D01*
X1189331Y738944D01*
X1189417Y739381D01*
X1189331Y739818D01*
X1189083Y740189D01*
X1188713Y740436D01*
X1188276Y740523D01*
D02*
G37*
G36*
X1214165Y747681D02*
X1213728Y747594D01*
X1213357Y747346D01*
X1213110Y746976D01*
X1213023Y746539D01*
X1213110Y746102D01*
X1213357Y745731D01*
X1213728Y745484D01*
X1214165Y745397D01*
X1214453Y745454D01*
X1216413Y743494D01*
Y739014D01*
X1215042Y737644D01*
X1210609D01*
X1209704Y738549D01*
X1209306Y738714D01*
X1196146D01*
X1195748Y738549D01*
X1187588Y730389D01*
X1187423Y729991D01*
Y721562D01*
X1186721Y721470D01*
X1185925Y721140D01*
X1185241Y720615D01*
X1184717Y719932D01*
X1184387Y719136D01*
X1184275Y718281D01*
X1184387Y717427D01*
X1184717Y716631D01*
X1185241Y715947D01*
X1185925Y715422D01*
X1186721Y715093D01*
X1187576Y714980D01*
X1188430Y715093D01*
X1189226Y715422D01*
X1189910Y715947D01*
X1190434Y716631D01*
X1190764Y717427D01*
X1190877Y718281D01*
X1190764Y719136D01*
X1190434Y719932D01*
X1189910Y720615D01*
X1189226Y721140D01*
X1188548Y721421D01*
Y729758D01*
X1196379Y737588D01*
X1209072D01*
X1209978Y736683D01*
X1210376Y736518D01*
X1212653D01*
X1212921Y736018D01*
X1212921Y736018D01*
X1212834Y735581D01*
X1212921Y735144D01*
X1213168Y734774D01*
X1213539Y734526D01*
X1213976Y734439D01*
X1214413Y734526D01*
X1214783Y734774D01*
X1214868D01*
X1215239Y734526D01*
X1215676Y734439D01*
X1216113Y734526D01*
X1216483Y734774D01*
X1216731Y735144D01*
X1216817Y735581D01*
X1216731Y736018D01*
X1216483Y736389D01*
X1216245Y736548D01*
X1216100Y737110D01*
X1217374Y738383D01*
X1217538Y738781D01*
Y743727D01*
X1217374Y744126D01*
X1215249Y746250D01*
X1215306Y746539D01*
X1215220Y746976D01*
X1214972Y747346D01*
X1214602Y747594D01*
X1214165Y747681D01*
D02*
G37*
G36*
X1066416Y738756D02*
X1065979Y738669D01*
X1065608Y738421D01*
X1065361Y738051D01*
X1065274Y737614D01*
X1065361Y737177D01*
X1065608Y736806D01*
X1065979Y736559D01*
X1066416Y736472D01*
X1066853Y736559D01*
X1067223Y736806D01*
X1067471Y737177D01*
X1067558Y737614D01*
X1067471Y738051D01*
X1067223Y738421D01*
X1066853Y738669D01*
X1066416Y738756D01*
D02*
G37*
G36*
X1213377Y743896D02*
X1212753Y743772D01*
X1212224Y743418D01*
X1211870Y742889D01*
X1211825Y742662D01*
X1195130D01*
X1194720Y742580D01*
X1194373Y742348D01*
X1184445Y732420D01*
X1184212Y732072D01*
X1184131Y731663D01*
Y724150D01*
X1181916Y721936D01*
X1181684Y721588D01*
X1181603Y721179D01*
Y715422D01*
X1180026Y713845D01*
X1179384D01*
X1179328Y713928D01*
X1178799Y714282D01*
X1178175Y714406D01*
X1177550Y714282D01*
X1177021Y713928D01*
X1176667Y713399D01*
X1176543Y712775D01*
X1176667Y712151D01*
X1176780Y711982D01*
X1176762Y711822D01*
X1176565Y711405D01*
X1175925Y711140D01*
X1175241Y710615D01*
X1174717Y709932D01*
X1174387Y709135D01*
X1174275Y708281D01*
X1174387Y707427D01*
X1174717Y706631D01*
X1175241Y705947D01*
X1175925Y705422D01*
X1176721Y705093D01*
X1177576Y704980D01*
X1178430Y705093D01*
X1179226Y705422D01*
X1179910Y705947D01*
X1180434Y706631D01*
X1180764Y707427D01*
X1180877Y708281D01*
X1180855Y708442D01*
X1181185Y708818D01*
X1181696D01*
X1182094Y708983D01*
X1185652Y712541D01*
X1189958D01*
X1190356Y712706D01*
X1193514Y715863D01*
X1193678Y716261D01*
Y721360D01*
X1193923Y721524D01*
X1194171Y721894D01*
X1194258Y722331D01*
X1194171Y722768D01*
X1193923Y723139D01*
X1193553Y723386D01*
X1193116Y723473D01*
X1192679Y723386D01*
X1192308Y723139D01*
X1192061Y722768D01*
X1191974Y722331D01*
X1192061Y721894D01*
X1192308Y721524D01*
X1192553Y721360D01*
Y716494D01*
X1189725Y713667D01*
X1185418D01*
X1185418Y713667D01*
X1185020Y713502D01*
X1181462Y709944D01*
X1180425D01*
X1179910Y710615D01*
X1179611Y710845D01*
X1179547Y711467D01*
X1179752Y711704D01*
X1180469D01*
X1180879Y711786D01*
X1181226Y712018D01*
X1183430Y714222D01*
X1183662Y714569D01*
X1183744Y714979D01*
Y720735D01*
X1185958Y722950D01*
X1186191Y723297D01*
X1186272Y723707D01*
X1186272Y723707D01*
Y731219D01*
X1195573Y740520D01*
X1212704D01*
X1213113Y740602D01*
X1213210Y740666D01*
X1213377Y740633D01*
X1214001Y740757D01*
X1214531Y741111D01*
X1214884Y741640D01*
X1215009Y742264D01*
X1214884Y742889D01*
X1214531Y743418D01*
X1214001Y743772D01*
X1213377Y743896D01*
D02*
G37*
G36*
X1145829Y740598D02*
X1145829Y740598D01*
X1145829Y740598D01*
X1145703Y740546D01*
X1145584Y740497D01*
X1145584Y740497D01*
X1145584Y740497D01*
X1145383Y740295D01*
X1145268Y740219D01*
X1145021Y739848D01*
X1144934Y739411D01*
X1145021Y738974D01*
X1145129Y738811D01*
X1145129Y731509D01*
X1145129Y727864D01*
X1145231Y727619D01*
X1145476Y727518D01*
X1158290Y727518D01*
X1158383Y727556D01*
X1158482Y727576D01*
X1158502Y727605D01*
X1158535Y727619D01*
X1158574Y727712D01*
X1158630Y727797D01*
X1158647Y727883D01*
X1158818Y728139D01*
X1159074Y728310D01*
X1159376Y728370D01*
X1159677Y728310D01*
X1159933Y728139D01*
X1160104Y727883D01*
X1160122Y727797D01*
X1160178Y727712D01*
X1160216Y727619D01*
X1160249Y727606D01*
X1160269Y727576D01*
X1160368Y727556D01*
X1160461Y727518D01*
X1169449Y727518D01*
X1171703Y725264D01*
X1171948Y725163D01*
X1174371D01*
X1174465Y725201D01*
X1174564Y725221D01*
X1174754Y725348D01*
X1175056Y725409D01*
X1175358Y725348D01*
X1175548Y725221D01*
X1175647Y725201D01*
X1175741Y725163D01*
X1182316Y725163D01*
X1182317D01*
X1182439Y725213D01*
X1182561Y725264D01*
X1183057Y725758D01*
X1183057Y725758D01*
X1183058Y725758D01*
X1183108Y725880D01*
X1183159Y726002D01*
X1183159Y726003D01*
X1183159Y726003D01*
X1183159Y727864D01*
X1183058Y728109D01*
X1182813Y728210D01*
X1182039D01*
X1181976Y728223D01*
X1181912Y728210D01*
X1180239D01*
X1180176Y728223D01*
X1180112Y728210D01*
X1174736Y728210D01*
X1167722Y735224D01*
X1167722Y737781D01*
X1167620Y738026D01*
X1167376Y738128D01*
X1163718Y738127D01*
X1163473Y738026D01*
X1163372Y737781D01*
Y736053D01*
X1163362Y736038D01*
X1163298Y735718D01*
X1163362Y735398D01*
X1163372Y735384D01*
X1163371Y732895D01*
X1163410Y732801D01*
X1163430Y732702D01*
X1163459Y732683D01*
X1163473Y732650D01*
X1163566Y732611D01*
X1163650Y732555D01*
X1163877Y732510D01*
X1164133Y732339D01*
X1164304Y732083D01*
X1164364Y731781D01*
X1164304Y731479D01*
X1164133Y731223D01*
X1163877Y731052D01*
X1163576Y730992D01*
X1163274Y731052D01*
X1163018Y731223D01*
X1162847Y731479D01*
X1162827Y731577D01*
X1162771Y731661D01*
X1162733Y731754D01*
X1162700Y731768D01*
X1162680Y731797D01*
X1162581Y731817D01*
X1162488Y731856D01*
X1157229Y731856D01*
X1156645D01*
X1156525Y731936D01*
X1156205Y732000D01*
X1155885Y731936D01*
X1155765Y731856D01*
X1148823D01*
X1148812Y740251D01*
X1148761Y740374D01*
X1148711Y740496D01*
X1148711Y740496D01*
X1148711Y740496D01*
X1148589Y740546D01*
X1148466Y740597D01*
X1145829Y740598D01*
D02*
G37*
G36*
X1247376Y742823D02*
X1246939Y742736D01*
X1246568Y742489D01*
X1246321Y742118D01*
X1246234Y741681D01*
X1246321Y741244D01*
X1246568Y740874D01*
X1246939Y740626D01*
X1247376Y740539D01*
X1247813Y740626D01*
X1248183Y740874D01*
X1248431Y741244D01*
X1248518Y741681D01*
X1248431Y742118D01*
X1248183Y742489D01*
X1247813Y742736D01*
X1247376Y742823D01*
D02*
G37*
G36*
X1207576Y711582D02*
X1206721Y711470D01*
X1205925Y711140D01*
X1205241Y710615D01*
X1204717Y709932D01*
X1204387Y709135D01*
X1204275Y708281D01*
X1204387Y707427D01*
X1204717Y706631D01*
X1205241Y705947D01*
X1205925Y705422D01*
X1206721Y705093D01*
X1207576Y704980D01*
X1208430Y705093D01*
X1209226Y705422D01*
X1209910Y705947D01*
X1210434Y706631D01*
X1210764Y707427D01*
X1210877Y708281D01*
X1210764Y709135D01*
X1210434Y709932D01*
X1209910Y710615D01*
X1209226Y711140D01*
X1208430Y711470D01*
X1207576Y711582D01*
D02*
G37*
G36*
X1187576D02*
X1186721Y711470D01*
X1185925Y711140D01*
X1185241Y710615D01*
X1184717Y709932D01*
X1184387Y709135D01*
X1184275Y708281D01*
X1184387Y707427D01*
X1184717Y706631D01*
X1185241Y705947D01*
X1185925Y705422D01*
X1186721Y705093D01*
X1187576Y704980D01*
X1188430Y705093D01*
X1189226Y705422D01*
X1189910Y705947D01*
X1190434Y706631D01*
X1190764Y707427D01*
X1190877Y708281D01*
X1190764Y709135D01*
X1190434Y709932D01*
X1189910Y710615D01*
X1189226Y711140D01*
X1188430Y711470D01*
X1187576Y711582D01*
D02*
G37*
G36*
X1157576D02*
X1156721Y711470D01*
X1155925Y711140D01*
X1155241Y710615D01*
X1154717Y709932D01*
X1154387Y709135D01*
X1154275Y708281D01*
X1154387Y707427D01*
X1154717Y706631D01*
X1155241Y705947D01*
X1155925Y705422D01*
X1156721Y705093D01*
X1157576Y704980D01*
X1158430Y705093D01*
X1159226Y705422D01*
X1159910Y705947D01*
X1160434Y706631D01*
X1160764Y707427D01*
X1160877Y708281D01*
X1160764Y709135D01*
X1160434Y709932D01*
X1159910Y710615D01*
X1159226Y711140D01*
X1158430Y711470D01*
X1157576Y711582D01*
D02*
G37*
G36*
X1247576D02*
X1246721Y711470D01*
X1245925Y711140D01*
X1245241Y710615D01*
X1244717Y709932D01*
X1244387Y709135D01*
X1244275Y708281D01*
X1244387Y707427D01*
X1244717Y706631D01*
X1245241Y705947D01*
X1245925Y705422D01*
X1246721Y705093D01*
X1247576Y704980D01*
X1248430Y705093D01*
X1249226Y705422D01*
X1249910Y705947D01*
X1250434Y706631D01*
X1250764Y707427D01*
X1250877Y708281D01*
X1250764Y709135D01*
X1250434Y709932D01*
X1249910Y710615D01*
X1249226Y711140D01*
X1248430Y711470D01*
X1247576Y711582D01*
D02*
G37*
G36*
X1227576D02*
X1226721Y711470D01*
X1225925Y711140D01*
X1225241Y710615D01*
X1224717Y709932D01*
X1224387Y709135D01*
X1224275Y708281D01*
X1224387Y707427D01*
X1224717Y706631D01*
X1225241Y705947D01*
X1225925Y705422D01*
X1226721Y705093D01*
X1227576Y704980D01*
X1228430Y705093D01*
X1229226Y705422D01*
X1229910Y705947D01*
X1230434Y706631D01*
X1230764Y707427D01*
X1230877Y708281D01*
X1230764Y709135D01*
X1230434Y709932D01*
X1229910Y710615D01*
X1229226Y711140D01*
X1228430Y711470D01*
X1227576Y711582D01*
D02*
G37*
G36*
X1217576D02*
X1216721Y711470D01*
X1215925Y711140D01*
X1215241Y710615D01*
X1214717Y709932D01*
X1214387Y709135D01*
X1214275Y708281D01*
X1214387Y707427D01*
X1214717Y706631D01*
X1215241Y705947D01*
X1215925Y705422D01*
X1216721Y705093D01*
X1217576Y704980D01*
X1218430Y705093D01*
X1219226Y705422D01*
X1219910Y705947D01*
X1220434Y706631D01*
X1220764Y707427D01*
X1220877Y708281D01*
X1220764Y709135D01*
X1220434Y709932D01*
X1219910Y710615D01*
X1219226Y711140D01*
X1218430Y711470D01*
X1217576Y711582D01*
D02*
G37*
G36*
X1147576D02*
X1146721Y711470D01*
X1145925Y711140D01*
X1145241Y710615D01*
X1144717Y709932D01*
X1144387Y709135D01*
X1144275Y708281D01*
X1144387Y707427D01*
X1144717Y706631D01*
X1145241Y705947D01*
X1145925Y705422D01*
X1146721Y705093D01*
X1147576Y704980D01*
X1148430Y705093D01*
X1149226Y705422D01*
X1149910Y705947D01*
X1150434Y706631D01*
X1150764Y707427D01*
X1150877Y708281D01*
X1150764Y709135D01*
X1150434Y709932D01*
X1149910Y710615D01*
X1149226Y711140D01*
X1148430Y711470D01*
X1147576Y711582D01*
D02*
G37*
G36*
X1067576D02*
X1066721Y711470D01*
X1065925Y711140D01*
X1065241Y710615D01*
X1064717Y709932D01*
X1064387Y709135D01*
X1064275Y708281D01*
X1064387Y707427D01*
X1064717Y706631D01*
X1065241Y705947D01*
X1065925Y705422D01*
X1066721Y705093D01*
X1067576Y704980D01*
X1068430Y705093D01*
X1069226Y705422D01*
X1069910Y705947D01*
X1070434Y706631D01*
X1070764Y707427D01*
X1070877Y708281D01*
X1070764Y709135D01*
X1070434Y709932D01*
X1069910Y710615D01*
X1069226Y711140D01*
X1068430Y711470D01*
X1067576Y711582D01*
D02*
G37*
G36*
X1276749Y724636D02*
X1274973Y724496D01*
X1273240Y724080D01*
X1271594Y723398D01*
X1270074Y722468D01*
X1268720Y721310D01*
X1267562Y719955D01*
X1266631Y718436D01*
X1265950Y716790D01*
X1265534Y715057D01*
X1265394Y713281D01*
X1265534Y711505D01*
X1265950Y709772D01*
X1266631Y708126D01*
X1267562Y706607D01*
X1268720Y705252D01*
X1270074Y704095D01*
X1271594Y703164D01*
X1273240Y702482D01*
X1274973Y702066D01*
X1276749Y701926D01*
X1278525Y702066D01*
X1280258Y702482D01*
X1281904Y703164D01*
X1283423Y704095D01*
X1284778Y705252D01*
X1285935Y706607D01*
X1286866Y708126D01*
X1287548Y709772D01*
X1287964Y711505D01*
X1288104Y713281D01*
X1287964Y715057D01*
X1287548Y716790D01*
X1286866Y718436D01*
X1285935Y719955D01*
X1284778Y721310D01*
X1283423Y722468D01*
X1281904Y723398D01*
X1280258Y724080D01*
X1278525Y724496D01*
X1276749Y724636D01*
D02*
G37*
G36*
X1048402Y724636D02*
X1046626Y724496D01*
X1044893Y724080D01*
X1043247Y723398D01*
X1041728Y722468D01*
X1040373Y721310D01*
X1039216Y719955D01*
X1038285Y718436D01*
X1037603Y716790D01*
X1037187Y715057D01*
X1037047Y713281D01*
X1037187Y711505D01*
X1037603Y709772D01*
X1038285Y708126D01*
X1039216Y706607D01*
X1040373Y705252D01*
X1041728Y704095D01*
X1043247Y703164D01*
X1044893Y702482D01*
X1046626Y702066D01*
X1048402Y701926D01*
X1050179Y702066D01*
X1051911Y702482D01*
X1053557Y703164D01*
X1055077Y704095D01*
X1056432Y705252D01*
X1057589Y706607D01*
X1058520Y708126D01*
X1059202Y709772D01*
X1059618Y711505D01*
X1059757Y713281D01*
X1059618Y715057D01*
X1059202Y716790D01*
X1058520Y718436D01*
X1057589Y719955D01*
X1056432Y721310D01*
X1055077Y722468D01*
X1053557Y723398D01*
X1051911Y724080D01*
X1050179Y724496D01*
X1048402Y724636D01*
D02*
G37*
G36*
X1137576Y711582D02*
X1136721Y711470D01*
X1135925Y711140D01*
X1135241Y710615D01*
X1134717Y709932D01*
X1134387Y709135D01*
X1134275Y708281D01*
X1134387Y707427D01*
X1134717Y706631D01*
X1135241Y705947D01*
X1135925Y705422D01*
X1136721Y705093D01*
X1137576Y704980D01*
X1138430Y705093D01*
X1139226Y705422D01*
X1139910Y705947D01*
X1140434Y706631D01*
X1140764Y707427D01*
X1140877Y708281D01*
X1140764Y709135D01*
X1140434Y709932D01*
X1139910Y710615D01*
X1139226Y711140D01*
X1138430Y711470D01*
X1137576Y711582D01*
D02*
G37*
G36*
X1107576D02*
X1106721Y711470D01*
X1105925Y711140D01*
X1105241Y710615D01*
X1104717Y709932D01*
X1104387Y709135D01*
X1104275Y708281D01*
X1104387Y707427D01*
X1104717Y706631D01*
X1105241Y705947D01*
X1105925Y705422D01*
X1106721Y705093D01*
X1107576Y704980D01*
X1108430Y705093D01*
X1109226Y705422D01*
X1109910Y705947D01*
X1110434Y706631D01*
X1110764Y707427D01*
X1110877Y708281D01*
X1110764Y709135D01*
X1110434Y709932D01*
X1109910Y710615D01*
X1109226Y711140D01*
X1108430Y711470D01*
X1107576Y711582D01*
D02*
G37*
G36*
X1077576D02*
X1076721Y711470D01*
X1075925Y711140D01*
X1075241Y710615D01*
X1074717Y709932D01*
X1074387Y709135D01*
X1074275Y708281D01*
X1074387Y707427D01*
X1074717Y706631D01*
X1075241Y705947D01*
X1075925Y705422D01*
X1076721Y705093D01*
X1077576Y704980D01*
X1078430Y705093D01*
X1079226Y705422D01*
X1079910Y705947D01*
X1080434Y706631D01*
X1080764Y707427D01*
X1080877Y708281D01*
X1080764Y709135D01*
X1080434Y709932D01*
X1079910Y710615D01*
X1079226Y711140D01*
X1078430Y711470D01*
X1077576Y711582D01*
D02*
G37*
G36*
X1257576D02*
X1256721Y711470D01*
X1255925Y711140D01*
X1255241Y710615D01*
X1254717Y709932D01*
X1254387Y709135D01*
X1254275Y708281D01*
X1254387Y707427D01*
X1254717Y706631D01*
X1255241Y705947D01*
X1255925Y705422D01*
X1256721Y705093D01*
X1257576Y704980D01*
X1258430Y705093D01*
X1259226Y705422D01*
X1259910Y705947D01*
X1260434Y706631D01*
X1260764Y707427D01*
X1260877Y708281D01*
X1260764Y709135D01*
X1260434Y709932D01*
X1259910Y710615D01*
X1259226Y711140D01*
X1258430Y711470D01*
X1257576Y711582D01*
D02*
G37*
G36*
X1167576Y721582D02*
X1166721Y721470D01*
X1165925Y721140D01*
X1165241Y720615D01*
X1164717Y719932D01*
X1164387Y719136D01*
X1164275Y718281D01*
X1164387Y717427D01*
X1164717Y716631D01*
X1165241Y715947D01*
X1165925Y715422D01*
X1166721Y715093D01*
X1167576Y714980D01*
X1168430Y715093D01*
X1169226Y715422D01*
X1169910Y715947D01*
X1170434Y716631D01*
X1170764Y717427D01*
X1170877Y718281D01*
X1170764Y719136D01*
X1170434Y719932D01*
X1169910Y720615D01*
X1169226Y721140D01*
X1168430Y721470D01*
X1167576Y721582D01*
D02*
G37*
G36*
X1157576D02*
X1156721Y721470D01*
X1155925Y721140D01*
X1155241Y720615D01*
X1154717Y719932D01*
X1154387Y719136D01*
X1154275Y718281D01*
X1154387Y717427D01*
X1154717Y716631D01*
X1155241Y715947D01*
X1155925Y715422D01*
X1156721Y715093D01*
X1157576Y714980D01*
X1158430Y715093D01*
X1159226Y715422D01*
X1159910Y715947D01*
X1160434Y716631D01*
X1160764Y717427D01*
X1160877Y718281D01*
X1160764Y719136D01*
X1160434Y719932D01*
X1159910Y720615D01*
X1159226Y721140D01*
X1158430Y721470D01*
X1157576Y721582D01*
D02*
G37*
G36*
X1147576D02*
X1146721Y721470D01*
X1145925Y721140D01*
X1145241Y720615D01*
X1144717Y719932D01*
X1144387Y719136D01*
X1144275Y718281D01*
X1144387Y717427D01*
X1144717Y716631D01*
X1145241Y715947D01*
X1145925Y715422D01*
X1146721Y715093D01*
X1147576Y714980D01*
X1148430Y715093D01*
X1149226Y715422D01*
X1149910Y715947D01*
X1150434Y716631D01*
X1150764Y717427D01*
X1150877Y718281D01*
X1150764Y719136D01*
X1150434Y719932D01*
X1149910Y720615D01*
X1149226Y721140D01*
X1148430Y721470D01*
X1147576Y721582D01*
D02*
G37*
G36*
X1207576D02*
X1206721Y721470D01*
X1205925Y721140D01*
X1205241Y720615D01*
X1204717Y719932D01*
X1204387Y719136D01*
X1204275Y718281D01*
X1204387Y717427D01*
X1204717Y716631D01*
X1205241Y715947D01*
X1205925Y715422D01*
X1206721Y715093D01*
X1207576Y714980D01*
X1208430Y715093D01*
X1209226Y715422D01*
X1209910Y715947D01*
X1210434Y716631D01*
X1210764Y717427D01*
X1210877Y718281D01*
X1210764Y719136D01*
X1210434Y719932D01*
X1209910Y720615D01*
X1209226Y721140D01*
X1208430Y721470D01*
X1207576Y721582D01*
D02*
G37*
G36*
X1197576D02*
X1196721Y721470D01*
X1195925Y721140D01*
X1195241Y720615D01*
X1194717Y719932D01*
X1194387Y719136D01*
X1194275Y718281D01*
X1194387Y717427D01*
X1194717Y716631D01*
X1195241Y715947D01*
X1195925Y715422D01*
X1196721Y715093D01*
X1197576Y714980D01*
X1198430Y715093D01*
X1199226Y715422D01*
X1199910Y715947D01*
X1200434Y716631D01*
X1200764Y717427D01*
X1200877Y718281D01*
X1200764Y719136D01*
X1200434Y719932D01*
X1199910Y720615D01*
X1199226Y721140D01*
X1198430Y721470D01*
X1197576Y721582D01*
D02*
G37*
G36*
X1177576D02*
X1176721Y721470D01*
X1175925Y721140D01*
X1175241Y720615D01*
X1174717Y719932D01*
X1174387Y719136D01*
X1174275Y718281D01*
X1174387Y717427D01*
X1174717Y716631D01*
X1175241Y715947D01*
X1175925Y715422D01*
X1176721Y715093D01*
X1177576Y714980D01*
X1178430Y715093D01*
X1179226Y715422D01*
X1179910Y715947D01*
X1180434Y716631D01*
X1180764Y717427D01*
X1180877Y718281D01*
X1180764Y719136D01*
X1180434Y719932D01*
X1179910Y720615D01*
X1179226Y721140D01*
X1178430Y721470D01*
X1177576Y721582D01*
D02*
G37*
G36*
X1123976Y730723D02*
X1123539Y730636D01*
X1123168Y730389D01*
X1122921Y730018D01*
X1122834Y729581D01*
X1122921Y729144D01*
X1123168Y728774D01*
X1123413Y728610D01*
Y727681D01*
X1123578Y727283D01*
X1127013Y723848D01*
Y721508D01*
X1126721Y721470D01*
X1125925Y721140D01*
X1125241Y720615D01*
X1124717Y719932D01*
X1124387Y719136D01*
X1124275Y718281D01*
X1124387Y717427D01*
X1124717Y716631D01*
X1125241Y715947D01*
X1125925Y715422D01*
X1126721Y715093D01*
X1127576Y714980D01*
X1128430Y715093D01*
X1129226Y715422D01*
X1129910Y715947D01*
X1130434Y716631D01*
X1130764Y717427D01*
X1130877Y718281D01*
X1130764Y719136D01*
X1130434Y719932D01*
X1129910Y720615D01*
X1129226Y721140D01*
X1128430Y721470D01*
X1128138Y721508D01*
Y724081D01*
X1127974Y724479D01*
X1124538Y727914D01*
Y728610D01*
X1124783Y728774D01*
X1125031Y729144D01*
X1125117Y729581D01*
X1125031Y730018D01*
X1124783Y730389D01*
X1124413Y730636D01*
X1123976Y730723D01*
D02*
G37*
G36*
X1087576Y721582D02*
X1086721Y721470D01*
X1085925Y721140D01*
X1085241Y720615D01*
X1084717Y719932D01*
X1084387Y719136D01*
X1084275Y718281D01*
X1084387Y717427D01*
X1084717Y716631D01*
X1085241Y715947D01*
X1085925Y715422D01*
X1086721Y715093D01*
X1087576Y714980D01*
X1088430Y715093D01*
X1089226Y715422D01*
X1089910Y715947D01*
X1090434Y716631D01*
X1090764Y717427D01*
X1090877Y718281D01*
X1090764Y719136D01*
X1090434Y719932D01*
X1089910Y720615D01*
X1089226Y721140D01*
X1088430Y721470D01*
X1087576Y721582D01*
D02*
G37*
G36*
X1077576D02*
X1076721Y721470D01*
X1075925Y721140D01*
X1075241Y720615D01*
X1074717Y719932D01*
X1074387Y719136D01*
X1074275Y718281D01*
X1074387Y717427D01*
X1074717Y716631D01*
X1075241Y715947D01*
X1075925Y715422D01*
X1076721Y715093D01*
X1077576Y714980D01*
X1078430Y715093D01*
X1079226Y715422D01*
X1079910Y715947D01*
X1080434Y716631D01*
X1080764Y717427D01*
X1080877Y718281D01*
X1080764Y719136D01*
X1080434Y719932D01*
X1079910Y720615D01*
X1079226Y721140D01*
X1078430Y721470D01*
X1077576Y721582D01*
D02*
G37*
G36*
X1127376Y730723D02*
X1126939Y730636D01*
X1126568Y730389D01*
X1126321Y730018D01*
X1126234Y729581D01*
X1126321Y729144D01*
X1126568Y728774D01*
X1126939Y728526D01*
X1127376Y728439D01*
X1127664Y728497D01*
X1131513Y724648D01*
Y713014D01*
X1129459Y710961D01*
X1129226Y711140D01*
X1128430Y711470D01*
X1127576Y711582D01*
X1126721Y711470D01*
X1125925Y711140D01*
X1125241Y710615D01*
X1124717Y709932D01*
X1124387Y709135D01*
X1124275Y708281D01*
X1124387Y707427D01*
X1124717Y706631D01*
X1125241Y705947D01*
X1125925Y705422D01*
X1126721Y705093D01*
X1127576Y704980D01*
X1128430Y705093D01*
X1129226Y705422D01*
X1129910Y705947D01*
X1130434Y706631D01*
X1130764Y707427D01*
X1130877Y708281D01*
X1130764Y709135D01*
X1130434Y709932D01*
X1130255Y710165D01*
X1132474Y712383D01*
X1132638Y712781D01*
Y724881D01*
X1132474Y725279D01*
X1128460Y729292D01*
X1128518Y729581D01*
X1128431Y730018D01*
X1128183Y730389D01*
X1127813Y730636D01*
X1127376Y730723D01*
D02*
G37*
G36*
X1117576Y721582D02*
X1116721Y721470D01*
X1115925Y721140D01*
X1115241Y720615D01*
X1114717Y719932D01*
X1114387Y719136D01*
X1114275Y718281D01*
X1114387Y717427D01*
X1114717Y716631D01*
X1115241Y715947D01*
X1115925Y715422D01*
X1116721Y715093D01*
X1117576Y714980D01*
X1118430Y715093D01*
X1119226Y715422D01*
X1119910Y715947D01*
X1120434Y716631D01*
X1120764Y717427D01*
X1120877Y718281D01*
X1120764Y719136D01*
X1120434Y719932D01*
X1119910Y720615D01*
X1119226Y721140D01*
X1118430Y721470D01*
X1117576Y721582D01*
D02*
G37*
G36*
X1107576D02*
X1106721Y721470D01*
X1105925Y721140D01*
X1105241Y720615D01*
X1104717Y719932D01*
X1104387Y719136D01*
X1104275Y718281D01*
X1104387Y717427D01*
X1104717Y716631D01*
X1105241Y715947D01*
X1105925Y715422D01*
X1106721Y715093D01*
X1107576Y714980D01*
X1108430Y715093D01*
X1109226Y715422D01*
X1109910Y715947D01*
X1110434Y716631D01*
X1110764Y717427D01*
X1110877Y718281D01*
X1110764Y719136D01*
X1110434Y719932D01*
X1109910Y720615D01*
X1109226Y721140D01*
X1108430Y721470D01*
X1107576Y721582D01*
D02*
G37*
G36*
X1097576D02*
X1096721Y721470D01*
X1095925Y721140D01*
X1095241Y720615D01*
X1094717Y719932D01*
X1094387Y719136D01*
X1094275Y718281D01*
X1094387Y717427D01*
X1094717Y716631D01*
X1095241Y715947D01*
X1095925Y715422D01*
X1096721Y715093D01*
X1097576Y714980D01*
X1098430Y715093D01*
X1099226Y715422D01*
X1099910Y715947D01*
X1100434Y716631D01*
X1100764Y717427D01*
X1100877Y718281D01*
X1100764Y719136D01*
X1100434Y719932D01*
X1099910Y720615D01*
X1099226Y721140D01*
X1098430Y721470D01*
X1097576Y721582D01*
D02*
G37*
G36*
X1106676Y787023D02*
X1106239Y786936D01*
X1105868Y786689D01*
X1105621Y786318D01*
X1105534Y785881D01*
X1105621Y785444D01*
X1105868Y785074D01*
X1106239Y784826D01*
X1106676Y784739D01*
X1107113Y784826D01*
X1107483Y785074D01*
X1107731Y785444D01*
X1107817Y785881D01*
X1107731Y786318D01*
X1107483Y786689D01*
X1107113Y786936D01*
X1106676Y787023D01*
D02*
G37*
G36*
X1199859Y786863D02*
X1199422Y786776D01*
X1199052Y786528D01*
X1198804Y786158D01*
X1198717Y785721D01*
X1198804Y785284D01*
X1199052Y784913D01*
X1199422Y784666D01*
X1199859Y784579D01*
X1200296Y784666D01*
X1200667Y784913D01*
X1200914Y785284D01*
X1201001Y785721D01*
X1200914Y786158D01*
X1200667Y786528D01*
X1200296Y786776D01*
X1199859Y786863D01*
D02*
G37*
G36*
X1181876Y785023D02*
X1181439Y784936D01*
X1181068Y784689D01*
X1180821Y784318D01*
X1180734Y783881D01*
X1180821Y783444D01*
X1181068Y783074D01*
X1181439Y782826D01*
X1181876Y782739D01*
X1182313Y782826D01*
X1182683Y783074D01*
X1182931Y783444D01*
X1183018Y783881D01*
X1182931Y784318D01*
X1182683Y784689D01*
X1182313Y784936D01*
X1181876Y785023D01*
D02*
G37*
G36*
X1114744Y791441D02*
X1114307Y791354D01*
X1113937Y791106D01*
X1113689Y790736D01*
X1113602Y790299D01*
X1113689Y789862D01*
X1113937Y789491D01*
X1114307Y789244D01*
X1114744Y789157D01*
X1115181Y789244D01*
X1115551Y789491D01*
X1115799Y789862D01*
X1115886Y790299D01*
X1115799Y790736D01*
X1115551Y791106D01*
X1115181Y791354D01*
X1114744Y791441D01*
D02*
G37*
G36*
X1129376Y795886D02*
X1129056Y795822D01*
X1128784Y795641D01*
X1128603Y795369D01*
X1128539Y795050D01*
X1128546Y795016D01*
X1126630Y793100D01*
X1126466Y792702D01*
Y790757D01*
X1126221Y790593D01*
X1125973Y790223D01*
X1125932Y790016D01*
X1125746Y789922D01*
X1125404Y789841D01*
X1125113Y790036D01*
X1124676Y790123D01*
X1124239Y790036D01*
X1123868Y789789D01*
X1123621Y789418D01*
X1123534Y788981D01*
X1123621Y788544D01*
X1123868Y788174D01*
X1124239Y787926D01*
X1124676Y787839D01*
X1125113Y787926D01*
X1125483Y788174D01*
X1125731Y788544D01*
X1125772Y788751D01*
X1125958Y788845D01*
X1126299Y788926D01*
X1126591Y788731D01*
X1127028Y788644D01*
X1127465Y788731D01*
X1127836Y788978D01*
X1128083Y789349D01*
X1128170Y789786D01*
X1128083Y790223D01*
X1127836Y790593D01*
X1127591Y790757D01*
Y792469D01*
X1129342Y794220D01*
X1129376Y794213D01*
X1129696Y794277D01*
X1129967Y794458D01*
X1130148Y794730D01*
X1130212Y795050D01*
X1130148Y795369D01*
X1129967Y795641D01*
X1129696Y795822D01*
X1129376Y795886D01*
D02*
G37*
G36*
X1048402Y815187D02*
X1046626Y815047D01*
X1044893Y814631D01*
X1043247Y813950D01*
X1041728Y813019D01*
X1040373Y811862D01*
X1039216Y810507D01*
X1038285Y808987D01*
X1037603Y807341D01*
X1037187Y805609D01*
X1037047Y803832D01*
X1037187Y802056D01*
X1037603Y800323D01*
X1038285Y798677D01*
X1039216Y797158D01*
X1040373Y795803D01*
X1041728Y794646D01*
X1043247Y793715D01*
X1044893Y793033D01*
X1046626Y792617D01*
X1048402Y792477D01*
X1050179Y792617D01*
X1051911Y793033D01*
X1053557Y793715D01*
X1055077Y794646D01*
X1056432Y795803D01*
X1057589Y797158D01*
X1058520Y798677D01*
X1059202Y800323D01*
X1059618Y802056D01*
X1059757Y803832D01*
X1059618Y805609D01*
X1059202Y807341D01*
X1058520Y808987D01*
X1057589Y810507D01*
X1056432Y811862D01*
X1055077Y813019D01*
X1053557Y813950D01*
X1051911Y814631D01*
X1050179Y815047D01*
X1048402Y815187D01*
D02*
G37*
G36*
X1171104Y798225D02*
X1170784Y798161D01*
X1170513Y797980D01*
X1170489Y797944D01*
X1152776D01*
X1152378Y797779D01*
X1148538Y793939D01*
X1148373Y793541D01*
Y791891D01*
X1148344Y791872D01*
X1148163Y791601D01*
X1148100Y791281D01*
X1148163Y790961D01*
X1148344Y790690D01*
X1148373Y790671D01*
Y786114D01*
X1147082D01*
X1147081Y786114D01*
X1146684Y785949D01*
X1146086Y785352D01*
X1145921Y784954D01*
Y784623D01*
X1145833Y784534D01*
X1144007D01*
X1143931Y784918D01*
X1143683Y785289D01*
X1143313Y785536D01*
X1142876Y785623D01*
X1142439Y785536D01*
X1142068Y785289D01*
X1141821Y784918D01*
X1141734Y784481D01*
X1141821Y784044D01*
X1141968Y783823D01*
X1142032Y783481D01*
X1141968Y783139D01*
X1141821Y782918D01*
X1141734Y782481D01*
X1141821Y782044D01*
X1142068Y781674D01*
X1142439Y781426D01*
X1142876Y781339D01*
X1143313Y781426D01*
X1143683Y781674D01*
X1143931Y782044D01*
X1144018Y782481D01*
X1144081Y782558D01*
X1145921D01*
Y782509D01*
X1146086Y782111D01*
X1146684Y781513D01*
X1147081Y781348D01*
X1147082Y781348D01*
X1148004D01*
X1148503Y780850D01*
Y776521D01*
X1148668Y776123D01*
X1149196Y775595D01*
X1149189Y775561D01*
X1149253Y775241D01*
X1149434Y774970D01*
X1149706Y774789D01*
X1150026Y774725D01*
X1150059Y774732D01*
X1150878Y773913D01*
X1151276Y773748D01*
X1151276Y773748D01*
X1154632D01*
X1157398Y770983D01*
X1157398Y770983D01*
X1157796Y770818D01*
X1157796Y770818D01*
X1162491D01*
X1162934Y770481D01*
X1163021Y770044D01*
X1163268Y769674D01*
X1163639Y769426D01*
X1164076Y769339D01*
X1164513Y769426D01*
X1164883Y769674D01*
X1164888Y769674D01*
X1171929Y762634D01*
X1172134Y762497D01*
X1172376Y762449D01*
X1175246D01*
X1175456Y762309D01*
X1175776Y762245D01*
X1176095Y762309D01*
X1176367Y762490D01*
X1176548Y762761D01*
X1176612Y763081D01*
X1176548Y763401D01*
X1176367Y763672D01*
X1176095Y763854D01*
X1175776Y763917D01*
X1175456Y763854D01*
X1175246Y763713D01*
X1172637D01*
X1165423Y770928D01*
X1165217Y771065D01*
X1165004Y771108D01*
X1164883Y771289D01*
X1164864Y771301D01*
X1164747Y771954D01*
X1164747Y771955D01*
X1164872Y772118D01*
X1166142D01*
X1167278Y770983D01*
X1167676Y770818D01*
X1170386D01*
X1170784Y770983D01*
X1172504Y772703D01*
X1172668Y773101D01*
Y775231D01*
X1172697Y775250D01*
X1172878Y775521D01*
X1172942Y775841D01*
X1172878Y776161D01*
X1172697Y776432D01*
X1172425Y776614D01*
X1172106Y776677D01*
X1171786Y776614D01*
X1171514Y776432D01*
X1171333Y776161D01*
X1171270Y775841D01*
X1171333Y775521D01*
X1171514Y775250D01*
X1171543Y775231D01*
Y773334D01*
X1170152Y771944D01*
X1167909D01*
X1166774Y773079D01*
X1166376Y773244D01*
X1164176D01*
X1163778Y773079D01*
X1162642Y771944D01*
X1158029D01*
X1155264Y774709D01*
X1154866Y774874D01*
X1151509D01*
X1150855Y775528D01*
X1150862Y775561D01*
X1150798Y775881D01*
X1150617Y776152D01*
X1150346Y776334D01*
X1150026Y776397D01*
X1149992Y776391D01*
X1149628Y776754D01*
Y781083D01*
X1149464Y781481D01*
X1148635Y782309D01*
X1148238Y782474D01*
X1147315D01*
X1147047Y782742D01*
Y782869D01*
X1146882Y783267D01*
X1146630Y783519D01*
X1146593Y783703D01*
X1146882Y783991D01*
X1147047Y784389D01*
Y784720D01*
X1147315Y784988D01*
X1148638D01*
X1149035Y785153D01*
X1149334Y785451D01*
X1149498Y785849D01*
Y790671D01*
X1149527Y790690D01*
X1149708Y790961D01*
X1149772Y791281D01*
X1149708Y791601D01*
X1149527Y791872D01*
X1149498Y791891D01*
Y793308D01*
X1153009Y796818D01*
X1170499D01*
X1170513Y796797D01*
X1170784Y796616D01*
X1171104Y796553D01*
X1171138Y796559D01*
X1172013Y795684D01*
Y795121D01*
X1172178Y794723D01*
X1173533Y793368D01*
Y791423D01*
X1173504Y791404D01*
X1173323Y791132D01*
X1173260Y790813D01*
X1173323Y790493D01*
X1173504Y790221D01*
X1173776Y790040D01*
X1174096Y789977D01*
X1174415Y790040D01*
X1174687Y790221D01*
X1174868Y790493D01*
X1174932Y790813D01*
X1174868Y791132D01*
X1174687Y791404D01*
X1174658Y791423D01*
Y793601D01*
X1174494Y793999D01*
X1174494Y793999D01*
X1173138Y795354D01*
Y795917D01*
X1172974Y796315D01*
X1171933Y797355D01*
X1171940Y797389D01*
X1171877Y797709D01*
X1171695Y797980D01*
X1171424Y798161D01*
X1171104Y798225D01*
D02*
G37*
G36*
X1130876Y778423D02*
X1130439Y778336D01*
X1130068Y778089D01*
X1129821Y777718D01*
X1129734Y777281D01*
X1129821Y776844D01*
X1130068Y776474D01*
X1130439Y776226D01*
X1130876Y776139D01*
X1131313Y776226D01*
X1131683Y776474D01*
X1131931Y776844D01*
X1132018Y777281D01*
X1131931Y777718D01*
X1131683Y778089D01*
X1131313Y778336D01*
X1130876Y778423D01*
D02*
G37*
G36*
X1266776Y777723D02*
X1266339Y777636D01*
X1265968Y777389D01*
X1265721Y777018D01*
X1265634Y776581D01*
X1265721Y776144D01*
X1265968Y775774D01*
X1266339Y775526D01*
X1266776Y775439D01*
X1267213Y775526D01*
X1267583Y775774D01*
X1267831Y776144D01*
X1267918Y776581D01*
X1267831Y777018D01*
X1267583Y777389D01*
X1267213Y777636D01*
X1266776Y777723D01*
D02*
G37*
G36*
X1121712Y778436D02*
X1121088Y778312D01*
X1120559Y777958D01*
X1120205Y777429D01*
X1120081Y776805D01*
X1120205Y776181D01*
X1120559Y775651D01*
X1121088Y775298D01*
X1121712Y775174D01*
X1122337Y775298D01*
X1122866Y775651D01*
X1123220Y776181D01*
X1123344Y776805D01*
X1123220Y777429D01*
X1122866Y777958D01*
X1122337Y778312D01*
X1121712Y778436D01*
D02*
G37*
G36*
X1071144Y779423D02*
X1070707Y779336D01*
X1070337Y779089D01*
X1070089Y778718D01*
X1070002Y778281D01*
X1070089Y777844D01*
X1070337Y777474D01*
X1070707Y777226D01*
X1071144Y777139D01*
X1071581Y777226D01*
X1071952Y777474D01*
X1072199Y777844D01*
X1072286Y778281D01*
X1072199Y778718D01*
X1071952Y779089D01*
X1071581Y779336D01*
X1071144Y779423D01*
D02*
G37*
G36*
X1207333Y783744D02*
X1206076D01*
X1205678Y783579D01*
X1204342Y782244D01*
X1202946D01*
X1202783Y782489D01*
X1202413Y782736D01*
X1201976Y782823D01*
X1201539Y782736D01*
X1201168Y782489D01*
X1200921Y782118D01*
X1200834Y781681D01*
X1200921Y781244D01*
X1201168Y780874D01*
X1201539Y780626D01*
X1201976Y780539D01*
X1202413Y780626D01*
X1202783Y780874D01*
X1202946Y781118D01*
X1204576D01*
X1204974Y781283D01*
X1205182Y781491D01*
X1205719Y781344D01*
X1205729Y781331D01*
X1205968Y780974D01*
X1206339Y780726D01*
X1206776Y780639D01*
X1207213Y780726D01*
X1207583Y780974D01*
X1207831Y781344D01*
X1207867Y781526D01*
X1219516D01*
X1220459Y780583D01*
X1220857Y780418D01*
X1220857Y780418D01*
X1223069D01*
Y780105D01*
X1223233Y779707D01*
X1223886Y779054D01*
Y777468D01*
X1223858Y777450D01*
X1223676Y777178D01*
X1223613Y776858D01*
X1223676Y776538D01*
X1223858Y776267D01*
X1224129Y776086D01*
X1224449Y776022D01*
X1224769Y776086D01*
X1225040Y776267D01*
X1225158Y776443D01*
X1225558Y776432D01*
X1225680Y776394D01*
X1225858Y776128D01*
X1226129Y775947D01*
X1226449Y775883D01*
X1226769Y775947D01*
X1227040Y776128D01*
X1227221Y776399D01*
X1227285Y776719D01*
X1227221Y777039D01*
X1227040Y777311D01*
X1227012Y777329D01*
Y778471D01*
X1226847Y778869D01*
X1224914Y780801D01*
Y781105D01*
X1224749Y781503D01*
X1224074Y782179D01*
X1223676Y782344D01*
X1221309D01*
X1220446Y783207D01*
X1220048Y783372D01*
X1207938D01*
X1207731Y783579D01*
X1207333Y783744D01*
D02*
G37*
G36*
X1255639Y783578D02*
X1255202Y783491D01*
X1254831Y783244D01*
X1254584Y782873D01*
X1254497Y782436D01*
X1254584Y781999D01*
X1254831Y781629D01*
X1255202Y781381D01*
X1255639Y781294D01*
X1256076Y781381D01*
X1256446Y781629D01*
X1256694Y781999D01*
X1256781Y782436D01*
X1256694Y782873D01*
X1256446Y783244D01*
X1256076Y783491D01*
X1255639Y783578D01*
D02*
G37*
G36*
X1242776Y785623D02*
X1242339Y785536D01*
X1241968Y785289D01*
X1241721Y784918D01*
X1241634Y784481D01*
X1241721Y784044D01*
X1241968Y783674D01*
X1242339Y783426D01*
X1242776Y783339D01*
X1243000Y783384D01*
X1246839Y779545D01*
X1247276Y779364D01*
X1256676D01*
X1257112Y779545D01*
X1258851Y781284D01*
X1259076Y781239D01*
X1259513Y781326D01*
X1259883Y781574D01*
X1260131Y781944D01*
X1260217Y782381D01*
X1260131Y782818D01*
X1259883Y783189D01*
X1259513Y783436D01*
X1259076Y783523D01*
X1258639Y783436D01*
X1258268Y783189D01*
X1258021Y782818D01*
X1258003Y782730D01*
X1257859Y782381D01*
X1257959Y782137D01*
X1256420Y780598D01*
X1247531D01*
X1243873Y784256D01*
X1243917Y784481D01*
X1243831Y784918D01*
X1243583Y785289D01*
X1243213Y785536D01*
X1242776Y785623D01*
D02*
G37*
G36*
X1242176Y798512D02*
X1241551Y798388D01*
X1241022Y798035D01*
X1240668Y797505D01*
X1240544Y796881D01*
X1240668Y796257D01*
X1241022Y795727D01*
X1241551Y795374D01*
X1242176Y795250D01*
X1242800Y795374D01*
X1243329Y795727D01*
X1243683Y796257D01*
X1243807Y796881D01*
X1243683Y797505D01*
X1243329Y798035D01*
X1242800Y798388D01*
X1242176Y798512D01*
D02*
G37*
G36*
X1107076Y802637D02*
X1106451Y802513D01*
X1105922Y802159D01*
X1105568Y801630D01*
X1105444Y801006D01*
X1105568Y800381D01*
X1105922Y799852D01*
X1106451Y799499D01*
X1107076Y799374D01*
X1107700Y799499D01*
X1108229Y799852D01*
X1108583Y800381D01*
X1108707Y801006D01*
X1108583Y801630D01*
X1108229Y802159D01*
X1107700Y802513D01*
X1107076Y802637D01*
D02*
G37*
G36*
X1196013Y801265D02*
X1195576Y801178D01*
X1195206Y800931D01*
X1194958Y800560D01*
X1194871Y800123D01*
X1194958Y799686D01*
X1195206Y799316D01*
X1195576Y799068D01*
X1196013Y798981D01*
X1196450Y799068D01*
X1196821Y799316D01*
X1197068Y799686D01*
X1197155Y800123D01*
X1197068Y800560D01*
X1196821Y800931D01*
X1196450Y801178D01*
X1196013Y801265D01*
D02*
G37*
G36*
X1065476Y800523D02*
X1065039Y800436D01*
X1064668Y800189D01*
X1064421Y799818D01*
X1064334Y799381D01*
X1064421Y798944D01*
X1064668Y798574D01*
X1065039Y798326D01*
X1065476Y798239D01*
X1065913Y798326D01*
X1066283Y798574D01*
X1066531Y798944D01*
X1066617Y799381D01*
X1066531Y799818D01*
X1066283Y800189D01*
X1065913Y800436D01*
X1065476Y800523D01*
D02*
G37*
G36*
X1156676Y809981D02*
X1148976D01*
Y801381D01*
X1156676D01*
Y809981D01*
D02*
G37*
G36*
X1202392Y814326D02*
X1112852D01*
X1112835Y814319D01*
X1112818Y814324D01*
X1112715Y814270D01*
X1112607Y814225D01*
X1112600Y814208D01*
X1112584Y814200D01*
X1112267Y813813D01*
X1112262Y813796D01*
X1112247Y813786D01*
X1112224Y813671D01*
X1112219Y813655D01*
X1112201Y813629D01*
X1112035Y812791D01*
X1111598Y812138D01*
X1110946Y811702D01*
X1110176Y811549D01*
X1109406Y811702D01*
X1108753Y812138D01*
X1108738Y812161D01*
X1108723Y812171D01*
X1108718Y812188D01*
X1108615Y812243D01*
X1108517Y812308D01*
X1108500Y812304D01*
X1108484Y812313D01*
X1107986Y812362D01*
X1107969Y812357D01*
X1107952Y812364D01*
X1107844Y812319D01*
X1107732Y812285D01*
X1107724Y812269D01*
X1107707Y812262D01*
X1097850Y802405D01*
X1097748Y802160D01*
Y799818D01*
Y788328D01*
X1091782D01*
X1091689Y788289D01*
X1091590Y788269D01*
X1091436Y788166D01*
X1091134Y788106D01*
X1090832Y788166D01*
X1090678Y788269D01*
X1090579Y788289D01*
X1090486Y788328D01*
X1059376D01*
X1059131Y788226D01*
X1059029Y787981D01*
Y784722D01*
X1042272D01*
X1041796Y784627D01*
X1041393Y784358D01*
X1038396Y781361D01*
X1038126Y780957D01*
X1038032Y780481D01*
Y739481D01*
X1038126Y739005D01*
X1038396Y738601D01*
X1038800Y738332D01*
X1039276Y738237D01*
X1039752Y738332D01*
X1040155Y738601D01*
X1040425Y739005D01*
X1040520Y739481D01*
Y779966D01*
X1042788Y782234D01*
X1060776D01*
X1061252Y782329D01*
X1061587Y782553D01*
X1078899D01*
X1082516Y778936D01*
X1082761Y778835D01*
X1095332D01*
X1103229Y770938D01*
Y750882D01*
X1103050Y750613D01*
X1102924Y749981D01*
Y735081D01*
X1103050Y734449D01*
X1103408Y733913D01*
X1103944Y733555D01*
X1104576Y733429D01*
X1105208Y733555D01*
X1105744Y733913D01*
X1106102Y734449D01*
X1106227Y735081D01*
Y748535D01*
X1107976D01*
X1108220Y748636D01*
X1109021Y749436D01*
X1109610Y750026D01*
X1109613Y750026D01*
X1109983Y750274D01*
X1110231Y750644D01*
X1110231Y750647D01*
X1110520Y750936D01*
X1110622Y751181D01*
Y754981D01*
X1110520Y755226D01*
X1108922Y756825D01*
Y761781D01*
Y774181D01*
X1108821Y774426D01*
X1102222Y781025D01*
Y800825D01*
X1102459Y801062D01*
X1102459Y801063D01*
X1102461Y801064D01*
X1108821Y807535D01*
X1113305Y807535D01*
X1113417Y807581D01*
X1113532Y807619D01*
X1117005Y810635D01*
X1171299Y810568D01*
X1171354Y810536D01*
X1171671Y810068D01*
X1171634Y809881D01*
X1171721Y809444D01*
X1171968Y809074D01*
X1172339Y808826D01*
X1172776Y808739D01*
X1173213Y808826D01*
X1173583Y809074D01*
X1173831Y809444D01*
X1173917Y809881D01*
X1173881Y810065D01*
X1174201Y810534D01*
X1174253Y810565D01*
X1176802Y810562D01*
Y798507D01*
X1176889Y798070D01*
X1177137Y797700D01*
X1177507Y797452D01*
X1177944Y797365D01*
X1178381Y797452D01*
X1178752Y797700D01*
X1178999Y798070D01*
X1179086Y798507D01*
Y810205D01*
X1179440Y810558D01*
X1198875Y810535D01*
X1198875Y810535D01*
X1198876Y810535D01*
X1199714D01*
X1203199Y807050D01*
X1203444Y806948D01*
X1209533D01*
X1209565Y806962D01*
X1209600Y806955D01*
X1209676Y806970D01*
X1209751Y806955D01*
X1209786Y806962D01*
X1209819Y806948D01*
X1215233D01*
X1215265Y806962D01*
X1215300Y806955D01*
X1215376Y806970D01*
X1215451Y806955D01*
X1215486Y806962D01*
X1215519Y806948D01*
X1216906D01*
X1217022Y806833D01*
X1221218Y802636D01*
X1221463Y802535D01*
X1223132D01*
X1226978Y798689D01*
Y797018D01*
X1227080Y796773D01*
X1228073Y795780D01*
X1228318Y795678D01*
X1230748D01*
X1230993Y795780D01*
X1231261Y796047D01*
X1231362Y796292D01*
Y801837D01*
X1231261Y802082D01*
X1221995Y811347D01*
X1221750Y811449D01*
X1205413D01*
X1202637Y814225D01*
X1202392Y814326D01*
D02*
G37*
G36*
X1198023Y809492D02*
X1197586Y809405D01*
X1197215Y809157D01*
X1196764Y809382D01*
X1196742Y809397D01*
X1196305Y809484D01*
X1195868Y809397D01*
X1195497Y809150D01*
X1195250Y808779D01*
X1195163Y808342D01*
X1195250Y807905D01*
X1195497Y807535D01*
X1195868Y807287D01*
X1196305Y807200D01*
X1196742Y807287D01*
X1197112Y807535D01*
X1197563Y807310D01*
X1197586Y807295D01*
X1198023Y807208D01*
X1198460Y807295D01*
X1198830Y807542D01*
X1199078Y807913D01*
X1199165Y808350D01*
X1199078Y808787D01*
X1198830Y809157D01*
X1198460Y809405D01*
X1198023Y809492D01*
D02*
G37*
G36*
X1083276Y809123D02*
X1082839Y809036D01*
X1082468Y808789D01*
X1082221Y808418D01*
X1082134Y807981D01*
X1082221Y807544D01*
X1082468Y807174D01*
X1082839Y806926D01*
X1083276Y806839D01*
X1083713Y806926D01*
X1084083Y807174D01*
X1084331Y807544D01*
X1084418Y807981D01*
X1084331Y808418D01*
X1084083Y808789D01*
X1083713Y809036D01*
X1083276Y809123D01*
D02*
G37*
G36*
X1138276Y808723D02*
X1137839Y808636D01*
X1137468Y808389D01*
X1137221Y808018D01*
X1137134Y807581D01*
X1137221Y807144D01*
X1137468Y806774D01*
X1137713Y806610D01*
Y802581D01*
X1137878Y802183D01*
X1141186Y798874D01*
X1141168Y798689D01*
X1140921Y798318D01*
X1140834Y797881D01*
X1140921Y797444D01*
X1141168Y797074D01*
X1141539Y796826D01*
X1141976Y796739D01*
X1142413Y796826D01*
X1142783Y797074D01*
X1143031Y797444D01*
X1143118Y797881D01*
X1143031Y798318D01*
X1142783Y798689D01*
X1142538Y798852D01*
Y798881D01*
X1142374Y799279D01*
X1138838Y802814D01*
Y806610D01*
X1139083Y806774D01*
X1139331Y807144D01*
X1139417Y807581D01*
X1139331Y808018D01*
X1139083Y808389D01*
X1138713Y808636D01*
X1138276Y808723D01*
D02*
G37*
G36*
X1067726Y798523D02*
X1067289Y798436D01*
X1066918Y798189D01*
X1066671Y797818D01*
X1066584Y797381D01*
X1066671Y796944D01*
X1066918Y796574D01*
X1067289Y796326D01*
X1067726Y796239D01*
X1068163Y796326D01*
X1068533Y796574D01*
X1068781Y796944D01*
X1068867Y797381D01*
X1068781Y797818D01*
X1068533Y798189D01*
X1068163Y798436D01*
X1067726Y798523D01*
D02*
G37*
G36*
X1174676Y797723D02*
X1174239Y797636D01*
X1173868Y797389D01*
X1173621Y797018D01*
X1173534Y796581D01*
X1173621Y796144D01*
X1173868Y795774D01*
X1174239Y795526D01*
X1174676Y795439D01*
X1175113Y795526D01*
X1175483Y795774D01*
X1175731Y796144D01*
X1175817Y796581D01*
X1175731Y797018D01*
X1175483Y797389D01*
X1175113Y797636D01*
X1174676Y797723D01*
D02*
G37*
G36*
X1141276Y809123D02*
X1140839Y809036D01*
X1140468Y808789D01*
X1140221Y808418D01*
X1140134Y807981D01*
X1140221Y807544D01*
X1140468Y807174D01*
X1140643Y807057D01*
Y802481D01*
X1140692Y802239D01*
X1140829Y802034D01*
X1144096Y798767D01*
X1144064Y798252D01*
X1143968Y798189D01*
X1143721Y797818D01*
X1143634Y797381D01*
X1143721Y796944D01*
X1143968Y796574D01*
X1144339Y796326D01*
X1144776Y796239D01*
X1145213Y796326D01*
X1145583Y796574D01*
X1145676Y796713D01*
X1145858Y796938D01*
X1146317Y796840D01*
X1146339Y796826D01*
X1146776Y796739D01*
X1147213Y796826D01*
X1147583Y797074D01*
X1147831Y797444D01*
X1147917Y797881D01*
X1147831Y798318D01*
X1147583Y798689D01*
X1147408Y798806D01*
Y799981D01*
X1147408Y799981D01*
X1147360Y800223D01*
X1147223Y800428D01*
X1147223Y800428D01*
X1143769Y803882D01*
Y806097D01*
X1143944Y806214D01*
X1144192Y806584D01*
X1144279Y807021D01*
X1144192Y807458D01*
X1143944Y807829D01*
X1143574Y808076D01*
X1143137Y808163D01*
X1142700Y808076D01*
X1142331Y808418D01*
X1142083Y808789D01*
X1141713Y809036D01*
X1141276Y809123D01*
D02*
G37*
G36*
X1212476Y799923D02*
X1212039Y799836D01*
X1211668Y799589D01*
X1211421Y799218D01*
X1211334Y798781D01*
X1211421Y798344D01*
X1211668Y797974D01*
X1212039Y797726D01*
X1212476Y797639D01*
X1212913Y797726D01*
X1213283Y797974D01*
X1213531Y798344D01*
X1213618Y798781D01*
X1213531Y799218D01*
X1213283Y799589D01*
X1212913Y799836D01*
X1212476Y799923D01*
D02*
G37*
G36*
X1207676D02*
X1207239Y799836D01*
X1206868Y799589D01*
X1206621Y799218D01*
X1206534Y798781D01*
X1206621Y798344D01*
X1206868Y797974D01*
X1207239Y797726D01*
X1207676Y797639D01*
X1208113Y797726D01*
X1208483Y797974D01*
X1208731Y798344D01*
X1208817Y798781D01*
X1208731Y799218D01*
X1208483Y799589D01*
X1208113Y799836D01*
X1207676Y799923D01*
D02*
G37*
G36*
X1138676Y799623D02*
X1138239Y799536D01*
X1137868Y799289D01*
X1137621Y798918D01*
X1137534Y798481D01*
X1137621Y798044D01*
X1137868Y797674D01*
X1138239Y797426D01*
X1138676Y797339D01*
X1139113Y797426D01*
X1139483Y797674D01*
X1139731Y798044D01*
X1139818Y798481D01*
X1139731Y798918D01*
X1139483Y799289D01*
X1139113Y799536D01*
X1138676Y799623D01*
D02*
G37*
G36*
X1153276Y770181D02*
X1145576D01*
Y761581D01*
X1153276D01*
Y770181D01*
D02*
G37*
G36*
X1055494Y762716D02*
X1054870Y762592D01*
X1054341Y762239D01*
X1053987Y761709D01*
X1053863Y761085D01*
X1053987Y760461D01*
X1054341Y759931D01*
X1054870Y759578D01*
X1055494Y759454D01*
X1056119Y759578D01*
X1056648Y759931D01*
X1057002Y760461D01*
X1057126Y761085D01*
X1057002Y761709D01*
X1056648Y762239D01*
X1056119Y762592D01*
X1055494Y762716D01*
D02*
G37*
G36*
X1090512Y760523D02*
X1090075Y760436D01*
X1089704Y760189D01*
X1089457Y759818D01*
X1089370Y759381D01*
X1089427Y759093D01*
X1087178Y756843D01*
X1087013Y756445D01*
Y732481D01*
X1087178Y732083D01*
X1088613Y730648D01*
Y723481D01*
X1088778Y723083D01*
X1091576Y720285D01*
Y713290D01*
X1089339Y711053D01*
X1089226Y711140D01*
X1088430Y711470D01*
X1087576Y711582D01*
X1086721Y711470D01*
X1085925Y711140D01*
X1085241Y710615D01*
X1084717Y709932D01*
X1084387Y709135D01*
X1084275Y708281D01*
X1084387Y707427D01*
X1084717Y706631D01*
X1085241Y705947D01*
X1085925Y705422D01*
X1086721Y705093D01*
X1087576Y704980D01*
X1088430Y705093D01*
X1089226Y705422D01*
X1089910Y705947D01*
X1090434Y706631D01*
X1090764Y707427D01*
X1090877Y708281D01*
X1090764Y709135D01*
X1090434Y709932D01*
X1090163Y710286D01*
X1092536Y712659D01*
X1092701Y713057D01*
Y720518D01*
X1092536Y720916D01*
X1089738Y723714D01*
Y730881D01*
X1089574Y731279D01*
X1088138Y732714D01*
Y756212D01*
X1090223Y758297D01*
X1090512Y758239D01*
X1090949Y758326D01*
X1091319Y758574D01*
X1091567Y758944D01*
X1091654Y759381D01*
X1091567Y759818D01*
X1091319Y760189D01*
X1090949Y760436D01*
X1090512Y760523D01*
D02*
G37*
G36*
X1203776Y764223D02*
X1203339Y764136D01*
X1202968Y763889D01*
X1202721Y763518D01*
X1202634Y763081D01*
X1202721Y762644D01*
X1202968Y762274D01*
X1203339Y762026D01*
X1203776Y761939D01*
X1204213Y762026D01*
X1204583Y762274D01*
X1204831Y762644D01*
X1204918Y763081D01*
X1204831Y763518D01*
X1204583Y763889D01*
X1204213Y764136D01*
X1203776Y764223D01*
D02*
G37*
G36*
X1198876Y772517D02*
X1198556Y772453D01*
X1198284Y772272D01*
X1198103Y772001D01*
X1198044Y771701D01*
X1192826Y766484D01*
X1192579Y766435D01*
X1192307Y766254D01*
X1192126Y765982D01*
X1192063Y765662D01*
X1192126Y765342D01*
X1192307Y765071D01*
X1192579Y764890D01*
X1192899Y764826D01*
X1193219Y764890D01*
X1193490Y765071D01*
X1193671Y765342D01*
X1193720Y765590D01*
X1199000Y770870D01*
X1199195Y770909D01*
X1199467Y771090D01*
X1199648Y771361D01*
X1199712Y771681D01*
X1199648Y772001D01*
X1199467Y772272D01*
X1199195Y772453D01*
X1198876Y772517D01*
D02*
G37*
G36*
X1178876Y766232D02*
X1178556Y766169D01*
X1178284Y765987D01*
X1178103Y765716D01*
X1178039Y765396D01*
X1178103Y765076D01*
X1178284Y764805D01*
X1178556Y764624D01*
X1178876Y764560D01*
X1179195Y764624D01*
X1179405Y764764D01*
X1186399D01*
X1188429Y762734D01*
X1188429Y762734D01*
X1188552Y762652D01*
X1188634Y762597D01*
X1188876Y762549D01*
X1196776D01*
X1197017Y762597D01*
X1197223Y762734D01*
X1198940Y764451D01*
X1200715D01*
X1200925Y764311D01*
X1201245Y764248D01*
X1201565Y764311D01*
X1201836Y764492D01*
X1202017Y764764D01*
X1202081Y765084D01*
X1202017Y765404D01*
X1201836Y765675D01*
X1201565Y765856D01*
X1201245Y765920D01*
X1200925Y765856D01*
X1200715Y765716D01*
X1198678D01*
X1198436Y765668D01*
X1198231Y765531D01*
X1196514Y763813D01*
X1189137D01*
X1187107Y765843D01*
X1186903Y765980D01*
X1186660Y766028D01*
X1179405D01*
X1179195Y766169D01*
X1178876Y766232D01*
D02*
G37*
G36*
X1057176Y765523D02*
X1056739Y765436D01*
X1056368Y765189D01*
X1056121Y764818D01*
X1056034Y764381D01*
X1056121Y763944D01*
X1056368Y763574D01*
X1056739Y763326D01*
X1057176Y763239D01*
X1057262Y763256D01*
X1058156Y762362D01*
X1058395Y762203D01*
X1058676Y762147D01*
X1085376D01*
X1085657Y762203D01*
X1085895Y762362D01*
X1086728Y763195D01*
X1086796Y763209D01*
X1087067Y763390D01*
X1087248Y763661D01*
X1087312Y763981D01*
X1087248Y764301D01*
X1087067Y764572D01*
X1086796Y764753D01*
X1086476Y764817D01*
X1086156Y764753D01*
X1085884Y764572D01*
X1085703Y764301D01*
X1085690Y764233D01*
X1085071Y763615D01*
X1058980D01*
X1058300Y764294D01*
X1058317Y764381D01*
X1058231Y764818D01*
X1057983Y765189D01*
X1057613Y765436D01*
X1057176Y765523D01*
D02*
G37*
G36*
X1221476Y752123D02*
X1221039Y752036D01*
X1220668Y751789D01*
X1220421Y751418D01*
X1220334Y750981D01*
X1220421Y750544D01*
X1220668Y750174D01*
X1221039Y749926D01*
X1221476Y749839D01*
X1221913Y749926D01*
X1222283Y750174D01*
X1222531Y750544D01*
X1222618Y750981D01*
X1222531Y751418D01*
X1222283Y751789D01*
X1221913Y752036D01*
X1221476Y752123D01*
D02*
G37*
G36*
X1179876Y752023D02*
X1179439Y751936D01*
X1179068Y751689D01*
X1178821Y751318D01*
X1178734Y750881D01*
X1178821Y750444D01*
X1179068Y750074D01*
X1179439Y749826D01*
X1179876Y749739D01*
X1180313Y749826D01*
X1180683Y750074D01*
X1180931Y750444D01*
X1181017Y750881D01*
X1180931Y751318D01*
X1180683Y751689D01*
X1180313Y751936D01*
X1179876Y752023D01*
D02*
G37*
G36*
X1233476Y751923D02*
X1233039Y751836D01*
X1232668Y751589D01*
X1232421Y751218D01*
X1232334Y750781D01*
X1232421Y750344D01*
X1232668Y749974D01*
X1233039Y749726D01*
X1233476Y749639D01*
X1233913Y749726D01*
X1234283Y749974D01*
X1234531Y750344D01*
X1234618Y750781D01*
X1234531Y751218D01*
X1234283Y751589D01*
X1233913Y751836D01*
X1233476Y751923D01*
D02*
G37*
G36*
X1055765Y753517D02*
X1055328Y753431D01*
X1054957Y753183D01*
X1054710Y752813D01*
X1054623Y752376D01*
X1054710Y751939D01*
X1054957Y751568D01*
X1055328Y751321D01*
X1055765Y751234D01*
X1056202Y751321D01*
X1056572Y751568D01*
X1056820Y751939D01*
X1056907Y752376D01*
X1056820Y752813D01*
X1056572Y753183D01*
X1056202Y753431D01*
X1055765Y753517D01*
D02*
G37*
G36*
X1051276Y759223D02*
X1050839Y759136D01*
X1050468Y758889D01*
X1050221Y758518D01*
X1050134Y758081D01*
X1050221Y757644D01*
X1050468Y757274D01*
X1050839Y757026D01*
X1051276Y756939D01*
X1051713Y757026D01*
X1052083Y757274D01*
X1052085Y757276D01*
X1052686D01*
X1052717Y757229D01*
X1053088Y756982D01*
X1053525Y756895D01*
X1053962Y756982D01*
X1054332Y757229D01*
X1054580Y757600D01*
X1054667Y758037D01*
X1054580Y758474D01*
X1054332Y758844D01*
X1053962Y759092D01*
X1053525Y759179D01*
X1053088Y759092D01*
X1052717Y758844D01*
X1052716Y758842D01*
X1052114D01*
X1052083Y758889D01*
X1051713Y759136D01*
X1051276Y759223D01*
D02*
G37*
G36*
X1239076Y757723D02*
X1238639Y757636D01*
X1238268Y757389D01*
X1238021Y757018D01*
X1237934Y756581D01*
X1238021Y756144D01*
X1238268Y755774D01*
X1238639Y755526D01*
X1239076Y755439D01*
X1239513Y755526D01*
X1239883Y755774D01*
X1240131Y756144D01*
X1240217Y756581D01*
X1240131Y757018D01*
X1239883Y757389D01*
X1239513Y757636D01*
X1239076Y757723D01*
D02*
G37*
G36*
X1051587Y755194D02*
X1051150Y755106D01*
X1050780Y754859D01*
X1050532Y754489D01*
X1050445Y754051D01*
X1050532Y753615D01*
X1050780Y753244D01*
X1051150Y752996D01*
X1051587Y752910D01*
X1052024Y752996D01*
X1052394Y753244D01*
X1052642Y753615D01*
X1052729Y754051D01*
X1052642Y754489D01*
X1052394Y754859D01*
X1052024Y755106D01*
X1051587Y755194D01*
D02*
G37*
G36*
X1256176Y772923D02*
X1255739Y772836D01*
X1255368Y772589D01*
X1255121Y772218D01*
X1255034Y771781D01*
X1255121Y771344D01*
X1255368Y770974D01*
X1255739Y770726D01*
X1256176Y770639D01*
X1256613Y770726D01*
X1256983Y770974D01*
X1257231Y771344D01*
X1257318Y771781D01*
X1257231Y772218D01*
X1256983Y772589D01*
X1256613Y772836D01*
X1256176Y772923D01*
D02*
G37*
G36*
X1239676Y783523D02*
X1239239Y783436D01*
X1238868Y783189D01*
X1238621Y782818D01*
X1238534Y782381D01*
X1238621Y781944D01*
X1238868Y781574D01*
X1239239Y781326D01*
X1239676Y781239D01*
X1240113Y781326D01*
X1240483Y781574D01*
X1240610Y781764D01*
X1241420D01*
X1248939Y774245D01*
X1248939Y774245D01*
X1249376Y774064D01*
X1257520D01*
X1258704Y772880D01*
X1258868Y772389D01*
X1258621Y772018D01*
X1258534Y771581D01*
X1258621Y771144D01*
X1258868Y770774D01*
X1259239Y770526D01*
X1259676Y770439D01*
X1260113Y770526D01*
X1260483Y770774D01*
X1260731Y771144D01*
X1260818Y771581D01*
X1260731Y772018D01*
X1260483Y772389D01*
X1260293Y772781D01*
X1260112Y773217D01*
X1260112Y773217D01*
X1258212Y775117D01*
X1257776Y775298D01*
X1249631D01*
X1242112Y782817D01*
X1241676Y782998D01*
X1240610D01*
X1240483Y783189D01*
X1240113Y783436D01*
X1239676Y783523D01*
D02*
G37*
G36*
X1178402Y774580D02*
X1177965Y774494D01*
X1177595Y774246D01*
X1177347Y773876D01*
X1177260Y773439D01*
X1177347Y773002D01*
X1177595Y772631D01*
X1177679Y772575D01*
X1177719Y772021D01*
X1175960Y770261D01*
X1173770D01*
X1173605Y770509D01*
X1173234Y770756D01*
X1172797Y770843D01*
X1172360Y770756D01*
X1171990Y770509D01*
X1171742Y770138D01*
X1171655Y769701D01*
X1171742Y769264D01*
X1171605Y768794D01*
X1171533Y768746D01*
X1171235Y768546D01*
X1170987Y768176D01*
X1170901Y767739D01*
X1170987Y767302D01*
X1171235Y766931D01*
X1171605Y766684D01*
X1172042Y766597D01*
X1172479Y766684D01*
X1172850Y766931D01*
X1173098Y767302D01*
X1173184Y767739D01*
X1173098Y768176D01*
X1173234Y768646D01*
X1173306Y768695D01*
X1173605Y768894D01*
X1173766Y769136D01*
X1176193D01*
X1176591Y769300D01*
X1178800Y771510D01*
X1178965Y771908D01*
Y772468D01*
X1179210Y772631D01*
X1179457Y773002D01*
X1179544Y773439D01*
X1179457Y773876D01*
X1179210Y774246D01*
X1178839Y774494D01*
X1178402Y774580D01*
D02*
G37*
G36*
X1077625Y777356D02*
X1077188Y777269D01*
X1076818Y777022D01*
X1076570Y776651D01*
X1076483Y776214D01*
X1076570Y775777D01*
X1076818Y775407D01*
X1077188Y775159D01*
X1077625Y775072D01*
X1078062Y775159D01*
X1078433Y775407D01*
X1078680Y775777D01*
X1078767Y776214D01*
X1078680Y776651D01*
X1078433Y777022D01*
X1078062Y777269D01*
X1077625Y777356D01*
D02*
G37*
G36*
X1268976Y775123D02*
X1268539Y775036D01*
X1268168Y774789D01*
X1268041Y774598D01*
X1266276D01*
X1266276Y774598D01*
X1265839Y774417D01*
X1265839Y774417D01*
X1255320Y763898D01*
X1250818D01*
X1250818Y763898D01*
X1250382Y763717D01*
X1247662Y760998D01*
X1244310D01*
X1244183Y761189D01*
X1243813Y761436D01*
X1243376Y761523D01*
X1242939Y761436D01*
X1242568Y761189D01*
X1242321Y760818D01*
X1242234Y760381D01*
X1242321Y759944D01*
X1242568Y759574D01*
X1242916Y759341D01*
X1242939Y759181D01*
Y758981D01*
X1242916Y758821D01*
X1242568Y758589D01*
X1242321Y758218D01*
X1242234Y757781D01*
X1242321Y757344D01*
X1242568Y756974D01*
X1242939Y756726D01*
X1243376Y756639D01*
X1243813Y756726D01*
X1244183Y756974D01*
X1244310Y757164D01*
X1246976D01*
X1247412Y757345D01*
X1251531Y761464D01*
X1255976D01*
X1256412Y761645D01*
X1264731Y769964D01*
X1267941D01*
X1268068Y769774D01*
X1268439Y769526D01*
X1268876Y769439D01*
X1269313Y769526D01*
X1269683Y769774D01*
X1269931Y770144D01*
X1270018Y770581D01*
X1269931Y771018D01*
X1269683Y771389D01*
X1269313Y771636D01*
X1268876Y771723D01*
X1268439Y771636D01*
X1268068Y771389D01*
X1267941Y771198D01*
X1265072D01*
X1264865Y771698D01*
X1266531Y773364D01*
X1268041D01*
X1268168Y773174D01*
X1268539Y772926D01*
X1268976Y772839D01*
X1269413Y772926D01*
X1269783Y773174D01*
X1270031Y773544D01*
X1270117Y773981D01*
X1270031Y774418D01*
X1269783Y774789D01*
X1269413Y775036D01*
X1268976Y775123D01*
D02*
G37*
G36*
X1088676Y774423D02*
X1088239Y774336D01*
X1087868Y774089D01*
X1087621Y773718D01*
X1087534Y773281D01*
X1087621Y772844D01*
X1087868Y772474D01*
X1088239Y772226D01*
X1088676Y772139D01*
X1089113Y772226D01*
X1089483Y772474D01*
X1089731Y772844D01*
X1089818Y773281D01*
X1089731Y773718D01*
X1089483Y774089D01*
X1089113Y774336D01*
X1088676Y774423D01*
D02*
G37*
G36*
X1129583Y769952D02*
X1128959Y769828D01*
X1128430Y769474D01*
X1128076Y768945D01*
X1127952Y768321D01*
X1128076Y767696D01*
X1128430Y767167D01*
X1128959Y766813D01*
X1129583Y766689D01*
X1130208Y766813D01*
X1130737Y767167D01*
X1131091Y767696D01*
X1131215Y768321D01*
X1131091Y768945D01*
X1130737Y769474D01*
X1130208Y769828D01*
X1129583Y769952D01*
D02*
G37*
G36*
X1210283Y767447D02*
X1209846Y767360D01*
X1209475Y767112D01*
X1209228Y766742D01*
X1209141Y766305D01*
X1209228Y765868D01*
X1209475Y765497D01*
X1209846Y765250D01*
X1210283Y765163D01*
X1210720Y765250D01*
X1211090Y765497D01*
X1211338Y765868D01*
X1211425Y766305D01*
X1211338Y766742D01*
X1211090Y767112D01*
X1210720Y767360D01*
X1210283Y767447D01*
D02*
G37*
G36*
X1138146Y767888D02*
X1137710Y767801D01*
X1137339Y767553D01*
X1137092Y767183D01*
X1137004Y766746D01*
X1137092Y766309D01*
X1137339Y765938D01*
X1137710Y765691D01*
X1138146Y765604D01*
X1138583Y765691D01*
X1138954Y765938D01*
X1139202Y766309D01*
X1139288Y766746D01*
X1139202Y767183D01*
X1138954Y767553D01*
X1138583Y767801D01*
X1138146Y767888D01*
D02*
G37*
G36*
X1266476Y769123D02*
X1266039Y769036D01*
X1265668Y768789D01*
X1265421Y768418D01*
X1265334Y767981D01*
X1265421Y767544D01*
X1265668Y767174D01*
X1266039Y766926D01*
X1266476Y766839D01*
X1266913Y766926D01*
X1267283Y767174D01*
X1267531Y767544D01*
X1267618Y767981D01*
X1267531Y768418D01*
X1267283Y768789D01*
X1266913Y769036D01*
X1266476Y769123D01*
D02*
G37*
%LPD*%
G36*
X1155575Y744981D02*
X1156163D01*
X1156168Y744974D01*
X1156539Y744726D01*
X1156976Y744639D01*
X1157413Y744726D01*
X1157783Y744974D01*
X1157788Y744981D01*
X1161235Y744981D01*
X1161497Y744806D01*
X1161934Y744719D01*
X1162371Y744806D01*
X1162633Y744981D01*
X1165963D01*
X1165968Y744974D01*
X1166339Y744726D01*
X1166776Y744639D01*
X1167213Y744726D01*
X1167583Y744974D01*
X1167588Y744981D01*
X1170630Y744981D01*
X1170768Y744774D01*
X1171139Y744526D01*
X1171576Y744439D01*
X1172013Y744526D01*
X1172176Y744635D01*
X1172676Y744380D01*
X1172676Y740836D01*
X1180722Y740836D01*
X1181076Y740483D01*
Y738781D01*
X1172676Y738781D01*
X1172676Y735935D01*
X1172322Y735581D01*
X1170176Y735581D01*
Y740781D01*
X1155876D01*
X1154456Y742201D01*
X1154483Y742474D01*
X1154731Y742844D01*
X1154817Y743281D01*
X1154731Y743718D01*
X1154483Y744089D01*
X1154113Y744336D01*
X1153676Y744423D01*
X1153239Y744336D01*
X1152868Y744089D01*
X1152595Y744062D01*
X1151076Y745581D01*
X1151023Y745659D01*
X1150945Y745712D01*
X1149576Y747081D01*
X1146229Y747081D01*
X1145876Y747435D01*
X1145876Y748681D01*
X1151877Y748681D01*
X1155575Y744981D01*
D02*
G37*
G36*
X1205175Y811197D02*
X1205269Y811103D01*
X1221750D01*
X1231016Y801837D01*
Y796292D01*
X1230748Y796025D01*
X1228318D01*
X1227324Y797018D01*
Y798832D01*
X1223276Y802881D01*
X1221463D01*
X1217267Y807077D01*
X1217050Y807295D01*
X1215519D01*
X1215376Y807323D01*
X1215233Y807295D01*
X1209819D01*
X1209676Y807323D01*
X1209533Y807295D01*
X1203444D01*
X1199857Y810881D01*
X1198876D01*
X1116876Y810981D01*
X1113305Y807881D01*
X1108676Y807881D01*
X1102214Y801307D01*
X1101876Y800968D01*
Y780881D01*
X1108576Y774181D01*
Y761781D01*
Y756681D01*
X1110276Y754981D01*
Y751181D01*
X1108776Y749681D01*
X1107976Y748881D01*
X1103576D01*
Y771081D01*
X1095476Y779181D01*
X1082761D01*
X1079043Y782899D01*
X1059376D01*
Y787981D01*
X1090486D01*
X1090697Y787840D01*
X1091134Y787753D01*
X1091571Y787840D01*
X1091782Y787981D01*
X1098095D01*
Y799818D01*
Y802160D01*
X1107952Y812017D01*
X1108450Y811968D01*
X1108503Y811889D01*
X1109270Y811376D01*
X1110176Y811196D01*
X1111081Y811376D01*
X1111848Y811889D01*
X1112361Y812656D01*
X1112541Y813561D01*
X1112535Y813593D01*
X1112852Y813980D01*
X1202392D01*
X1205175Y811197D01*
D02*
G37*
G36*
X1145176Y754881D02*
X1151929Y754927D01*
X1153976Y752881D01*
X1155376Y751481D01*
X1156159D01*
X1156457Y751282D01*
X1156894Y751195D01*
X1157331Y751282D01*
X1157629Y751481D01*
X1161199D01*
X1161497Y751282D01*
X1161934Y751195D01*
X1162371Y751282D01*
X1162669Y751481D01*
X1165901D01*
X1166199Y751282D01*
X1166636Y751195D01*
X1167073Y751282D01*
X1167371Y751481D01*
X1170772D01*
X1171070Y751282D01*
X1171507Y751195D01*
X1171944Y751282D01*
X1172242Y751481D01*
X1174376D01*
X1177241Y748616D01*
X1182163D01*
X1182203Y746896D01*
X1181853Y746539D01*
X1176218D01*
X1173276Y749481D01*
X1172071D01*
X1171984Y749539D01*
X1171547Y749626D01*
X1171110Y749539D01*
X1171023Y749481D01*
X1167723Y749481D01*
X1167480Y749845D01*
X1167109Y750093D01*
X1166672Y750179D01*
X1166235Y750093D01*
X1165864Y749845D01*
X1165621Y749481D01*
X1162982Y749481D01*
X1162971Y749538D01*
X1162723Y749909D01*
X1162353Y750156D01*
X1161916Y750243D01*
X1161479Y750156D01*
X1161108Y749909D01*
X1160861Y749538D01*
X1160849Y749481D01*
X1157798D01*
X1157753Y749549D01*
X1157383Y749796D01*
X1156946Y749883D01*
X1156509Y749796D01*
X1156138Y749549D01*
X1156093Y749481D01*
X1154676D01*
X1152276Y751881D01*
X1150536D01*
X1150502Y751920D01*
X1150315Y752381D01*
X1150400Y752508D01*
X1150463Y752828D01*
X1150400Y753148D01*
X1150218Y753419D01*
X1149947Y753600D01*
X1149627Y753664D01*
X1149307Y753600D01*
X1149036Y753419D01*
X1148855Y753148D01*
X1148791Y752828D01*
X1148831Y752627D01*
X1148615Y752279D01*
X1148488Y752157D01*
X1148316Y752174D01*
X1148296Y752275D01*
X1148048Y752645D01*
X1147678Y752892D01*
X1147241Y752979D01*
X1146804Y752892D01*
X1146434Y752645D01*
X1146186Y752275D01*
X1146108Y751881D01*
X1145487D01*
X1145276Y751923D01*
X1145065Y751881D01*
X1143629D01*
X1143276Y752235D01*
X1143276Y754927D01*
Y756381D01*
X1145176D01*
Y754881D01*
D02*
G37*
G36*
X1148466Y740251D02*
X1148477Y731509D01*
X1157229D01*
X1162488Y731509D01*
X1162521Y731344D01*
X1162768Y730974D01*
X1163139Y730726D01*
X1163576Y730639D01*
X1164013Y730726D01*
X1164383Y730974D01*
X1164631Y731344D01*
X1164717Y731781D01*
X1164631Y732218D01*
X1164383Y732589D01*
X1164013Y732836D01*
X1163718Y732895D01*
X1163718Y737781D01*
X1167376Y737781D01*
X1167376Y735081D01*
X1174593Y727864D01*
X1182813Y727864D01*
X1182813Y726003D01*
X1182317Y725509D01*
X1175741Y725509D01*
X1175493Y725675D01*
X1175056Y725762D01*
X1174619Y725675D01*
X1174371Y725509D01*
X1171948D01*
X1169593Y727864D01*
X1160461Y727864D01*
X1160431Y728018D01*
X1160183Y728389D01*
X1159813Y728636D01*
X1159376Y728723D01*
X1158939Y728636D01*
X1158568Y728389D01*
X1158321Y728018D01*
X1158290Y727864D01*
X1145476Y727864D01*
X1145476Y731509D01*
X1145476Y739898D01*
X1145829Y740252D01*
X1148466Y740251D01*
D02*
G37*
G36*
X1242767Y733381D02*
X1231076D01*
X1229833Y732138D01*
X1229584Y731972D01*
X1229418Y731724D01*
X1223074Y725380D01*
X1222983Y725389D01*
X1222613Y725636D01*
X1222176Y725723D01*
X1221739Y725636D01*
X1221368Y725389D01*
X1221121Y725018D01*
X1221093Y724881D01*
X1199676D01*
X1199586Y728123D01*
X1199934Y728481D01*
X1219476D01*
X1228076Y737081D01*
X1229367Y738372D01*
X1242767D01*
Y733381D01*
D02*
G37*
%LPC*%
G36*
X1226676Y733823D02*
X1226239Y733736D01*
X1225868Y733489D01*
X1225621Y733118D01*
X1225534Y732681D01*
X1225621Y732244D01*
X1225868Y731874D01*
X1226239Y731626D01*
X1226676Y731539D01*
X1227113Y731626D01*
X1227483Y731874D01*
X1227731Y732244D01*
X1227818Y732681D01*
X1227731Y733118D01*
X1227483Y733489D01*
X1227113Y733736D01*
X1226676Y733823D01*
D02*
G37*
G36*
X1094276Y783023D02*
X1093839Y782936D01*
X1093468Y782689D01*
X1092983D01*
X1092613Y782936D01*
X1092176Y783023D01*
X1091739Y782936D01*
X1091368Y782689D01*
X1091121Y782318D01*
X1091034Y781881D01*
X1091121Y781444D01*
X1091368Y781074D01*
X1091739Y780826D01*
X1092176Y780739D01*
X1092613Y780826D01*
X1092983Y781074D01*
X1093468D01*
X1093839Y780826D01*
X1094276Y780739D01*
X1094713Y780826D01*
X1095083Y781074D01*
X1095331Y781444D01*
X1095417Y781881D01*
X1095331Y782318D01*
X1095083Y782689D01*
X1094713Y782936D01*
X1094276Y783023D01*
D02*
G37*
%LPD*%
D44*
X1172776Y809881D02*
Y811981D01*
D46*
X1194525Y728931D02*
Y731561D01*
Y728931D02*
X1197776Y725681D01*
X1200376D01*
X1177944Y798507D02*
Y811920D01*
D47*
X1236665Y740881D02*
X1237476Y741692D01*
X1232176Y740881D02*
X1236665D01*
X1230676Y739381D02*
X1232176Y740881D01*
X1164076Y770481D02*
X1164976D01*
X1172376Y763081D01*
X1146776Y797881D02*
Y799981D01*
X1198678Y765084D02*
X1201245D01*
X1196776Y763181D02*
X1198678Y765084D01*
X1188876Y763181D02*
X1196776D01*
X1186660Y765396D02*
X1188876Y763181D01*
X1178876Y765396D02*
X1186660D01*
X1198876Y771639D02*
Y771681D01*
X1192899Y765662D02*
X1198876Y771639D01*
X1141276Y802481D02*
X1144776Y798981D01*
Y797381D02*
Y798981D01*
X1143137Y803620D02*
X1146776Y799981D01*
X1143137Y803620D02*
Y807021D01*
X1141276Y802481D02*
Y807981D01*
X1172376Y763081D02*
X1175776D01*
D48*
X1085376Y762881D02*
X1086476Y763981D01*
X1058676Y762881D02*
X1085376D01*
X1057176Y764381D02*
X1058676Y762881D01*
D50*
X1214165Y746539D02*
X1216976Y743727D01*
Y738781D02*
Y743727D01*
X1215276Y737081D02*
X1216976Y738781D01*
X1210376Y737081D02*
X1215276D01*
X1209306Y738151D02*
X1210376Y737081D01*
X1196146Y738151D02*
X1209306D01*
X1127028Y792702D02*
X1129376Y795050D01*
X1127028Y789786D02*
Y792702D01*
X1142876Y784471D02*
Y784481D01*
Y784471D02*
X1143376Y783971D01*
X1146066D01*
X1142876Y782481D02*
Y782531D01*
X1143466Y783121D01*
X1127576Y718281D02*
Y724081D01*
X1123976Y727681D02*
X1127576Y724081D01*
X1123976Y727681D02*
Y729581D01*
X1132076Y712781D02*
Y724881D01*
X1127376Y729581D02*
X1132076Y724881D01*
X1127576Y708281D02*
X1132076Y712781D01*
X1145451Y713181D02*
X1159776D01*
X1141887Y716746D02*
X1145451Y713181D01*
X1162876Y771381D02*
X1164176Y772681D01*
X1157796Y771381D02*
X1162876D01*
X1164176Y772681D02*
X1166376D01*
X1187986Y729991D02*
X1196146Y738151D01*
X1181696Y709381D02*
X1185418Y713104D01*
X1178676Y709381D02*
X1181696D01*
X1177576Y708281D02*
X1178676Y709381D01*
X1166376Y772681D02*
X1167676Y771381D01*
X1170386D01*
X1100576Y734381D02*
Y754681D01*
X1152776Y797381D02*
X1171097D01*
X1171104Y797389D01*
X1148936Y793541D02*
X1152776Y797381D01*
X1148936Y791281D02*
Y793541D01*
X1223631Y780105D02*
X1224449Y779287D01*
X1223631Y780105D02*
Y780725D01*
X1224449Y776858D02*
Y779287D01*
X1224351Y780568D02*
X1226449Y778471D01*
X1224351Y780568D02*
Y781105D01*
X1223676Y781781D02*
X1224351Y781105D01*
X1220857Y780981D02*
X1223376D01*
X1219750Y782089D02*
X1220857Y780981D01*
X1207083Y782089D02*
X1219750D01*
X1221076Y781781D02*
X1223676D01*
X1220048Y782809D02*
X1221076Y781781D01*
X1207705Y782809D02*
X1220048D01*
X1146484Y784389D02*
Y784954D01*
X1146066Y783971D02*
X1146484Y784389D01*
X1146232Y783121D02*
X1146484Y782869D01*
X1143466Y783121D02*
X1146232D01*
X1146484Y782509D02*
Y782869D01*
X1141976Y797881D02*
Y798881D01*
X1138276Y802581D02*
X1141976Y798881D01*
X1138276Y802581D02*
Y807581D01*
X1178402Y771908D02*
Y773439D01*
X1176193Y769698D02*
X1178402Y771908D01*
X1173081Y769698D02*
X1176193D01*
X1132176Y729705D02*
X1141887Y719994D01*
X1101442Y726715D02*
X1105124D01*
X1107166Y729081D02*
X1108026Y728221D01*
X1149066Y776521D02*
Y781083D01*
X1148238Y781911D02*
X1149066Y781083D01*
X1147081Y781911D02*
X1148238D01*
X1146484Y782509D02*
X1147081Y781911D01*
X1148936Y785849D02*
Y791281D01*
X1148638Y785551D02*
X1148936Y785849D01*
X1147081Y785551D02*
X1148638D01*
X1146484Y784954D02*
X1147081Y785551D01*
X1223376Y780981D02*
X1223631Y780725D01*
X1206776Y781781D02*
X1207083Y782089D01*
X1206076Y783181D02*
X1207333D01*
X1204576Y781681D02*
X1206076Y783181D01*
X1201976Y781681D02*
X1204576D01*
X1207333Y783181D02*
X1207705Y782809D01*
X1226449Y776719D02*
Y778471D01*
X1132176Y746081D02*
X1133636Y747541D01*
X1132176Y729705D02*
Y746081D01*
X1102876Y729081D02*
X1107166D01*
X1093811Y738146D02*
X1102876Y729081D01*
X1103976Y730981D02*
X1114776D01*
X1100576Y734381D02*
X1103976Y730981D01*
X1087576Y756445D02*
X1090512Y759381D01*
X1087576Y732481D02*
Y756445D01*
Y732481D02*
X1089176Y730881D01*
X1090008Y738148D02*
X1101442Y726715D01*
X1090008Y738148D02*
Y751578D01*
X1093811Y738146D02*
Y749391D01*
X1089176Y723481D02*
Y730881D01*
Y723481D02*
X1092138Y720518D01*
X1087576Y708494D02*
X1092138Y713057D01*
X1087576Y708281D02*
Y708494D01*
X1092138Y713057D02*
Y720518D01*
X1133636Y747541D02*
X1135966D01*
X1136666Y748241D01*
X1114776Y730981D02*
X1122476Y723281D01*
Y717381D02*
Y723281D01*
X1193116Y716261D02*
Y722331D01*
X1187986Y718691D02*
Y729991D01*
X1189958Y713104D02*
X1193116Y716261D01*
X1185418Y713104D02*
X1189958D01*
X1089890Y751697D02*
X1090008Y751578D01*
X1207576Y708281D02*
X1207576D01*
X1187576Y718281D02*
X1187986Y718691D01*
X1172797Y769701D02*
X1173078D01*
X1173081Y769698D01*
X1141887Y716746D02*
Y719994D01*
X1174096Y790813D02*
Y793601D01*
X1150026Y775561D02*
X1151276Y774311D01*
X1172106Y773101D02*
Y775841D01*
X1149066Y776521D02*
X1150026Y775561D01*
X1151276Y774311D02*
X1154866D01*
X1172576Y795121D02*
X1174096Y793601D01*
X1172576Y795121D02*
Y795917D01*
X1171104Y797389D02*
X1172576Y795917D01*
X1170386Y771381D02*
X1172106Y773101D01*
X1154866Y774311D02*
X1157796Y771381D01*
D54*
X1195130Y741591D02*
X1212704D01*
X1185201Y731663D02*
X1195130Y741591D01*
X1212704D02*
X1213377Y742264D01*
X1185201Y723707D02*
Y731663D01*
X1247918Y760381D02*
X1250818Y763281D01*
X1243376Y760381D02*
X1247918D01*
X1239676Y782381D02*
X1241676D01*
X1249376Y774681D01*
X1242776Y784481D02*
X1247276Y779981D01*
X1259676Y771581D02*
Y772781D01*
X1257776Y774681D02*
X1259676Y772781D01*
X1249376Y774681D02*
X1257776D01*
X1256676Y779981D02*
X1259076Y782381D01*
X1247276Y779981D02*
X1256676D01*
X1258476Y782381D02*
X1259076D01*
X1251276Y762081D02*
X1255976D01*
X1246976Y757781D02*
X1251276Y762081D01*
X1243376Y757781D02*
X1246976D01*
X1264476Y770581D02*
X1268876D01*
X1255976Y762081D02*
X1264476Y770581D01*
X1255576Y763281D02*
X1266276Y773981D01*
X1250818Y763281D02*
X1255576D01*
X1266276Y773981D02*
X1268976D01*
X1182673Y721179D02*
X1185201Y723707D01*
X1178175Y712775D02*
X1180469D01*
X1182673Y714979D01*
Y721179D01*
X1276749Y699502D02*
G03*
X1290528Y713281I0J13780D01*
G01*
X1034623Y712769D02*
G03*
X1047891Y699502I13268J0D01*
G01*
X1048995Y817730D02*
G03*
X1034623Y803358I0J-14372D01*
G01*
X1290528Y813564D02*
G03*
X1286362Y817730I-4166J0D01*
G01*
X1047891Y699502D02*
X1276749Y699502D01*
X1034623Y712769D02*
X1034623Y796470D01*
X1290528Y718006D02*
Y767631D01*
X1084591Y815466D02*
X1107961D01*
X1034623Y796470D02*
Y803358D01*
X1290528Y713281D02*
Y718006D01*
X1110224Y817730D02*
X1286362D01*
X1290528Y767631D02*
Y813564D01*
X1082327Y817730D02*
X1084591Y815466D01*
X1048995Y817730D02*
X1082327D01*
X1107961Y815466D02*
X1110224Y817730D01*
D58*
X1268422Y758448D02*
D03*
Y730948D02*
D03*
Y810614D02*
D03*
Y783114D02*
D03*
D59*
X1104348Y812331D02*
D03*
X1088403D02*
D03*
D60*
X1097576Y708281D02*
D03*
X1087576D02*
D03*
X1067576Y718281D02*
D03*
X1117576Y708281D02*
D03*
X1127576D02*
D03*
Y718281D02*
D03*
X1137576D02*
D03*
X1167576Y708281D02*
D03*
X1177576D02*
D03*
X1187576Y718281D02*
D03*
X1197576Y708281D02*
D03*
X1207576D02*
D03*
X1217576Y718281D02*
D03*
X1237576Y708281D02*
D03*
D62*
X1048402Y713281D02*
D03*
Y803832D02*
D03*
X1276749Y713281D02*
D03*
D63*
X1218476Y742081D02*
D03*
X1218376Y740281D02*
D03*
X1090676Y715381D02*
D03*
X1081976Y722881D02*
D03*
X1101876Y718081D02*
D03*
X1114976Y723181D02*
D03*
X1111476Y719981D02*
D03*
X1114476Y720981D02*
D03*
X1119276Y722081D02*
D03*
X1140776Y715781D02*
D03*
X1150976D02*
D03*
X1144376Y721081D02*
D03*
X1213576Y706981D02*
D03*
X1224476Y711381D02*
D03*
X1223276Y707881D02*
D03*
X1211076Y710781D02*
D03*
X1213576Y709881D02*
D03*
X1204076Y710681D02*
D03*
X1211776Y738981D02*
D03*
X1238576Y792181D02*
D03*
X1240376Y795181D02*
D03*
X1240276Y800581D02*
D03*
X1240376Y798581D02*
D03*
X1238676Y795481D02*
D03*
X1119694Y775356D02*
D03*
X1124162Y776473D02*
D03*
X1122338Y774456D02*
D03*
X1237576Y730781D02*
D03*
X1237476Y722781D02*
D03*
Y724781D02*
D03*
X1237576Y726781D02*
D03*
Y728781D02*
D03*
X1272676Y734381D02*
D03*
Y736481D02*
D03*
X1043576Y759081D02*
D03*
X1041676D02*
D03*
X1039276Y739481D02*
D03*
X1225576Y737881D02*
D03*
X1221576Y738281D02*
D03*
X1224276Y736681D02*
D03*
X1221576Y736481D02*
D03*
Y734781D02*
D03*
X1180376Y739581D02*
D03*
X1142876Y784481D02*
D03*
Y782481D02*
D03*
X1074176Y768181D02*
D03*
X1074076Y758581D02*
D03*
X1071876Y769081D02*
D03*
Y767181D02*
D03*
Y759781D02*
D03*
Y757281D02*
D03*
X1077576Y756481D02*
D03*
X1159776Y713181D02*
D03*
X1144376Y756381D02*
D03*
X1142306Y749941D02*
D03*
X1146476Y747981D02*
D03*
X1147241Y751837D02*
D03*
X1164076Y770481D02*
D03*
X1166672Y749038D02*
D03*
X1161934Y752337D02*
D03*
X1156946Y748741D02*
D03*
X1161916Y749101D02*
D03*
X1171576Y745581D02*
D03*
X1200376Y725681D02*
D03*
X1202176D02*
D03*
X1180176Y727081D02*
D03*
X1181976D02*
D03*
X1265976Y733881D02*
D03*
X1268476Y735981D02*
D03*
X1265976Y735881D02*
D03*
X1268476Y733981D02*
D03*
X1191976Y781181D02*
D03*
X1193676Y781481D02*
D03*
X1253076Y777681D02*
D03*
Y772381D02*
D03*
X1250576Y772281D02*
D03*
X1248076Y770581D02*
D03*
X1245076Y770181D02*
D03*
X1242876D02*
D03*
X1242976Y768381D02*
D03*
X1245076D02*
D03*
X1248076D02*
D03*
Y756681D02*
D03*
X1239276Y753381D02*
D03*
X1242776Y753481D02*
D03*
X1247776Y753581D02*
D03*
X1266776Y788281D02*
D03*
Y791881D02*
D03*
X1258476Y790581D02*
D03*
X1261976Y788281D02*
D03*
X1256376Y788381D02*
D03*
X1254376D02*
D03*
X1225576Y789681D02*
D03*
X1210776Y784981D02*
D03*
Y786881D02*
D03*
X1195576Y770581D02*
D03*
X1163976Y778081D02*
D03*
X1164276Y781281D02*
D03*
X1155176Y783281D02*
D03*
X1153376Y784281D02*
D03*
X1166376Y784081D02*
D03*
X1168276Y784581D02*
D03*
X1170076Y784081D02*
D03*
X1223976Y790781D02*
D03*
X1193776Y808881D02*
D03*
X1215376Y806181D02*
D03*
X1209676D02*
D03*
X1228276Y806281D02*
D03*
X1233176D02*
D03*
X1238276D02*
D03*
X1242776D02*
D03*
X1247476D02*
D03*
X1257876Y804481D02*
D03*
X1257976Y801481D02*
D03*
X1256176Y800181D02*
D03*
X1256076Y802681D02*
D03*
Y805781D02*
D03*
X1104776Y788781D02*
D03*
Y792581D02*
D03*
X1104876Y796081D02*
D03*
X1110076Y797781D02*
D03*
X1100576Y754681D02*
D03*
X1175056Y724620D02*
D03*
X1108276Y798881D02*
D03*
X1239676Y782381D02*
D03*
X1242776Y784481D02*
D03*
X1224176Y721181D02*
D03*
X1230176Y714581D02*
D03*
X1231876Y716081D02*
D03*
X1232176Y717981D02*
D03*
X1232076Y720081D02*
D03*
X1146776Y797881D02*
D03*
X1226176Y792281D02*
D03*
X1259076Y782381D02*
D03*
X1100176Y704881D02*
D03*
X1102376Y709081D02*
D03*
X1104576Y704981D02*
D03*
X1212476Y795681D02*
D03*
X1127276Y767781D02*
D03*
X1259676Y771581D02*
D03*
X1126476Y763881D02*
D03*
X1109776Y788481D02*
D03*
Y792781D02*
D03*
X1110276Y803981D02*
D03*
X1108676Y802981D02*
D03*
X1109876Y805981D02*
D03*
X1105476Y798881D02*
D03*
X1120876Y805681D02*
D03*
X1172476Y760581D02*
D03*
X1223366Y760761D02*
D03*
X1166776Y745781D02*
D03*
X1145176Y726581D02*
D03*
X1143776Y725381D02*
D03*
X1141976Y723381D02*
D03*
X1159376Y727581D02*
D03*
X1163576Y731781D02*
D03*
X1171476Y736369D02*
D03*
X1166576Y732239D02*
D03*
X1158376Y734981D02*
D03*
X1136976Y730581D02*
D03*
X1138376Y731981D02*
D03*
X1140376Y733581D02*
D03*
X1097076Y725381D02*
D03*
X1105124Y726715D02*
D03*
X1108026Y728221D02*
D03*
X1135376Y729581D02*
D03*
X1127376D02*
D03*
X1123976D02*
D03*
X1144776Y797381D02*
D03*
X1156776Y760681D02*
D03*
X1216776Y760981D02*
D03*
X1272976Y802381D02*
D03*
X1281976D02*
D03*
Y791381D02*
D03*
X1272976D02*
D03*
X1288976Y764381D02*
D03*
Y752381D02*
D03*
Y724381D02*
D03*
Y718381D02*
D03*
X1260976Y701381D02*
D03*
X1243976D02*
D03*
X1226976D02*
D03*
X1193976D02*
D03*
X1187976D02*
D03*
X1181976D02*
D03*
X1169976Y701181D02*
D03*
X1152976D02*
D03*
X1135976D02*
D03*
X1129976D02*
D03*
X1118576D02*
D03*
X1067176D02*
D03*
X1053976Y701381D02*
D03*
X1035976Y799381D02*
D03*
X1040976Y792381D02*
D03*
X1057976Y794381D02*
D03*
X1061976Y804381D02*
D03*
X1054976Y815381D02*
D03*
X1058976D02*
D03*
X1065976D02*
D03*
X1073976D02*
D03*
X1070976D02*
D03*
X1076976D02*
D03*
X1081976D02*
D03*
X1085976Y813381D02*
D03*
X1091976D02*
D03*
X1100976D02*
D03*
X1115976Y815381D02*
D03*
X1231976D02*
D03*
X1238976D02*
D03*
X1225976D02*
D03*
X1287476Y810681D02*
D03*
Y814881D02*
D03*
X1279976Y815081D02*
D03*
X1272876Y814881D02*
D03*
X1267376Y803681D02*
D03*
X1270276Y798781D02*
D03*
X1269976Y746381D02*
D03*
X1258376Y749481D02*
D03*
X1287476Y730981D02*
D03*
X1279976Y735281D02*
D03*
X1272676Y726581D02*
D03*
X1279876D02*
D03*
X1279676Y754081D02*
D03*
X1279576Y762881D02*
D03*
X1272676Y758481D02*
D03*
X1280176Y778681D02*
D03*
X1280076Y787481D02*
D03*
X1280176Y806181D02*
D03*
X1280076Y810581D02*
D03*
X1272676Y810681D02*
D03*
X1280176Y783181D02*
D03*
X1272876D02*
D03*
X1166576Y760681D02*
D03*
X1161976D02*
D03*
X1199876Y781481D02*
D03*
X1201976Y781681D02*
D03*
X1206776Y781781D02*
D03*
X1223776Y793181D02*
D03*
X1221587Y795915D02*
D03*
X1229292Y797481D02*
D03*
X1156976Y745781D02*
D03*
X1161934Y745861D02*
D03*
X1178402Y773439D02*
D03*
X1059866Y781351D02*
D03*
X1055096Y780141D02*
D03*
X1159876Y809081D02*
D03*
X1157376D02*
D03*
X1145876D02*
D03*
X1148276D02*
D03*
X1161876Y790981D02*
D03*
X1200576Y792681D02*
D03*
Y796281D02*
D03*
X1104576Y749981D02*
D03*
X1268876Y770581D02*
D03*
X1268976Y773981D02*
D03*
X1243376Y757781D02*
D03*
X1262114Y742769D02*
D03*
X1141976Y797881D02*
D03*
X1141276Y807981D02*
D03*
X1140976Y815381D02*
D03*
X1138276Y807581D02*
D03*
X1226336Y743432D02*
D03*
X1223876Y752581D02*
D03*
X1090512Y759381D02*
D03*
X1078895Y734758D02*
D03*
X1143137Y807021D02*
D03*
X1115198Y804100D02*
D03*
X1216476Y767981D02*
D03*
X1216976Y763681D02*
D03*
X1201576Y762981D02*
D03*
X1212576Y752781D02*
D03*
X1221836Y793447D02*
D03*
X1136666Y748241D02*
D03*
X1142296Y748221D02*
D03*
X1223319Y795180D02*
D03*
X1219976Y815381D02*
D03*
X1122476Y717381D02*
D03*
X1090787Y728615D02*
D03*
X1090721Y726336D02*
D03*
X1104576Y735081D02*
D03*
X1146076Y739411D02*
D03*
X1193116Y722331D02*
D03*
X1237076Y746681D02*
D03*
X1059976Y719981D02*
D03*
X1059834Y706775D02*
D03*
X1053776Y725981D02*
D03*
X1057576Y722781D02*
D03*
X1049976Y726381D02*
D03*
X1044976D02*
D03*
X1036976Y720381D02*
D03*
X1236476Y760601D02*
D03*
X1229866Y760881D02*
D03*
X1212576Y754981D02*
D03*
X1201176Y760981D02*
D03*
X1171536Y756221D02*
D03*
X1166666Y756051D02*
D03*
X1161826D02*
D03*
X1156806Y755971D02*
D03*
X1114476Y756181D02*
D03*
X1110916Y763442D02*
D03*
X1118698Y765303D02*
D03*
X1181726Y747561D02*
D03*
X1183276Y724481D02*
D03*
X1202899Y720207D02*
D03*
X1209776Y743481D02*
D03*
X1211676Y745481D02*
D03*
X1134276Y760881D02*
D03*
X1136776Y760981D02*
D03*
X1131776Y760881D02*
D03*
X1134166Y748861D02*
D03*
X1120016Y738341D02*
D03*
X1117936Y736511D02*
D03*
X1126286Y748891D02*
D03*
X1127976Y748881D02*
D03*
X1187761Y749668D02*
D03*
X1036976Y789381D02*
D03*
Y784381D02*
D03*
Y778381D02*
D03*
Y773381D02*
D03*
Y758381D02*
D03*
Y731381D02*
D03*
Y726381D02*
D03*
X1055976Y702381D02*
D03*
X1039976Y723381D02*
D03*
X1248976Y701381D02*
D03*
X1254976D02*
D03*
X1265976D02*
D03*
X1269076Y702281D02*
D03*
X1266176Y705081D02*
D03*
X1285076Y723681D02*
D03*
X1287476Y720981D02*
D03*
X1288976Y737381D02*
D03*
X1288676Y749781D02*
D03*
X1288976Y770381D02*
D03*
Y776381D02*
D03*
Y791381D02*
D03*
Y802381D02*
D03*
X1265976Y815381D02*
D03*
X1255976D02*
D03*
X1183976D02*
D03*
X1176976D02*
D03*
X1169976D02*
D03*
X1161976D02*
D03*
X1154976D02*
D03*
X1147976D02*
D03*
X1095976Y813381D02*
D03*
X1059702Y810643D02*
D03*
X1060976Y798381D02*
D03*
X1052976Y791381D02*
D03*
X1046976Y790381D02*
D03*
X1036976Y796381D02*
D03*
X1067576Y714187D02*
D03*
X1093166Y712218D02*
D03*
Y708281D02*
D03*
X1102476Y712681D02*
D03*
X1110876Y704981D02*
D03*
X1124676Y705081D02*
D03*
X1133576Y720081D02*
D03*
Y716981D02*
D03*
X1164032Y712218D02*
D03*
X1193560Y710250D02*
D03*
X1191493Y706313D02*
D03*
X1201434Y710250D02*
D03*
X1213245Y720092D02*
D03*
Y716155D02*
D03*
X1166636Y752337D02*
D03*
X1171507D02*
D03*
X1229912Y763793D02*
D03*
X1236473D02*
D03*
X1229912Y767730D02*
D03*
X1236473D02*
D03*
X1216788Y771667D02*
D03*
X1229912D02*
D03*
X1236473D02*
D03*
X1077468Y768279D02*
D03*
X1077406Y764465D02*
D03*
X1077437Y760651D02*
D03*
X1234257Y743904D02*
D03*
X1223350Y771667D02*
D03*
Y767730D02*
D03*
X1156894Y752337D02*
D03*
X1171547Y748484D02*
D03*
X1149266Y722740D02*
D03*
X1225676Y752581D02*
D03*
X1235128Y724782D02*
D03*
X1232401Y724837D02*
D03*
X1177639Y734856D02*
D03*
X1232733Y707592D02*
D03*
X1089890Y751697D02*
D03*
X1171376Y710781D02*
D03*
X1097576Y712981D02*
D03*
X1071513Y722061D02*
D03*
Y714187D02*
D03*
Y718124D02*
D03*
X1154976Y704881D02*
D03*
X1106976Y701181D02*
D03*
X1112976D02*
D03*
X1123976D02*
D03*
X1150276Y704881D02*
D03*
X1059976Y701381D02*
D03*
X1073976Y701181D02*
D03*
X1087976D02*
D03*
X1175070Y721835D02*
D03*
X1103698Y782494D02*
D03*
X1127028Y789786D02*
D03*
X1057696Y773969D02*
D03*
X1060686Y770584D02*
D03*
X1058028Y749817D02*
D03*
X1057947Y747113D02*
D03*
X1057160Y753917D02*
D03*
X1254356Y793372D02*
D03*
X1249003Y793278D02*
D03*
X1287307Y762684D02*
D03*
X1287401Y754275D02*
D03*
X1273031Y754181D02*
D03*
X1287606Y787294D02*
D03*
X1287401Y779094D02*
D03*
X1272913Y806547D02*
D03*
X1287395Y806333D02*
D03*
X1261885Y791795D02*
D03*
X1256576Y793381D02*
D03*
X1264823Y782990D02*
D03*
X1129576Y760881D02*
D03*
X1128676Y763881D02*
D03*
X1123882Y765471D02*
D03*
X1112269Y770446D02*
D03*
X1120976Y815381D02*
D03*
X1133976D02*
D03*
X1126976D02*
D03*
X1041788Y774915D02*
D03*
X1041872Y771924D02*
D03*
X1052242Y774900D02*
D03*
X1052107Y771834D02*
D03*
X1047508Y774855D02*
D03*
Y771699D02*
D03*
X1068805Y771742D02*
D03*
X1064582Y739421D02*
D03*
X1231166Y751886D02*
D03*
X1080335Y740144D02*
D03*
X1083324Y738005D02*
D03*
X1171576Y724381D02*
D03*
X1174976Y714381D02*
D03*
X1064165Y721342D02*
D03*
X1060839Y724745D02*
D03*
X1056161Y729239D02*
D03*
X1036976Y739381D02*
D03*
X1050723Y729067D02*
D03*
X1036976Y760381D02*
D03*
Y767381D02*
D03*
Y762381D02*
D03*
X1050676Y749581D02*
D03*
Y747581D02*
D03*
X1042065Y778236D02*
D03*
X1047662Y778310D02*
D03*
X1053149Y778383D02*
D03*
X1055376Y766081D02*
D03*
X1041676Y749481D02*
D03*
Y747581D02*
D03*
X1036976Y741381D02*
D03*
Y752381D02*
D03*
Y737381D02*
D03*
Y746381D02*
D03*
X1183225Y708084D02*
D03*
X1173376Y712781D02*
D03*
X1169076Y726681D02*
D03*
X1165676Y723281D02*
D03*
X1201926Y707592D02*
D03*
X1176976Y701381D02*
D03*
X1170627Y705624D02*
D03*
X1180579Y711174D02*
D03*
X1056022Y757819D02*
D03*
X1151615Y722646D02*
D03*
X1122694Y710250D02*
D03*
X1112851D02*
D03*
X1153009Y724570D02*
D03*
X1159458D02*
D03*
X1150530D02*
D03*
X1155908D02*
D03*
X1240823Y704324D02*
D03*
X1241477Y709895D02*
D03*
X1200976Y701381D02*
D03*
X1237976D02*
D03*
X1232976D02*
D03*
X1221976D02*
D03*
X1214976D02*
D03*
X1207976D02*
D03*
X1176729Y722946D02*
D03*
X1183276Y734981D02*
D03*
X1123676Y746401D02*
D03*
X1129876Y731481D02*
D03*
X1073340Y725466D02*
D03*
X1078993Y737809D02*
D03*
X1083473Y734716D02*
D03*
X1081192Y736301D02*
D03*
X1099176Y725281D02*
D03*
X1084476Y715381D02*
D03*
X1072604Y710000D02*
D03*
X1072515Y706709D02*
D03*
X1082657Y710292D02*
D03*
X1082561Y706602D02*
D03*
X1102522Y716079D02*
D03*
X1112629Y716222D02*
D03*
X1120549Y714742D02*
D03*
X1134704Y714853D02*
D03*
X1142776Y710281D02*
D03*
X1142783Y707346D02*
D03*
X1152676Y709381D02*
D03*
X1152776Y704881D02*
D03*
X1080976Y701181D02*
D03*
X1094776D02*
D03*
X1100976D02*
D03*
X1282876Y749781D02*
D03*
X1270095Y749765D02*
D03*
X1264051Y749693D02*
D03*
X1266753Y751756D02*
D03*
X1288976Y739381D02*
D03*
X1280976D02*
D03*
X1272976D02*
D03*
X1270076Y743081D02*
D03*
X1266976Y741781D02*
D03*
X1256776Y742581D02*
D03*
X1270176Y794681D02*
D03*
X1264376Y794781D02*
D03*
X1184706Y806296D02*
D03*
X1167262Y808473D02*
D03*
X1162676Y716281D02*
D03*
Y720281D02*
D03*
X1091134Y793955D02*
D03*
X1085776Y794481D02*
D03*
X1077576Y794181D02*
D03*
X1091134Y788895D02*
D03*
X1095875Y797311D02*
D03*
X1057976Y740581D02*
D03*
X1064076Y724981D02*
D03*
X1073438Y716144D02*
D03*
X1189582Y770851D02*
D03*
X1189576Y773781D02*
D03*
X1197776Y781481D02*
D03*
X1195676D02*
D03*
X1188576Y780081D02*
D03*
X1190376D02*
D03*
X1256276Y769581D02*
D03*
X1250176Y769181D02*
D03*
X1043576Y757281D02*
D03*
X1041676D02*
D03*
X1178175Y712775D02*
D03*
X1182976Y712581D02*
D03*
X1083176Y704981D02*
D03*
X1132476D02*
D03*
X1090976D02*
D03*
X1152676Y707081D02*
D03*
X1142776Y704881D02*
D03*
X1114876Y704981D02*
D03*
X1073476D02*
D03*
X1094476D02*
D03*
X1160876Y704881D02*
D03*
X1120776D02*
D03*
X1070776D02*
D03*
X1179793Y714690D02*
D03*
X1131858Y767443D02*
D03*
X1127776Y765981D02*
D03*
X1111468Y795562D02*
D03*
X1108342Y795654D02*
D03*
X1111000Y759829D02*
D03*
X1083121Y756501D02*
D03*
X1093811Y749391D02*
D03*
X1083177Y768279D02*
D03*
X1083146Y760651D02*
D03*
X1083115Y764465D02*
D03*
X1112469Y756231D02*
D03*
X1063771Y715830D02*
D03*
Y712287D02*
D03*
X1064165Y705594D02*
D03*
X1201566Y767011D02*
D03*
X1263976Y709681D02*
D03*
X1266576Y721781D02*
D03*
X1273188Y762621D02*
D03*
X1272981Y778820D02*
D03*
X1272913Y787363D02*
D03*
X1273876Y749881D02*
D03*
X1269435Y806038D02*
D03*
X1189202Y807577D02*
D03*
X1212976Y815381D02*
D03*
X1206976D02*
D03*
X1199976D02*
D03*
X1194976D02*
D03*
X1189976D02*
D03*
X1177944Y798507D02*
D03*
X1200523Y798817D02*
D03*
X1187787Y752444D02*
D03*
X1215776Y748081D02*
D03*
X1214165Y746539D02*
D03*
X1213377Y742264D02*
D03*
X1214276Y738681D02*
D03*
X1172797Y769701D02*
D03*
X1287476Y783181D02*
D03*
X1287276Y758281D02*
D03*
X1287576Y734881D02*
D03*
X1287276Y726981D02*
D03*
X1164776Y701181D02*
D03*
X1158976D02*
D03*
X1147776D02*
D03*
X1141776D02*
D03*
X1200576Y794481D02*
D03*
X1218776Y722181D02*
D03*
X1222176Y724581D02*
D03*
X1219876Y714681D02*
D03*
X1183276Y729781D02*
D03*
X1177576Y732481D02*
D03*
X1183276Y732681D02*
D03*
X1177576Y729081D02*
D03*
X1180376D02*
D03*
X1180476Y732581D02*
D03*
X1180376Y734981D02*
D03*
X1181476Y724281D02*
D03*
X1169376Y722181D02*
D03*
X1232676Y705181D02*
D03*
Y709981D02*
D03*
X1236176Y713881D02*
D03*
X1240676Y713981D02*
D03*
X1243476Y716681D02*
D03*
X1243376Y719981D02*
D03*
X1228676Y722381D02*
D03*
X1227176Y724981D02*
D03*
X1208676Y756181D02*
D03*
X1217576Y752781D02*
D03*
X1215676D02*
D03*
Y750481D02*
D03*
X1212576D02*
D03*
X1210376Y753881D02*
D03*
Y751581D02*
D03*
X1207476Y750281D02*
D03*
X1207376Y753381D02*
D03*
X1207476Y747381D02*
D03*
X1210276Y748681D02*
D03*
X1203776Y751481D02*
D03*
X1203076Y746881D02*
D03*
X1115976Y738281D02*
D03*
X1119876Y734681D02*
D03*
X1115976D02*
D03*
X1111876Y736781D02*
D03*
X1114276Y734681D02*
D03*
X1119976Y740181D02*
D03*
X1108676Y739481D02*
D03*
X1111876D02*
D03*
X1108576Y736981D02*
D03*
X1125876Y746381D02*
D03*
X1127676D02*
D03*
X1129676Y748981D02*
D03*
X1109176Y751081D02*
D03*
X1112996Y743471D02*
D03*
X1057176Y764381D02*
D03*
X1050176Y769981D02*
D03*
X1047976Y768281D02*
D03*
X1043876Y767281D02*
D03*
X1082963Y742111D02*
D03*
X1243376Y760381D02*
D03*
X1262976Y746781D02*
D03*
X1258976D02*
D03*
X1254876Y746981D02*
D03*
X1255176Y748881D02*
D03*
X1253476Y742981D02*
D03*
X1250976Y745481D02*
D03*
X1250276Y749381D02*
D03*
X1250076Y758481D02*
D03*
X1249776Y755681D02*
D03*
X1254976Y757381D02*
D03*
X1250076Y766881D02*
D03*
X1252676Y766981D02*
D03*
X1252776Y769081D02*
D03*
X1060776Y783478D02*
D03*
X1172776Y809881D02*
D03*
X1251076Y734281D02*
D03*
X1253276Y734381D02*
D03*
X1255476Y734281D02*
D03*
Y731981D02*
D03*
X1253276D02*
D03*
X1251076D02*
D03*
X1257676Y730781D02*
D03*
X1268476Y738081D02*
D03*
X1265976D02*
D03*
X1257676Y738181D02*
D03*
Y735781D02*
D03*
Y733281D02*
D03*
Y728281D02*
D03*
Y725881D02*
D03*
Y723481D02*
D03*
X1255576D02*
D03*
Y725881D02*
D03*
D64*
X1129376Y795050D02*
D03*
X1121693Y783217D02*
D03*
X1225376Y783081D02*
D03*
X1226417Y782035D02*
D03*
X1242476Y799781D02*
D03*
X1244476Y801481D02*
D03*
X1246776Y800481D02*
D03*
X1246876Y799081D02*
D03*
X1119326Y777977D02*
D03*
X1123876D02*
D03*
X1232476Y739481D02*
D03*
X1235176Y739581D02*
D03*
X1233876Y739381D02*
D03*
X1247276Y732081D02*
D03*
X1243776D02*
D03*
X1242076Y730781D02*
D03*
X1245476Y733381D02*
D03*
Y730781D02*
D03*
X1249276Y730681D02*
D03*
Y733481D02*
D03*
X1254076Y739381D02*
D03*
X1256476D02*
D03*
X1256876Y736981D02*
D03*
X1255276Y739381D02*
D03*
X1249276Y735281D02*
D03*
X1231076Y731981D02*
D03*
Y730681D02*
D03*
X1230176Y731381D02*
D03*
X1143976Y785681D02*
D03*
X1254476Y733181D02*
D03*
X1252176D02*
D03*
X1237476Y741692D02*
D03*
X1230676Y739381D02*
D03*
X1230776Y735381D02*
D03*
X1242176Y736681D02*
D03*
X1241176D02*
D03*
Y737781D02*
D03*
X1242176D02*
D03*
X1190376Y738981D02*
D03*
X1206276Y743181D02*
D03*
X1202276D02*
D03*
X1198976D02*
D03*
X1195376Y743281D02*
D03*
X1192876Y741781D02*
D03*
X1209676Y739981D02*
D03*
X1206176D02*
D03*
X1203376D02*
D03*
X1200876D02*
D03*
X1198076D02*
D03*
X1195776D02*
D03*
X1194776Y738981D02*
D03*
X1188276Y732481D02*
D03*
X1186876Y730881D02*
D03*
X1171104Y797389D02*
D03*
X1151976Y793481D02*
D03*
X1216676Y783881D02*
D03*
X1151876Y782881D02*
D03*
Y784381D02*
D03*
X1149076Y782881D02*
D03*
X1147576Y782981D02*
D03*
Y784481D02*
D03*
X1145576Y781981D02*
D03*
X1201245Y765084D02*
D03*
X1178876Y765396D02*
D03*
X1198876Y771681D02*
D03*
X1192899Y765662D02*
D03*
X1206876Y795381D02*
D03*
X1208576Y795281D02*
D03*
X1189276Y796381D02*
D03*
X1181076Y800281D02*
D03*
X1182576D02*
D03*
X1181076Y801681D02*
D03*
X1182676D02*
D03*
X1188476Y785881D02*
D03*
X1185076Y789281D02*
D03*
X1198076Y783181D02*
D03*
Y784981D02*
D03*
X1197276Y790081D02*
D03*
X1198976Y789581D02*
D03*
X1199276Y788281D02*
D03*
X1203376Y789181D02*
D03*
X1205976D02*
D03*
X1212476Y789381D02*
D03*
X1209876Y789181D02*
D03*
X1113276Y775281D02*
D03*
Y769081D02*
D03*
Y765581D02*
D03*
X1114476Y761681D02*
D03*
X1116676Y759081D02*
D03*
X1119976Y757381D02*
D03*
X1123876Y757181D02*
D03*
X1127976D02*
D03*
X1131776D02*
D03*
X1136276D02*
D03*
X1141076D02*
D03*
X1145876D02*
D03*
X1147976D02*
D03*
X1151076D02*
D03*
X1154976D02*
D03*
X1159476D02*
D03*
X1164476D02*
D03*
X1169876D02*
D03*
X1175376D02*
D03*
X1178476D02*
D03*
X1181476D02*
D03*
X1185076D02*
D03*
X1188376D02*
D03*
X1191976D02*
D03*
X1195576D02*
D03*
X1198676D02*
D03*
X1201976D02*
D03*
X1206576D02*
D03*
X1218176D02*
D03*
X1222276D02*
D03*
X1226276D02*
D03*
X1230876Y757081D02*
D03*
X1235976Y769681D02*
D03*
Y765681D02*
D03*
Y762281D02*
D03*
X1234576Y758881D02*
D03*
X1211776Y760581D02*
D03*
X1207876D02*
D03*
X1204076D02*
D03*
X1198676Y760681D02*
D03*
X1195876Y760581D02*
D03*
X1192376D02*
D03*
X1188576D02*
D03*
X1185176D02*
D03*
X1181976D02*
D03*
X1178476D02*
D03*
X1175376D02*
D03*
X1137176Y762581D02*
D03*
X1133276Y762481D02*
D03*
X1127876Y760581D02*
D03*
X1124376D02*
D03*
X1120676Y760881D02*
D03*
X1118176Y762581D02*
D03*
X1116876Y765281D02*
D03*
X1160876Y795581D02*
D03*
Y794181D02*
D03*
X1162776D02*
D03*
Y795481D02*
D03*
X1160876Y788381D02*
D03*
Y786781D02*
D03*
X1162776D02*
D03*
Y788281D02*
D03*
X1160876Y782481D02*
D03*
Y780981D02*
D03*
X1162776D02*
D03*
Y782381D02*
D03*
X1160876Y775181D02*
D03*
X1162776D02*
D03*
X1160876Y773681D02*
D03*
X1162776D02*
D03*
X1161776Y778881D02*
D03*
X1161876Y777081D02*
D03*
X1146076Y770481D02*
D03*
X1143676D02*
D03*
X1140376Y769881D02*
D03*
X1138476Y770281D02*
D03*
X1117376Y776181D02*
D03*
X1118676Y779481D02*
D03*
X1114376Y783681D02*
D03*
X1112476Y781381D02*
D03*
X1112876Y779181D02*
D03*
X1112576Y803981D02*
D03*
X1115876Y802181D02*
D03*
X1116076Y800781D02*
D03*
X1116476Y803381D02*
D03*
X1116376Y805681D02*
D03*
X1118576Y807381D02*
D03*
X1121676Y804181D02*
D03*
X1123276Y803981D02*
D03*
X1125676Y804181D02*
D03*
Y805881D02*
D03*
X1127776Y807581D02*
D03*
X1129976Y805881D02*
D03*
Y804181D02*
D03*
X1131376Y804381D02*
D03*
X1133276Y803881D02*
D03*
X1136076Y804181D02*
D03*
X1137176Y801981D02*
D03*
X1136876Y799581D02*
D03*
X1126576Y798681D02*
D03*
X1135076Y792281D02*
D03*
X1127876Y799181D02*
D03*
X1131976Y799281D02*
D03*
X1135976Y782281D02*
D03*
X1138376Y781781D02*
D03*
X1135876Y784681D02*
D03*
X1138476Y785181D02*
D03*
Y796681D02*
D03*
X1140376Y797181D02*
D03*
X1143176Y796581D02*
D03*
X1148476Y797981D02*
D03*
X1149476Y798681D02*
D03*
X1151076Y791881D02*
D03*
X1151876Y789381D02*
D03*
X1152776Y795681D02*
D03*
X1155376Y796081D02*
D03*
X1158176Y795581D02*
D03*
X1158776Y792781D02*
D03*
Y789481D02*
D03*
X1154476Y773081D02*
D03*
X1158376Y773781D02*
D03*
X1158876Y776181D02*
D03*
Y778981D02*
D03*
X1157776Y782781D02*
D03*
X1153476Y782881D02*
D03*
X1157676Y786481D02*
D03*
X1155676Y786281D02*
D03*
X1153576Y785781D02*
D03*
X1174476Y771081D02*
D03*
X1179776Y774381D02*
D03*
X1182876Y778681D02*
D03*
X1185776Y779281D02*
D03*
X1177976Y775181D02*
D03*
X1180876Y773581D02*
D03*
X1182776Y772081D02*
D03*
X1184776Y773581D02*
D03*
X1185776Y774081D02*
D03*
X1187876Y774581D02*
D03*
X1193576Y779981D02*
D03*
X1195676Y779281D02*
D03*
X1197276D02*
D03*
X1200176Y779981D02*
D03*
X1202476D02*
D03*
X1234876Y783981D02*
D03*
X1235976Y779681D02*
D03*
Y775081D02*
D03*
X1220976Y778381D02*
D03*
X1203276Y774281D02*
D03*
X1205976Y774481D02*
D03*
X1209876Y774281D02*
D03*
X1212376Y774081D02*
D03*
X1214776Y773981D02*
D03*
X1179776Y779481D02*
D03*
X1178676Y779781D02*
D03*
X1170276Y773081D02*
D03*
X1168276D02*
D03*
X1165076Y774081D02*
D03*
X1164776Y776581D02*
D03*
Y779781D02*
D03*
X1165576Y782581D02*
D03*
X1168376Y782981D02*
D03*
X1171276Y782281D02*
D03*
X1170676Y795781D02*
D03*
X1167576Y796081D02*
D03*
X1165576Y795681D02*
D03*
X1164776Y792981D02*
D03*
Y789381D02*
D03*
X1165676Y786381D02*
D03*
X1168376Y786181D02*
D03*
X1172076Y789481D02*
D03*
X1171176Y785481D02*
D03*
X1179776Y783381D02*
D03*
X1178076Y782781D02*
D03*
Y784881D02*
D03*
X1178676Y787381D02*
D03*
X1180476Y789581D02*
D03*
X1172176Y793681D02*
D03*
X1175976Y795481D02*
D03*
X1177876Y795981D02*
D03*
X1182876Y791581D02*
D03*
X1187376Y791381D02*
D03*
X1194276Y791781D02*
D03*
X1184176Y797481D02*
D03*
X1187976Y795981D02*
D03*
X1194176Y795681D02*
D03*
X1204276Y798981D02*
D03*
X1206876Y797281D02*
D03*
Y791781D02*
D03*
X1216876Y793781D02*
D03*
X1217676Y787681D02*
D03*
X1219576Y787581D02*
D03*
X1220876Y785781D02*
D03*
X1134976Y789581D02*
D03*
X1157176Y801781D02*
D03*
X1160176Y801681D02*
D03*
Y805781D02*
D03*
X1157076Y805681D02*
D03*
X1148576Y805481D02*
D03*
Y801781D02*
D03*
X1145476Y805481D02*
D03*
X1157976Y766081D02*
D03*
X1156776D02*
D03*
X1153776D02*
D03*
X1156776Y762181D02*
D03*
X1153776D02*
D03*
X1156776Y769781D02*
D03*
X1153676D02*
D03*
X1145076Y766181D02*
D03*
X1142076D02*
D03*
Y769781D02*
D03*
X1145176D02*
D03*
X1145076Y762181D02*
D03*
X1142176D02*
D03*
X1141576Y760681D02*
D03*
X1144076Y760581D02*
D03*
X1148076D02*
D03*
X1151876D02*
D03*
X1231876Y761181D02*
D03*
X1232476Y763981D02*
D03*
X1232376Y766781D02*
D03*
Y769781D02*
D03*
Y772881D02*
D03*
X1231776Y777581D02*
D03*
Y778881D02*
D03*
X1230076Y778781D02*
D03*
X1208176Y780781D02*
D03*
X1209276Y779081D02*
D03*
X1209576Y780781D02*
D03*
X1210676Y779181D02*
D03*
X1210976Y780781D02*
D03*
X1212376D02*
D03*
X1212276Y784181D02*
D03*
Y785881D02*
D03*
X1229476Y786081D02*
D03*
X1237476Y785981D02*
D03*
X1235476D02*
D03*
X1226576Y794381D02*
D03*
X1228876D02*
D03*
X1231076Y793481D02*
D03*
X1234676Y793181D02*
D03*
Y791281D02*
D03*
X1236776Y791181D02*
D03*
X1239476D02*
D03*
X1242676Y790981D02*
D03*
X1244576Y785181D02*
D03*
X1246876Y787581D02*
D03*
Y790181D02*
D03*
X1246776Y793081D02*
D03*
Y795181D02*
D03*
X1238776Y793781D02*
D03*
X1239876Y796881D02*
D03*
X1249076Y795181D02*
D03*
X1248876Y798581D02*
D03*
X1252676D02*
D03*
X1252876Y795081D02*
D03*
X1256276D02*
D03*
X1260276D02*
D03*
X1156205Y731164D02*
D03*
X1140976Y782181D02*
D03*
X1141376Y783381D02*
D03*
X1140976Y784581D02*
D03*
X1145376Y785081D02*
D03*
X1208076Y783881D02*
D03*
X1197076Y773981D02*
D03*
X1197876Y774781D02*
D03*
X1197028Y775638D02*
D03*
X1197876Y776481D02*
D03*
X1227476Y783081D02*
D03*
X1150504Y782831D02*
D03*
X1149076Y784481D02*
D03*
X1150504Y784431D02*
D03*
X1161836Y774360D02*
D03*
X1161886Y775931D02*
D03*
X1161786Y772931D02*
D03*
X1161836Y781663D02*
D03*
X1161886Y783234D02*
D03*
X1161786Y780234D02*
D03*
X1172776Y783781D02*
D03*
X1173776Y782781D02*
D03*
Y784781D02*
D03*
X1175876Y782781D02*
D03*
X1176876Y783781D02*
D03*
X1175876Y784781D02*
D03*
X1174836Y783751D02*
D03*
X1216576Y725781D02*
D03*
X1148936Y791281D02*
D03*
X1161776Y786081D02*
D03*
X1161876Y789081D02*
D03*
X1161826Y787509D02*
D03*
X1161876Y793481D02*
D03*
Y796181D02*
D03*
X1161826Y794813D02*
D03*
X1149476Y800481D02*
D03*
X1237476Y799381D02*
D03*
X1111380Y783986D02*
D03*
X1114750Y787222D02*
D03*
X1130676Y744781D02*
D03*
X1202859Y752863D02*
D03*
X1147276Y776481D02*
D03*
X1142098Y752816D02*
D03*
X1231698Y782029D02*
D03*
X1231793Y780047D02*
D03*
X1194525Y731561D02*
D03*
X1209776Y745251D02*
D03*
X1120576Y799181D02*
D03*
X1128692Y744759D02*
D03*
X1137156Y752746D02*
D03*
X1150432Y745068D02*
D03*
X1149214Y745065D02*
D03*
X1150397Y743492D02*
D03*
X1149249Y743482D02*
D03*
X1132433Y752886D02*
D03*
X1149627Y752828D02*
D03*
X1127235Y752874D02*
D03*
X1116737Y768335D02*
D03*
X1235201Y753395D02*
D03*
X1159908Y735720D02*
D03*
X1156697Y732796D02*
D03*
X1156658Y735482D02*
D03*
X1164134Y735718D02*
D03*
X1159889Y733986D02*
D03*
X1224449Y776858D02*
D03*
X1226449Y776719D02*
D03*
X1120704Y784210D02*
D03*
X1122620D02*
D03*
X1122692Y782205D02*
D03*
X1120687D02*
D03*
X1123802Y783280D02*
D03*
X1127293Y783190D02*
D03*
X1116443Y785195D02*
D03*
Y783584D02*
D03*
X1126201Y779375D02*
D03*
X1117344Y779424D02*
D03*
X1118066Y788720D02*
D03*
Y786767D02*
D03*
X1130562Y784399D02*
D03*
Y782298D02*
D03*
X1133492Y784192D02*
D03*
Y782357D02*
D03*
X1133177Y772948D02*
D03*
X1135151D02*
D03*
X1137013Y772986D02*
D03*
X1136167Y773888D02*
D03*
X1136148Y771951D02*
D03*
X1134174Y773926D02*
D03*
X1134155Y772027D02*
D03*
X1138276Y773981D02*
D03*
X1126247Y774963D02*
D03*
X1124497Y772939D02*
D03*
X1118092Y796470D02*
D03*
X1120106Y796841D02*
D03*
X1121713Y796806D02*
D03*
X1123374D02*
D03*
X1124646Y796718D02*
D03*
X1124611Y797954D02*
D03*
X1124469Y799156D02*
D03*
X1121783Y799222D02*
D03*
X1120880Y797964D02*
D03*
X1123105Y798109D02*
D03*
X1126860Y796514D02*
D03*
X1131956Y793858D02*
D03*
X1127076Y797581D02*
D03*
X1125776Y797281D02*
D03*
X1132072Y795538D02*
D03*
X1138072Y795395D02*
D03*
X1135120Y794144D02*
D03*
X1133195Y794208D02*
D03*
X1136789Y794144D02*
D03*
X1135954Y795107D02*
D03*
X1136051Y793277D02*
D03*
X1134190Y795107D02*
D03*
X1134157Y793309D02*
D03*
X1138233Y793859D02*
D03*
X1157657Y800182D02*
D03*
X1131472Y769401D02*
D03*
X1174176Y794981D02*
D03*
X1181957Y798399D02*
D03*
X1184176Y795981D02*
D03*
X1179715Y796552D02*
D03*
X1187328Y798575D02*
D03*
X1189209Y800702D02*
D03*
X1190476Y796081D02*
D03*
X1185776D02*
D03*
X1192676Y795981D02*
D03*
X1179976Y791681D02*
D03*
X1184917Y790967D02*
D03*
X1189870Y790907D02*
D03*
X1188451Y789488D02*
D03*
X1186911Y787555D02*
D03*
X1187152Y784384D02*
D03*
X1183105Y787494D02*
D03*
X1195852Y789798D02*
D03*
X1194346Y788153D02*
D03*
X1201430Y789750D02*
D03*
X1208458Y789081D02*
D03*
X1210003Y783829D02*
D03*
X1196124Y776475D02*
D03*
X1208254Y773956D02*
D03*
X1209955Y771991D02*
D03*
X1208313Y770202D02*
D03*
X1217619Y791953D02*
D03*
X1219143Y789790D02*
D03*
X1216476Y787481D02*
D03*
X1212139Y779302D02*
D03*
X1212561Y787557D02*
D03*
X1212260Y791113D02*
D03*
X1208376Y791781D02*
D03*
X1194405Y790094D02*
D03*
X1227472Y781014D02*
D03*
X1225371Y780991D02*
D03*
X1224476Y787681D02*
D03*
X1223276Y785781D02*
D03*
X1223176Y778281D02*
D03*
X1220476Y777281D02*
D03*
X1217470Y774270D02*
D03*
X1220535Y773304D02*
D03*
X1219231Y775380D02*
D03*
X1218676Y776562D02*
D03*
X1256376Y798581D02*
D03*
X1260476D02*
D03*
X1264576D02*
D03*
X1265202Y801048D02*
D03*
X1269476Y801081D02*
D03*
X1269472Y803048D02*
D03*
X1265276Y802981D02*
D03*
X1267276Y794081D02*
D03*
X1280322Y791466D02*
D03*
X1279856Y802176D02*
D03*
X1231890Y786004D02*
D03*
X1241178Y785238D02*
D03*
X1249867Y763844D02*
D03*
X1245713Y774664D02*
D03*
X1241140Y780976D02*
D03*
X1236151Y750495D02*
D03*
X1226523Y750479D02*
D03*
X1218098Y750468D02*
D03*
X1197445Y752858D02*
D03*
X1224136Y746601D02*
D03*
X1234082Y746534D02*
D03*
X1243076Y749200D02*
D03*
X1116693Y772897D02*
D03*
X1112304Y776699D02*
D03*
X1113176Y772081D02*
D03*
X1160084Y737672D02*
D03*
X1158974D02*
D03*
X1157864D02*
D03*
X1138639Y735643D02*
D03*
X1135493Y735609D02*
D03*
X1135418Y738034D02*
D03*
X1136422Y739114D02*
D03*
X1135001Y739189D02*
D03*
X1129994Y770618D02*
D03*
X1126289Y770962D02*
D03*
X1182710Y752810D02*
D03*
X1160676Y766181D02*
D03*
X1160695Y763353D02*
D03*
X1160376Y799981D02*
D03*
X1207018Y779422D02*
D03*
X1150397Y741812D02*
D03*
X1154599Y740586D02*
D03*
X1149237Y741805D02*
D03*
X1150460Y739522D02*
D03*
X1219688Y752882D02*
D03*
X1227409Y752849D02*
D03*
X1193156Y752809D02*
D03*
X1198100Y788222D02*
D03*
X1202027Y792166D02*
D03*
X1199081Y792151D02*
D03*
X1198930Y796503D02*
D03*
X1202133Y796412D02*
D03*
X1158076Y733681D02*
D03*
X1150026Y775561D02*
D03*
X1172106Y775841D02*
D03*
X1174096Y790813D02*
D03*
X1187676Y736481D02*
D03*
X1191376Y735581D02*
D03*
X1193276Y737281D02*
D03*
X1189876Y734081D02*
D03*
X1185476Y734181D02*
D03*
X1186776Y728181D02*
D03*
X1183676Y727681D02*
D03*
X1186876Y726181D02*
D03*
Y723181D02*
D03*
X1185576Y721781D02*
D03*
X1184376Y716181D02*
D03*
X1180976Y720281D02*
D03*
X1181376Y722281D02*
D03*
X1184276Y720381D02*
D03*
X1211176Y757181D02*
D03*
X1123886Y744791D02*
D03*
X1096676Y771281D02*
D03*
X1098476D02*
D03*
X1099576D02*
D03*
X1096676Y768281D02*
D03*
X1098476D02*
D03*
X1100676D02*
D03*
X1096676Y769781D02*
D03*
X1100676Y769881D02*
D03*
X1096676Y759681D02*
D03*
Y756681D02*
D03*
X1100876Y756581D02*
D03*
X1100776Y759681D02*
D03*
X1098776D02*
D03*
Y756681D02*
D03*
X1096676Y758181D02*
D03*
X1100776D02*
D03*
X1086476Y763981D02*
D03*
X1080576Y764181D02*
D03*
X1084576Y764281D02*
D03*
X1086176Y766281D02*
D03*
X1087376D02*
D03*
X1088676D02*
D03*
X1085376Y761581D02*
D03*
X1086976D02*
D03*
X1088276D02*
D03*
X1080576D02*
D03*
X1075776Y764181D02*
D03*
Y761581D02*
D03*
X1092276Y761181D02*
D03*
X1093976D02*
D03*
X1091076Y761881D02*
D03*
X1089576D02*
D03*
X1095576Y766981D02*
D03*
X1094376Y766881D02*
D03*
X1092676D02*
D03*
X1091476Y766081D02*
D03*
X1095576Y761181D02*
D03*
X1090076Y766181D02*
D03*
X1175776Y763081D02*
D03*
X1175968Y752628D02*
D03*
D65*
X1110176Y813561D02*
D03*
X1248276D02*
D03*
D66*
X1039276Y780481D02*
X1042272Y783478D01*
X1039276Y739481D02*
Y780481D01*
X1042272Y783478D02*
X1060776D01*
D67*
X1104576Y735081D02*
Y749981D01*
M02*
