G04*
G04 #@! TF.GenerationSoftware,Altium Limited,CircuitStudio,1.5.2 (30)*
G04*
G04 Layer_Color=8150272*
%FSLAX25Y25*%
%MOIN*%
G70*
G01*
G75*
%ADD49C,0.00500*%
%ADD112C,0.03000*%
G04:AMPARAMS|DCode=114|XSize=26.38mil|YSize=20.47mil|CornerRadius=5.81mil|HoleSize=0mil|Usage=FLASHONLY|Rotation=270.000|XOffset=0mil|YOffset=0mil|HoleType=Round|Shape=RoundedRectangle|*
%AMROUNDEDRECTD114*
21,1,0.02638,0.00886,0,0,270.0*
21,1,0.01476,0.02047,0,0,270.0*
1,1,0.01161,-0.00443,-0.00738*
1,1,0.01161,-0.00443,0.00738*
1,1,0.01161,0.00443,0.00738*
1,1,0.01161,0.00443,-0.00738*
%
%ADD114ROUNDEDRECTD114*%
G04:AMPARAMS|DCode=117|XSize=26.38mil|YSize=22.44mil|CornerRadius=6.3mil|HoleSize=0mil|Usage=FLASHONLY|Rotation=0.000|XOffset=0mil|YOffset=0mil|HoleType=Round|Shape=RoundedRectangle|*
%AMROUNDEDRECTD117*
21,1,0.02638,0.00984,0,0,0.0*
21,1,0.01378,0.02244,0,0,0.0*
1,1,0.01260,0.00689,-0.00492*
1,1,0.01260,-0.00689,-0.00492*
1,1,0.01260,-0.00689,0.00492*
1,1,0.01260,0.00689,0.00492*
%
%ADD117ROUNDEDRECTD117*%
G04:AMPARAMS|DCode=118|XSize=26.38mil|YSize=22.44mil|CornerRadius=6.3mil|HoleSize=0mil|Usage=FLASHONLY|Rotation=270.000|XOffset=0mil|YOffset=0mil|HoleType=Round|Shape=RoundedRectangle|*
%AMROUNDEDRECTD118*
21,1,0.02638,0.00984,0,0,270.0*
21,1,0.01378,0.02244,0,0,270.0*
1,1,0.01260,-0.00492,-0.00689*
1,1,0.01260,-0.00492,0.00689*
1,1,0.01260,0.00492,0.00689*
1,1,0.01260,0.00492,-0.00689*
%
%ADD118ROUNDEDRECTD118*%
%ADD119C,0.04137*%
G04:AMPARAMS|DCode=120|XSize=26.38mil|YSize=20.47mil|CornerRadius=5.81mil|HoleSize=0mil|Usage=FLASHONLY|Rotation=180.000|XOffset=0mil|YOffset=0mil|HoleType=Round|Shape=RoundedRectangle|*
%AMROUNDEDRECTD120*
21,1,0.02638,0.00886,0,0,180.0*
21,1,0.01476,0.02047,0,0,180.0*
1,1,0.01161,-0.00738,0.00443*
1,1,0.01161,0.00738,0.00443*
1,1,0.01161,0.00738,-0.00443*
1,1,0.01161,-0.00738,-0.00443*
%
%ADD120ROUNDEDRECTD120*%
G04:AMPARAMS|DCode=121|XSize=24.41mil|YSize=20.47mil|CornerRadius=5.81mil|HoleSize=0mil|Usage=FLASHONLY|Rotation=270.000|XOffset=0mil|YOffset=0mil|HoleType=Round|Shape=RoundedRectangle|*
%AMROUNDEDRECTD121*
21,1,0.02441,0.00886,0,0,270.0*
21,1,0.01280,0.02047,0,0,270.0*
1,1,0.01161,-0.00443,-0.00640*
1,1,0.01161,-0.00443,0.00640*
1,1,0.01161,0.00443,0.00640*
1,1,0.01161,0.00443,-0.00640*
%
%ADD121ROUNDEDRECTD121*%
G04:AMPARAMS|DCode=133|XSize=24.41mil|YSize=20.47mil|CornerRadius=5.81mil|HoleSize=0mil|Usage=FLASHONLY|Rotation=0.000|XOffset=0mil|YOffset=0mil|HoleType=Round|Shape=RoundedRectangle|*
%AMROUNDEDRECTD133*
21,1,0.02441,0.00886,0,0,0.0*
21,1,0.01280,0.02047,0,0,0.0*
1,1,0.01161,0.00640,-0.00443*
1,1,0.01161,-0.00640,-0.00443*
1,1,0.01161,-0.00640,0.00443*
1,1,0.01161,0.00640,0.00443*
%
%ADD133ROUNDEDRECTD133*%
%ADD136R,0.16796X0.10792*%
%ADD137C,0.07874*%
G04:AMPARAMS|DCode=140|XSize=16.93mil|YSize=25.76mil|CornerRadius=2.09mil|HoleSize=0mil|Usage=FLASHONLY|Rotation=180.000|XOffset=0mil|YOffset=0mil|HoleType=Round|Shape=RoundedRectangle|*
%AMROUNDEDRECTD140*
21,1,0.01693,0.02158,0,0,180.0*
21,1,0.01276,0.02576,0,0,180.0*
1,1,0.00417,-0.00638,0.01079*
1,1,0.00417,0.00638,0.01079*
1,1,0.00417,0.00638,-0.01079*
1,1,0.00417,-0.00638,-0.01079*
%
%ADD140ROUNDEDRECTD140*%
G04:AMPARAMS|DCode=141|XSize=16.93mil|YSize=25.76mil|CornerRadius=2.09mil|HoleSize=0mil|Usage=FLASHONLY|Rotation=90.000|XOffset=0mil|YOffset=0mil|HoleType=Round|Shape=RoundedRectangle|*
%AMROUNDEDRECTD141*
21,1,0.01693,0.02158,0,0,90.0*
21,1,0.01276,0.02576,0,0,90.0*
1,1,0.00417,0.01079,0.00638*
1,1,0.00417,0.01079,-0.00638*
1,1,0.00417,-0.01079,-0.00638*
1,1,0.00417,-0.01079,0.00638*
%
%ADD141ROUNDEDRECTD141*%
%ADD148C,0.02662*%
%ADD149C,0.06206*%
%ADD150R,0.06206X0.06206*%
%ADD151C,0.22000*%
%ADD152C,0.23748*%
%ADD153C,0.05418*%
G04:AMPARAMS|DCode=155|XSize=42.37mil|YSize=40.4mil|CornerRadius=3.37mil|HoleSize=0mil|Usage=FLASHONLY|Rotation=90.000|XOffset=0mil|YOffset=0mil|HoleType=Round|Shape=RoundedRectangle|*
%AMROUNDEDRECTD155*
21,1,0.04237,0.03366,0,0,90.0*
21,1,0.03563,0.04040,0,0,90.0*
1,1,0.00674,0.01683,0.01782*
1,1,0.00674,0.01683,-0.01782*
1,1,0.00674,-0.01683,-0.01782*
1,1,0.00674,-0.01683,0.01782*
%
%ADD155ROUNDEDRECTD155*%
G04:AMPARAMS|DCode=156|XSize=42.37mil|YSize=40.4mil|CornerRadius=3.37mil|HoleSize=0mil|Usage=FLASHONLY|Rotation=180.000|XOffset=0mil|YOffset=0mil|HoleType=Round|Shape=RoundedRectangle|*
%AMROUNDEDRECTD156*
21,1,0.04237,0.03366,0,0,180.0*
21,1,0.03563,0.04040,0,0,180.0*
1,1,0.00674,-0.01782,0.01683*
1,1,0.00674,0.01782,0.01683*
1,1,0.00674,0.01782,-0.01683*
1,1,0.00674,-0.01782,-0.01683*
%
%ADD156ROUNDEDRECTD156*%
%ADD157O,0.01284X0.03450*%
%ADD158O,0.03450X0.01284*%
%ADD159R,0.14867X0.14867*%
G04:AMPARAMS|DCode=160|XSize=227.41mil|YSize=227.41mil|CornerRadius=7.11mil|HoleSize=0mil|Usage=FLASHONLY|Rotation=90.000|XOffset=0mil|YOffset=0mil|HoleType=Round|Shape=RoundedRectangle|*
%AMROUNDEDRECTD160*
21,1,0.22741,0.21319,0,0,90.0*
21,1,0.21319,0.22741,0,0,90.0*
1,1,0.01422,0.10659,0.10659*
1,1,0.01422,0.10659,-0.10659*
1,1,0.01422,-0.10659,-0.10659*
1,1,0.01422,-0.10659,0.10659*
%
%ADD160ROUNDEDRECTD160*%
G04:AMPARAMS|DCode=161|XSize=36.47mil|YSize=14.81mil|CornerRadius=6.22mil|HoleSize=0mil|Usage=FLASHONLY|Rotation=90.000|XOffset=0mil|YOffset=0mil|HoleType=Round|Shape=RoundedRectangle|*
%AMROUNDEDRECTD161*
21,1,0.03647,0.00236,0,0,90.0*
21,1,0.02402,0.01481,0,0,90.0*
1,1,0.01245,0.00118,0.01201*
1,1,0.01245,0.00118,-0.01201*
1,1,0.01245,-0.00118,-0.01201*
1,1,0.01245,-0.00118,0.01201*
%
%ADD161ROUNDEDRECTD161*%
G04:AMPARAMS|DCode=162|XSize=36.47mil|YSize=14.81mil|CornerRadius=6.22mil|HoleSize=0mil|Usage=FLASHONLY|Rotation=180.000|XOffset=0mil|YOffset=0mil|HoleType=Round|Shape=RoundedRectangle|*
%AMROUNDEDRECTD162*
21,1,0.03647,0.00236,0,0,180.0*
21,1,0.02402,0.01481,0,0,180.0*
1,1,0.01245,-0.01201,0.00118*
1,1,0.01245,0.01201,0.00118*
1,1,0.01245,0.01201,-0.00118*
1,1,0.01245,-0.01201,-0.00118*
%
%ADD162ROUNDEDRECTD162*%
G04:AMPARAMS|DCode=163|XSize=176.23mil|YSize=176.23mil|CornerRadius=5.83mil|HoleSize=0mil|Usage=FLASHONLY|Rotation=180.000|XOffset=0mil|YOffset=0mil|HoleType=Round|Shape=RoundedRectangle|*
%AMROUNDEDRECTD163*
21,1,0.17623,0.16457,0,0,180.0*
21,1,0.16457,0.17623,0,0,180.0*
1,1,0.01166,-0.08228,0.08228*
1,1,0.01166,0.08228,0.08228*
1,1,0.01166,0.08228,-0.08228*
1,1,0.01166,-0.08228,-0.08228*
%
%ADD163ROUNDEDRECTD163*%
G04:AMPARAMS|DCode=164|XSize=18.75mil|YSize=11.66mil|CornerRadius=2.37mil|HoleSize=0mil|Usage=FLASHONLY|Rotation=270.000|XOffset=0mil|YOffset=0mil|HoleType=Round|Shape=RoundedRectangle|*
%AMROUNDEDRECTD164*
21,1,0.01875,0.00693,0,0,270.0*
21,1,0.01402,0.01166,0,0,270.0*
1,1,0.00473,-0.00347,-0.00701*
1,1,0.00473,-0.00347,0.00701*
1,1,0.00473,0.00347,0.00701*
1,1,0.00473,0.00347,-0.00701*
%
%ADD164ROUNDEDRECTD164*%
G04:AMPARAMS|DCode=165|XSize=18.75mil|YSize=11.66mil|CornerRadius=2.37mil|HoleSize=0mil|Usage=FLASHONLY|Rotation=0.000|XOffset=0mil|YOffset=0mil|HoleType=Round|Shape=RoundedRectangle|*
%AMROUNDEDRECTD165*
21,1,0.01875,0.00693,0,0,0.0*
21,1,0.01402,0.01166,0,0,0.0*
1,1,0.00473,0.00701,-0.00347*
1,1,0.00473,-0.00701,-0.00347*
1,1,0.00473,-0.00701,0.00347*
1,1,0.00473,0.00701,0.00347*
%
%ADD165ROUNDEDRECTD165*%
G04:AMPARAMS|DCode=166|XSize=59.09mil|YSize=55.15mil|CornerRadius=6.32mil|HoleSize=0mil|Usage=FLASHONLY|Rotation=180.000|XOffset=0mil|YOffset=0mil|HoleType=Round|Shape=RoundedRectangle|*
%AMROUNDEDRECTD166*
21,1,0.05909,0.04252,0,0,180.0*
21,1,0.04646,0.05515,0,0,180.0*
1,1,0.01263,-0.02323,0.02126*
1,1,0.01263,0.02323,0.02126*
1,1,0.01263,0.02323,-0.02126*
1,1,0.01263,-0.02323,-0.02126*
%
%ADD166ROUNDEDRECTD166*%
G04:AMPARAMS|DCode=167|XSize=31.53mil|YSize=13.81mil|CornerRadius=3.95mil|HoleSize=0mil|Usage=FLASHONLY|Rotation=270.000|XOffset=0mil|YOffset=0mil|HoleType=Round|Shape=RoundedRectangle|*
%AMROUNDEDRECTD167*
21,1,0.03153,0.00591,0,0,270.0*
21,1,0.02363,0.01381,0,0,270.0*
1,1,0.00791,-0.00295,-0.01181*
1,1,0.00791,-0.00295,0.01181*
1,1,0.00791,0.00295,0.01181*
1,1,0.00791,0.00295,-0.01181*
%
%ADD167ROUNDEDRECTD167*%
G04:AMPARAMS|DCode=168|XSize=28.59mil|YSize=16.78mil|CornerRadius=2.88mil|HoleSize=0mil|Usage=FLASHONLY|Rotation=180.000|XOffset=0mil|YOffset=0mil|HoleType=Round|Shape=RoundedRectangle|*
%AMROUNDEDRECTD168*
21,1,0.02859,0.01102,0,0,180.0*
21,1,0.02284,0.01678,0,0,180.0*
1,1,0.00576,-0.01142,0.00551*
1,1,0.00576,0.01142,0.00551*
1,1,0.00576,0.01142,-0.00551*
1,1,0.00576,-0.01142,-0.00551*
%
%ADD168ROUNDEDRECTD168*%
G04:AMPARAMS|DCode=169|XSize=28.59mil|YSize=16.78mil|CornerRadius=2.88mil|HoleSize=0mil|Usage=FLASHONLY|Rotation=90.000|XOffset=0mil|YOffset=0mil|HoleType=Round|Shape=RoundedRectangle|*
%AMROUNDEDRECTD169*
21,1,0.02859,0.01102,0,0,90.0*
21,1,0.02284,0.01678,0,0,90.0*
1,1,0.00576,0.00551,0.01142*
1,1,0.00576,0.00551,-0.01142*
1,1,0.00576,-0.00551,-0.01142*
1,1,0.00576,-0.00551,0.01142*
%
%ADD169ROUNDEDRECTD169*%
G04:AMPARAMS|DCode=170|XSize=67.96mil|YSize=32.92mil|CornerRadius=3mil|HoleSize=0mil|Usage=FLASHONLY|Rotation=90.000|XOffset=0mil|YOffset=0mil|HoleType=Round|Shape=RoundedRectangle|*
%AMROUNDEDRECTD170*
21,1,0.06796,0.02693,0,0,90.0*
21,1,0.06197,0.03292,0,0,90.0*
1,1,0.00599,0.01347,0.03098*
1,1,0.00599,0.01347,-0.03098*
1,1,0.00599,-0.01347,-0.03098*
1,1,0.00599,-0.01347,0.03098*
%
%ADD170ROUNDEDRECTD170*%
G04:AMPARAMS|DCode=171|XSize=38.19mil|YSize=46.06mil|CornerRadius=2.26mil|HoleSize=0mil|Usage=FLASHONLY|Rotation=0.000|XOffset=0mil|YOffset=0mil|HoleType=Round|Shape=RoundedRectangle|*
%AMROUNDEDRECTD171*
21,1,0.03819,0.04154,0,0,0.0*
21,1,0.03366,0.04606,0,0,0.0*
1,1,0.00453,0.01683,-0.02077*
1,1,0.00453,-0.01683,-0.02077*
1,1,0.00453,-0.01683,0.02077*
1,1,0.00453,0.01683,0.02077*
%
%ADD171ROUNDEDRECTD171*%
G04:AMPARAMS|DCode=172|XSize=68mil|YSize=33mil|CornerRadius=4.5mil|HoleSize=0mil|Usage=FLASHONLY|Rotation=180.000|XOffset=0mil|YOffset=0mil|HoleType=Round|Shape=RoundedRectangle|*
%AMROUNDEDRECTD172*
21,1,0.06800,0.02400,0,0,180.0*
21,1,0.05900,0.03300,0,0,180.0*
1,1,0.00900,-0.02950,0.01200*
1,1,0.00900,0.02950,0.01200*
1,1,0.00900,0.02950,-0.01200*
1,1,0.00900,-0.02950,-0.01200*
%
%ADD172ROUNDEDRECTD172*%
G04:AMPARAMS|DCode=173|XSize=26.38mil|YSize=20.47mil|CornerRadius=5.81mil|HoleSize=0mil|Usage=FLASHONLY|Rotation=225.000|XOffset=0mil|YOffset=0mil|HoleType=Round|Shape=RoundedRectangle|*
%AMROUNDEDRECTD173*
21,1,0.02638,0.00886,0,0,225.0*
21,1,0.01476,0.02047,0,0,225.0*
1,1,0.01161,-0.00835,-0.00209*
1,1,0.01161,0.00209,0.00835*
1,1,0.01161,0.00835,0.00209*
1,1,0.01161,-0.00209,-0.00835*
%
%ADD173ROUNDEDRECTD173*%
G36*
X1051006Y763781D02*
X1049306D01*
Y763881D01*
X1050206Y764781D01*
Y765081D01*
X1049306Y765981D01*
Y766081D01*
X1051006D01*
Y763781D01*
D02*
G37*
G36*
X1156676Y786681D02*
X1154376D01*
Y788381D01*
X1154476D01*
X1155376Y787481D01*
X1155676D01*
X1156576Y788381D01*
X1156676D01*
Y786681D01*
D02*
G37*
G36*
X1159876D02*
X1157576D01*
Y788381D01*
X1157676D01*
X1158576Y787481D01*
X1158876D01*
X1159776Y788381D01*
X1159876D01*
Y786681D01*
D02*
G37*
G36*
X1060946Y763551D02*
Y763251D01*
X1059946Y762251D01*
X1059146D01*
Y764551D01*
X1059946D01*
X1060946Y763551D01*
D02*
G37*
G36*
X1062706Y762251D02*
X1061006D01*
Y762351D01*
X1061906Y763251D01*
Y763551D01*
X1061006Y764451D01*
Y764551D01*
X1062706D01*
Y762251D01*
D02*
G37*
G36*
X1049246Y765081D02*
Y764781D01*
X1048246Y763781D01*
X1047446D01*
Y766081D01*
X1048246D01*
X1049246Y765081D01*
D02*
G37*
G36*
X1159876Y789281D02*
X1158876Y788281D01*
X1158576D01*
X1157576Y789281D01*
Y790081D01*
X1159876D01*
Y789281D01*
D02*
G37*
G36*
X1163076D02*
X1162076Y788281D01*
X1161776D01*
X1160776Y789281D01*
Y790081D01*
X1163076D01*
Y789281D01*
D02*
G37*
G36*
X1166476D02*
X1165476Y788281D01*
X1165176D01*
X1164176Y789281D01*
Y790081D01*
X1166476D01*
Y789281D01*
D02*
G37*
G36*
X1163076Y786681D02*
X1160776D01*
Y788381D01*
X1160876D01*
X1161776Y787481D01*
X1162076D01*
X1162976Y788381D01*
X1163076D01*
Y786681D01*
D02*
G37*
G36*
X1166476D02*
X1164176D01*
Y788381D01*
X1164276D01*
X1165176Y787481D01*
X1165476D01*
X1166376Y788381D01*
X1166476D01*
Y786681D01*
D02*
G37*
G36*
X1156676Y789281D02*
X1155676Y788281D01*
X1155376D01*
X1154376Y789281D01*
Y790081D01*
X1156676D01*
Y789281D01*
D02*
G37*
D49*
X1276749Y699502D02*
G03*
X1290528Y713281I0J13780D01*
G01*
X1034623Y712769D02*
G03*
X1047891Y699502I13268J0D01*
G01*
X1048995Y817730D02*
G03*
X1034623Y803358I0J-14372D01*
G01*
X1290528Y813564D02*
G03*
X1286362Y817730I-4166J0D01*
G01*
X1047891Y699502D02*
X1276749Y699502D01*
X1034623Y712769D02*
X1034623Y796470D01*
X1290528Y718006D02*
Y767631D01*
X1084591Y815466D02*
X1107961D01*
X1034623Y796470D02*
Y803358D01*
X1290528Y713281D02*
Y718006D01*
X1110224Y817730D02*
X1286362D01*
X1290528Y767631D02*
Y813564D01*
X1082327Y817730D02*
X1084591Y815466D01*
X1048995Y817730D02*
X1082327D01*
X1107961Y815466D02*
X1110224Y817730D01*
D112*
X1131456Y803481D02*
G03*
X1121726Y793751I0J-9730D01*
G01*
X1090026Y801081D02*
X1103626D01*
X1131456Y803481D02*
X1238126D01*
X1121726Y779881D02*
Y793751D01*
X1248676Y726181D02*
X1269726D01*
X1222476D02*
X1248676D01*
X1037476D02*
X1098976D01*
X1142742Y813781D02*
X1160530D01*
X1183382D01*
X1084476D02*
X1114776D01*
X1205176Y726181D02*
X1222476D01*
X1269726Y769281D02*
Y813781D01*
Y726181D02*
Y769281D01*
X1183382Y813781D02*
X1221551D01*
X1269726D01*
X1077976D02*
X1084476D01*
X1053976Y789781D02*
X1077976Y813781D01*
X1037476Y752906D02*
Y762781D01*
Y726181D02*
Y737381D01*
Y752906D01*
X1114776Y813781D02*
X1142742D01*
X1037476Y762781D02*
Y773281D01*
X1053976Y789781D01*
D114*
X1246776Y800081D02*
D03*
X1242776D02*
D03*
X1246776Y803581D02*
D03*
X1242776D02*
D03*
X1051556Y764911D02*
D03*
X1047556D02*
D03*
X1259976Y778981D02*
D03*
X1255976D02*
D03*
X1259926Y773931D02*
D03*
X1255926D02*
D03*
X1266676Y770681D02*
D03*
X1262676D02*
D03*
X1266676Y773881D02*
D03*
X1262676D02*
D03*
X1194059Y756795D02*
D03*
X1194035Y753557D02*
D03*
X1190059Y749118D02*
D03*
X1194059D02*
D03*
X1083587Y745486D02*
D03*
X1087587D02*
D03*
X1101776Y752281D02*
D03*
X1105776D02*
D03*
X1190059Y745870D02*
D03*
X1194059D02*
D03*
X1140566Y739411D02*
D03*
X1144566D02*
D03*
X1083587Y749029D02*
D03*
X1087587D02*
D03*
X1140576Y736181D02*
D03*
X1144576D02*
D03*
X1190059Y756795D02*
D03*
X1190035Y753557D02*
D03*
D117*
X1236076Y798550D02*
D03*
Y794613D02*
D03*
X1137806Y739940D02*
D03*
Y736003D02*
D03*
X1134506Y739920D02*
D03*
Y735983D02*
D03*
X1199991Y787484D02*
D03*
Y791421D02*
D03*
X1085876Y738413D02*
D03*
Y742350D02*
D03*
X1090776Y775150D02*
D03*
Y771213D02*
D03*
X1111976Y730743D02*
D03*
Y734680D02*
D03*
X1244141Y741698D02*
D03*
Y737761D02*
D03*
X1240204Y745635D02*
D03*
Y749572D02*
D03*
X1236076Y787913D02*
D03*
Y791850D02*
D03*
X1247103Y777572D02*
D03*
Y781509D02*
D03*
X1222276Y744713D02*
D03*
Y748650D02*
D03*
X1232330Y749572D02*
D03*
Y745635D02*
D03*
X1212251Y792879D02*
D03*
Y788942D02*
D03*
X1208708D02*
D03*
Y792879D02*
D03*
X1156175Y768727D02*
D03*
Y772664D02*
D03*
X1147876Y739550D02*
D03*
Y735613D02*
D03*
X1172376Y734150D02*
D03*
Y730213D02*
D03*
X1164032Y773242D02*
D03*
Y769305D02*
D03*
X1060176Y746050D02*
D03*
Y742113D02*
D03*
X1076076Y780450D02*
D03*
Y776513D02*
D03*
X1079239Y780427D02*
D03*
Y776490D02*
D03*
X1070479Y746027D02*
D03*
Y742090D02*
D03*
X1077172D02*
D03*
Y746027D02*
D03*
X1080322Y742090D02*
D03*
Y746027D02*
D03*
X1227976Y738750D02*
D03*
Y734813D02*
D03*
X1090410Y745289D02*
D03*
Y749226D02*
D03*
X1069876Y787250D02*
D03*
Y783313D02*
D03*
X1252676Y755350D02*
D03*
Y751413D02*
D03*
X1236070Y749572D02*
D03*
Y745635D02*
D03*
X1250253Y777572D02*
D03*
Y781509D02*
D03*
X1251631Y799620D02*
D03*
Y803557D02*
D03*
D118*
X1180607Y790081D02*
D03*
X1184544D02*
D03*
X1048344Y749181D02*
D03*
X1044407D02*
D03*
X1070444Y790381D02*
D03*
X1066507D02*
D03*
X1048344Y742381D02*
D03*
X1044407D02*
D03*
X1048344Y745781D02*
D03*
X1044407D02*
D03*
X1059207Y763381D02*
D03*
X1063144D02*
D03*
X1240204Y741698D02*
D03*
X1236267D02*
D03*
X1232527Y741895D02*
D03*
X1228590D02*
D03*
X1207724Y766305D02*
D03*
X1203787D02*
D03*
X1229144Y794981D02*
D03*
X1225207D02*
D03*
X1219444Y789181D02*
D03*
X1215507D02*
D03*
X1219444Y792781D02*
D03*
X1215507D02*
D03*
X1232744Y791681D02*
D03*
X1228807D02*
D03*
X1232744Y788181D02*
D03*
X1228807D02*
D03*
X1215507Y796381D02*
D03*
X1219444D02*
D03*
X1144944Y759781D02*
D03*
X1141007D02*
D03*
X1143107Y747081D02*
D03*
X1147044D02*
D03*
X1063146Y760053D02*
D03*
X1059209D02*
D03*
X1059207Y756681D02*
D03*
X1063144D02*
D03*
X1060007Y750081D02*
D03*
X1063944D02*
D03*
X1074022Y738940D02*
D03*
X1070085D02*
D03*
X1097792Y759757D02*
D03*
X1093855D02*
D03*
X1084807Y778681D02*
D03*
X1088744D02*
D03*
X1067207Y776581D02*
D03*
X1071144D02*
D03*
X1067207Y779981D02*
D03*
X1071144D02*
D03*
X1097792Y755919D02*
D03*
X1093855D02*
D03*
X1097792Y752080D02*
D03*
X1093855D02*
D03*
X1127615Y761234D02*
D03*
X1123678D02*
D03*
X1081344Y807231D02*
D03*
X1077407D02*
D03*
X1109603Y782494D02*
D03*
X1105666D02*
D03*
X1109603Y779049D02*
D03*
X1105666D02*
D03*
X1109579Y775662D02*
D03*
X1105642D02*
D03*
D119*
X1259076Y808281D02*
D03*
X1223876Y740681D02*
D03*
D120*
X1249476Y737681D02*
D03*
Y741681D02*
D03*
X1124026Y734531D02*
D03*
Y730531D02*
D03*
X1127226Y734531D02*
D03*
Y730531D02*
D03*
X1163926Y777531D02*
D03*
Y781531D02*
D03*
X1165316Y786401D02*
D03*
Y790401D02*
D03*
X1161956Y786401D02*
D03*
Y790401D02*
D03*
X1158716Y786391D02*
D03*
Y790391D02*
D03*
X1155536Y786411D02*
D03*
Y790411D02*
D03*
X1196956Y753243D02*
D03*
Y757243D02*
D03*
X1196956Y745566D02*
D03*
Y749566D02*
D03*
X1218876Y748681D02*
D03*
Y744681D02*
D03*
X1104976Y727281D02*
D03*
Y731281D02*
D03*
X1073876Y746081D02*
D03*
Y742081D02*
D03*
X1067076D02*
D03*
Y746081D02*
D03*
X1063576D02*
D03*
Y742081D02*
D03*
X1226425Y745604D02*
D03*
Y749604D02*
D03*
X1097976Y767581D02*
D03*
Y763581D02*
D03*
D121*
X1063203Y783681D02*
D03*
X1066549D02*
D03*
X1063203Y786981D02*
D03*
X1066549D02*
D03*
D133*
X1135766Y742534D02*
D03*
Y745880D02*
D03*
X1048275Y739354D02*
D03*
Y736007D02*
D03*
X1244141Y745931D02*
D03*
Y749277D02*
D03*
X1232330Y798785D02*
D03*
Y795439D02*
D03*
D136*
X1280174Y758448D02*
D03*
Y730948D02*
D03*
Y810614D02*
D03*
Y783114D02*
D03*
D137*
X1283127Y770886D02*
D03*
X1065176Y811881D02*
D03*
X1042476Y731381D02*
D03*
D140*
X1105676Y755781D02*
D03*
X1108676D02*
D03*
X1247176Y785281D02*
D03*
X1250176D02*
D03*
D141*
X1101676Y775281D02*
D03*
Y778281D02*
D03*
X1094076Y763481D02*
D03*
Y766481D02*
D03*
D148*
X1104348Y812331D02*
D03*
X1088403D02*
D03*
D149*
X1097576Y718281D02*
D03*
Y708281D02*
D03*
X1087576Y718281D02*
D03*
Y708281D02*
D03*
X1077576Y718281D02*
D03*
Y708281D02*
D03*
X1067576Y718281D02*
D03*
Y708281D02*
D03*
X1107576D02*
D03*
Y718281D02*
D03*
X1117576Y708281D02*
D03*
Y718281D02*
D03*
X1127576Y708281D02*
D03*
Y718281D02*
D03*
X1137576Y708281D02*
D03*
Y718281D02*
D03*
X1147576Y708281D02*
D03*
Y718281D02*
D03*
X1157576Y708281D02*
D03*
Y718281D02*
D03*
X1167576Y708281D02*
D03*
Y718281D02*
D03*
X1177576Y708281D02*
D03*
Y718281D02*
D03*
X1187576Y708281D02*
D03*
Y718281D02*
D03*
X1197576Y708281D02*
D03*
Y718281D02*
D03*
X1207576Y708281D02*
D03*
Y718281D02*
D03*
X1217576Y708281D02*
D03*
Y718281D02*
D03*
X1227576Y708281D02*
D03*
Y718281D02*
D03*
X1237576Y708281D02*
D03*
Y718281D02*
D03*
X1247576Y708281D02*
D03*
Y718281D02*
D03*
X1257576Y708281D02*
D03*
D150*
Y718281D02*
D03*
D151*
X1048402Y713281D02*
D03*
D152*
Y803832D02*
D03*
X1276749Y713281D02*
D03*
D153*
X1248276Y813561D02*
D03*
X1111576Y813563D02*
D03*
D155*
X1047132Y753439D02*
D03*
X1041620D02*
D03*
Y760723D02*
D03*
X1047132D02*
D03*
D156*
X1239717Y737237D02*
D03*
Y731725D02*
D03*
X1232434D02*
D03*
Y737237D02*
D03*
D157*
X1084603Y752868D02*
D03*
X1082635D02*
D03*
X1080666D02*
D03*
X1078698D02*
D03*
X1076729D02*
D03*
X1074761D02*
D03*
X1072792D02*
D03*
X1070824D02*
D03*
Y771962D02*
D03*
X1072792D02*
D03*
X1074761D02*
D03*
X1076729D02*
D03*
X1078698D02*
D03*
X1080666D02*
D03*
X1082635D02*
D03*
X1084603D02*
D03*
D158*
X1068166Y755525D02*
D03*
Y757494D02*
D03*
Y759462D02*
D03*
Y761431D02*
D03*
Y763399D02*
D03*
Y765368D02*
D03*
Y767336D02*
D03*
Y769305D02*
D03*
X1087261D02*
D03*
Y767336D02*
D03*
Y765368D02*
D03*
Y763399D02*
D03*
Y761431D02*
D03*
Y759462D02*
D03*
Y757494D02*
D03*
Y755525D02*
D03*
D159*
X1077713Y762415D02*
D03*
D160*
X1226425Y769257D02*
D03*
D161*
X1237251Y782840D02*
D03*
X1235283D02*
D03*
X1233314D02*
D03*
X1231346D02*
D03*
X1229377D02*
D03*
X1227409D02*
D03*
X1225440D02*
D03*
X1223472D02*
D03*
X1221503D02*
D03*
X1219535D02*
D03*
X1217566D02*
D03*
X1215598D02*
D03*
Y755675D02*
D03*
X1217566D02*
D03*
X1219535D02*
D03*
X1221503D02*
D03*
X1223472D02*
D03*
X1225440D02*
D03*
X1227409D02*
D03*
X1229377D02*
D03*
X1231346D02*
D03*
X1233314D02*
D03*
X1235283D02*
D03*
X1237251D02*
D03*
D162*
X1212842Y780084D02*
D03*
Y778116D02*
D03*
Y776147D02*
D03*
Y772210D02*
D03*
Y770242D02*
D03*
Y768273D02*
D03*
Y766305D02*
D03*
Y764336D02*
D03*
Y762368D02*
D03*
Y760399D02*
D03*
Y758431D02*
D03*
X1240007D02*
D03*
Y760399D02*
D03*
Y762368D02*
D03*
Y764336D02*
D03*
Y766305D02*
D03*
Y768273D02*
D03*
Y770242D02*
D03*
Y772210D02*
D03*
Y774179D02*
D03*
Y776147D02*
D03*
Y778116D02*
D03*
Y780084D02*
D03*
X1212842Y774179D02*
D03*
D163*
X1164176Y752601D02*
D03*
D164*
X1172050Y762837D02*
D03*
X1170081D02*
D03*
X1168113D02*
D03*
X1166144D02*
D03*
X1164176D02*
D03*
X1162207D02*
D03*
X1160239D02*
D03*
X1158270D02*
D03*
X1156302D02*
D03*
Y742365D02*
D03*
X1158270D02*
D03*
X1160239D02*
D03*
X1162207D02*
D03*
X1164176D02*
D03*
X1166144D02*
D03*
X1168113D02*
D03*
X1170081D02*
D03*
X1172050D02*
D03*
X1175002Y765396D02*
D03*
X1173034D02*
D03*
X1171065D02*
D03*
X1169097D02*
D03*
X1167128D02*
D03*
X1165160D02*
D03*
X1163191D02*
D03*
X1161223D02*
D03*
X1159254D02*
D03*
X1157286D02*
D03*
X1155317D02*
D03*
X1153349D02*
D03*
Y739806D02*
D03*
X1155317D02*
D03*
X1157286D02*
D03*
X1159254D02*
D03*
X1161223D02*
D03*
X1163191D02*
D03*
X1165160D02*
D03*
X1167128D02*
D03*
X1169097D02*
D03*
X1171065D02*
D03*
X1173034D02*
D03*
X1175002D02*
D03*
D165*
X1153939Y760475D02*
D03*
Y758507D02*
D03*
Y756538D02*
D03*
Y754570D02*
D03*
Y752601D02*
D03*
Y750633D02*
D03*
Y748664D02*
D03*
Y746696D02*
D03*
Y744727D02*
D03*
X1174412D02*
D03*
Y746696D02*
D03*
Y748664D02*
D03*
Y750633D02*
D03*
Y752601D02*
D03*
Y754570D02*
D03*
Y756538D02*
D03*
Y758507D02*
D03*
Y760475D02*
D03*
X1151380Y763428D02*
D03*
Y761459D02*
D03*
Y759491D02*
D03*
Y757522D02*
D03*
Y755554D02*
D03*
Y753585D02*
D03*
Y751617D02*
D03*
Y749648D02*
D03*
Y747680D02*
D03*
Y745711D02*
D03*
Y743743D02*
D03*
Y741774D02*
D03*
X1176971D02*
D03*
Y743743D02*
D03*
Y745711D02*
D03*
Y747680D02*
D03*
Y749648D02*
D03*
Y751617D02*
D03*
Y753585D02*
D03*
Y755554D02*
D03*
Y757522D02*
D03*
Y759491D02*
D03*
Y761459D02*
D03*
Y763428D02*
D03*
D166*
X1117936Y736511D02*
D03*
D167*
X1114983Y730605D02*
D03*
X1116952D02*
D03*
X1118920D02*
D03*
X1120889D02*
D03*
Y742417D02*
D03*
X1118920D02*
D03*
X1116952D02*
D03*
X1114983D02*
D03*
D168*
X1251832Y795340D02*
D03*
Y792781D02*
D03*
Y790222D02*
D03*
X1246320Y795340D02*
D03*
Y792781D02*
D03*
Y790222D02*
D03*
D169*
X1252635Y759925D02*
D03*
X1250076D02*
D03*
X1247517D02*
D03*
X1252635Y765437D02*
D03*
X1250076D02*
D03*
X1247517D02*
D03*
D170*
X1080792Y801006D02*
D03*
X1085792D02*
D03*
X1075792D02*
D03*
X1085792Y788250D02*
D03*
X1075792D02*
D03*
D171*
X1130735Y745627D02*
D03*
X1125616D02*
D03*
Y738935D02*
D03*
X1130735D02*
D03*
D172*
X1104433Y760368D02*
D03*
Y765368D02*
D03*
Y770368D02*
D03*
X1117333Y760368D02*
D03*
Y770368D02*
D03*
D173*
X1181811Y769495D02*
D03*
X1184640Y766667D02*
D03*
X1187961Y763245D02*
D03*
X1190790Y760417D02*
D03*
X1182511Y764245D02*
D03*
X1185340Y761417D02*
D03*
M02*
