G04*
G04 #@! TF.GenerationSoftware,Altium Limited,CircuitStudio,1.5.2 (30)*
G04*
G04 Layer_Color=13948096*
%FSLAX25Y25*%
%MOIN*%
G70*
G01*
G75*
%ADD12C,0.00800*%
%ADD48C,0.00600*%
%ADD49C,0.00500*%
%ADD109C,0.00787*%
%ADD175C,0.00984*%
%ADD176C,0.00984*%
%ADD177C,0.00394*%
G36*
X1236576Y805581D02*
X1212776D01*
Y810381D01*
X1236576D01*
Y805581D01*
D02*
G37*
G36*
X1263276Y731081D02*
X1247076D01*
Y735481D01*
X1263276D01*
Y731081D01*
D02*
G37*
G36*
X1154176Y777781D02*
X1137176D01*
Y782581D01*
X1154176D01*
Y777781D01*
D02*
G37*
G36*
X1113976Y789381D02*
X1093176D01*
Y793881D01*
X1113976D01*
Y789381D01*
D02*
G37*
G36*
X1203576Y732481D02*
X1190276D01*
Y737381D01*
X1203576D01*
Y732481D01*
D02*
G37*
G36*
X1166876Y796170D02*
Y792381D01*
X1153876D01*
Y796170D01*
X1153776D01*
Y800481D01*
X1166876D01*
Y796170D01*
D02*
G37*
G36*
X1151776Y773581D02*
X1149776Y776581D01*
X1153776D01*
X1151776Y773581D01*
D02*
G37*
G36*
X1095476Y785481D02*
X1093476Y788481D01*
X1097476D01*
X1095476Y785481D01*
D02*
G37*
G36*
X1209626Y805081D02*
X1207626Y808081D01*
X1211626D01*
X1209626Y805081D01*
D02*
G37*
G36*
X1193976Y728681D02*
X1191976Y731681D01*
X1195976D01*
X1193976Y728681D01*
D02*
G37*
G36*
X1246076Y731181D02*
X1243076Y733181D01*
X1246076Y735181D01*
Y731181D01*
D02*
G37*
%LPC*%
G36*
X1153975Y782142D02*
X1150874D01*
Y781269D01*
X1152717D01*
Y780566D01*
X1151140D01*
Y779744D01*
X1152717D01*
Y778087D01*
X1153975D01*
Y782142D01*
D02*
G37*
G36*
X1144073Y782209D02*
X1143903D01*
X1143844Y782201D01*
X1143696Y782194D01*
X1143533Y782179D01*
X1143363Y782157D01*
X1143208Y782127D01*
X1143134Y782105D01*
X1143067Y782083D01*
X1143060D01*
X1143052Y782076D01*
X1143008Y782061D01*
X1142949Y782031D01*
X1142875Y781994D01*
X1142786Y781942D01*
X1142690Y781876D01*
X1142601Y781794D01*
X1142512Y781706D01*
X1142505Y781691D01*
X1142475Y781661D01*
X1142438Y781602D01*
X1142386Y781528D01*
X1142334Y781439D01*
X1142275Y781328D01*
X1142223Y781202D01*
X1142179Y781062D01*
X1143385Y780847D01*
Y780855D01*
X1143400Y780884D01*
X1143422Y780929D01*
X1143445Y780980D01*
X1143482Y781032D01*
X1143526Y781091D01*
X1143585Y781143D01*
X1143644Y781195D01*
X1143652Y781202D01*
X1143674Y781217D01*
X1143718Y781232D01*
X1143770Y781261D01*
X1143837Y781284D01*
X1143911Y781298D01*
X1143999Y781313D01*
X1144103Y781321D01*
X1144140D01*
X1144170Y781313D01*
X1144244Y781306D01*
X1144340Y781284D01*
X1144444Y781254D01*
X1144555Y781202D01*
X1144666Y781128D01*
X1144762Y781032D01*
X1144769Y781017D01*
X1144799Y780980D01*
X1144836Y780906D01*
X1144880Y780810D01*
X1144932Y780684D01*
X1144947Y780610D01*
X1144969Y780529D01*
X1144984Y780440D01*
X1144998Y780344D01*
X1145006Y780240D01*
Y780129D01*
Y780122D01*
Y780100D01*
Y780070D01*
X1144998Y780026D01*
Y779966D01*
X1144991Y779907D01*
X1144976Y779767D01*
X1144947Y779611D01*
X1144902Y779456D01*
X1144843Y779308D01*
X1144806Y779249D01*
X1144762Y779189D01*
X1144747Y779175D01*
X1144717Y779145D01*
X1144658Y779101D01*
X1144577Y779049D01*
X1144481Y778997D01*
X1144362Y778953D01*
X1144221Y778923D01*
X1144066Y778908D01*
X1143992D01*
X1143940Y778916D01*
X1143874Y778923D01*
X1143807Y778931D01*
X1143666Y778968D01*
X1143659D01*
X1143629Y778982D01*
X1143592Y778997D01*
X1143541Y779019D01*
X1143474Y779041D01*
X1143400Y779078D01*
X1143311Y779123D01*
X1143223Y779175D01*
Y779560D01*
X1144066D01*
Y780403D01*
X1142127D01*
Y778672D01*
X1142135Y778664D01*
X1142150Y778657D01*
X1142179Y778635D01*
X1142223Y778612D01*
X1142268Y778583D01*
X1142327Y778546D01*
X1142460Y778464D01*
X1142616Y778383D01*
X1142786Y778294D01*
X1142956Y778213D01*
X1143119Y778154D01*
X1143126D01*
X1143141Y778146D01*
X1143163Y778139D01*
X1143193Y778131D01*
X1143237Y778124D01*
X1143282Y778109D01*
X1143341Y778102D01*
X1143400Y778087D01*
X1143548Y778065D01*
X1143726Y778043D01*
X1143918Y778028D01*
X1144133Y778020D01*
X1144199D01*
X1144251Y778028D01*
X1144318D01*
X1144384Y778035D01*
X1144466Y778043D01*
X1144555Y778050D01*
X1144740Y778080D01*
X1144939Y778124D01*
X1145132Y778183D01*
X1145317Y778265D01*
X1145324D01*
X1145339Y778279D01*
X1145361Y778294D01*
X1145391Y778309D01*
X1145472Y778368D01*
X1145576Y778449D01*
X1145687Y778546D01*
X1145805Y778672D01*
X1145916Y778820D01*
X1146020Y778990D01*
Y778997D01*
X1146027Y779012D01*
X1146042Y779041D01*
X1146057Y779078D01*
X1146079Y779123D01*
X1146094Y779175D01*
X1146116Y779241D01*
X1146138Y779315D01*
X1146168Y779389D01*
X1146190Y779478D01*
X1146227Y779670D01*
X1146257Y779885D01*
X1146264Y780115D01*
Y780122D01*
Y780144D01*
Y780181D01*
X1146257Y780226D01*
Y780285D01*
X1146249Y780351D01*
X1146242Y780425D01*
X1146227Y780507D01*
X1146197Y780684D01*
X1146146Y780877D01*
X1146079Y781069D01*
X1145990Y781261D01*
Y781269D01*
X1145975Y781284D01*
X1145961Y781306D01*
X1145938Y781343D01*
X1145879Y781432D01*
X1145790Y781543D01*
X1145672Y781661D01*
X1145539Y781787D01*
X1145376Y781905D01*
X1145191Y782009D01*
X1145183D01*
X1145169Y782016D01*
X1145146Y782031D01*
X1145117Y782038D01*
X1145072Y782053D01*
X1145021Y782076D01*
X1144961Y782090D01*
X1144895Y782113D01*
X1144821Y782127D01*
X1144732Y782142D01*
X1144643Y782164D01*
X1144547Y782179D01*
X1144436Y782194D01*
X1144325Y782201D01*
X1144073Y782209D01*
D02*
G37*
G36*
X1108201Y793659D02*
X1106943D01*
Y789604D01*
X1108201D01*
Y793659D01*
D02*
G37*
G36*
X1113617D02*
X1111967D01*
X1111338Y791187D01*
X1110702Y793659D01*
X1109052D01*
Y789604D01*
X1110080D01*
Y792697D01*
X1110872Y789604D01*
X1111804D01*
X1112589Y792697D01*
Y789604D01*
X1113617D01*
Y793659D01*
D02*
G37*
G36*
X1097530D02*
X1095295D01*
X1095243Y793651D01*
X1095110Y793644D01*
X1094969Y793637D01*
X1094821Y793614D01*
X1094681Y793592D01*
X1094555Y793555D01*
X1094540Y793548D01*
X1094503Y793533D01*
X1094444Y793511D01*
X1094377Y793474D01*
X1094296Y793422D01*
X1094215Y793355D01*
X1094133Y793281D01*
X1094059Y793185D01*
X1094052Y793170D01*
X1094030Y793141D01*
X1094000Y793082D01*
X1093963Y793000D01*
X1093926Y792904D01*
X1093896Y792793D01*
X1093874Y792667D01*
X1093867Y792526D01*
Y792512D01*
Y792467D01*
X1093874Y792408D01*
X1093882Y792327D01*
X1093904Y792238D01*
X1093926Y792142D01*
X1093963Y792038D01*
X1094015Y791942D01*
X1094022Y791934D01*
X1094037Y791905D01*
X1094074Y791860D01*
X1094118Y791801D01*
X1094178Y791742D01*
X1094244Y791676D01*
X1094326Y791609D01*
X1094414Y791550D01*
X1094422Y791542D01*
X1094444Y791535D01*
X1094481Y791513D01*
X1094525Y791491D01*
X1094592Y791468D01*
X1094666Y791439D01*
X1094755Y791417D01*
X1094851Y791387D01*
X1094844D01*
X1094814Y791372D01*
X1094777Y791357D01*
X1094725Y791342D01*
X1094622Y791291D01*
X1094570Y791268D01*
X1094525Y791239D01*
X1094511Y791231D01*
X1094496Y791217D01*
X1094474Y791194D01*
X1094444Y791165D01*
X1094414Y791128D01*
X1094370Y791083D01*
X1094326Y791024D01*
X1094318Y791017D01*
X1094303Y790995D01*
X1094281Y790965D01*
X1094252Y790936D01*
X1094192Y790847D01*
X1094170Y790810D01*
X1094148Y790773D01*
X1093534Y789604D01*
X1094955D01*
X1095628Y790839D01*
X1095635Y790847D01*
X1095650Y790876D01*
X1095672Y790921D01*
X1095702Y790965D01*
X1095776Y791069D01*
X1095820Y791113D01*
X1095857Y791150D01*
X1095865Y791157D01*
X1095880Y791165D01*
X1095909Y791180D01*
X1095946Y791202D01*
X1095991Y791217D01*
X1096042Y791231D01*
X1096102Y791239D01*
X1096168Y791246D01*
X1096272D01*
Y789604D01*
X1097530D01*
Y793659D01*
D02*
G37*
G36*
X1101637D02*
X1098277D01*
Y792793D01*
X1100379D01*
Y792149D01*
X1098433D01*
Y791320D01*
X1100379D01*
Y790521D01*
X1098218D01*
Y789604D01*
X1101637D01*
Y793659D01*
D02*
G37*
G36*
X1150208Y782142D02*
X1148062D01*
X1148018Y782135D01*
X1147958D01*
X1147892Y782127D01*
X1147744Y782105D01*
X1147581Y782061D01*
X1147411Y782001D01*
X1147248Y781927D01*
X1147174Y781876D01*
X1147108Y781816D01*
X1147100D01*
X1147093Y781802D01*
X1147078Y781779D01*
X1147056Y781757D01*
X1146996Y781683D01*
X1146937Y781580D01*
X1146878Y781447D01*
X1146819Y781291D01*
X1146782Y781106D01*
X1146767Y781010D01*
Y780899D01*
Y780892D01*
Y780869D01*
Y780840D01*
X1146774Y780795D01*
Y780744D01*
X1146789Y780684D01*
X1146811Y780551D01*
X1146856Y780396D01*
X1146922Y780233D01*
X1146967Y780152D01*
X1147011Y780078D01*
X1147071Y780003D01*
X1147137Y779937D01*
X1147145D01*
X1147152Y779922D01*
X1147174Y779907D01*
X1147204Y779885D01*
X1147248Y779855D01*
X1147293Y779826D01*
X1147352Y779796D01*
X1147418Y779767D01*
X1147492Y779737D01*
X1147574Y779707D01*
X1147670Y779678D01*
X1147773Y779648D01*
X1147884Y779626D01*
X1148003Y779611D01*
X1148129Y779604D01*
X1148269Y779597D01*
X1148950D01*
Y778087D01*
X1150208D01*
Y782142D01*
D02*
G37*
G36*
X1162041Y796057D02*
X1161957D01*
X1161911Y796050D01*
X1161860D01*
X1161743Y796044D01*
X1161613Y796024D01*
X1161477Y796005D01*
X1161348Y795972D01*
X1161231Y795933D01*
X1161224D01*
X1161218Y795927D01*
X1161186Y795914D01*
X1161127Y795882D01*
X1161063Y795843D01*
X1160991Y795791D01*
X1160913Y795733D01*
X1160836Y795655D01*
X1160771Y795571D01*
X1160764Y795558D01*
X1160745Y795525D01*
X1160719Y795480D01*
X1160687Y795409D01*
X1160654Y795331D01*
X1160628Y795234D01*
X1160609Y795130D01*
X1160602Y795020D01*
Y795013D01*
Y795007D01*
Y794987D01*
Y794968D01*
X1160615Y794903D01*
X1160628Y794819D01*
X1160648Y794728D01*
X1160687Y794618D01*
X1160732Y794508D01*
X1160797Y794398D01*
X1160803Y794385D01*
X1160836Y794346D01*
X1160881Y794288D01*
X1160952Y794210D01*
X1161049Y794113D01*
X1161108Y794061D01*
X1161166Y794002D01*
X1161237Y793944D01*
X1161315Y793879D01*
X1161399Y793815D01*
X1161490Y793750D01*
X1161503Y793743D01*
X1161535Y793717D01*
X1161587Y793678D01*
X1161652Y793633D01*
X1161717Y793588D01*
X1161788Y793542D01*
X1161847Y793497D01*
X1161892Y793458D01*
X1161898Y793452D01*
X1161911Y793445D01*
X1161931Y793426D01*
X1161957Y793406D01*
X1162028Y793335D01*
X1162125Y793251D01*
X1160577D01*
Y792447D01*
X1163544D01*
Y792454D01*
Y792467D01*
X1163538Y792493D01*
X1163531Y792519D01*
X1163525Y792557D01*
X1163518Y792603D01*
X1163486Y792713D01*
X1163447Y792836D01*
X1163395Y792972D01*
X1163324Y793121D01*
X1163240Y793264D01*
X1163233Y793270D01*
X1163227Y793283D01*
X1163214Y793303D01*
X1163188Y793335D01*
X1163155Y793367D01*
X1163123Y793413D01*
X1163071Y793465D01*
X1163019Y793523D01*
X1162961Y793588D01*
X1162890Y793659D01*
X1162812Y793730D01*
X1162721Y793815D01*
X1162624Y793899D01*
X1162514Y793990D01*
X1162397Y794080D01*
X1162268Y794177D01*
X1162261Y794184D01*
X1162248Y794190D01*
X1162229Y794210D01*
X1162197Y794229D01*
X1162125Y794288D01*
X1162035Y794359D01*
X1161944Y794443D01*
X1161847Y794521D01*
X1161769Y794599D01*
X1161736Y794637D01*
X1161710Y794670D01*
X1161704Y794676D01*
X1161691Y794696D01*
X1161672Y794728D01*
X1161646Y794774D01*
X1161626Y794819D01*
X1161607Y794877D01*
X1161594Y794929D01*
X1161587Y794987D01*
Y794994D01*
Y795013D01*
X1161594Y795046D01*
X1161600Y795085D01*
X1161620Y795130D01*
X1161639Y795175D01*
X1161672Y795221D01*
X1161710Y795266D01*
X1161717Y795272D01*
X1161730Y795286D01*
X1161756Y795305D01*
X1161795Y795324D01*
X1161840Y795344D01*
X1161892Y795363D01*
X1161950Y795376D01*
X1162015Y795383D01*
X1162047D01*
X1162080Y795376D01*
X1162125Y795370D01*
X1162171Y795350D01*
X1162222Y795331D01*
X1162274Y795298D01*
X1162326Y795260D01*
X1162333Y795253D01*
X1162346Y795240D01*
X1162365Y795208D01*
X1162391Y795162D01*
X1162417Y795104D01*
X1162443Y795033D01*
X1162462Y794948D01*
X1162482Y794845D01*
X1163473Y794923D01*
Y794929D01*
Y794942D01*
X1163466Y794962D01*
X1163460Y794994D01*
X1163447Y795065D01*
X1163428Y795162D01*
X1163395Y795266D01*
X1163363Y795370D01*
X1163317Y795473D01*
X1163266Y795571D01*
X1163259Y795584D01*
X1163240Y795610D01*
X1163201Y795648D01*
X1163149Y795700D01*
X1163091Y795758D01*
X1163013Y795817D01*
X1162929Y795875D01*
X1162825Y795927D01*
X1162819D01*
X1162812Y795933D01*
X1162773Y795947D01*
X1162708Y795966D01*
X1162618Y795992D01*
X1162508Y796018D01*
X1162371Y796037D01*
X1162216Y796050D01*
X1162041Y796057D01*
D02*
G37*
G36*
X1165378D02*
X1165313D01*
X1165261Y796050D01*
X1165203D01*
X1165138Y796044D01*
X1165067Y796037D01*
X1164989Y796024D01*
X1164821Y795992D01*
X1164659Y795947D01*
X1164497Y795882D01*
X1164432Y795843D01*
X1164367Y795797D01*
X1164361D01*
X1164354Y795785D01*
X1164315Y795752D01*
X1164270Y795694D01*
X1164212Y795616D01*
X1164153Y795525D01*
X1164102Y795415D01*
X1164069Y795286D01*
X1164063Y795214D01*
X1164056Y795143D01*
Y795130D01*
Y795104D01*
X1164063Y795059D01*
X1164069Y795007D01*
X1164089Y794942D01*
X1164108Y794871D01*
X1164141Y794800D01*
X1164186Y794728D01*
X1164192Y794722D01*
X1164212Y794696D01*
X1164238Y794663D01*
X1164277Y794618D01*
X1164328Y794573D01*
X1164393Y794514D01*
X1164471Y794456D01*
X1164562Y794404D01*
X1164555D01*
X1164529Y794398D01*
X1164490Y794385D01*
X1164445Y794372D01*
X1164348Y794333D01*
X1164296Y794313D01*
X1164251Y794288D01*
X1164244Y794281D01*
X1164225Y794268D01*
X1164192Y794242D01*
X1164153Y794210D01*
X1164108Y794171D01*
X1164063Y794119D01*
X1164017Y794061D01*
X1163978Y793996D01*
X1163972Y793990D01*
X1163959Y793964D01*
X1163946Y793925D01*
X1163927Y793879D01*
X1163907Y793815D01*
X1163888Y793743D01*
X1163881Y793666D01*
X1163875Y793575D01*
Y793568D01*
Y793562D01*
Y793523D01*
X1163881Y793465D01*
X1163894Y793387D01*
X1163914Y793290D01*
X1163946Y793192D01*
X1163985Y793089D01*
X1164043Y792979D01*
X1164050Y792966D01*
X1164076Y792933D01*
X1164108Y792881D01*
X1164160Y792817D01*
X1164231Y792745D01*
X1164309Y792674D01*
X1164400Y792603D01*
X1164510Y792538D01*
X1164516D01*
X1164523Y792531D01*
X1164542Y792525D01*
X1164568Y792512D01*
X1164594Y792506D01*
X1164633Y792493D01*
X1164724Y792467D01*
X1164840Y792434D01*
X1164976Y792415D01*
X1165138Y792395D01*
X1165313Y792389D01*
X1165391D01*
X1165430Y792395D01*
X1165482D01*
X1165586Y792402D01*
X1165709Y792415D01*
X1165838Y792434D01*
X1165961Y792460D01*
X1166078Y792499D01*
X1166091Y792506D01*
X1166123Y792519D01*
X1166175Y792544D01*
X1166240Y792583D01*
X1166311Y792629D01*
X1166389Y792687D01*
X1166467Y792752D01*
X1166538Y792830D01*
X1166545Y792842D01*
X1166570Y792869D01*
X1166603Y792914D01*
X1166642Y792979D01*
X1166687Y793063D01*
X1166726Y793154D01*
X1166771Y793264D01*
X1166810Y793380D01*
X1165825Y793516D01*
Y793504D01*
X1165812Y793471D01*
X1165799Y793419D01*
X1165780Y793354D01*
X1165728Y793218D01*
X1165689Y793154D01*
X1165650Y793102D01*
X1165644Y793095D01*
X1165631Y793082D01*
X1165598Y793069D01*
X1165566Y793050D01*
X1165521Y793024D01*
X1165462Y793011D01*
X1165404Y792998D01*
X1165333Y792992D01*
X1165300D01*
X1165261Y792998D01*
X1165216Y793011D01*
X1165164Y793024D01*
X1165106Y793050D01*
X1165054Y793089D01*
X1165002Y793134D01*
X1164996Y793141D01*
X1164983Y793160D01*
X1164957Y793192D01*
X1164931Y793238D01*
X1164912Y793290D01*
X1164886Y793361D01*
X1164873Y793439D01*
X1164866Y793523D01*
Y793536D01*
Y793562D01*
X1164873Y793607D01*
X1164879Y793666D01*
X1164899Y793724D01*
X1164918Y793789D01*
X1164950Y793847D01*
X1164996Y793905D01*
X1165002Y793912D01*
X1165022Y793925D01*
X1165048Y793951D01*
X1165086Y793976D01*
X1165138Y793996D01*
X1165197Y794022D01*
X1165268Y794035D01*
X1165346Y794041D01*
X1165391D01*
X1165430Y794035D01*
X1165475Y794028D01*
X1165527Y794015D01*
X1165592Y794002D01*
X1165663Y793983D01*
X1165618Y794683D01*
X1165573D01*
X1165527Y794676D01*
X1165456D01*
X1165417Y794683D01*
X1165372Y794689D01*
X1165326Y794702D01*
X1165268Y794728D01*
X1165216Y794754D01*
X1165164Y794793D01*
X1165158Y794800D01*
X1165145Y794812D01*
X1165119Y794838D01*
X1165093Y794877D01*
X1165074Y794916D01*
X1165048Y794968D01*
X1165035Y795026D01*
X1165028Y795085D01*
Y795091D01*
Y795111D01*
X1165035Y795143D01*
X1165041Y795175D01*
X1165054Y795221D01*
X1165067Y795260D01*
X1165093Y795305D01*
X1165125Y795344D01*
X1165132Y795350D01*
X1165145Y795357D01*
X1165164Y795376D01*
X1165197Y795396D01*
X1165236Y795409D01*
X1165281Y795428D01*
X1165333Y795435D01*
X1165398Y795441D01*
X1165423D01*
X1165456Y795435D01*
X1165501Y795428D01*
X1165547Y795415D01*
X1165592Y795396D01*
X1165637Y795370D01*
X1165683Y795331D01*
X1165689Y795324D01*
X1165702Y795311D01*
X1165715Y795286D01*
X1165741Y795247D01*
X1165761Y795195D01*
X1165786Y795136D01*
X1165806Y795059D01*
X1165825Y794968D01*
X1166758Y795130D01*
Y795136D01*
X1166752Y795149D01*
X1166745Y795175D01*
X1166739Y795201D01*
X1166720Y795240D01*
X1166707Y795286D01*
X1166661Y795383D01*
X1166603Y795493D01*
X1166525Y795610D01*
X1166434Y795720D01*
X1166318Y795817D01*
X1166311D01*
X1166305Y795830D01*
X1166285Y795836D01*
X1166253Y795856D01*
X1166221Y795875D01*
X1166182Y795895D01*
X1166130Y795914D01*
X1166072Y795940D01*
X1166013Y795959D01*
X1165942Y795979D01*
X1165864Y795998D01*
X1165780Y796018D01*
X1165689Y796037D01*
X1165592Y796044D01*
X1165378Y796057D01*
D02*
G37*
G36*
X1155373D02*
X1155315D01*
X1155250Y796050D01*
X1155166Y796044D01*
X1155075Y796037D01*
X1154978Y796018D01*
X1154881Y795998D01*
X1154790Y795966D01*
X1154777Y795959D01*
X1154751Y795953D01*
X1154706Y795927D01*
X1154654Y795901D01*
X1154595Y795869D01*
X1154531Y795830D01*
X1154472Y795785D01*
X1154414Y795733D01*
X1154408Y795726D01*
X1154388Y795707D01*
X1154362Y795681D01*
X1154330Y795642D01*
X1154291Y795603D01*
X1154252Y795551D01*
X1154181Y795435D01*
X1154174Y795428D01*
X1154168Y795409D01*
X1154148Y795376D01*
X1154129Y795331D01*
X1154109Y795279D01*
X1154090Y795214D01*
X1154064Y795149D01*
X1154045Y795072D01*
Y795065D01*
X1154038Y795052D01*
X1154032Y795033D01*
X1154025Y795000D01*
X1154019Y794968D01*
X1154012Y794923D01*
X1153993Y794819D01*
X1153973Y794696D01*
X1153954Y794560D01*
X1153947Y794404D01*
X1153941Y794249D01*
Y794236D01*
Y794203D01*
Y794158D01*
X1153947Y794093D01*
X1153954Y794009D01*
X1153960Y793918D01*
X1153967Y793821D01*
X1153980Y793711D01*
X1154019Y793478D01*
X1154077Y793244D01*
X1154116Y793134D01*
X1154161Y793024D01*
X1154213Y792927D01*
X1154271Y792836D01*
X1154278Y792830D01*
X1154284Y792817D01*
X1154304Y792797D01*
X1154336Y792765D01*
X1154375Y792732D01*
X1154420Y792694D01*
X1154472Y792655D01*
X1154537Y792616D01*
X1154608Y792570D01*
X1154693Y792531D01*
X1154783Y792493D01*
X1154887Y792460D01*
X1154997Y792428D01*
X1155120Y792408D01*
X1155256Y792395D01*
X1155399Y792389D01*
X1155477D01*
X1155516Y792395D01*
X1155554D01*
X1155658Y792408D01*
X1155775Y792421D01*
X1155898Y792447D01*
X1156021Y792486D01*
X1156131Y792531D01*
X1156144Y792538D01*
X1156176Y792557D01*
X1156228Y792590D01*
X1156287Y792635D01*
X1156365Y792694D01*
X1156436Y792765D01*
X1156514Y792849D01*
X1156585Y792946D01*
X1156591Y792953D01*
X1156604Y792985D01*
X1156630Y793024D01*
X1156656Y793089D01*
X1156688Y793160D01*
X1156721Y793251D01*
X1156753Y793361D01*
X1156779Y793478D01*
Y793484D01*
Y793491D01*
X1156786Y793510D01*
X1156792Y793536D01*
X1156799Y793607D01*
X1156812Y793704D01*
X1156825Y793815D01*
X1156837Y793944D01*
X1156844Y794087D01*
X1156851Y794236D01*
Y794249D01*
Y794281D01*
Y794333D01*
X1156844Y794398D01*
X1156837Y794482D01*
X1156831Y794579D01*
X1156818Y794683D01*
X1156805Y794793D01*
X1156760Y795026D01*
X1156695Y795260D01*
X1156656Y795370D01*
X1156604Y795473D01*
X1156552Y795564D01*
X1156488Y795648D01*
X1156481Y795655D01*
X1156468Y795668D01*
X1156449Y795687D01*
X1156416Y795713D01*
X1156377Y795746D01*
X1156332Y795778D01*
X1156274Y795817D01*
X1156209Y795856D01*
X1156138Y795888D01*
X1156053Y795927D01*
X1155963Y795959D01*
X1155865Y795992D01*
X1155755Y796018D01*
X1155639Y796037D01*
X1155509Y796050D01*
X1155373Y796057D01*
D02*
G37*
G36*
X1158736D02*
X1157920D01*
Y792447D01*
X1158918D01*
Y794806D01*
X1158931Y794800D01*
X1158957Y794774D01*
X1159008Y794741D01*
X1159067Y794696D01*
X1159138Y794651D01*
X1159222Y794599D01*
X1159306Y794547D01*
X1159391Y794501D01*
X1159404Y794495D01*
X1159429Y794482D01*
X1159481Y794462D01*
X1159546Y794437D01*
X1159630Y794404D01*
X1159721Y794365D01*
X1159831Y794333D01*
X1159954Y794294D01*
Y795098D01*
X1159948D01*
X1159935Y795104D01*
X1159909Y795117D01*
X1159870Y795123D01*
X1159831Y795143D01*
X1159779Y795162D01*
X1159669Y795208D01*
X1159546Y795266D01*
X1159416Y795331D01*
X1159287Y795402D01*
X1159177Y795486D01*
X1159170D01*
X1159164Y795499D01*
X1159131Y795525D01*
X1159080Y795577D01*
X1159015Y795648D01*
X1158943Y795726D01*
X1158872Y795823D01*
X1158801Y795933D01*
X1158736Y796057D01*
D02*
G37*
G36*
X1164436Y800359D02*
X1164362D01*
X1164310Y800351D01*
X1164244D01*
X1164170Y800344D01*
X1164089Y800336D01*
X1164000Y800322D01*
X1163800Y800285D01*
X1163600Y800226D01*
X1163408Y800152D01*
X1163319Y800100D01*
X1163230Y800048D01*
X1163223D01*
X1163208Y800033D01*
X1163186Y800018D01*
X1163156Y799989D01*
X1163119Y799959D01*
X1163075Y799915D01*
X1163030Y799870D01*
X1162978Y799811D01*
X1162927Y799752D01*
X1162875Y799678D01*
X1162816Y799604D01*
X1162764Y799515D01*
X1162712Y799419D01*
X1162660Y799323D01*
X1162616Y799212D01*
X1162572Y799093D01*
X1163682Y798849D01*
Y798856D01*
X1163689Y798879D01*
X1163704Y798916D01*
X1163719Y798953D01*
X1163763Y799042D01*
X1163785Y799079D01*
X1163807Y799116D01*
X1163815Y799123D01*
X1163822Y799138D01*
X1163852Y799167D01*
X1163881Y799197D01*
X1163963Y799271D01*
X1164066Y799337D01*
X1164074Y799345D01*
X1164089Y799352D01*
X1164126Y799367D01*
X1164163Y799382D01*
X1164214Y799397D01*
X1164273Y799404D01*
X1164340Y799419D01*
X1164451D01*
X1164473Y799411D01*
X1164555Y799404D01*
X1164651Y799374D01*
X1164754Y799337D01*
X1164865Y799271D01*
X1164969Y799190D01*
X1165014Y799130D01*
X1165058Y799071D01*
X1165065Y799056D01*
X1165088Y799027D01*
X1165110Y798960D01*
X1165139Y798879D01*
X1165176Y798768D01*
X1165199Y798634D01*
X1165221Y798472D01*
X1165228Y798279D01*
Y798272D01*
Y798250D01*
Y798213D01*
Y798168D01*
X1165221Y798116D01*
Y798050D01*
X1165206Y797909D01*
X1165176Y797761D01*
X1165147Y797606D01*
X1165095Y797465D01*
X1165065Y797406D01*
X1165028Y797354D01*
X1165021Y797347D01*
X1164991Y797317D01*
X1164939Y797280D01*
X1164880Y797236D01*
X1164799Y797184D01*
X1164695Y797147D01*
X1164584Y797118D01*
X1164451Y797110D01*
X1164392D01*
X1164325Y797118D01*
X1164244Y797132D01*
X1164155Y797162D01*
X1164066Y797191D01*
X1163978Y797243D01*
X1163904Y797310D01*
X1163896Y797317D01*
X1163874Y797347D01*
X1163837Y797391D01*
X1163800Y797458D01*
X1163756Y797539D01*
X1163711Y797643D01*
X1163667Y797761D01*
X1163630Y797902D01*
X1162535Y797562D01*
Y797554D01*
X1162542Y797539D01*
X1162549Y797517D01*
X1162557Y797487D01*
X1162579Y797399D01*
X1162623Y797295D01*
X1162668Y797169D01*
X1162734Y797044D01*
X1162801Y796918D01*
X1162890Y796792D01*
X1162897Y796777D01*
X1162934Y796740D01*
X1162986Y796688D01*
X1163052Y796614D01*
X1163141Y796540D01*
X1163237Y796466D01*
X1163356Y796392D01*
X1163482Y796326D01*
X1163489D01*
X1163496Y796318D01*
X1163519Y796311D01*
X1163541Y796304D01*
X1163622Y796274D01*
X1163726Y796252D01*
X1163852Y796222D01*
X1164007Y796193D01*
X1164144Y796181D01*
X1164641D01*
X1164680Y796185D01*
X1164762Y796193D01*
X1164932Y796215D01*
X1165117Y796252D01*
X1165295Y796296D01*
X1165465Y796355D01*
X1165472D01*
X1165480Y796363D01*
X1165502Y796378D01*
X1165532Y796392D01*
X1165613Y796444D01*
X1165709Y796511D01*
X1165820Y796607D01*
X1165946Y796718D01*
X1166064Y796859D01*
X1166183Y797029D01*
Y797036D01*
X1166197Y797051D01*
X1166212Y797081D01*
X1166227Y797118D01*
X1166249Y797162D01*
X1166279Y797221D01*
X1166308Y797288D01*
X1166331Y797369D01*
X1166360Y797450D01*
X1166390Y797547D01*
X1166412Y797650D01*
X1166442Y797761D01*
X1166457Y797880D01*
X1166471Y798005D01*
X1166486Y798272D01*
Y798287D01*
Y798316D01*
X1166479Y798368D01*
Y798435D01*
X1166471Y798524D01*
X1166457Y798620D01*
X1166442Y798723D01*
X1166420Y798842D01*
X1166390Y798968D01*
X1166353Y799093D01*
X1166316Y799219D01*
X1166264Y799352D01*
X1166197Y799478D01*
X1166131Y799597D01*
X1166049Y799715D01*
X1165953Y799819D01*
X1165946Y799826D01*
X1165931Y799841D01*
X1165894Y799870D01*
X1165857Y799900D01*
X1165798Y799944D01*
X1165731Y799989D01*
X1165657Y800041D01*
X1165561Y800092D01*
X1165465Y800137D01*
X1165347Y800189D01*
X1165221Y800233D01*
X1165088Y800277D01*
X1164939Y800307D01*
X1164784Y800336D01*
X1164614Y800351D01*
X1164436Y800359D01*
D02*
G37*
G36*
X1140277Y782142D02*
X1138901D01*
X1137376Y778087D01*
X1138694D01*
X1138894Y778753D01*
X1140314D01*
X1140514Y778087D01*
X1141794D01*
X1140277Y782142D01*
D02*
G37*
G36*
X1161920Y800292D02*
X1158820D01*
Y799419D01*
X1160662D01*
Y798716D01*
X1159086D01*
Y797894D01*
X1160662D01*
Y796237D01*
X1161920D01*
Y800292D01*
D02*
G37*
G36*
X1156111Y800359D02*
X1155941D01*
X1155882Y800351D01*
X1155734Y800344D01*
X1155571Y800329D01*
X1155401Y800307D01*
X1155245Y800277D01*
X1155171Y800255D01*
X1155105Y800233D01*
X1155097D01*
X1155090Y800226D01*
X1155046Y800211D01*
X1154986Y800181D01*
X1154912Y800144D01*
X1154824Y800092D01*
X1154727Y800026D01*
X1154639Y799944D01*
X1154550Y799856D01*
X1154543Y799841D01*
X1154513Y799811D01*
X1154476Y799752D01*
X1154424Y799678D01*
X1154372Y799589D01*
X1154313Y799478D01*
X1154261Y799352D01*
X1154217Y799212D01*
X1155423Y798997D01*
Y799005D01*
X1155438Y799034D01*
X1155460Y799079D01*
X1155482Y799130D01*
X1155519Y799182D01*
X1155564Y799241D01*
X1155623Y799293D01*
X1155682Y799345D01*
X1155690Y799352D01*
X1155712Y799367D01*
X1155756Y799382D01*
X1155808Y799411D01*
X1155875Y799434D01*
X1155949Y799448D01*
X1156037Y799463D01*
X1156141Y799471D01*
X1156178D01*
X1156207Y799463D01*
X1156281Y799456D01*
X1156378Y799434D01*
X1156481Y799404D01*
X1156592Y799352D01*
X1156703Y799278D01*
X1156800Y799182D01*
X1156807Y799167D01*
X1156837Y799130D01*
X1156874Y799056D01*
X1156918Y798960D01*
X1156970Y798834D01*
X1156985Y798760D01*
X1157007Y798679D01*
X1157022Y798590D01*
X1157036Y798494D01*
X1157044Y798390D01*
Y798279D01*
Y798272D01*
Y798250D01*
Y798220D01*
X1157036Y798176D01*
Y798116D01*
X1157029Y798057D01*
X1157014Y797917D01*
X1156985Y797761D01*
X1156940Y797606D01*
X1156881Y797458D01*
X1156844Y797399D01*
X1156800Y797339D01*
X1156785Y797325D01*
X1156755Y797295D01*
X1156696Y797251D01*
X1156614Y797199D01*
X1156518Y797147D01*
X1156400Y797103D01*
X1156259Y797073D01*
X1156104Y797058D01*
X1156030D01*
X1155978Y797066D01*
X1155912Y797073D01*
X1155845Y797081D01*
X1155704Y797118D01*
X1155697D01*
X1155667Y797132D01*
X1155630Y797147D01*
X1155579Y797169D01*
X1155512Y797191D01*
X1155438Y797228D01*
X1155349Y797273D01*
X1155260Y797325D01*
Y797710D01*
X1156104D01*
Y798553D01*
X1154165D01*
Y796821D01*
X1154173Y796814D01*
X1154187Y796807D01*
X1154217Y796784D01*
X1154261Y796762D01*
X1154306Y796733D01*
X1154365Y796696D01*
X1154498Y796614D01*
X1154653Y796533D01*
X1154824Y796444D01*
X1154994Y796363D01*
X1155157Y796304D01*
X1155164D01*
X1155179Y796296D01*
X1155201Y796289D01*
X1155231Y796281D01*
X1155275Y796274D01*
X1155319Y796259D01*
X1155379Y796252D01*
X1155438Y796237D01*
X1155586Y796215D01*
X1155764Y796193D01*
X1155912Y796181D01*
X1156386D01*
X1156422Y796185D01*
X1156503Y796193D01*
X1156592Y796200D01*
X1156777Y796230D01*
X1156977Y796274D01*
X1157170Y796333D01*
X1157355Y796415D01*
X1157362D01*
X1157377Y796429D01*
X1157399Y796444D01*
X1157428Y796459D01*
X1157510Y796518D01*
X1157613Y796599D01*
X1157724Y796696D01*
X1157843Y796821D01*
X1157954Y796970D01*
X1158057Y797140D01*
Y797147D01*
X1158065Y797162D01*
X1158080Y797191D01*
X1158095Y797228D01*
X1158117Y797273D01*
X1158132Y797325D01*
X1158154Y797391D01*
X1158176Y797465D01*
X1158206Y797539D01*
X1158228Y797628D01*
X1158265Y797821D01*
X1158294Y798035D01*
X1158302Y798265D01*
Y798272D01*
Y798294D01*
Y798331D01*
X1158294Y798376D01*
Y798435D01*
X1158287Y798501D01*
X1158280Y798575D01*
X1158265Y798657D01*
X1158235Y798834D01*
X1158183Y799027D01*
X1158117Y799219D01*
X1158028Y799411D01*
Y799419D01*
X1158013Y799434D01*
X1157998Y799456D01*
X1157976Y799493D01*
X1157917Y799582D01*
X1157828Y799693D01*
X1157710Y799811D01*
X1157576Y799937D01*
X1157414Y800055D01*
X1157229Y800159D01*
X1157221D01*
X1157207Y800166D01*
X1157184Y800181D01*
X1157155Y800189D01*
X1157110Y800203D01*
X1157059Y800226D01*
X1156999Y800240D01*
X1156933Y800263D01*
X1156859Y800277D01*
X1156770Y800292D01*
X1156681Y800314D01*
X1156585Y800329D01*
X1156474Y800344D01*
X1156363Y800351D01*
X1156111Y800359D01*
D02*
G37*
G36*
X1249312Y735106D02*
X1249225D01*
X1249165Y735099D01*
X1249085Y735093D01*
X1248998Y735079D01*
X1248899Y735066D01*
X1248799Y735046D01*
X1248685Y735019D01*
X1248572Y734986D01*
X1248452Y734946D01*
X1248339Y734900D01*
X1248226Y734839D01*
X1248113Y734773D01*
X1248013Y734700D01*
X1247913Y734613D01*
X1247906Y734606D01*
X1247893Y734593D01*
X1247866Y734560D01*
X1247833Y734526D01*
X1247800Y734473D01*
X1247753Y734413D01*
X1247706Y734340D01*
X1247660Y734260D01*
X1247613Y734167D01*
X1247573Y734067D01*
X1247527Y733954D01*
X1247493Y733834D01*
X1247460Y733701D01*
X1247433Y733561D01*
X1247420Y733408D01*
X1247413Y733248D01*
Y733241D01*
Y733221D01*
Y733188D01*
Y733141D01*
X1247420Y733088D01*
X1247427Y733021D01*
X1247433Y732955D01*
X1247440Y732875D01*
X1247467Y732708D01*
X1247507Y732535D01*
X1247560Y732362D01*
X1247633Y732196D01*
Y732189D01*
X1247640Y732175D01*
X1247653Y732156D01*
X1247673Y732129D01*
X1247720Y732056D01*
X1247793Y731962D01*
X1247880Y731862D01*
X1247986Y731756D01*
X1248106Y731656D01*
X1248252Y731563D01*
X1248259D01*
X1248273Y731556D01*
X1248293Y731543D01*
X1248326Y731530D01*
X1248366Y731509D01*
X1248412Y731490D01*
X1248466Y731470D01*
X1248532Y731450D01*
X1248606Y731430D01*
X1248679Y731410D01*
X1248852Y731370D01*
X1249052Y731343D01*
X1249271Y731336D01*
X1249371D01*
X1249425Y731343D01*
X1249485Y731350D01*
X1249551D01*
X1249631Y731363D01*
X1249791Y731383D01*
X1249957Y731416D01*
X1250131Y731463D01*
X1250290Y731530D01*
X1250297D01*
X1250311Y731536D01*
X1250330Y731550D01*
X1250357Y731569D01*
X1250430Y731616D01*
X1250524Y731683D01*
X1250630Y731763D01*
X1250737Y731876D01*
X1250850Y732002D01*
X1250950Y732149D01*
Y732156D01*
X1250963Y732169D01*
X1250970Y732196D01*
X1250990Y732229D01*
X1251010Y732269D01*
X1251030Y732315D01*
X1251050Y732375D01*
X1251070Y732442D01*
X1251096Y732515D01*
X1251116Y732595D01*
X1251136Y732682D01*
X1251156Y732782D01*
X1251183Y732988D01*
X1251196Y733215D01*
Y733228D01*
Y733254D01*
X1251190Y733301D01*
Y733361D01*
X1251183Y733434D01*
X1251170Y733521D01*
X1251156Y733621D01*
X1251136Y733721D01*
X1251110Y733834D01*
X1251076Y733947D01*
X1251036Y734060D01*
X1250990Y734180D01*
X1250930Y734293D01*
X1250863Y734407D01*
X1250790Y734507D01*
X1250703Y734606D01*
X1250697Y734613D01*
X1250677Y734626D01*
X1250650Y734653D01*
X1250610Y734686D01*
X1250557Y734720D01*
X1250497Y734766D01*
X1250424Y734813D01*
X1250344Y734860D01*
X1250251Y734906D01*
X1250144Y734946D01*
X1250031Y734993D01*
X1249904Y735026D01*
X1249771Y735059D01*
X1249625Y735086D01*
X1249471Y735099D01*
X1249312Y735106D01*
D02*
G37*
G36*
X1262938Y735046D02*
X1259508D01*
Y734147D01*
X1260660D01*
Y731396D01*
X1261786D01*
Y734147D01*
X1262938D01*
Y735046D01*
D02*
G37*
G36*
X1217671Y809942D02*
X1216021D01*
X1215392Y807471D01*
X1214756Y809942D01*
X1213106D01*
Y805887D01*
X1214134D01*
Y808980D01*
X1214926Y805887D01*
X1215858D01*
X1216643Y808980D01*
Y805887D01*
X1217671D01*
Y809942D01*
D02*
G37*
G36*
X1236246D02*
X1234595D01*
X1233966Y807471D01*
X1233330Y809942D01*
X1231680D01*
Y805887D01*
X1232708D01*
Y808980D01*
X1233500Y805887D01*
X1234433D01*
X1235217Y808980D01*
Y805887D01*
X1236246D01*
Y809942D01*
D02*
G37*
G36*
X1257283Y735106D02*
X1257217D01*
X1257170Y735099D01*
X1257110D01*
X1257044Y735093D01*
X1256971Y735086D01*
X1256890Y735073D01*
X1256711Y735039D01*
X1256531Y734986D01*
X1256358Y734919D01*
X1256278Y734873D01*
X1256198Y734826D01*
X1256191D01*
X1256178Y734813D01*
X1256158Y734800D01*
X1256131Y734773D01*
X1256098Y734746D01*
X1256058Y734706D01*
X1256018Y734666D01*
X1255972Y734613D01*
X1255925Y734560D01*
X1255878Y734493D01*
X1255825Y734427D01*
X1255778Y734347D01*
X1255732Y734260D01*
X1255685Y734173D01*
X1255645Y734074D01*
X1255605Y733967D01*
X1256604Y733747D01*
Y733754D01*
X1256611Y733774D01*
X1256624Y733807D01*
X1256637Y733841D01*
X1256677Y733920D01*
X1256697Y733954D01*
X1256717Y733987D01*
X1256724Y733994D01*
X1256731Y734007D01*
X1256757Y734034D01*
X1256784Y734060D01*
X1256857Y734127D01*
X1256950Y734187D01*
X1256957Y734194D01*
X1256971Y734200D01*
X1257004Y734213D01*
X1257037Y734227D01*
X1257084Y734240D01*
X1257137Y734247D01*
X1257197Y734260D01*
X1257297D01*
X1257317Y734253D01*
X1257390Y734247D01*
X1257477Y734220D01*
X1257570Y734187D01*
X1257670Y734127D01*
X1257763Y734054D01*
X1257803Y734000D01*
X1257843Y733947D01*
X1257850Y733934D01*
X1257870Y733907D01*
X1257889Y733847D01*
X1257916Y733774D01*
X1257950Y733674D01*
X1257969Y733554D01*
X1257989Y733408D01*
X1257996Y733235D01*
Y733228D01*
Y733208D01*
Y733175D01*
Y733135D01*
X1257989Y733088D01*
Y733028D01*
X1257976Y732901D01*
X1257950Y732768D01*
X1257923Y732628D01*
X1257876Y732502D01*
X1257850Y732449D01*
X1257816Y732402D01*
X1257810Y732395D01*
X1257783Y732369D01*
X1257736Y732335D01*
X1257683Y732295D01*
X1257610Y732249D01*
X1257517Y732215D01*
X1257417Y732189D01*
X1257297Y732182D01*
X1257244D01*
X1257184Y732189D01*
X1257110Y732202D01*
X1257030Y732229D01*
X1256950Y732256D01*
X1256871Y732302D01*
X1256804Y732362D01*
X1256797Y732369D01*
X1256777Y732395D01*
X1256744Y732435D01*
X1256711Y732495D01*
X1256671Y732569D01*
X1256631Y732662D01*
X1256591Y732768D01*
X1256557Y732895D01*
X1255572Y732588D01*
Y732582D01*
X1255579Y732569D01*
X1255585Y732549D01*
X1255592Y732522D01*
X1255612Y732442D01*
X1255652Y732349D01*
X1255692Y732235D01*
X1255752Y732122D01*
X1255812Y732009D01*
X1255892Y731896D01*
X1255898Y731882D01*
X1255931Y731849D01*
X1255978Y731803D01*
X1256038Y731736D01*
X1256118Y731669D01*
X1256205Y731603D01*
X1256311Y731536D01*
X1256424Y731476D01*
X1256431D01*
X1256438Y731470D01*
X1256458Y731463D01*
X1256478Y731456D01*
X1256551Y731430D01*
X1256644Y731410D01*
X1256757Y731383D01*
X1256897Y731356D01*
X1257057Y731343D01*
X1257230Y731336D01*
X1257330D01*
X1257383Y731343D01*
X1257437D01*
X1257503Y731350D01*
X1257576Y731356D01*
X1257730Y731376D01*
X1257896Y731410D01*
X1258056Y731450D01*
X1258209Y731503D01*
X1258216D01*
X1258222Y731509D01*
X1258243Y731523D01*
X1258269Y731536D01*
X1258342Y731583D01*
X1258429Y731643D01*
X1258529Y731729D01*
X1258642Y731829D01*
X1258749Y731956D01*
X1258855Y732109D01*
Y732116D01*
X1258869Y732129D01*
X1258882Y732156D01*
X1258895Y732189D01*
X1258915Y732229D01*
X1258942Y732282D01*
X1258969Y732342D01*
X1258988Y732415D01*
X1259015Y732489D01*
X1259042Y732575D01*
X1259062Y732668D01*
X1259088Y732768D01*
X1259102Y732875D01*
X1259115Y732988D01*
X1259128Y733228D01*
Y733241D01*
Y733268D01*
X1259122Y733314D01*
Y733374D01*
X1259115Y733454D01*
X1259102Y733541D01*
X1259088Y733634D01*
X1259068Y733741D01*
X1259042Y733854D01*
X1259008Y733967D01*
X1258975Y734080D01*
X1258928Y734200D01*
X1258869Y734313D01*
X1258809Y734420D01*
X1258735Y734526D01*
X1258649Y734620D01*
X1258642Y734626D01*
X1258629Y734640D01*
X1258595Y734666D01*
X1258562Y734693D01*
X1258509Y734733D01*
X1258449Y734773D01*
X1258382Y734820D01*
X1258296Y734866D01*
X1258209Y734906D01*
X1258103Y734953D01*
X1257989Y734993D01*
X1257870Y735033D01*
X1257736Y735059D01*
X1257596Y735086D01*
X1257443Y735099D01*
X1257283Y735106D01*
D02*
G37*
G36*
X1197436Y736959D02*
X1195290D01*
X1195246Y736951D01*
X1195187D01*
X1195120Y736944D01*
X1194972Y736922D01*
X1194809Y736877D01*
X1194639Y736818D01*
X1194476Y736744D01*
X1194402Y736692D01*
X1194336Y736633D01*
X1194328D01*
X1194321Y736618D01*
X1194306Y736596D01*
X1194284Y736574D01*
X1194225Y736500D01*
X1194165Y736396D01*
X1194106Y736263D01*
X1194047Y736108D01*
X1194010Y735923D01*
X1193995Y735826D01*
Y735715D01*
Y735708D01*
Y735686D01*
Y735656D01*
X1194003Y735612D01*
Y735560D01*
X1194017Y735501D01*
X1194040Y735368D01*
X1194084Y735212D01*
X1194151Y735049D01*
X1194195Y734968D01*
X1194239Y734894D01*
X1194299Y734820D01*
X1194365Y734754D01*
X1194373D01*
X1194380Y734739D01*
X1194402Y734724D01*
X1194432Y734702D01*
X1194476Y734672D01*
X1194521Y734643D01*
X1194580Y734613D01*
X1194646Y734583D01*
X1194720Y734554D01*
X1194802Y734524D01*
X1194898Y734494D01*
X1195002Y734465D01*
X1195113Y734443D01*
X1195231Y734428D01*
X1195357Y734420D01*
X1195497Y734413D01*
X1196178D01*
Y732903D01*
X1197436D01*
Y736959D01*
D02*
G37*
G36*
X1201824D02*
X1199590D01*
X1199538Y736951D01*
X1199405Y736944D01*
X1199264Y736937D01*
X1199116Y736914D01*
X1198975Y736892D01*
X1198850Y736855D01*
X1198835Y736848D01*
X1198798Y736833D01*
X1198739Y736811D01*
X1198672Y736774D01*
X1198591Y736722D01*
X1198509Y736655D01*
X1198428Y736581D01*
X1198354Y736485D01*
X1198346Y736470D01*
X1198324Y736441D01*
X1198295Y736381D01*
X1198258Y736300D01*
X1198221Y736204D01*
X1198191Y736093D01*
X1198169Y735967D01*
X1198161Y735826D01*
Y735812D01*
Y735767D01*
X1198169Y735708D01*
X1198176Y735627D01*
X1198198Y735538D01*
X1198221Y735442D01*
X1198258Y735338D01*
X1198309Y735242D01*
X1198317Y735234D01*
X1198332Y735205D01*
X1198369Y735160D01*
X1198413Y735101D01*
X1198472Y735042D01*
X1198539Y734975D01*
X1198620Y734909D01*
X1198709Y734850D01*
X1198716Y734842D01*
X1198739Y734835D01*
X1198776Y734813D01*
X1198820Y734791D01*
X1198887Y734768D01*
X1198961Y734739D01*
X1199049Y734717D01*
X1199146Y734687D01*
X1199138D01*
X1199109Y734672D01*
X1199072Y734657D01*
X1199020Y734643D01*
X1198916Y734591D01*
X1198864Y734569D01*
X1198820Y734539D01*
X1198805Y734531D01*
X1198790Y734517D01*
X1198768Y734494D01*
X1198739Y734465D01*
X1198709Y734428D01*
X1198665Y734383D01*
X1198620Y734324D01*
X1198613Y734317D01*
X1198598Y734295D01*
X1198576Y734265D01*
X1198546Y734235D01*
X1198487Y734147D01*
X1198465Y734110D01*
X1198443Y734073D01*
X1197828Y732903D01*
X1199249D01*
X1199923Y734139D01*
X1199930Y734147D01*
X1199945Y734176D01*
X1199967Y734221D01*
X1199997Y734265D01*
X1200071Y734369D01*
X1200115Y734413D01*
X1200152Y734450D01*
X1200159Y734457D01*
X1200174Y734465D01*
X1200204Y734480D01*
X1200241Y734502D01*
X1200285Y734517D01*
X1200337Y734531D01*
X1200396Y734539D01*
X1200463Y734546D01*
X1200566D01*
Y732903D01*
X1201824D01*
Y736959D01*
D02*
G37*
G36*
X1255279Y735046D02*
X1254033D01*
X1253394Y733920D01*
X1252761Y735046D01*
X1251529D01*
X1252668Y733274D01*
X1251423Y731396D01*
X1252688D01*
X1253414Y732569D01*
X1254133Y731396D01*
X1255392D01*
X1254133Y733294D01*
X1255279Y735046D01*
D02*
G37*
G36*
X1193285Y736959D02*
X1192027D01*
Y732903D01*
X1193285D01*
Y736959D01*
D02*
G37*
G36*
X1221749Y809942D02*
X1218389D01*
Y809076D01*
X1220491D01*
Y808432D01*
X1218545D01*
Y807604D01*
X1220491D01*
Y806804D01*
X1218330D01*
Y805887D01*
X1221749D01*
Y809942D01*
D02*
G37*
G36*
X1226145D02*
X1224198D01*
X1224146Y809935D01*
X1224095D01*
X1223969Y809920D01*
X1223821Y809905D01*
X1223673Y809875D01*
X1223525Y809838D01*
X1223392Y809787D01*
X1223384D01*
X1223377Y809779D01*
X1223333Y809757D01*
X1223273Y809727D01*
X1223192Y809676D01*
X1223103Y809616D01*
X1223007Y809542D01*
X1222918Y809454D01*
X1222829Y809357D01*
X1222822Y809343D01*
X1222792Y809306D01*
X1222755Y809254D01*
X1222703Y809173D01*
X1222652Y809076D01*
X1222600Y808965D01*
X1222556Y808840D01*
X1222511Y808706D01*
Y808699D01*
X1222504Y808692D01*
Y808669D01*
X1222496Y808640D01*
X1222482Y808566D01*
X1222459Y808469D01*
X1222437Y808351D01*
X1222422Y808218D01*
X1222415Y808077D01*
X1222408Y807922D01*
Y807915D01*
Y807892D01*
Y807863D01*
Y807818D01*
X1222415Y807759D01*
Y807700D01*
X1222430Y807552D01*
X1222445Y807397D01*
X1222474Y807226D01*
X1222511Y807063D01*
X1222563Y806915D01*
Y806908D01*
X1222570Y806901D01*
X1222593Y806856D01*
X1222622Y806790D01*
X1222666Y806708D01*
X1222726Y806612D01*
X1222800Y806516D01*
X1222881Y806412D01*
X1222977Y806316D01*
X1222992Y806309D01*
X1223022Y806279D01*
X1223073Y806235D01*
X1223140Y806183D01*
X1223229Y806131D01*
X1223318Y806079D01*
X1223421Y806028D01*
X1223532Y805991D01*
X1223540D01*
X1223547Y805983D01*
X1223569D01*
X1223599Y805976D01*
X1223680Y805961D01*
X1223784Y805939D01*
X1223895Y805917D01*
X1224028Y805902D01*
X1224154Y805894D01*
X1224287Y805887D01*
X1226145D01*
Y809942D01*
D02*
G37*
G36*
X1106328Y793659D02*
X1104945D01*
X1104234Y792408D01*
X1103531Y793659D01*
X1102162D01*
X1103428Y791690D01*
X1102044Y789604D01*
X1103450D01*
X1104256Y790906D01*
X1105056Y789604D01*
X1106454D01*
X1105056Y791713D01*
X1106328Y793659D01*
D02*
G37*
G36*
X1228942Y810009D02*
X1228846D01*
X1228779Y810001D01*
X1228690Y809994D01*
X1228594Y809979D01*
X1228483Y809964D01*
X1228372Y809942D01*
X1228246Y809912D01*
X1228120Y809875D01*
X1227987Y809831D01*
X1227861Y809779D01*
X1227736Y809713D01*
X1227610Y809639D01*
X1227499Y809557D01*
X1227388Y809461D01*
X1227380Y809454D01*
X1227365Y809439D01*
X1227336Y809402D01*
X1227299Y809365D01*
X1227262Y809306D01*
X1227210Y809239D01*
X1227158Y809158D01*
X1227106Y809069D01*
X1227055Y808965D01*
X1227010Y808854D01*
X1226958Y808729D01*
X1226921Y808595D01*
X1226884Y808447D01*
X1226855Y808292D01*
X1226840Y808122D01*
X1226833Y807944D01*
Y807937D01*
Y807915D01*
Y807878D01*
Y807826D01*
X1226840Y807767D01*
X1226847Y807693D01*
X1226855Y807619D01*
X1226862Y807530D01*
X1226892Y807345D01*
X1226936Y807152D01*
X1226995Y806960D01*
X1227077Y806775D01*
Y806767D01*
X1227084Y806753D01*
X1227099Y806730D01*
X1227121Y806701D01*
X1227173Y806619D01*
X1227254Y806516D01*
X1227351Y806405D01*
X1227469Y806287D01*
X1227602Y806176D01*
X1227765Y806072D01*
X1227773D01*
X1227787Y806065D01*
X1227810Y806050D01*
X1227847Y806035D01*
X1227891Y806013D01*
X1227943Y805991D01*
X1228002Y805968D01*
X1228076Y805946D01*
X1228157Y805924D01*
X1228239Y805902D01*
X1228431Y805857D01*
X1228653Y805828D01*
X1228897Y805820D01*
X1229008D01*
X1229068Y805828D01*
X1229134Y805835D01*
X1229208D01*
X1229297Y805850D01*
X1229475Y805872D01*
X1229659Y805909D01*
X1229852Y805961D01*
X1230029Y806035D01*
X1230037D01*
X1230052Y806042D01*
X1230074Y806057D01*
X1230103Y806079D01*
X1230185Y806131D01*
X1230289Y806205D01*
X1230407Y806294D01*
X1230525Y806420D01*
X1230651Y806560D01*
X1230762Y806723D01*
Y806730D01*
X1230777Y806745D01*
X1230784Y806775D01*
X1230807Y806812D01*
X1230829Y806856D01*
X1230851Y806908D01*
X1230873Y806975D01*
X1230895Y807049D01*
X1230925Y807130D01*
X1230947Y807219D01*
X1230969Y807315D01*
X1230991Y807426D01*
X1231021Y807656D01*
X1231036Y807907D01*
Y807922D01*
Y807952D01*
X1231028Y808003D01*
Y808070D01*
X1231021Y808151D01*
X1231006Y808247D01*
X1230991Y808358D01*
X1230969Y808469D01*
X1230940Y808595D01*
X1230903Y808721D01*
X1230858Y808847D01*
X1230807Y808980D01*
X1230740Y809106D01*
X1230666Y809232D01*
X1230585Y809343D01*
X1230488Y809454D01*
X1230481Y809461D01*
X1230459Y809476D01*
X1230429Y809505D01*
X1230385Y809542D01*
X1230326Y809579D01*
X1230259Y809631D01*
X1230177Y809683D01*
X1230089Y809735D01*
X1229985Y809787D01*
X1229867Y809831D01*
X1229741Y809883D01*
X1229600Y809920D01*
X1229452Y809957D01*
X1229290Y809986D01*
X1229119Y810001D01*
X1228942Y810009D01*
D02*
G37*
%LPD*%
G36*
X1155444Y795396D02*
X1155490Y795389D01*
X1155542Y795370D01*
X1155600Y795344D01*
X1155658Y795298D01*
X1155717Y795234D01*
X1155762Y795149D01*
X1155768Y795136D01*
X1155775Y795123D01*
X1155781Y795098D01*
X1155788Y795072D01*
X1155794Y795039D01*
X1155807Y794994D01*
X1155814Y794942D01*
X1155827Y794884D01*
X1155840Y794819D01*
X1155846Y794741D01*
X1155853Y794663D01*
X1155859Y794566D01*
X1155865Y794469D01*
X1155872Y794359D01*
Y794236D01*
Y794229D01*
Y794203D01*
Y794171D01*
Y794126D01*
X1155865Y794074D01*
Y794009D01*
X1155859Y793866D01*
X1155846Y793711D01*
X1155820Y793555D01*
X1155807Y793484D01*
X1155794Y793419D01*
X1155775Y793361D01*
X1155755Y793309D01*
X1155749Y793296D01*
X1155729Y793270D01*
X1155704Y793231D01*
X1155665Y793186D01*
X1155613Y793141D01*
X1155554Y793102D01*
X1155483Y793076D01*
X1155405Y793063D01*
X1155379D01*
X1155347Y793069D01*
X1155315Y793076D01*
X1155269Y793089D01*
X1155231Y793108D01*
X1155185Y793134D01*
X1155140Y793166D01*
X1155133Y793173D01*
X1155120Y793186D01*
X1155101Y793212D01*
X1155075Y793244D01*
X1155049Y793296D01*
X1155023Y793348D01*
X1154997Y793419D01*
X1154978Y793497D01*
Y793510D01*
X1154971Y793542D01*
X1154958Y793594D01*
X1154945Y793672D01*
X1154939Y793769D01*
X1154926Y793892D01*
X1154919Y794035D01*
Y794203D01*
Y794210D01*
Y794236D01*
Y794268D01*
Y794320D01*
X1154926Y794372D01*
Y794443D01*
X1154932Y794586D01*
X1154952Y794748D01*
X1154971Y794903D01*
X1154984Y794974D01*
X1155004Y795046D01*
X1155023Y795104D01*
X1155042Y795156D01*
X1155049Y795169D01*
X1155068Y795195D01*
X1155094Y795234D01*
X1155133Y795279D01*
X1155185Y795324D01*
X1155250Y795363D01*
X1155321Y795389D01*
X1155405Y795402D01*
X1155418D01*
X1155444Y795396D01*
D02*
G37*
G36*
X1096272Y792016D02*
X1095702D01*
X1095672Y792023D01*
X1095628Y792031D01*
X1095569Y792038D01*
X1095495Y792053D01*
X1095413Y792068D01*
X1095406D01*
X1095391Y792075D01*
X1095369Y792083D01*
X1095339Y792090D01*
X1095273Y792127D01*
X1095236Y792157D01*
X1095206Y792194D01*
X1095199Y792201D01*
X1095191Y792216D01*
X1095177Y792231D01*
X1095162Y792260D01*
X1095140Y792334D01*
X1095125Y792379D01*
Y792430D01*
Y792438D01*
Y792460D01*
X1095132Y792497D01*
X1095140Y792541D01*
X1095154Y792586D01*
X1095177Y792637D01*
X1095206Y792682D01*
X1095251Y792726D01*
X1095258Y792734D01*
X1095273Y792741D01*
X1095310Y792763D01*
X1095354Y792786D01*
X1095421Y792800D01*
X1095502Y792823D01*
X1095606Y792830D01*
X1095724Y792837D01*
X1096272D01*
Y792016D01*
D02*
G37*
G36*
X1200566Y735316D02*
X1199997D01*
X1199967Y735323D01*
X1199923Y735331D01*
X1199863Y735338D01*
X1199789Y735353D01*
X1199708Y735368D01*
X1199701D01*
X1199686Y735375D01*
X1199664Y735383D01*
X1199634Y735390D01*
X1199567Y735427D01*
X1199530Y735457D01*
X1199501Y735494D01*
X1199493Y735501D01*
X1199486Y735516D01*
X1199471Y735531D01*
X1199456Y735560D01*
X1199434Y735634D01*
X1199419Y735678D01*
Y735730D01*
Y735738D01*
Y735760D01*
X1199427Y735797D01*
X1199434Y735841D01*
X1199449Y735886D01*
X1199471Y735938D01*
X1199501Y735982D01*
X1199545Y736026D01*
X1199553Y736034D01*
X1199567Y736041D01*
X1199604Y736063D01*
X1199649Y736086D01*
X1199715Y736100D01*
X1199797Y736123D01*
X1199900Y736130D01*
X1200019Y736137D01*
X1200566D01*
Y735316D01*
D02*
G37*
G36*
X1196178Y735234D02*
X1195816D01*
X1195749Y735242D01*
X1195675Y735249D01*
X1195594Y735264D01*
X1195505Y735286D01*
X1195431Y735316D01*
X1195364Y735353D01*
X1195357Y735360D01*
X1195342Y735375D01*
X1195320Y735405D01*
X1195290Y735442D01*
X1195261Y735486D01*
X1195238Y735545D01*
X1195224Y735604D01*
X1195216Y735678D01*
Y735686D01*
Y735708D01*
X1195224Y735745D01*
X1195231Y735789D01*
X1195246Y735841D01*
X1195275Y735900D01*
X1195305Y735952D01*
X1195349Y736004D01*
X1195357Y736012D01*
X1195372Y736026D01*
X1195409Y736049D01*
X1195453Y736071D01*
X1195520Y736093D01*
X1195601Y736115D01*
X1195705Y736130D01*
X1195823Y736137D01*
X1196178D01*
Y735234D01*
D02*
G37*
G36*
X1224894Y806812D02*
X1224524D01*
X1224457Y806819D01*
X1224368D01*
X1224280Y806834D01*
X1224183Y806849D01*
X1224102Y806864D01*
X1224028Y806893D01*
X1224021Y806901D01*
X1223999Y806908D01*
X1223969Y806930D01*
X1223932Y806967D01*
X1223888Y807004D01*
X1223843Y807056D01*
X1223799Y807123D01*
X1223762Y807197D01*
X1223754Y807204D01*
X1223747Y807241D01*
X1223732Y807293D01*
X1223710Y807367D01*
X1223695Y807463D01*
X1223680Y807589D01*
X1223673Y807730D01*
X1223666Y807900D01*
Y807907D01*
Y807929D01*
Y807959D01*
Y808003D01*
X1223673Y808055D01*
Y808114D01*
X1223695Y808255D01*
X1223717Y808395D01*
X1223754Y808543D01*
X1223806Y808677D01*
X1223843Y808729D01*
X1223880Y808780D01*
X1223888Y808788D01*
X1223925Y808817D01*
X1223976Y808854D01*
X1224050Y808906D01*
X1224146Y808951D01*
X1224265Y808988D01*
X1224413Y809017D01*
X1224583Y809025D01*
X1224894D01*
Y806812D01*
D02*
G37*
G36*
X1229008Y809054D02*
X1229082Y809047D01*
X1229164Y809025D01*
X1229260Y808995D01*
X1229364Y808943D01*
X1229467Y808877D01*
X1229556Y808788D01*
X1229563Y808773D01*
X1229593Y808736D01*
X1229630Y808669D01*
X1229667Y808580D01*
X1229689Y808521D01*
X1229711Y808455D01*
X1229733Y808381D01*
X1229748Y808307D01*
X1229763Y808218D01*
X1229778Y808122D01*
X1229785Y808018D01*
Y807907D01*
Y807900D01*
Y807878D01*
Y807848D01*
X1229778Y807811D01*
Y807759D01*
X1229770Y807700D01*
X1229756Y807567D01*
X1229733Y807426D01*
X1229689Y807278D01*
X1229637Y807137D01*
X1229600Y807078D01*
X1229563Y807026D01*
X1229556Y807012D01*
X1229519Y806982D01*
X1229467Y806945D01*
X1229401Y806893D01*
X1229312Y806841D01*
X1229201Y806804D01*
X1229075Y806775D01*
X1228934Y806760D01*
X1228897D01*
X1228868Y806767D01*
X1228794Y806775D01*
X1228705Y806790D01*
X1228609Y806827D01*
X1228505Y806871D01*
X1228401Y806930D01*
X1228313Y807019D01*
X1228305Y807034D01*
X1228276Y807071D01*
X1228261Y807100D01*
X1228239Y807137D01*
X1228216Y807182D01*
X1228194Y807234D01*
X1228179Y807293D01*
X1228157Y807360D01*
X1228135Y807441D01*
X1228120Y807522D01*
X1228106Y807619D01*
X1228091Y807722D01*
X1228083Y807833D01*
Y807959D01*
Y807966D01*
Y807981D01*
Y808011D01*
Y808055D01*
X1228091Y808099D01*
X1228098Y808151D01*
X1228113Y808277D01*
X1228143Y808410D01*
X1228179Y808551D01*
X1228239Y808684D01*
X1228320Y808795D01*
X1228327Y808810D01*
X1228364Y808840D01*
X1228416Y808877D01*
X1228483Y808928D01*
X1228572Y808980D01*
X1228683Y809017D01*
X1228808Y809047D01*
X1228949Y809062D01*
X1228964D01*
X1229008Y809054D01*
D02*
G37*
G36*
X1249371Y734247D02*
X1249438Y734240D01*
X1249511Y734220D01*
X1249598Y734194D01*
X1249691Y734147D01*
X1249784Y734087D01*
X1249864Y734007D01*
X1249871Y733994D01*
X1249897Y733960D01*
X1249931Y733900D01*
X1249964Y733821D01*
X1249984Y733767D01*
X1250004Y733707D01*
X1250024Y733641D01*
X1250037Y733574D01*
X1250051Y733494D01*
X1250064Y733408D01*
X1250071Y733314D01*
Y733215D01*
Y733208D01*
Y733188D01*
Y733161D01*
X1250064Y733128D01*
Y733081D01*
X1250057Y733028D01*
X1250044Y732908D01*
X1250024Y732782D01*
X1249984Y732648D01*
X1249938Y732522D01*
X1249904Y732469D01*
X1249871Y732422D01*
X1249864Y732409D01*
X1249831Y732382D01*
X1249784Y732349D01*
X1249724Y732302D01*
X1249644Y732256D01*
X1249545Y732222D01*
X1249431Y732196D01*
X1249305Y732182D01*
X1249271D01*
X1249245Y732189D01*
X1249178Y732196D01*
X1249098Y732209D01*
X1249012Y732242D01*
X1248919Y732282D01*
X1248825Y732335D01*
X1248745Y732415D01*
X1248739Y732429D01*
X1248712Y732462D01*
X1248699Y732489D01*
X1248679Y732522D01*
X1248659Y732562D01*
X1248639Y732608D01*
X1248625Y732662D01*
X1248606Y732722D01*
X1248586Y732795D01*
X1248572Y732868D01*
X1248559Y732955D01*
X1248546Y733048D01*
X1248539Y733148D01*
Y733261D01*
Y733268D01*
Y733281D01*
Y733308D01*
Y733348D01*
X1248546Y733388D01*
X1248552Y733434D01*
X1248565Y733547D01*
X1248592Y733667D01*
X1248625Y733794D01*
X1248679Y733914D01*
X1248752Y734014D01*
X1248759Y734027D01*
X1248792Y734054D01*
X1248839Y734087D01*
X1248899Y734134D01*
X1248979Y734180D01*
X1249078Y734213D01*
X1249192Y734240D01*
X1249318Y734253D01*
X1249331D01*
X1249371Y734247D01*
D02*
G37*
G36*
X1140048Y779634D02*
X1139160D01*
X1139604Y781084D01*
X1140048Y779634D01*
D02*
G37*
G36*
X1148950Y780418D02*
X1148588D01*
X1148521Y780425D01*
X1148447Y780433D01*
X1148365Y780447D01*
X1148277Y780470D01*
X1148203Y780499D01*
X1148136Y780536D01*
X1148129Y780544D01*
X1148114Y780558D01*
X1148092Y780588D01*
X1148062Y780625D01*
X1148032Y780669D01*
X1148010Y780729D01*
X1147995Y780788D01*
X1147988Y780862D01*
Y780869D01*
Y780892D01*
X1147995Y780929D01*
X1148003Y780973D01*
X1148018Y781025D01*
X1148047Y781084D01*
X1148077Y781136D01*
X1148121Y781187D01*
X1148129Y781195D01*
X1148143Y781210D01*
X1148180Y781232D01*
X1148225Y781254D01*
X1148291Y781276D01*
X1148373Y781298D01*
X1148477Y781313D01*
X1148595Y781321D01*
X1148950D01*
Y780418D01*
D02*
G37*
D12*
X1241525Y781757D02*
G03*
X1241525Y781757I-300J0D01*
G01*
X1103383Y757868D02*
X1118383D01*
X1103383Y772868D02*
X1118383D01*
D48*
X1190076Y733481D02*
G03*
X1191076Y732481I1000J0D01*
G01*
X1202776D02*
G03*
X1203776Y733481I0J1000D01*
G01*
X1167076Y799781D02*
G03*
X1166076Y800781I-1000J0D01*
G01*
X1154576D02*
G03*
X1153576Y799781I0J-1000D01*
G01*
X1263476Y734481D02*
G03*
X1262476Y735481I-1000J0D01*
G01*
Y731081D02*
G03*
X1263476Y732081I0J1000D01*
G01*
X1191076Y737581D02*
G03*
X1190076Y736581I0J-1000D01*
G01*
X1236776Y809381D02*
G03*
X1235776Y810381I-1000J0D01*
G01*
X1213576D02*
G03*
X1212576Y809381I0J-1000D01*
G01*
Y806481D02*
G03*
X1213576Y805481I1000J0D01*
G01*
X1154376Y781781D02*
G03*
X1153376Y782781I-1000J0D01*
G01*
X1138076D02*
G03*
X1137076Y781781I0J-1000D01*
G01*
Y778581D02*
G03*
X1138076Y777581I1000J0D01*
G01*
X1093876Y794181D02*
G03*
X1092876Y793181I0J-1000D01*
G01*
X1114276D02*
G03*
X1113276Y794181I-1000J0D01*
G01*
Y789381D02*
G03*
X1114276Y790381I0J1000D01*
G01*
X1040076Y756281D02*
G03*
X1040076Y756281I-300J0D01*
G01*
X1237176Y729881D02*
G03*
X1237176Y729881I-300J0D01*
G01*
X1246976Y732081D02*
G03*
X1247976Y731081I1000J0D01*
G01*
X1153376Y777581D02*
G03*
X1154376Y778581I0J1000D01*
G01*
X1247976Y735481D02*
G03*
X1246976Y734481I0J-1000D01*
G01*
X1203776Y736581D02*
G03*
X1202776Y737581I-1000J0D01*
G01*
X1235776Y805481D02*
G03*
X1236776Y806481I0J1000D01*
G01*
X1092876Y790381D02*
G03*
X1093876Y789381I1000J0D01*
G01*
X1191076Y732481D02*
X1202776D01*
X1181663Y791656D02*
X1183488D01*
X1181663Y788506D02*
X1183488D01*
X1154576Y800781D02*
X1166076D01*
X1263476Y732081D02*
Y734481D01*
X1190076Y733481D02*
Y736581D01*
X1213576Y810381D02*
X1235776D01*
X1212576Y806481D02*
Y809381D01*
X1138076Y782781D02*
X1153376D01*
X1137076Y778581D02*
Y781781D01*
X1153576Y792081D02*
Y799781D01*
X1167076Y796381D02*
Y799781D01*
Y792081D02*
Y796381D01*
X1093876Y794181D02*
X1113276D01*
X1114276Y790381D02*
Y793181D01*
X1243976Y801656D02*
X1245576D01*
X1243976Y798506D02*
X1245576D01*
X1243976Y805156D02*
X1245576D01*
X1243976Y802006D02*
X1245576D01*
X1045463Y747606D02*
X1047288D01*
X1045463Y750756D02*
X1047288D01*
X1043976Y762681D02*
X1044776D01*
X1043976Y751481D02*
X1044776D01*
X1048976Y755881D02*
Y758281D01*
X1039976Y757281D02*
Y758281D01*
X1230476Y734081D02*
Y734881D01*
X1241676Y734081D02*
Y734881D01*
X1234876Y739081D02*
X1237276D01*
X1234876Y730081D02*
X1235876D01*
X1067563Y788806D02*
X1069388D01*
X1067563Y791956D02*
X1069388D01*
X1247976Y731081D02*
X1262476D01*
X1138076Y777581D02*
X1153376D01*
X1246976Y732081D02*
Y734481D01*
X1153576Y792081D02*
X1167076D01*
X1251050Y738881D02*
Y740481D01*
X1247901Y738881D02*
Y740481D01*
X1237650Y795669D02*
Y797494D01*
X1234501Y795669D02*
Y797494D01*
X1238925Y783757D02*
X1240425D01*
X1211924D02*
X1213925D01*
X1211924Y781757D02*
Y783757D01*
Y754757D02*
Y756757D01*
Y754757D02*
X1213925D01*
X1238925D02*
X1240924D01*
Y756757D01*
X1246576Y787481D02*
X1251576D01*
X1246576Y798081D02*
X1251576D01*
X1244776Y760181D02*
Y765181D01*
X1255376Y760181D02*
Y765181D01*
X1134541Y743832D02*
Y744619D01*
X1136991Y743832D02*
Y744619D01*
X1064501Y784906D02*
X1065288D01*
X1064501Y782456D02*
X1065288D01*
X1049501Y737269D02*
Y738056D01*
X1047051Y737269D02*
Y738056D01*
X1242916Y747229D02*
Y748016D01*
X1245366Y747229D02*
Y748016D01*
X1233555Y796700D02*
Y797487D01*
X1231105Y796700D02*
Y797487D01*
X1064501Y788206D02*
X1065288D01*
X1064501Y785756D02*
X1065288D01*
X1048756Y766486D02*
X1050356D01*
X1048756Y763336D02*
X1050356D01*
X1257176Y780556D02*
X1258776D01*
X1257176Y777406D02*
X1258776D01*
X1257126Y775506D02*
X1258726D01*
X1257126Y772356D02*
X1258726D01*
X1263876Y772256D02*
X1265476D01*
X1263876Y769106D02*
X1265476D01*
X1263876Y775456D02*
X1265476D01*
X1263876Y772306D02*
X1265476D01*
X1122451Y731731D02*
Y733331D01*
X1125600Y731731D02*
Y733331D01*
X1125651Y731731D02*
Y733331D01*
X1128800Y731731D02*
Y733331D01*
X1165500Y778731D02*
Y780331D01*
X1162351Y778731D02*
Y780331D01*
X1166890Y787601D02*
Y789201D01*
X1163741Y787601D02*
Y789201D01*
X1163530Y787601D02*
Y789201D01*
X1160381Y787601D02*
Y789201D01*
X1160290Y787591D02*
Y789191D01*
X1157141Y787591D02*
Y789191D01*
X1157110Y787611D02*
Y789211D01*
X1153961Y787611D02*
Y789211D01*
X1181546Y767533D02*
X1182678Y766402D01*
X1183774Y769760D02*
X1184905Y768629D01*
X1191259Y755221D02*
X1192859D01*
X1191259Y758370D02*
X1192859D01*
X1191235Y751982D02*
X1192835D01*
X1191235Y755131D02*
X1192835D01*
X1198531Y754443D02*
Y756043D01*
X1195382Y754443D02*
Y756043D01*
X1198531Y746766D02*
Y748365D01*
X1195382Y746766D02*
Y748365D01*
X1191259Y747543D02*
X1192859D01*
X1191259Y750693D02*
X1192859D01*
X1084787Y743911D02*
X1086387D01*
X1084787Y747061D02*
X1086387D01*
X1217301Y745881D02*
Y747481D01*
X1220450Y745881D02*
Y747481D01*
X1102976Y750706D02*
X1104576D01*
X1102976Y753856D02*
X1104576D01*
X1184474Y764510D02*
X1185605Y763379D01*
X1182246Y762283D02*
X1183378Y761152D01*
X1189923Y763510D02*
X1191055Y762379D01*
X1187696Y761283D02*
X1188828Y760152D01*
X1191259Y744295D02*
X1192859D01*
X1191259Y747445D02*
X1192859D01*
X1141766Y737836D02*
X1143366D01*
X1141766Y740986D02*
X1143366D01*
X1106550Y728481D02*
Y730081D01*
X1103401Y728481D02*
Y730081D01*
X1072301Y743281D02*
Y744881D01*
X1075450Y743281D02*
Y744881D01*
X1068650Y743281D02*
Y744881D01*
X1065501Y743281D02*
Y744881D01*
X1062001Y743281D02*
Y744881D01*
X1065150Y743281D02*
Y744881D01*
X1227999Y746804D02*
Y748404D01*
X1224850Y746804D02*
Y748404D01*
X1084787Y747454D02*
X1086387D01*
X1084787Y750604D02*
X1086387D01*
X1096401Y764781D02*
Y766381D01*
X1099550Y764781D02*
Y766381D01*
X1141776Y734606D02*
X1143376D01*
X1141776Y737756D02*
X1143376D01*
X1139380Y737059D02*
Y738884D01*
X1136231Y737059D02*
Y738884D01*
X1136080Y737039D02*
Y738864D01*
X1132931Y737039D02*
Y738864D01*
X1198417Y788540D02*
Y790365D01*
X1201566Y788540D02*
Y790365D01*
X1084301Y739469D02*
Y741294D01*
X1087450Y739469D02*
Y741294D01*
X1092350Y772269D02*
Y774094D01*
X1089201Y772269D02*
Y774094D01*
X1045463Y740806D02*
X1047288D01*
X1045463Y743956D02*
X1047288D01*
X1045463Y744206D02*
X1047288D01*
X1045463Y747356D02*
X1047288D01*
X1060263Y764956D02*
X1062088D01*
X1060263Y761806D02*
X1062088D01*
X1110401Y731799D02*
Y733624D01*
X1113550Y731799D02*
Y733624D01*
X1237323Y740124D02*
X1239148D01*
X1237323Y743273D02*
X1239148D01*
X1245716Y738817D02*
Y740642D01*
X1242566Y738817D02*
Y740642D01*
X1238629Y746691D02*
Y748516D01*
X1241779Y746691D02*
Y748516D01*
X1234501Y788969D02*
Y790794D01*
X1237650Y788969D02*
Y790794D01*
X1229646Y740320D02*
X1231471D01*
X1229646Y743470D02*
X1231471D01*
X1245528Y778628D02*
Y780453D01*
X1248678Y778628D02*
Y780453D01*
X1220701Y745769D02*
Y747594D01*
X1223850Y745769D02*
Y747594D01*
X1233905Y746691D02*
Y748516D01*
X1230755Y746691D02*
Y748516D01*
X1204843Y764730D02*
X1206668D01*
X1204843Y767879D02*
X1206668D01*
X1226263Y793406D02*
X1228088D01*
X1226263Y796556D02*
X1228088D01*
X1216563Y787606D02*
X1218388D01*
X1216563Y790756D02*
X1218388D01*
X1216563Y791206D02*
X1218388D01*
X1216563Y794356D02*
X1218388D01*
X1229863Y790106D02*
X1231688D01*
X1229863Y793256D02*
X1231688D01*
X1229863Y786606D02*
X1231688D01*
X1229863Y789756D02*
X1231688D01*
X1213826Y789998D02*
Y791823D01*
X1210676Y789998D02*
Y791823D01*
X1207133Y789998D02*
Y791823D01*
X1210283Y789998D02*
Y791823D01*
X1216563Y797956D02*
X1218388D01*
X1216563Y794806D02*
X1218388D01*
X1154600Y769783D02*
Y771608D01*
X1157750Y769783D02*
Y771608D01*
X1142063Y758206D02*
X1143888D01*
X1142063Y761356D02*
X1143888D01*
X1149450Y736669D02*
Y738494D01*
X1146301Y736669D02*
Y738494D01*
X1173950Y731269D02*
Y733094D01*
X1170801Y731269D02*
Y733094D01*
X1165607Y770361D02*
Y772186D01*
X1162457Y770361D02*
Y772186D01*
X1144163Y748656D02*
X1145988D01*
X1144163Y745506D02*
X1145988D01*
X1061750Y743169D02*
Y744994D01*
X1058601Y743169D02*
Y744994D01*
X1077650Y777569D02*
Y779394D01*
X1074501Y777569D02*
Y779394D01*
X1080814Y777546D02*
Y779371D01*
X1077664Y777546D02*
Y779371D01*
X1060265Y758478D02*
X1062090D01*
X1060265Y761627D02*
X1062090D01*
X1072054Y743146D02*
Y744971D01*
X1068904Y743146D02*
Y744971D01*
X1060263Y758256D02*
X1062088D01*
X1060263Y755106D02*
X1062088D01*
X1061063Y751656D02*
X1062888D01*
X1061063Y748506D02*
X1062888D01*
X1075597Y743146D02*
Y744971D01*
X1078747Y743146D02*
Y744971D01*
X1071141Y737366D02*
X1072966D01*
X1071141Y740515D02*
X1072966D01*
X1078747Y743146D02*
Y744971D01*
X1081896Y743146D02*
Y744971D01*
X1094911Y758183D02*
X1096736D01*
X1094911Y761332D02*
X1096736D01*
X1229550Y735869D02*
Y737694D01*
X1226401Y735869D02*
Y737694D01*
X1085863Y780256D02*
X1087688D01*
X1085863Y777106D02*
X1087688D01*
X1068263Y778156D02*
X1070088D01*
X1068263Y775006D02*
X1070088D01*
X1068263Y781556D02*
X1070088D01*
X1068263Y778406D02*
X1070088D01*
X1094911Y754344D02*
X1096736D01*
X1094911Y757494D02*
X1096736D01*
X1088835Y746345D02*
Y748170D01*
X1091985Y746345D02*
Y748170D01*
X1094911Y750505D02*
X1096736D01*
X1094911Y753655D02*
X1096736D01*
X1124734Y759659D02*
X1126559D01*
X1124734Y762809D02*
X1126559D01*
X1078463Y805656D02*
X1080288D01*
X1078463Y808806D02*
X1080288D01*
X1106722Y780919D02*
X1108547D01*
X1106722Y784068D02*
X1108547D01*
X1106722Y777474D02*
X1108547D01*
X1106722Y780624D02*
X1108547D01*
X1106698Y774087D02*
X1108523D01*
X1106698Y777237D02*
X1108523D01*
X1071450Y784369D02*
Y786194D01*
X1068301Y784369D02*
Y786194D01*
X1254250Y752469D02*
Y754294D01*
X1251101Y752469D02*
Y754294D01*
X1237645Y746691D02*
Y748516D01*
X1234495Y746691D02*
Y748516D01*
X1248678Y778628D02*
Y780453D01*
X1251828Y778628D02*
Y780453D01*
X1250056Y800676D02*
Y802501D01*
X1253205Y800676D02*
Y802501D01*
X1072918Y804943D02*
X1087288D01*
X1088666Y803564D01*
Y784077D02*
Y803564D01*
X1072918Y784077D02*
X1088666D01*
X1072918D02*
Y804943D01*
X1191076Y737581D02*
X1202776D01*
X1203776Y733381D02*
Y736581D01*
X1247976Y735481D02*
X1262476D01*
X1213576Y805481D02*
X1235776D01*
X1236776Y806481D02*
Y809381D01*
X1092876Y790381D02*
Y793181D01*
X1093876Y789381D02*
X1113276D01*
X1154376Y778581D02*
Y781781D01*
D49*
X1123057Y737360D02*
G03*
X1123451Y737360I197J0D01*
G01*
D02*
G03*
X1123057Y737360I-197J0D01*
G01*
X1106426Y757356D02*
X1107926D01*
X1106426Y754206D02*
X1107926D01*
X1100101Y776031D02*
Y777531D01*
X1103251Y776031D02*
Y777531D01*
X1176307Y766701D02*
X1178276D01*
Y764733D02*
Y766701D01*
Y738501D02*
Y740470D01*
X1176307Y738501D02*
X1178276D01*
X1150076D02*
Y740470D01*
Y738501D02*
X1152044D01*
X1150076Y766701D02*
X1152044D01*
X1150076Y764733D02*
Y766701D01*
X1092501Y764231D02*
Y765731D01*
X1095651Y764231D02*
Y765731D01*
X1247926Y786856D02*
X1249426D01*
X1247926Y783706D02*
X1249426D01*
X1127880Y747694D02*
X1128471D01*
X1123876Y741481D02*
Y743056D01*
X1132476Y741481D02*
Y743056D01*
X1127880Y736868D02*
X1128471D01*
X1276749Y699502D02*
G03*
X1290528Y713281I0J13780D01*
G01*
X1034623Y712769D02*
G03*
X1047891Y699502I13268J0D01*
G01*
X1048995Y817730D02*
G03*
X1034623Y803358I0J-14372D01*
G01*
X1290528Y813564D02*
G03*
X1286362Y817730I-4166J0D01*
G01*
X1047891Y699502D02*
X1276749Y699502D01*
X1034623Y712769D02*
X1034623Y796470D01*
X1290528Y718006D02*
Y767631D01*
X1084591Y815466D02*
X1107961D01*
X1034623Y796470D02*
Y803358D01*
X1290528Y713281D02*
Y718006D01*
X1110224Y817730D02*
X1286362D01*
X1290528Y767631D02*
Y813564D01*
X1082327Y817730D02*
X1084591Y815466D01*
X1048995Y817730D02*
X1082327D01*
X1107961Y815466D02*
X1110224Y817730D01*
D109*
X1179363Y763401D02*
G03*
X1179363Y763401I-394J0D01*
G01*
X1253069Y797581D02*
G03*
X1253069Y797581I-394J0D01*
G01*
X1255269Y759081D02*
G03*
X1255269Y759081I-394J0D01*
G01*
X1088413Y752039D02*
Y753515D01*
Y771372D02*
Y773115D01*
X1086670D02*
X1088413D01*
X1067013D02*
X1068757D01*
X1067013Y771372D02*
Y773115D01*
Y751715D02*
X1068757D01*
X1067013D02*
Y753458D01*
X1061787Y703281D02*
X1263363D01*
X1061787Y723281D02*
X1263363D01*
X1061787Y703281D02*
Y723281D01*
X1263363Y703281D02*
Y723281D01*
D175*
X1087162Y751982D02*
G03*
X1087162Y751982I-492J0D01*
G01*
D176*
X1113228Y742511D02*
G03*
X1113228Y742511I-492J0D01*
G01*
D177*
X1122236Y730599D02*
Y742411D01*
X1113636Y740611D02*
X1113636Y730524D01*
M02*
