G04*
G04 #@! TF.GenerationSoftware,Altium Limited,CircuitStudio,1.5.2 (30)*
G04*
G04 Layer_Physical_Order=3*
G04 Layer_Color=56745*
%FSLAX25Y25*%
%MOIN*%
G70*
G01*
G75*
%ADD10C,0.00800*%
%ADD46C,0.00600*%
%ADD47C,0.01200*%
%ADD48C,0.01400*%
%ADD50C,0.00400*%
%ADD52C,0.00500*%
%ADD54C,0.02200*%
%ADD65C,0.05906*%
%ADD66C,0.02362*%
%ADD67C,0.03819*%
%ADD68C,0.01600*%
%ADD69C,0.01000*%
%ADD70C,0.05118*%
%ADD74C,0.02000*%
G36*
X1048995Y817364D02*
X1082175D01*
X1082867Y816672D01*
X1083979Y815819D01*
X1084894Y815440D01*
X1085273Y815283D01*
X1086662Y815100D01*
X1105890D01*
X1107278Y815283D01*
X1108572Y815819D01*
X1109684Y816672D01*
X1110376Y817364D01*
X1286362D01*
X1286471Y817378D01*
X1287353Y817262D01*
X1288277Y816880D01*
X1289070Y816271D01*
X1289678Y815478D01*
X1290061Y814555D01*
X1290177Y813673D01*
X1290162Y813564D01*
Y713281D01*
X1290186Y713103D01*
X1290034Y711177D01*
X1289542Y709125D01*
X1288734Y707174D01*
X1287631Y705375D01*
X1286260Y703770D01*
X1284655Y702399D01*
X1282856Y701296D01*
X1280905Y700488D01*
X1278853Y699996D01*
X1276927Y699844D01*
X1276749Y699867D01*
X1047891Y699867D01*
X1047720Y699845D01*
X1045867Y699991D01*
X1043893Y700465D01*
X1042017Y701242D01*
X1040286Y702302D01*
X1038742Y703621D01*
X1037424Y705165D01*
X1036363Y706896D01*
X1035586Y708771D01*
X1035112Y710745D01*
X1034966Y712599D01*
X1034989Y712769D01*
X1034989Y796470D01*
Y803358D01*
X1034964Y803544D01*
X1035122Y805555D01*
X1035637Y807698D01*
X1036480Y809734D01*
X1037632Y811613D01*
X1039063Y813290D01*
X1040739Y814721D01*
X1042618Y815872D01*
X1044655Y816716D01*
X1046798Y817230D01*
X1048809Y817389D01*
X1048995Y817364D01*
D02*
G37*
%LPC*%
G36*
X1225476Y782517D02*
X1225156Y782453D01*
X1224884Y782272D01*
X1224703Y782001D01*
X1224640Y781681D01*
X1224703Y781361D01*
X1224884Y781090D01*
X1225156Y780909D01*
X1225476Y780845D01*
X1225509Y780852D01*
X1227613Y778748D01*
Y757781D01*
X1227778Y757383D01*
X1228713Y756448D01*
Y750351D01*
X1219478Y741116D01*
X1219313Y740718D01*
Y734352D01*
X1219068Y734189D01*
X1218821Y733818D01*
X1218734Y733381D01*
X1218821Y732944D01*
X1219068Y732574D01*
X1219439Y732326D01*
X1219876Y732239D01*
X1220313Y732326D01*
X1220683Y732574D01*
X1220931Y732944D01*
X1221017Y733381D01*
X1220931Y733818D01*
X1220683Y734189D01*
X1220438Y734352D01*
Y740485D01*
X1229674Y749720D01*
X1229838Y750118D01*
Y756681D01*
X1229674Y757079D01*
X1229674Y757079D01*
X1228738Y758014D01*
Y778981D01*
X1228738Y778981D01*
X1228574Y779379D01*
X1226305Y781648D01*
X1226312Y781681D01*
X1226248Y782001D01*
X1226067Y782272D01*
X1225795Y782453D01*
X1225476Y782517D01*
D02*
G37*
G36*
X1166576Y733381D02*
X1166139Y733294D01*
X1165768Y733047D01*
X1165521Y732676D01*
X1165434Y732239D01*
X1165521Y731802D01*
X1165768Y731432D01*
X1166139Y731184D01*
X1166576Y731097D01*
X1167013Y731184D01*
X1167383Y731432D01*
X1167631Y731802D01*
X1167717Y732239D01*
X1167631Y732676D01*
X1167383Y733047D01*
X1167013Y733294D01*
X1166576Y733381D01*
D02*
G37*
G36*
X1215676Y731323D02*
X1215239Y731236D01*
X1214868Y730989D01*
X1214783D01*
X1214413Y731236D01*
X1213976Y731323D01*
X1213539Y731236D01*
X1213168Y730989D01*
X1212921Y730618D01*
X1212834Y730181D01*
X1212921Y729744D01*
X1213168Y729374D01*
X1213539Y729126D01*
X1213976Y729039D01*
X1214413Y729126D01*
X1214783Y729374D01*
X1214868D01*
X1215239Y729126D01*
X1215676Y729039D01*
X1216113Y729126D01*
X1216483Y729374D01*
X1216731Y729744D01*
X1216817Y730181D01*
X1216731Y730618D01*
X1216483Y730989D01*
X1216113Y731236D01*
X1215676Y731323D01*
D02*
G37*
G36*
X1171476Y737511D02*
X1171039Y737424D01*
X1170668Y737177D01*
X1170421Y736806D01*
X1170334Y736369D01*
X1170421Y735932D01*
X1170668Y735562D01*
X1171039Y735314D01*
X1171476Y735227D01*
X1171913Y735314D01*
X1172283Y735562D01*
X1172531Y735932D01*
X1172618Y736369D01*
X1172531Y736806D01*
X1172283Y737177D01*
X1171913Y737424D01*
X1171476Y737511D01*
D02*
G37*
G36*
X1159276Y736923D02*
X1158839Y736836D01*
X1158468Y736589D01*
X1158221Y736218D01*
X1158162Y735926D01*
X1158009Y735684D01*
X1157692Y735437D01*
X1157439Y735386D01*
X1157068Y735139D01*
X1156821Y734768D01*
X1156734Y734331D01*
X1156821Y733894D01*
X1157068Y733524D01*
X1157439Y733276D01*
X1157876Y733189D01*
X1158313Y733276D01*
X1158683Y733524D01*
X1158931Y733894D01*
X1158989Y734186D01*
X1159142Y734428D01*
X1159459Y734676D01*
X1159713Y734726D01*
X1160083Y734974D01*
X1160331Y735344D01*
X1160417Y735781D01*
X1160331Y736218D01*
X1160083Y736589D01*
X1159713Y736836D01*
X1159276Y736923D01*
D02*
G37*
G36*
X1053016Y734620D02*
X1052579Y734533D01*
X1052209Y734285D01*
X1051961Y733915D01*
X1051875Y733478D01*
X1051961Y733041D01*
X1052209Y732670D01*
X1052579Y732423D01*
X1053016Y732336D01*
X1053454Y732423D01*
X1053824Y732670D01*
X1054072Y733041D01*
X1054158Y733478D01*
X1054072Y733915D01*
X1053824Y734285D01*
X1053454Y734533D01*
X1053016Y734620D01*
D02*
G37*
G36*
X1250576Y738617D02*
X1250256Y738553D01*
X1249984Y738372D01*
X1249803Y738101D01*
X1249739Y737781D01*
X1249803Y737461D01*
X1249943Y737251D01*
Y736051D01*
X1249209Y735316D01*
X1249072Y735111D01*
X1249023Y734869D01*
Y730695D01*
X1249072Y730453D01*
X1249209Y730248D01*
X1251023Y728434D01*
X1251228Y728297D01*
X1251470Y728249D01*
X1256176D01*
X1256417Y728297D01*
X1256623Y728434D01*
X1257169Y728980D01*
X1257376Y728939D01*
X1257813Y729026D01*
X1258183Y729274D01*
X1258431Y729644D01*
X1258517Y730081D01*
X1258431Y730518D01*
X1258183Y730889D01*
X1257813Y731136D01*
X1257376Y731223D01*
X1256939Y731136D01*
X1256568Y730889D01*
X1256321Y730518D01*
X1256234Y730081D01*
X1256275Y729874D01*
X1255914Y729513D01*
X1251731D01*
X1250288Y730957D01*
Y734607D01*
X1251023Y735342D01*
X1251160Y735547D01*
X1251208Y735789D01*
X1251208Y735789D01*
Y737251D01*
X1251348Y737461D01*
X1251412Y737781D01*
X1251348Y738101D01*
X1251167Y738372D01*
X1250896Y738553D01*
X1250576Y738617D01*
D02*
G37*
G36*
X1202176Y726823D02*
X1201739Y726736D01*
X1201656Y726681D01*
X1201276Y726526D01*
X1200895Y726681D01*
X1200813Y726736D01*
X1200376Y726823D01*
X1199939Y726736D01*
X1199568Y726489D01*
X1199321Y726118D01*
X1199234Y725681D01*
X1199321Y725244D01*
X1199568Y724874D01*
X1199939Y724626D01*
X1200376Y724539D01*
X1200813Y724626D01*
X1200895Y724681D01*
X1201276Y724836D01*
X1201656Y724681D01*
X1201739Y724626D01*
X1202176Y724539D01*
X1202613Y724626D01*
X1202983Y724874D01*
X1203231Y725244D01*
X1203318Y725681D01*
X1203231Y726118D01*
X1202983Y726489D01*
X1202613Y726736D01*
X1202176Y726823D01*
D02*
G37*
G36*
X1109876Y728523D02*
X1109439Y728436D01*
X1109068Y728189D01*
X1108821Y727818D01*
X1108734Y727381D01*
X1108821Y726944D01*
X1109068Y726574D01*
X1109439Y726326D01*
X1109876Y726239D01*
X1110313Y726326D01*
X1110683Y726574D01*
X1110931Y726944D01*
X1111018Y727381D01*
X1110931Y727818D01*
X1110683Y728189D01*
X1110313Y728436D01*
X1109876Y728523D01*
D02*
G37*
G36*
X1107076Y726623D02*
X1106639Y726536D01*
X1106268Y726289D01*
X1106021Y725918D01*
X1105934Y725481D01*
X1106021Y725044D01*
X1106268Y724674D01*
X1106639Y724426D01*
X1107076Y724339D01*
X1107513Y724426D01*
X1107883Y724674D01*
X1108131Y725044D01*
X1108218Y725481D01*
X1108131Y725918D01*
X1107883Y726289D01*
X1107513Y726536D01*
X1107076Y726623D01*
D02*
G37*
G36*
X1127376Y730723D02*
X1126939Y730636D01*
X1126568Y730389D01*
X1126321Y730018D01*
X1126234Y729581D01*
X1126321Y729144D01*
X1126568Y728774D01*
X1126939Y728526D01*
X1127376Y728439D01*
X1127813Y728526D01*
X1128183Y728774D01*
X1128431Y729144D01*
X1128518Y729581D01*
X1128431Y730018D01*
X1128183Y730389D01*
X1127813Y730636D01*
X1127376Y730723D01*
D02*
G37*
G36*
X1123976D02*
X1123539Y730636D01*
X1123168Y730389D01*
X1122921Y730018D01*
X1122834Y729581D01*
X1122921Y729144D01*
X1123168Y728774D01*
X1123539Y728526D01*
X1123976Y728439D01*
X1124413Y728526D01*
X1124783Y728774D01*
X1125031Y729144D01*
X1125117Y729581D01*
X1125031Y730018D01*
X1124783Y730389D01*
X1124413Y730636D01*
X1123976Y730723D01*
D02*
G37*
G36*
X1181976Y728223D02*
X1181539Y728136D01*
X1181456Y728081D01*
X1181076Y727926D01*
X1180695Y728081D01*
X1180613Y728136D01*
X1180176Y728223D01*
X1179739Y728136D01*
X1179368Y727889D01*
X1179121Y727518D01*
X1179034Y727081D01*
X1179121Y726644D01*
X1179368Y726274D01*
X1179739Y726026D01*
X1180176Y725939D01*
X1180613Y726026D01*
X1180695Y726081D01*
X1181076Y726236D01*
X1181456Y726081D01*
X1181539Y726026D01*
X1181976Y725939D01*
X1182413Y726026D01*
X1182783Y726274D01*
X1183031Y726644D01*
X1183117Y727081D01*
X1183031Y727518D01*
X1182783Y727889D01*
X1182413Y728136D01*
X1181976Y728223D01*
D02*
G37*
G36*
X1239076Y757723D02*
X1238639Y757636D01*
X1238268Y757389D01*
X1238021Y757018D01*
X1237934Y756581D01*
X1238021Y756144D01*
X1238268Y755774D01*
X1238639Y755526D01*
X1239076Y755439D01*
X1239364Y755497D01*
X1239978Y754883D01*
X1240376Y754718D01*
X1243342D01*
X1248393Y749668D01*
Y742950D01*
X1247893Y742683D01*
X1247813Y742736D01*
X1247376Y742823D01*
X1246939Y742736D01*
X1246568Y742489D01*
X1246321Y742118D01*
X1246234Y741681D01*
X1246321Y741244D01*
X1246568Y740874D01*
X1246939Y740626D01*
X1247376Y740539D01*
X1247520Y740568D01*
X1248041Y740254D01*
X1248070Y740206D01*
X1248100Y740002D01*
X1247178Y739079D01*
X1247013Y738681D01*
Y727981D01*
X1247178Y727583D01*
X1252151Y722610D01*
Y716880D01*
X1249429Y714159D01*
X1246264D01*
X1245866Y713994D01*
X1242429Y710557D01*
X1242264Y710159D01*
Y708470D01*
X1237815Y704021D01*
X1196978D01*
X1192320Y708679D01*
X1191922Y708844D01*
X1190802D01*
X1190764Y709135D01*
X1190434Y709932D01*
X1189910Y710615D01*
X1189226Y711140D01*
X1188430Y711470D01*
X1187576Y711582D01*
X1186721Y711470D01*
X1185925Y711140D01*
X1185241Y710615D01*
X1184717Y709932D01*
X1184387Y709135D01*
X1184275Y708281D01*
X1184387Y707427D01*
X1184717Y706631D01*
X1185241Y705947D01*
X1185925Y705422D01*
X1186721Y705093D01*
X1187576Y704980D01*
X1188430Y705093D01*
X1189226Y705422D01*
X1189910Y705947D01*
X1190434Y706631D01*
X1190764Y707427D01*
X1190802Y707718D01*
X1191689D01*
X1196346Y703060D01*
X1196745Y702895D01*
X1238048D01*
X1238446Y703060D01*
X1243225Y707839D01*
X1243225Y707839D01*
X1243390Y708237D01*
X1243390Y708237D01*
Y709926D01*
X1246497Y713033D01*
X1249662D01*
X1250060Y713198D01*
X1253111Y716249D01*
X1253111Y716249D01*
X1253276Y716647D01*
Y722843D01*
X1253276Y722843D01*
X1253111Y723241D01*
X1248138Y728214D01*
Y738448D01*
X1249354Y739663D01*
X1249354Y739663D01*
X1249518Y740061D01*
Y749901D01*
X1249354Y750299D01*
X1243974Y755679D01*
X1243576Y755844D01*
X1240609D01*
X1240160Y756292D01*
X1240217Y756581D01*
X1240131Y757018D01*
X1239883Y757389D01*
X1239513Y757636D01*
X1239076Y757723D01*
D02*
G37*
G36*
X1050548Y744462D02*
X1050111Y744375D01*
X1049741Y744128D01*
X1049493Y743757D01*
X1049406Y743320D01*
X1049493Y742883D01*
X1049741Y742513D01*
X1050111Y742265D01*
X1050548Y742178D01*
X1050985Y742265D01*
X1051355Y742513D01*
X1051603Y742883D01*
X1051690Y743320D01*
X1051603Y743757D01*
X1051355Y744128D01*
X1050985Y744375D01*
X1050548Y744462D01*
D02*
G37*
G36*
X1153676Y744423D02*
X1153239Y744336D01*
X1152868Y744089D01*
X1152621Y743718D01*
X1152534Y743281D01*
X1152621Y742844D01*
X1152868Y742474D01*
X1153239Y742226D01*
X1153676Y742139D01*
X1154113Y742226D01*
X1154483Y742474D01*
X1154731Y742844D01*
X1154817Y743281D01*
X1154731Y743718D01*
X1154483Y744089D01*
X1154113Y744336D01*
X1153676Y744423D01*
D02*
G37*
G36*
X1179776Y749223D02*
X1179339Y749136D01*
X1178968Y748889D01*
X1178721Y748518D01*
X1178634Y748081D01*
X1178721Y747644D01*
X1178968Y747274D01*
X1179339Y747026D01*
X1179776Y746939D01*
X1180213Y747026D01*
X1180583Y747274D01*
X1180831Y747644D01*
X1180917Y748081D01*
X1180831Y748518D01*
X1180583Y748889D01*
X1180213Y749136D01*
X1179776Y749223D01*
D02*
G37*
G36*
X1077625Y777662D02*
X1077071Y777552D01*
X1076601Y777238D01*
X1072112Y772749D01*
X1070956D01*
X1070402Y772639D01*
X1069932Y772325D01*
X1067252Y769644D01*
X1066938Y769175D01*
X1066828Y768621D01*
Y754136D01*
X1066938Y753582D01*
X1067252Y753112D01*
X1075361Y745003D01*
X1075831Y744690D01*
X1076385Y744579D01*
X1078747D01*
X1079301Y744690D01*
X1079771Y745003D01*
X1080085Y745473D01*
X1080195Y746027D01*
X1080085Y746581D01*
X1079771Y747051D01*
X1079301Y747365D01*
X1078747Y747475D01*
X1076984D01*
X1069723Y754736D01*
Y768021D01*
X1071556Y769853D01*
X1072712D01*
X1073266Y769964D01*
X1073736Y770277D01*
X1078649Y775191D01*
X1078963Y775660D01*
X1079073Y776214D01*
X1078963Y776768D01*
X1078649Y777238D01*
X1078179Y777552D01*
X1077625Y777662D01*
D02*
G37*
G36*
X1056552Y745250D02*
X1056115Y745163D01*
X1055744Y744915D01*
X1055497Y744545D01*
X1055410Y744108D01*
X1055497Y743671D01*
X1055744Y743300D01*
X1056115Y743053D01*
X1056552Y742966D01*
X1056989Y743053D01*
X1057359Y743300D01*
X1057607Y743671D01*
X1057694Y744108D01*
X1057607Y744545D01*
X1057359Y744915D01*
X1056989Y745163D01*
X1056552Y745250D01*
D02*
G37*
G36*
X1213377Y743896D02*
X1212753Y743772D01*
X1212224Y743418D01*
X1211870Y742889D01*
X1211746Y742264D01*
X1211870Y741640D01*
X1212224Y741111D01*
X1212753Y740757D01*
X1213377Y740633D01*
X1214001Y740757D01*
X1214531Y741111D01*
X1214884Y741640D01*
X1215009Y742264D01*
X1214884Y742889D01*
X1214531Y743418D01*
X1214001Y743772D01*
X1213377Y743896D01*
D02*
G37*
G36*
X1215676Y736723D02*
X1215239Y736636D01*
X1214868Y736389D01*
X1214783D01*
X1214413Y736636D01*
X1213976Y736723D01*
X1213539Y736636D01*
X1213168Y736389D01*
X1212921Y736018D01*
X1212834Y735581D01*
X1212921Y735144D01*
X1213168Y734774D01*
X1213539Y734526D01*
X1213976Y734439D01*
X1214413Y734526D01*
X1214783Y734774D01*
X1214868D01*
X1215239Y734526D01*
X1215676Y734439D01*
X1216113Y734526D01*
X1216483Y734774D01*
X1216731Y735144D01*
X1216817Y735581D01*
X1216731Y736018D01*
X1216483Y736389D01*
X1216113Y736636D01*
X1215676Y736723D01*
D02*
G37*
G36*
X1152526Y738623D02*
X1152089Y738536D01*
X1151718Y738289D01*
X1151471Y737918D01*
X1151384Y737481D01*
X1151471Y737044D01*
X1151718Y736674D01*
X1152089Y736426D01*
X1152526Y736339D01*
X1152963Y736426D01*
X1153333Y736674D01*
X1153581Y737044D01*
X1153668Y737481D01*
X1153581Y737918D01*
X1153333Y738289D01*
X1152963Y738536D01*
X1152526Y738623D01*
D02*
G37*
G36*
X1050376Y738423D02*
X1049939Y738336D01*
X1049568Y738089D01*
X1049321Y737718D01*
X1049234Y737281D01*
X1049321Y736844D01*
X1049568Y736474D01*
X1049939Y736226D01*
X1050376Y736139D01*
X1050813Y736226D01*
X1051183Y736474D01*
X1051431Y736844D01*
X1051517Y737281D01*
X1051431Y737718D01*
X1051183Y738089D01*
X1050813Y738336D01*
X1050376Y738423D01*
D02*
G37*
G36*
X1188276Y740523D02*
X1187839Y740436D01*
X1187468Y740189D01*
X1187221Y739818D01*
X1187134Y739381D01*
X1187221Y738944D01*
X1187468Y738574D01*
X1187839Y738326D01*
X1188276Y738239D01*
X1188713Y738326D01*
X1189083Y738574D01*
X1189331Y738944D01*
X1189417Y739381D01*
X1189331Y739818D01*
X1189083Y740189D01*
X1188713Y740436D01*
X1188276Y740523D01*
D02*
G37*
G36*
X1041276Y739473D02*
X1040839Y739386D01*
X1040468Y739139D01*
X1040221Y738768D01*
X1040134Y738331D01*
X1040221Y737894D01*
X1040468Y737524D01*
X1040839Y737276D01*
X1041276Y737189D01*
X1041713Y737276D01*
X1042083Y737524D01*
X1042331Y737894D01*
X1042418Y738331D01*
X1042331Y738768D01*
X1042083Y739139D01*
X1041713Y739386D01*
X1041276Y739473D01*
D02*
G37*
G36*
X1066416Y738756D02*
X1065979Y738669D01*
X1065608Y738421D01*
X1065361Y738051D01*
X1065274Y737614D01*
X1065361Y737177D01*
X1065608Y736806D01*
X1065979Y736559D01*
X1066416Y736472D01*
X1066853Y736559D01*
X1067223Y736806D01*
X1067471Y737177D01*
X1067558Y737614D01*
X1067471Y738051D01*
X1067223Y738421D01*
X1066853Y738669D01*
X1066416Y738756D01*
D02*
G37*
G36*
X1207576Y711582D02*
X1206721Y711470D01*
X1205925Y711140D01*
X1205241Y710615D01*
X1204717Y709932D01*
X1204387Y709135D01*
X1204275Y708281D01*
X1204387Y707427D01*
X1204717Y706631D01*
X1205241Y705947D01*
X1205925Y705422D01*
X1206721Y705093D01*
X1207576Y704980D01*
X1208430Y705093D01*
X1209226Y705422D01*
X1209910Y705947D01*
X1210434Y706631D01*
X1210764Y707427D01*
X1210877Y708281D01*
X1210764Y709135D01*
X1210434Y709932D01*
X1209910Y710615D01*
X1209226Y711140D01*
X1208430Y711470D01*
X1207576Y711582D01*
D02*
G37*
G36*
X1157576D02*
X1156721Y711470D01*
X1155925Y711140D01*
X1155241Y710615D01*
X1154717Y709932D01*
X1154387Y709135D01*
X1154275Y708281D01*
X1154387Y707427D01*
X1154717Y706631D01*
X1155241Y705947D01*
X1155925Y705422D01*
X1156721Y705093D01*
X1157576Y704980D01*
X1158430Y705093D01*
X1159226Y705422D01*
X1159910Y705947D01*
X1160434Y706631D01*
X1160764Y707427D01*
X1160877Y708281D01*
X1160764Y709135D01*
X1160434Y709932D01*
X1159910Y710615D01*
X1159226Y711140D01*
X1158430Y711470D01*
X1157576Y711582D01*
D02*
G37*
G36*
X1147576D02*
X1146721Y711470D01*
X1145925Y711140D01*
X1145241Y710615D01*
X1144717Y709932D01*
X1144387Y709135D01*
X1144275Y708281D01*
X1144387Y707427D01*
X1144717Y706631D01*
X1145241Y705947D01*
X1145925Y705422D01*
X1146721Y705093D01*
X1147576Y704980D01*
X1148430Y705093D01*
X1149226Y705422D01*
X1149910Y705947D01*
X1150434Y706631D01*
X1150764Y707427D01*
X1150877Y708281D01*
X1150764Y709135D01*
X1150434Y709932D01*
X1149910Y710615D01*
X1149226Y711140D01*
X1148430Y711470D01*
X1147576Y711582D01*
D02*
G37*
G36*
X1077576Y721582D02*
X1076721Y721470D01*
X1075925Y721140D01*
X1075241Y720615D01*
X1074717Y719932D01*
X1074387Y719136D01*
X1074275Y718281D01*
X1074387Y717427D01*
X1074717Y716631D01*
X1075241Y715947D01*
X1075925Y715422D01*
X1076721Y715093D01*
X1077576Y714980D01*
X1078430Y715093D01*
X1079226Y715422D01*
X1079910Y715947D01*
X1080434Y716631D01*
X1080764Y717427D01*
X1080877Y718281D01*
X1080764Y719136D01*
X1080434Y719932D01*
X1079910Y720615D01*
X1079226Y721140D01*
X1078430Y721470D01*
X1077576Y721582D01*
D02*
G37*
G36*
X1159776Y714323D02*
X1159339Y714236D01*
X1158968Y713989D01*
X1158721Y713618D01*
X1158634Y713181D01*
X1158721Y712744D01*
X1158968Y712374D01*
X1159339Y712126D01*
X1159776Y712039D01*
X1160213Y712126D01*
X1160583Y712374D01*
X1160831Y712744D01*
X1160917Y713181D01*
X1160831Y713618D01*
X1160583Y713989D01*
X1160213Y714236D01*
X1159776Y714323D01*
D02*
G37*
G36*
X1217576Y711582D02*
X1216721Y711470D01*
X1215925Y711140D01*
X1215241Y710615D01*
X1214717Y709932D01*
X1214387Y709135D01*
X1214275Y708281D01*
X1214387Y707427D01*
X1214717Y706631D01*
X1215241Y705947D01*
X1215925Y705422D01*
X1216721Y705093D01*
X1217576Y704980D01*
X1218430Y705093D01*
X1219226Y705422D01*
X1219910Y705947D01*
X1220434Y706631D01*
X1220764Y707427D01*
X1220877Y708281D01*
X1220764Y709135D01*
X1220434Y709932D01*
X1219910Y710615D01*
X1219226Y711140D01*
X1218430Y711470D01*
X1217576Y711582D01*
D02*
G37*
G36*
X1137576D02*
X1136721Y711470D01*
X1135925Y711140D01*
X1135241Y710615D01*
X1134717Y709932D01*
X1134387Y709135D01*
X1134275Y708281D01*
X1134387Y707427D01*
X1134717Y706631D01*
X1135241Y705947D01*
X1135925Y705422D01*
X1136721Y705093D01*
X1137576Y704980D01*
X1138430Y705093D01*
X1139226Y705422D01*
X1139910Y705947D01*
X1140434Y706631D01*
X1140764Y707427D01*
X1140877Y708281D01*
X1140764Y709135D01*
X1140434Y709932D01*
X1139910Y710615D01*
X1139226Y711140D01*
X1138430Y711470D01*
X1137576Y711582D01*
D02*
G37*
G36*
X1077576D02*
X1076721Y711470D01*
X1075925Y711140D01*
X1075241Y710615D01*
X1074717Y709932D01*
X1074387Y709135D01*
X1074275Y708281D01*
X1074387Y707427D01*
X1074717Y706631D01*
X1075241Y705947D01*
X1075925Y705422D01*
X1076721Y705093D01*
X1077576Y704980D01*
X1078430Y705093D01*
X1079226Y705422D01*
X1079910Y705947D01*
X1080434Y706631D01*
X1080764Y707427D01*
X1080877Y708281D01*
X1080764Y709135D01*
X1080434Y709932D01*
X1079910Y710615D01*
X1079226Y711140D01*
X1078430Y711470D01*
X1077576Y711582D01*
D02*
G37*
G36*
X1067576D02*
X1066721Y711470D01*
X1065925Y711140D01*
X1065241Y710615D01*
X1064717Y709932D01*
X1064387Y709135D01*
X1064275Y708281D01*
X1064387Y707427D01*
X1064717Y706631D01*
X1065241Y705947D01*
X1065925Y705422D01*
X1066721Y705093D01*
X1067576Y704980D01*
X1068430Y705093D01*
X1069226Y705422D01*
X1069910Y705947D01*
X1070434Y706631D01*
X1070764Y707427D01*
X1070877Y708281D01*
X1070764Y709135D01*
X1070434Y709932D01*
X1069910Y710615D01*
X1069226Y711140D01*
X1068430Y711470D01*
X1067576Y711582D01*
D02*
G37*
G36*
X1048402Y725639D02*
X1046469Y725487D01*
X1044584Y725034D01*
X1042792Y724292D01*
X1041138Y723279D01*
X1039664Y722020D01*
X1038404Y720545D01*
X1037391Y718891D01*
X1036649Y717100D01*
X1036196Y715214D01*
X1036044Y713281D01*
X1036196Y711348D01*
X1036649Y709462D01*
X1037391Y707671D01*
X1038404Y706017D01*
X1039664Y704543D01*
X1041138Y703283D01*
X1042792Y702270D01*
X1044584Y701528D01*
X1046469Y701075D01*
X1048402Y700923D01*
X1050336Y701075D01*
X1052221Y701528D01*
X1054013Y702270D01*
X1055666Y703283D01*
X1057141Y704543D01*
X1058400Y706017D01*
X1059414Y707671D01*
X1060156Y709462D01*
X1060608Y711348D01*
X1060760Y713281D01*
X1060608Y715214D01*
X1060156Y717100D01*
X1059414Y718891D01*
X1058400Y720545D01*
X1057141Y722020D01*
X1055666Y723279D01*
X1054013Y724292D01*
X1052221Y725034D01*
X1050336Y725487D01*
X1048402Y725639D01*
D02*
G37*
G36*
X1127576Y711582D02*
X1126721Y711470D01*
X1125925Y711140D01*
X1125241Y710615D01*
X1124717Y709932D01*
X1124387Y709135D01*
X1124275Y708281D01*
X1124387Y707427D01*
X1124717Y706631D01*
X1125241Y705947D01*
X1125925Y705422D01*
X1126721Y705093D01*
X1127576Y704980D01*
X1128430Y705093D01*
X1129226Y705422D01*
X1129910Y705947D01*
X1130434Y706631D01*
X1130764Y707427D01*
X1130877Y708281D01*
X1130764Y709135D01*
X1130434Y709932D01*
X1129910Y710615D01*
X1129226Y711140D01*
X1128430Y711470D01*
X1127576Y711582D01*
D02*
G37*
G36*
X1107576D02*
X1106721Y711470D01*
X1105925Y711140D01*
X1105241Y710615D01*
X1104717Y709932D01*
X1104387Y709135D01*
X1104275Y708281D01*
X1104387Y707427D01*
X1104717Y706631D01*
X1105241Y705947D01*
X1105925Y705422D01*
X1106721Y705093D01*
X1107576Y704980D01*
X1108430Y705093D01*
X1109226Y705422D01*
X1109910Y705947D01*
X1110434Y706631D01*
X1110764Y707427D01*
X1110877Y708281D01*
X1110764Y709135D01*
X1110434Y709932D01*
X1109910Y710615D01*
X1109226Y711140D01*
X1108430Y711470D01*
X1107576Y711582D01*
D02*
G37*
G36*
X1087576D02*
X1086721Y711470D01*
X1085925Y711140D01*
X1085241Y710615D01*
X1084717Y709932D01*
X1084387Y709135D01*
X1084275Y708281D01*
X1084387Y707427D01*
X1084717Y706631D01*
X1085241Y705947D01*
X1085925Y705422D01*
X1086721Y705093D01*
X1087576Y704980D01*
X1088430Y705093D01*
X1089226Y705422D01*
X1089910Y705947D01*
X1090434Y706631D01*
X1090764Y707427D01*
X1090877Y708281D01*
X1090764Y709135D01*
X1090434Y709932D01*
X1089910Y710615D01*
X1089226Y711140D01*
X1088430Y711470D01*
X1087576Y711582D01*
D02*
G37*
G36*
X1187576Y721582D02*
X1186721Y721470D01*
X1185925Y721140D01*
X1185241Y720615D01*
X1184717Y719932D01*
X1184387Y719136D01*
X1184275Y718281D01*
X1184387Y717427D01*
X1184717Y716631D01*
X1185241Y715947D01*
X1185925Y715422D01*
X1186721Y715093D01*
X1187576Y714980D01*
X1188430Y715093D01*
X1189226Y715422D01*
X1189910Y715947D01*
X1190434Y716631D01*
X1190764Y717427D01*
X1190877Y718281D01*
X1190764Y719136D01*
X1190434Y719932D01*
X1189910Y720615D01*
X1189226Y721140D01*
X1188430Y721470D01*
X1187576Y721582D01*
D02*
G37*
G36*
X1177576D02*
X1176721Y721470D01*
X1175925Y721140D01*
X1175241Y720615D01*
X1174717Y719932D01*
X1174387Y719136D01*
X1174275Y718281D01*
X1174387Y717427D01*
X1174717Y716631D01*
X1175241Y715947D01*
X1175925Y715422D01*
X1176721Y715093D01*
X1177576Y714980D01*
X1178430Y715093D01*
X1179226Y715422D01*
X1179910Y715947D01*
X1180434Y716631D01*
X1180764Y717427D01*
X1180877Y718281D01*
X1180764Y719136D01*
X1180434Y719932D01*
X1179910Y720615D01*
X1179226Y721140D01*
X1178430Y721470D01*
X1177576Y721582D01*
D02*
G37*
G36*
X1167576D02*
X1166721Y721470D01*
X1165925Y721140D01*
X1165241Y720615D01*
X1164717Y719932D01*
X1164387Y719136D01*
X1164275Y718281D01*
X1164387Y717427D01*
X1164717Y716631D01*
X1165241Y715947D01*
X1165925Y715422D01*
X1166721Y715093D01*
X1167576Y714980D01*
X1168430Y715093D01*
X1169226Y715422D01*
X1169910Y715947D01*
X1170434Y716631D01*
X1170764Y717427D01*
X1170877Y718281D01*
X1170764Y719136D01*
X1170434Y719932D01*
X1169910Y720615D01*
X1169226Y721140D01*
X1168430Y721470D01*
X1167576Y721582D01*
D02*
G37*
G36*
X1133076Y723523D02*
X1132639Y723436D01*
X1132268Y723189D01*
X1132021Y722818D01*
X1131934Y722381D01*
X1132021Y721944D01*
X1132268Y721574D01*
X1132639Y721326D01*
X1133076Y721239D01*
X1133513Y721326D01*
X1133883Y721574D01*
X1134131Y721944D01*
X1134217Y722381D01*
X1134131Y722818D01*
X1133883Y723189D01*
X1133513Y723436D01*
X1133076Y723523D01*
D02*
G37*
G36*
X1207576Y721582D02*
X1206721Y721470D01*
X1205925Y721140D01*
X1205241Y720615D01*
X1204717Y719932D01*
X1204387Y719136D01*
X1204275Y718281D01*
X1204387Y717427D01*
X1204717Y716631D01*
X1205241Y715947D01*
X1205925Y715422D01*
X1206721Y715093D01*
X1207576Y714980D01*
X1208430Y715093D01*
X1209226Y715422D01*
X1209910Y715947D01*
X1210434Y716631D01*
X1210764Y717427D01*
X1210877Y718281D01*
X1210764Y719136D01*
X1210434Y719932D01*
X1209910Y720615D01*
X1209226Y721140D01*
X1208430Y721470D01*
X1207576Y721582D01*
D02*
G37*
G36*
X1180976Y731923D02*
X1180539Y731836D01*
X1180168Y731589D01*
X1179921Y731218D01*
X1179834Y730781D01*
X1179921Y730344D01*
X1180168Y729974D01*
X1180539Y729726D01*
X1180976Y729639D01*
X1181413Y729726D01*
X1181783Y729974D01*
X1181946Y730218D01*
X1187692D01*
X1192663Y725248D01*
Y722631D01*
X1192828Y722233D01*
X1194896Y720165D01*
X1194717Y719932D01*
X1194387Y719136D01*
X1194275Y718281D01*
X1194387Y717427D01*
X1194717Y716631D01*
X1195241Y715947D01*
X1195925Y715422D01*
X1196721Y715093D01*
X1197576Y714980D01*
X1198430Y715093D01*
X1199226Y715422D01*
X1199910Y715947D01*
X1200434Y716631D01*
X1200764Y717427D01*
X1200877Y718281D01*
X1200764Y719136D01*
X1200434Y719932D01*
X1199910Y720615D01*
X1199226Y721140D01*
X1198430Y721470D01*
X1197576Y721582D01*
X1196721Y721470D01*
X1195925Y721140D01*
X1195692Y720961D01*
X1193788Y722864D01*
Y725481D01*
X1193624Y725879D01*
X1188324Y731179D01*
X1187926Y731344D01*
X1181946D01*
X1181783Y731589D01*
X1181413Y731836D01*
X1180976Y731923D01*
D02*
G37*
G36*
X1157576Y721582D02*
X1156721Y721470D01*
X1155925Y721140D01*
X1155241Y720615D01*
X1154717Y719932D01*
X1154387Y719136D01*
X1154275Y718281D01*
X1154387Y717427D01*
X1154717Y716631D01*
X1155241Y715947D01*
X1155925Y715422D01*
X1156721Y715093D01*
X1157576Y714980D01*
X1158430Y715093D01*
X1159226Y715422D01*
X1159910Y715947D01*
X1160434Y716631D01*
X1160764Y717427D01*
X1160877Y718281D01*
X1160764Y719136D01*
X1160434Y719932D01*
X1159910Y720615D01*
X1159226Y721140D01*
X1158430Y721470D01*
X1157576Y721582D01*
D02*
G37*
G36*
X1107576D02*
X1106721Y721470D01*
X1105925Y721140D01*
X1105241Y720615D01*
X1104717Y719932D01*
X1104387Y719136D01*
X1104275Y718281D01*
X1104387Y717427D01*
X1104717Y716631D01*
X1105241Y715947D01*
X1105925Y715422D01*
X1106721Y715093D01*
X1107576Y714980D01*
X1108430Y715093D01*
X1109226Y715422D01*
X1109910Y715947D01*
X1110434Y716631D01*
X1110764Y717427D01*
X1110877Y718281D01*
X1110764Y719136D01*
X1110434Y719932D01*
X1109910Y720615D01*
X1109226Y721140D01*
X1108430Y721470D01*
X1107576Y721582D01*
D02*
G37*
G36*
X1097576D02*
X1096721Y721470D01*
X1095925Y721140D01*
X1095241Y720615D01*
X1094717Y719932D01*
X1094387Y719136D01*
X1094275Y718281D01*
X1094387Y717427D01*
X1094717Y716631D01*
X1095241Y715947D01*
X1095925Y715422D01*
X1096721Y715093D01*
X1097576Y714980D01*
X1098430Y715093D01*
X1099226Y715422D01*
X1099910Y715947D01*
X1100434Y716631D01*
X1100764Y717427D01*
X1100877Y718281D01*
X1100764Y719136D01*
X1100434Y719932D01*
X1099910Y720615D01*
X1099226Y721140D01*
X1098430Y721470D01*
X1097576Y721582D01*
D02*
G37*
G36*
X1087576D02*
X1086721Y721470D01*
X1085925Y721140D01*
X1085241Y720615D01*
X1084717Y719932D01*
X1084387Y719136D01*
X1084275Y718281D01*
X1084387Y717427D01*
X1084717Y716631D01*
X1085241Y715947D01*
X1085925Y715422D01*
X1086721Y715093D01*
X1087576Y714980D01*
X1088430Y715093D01*
X1089226Y715422D01*
X1089910Y715947D01*
X1090434Y716631D01*
X1090764Y717427D01*
X1090877Y718281D01*
X1090764Y719136D01*
X1090434Y719932D01*
X1089910Y720615D01*
X1089226Y721140D01*
X1088430Y721470D01*
X1087576Y721582D01*
D02*
G37*
G36*
X1147576D02*
X1146721Y721470D01*
X1145925Y721140D01*
X1145241Y720615D01*
X1144717Y719932D01*
X1144387Y719136D01*
X1144275Y718281D01*
X1144387Y717427D01*
X1144717Y716631D01*
X1145241Y715947D01*
X1145925Y715422D01*
X1146721Y715093D01*
X1147576Y714980D01*
X1148430Y715093D01*
X1149226Y715422D01*
X1149910Y715947D01*
X1150434Y716631D01*
X1150764Y717427D01*
X1150877Y718281D01*
X1150764Y719136D01*
X1150434Y719932D01*
X1149910Y720615D01*
X1149226Y721140D01*
X1148430Y721470D01*
X1147576Y721582D01*
D02*
G37*
G36*
X1127576D02*
X1126721Y721470D01*
X1125925Y721140D01*
X1125241Y720615D01*
X1124717Y719932D01*
X1124387Y719136D01*
X1124275Y718281D01*
X1124387Y717427D01*
X1124717Y716631D01*
X1125241Y715947D01*
X1125925Y715422D01*
X1126721Y715093D01*
X1127576Y714980D01*
X1128430Y715093D01*
X1129226Y715422D01*
X1129910Y715947D01*
X1130434Y716631D01*
X1130764Y717427D01*
X1130877Y718281D01*
X1130764Y719136D01*
X1130434Y719932D01*
X1129910Y720615D01*
X1129226Y721140D01*
X1128430Y721470D01*
X1127576Y721582D01*
D02*
G37*
G36*
X1117576D02*
X1116721Y721470D01*
X1115925Y721140D01*
X1115241Y720615D01*
X1114717Y719932D01*
X1114387Y719136D01*
X1114275Y718281D01*
X1114387Y717427D01*
X1114717Y716631D01*
X1115241Y715947D01*
X1115925Y715422D01*
X1116721Y715093D01*
X1117576Y714980D01*
X1118430Y715093D01*
X1119226Y715422D01*
X1119910Y715947D01*
X1120434Y716631D01*
X1120764Y717427D01*
X1120877Y718281D01*
X1120764Y719136D01*
X1120434Y719932D01*
X1119910Y720615D01*
X1119226Y721140D01*
X1118430Y721470D01*
X1117576Y721582D01*
D02*
G37*
G36*
X1239676Y783523D02*
X1239239Y783436D01*
X1238868Y783189D01*
X1238621Y782818D01*
X1238534Y782381D01*
X1238621Y781944D01*
X1238868Y781574D01*
X1239239Y781326D01*
X1239676Y781239D01*
X1240113Y781326D01*
X1240483Y781574D01*
X1240731Y781944D01*
X1240818Y782381D01*
X1240731Y782818D01*
X1240483Y783189D01*
X1240113Y783436D01*
X1239676Y783523D01*
D02*
G37*
G36*
X1206776Y782923D02*
X1206339Y782836D01*
X1205968Y782589D01*
X1205721Y782218D01*
X1205634Y781781D01*
X1205721Y781344D01*
X1205968Y780974D01*
X1206339Y780726D01*
X1206776Y780639D01*
X1207213Y780726D01*
X1207583Y780974D01*
X1207831Y781344D01*
X1207917Y781781D01*
X1207831Y782218D01*
X1207583Y782589D01*
X1207213Y782836D01*
X1206776Y782923D01*
D02*
G37*
G36*
X1201976Y782823D02*
X1201539Y782736D01*
X1201168Y782489D01*
X1200921Y782118D01*
X1200834Y781681D01*
X1200921Y781244D01*
X1201168Y780874D01*
X1201539Y780626D01*
X1201976Y780539D01*
X1202413Y780626D01*
X1202783Y780874D01*
X1203031Y781244D01*
X1203117Y781681D01*
X1203031Y782118D01*
X1202783Y782489D01*
X1202413Y782736D01*
X1201976Y782823D01*
D02*
G37*
G36*
X1060776Y784620D02*
X1060339Y784533D01*
X1059968Y784285D01*
X1059721Y783915D01*
X1059634Y783478D01*
X1059721Y783041D01*
X1059968Y782670D01*
X1060339Y782423D01*
X1060776Y782336D01*
X1061213Y782423D01*
X1061583Y782670D01*
X1061831Y783041D01*
X1061917Y783478D01*
X1061831Y783915D01*
X1061583Y784285D01*
X1061213Y784533D01*
X1060776Y784620D01*
D02*
G37*
G36*
X1255639Y783578D02*
X1255202Y783491D01*
X1254831Y783244D01*
X1254584Y782873D01*
X1254497Y782436D01*
X1254584Y781999D01*
X1254831Y781629D01*
X1255202Y781381D01*
X1255639Y781294D01*
X1256076Y781381D01*
X1256446Y781629D01*
X1256694Y781999D01*
X1256781Y782436D01*
X1256694Y782873D01*
X1256446Y783244D01*
X1256076Y783491D01*
X1255639Y783578D01*
D02*
G37*
G36*
X1259076Y783523D02*
X1258639Y783436D01*
X1258268Y783189D01*
X1258021Y782818D01*
X1257934Y782381D01*
X1258021Y781944D01*
X1258268Y781574D01*
X1258639Y781326D01*
X1259076Y781239D01*
X1259513Y781326D01*
X1259883Y781574D01*
X1260131Y781944D01*
X1260217Y782381D01*
X1260131Y782818D01*
X1259883Y783189D01*
X1259513Y783436D01*
X1259076Y783523D01*
D02*
G37*
G36*
X1071144Y779423D02*
X1070707Y779336D01*
X1070337Y779089D01*
X1070089Y778718D01*
X1070002Y778281D01*
X1070089Y777844D01*
X1070337Y777474D01*
X1070707Y777226D01*
X1071144Y777139D01*
X1071581Y777226D01*
X1071952Y777474D01*
X1072199Y777844D01*
X1072286Y778281D01*
X1072199Y778718D01*
X1071952Y779089D01*
X1071581Y779336D01*
X1071144Y779423D01*
D02*
G37*
G36*
X1256176Y772923D02*
X1255739Y772836D01*
X1255368Y772589D01*
X1255121Y772218D01*
X1255034Y771781D01*
X1255121Y771344D01*
X1255368Y770974D01*
X1255739Y770726D01*
X1256176Y770639D01*
X1256613Y770726D01*
X1256983Y770974D01*
X1257231Y771344D01*
X1257318Y771781D01*
X1257231Y772218D01*
X1256983Y772589D01*
X1256613Y772836D01*
X1256176Y772923D01*
D02*
G37*
G36*
X1177998Y774644D02*
X1176214D01*
X1175816Y774479D01*
X1175816Y774479D01*
X1172399Y771062D01*
X1172239Y770675D01*
X1171990Y770509D01*
X1171742Y770138D01*
X1171655Y769701D01*
X1171742Y769264D01*
X1171452Y768799D01*
X1171389Y768786D01*
X1171018Y768539D01*
X1170771Y768168D01*
X1170684Y767731D01*
X1170771Y767294D01*
X1171018Y766924D01*
X1171349Y766703D01*
X1171397Y766636D01*
X1171498Y766145D01*
X1167809Y762456D01*
X1167644Y762058D01*
Y743729D01*
X1167809Y743331D01*
X1169957Y741183D01*
X1170355Y741018D01*
X1179611D01*
X1179762Y740518D01*
X1179568Y740389D01*
X1179321Y740018D01*
X1179234Y739581D01*
X1179321Y739144D01*
X1179568Y738774D01*
X1179939Y738526D01*
X1180376Y738439D01*
X1180813Y738526D01*
X1181183Y738774D01*
X1181431Y739144D01*
X1181518Y739581D01*
X1181431Y740018D01*
X1181183Y740389D01*
X1180989Y740518D01*
X1181141Y741018D01*
X1189442D01*
X1193478Y736983D01*
X1193876Y736818D01*
X1193876Y736818D01*
X1205327D01*
X1208013Y734133D01*
Y728281D01*
X1208178Y727883D01*
X1211678Y724383D01*
X1212076Y724218D01*
X1217927D01*
X1220739Y721407D01*
Y716506D01*
X1220904Y716108D01*
X1225290Y711722D01*
X1225688Y711557D01*
X1225689D01*
X1225702Y711533D01*
X1225817Y711057D01*
X1225241Y710615D01*
X1224717Y709932D01*
X1224387Y709135D01*
X1224275Y708281D01*
X1224387Y707427D01*
X1224717Y706631D01*
X1225241Y705947D01*
X1225925Y705422D01*
X1226721Y705093D01*
X1227576Y704980D01*
X1228430Y705093D01*
X1229226Y705422D01*
X1229910Y705947D01*
X1230434Y706631D01*
X1230764Y707427D01*
X1230877Y708281D01*
X1230764Y709135D01*
X1230434Y709932D01*
X1229910Y710615D01*
X1229334Y711057D01*
X1229449Y711533D01*
X1229462Y711557D01*
X1241414D01*
X1241812Y711722D01*
X1245692Y715601D01*
X1245925Y715422D01*
X1246721Y715093D01*
X1247576Y714980D01*
X1248430Y715093D01*
X1249226Y715422D01*
X1249910Y715947D01*
X1250434Y716631D01*
X1250764Y717427D01*
X1250877Y718281D01*
X1250764Y719136D01*
X1250434Y719932D01*
X1249910Y720615D01*
X1249226Y721140D01*
X1248430Y721470D01*
X1247576Y721582D01*
X1246721Y721470D01*
X1245925Y721140D01*
X1245241Y720615D01*
X1244717Y719932D01*
X1244387Y719136D01*
X1244275Y718281D01*
X1244387Y717427D01*
X1244717Y716631D01*
X1244896Y716397D01*
X1241181Y712682D01*
X1232875D01*
X1232684Y713144D01*
X1235380Y715841D01*
X1235925Y715422D01*
X1236721Y715093D01*
X1237576Y714980D01*
X1238430Y715093D01*
X1239226Y715422D01*
X1239910Y715947D01*
X1240434Y716631D01*
X1240764Y717427D01*
X1240877Y718281D01*
X1240764Y719136D01*
X1240434Y719932D01*
X1239910Y720615D01*
X1239226Y721140D01*
X1238430Y721470D01*
X1237576Y721582D01*
X1236721Y721470D01*
X1235925Y721140D01*
X1235241Y720615D01*
X1234717Y719932D01*
X1234387Y719136D01*
X1234275Y718281D01*
X1234387Y717427D01*
X1234676Y716729D01*
X1231530Y713583D01*
X1226293D01*
X1222764Y717112D01*
Y722155D01*
X1222600Y722553D01*
X1219384Y725768D01*
X1219592Y726268D01*
X1222192D01*
X1226529Y721932D01*
Y721390D01*
X1225925Y721140D01*
X1225241Y720615D01*
X1224717Y719932D01*
X1224387Y719136D01*
X1224275Y718281D01*
X1224387Y717427D01*
X1224717Y716631D01*
X1225241Y715947D01*
X1225925Y715422D01*
X1226721Y715093D01*
X1227576Y714980D01*
X1228430Y715093D01*
X1229226Y715422D01*
X1229910Y715947D01*
X1230434Y716631D01*
X1230764Y717427D01*
X1230877Y718281D01*
X1230764Y719136D01*
X1230434Y719932D01*
X1229910Y720615D01*
X1229226Y721140D01*
X1228430Y721470D01*
X1227655Y721572D01*
Y722165D01*
X1227490Y722563D01*
X1222824Y727229D01*
X1222426Y727394D01*
X1213359D01*
X1211238Y729514D01*
Y735131D01*
X1211238Y735131D01*
X1211074Y735529D01*
X1206924Y739679D01*
X1206526Y739844D01*
X1195109D01*
X1190974Y743979D01*
X1190576Y744144D01*
X1171349D01*
X1170570Y744923D01*
Y761079D01*
X1173209Y763718D01*
X1174256D01*
X1174654Y763883D01*
X1176659Y765888D01*
X1176824Y766286D01*
Y770186D01*
X1176830Y770190D01*
X1177011Y770461D01*
X1177075Y770781D01*
X1177011Y771101D01*
X1176830Y771372D01*
X1176559Y771554D01*
X1176239Y771617D01*
X1175919Y771554D01*
X1175648Y771372D01*
X1175467Y771101D01*
X1175403Y770781D01*
X1175467Y770461D01*
X1175648Y770190D01*
X1175698Y770156D01*
Y768107D01*
X1175624Y768015D01*
X1175198Y767754D01*
X1175061Y767781D01*
X1174741Y767718D01*
X1174566Y767600D01*
X1174121Y767374D01*
X1173901Y767517D01*
X1173845Y767554D01*
X1173526Y767617D01*
X1173452Y767602D01*
X1173109Y767694D01*
X1172921Y767965D01*
X1172881Y768168D01*
X1173171Y768634D01*
X1173234Y768646D01*
X1173605Y768894D01*
X1173852Y769264D01*
X1173939Y769701D01*
X1173852Y770138D01*
X1173605Y770509D01*
X1173590Y770661D01*
X1176447Y773518D01*
X1177765D01*
X1179291Y771992D01*
X1179234Y771704D01*
X1179321Y771267D01*
X1179568Y770896D01*
X1179939Y770649D01*
X1180376Y770562D01*
X1180813Y770649D01*
X1181183Y770896D01*
X1181431Y771267D01*
X1181518Y771704D01*
X1181431Y772141D01*
X1181183Y772511D01*
X1180813Y772759D01*
X1180376Y772846D01*
X1180087Y772788D01*
X1178396Y774479D01*
X1177998Y774644D01*
D02*
G37*
G36*
X1259676Y772723D02*
X1259239Y772636D01*
X1258868Y772389D01*
X1258621Y772018D01*
X1258534Y771581D01*
X1258621Y771144D01*
X1258868Y770774D01*
X1259239Y770526D01*
X1259676Y770439D01*
X1260113Y770526D01*
X1260483Y770774D01*
X1260731Y771144D01*
X1260818Y771581D01*
X1260731Y772018D01*
X1260483Y772389D01*
X1260113Y772636D01*
X1259676Y772723D01*
D02*
G37*
G36*
X1266776Y777723D02*
X1266339Y777636D01*
X1265968Y777389D01*
X1265721Y777018D01*
X1265634Y776581D01*
X1265721Y776144D01*
X1265968Y775774D01*
X1266339Y775526D01*
X1266776Y775439D01*
X1267213Y775526D01*
X1267583Y775774D01*
X1267831Y776144D01*
X1267918Y776581D01*
X1267831Y777018D01*
X1267583Y777389D01*
X1267213Y777636D01*
X1266776Y777723D01*
D02*
G37*
G36*
X1121712Y778436D02*
X1121088Y778312D01*
X1120559Y777958D01*
X1120205Y777429D01*
X1120081Y776805D01*
X1120205Y776181D01*
X1120559Y775651D01*
X1121088Y775298D01*
X1121712Y775174D01*
X1122337Y775298D01*
X1122866Y775651D01*
X1123220Y776181D01*
X1123344Y776805D01*
X1123220Y777429D01*
X1122866Y777958D01*
X1122337Y778312D01*
X1121712Y778436D01*
D02*
G37*
G36*
X1265326Y775073D02*
X1264889Y774986D01*
X1264518Y774739D01*
X1264271Y774368D01*
X1264184Y773931D01*
X1264271Y773494D01*
X1264518Y773124D01*
X1264889Y772876D01*
X1265326Y772789D01*
X1265763Y772876D01*
X1266133Y773124D01*
X1266381Y773494D01*
X1266467Y773931D01*
X1266381Y774368D01*
X1266133Y774739D01*
X1265763Y774986D01*
X1265326Y775073D01*
D02*
G37*
G36*
X1201533Y801744D02*
X1199081D01*
X1198683Y801579D01*
X1198683Y801579D01*
X1197629Y800525D01*
X1197086Y800690D01*
X1197081Y800718D01*
X1196833Y801089D01*
X1196463Y801336D01*
X1196026Y801423D01*
X1195589Y801336D01*
X1195218Y801089D01*
X1194971Y800718D01*
X1194884Y800281D01*
X1194971Y799844D01*
X1194976Y799836D01*
X1194709Y799336D01*
X1192805D01*
X1191662Y800479D01*
X1191264Y800644D01*
X1180409D01*
X1179874Y801179D01*
X1179476Y801344D01*
X1136376D01*
X1136376Y801344D01*
X1135978Y801179D01*
X1126630Y791832D01*
X1126466Y791434D01*
Y790757D01*
X1126221Y790593D01*
X1125973Y790223D01*
X1125932Y790016D01*
X1125746Y789922D01*
X1125404Y789841D01*
X1125113Y790036D01*
X1124676Y790123D01*
X1124239Y790036D01*
X1123868Y789789D01*
X1123621Y789418D01*
X1123534Y788981D01*
X1123621Y788544D01*
X1123868Y788174D01*
X1124239Y787926D01*
X1124676Y787839D01*
X1124964Y787897D01*
X1125513Y787348D01*
Y776281D01*
X1125678Y775883D01*
X1130378Y771183D01*
X1130776Y771018D01*
X1131842D01*
X1135913Y766948D01*
Y765277D01*
X1136078Y764879D01*
X1137355Y763601D01*
X1137753Y763437D01*
X1140312D01*
X1141158Y762590D01*
X1141152Y762557D01*
X1141215Y762237D01*
X1141396Y761966D01*
X1141668Y761785D01*
X1141988Y761721D01*
X1142307Y761785D01*
X1142579Y761966D01*
X1142760Y762237D01*
X1142824Y762557D01*
X1142760Y762877D01*
X1142579Y763148D01*
X1142307Y763329D01*
X1141988Y763393D01*
X1141954Y763386D01*
X1141018Y764322D01*
Y772680D01*
X1140854Y773078D01*
X1138438Y775493D01*
Y796515D01*
X1139853Y797929D01*
X1140423Y797792D01*
X1140568Y797574D01*
X1140939Y797326D01*
X1141376Y797239D01*
X1141813Y797326D01*
X1142183Y797574D01*
X1142431Y797944D01*
X1142517Y798381D01*
X1142943Y798778D01*
X1143951D01*
X1144102Y798278D01*
X1143968Y798189D01*
X1143721Y797818D01*
X1143634Y797381D01*
X1143721Y796944D01*
X1143968Y796574D01*
X1144213Y796410D01*
Y786081D01*
X1144378Y785683D01*
X1147863Y782198D01*
Y777446D01*
X1147363Y777294D01*
X1147233Y777489D01*
X1146863Y777736D01*
X1146426Y777823D01*
X1145989Y777736D01*
X1145618Y777489D01*
X1145371Y777118D01*
X1145284Y776681D01*
X1145341Y776393D01*
X1142978Y774029D01*
X1142813Y773631D01*
Y765791D01*
X1142784Y765772D01*
X1142603Y765501D01*
X1142540Y765181D01*
X1142603Y764861D01*
X1142784Y764590D01*
X1143056Y764409D01*
X1143376Y764345D01*
X1143696Y764409D01*
X1143967Y764590D01*
X1144148Y764861D01*
X1144212Y765181D01*
X1144148Y765501D01*
X1143967Y765772D01*
X1143938Y765791D01*
Y773398D01*
X1146137Y775597D01*
X1146426Y775539D01*
X1146863Y775626D01*
X1147233Y775874D01*
X1147363Y776068D01*
X1147863Y775916D01*
Y773891D01*
X1147834Y773872D01*
X1147653Y773601D01*
X1147589Y773281D01*
X1147653Y772961D01*
X1147834Y772690D01*
X1148106Y772509D01*
X1148426Y772445D01*
X1148746Y772509D01*
X1149017Y772690D01*
X1149198Y772961D01*
X1149262Y773281D01*
X1149198Y773601D01*
X1149017Y773872D01*
X1148988Y773891D01*
Y782431D01*
X1148824Y782829D01*
X1145338Y786314D01*
Y796410D01*
X1145583Y796574D01*
X1145676Y796713D01*
X1145858Y796938D01*
X1146317Y796840D01*
X1146339Y796826D01*
X1146776Y796739D01*
X1147064Y796797D01*
X1156713Y787148D01*
Y778291D01*
X1156684Y778272D01*
X1156503Y778001D01*
X1156439Y777681D01*
X1156503Y777361D01*
X1156684Y777090D01*
X1156956Y776909D01*
X1157276Y776845D01*
X1157596Y776909D01*
X1157867Y777090D01*
X1158048Y777361D01*
X1158112Y777681D01*
X1158048Y778001D01*
X1157867Y778272D01*
X1157838Y778291D01*
Y787381D01*
X1157767Y787553D01*
X1158191Y787836D01*
X1161644Y784383D01*
Y776191D01*
X1161616Y776172D01*
X1161435Y775901D01*
X1161371Y775581D01*
X1161435Y775261D01*
X1161616Y774990D01*
X1161887Y774809D01*
X1162207Y774745D01*
X1162527Y774809D01*
X1162798Y774990D01*
X1162980Y775261D01*
X1163043Y775581D01*
X1162980Y775901D01*
X1162798Y776172D01*
X1162770Y776191D01*
Y784616D01*
X1162605Y785014D01*
X1148583Y799036D01*
X1148775Y799498D01*
X1176603D01*
X1176868Y799085D01*
X1176732Y798642D01*
X1176255Y798498D01*
X1175924Y798829D01*
X1175526Y798994D01*
X1173876D01*
X1173478Y798829D01*
X1172600Y797951D01*
X1172075D01*
X1171912Y798196D01*
X1171541Y798444D01*
X1171104Y798530D01*
X1170667Y798444D01*
X1170297Y798196D01*
X1170049Y797826D01*
X1169962Y797389D01*
X1170049Y796952D01*
X1170297Y796581D01*
X1170667Y796334D01*
X1171104Y796247D01*
X1171541Y796334D01*
X1171912Y796581D01*
X1172075Y796826D01*
X1172833D01*
X1173094Y796934D01*
X1173473Y796701D01*
X1173541Y796619D01*
X1173534Y796581D01*
X1173621Y796144D01*
X1173868Y795774D01*
X1174239Y795526D01*
X1174676Y795439D01*
X1175113Y795526D01*
X1175483Y795774D01*
X1175731Y796144D01*
X1175737Y796174D01*
X1176296Y796422D01*
X1176363Y796382D01*
Y791957D01*
X1176528Y791559D01*
X1177635Y790451D01*
X1177578Y790163D01*
X1177665Y789726D01*
X1177912Y789355D01*
X1178283Y789108D01*
X1178720Y789021D01*
X1179157Y789108D01*
X1179527Y789355D01*
X1179775Y789726D01*
X1179862Y790163D01*
X1179775Y790600D01*
X1179527Y790970D01*
X1179157Y791218D01*
X1178720Y791305D01*
X1178431Y791247D01*
X1177488Y792190D01*
Y796946D01*
X1177707Y797220D01*
X1177886Y797377D01*
X1177944Y797365D01*
X1178381Y797452D01*
X1178752Y797700D01*
X1178999Y798070D01*
X1179086Y798507D01*
X1179118Y798548D01*
X1179534Y798818D01*
X1179776Y798718D01*
X1179776Y798718D01*
X1190642D01*
X1191912Y797449D01*
X1192310Y797284D01*
X1197189D01*
X1197587Y797449D01*
X1199921Y799783D01*
X1200778D01*
X1201278Y799283D01*
X1201676Y799118D01*
X1206257D01*
X1206534Y798781D01*
X1206621Y798344D01*
X1206868Y797974D01*
X1207239Y797726D01*
X1207676Y797639D01*
X1208113Y797726D01*
X1208483Y797974D01*
X1208731Y798344D01*
X1208761Y798497D01*
X1209303Y798661D01*
X1209582Y798383D01*
X1209980Y798218D01*
X1211505D01*
X1211668Y797974D01*
X1212039Y797726D01*
X1212476Y797639D01*
X1212913Y797726D01*
X1213283Y797974D01*
X1213531Y798344D01*
X1213618Y798781D01*
X1213531Y799218D01*
X1213283Y799589D01*
X1212913Y799836D01*
X1212476Y799923D01*
X1212039Y799836D01*
X1211668Y799589D01*
X1211505Y799344D01*
X1210213D01*
X1208398Y801159D01*
X1208000Y801324D01*
X1202186D01*
X1201931Y801579D01*
X1201533Y801744D01*
D02*
G37*
G36*
X1107076Y802637D02*
X1106451Y802513D01*
X1105922Y802159D01*
X1105568Y801630D01*
X1105444Y801006D01*
X1105568Y800381D01*
X1105922Y799852D01*
X1106451Y799499D01*
X1107076Y799374D01*
X1107700Y799499D01*
X1108229Y799852D01*
X1108583Y800381D01*
X1108707Y801006D01*
X1108583Y801630D01*
X1108229Y802159D01*
X1107700Y802513D01*
X1107076Y802637D01*
D02*
G37*
G36*
X1242176Y798512D02*
X1241551Y798388D01*
X1241022Y798035D01*
X1240668Y797505D01*
X1240544Y796881D01*
X1240668Y796257D01*
X1241022Y795727D01*
X1241551Y795374D01*
X1242176Y795250D01*
X1242800Y795374D01*
X1243329Y795727D01*
X1243683Y796257D01*
X1243807Y796881D01*
X1243683Y797505D01*
X1243329Y798035D01*
X1242800Y798388D01*
X1242176Y798512D01*
D02*
G37*
G36*
X1264558Y811846D02*
X1250318Y811846D01*
X1250215Y811803D01*
X1250107Y811774D01*
X1249553Y811349D01*
X1248937Y811094D01*
X1248276Y811007D01*
X1247614Y811094D01*
X1246998Y811349D01*
X1246444Y811774D01*
X1246336Y811803D01*
X1246233Y811846D01*
X1195661Y811845D01*
X1195416Y811744D01*
X1195314Y811499D01*
Y808876D01*
X1195250Y808779D01*
X1195163Y808342D01*
X1195250Y807905D01*
X1195314Y807809D01*
Y807562D01*
X1195416Y807317D01*
X1195661Y807216D01*
X1196227D01*
X1196305Y807200D01*
X1196382Y807216D01*
X1197982D01*
X1198023Y807208D01*
X1198064Y807216D01*
X1258509D01*
X1270201Y795524D01*
X1270294Y795486D01*
X1270378Y795430D01*
X1270477Y795410D01*
X1270733Y795239D01*
X1270904Y794983D01*
X1270924Y794884D01*
X1270980Y794800D01*
X1271019Y794706D01*
X1273743Y791982D01*
Y791523D01*
X1273757Y791490D01*
X1273750Y791455D01*
X1273764Y791381D01*
X1273750Y791307D01*
X1273757Y791272D01*
X1273743Y791239D01*
Y778991D01*
X1273757Y778959D01*
X1273750Y778924D01*
X1273770Y778820D01*
X1273750Y778717D01*
X1273757Y778682D01*
X1273743Y778649D01*
Y758673D01*
X1273757Y758640D01*
X1273750Y758605D01*
X1273764Y758531D01*
X1273750Y758457D01*
X1273757Y758422D01*
X1273743Y758389D01*
Y754601D01*
X1273757Y754568D01*
X1273750Y754533D01*
X1273820Y754181D01*
X1273750Y753829D01*
X1273757Y753794D01*
X1273743Y753761D01*
Y750429D01*
X1273782Y750336D01*
X1273801Y750237D01*
X1273904Y750083D01*
X1273964Y749781D01*
X1273904Y749479D01*
X1273801Y749325D01*
X1273782Y749226D01*
X1273743Y749133D01*
Y740429D01*
X1273782Y740336D01*
X1273801Y740237D01*
X1273904Y740083D01*
X1273964Y739781D01*
X1273904Y739479D01*
X1273801Y739325D01*
X1273782Y739226D01*
X1273743Y739133D01*
Y737592D01*
X1272804Y736653D01*
X1272786Y736610D01*
X1272750Y736583D01*
X1272738Y736492D01*
X1272703Y736408D01*
X1272720Y736365D01*
X1272714Y736320D01*
X1272779Y736070D01*
X1272807Y736033D01*
X1272813Y735987D01*
X1272954Y735737D01*
X1272965Y735728D01*
X1272968Y735715D01*
X1273068Y735648D01*
X1273163Y735573D01*
X1273176Y735575D01*
X1273188Y735567D01*
X1273477Y735510D01*
X1273733Y735339D01*
X1273904Y735083D01*
X1273964Y734781D01*
X1273904Y734479D01*
X1273733Y734223D01*
X1273477Y734052D01*
X1273176Y733992D01*
X1272874Y734052D01*
X1272618Y734223D01*
X1272447Y734479D01*
X1272389Y734769D01*
X1272381Y734780D01*
X1272383Y734794D01*
X1272309Y734889D01*
X1272242Y734989D01*
X1272228Y734992D01*
X1272220Y735003D01*
X1271970Y735144D01*
X1271924Y735150D01*
X1271887Y735178D01*
X1271637Y735243D01*
X1271591Y735237D01*
X1271549Y735254D01*
X1271465Y735219D01*
X1271374Y735207D01*
X1271346Y735170D01*
X1271304Y735153D01*
X1269564Y733413D01*
X1269557Y733396D01*
X1269541Y733388D01*
X1269507Y733276D01*
X1269463Y733168D01*
X1269470Y733151D01*
X1269464Y733134D01*
X1269513Y732636D01*
X1269522Y732620D01*
X1269518Y732603D01*
X1269583Y732506D01*
X1269638Y732403D01*
X1269656Y732397D01*
X1269666Y732382D01*
X1269780Y732306D01*
X1270196Y731683D01*
X1270342Y730948D01*
X1270196Y730214D01*
X1269780Y729591D01*
X1269157Y729175D01*
X1268422Y729028D01*
X1267687Y729175D01*
X1267064Y729591D01*
X1266988Y729705D01*
X1266973Y729715D01*
X1266968Y729732D01*
X1266865Y729787D01*
X1266768Y729852D01*
X1266750Y729849D01*
X1266734Y729857D01*
X1266237Y729906D01*
X1266219Y729901D01*
X1266203Y729908D01*
X1266095Y729863D01*
X1265983Y729829D01*
X1265974Y729813D01*
X1265958Y729806D01*
X1260376Y724225D01*
X1260275Y723980D01*
Y721554D01*
X1254303D01*
Y715008D01*
X1257869D01*
X1258060Y714546D01*
X1254572Y711058D01*
X1249333D01*
X1249226Y711140D01*
X1248430Y711470D01*
X1247576Y711582D01*
X1246721Y711470D01*
X1245925Y711140D01*
X1245241Y710615D01*
X1244717Y709932D01*
X1244387Y709135D01*
X1244275Y708281D01*
X1244387Y707427D01*
X1244717Y706631D01*
X1245241Y705947D01*
X1245708Y705589D01*
Y704413D01*
X1245809Y704168D01*
X1246054Y704066D01*
X1260228D01*
X1260472Y704168D01*
X1264111Y707806D01*
X1264131Y707855D01*
X1264172Y707888D01*
X1264180Y707972D01*
X1264213Y708051D01*
X1264192Y708100D01*
X1264198Y708152D01*
X1264033Y708694D01*
X1264000Y708735D01*
X1263990Y708786D01*
X1263919Y708833D01*
X1263865Y708899D01*
X1263813Y708904D01*
X1263769Y708933D01*
X1263674Y708952D01*
X1263418Y709123D01*
X1263247Y709379D01*
X1263187Y709681D01*
X1263247Y709983D01*
X1263418Y710239D01*
X1263674Y710410D01*
X1263976Y710470D01*
X1264096Y710446D01*
X1264125Y710452D01*
X1264151Y710439D01*
X1264239Y710472D01*
X1264260Y710479D01*
X1264356Y710498D01*
X1264676Y710347D01*
X1264801Y710274D01*
X1264996Y709462D01*
X1265738Y707671D01*
X1266751Y706017D01*
X1268010Y704543D01*
X1269485Y703283D01*
X1271138Y702270D01*
X1272930Y701528D01*
X1274816Y701075D01*
X1276749Y700923D01*
X1278682Y701075D01*
X1280568Y701528D01*
X1282359Y702270D01*
X1284013Y703283D01*
X1285487Y704543D01*
X1286747Y706017D01*
X1287760Y707671D01*
X1288502Y709462D01*
X1288955Y711348D01*
X1289107Y713281D01*
X1288955Y715214D01*
X1288502Y717100D01*
X1287760Y718892D01*
X1286747Y720545D01*
X1285487Y722020D01*
X1284013Y723279D01*
X1282359Y724292D01*
X1280568Y725034D01*
X1278682Y725487D01*
X1276749Y725639D01*
X1274816Y725487D01*
X1272930Y725034D01*
X1271690Y724521D01*
X1271407Y724945D01*
X1272444Y725982D01*
X1272483Y726075D01*
X1272539Y726159D01*
X1272532Y726194D01*
X1272545Y726227D01*
X1272507Y726320D01*
X1272487Y726419D01*
X1272447Y726479D01*
X1272387Y726781D01*
X1272447Y727083D01*
X1272618Y727339D01*
X1272874Y727510D01*
X1273176Y727570D01*
X1273477Y727510D01*
X1273538Y727470D01*
X1273637Y727450D01*
X1273730Y727411D01*
X1273763Y727425D01*
X1273798Y727418D01*
X1273882Y727474D01*
X1273975Y727513D01*
X1278189Y731727D01*
X1279681Y733218D01*
X1279688Y733235D01*
X1279704Y733244D01*
X1279738Y733356D01*
X1279782Y733463D01*
X1279775Y733480D01*
X1279781Y733497D01*
X1279732Y733995D01*
X1279723Y734011D01*
X1279727Y734029D01*
X1279665Y734121D01*
X1279656Y734166D01*
X1279447Y734479D01*
X1279387Y734781D01*
X1279447Y735083D01*
X1279618Y735339D01*
X1279874Y735510D01*
X1280243Y735583D01*
X1280280Y735608D01*
X1280392Y735630D01*
X1280402Y735645D01*
X1280420Y735650D01*
X1280920Y736061D01*
X1280928Y736077D01*
X1280945Y736084D01*
X1280990Y736192D01*
X1281045Y736295D01*
X1281040Y736312D01*
X1281046Y736329D01*
Y738234D01*
X1281040Y738250D01*
X1281045Y738268D01*
X1280990Y738371D01*
X1280945Y738479D01*
X1280928Y738485D01*
X1280920Y738501D01*
X1280420Y738912D01*
X1280402Y738917D01*
X1280392Y738932D01*
X1280280Y738954D01*
X1280243Y738979D01*
X1279874Y739052D01*
X1279618Y739223D01*
X1279447Y739479D01*
X1279387Y739781D01*
X1279447Y740083D01*
X1279618Y740339D01*
X1279874Y740510D01*
X1280243Y740583D01*
X1280280Y740608D01*
X1280392Y740630D01*
X1280402Y740645D01*
X1280420Y740650D01*
X1280920Y741061D01*
X1280928Y741077D01*
X1280945Y741084D01*
X1280990Y741192D01*
X1281045Y741295D01*
X1281040Y741312D01*
X1281046Y741328D01*
X1281046Y748234D01*
X1281040Y748250D01*
X1281045Y748268D01*
X1280990Y748371D01*
X1280945Y748479D01*
X1280928Y748486D01*
X1280920Y748501D01*
X1280420Y748912D01*
X1280402Y748917D01*
X1280392Y748932D01*
X1280280Y748954D01*
X1280243Y748979D01*
X1279874Y749052D01*
X1279618Y749223D01*
X1279447Y749479D01*
X1279387Y749781D01*
X1279447Y750083D01*
X1279618Y750339D01*
X1279874Y750510D01*
X1280243Y750583D01*
X1280280Y750608D01*
X1280392Y750630D01*
X1280402Y750645D01*
X1280420Y750650D01*
X1280920Y751061D01*
X1280928Y751077D01*
X1280945Y751084D01*
X1280990Y751192D01*
X1281045Y751295D01*
X1281040Y751312D01*
X1281046Y751329D01*
Y752817D01*
X1281026Y752866D01*
X1281031Y752918D01*
X1280978Y752984D01*
X1280945Y753062D01*
X1280896Y753082D01*
X1280863Y753123D01*
X1280363Y753390D01*
X1280311Y753395D01*
X1280268Y753424D01*
X1280184Y753408D01*
X1280099Y753416D01*
X1280059Y753383D01*
X1280008Y753372D01*
X1279977Y753352D01*
X1279676Y753292D01*
X1279374Y753352D01*
X1279118Y753523D01*
X1278947Y753779D01*
X1278887Y754081D01*
X1278947Y754383D01*
X1279118Y754639D01*
X1279374Y754810D01*
X1279676Y754870D01*
X1279977Y754810D01*
X1280008Y754790D01*
X1280059Y754779D01*
X1280099Y754746D01*
X1280184Y754755D01*
X1280268Y754738D01*
X1280311Y754767D01*
X1280363Y754772D01*
X1280863Y755040D01*
X1280896Y755080D01*
X1280945Y755100D01*
X1280978Y755179D01*
X1281031Y755244D01*
X1281026Y755297D01*
X1281046Y755345D01*
X1281046Y761716D01*
X1281023Y761773D01*
X1281026Y761834D01*
X1280974Y761891D01*
X1280945Y761961D01*
X1280888Y761985D01*
X1280847Y762030D01*
X1280347Y762265D01*
X1280304Y762267D01*
X1280268Y762291D01*
X1280176Y762273D01*
X1280082Y762277D01*
X1280050Y762248D01*
X1280008Y762239D01*
X1279877Y762152D01*
X1279576Y762092D01*
X1279274Y762152D01*
X1279018Y762323D01*
X1278847Y762579D01*
X1278787Y762881D01*
X1278847Y763183D01*
X1279018Y763439D01*
X1279274Y763610D01*
X1279576Y763670D01*
X1279877Y763610D01*
X1280008Y763523D01*
X1280050Y763514D01*
X1280082Y763485D01*
X1280176Y763489D01*
X1280268Y763471D01*
X1280304Y763495D01*
X1280347Y763497D01*
X1280847Y763732D01*
X1280888Y763777D01*
X1280945Y763801D01*
X1280974Y763872D01*
X1281026Y763928D01*
X1281023Y763989D01*
X1281046Y764046D01*
X1281046Y777134D01*
X1281039Y777150D01*
X1281045Y777168D01*
X1280990Y777271D01*
X1280945Y777379D01*
X1280928Y777386D01*
X1280920Y777401D01*
X1280420Y777812D01*
X1280402Y777817D01*
X1280392Y777832D01*
X1280280Y777854D01*
X1280243Y777879D01*
X1279874Y777952D01*
X1279618Y778123D01*
X1279447Y778379D01*
X1279387Y778681D01*
X1279447Y778983D01*
X1279618Y779239D01*
X1279874Y779410D01*
X1280243Y779483D01*
X1280280Y779508D01*
X1280392Y779530D01*
X1280402Y779545D01*
X1280420Y779550D01*
X1280920Y779961D01*
X1280928Y779977D01*
X1280945Y779984D01*
X1280990Y780092D01*
X1281045Y780195D01*
X1281039Y780212D01*
X1281046Y780229D01*
Y781634D01*
X1281039Y781650D01*
X1281045Y781668D01*
X1280990Y781771D01*
X1280945Y781879D01*
X1280928Y781885D01*
X1280920Y781901D01*
X1280420Y782312D01*
X1280402Y782317D01*
X1280392Y782332D01*
X1280280Y782354D01*
X1280243Y782379D01*
X1279874Y782452D01*
X1279618Y782623D01*
X1279447Y782879D01*
X1279387Y783181D01*
X1279447Y783483D01*
X1279618Y783739D01*
X1279874Y783910D01*
X1280243Y783983D01*
X1280280Y784008D01*
X1280392Y784030D01*
X1280402Y784045D01*
X1280420Y784050D01*
X1280920Y784461D01*
X1280928Y784477D01*
X1280945Y784484D01*
X1280990Y784592D01*
X1281045Y784695D01*
X1281039Y784712D01*
X1281046Y784728D01*
Y785996D01*
X1281036Y786021D01*
X1281042Y786048D01*
X1280986Y786140D01*
X1280945Y786241D01*
X1280919Y786251D01*
X1280905Y786275D01*
X1280405Y786643D01*
X1280397Y786645D01*
X1280392Y786652D01*
X1280270Y786676D01*
X1280148Y786706D01*
X1280141Y786702D01*
X1280132Y786704D01*
X1280076Y786692D01*
X1279774Y786752D01*
X1279518Y786923D01*
X1279347Y787179D01*
X1279287Y787481D01*
X1279347Y787783D01*
X1279518Y788039D01*
X1279774Y788210D01*
X1280076Y788270D01*
X1280132Y788259D01*
X1280141Y788260D01*
X1280148Y788256D01*
X1280270Y788286D01*
X1280392Y788310D01*
X1280397Y788317D01*
X1280405Y788319D01*
X1280905Y788688D01*
X1280919Y788711D01*
X1280945Y788722D01*
X1280986Y788822D01*
X1281042Y788914D01*
X1281036Y788941D01*
X1281046Y788967D01*
Y795357D01*
X1280945Y795602D01*
X1274669Y801878D01*
X1274653Y801885D01*
X1274645Y801900D01*
X1274533Y801935D01*
X1274424Y801980D01*
X1274409Y801973D01*
X1274392Y801978D01*
X1273751Y801919D01*
X1273675Y801878D01*
X1273591Y801862D01*
X1273277Y801652D01*
X1272976Y801592D01*
X1272674Y801652D01*
X1272418Y801823D01*
X1272247Y802079D01*
X1272187Y802381D01*
X1272247Y802683D01*
X1272456Y802996D01*
X1272473Y803080D01*
X1272513Y803156D01*
X1272573Y803798D01*
X1272568Y803814D01*
X1272574Y803830D01*
X1272529Y803938D01*
X1272494Y804051D01*
X1272479Y804059D01*
X1272473Y804075D01*
X1271000Y805547D01*
X1270983Y805554D01*
X1270975Y805570D01*
X1270863Y805604D01*
X1270755Y805649D01*
X1270738Y805642D01*
X1270721Y805647D01*
X1270224Y805598D01*
X1270208Y805589D01*
X1270190Y805593D01*
X1270093Y805528D01*
X1270089Y805526D01*
X1270050Y805518D01*
X1269736Y805309D01*
X1269435Y805249D01*
X1269133Y805309D01*
X1268877Y805480D01*
X1268706Y805736D01*
X1268646Y806038D01*
X1268706Y806339D01*
X1268915Y806653D01*
X1268923Y806692D01*
X1268925Y806696D01*
X1268990Y806793D01*
X1268986Y806811D01*
X1268995Y806827D01*
X1269044Y807324D01*
X1269039Y807341D01*
X1269046Y807358D01*
X1269001Y807466D01*
X1268967Y807578D01*
X1268951Y807586D01*
X1268944Y807603D01*
X1267772Y808775D01*
X1267739Y808789D01*
X1267719Y808818D01*
X1267064Y809256D01*
X1266627Y809911D01*
X1266597Y809931D01*
X1266584Y809964D01*
X1264803Y811744D01*
X1264558Y811846D01*
D02*
G37*
G36*
X1172776Y811023D02*
X1172339Y810936D01*
X1171968Y810689D01*
X1171721Y810318D01*
X1171634Y809881D01*
X1171721Y809444D01*
X1171968Y809074D01*
X1172339Y808826D01*
X1172776Y808739D01*
X1173213Y808826D01*
X1173583Y809074D01*
X1173831Y809444D01*
X1173917Y809881D01*
X1173831Y810318D01*
X1173583Y810689D01*
X1173213Y810936D01*
X1172776Y811023D01*
D02*
G37*
G36*
X1072776Y813313D02*
X1072534Y813265D01*
X1072329Y813128D01*
X1072329Y813128D01*
X1068929Y809728D01*
X1068792Y809523D01*
X1068743Y809281D01*
Y800461D01*
X1068576Y800323D01*
X1068139Y800236D01*
X1067768Y799989D01*
X1067521Y799618D01*
X1067434Y799181D01*
X1067521Y798744D01*
X1067768Y798374D01*
X1068139Y798126D01*
X1068576Y798039D01*
X1069013Y798126D01*
X1069383Y798374D01*
X1069631Y798744D01*
X1069673Y798958D01*
X1069743Y799037D01*
X1070135Y798903D01*
X1070231Y798811D01*
X1070243Y798784D01*
Y797343D01*
X1069582Y796682D01*
X1069376Y796723D01*
X1068939Y796636D01*
X1068568Y796389D01*
X1068321Y796018D01*
X1068234Y795581D01*
X1068321Y795144D01*
X1068568Y794774D01*
X1068939Y794526D01*
X1069376Y794439D01*
X1069813Y794526D01*
X1070183Y794774D01*
X1070431Y795144D01*
X1070518Y795581D01*
X1070476Y795788D01*
X1071323Y796634D01*
X1071460Y796839D01*
X1071508Y797081D01*
Y808919D01*
X1073657Y811069D01*
X1081681D01*
X1081905Y810569D01*
X1081771Y810368D01*
X1081684Y809931D01*
X1081771Y809494D01*
X1082018Y809124D01*
X1082389Y808876D01*
X1082826Y808789D01*
X1083263Y808876D01*
X1083633Y809124D01*
X1083797Y809368D01*
X1085562D01*
X1086687Y808243D01*
X1086687Y808243D01*
X1087085Y808078D01*
X1087085Y808078D01*
X1136775D01*
X1137147Y807646D01*
X1137134Y807581D01*
X1137221Y807144D01*
X1137468Y806774D01*
X1137839Y806526D01*
X1138276Y806439D01*
X1138713Y806526D01*
X1139083Y806774D01*
X1139331Y807144D01*
X1139417Y807581D01*
X1139331Y808018D01*
X1139123Y808329D01*
X1139191Y808586D01*
X1139324Y808829D01*
X1139834D01*
X1140230Y808432D01*
X1140221Y808418D01*
X1140134Y807981D01*
X1140221Y807544D01*
X1140468Y807174D01*
X1140839Y806926D01*
X1141276Y806839D01*
X1141713Y806926D01*
X1142080Y806586D01*
X1142088Y806575D01*
X1142329Y806214D01*
X1142700Y805966D01*
X1143137Y805879D01*
X1143574Y805966D01*
X1143944Y806214D01*
X1144192Y806584D01*
X1144279Y807021D01*
X1144192Y807458D01*
X1143944Y807829D01*
X1143769Y807946D01*
Y808428D01*
X1143721Y808670D01*
X1143584Y808875D01*
X1141631Y810828D01*
X1141426Y810965D01*
X1141184Y811013D01*
X1088068D01*
X1086963Y812118D01*
X1086757Y812255D01*
X1086516Y812303D01*
X1085173D01*
X1084348Y813128D01*
X1084144Y813265D01*
X1083902Y813313D01*
X1072776D01*
X1072776Y813313D01*
D02*
G37*
G36*
X1048402Y816190D02*
X1046469Y816038D01*
X1044584Y815586D01*
X1042792Y814843D01*
X1041138Y813830D01*
X1039664Y812571D01*
X1038404Y811096D01*
X1037391Y809443D01*
X1036649Y807651D01*
X1036196Y805766D01*
X1036044Y803832D01*
X1036196Y801899D01*
X1036649Y800013D01*
X1037391Y798222D01*
X1038404Y796568D01*
X1039664Y795094D01*
X1041138Y793834D01*
X1042792Y792821D01*
X1044584Y792079D01*
X1046469Y791626D01*
X1048402Y791474D01*
X1050336Y791626D01*
X1052221Y792079D01*
X1054013Y792821D01*
X1055666Y793834D01*
X1057141Y795094D01*
X1058400Y796568D01*
X1059414Y798222D01*
X1060156Y800013D01*
X1060608Y801899D01*
X1060760Y803832D01*
X1060608Y805766D01*
X1060156Y807651D01*
X1059414Y809443D01*
X1058400Y811096D01*
X1057141Y812571D01*
X1055666Y813830D01*
X1054013Y814843D01*
X1052221Y815586D01*
X1050336Y816038D01*
X1048402Y816190D01*
D02*
G37*
G36*
X1106676Y787023D02*
X1106239Y786936D01*
X1105868Y786689D01*
X1105621Y786318D01*
X1105534Y785881D01*
X1105621Y785444D01*
X1105868Y785074D01*
X1106239Y784826D01*
X1106676Y784739D01*
X1107113Y784826D01*
X1107483Y785074D01*
X1107731Y785444D01*
X1107817Y785881D01*
X1107731Y786318D01*
X1107483Y786689D01*
X1107113Y786936D01*
X1106676Y787023D01*
D02*
G37*
G36*
X1199859Y786863D02*
X1199422Y786776D01*
X1199052Y786528D01*
X1198804Y786158D01*
X1198717Y785721D01*
X1198804Y785284D01*
X1199052Y784913D01*
X1199422Y784666D01*
X1199859Y784579D01*
X1200296Y784666D01*
X1200667Y784913D01*
X1200914Y785284D01*
X1201001Y785721D01*
X1200914Y786158D01*
X1200667Y786528D01*
X1200296Y786776D01*
X1199859Y786863D01*
D02*
G37*
G36*
X1242776Y785623D02*
X1242339Y785536D01*
X1241968Y785289D01*
X1241721Y784918D01*
X1241634Y784481D01*
X1241721Y784044D01*
X1241968Y783674D01*
X1242339Y783426D01*
X1242776Y783339D01*
X1243213Y783426D01*
X1243583Y783674D01*
X1243831Y784044D01*
X1243917Y784481D01*
X1243831Y784918D01*
X1243583Y785289D01*
X1243213Y785536D01*
X1242776Y785623D01*
D02*
G37*
G36*
X1222300Y792385D02*
X1221980Y792322D01*
X1221709Y792140D01*
X1221528Y791869D01*
X1221494Y791702D01*
X1221176Y791384D01*
X1194432D01*
X1194432Y791384D01*
X1194034Y791219D01*
X1194034Y791219D01*
X1185229Y782414D01*
X1182596D01*
X1182444Y782914D01*
X1182683Y783074D01*
X1182931Y783444D01*
X1183018Y783881D01*
X1182931Y784318D01*
X1182683Y784689D01*
X1182313Y784936D01*
X1181876Y785023D01*
X1181439Y784936D01*
X1181068Y784689D01*
X1180821Y784318D01*
X1180734Y783881D01*
X1180821Y783444D01*
X1181068Y783074D01*
X1181307Y782914D01*
X1181155Y782414D01*
X1178905D01*
X1178507Y782249D01*
X1166437Y770179D01*
X1166272Y769781D01*
Y767774D01*
X1164502Y766004D01*
X1160799D01*
X1160799Y766004D01*
X1160401Y765839D01*
X1157918Y763355D01*
X1157753Y762957D01*
Y750486D01*
X1157771Y750442D01*
Y745463D01*
X1155778Y743470D01*
X1155613Y743072D01*
Y740992D01*
X1155292Y740635D01*
X1154972Y740571D01*
X1154701Y740390D01*
X1154520Y740119D01*
X1154456Y739799D01*
X1154520Y739479D01*
X1154701Y739208D01*
X1154972Y739026D01*
X1155292Y738963D01*
X1155612Y739026D01*
X1155883Y739208D01*
X1155999Y739380D01*
X1156217Y739424D01*
X1156335D01*
X1156554Y739380D01*
X1156670Y739208D01*
X1156941Y739026D01*
X1157261Y738963D01*
X1157581Y739026D01*
X1157852Y739208D01*
X1158033Y739479D01*
X1158097Y739799D01*
X1158033Y740119D01*
X1157852Y740390D01*
X1157638Y740532D01*
Y741486D01*
X1157835Y741638D01*
X1158138Y741792D01*
X1158376Y741745D01*
X1158696Y741809D01*
X1158967Y741990D01*
X1159148Y742261D01*
X1159212Y742581D01*
X1159205Y742615D01*
X1160174Y743583D01*
X1160338Y743981D01*
Y751063D01*
X1160318Y751111D01*
Y762128D01*
X1161320Y763129D01*
X1165487D01*
X1165885Y763294D01*
X1168754Y766163D01*
X1168754Y766163D01*
X1168918Y766561D01*
Y769032D01*
X1176700Y776814D01*
X1177161Y776567D01*
X1177134Y776431D01*
X1177221Y775994D01*
X1177468Y775624D01*
X1177839Y775376D01*
X1178276Y775289D01*
X1178713Y775376D01*
X1179083Y775624D01*
X1179331Y775994D01*
X1179418Y776431D01*
X1179331Y776868D01*
X1179083Y777239D01*
X1178713Y777486D01*
X1178276Y777573D01*
X1178139Y777546D01*
X1177893Y778007D01*
X1179605Y779718D01*
X1185928D01*
X1186326Y779883D01*
X1195220Y788777D01*
X1220784D01*
X1221478Y788083D01*
X1221478Y788083D01*
X1221876Y787918D01*
X1223509D01*
X1223870Y788067D01*
X1223921Y788057D01*
X1224241Y788121D01*
X1224512Y788302D01*
X1224694Y788573D01*
X1224757Y788893D01*
X1224694Y789213D01*
X1224512Y789485D01*
X1224241Y789666D01*
X1223921Y789729D01*
X1223856Y789716D01*
X1223601Y789666D01*
X1223348Y789901D01*
X1223167Y790172D01*
X1222896Y790353D01*
X1222878Y790357D01*
X1222783Y790886D01*
X1222891Y790958D01*
X1223072Y791229D01*
X1223136Y791549D01*
X1223072Y791869D01*
X1222891Y792140D01*
X1222620Y792322D01*
X1222300Y792385D01*
D02*
G37*
G36*
X1114744Y791441D02*
X1114307Y791354D01*
X1113937Y791106D01*
X1113689Y790736D01*
X1113602Y790299D01*
X1113689Y789862D01*
X1113937Y789491D01*
X1114307Y789244D01*
X1114744Y789157D01*
X1115181Y789244D01*
X1115551Y789491D01*
X1115799Y789862D01*
X1115886Y790299D01*
X1115799Y790736D01*
X1115551Y791106D01*
X1115181Y791354D01*
X1114744Y791441D01*
D02*
G37*
G36*
X1229292Y798827D02*
X1228777Y798725D01*
X1228340Y798433D01*
X1228049Y797996D01*
X1227946Y797481D01*
Y790055D01*
X1224818Y786927D01*
X1221376D01*
X1221376Y786927D01*
X1220946Y786841D01*
X1220860Y786825D01*
X1220424Y786533D01*
X1220424Y786533D01*
X1217724Y783833D01*
X1217432Y783396D01*
X1217330Y782881D01*
Y772781D01*
X1217432Y772266D01*
X1217636Y771962D01*
Y770512D01*
X1216645Y769521D01*
X1208055D01*
X1208055Y769521D01*
X1207657Y769442D01*
X1207489Y769329D01*
X1207320Y769216D01*
X1207320Y769216D01*
X1203040Y764937D01*
X1202815Y764599D01*
X1202736Y764201D01*
Y763541D01*
X1202721Y763518D01*
X1202634Y763081D01*
X1202721Y762644D01*
X1202968Y762274D01*
X1203339Y762026D01*
X1203776Y761939D01*
X1204213Y762026D01*
X1204583Y762274D01*
X1204831Y762644D01*
X1204918Y763081D01*
X1204831Y763518D01*
X1204816Y763541D01*
Y763770D01*
X1208486Y767441D01*
X1209136D01*
X1209361Y766941D01*
X1209228Y766742D01*
X1209141Y766305D01*
X1209228Y765868D01*
X1209475Y765497D01*
X1209846Y765250D01*
X1210052Y765209D01*
X1210343Y764918D01*
X1210647Y764714D01*
X1211006Y764643D01*
X1219187D01*
X1220565Y763265D01*
Y751635D01*
X1220421Y751418D01*
X1220334Y750981D01*
X1220421Y750544D01*
X1220668Y750174D01*
X1221039Y749926D01*
X1221476Y749839D01*
X1221913Y749926D01*
X1222283Y750174D01*
X1222531Y750544D01*
X1222618Y750981D01*
X1222531Y751418D01*
X1222441Y751552D01*
Y763654D01*
X1222370Y764012D01*
X1222167Y764317D01*
X1220239Y766244D01*
X1219935Y766448D01*
X1219576Y766519D01*
X1211395D01*
X1211379Y766535D01*
X1211338Y766742D01*
X1211205Y766941D01*
X1211429Y767441D01*
X1217076D01*
X1217474Y767520D01*
X1217811Y767746D01*
X1219411Y769346D01*
X1219636Y769683D01*
X1219716Y770081D01*
Y771962D01*
X1219919Y772266D01*
X1220022Y772781D01*
Y782324D01*
X1221933Y784235D01*
X1225376D01*
X1225891Y784338D01*
X1226327Y784629D01*
X1230244Y788546D01*
X1230535Y788982D01*
X1230552Y789068D01*
X1230638Y789498D01*
X1230638Y789498D01*
Y797481D01*
X1230535Y797996D01*
X1230244Y798433D01*
X1229807Y798725D01*
X1229292Y798827D01*
D02*
G37*
G36*
X1055765Y753517D02*
X1055328Y753431D01*
X1054957Y753183D01*
X1054710Y752813D01*
X1054623Y752376D01*
X1054710Y751939D01*
X1054957Y751568D01*
X1055328Y751321D01*
X1055765Y751234D01*
X1056202Y751321D01*
X1056572Y751568D01*
X1056820Y751939D01*
X1056907Y752376D01*
X1056820Y752813D01*
X1056572Y753183D01*
X1056202Y753431D01*
X1055765Y753517D01*
D02*
G37*
G36*
X1179876Y752023D02*
X1179439Y751936D01*
X1179068Y751689D01*
X1178821Y751318D01*
X1178734Y750881D01*
X1178821Y750444D01*
X1179068Y750074D01*
X1179439Y749826D01*
X1179876Y749739D01*
X1180313Y749826D01*
X1180683Y750074D01*
X1180931Y750444D01*
X1181017Y750881D01*
X1180931Y751318D01*
X1180683Y751689D01*
X1180313Y751936D01*
X1179876Y752023D01*
D02*
G37*
G36*
X1145276Y751923D02*
X1144886Y751846D01*
X1144831Y751869D01*
X1133700D01*
X1133302Y751704D01*
X1131578Y749979D01*
X1131413Y749581D01*
Y748814D01*
X1131009Y748411D01*
X1130976Y748417D01*
X1130656Y748353D01*
X1130384Y748172D01*
X1130203Y747901D01*
X1130140Y747581D01*
X1130203Y747261D01*
X1130384Y746990D01*
X1130656Y746809D01*
X1130976Y746745D01*
X1131295Y746809D01*
X1131567Y746990D01*
X1131748Y747261D01*
X1131812Y747581D01*
X1131805Y747614D01*
X1132374Y748183D01*
X1132538Y748581D01*
Y749348D01*
X1133934Y750743D01*
X1144141D01*
X1144221Y750344D01*
X1144468Y749974D01*
X1144839Y749726D01*
X1145276Y749639D01*
X1145713Y749726D01*
X1146083Y749974D01*
X1146331Y750344D01*
X1146418Y750781D01*
X1146331Y751218D01*
X1146083Y751589D01*
X1145713Y751836D01*
X1145276Y751923D01*
D02*
G37*
G36*
X1089976Y772017D02*
X1089656Y771953D01*
X1089384Y771772D01*
X1089203Y771501D01*
X1089139Y771181D01*
X1089203Y770861D01*
X1089384Y770590D01*
X1089413Y770571D01*
Y769614D01*
X1086242Y766444D01*
X1082664D01*
X1082266Y766279D01*
X1081278Y765291D01*
X1081113Y764893D01*
Y759581D01*
X1081278Y759183D01*
X1082278Y758183D01*
X1082676Y758018D01*
X1084384D01*
X1085620Y756783D01*
X1086018Y756618D01*
X1102542D01*
X1104698Y754463D01*
X1104698Y754463D01*
X1105096Y754298D01*
X1105096Y754298D01*
X1118756D01*
X1119154Y754463D01*
X1121609Y756918D01*
X1130176D01*
X1130574Y757083D01*
X1131409Y757918D01*
X1142276D01*
X1142674Y758083D01*
X1143409Y758818D01*
X1144942D01*
X1146296Y757465D01*
X1146239Y757181D01*
X1146303Y756861D01*
X1146484Y756590D01*
X1146756Y756409D01*
X1147076Y756345D01*
X1147396Y756409D01*
X1147667Y756590D01*
X1147848Y756861D01*
X1147912Y757181D01*
X1147848Y757501D01*
X1147667Y757772D01*
X1147406Y757946D01*
X1145574Y759779D01*
X1145176Y759944D01*
X1143176D01*
X1142778Y759779D01*
X1142042Y759044D01*
X1131176D01*
X1130778Y758879D01*
X1129942Y758044D01*
X1121376D01*
X1120978Y757879D01*
X1118522Y755424D01*
X1105329D01*
X1103174Y757579D01*
X1102776Y757744D01*
X1086251D01*
X1085015Y758979D01*
X1084618Y759144D01*
X1082909D01*
X1082238Y759814D01*
Y764660D01*
X1082897Y765318D01*
X1086476D01*
X1086874Y765483D01*
X1090374Y768983D01*
X1090538Y769381D01*
Y770571D01*
X1090567Y770590D01*
X1090748Y770861D01*
X1090812Y771181D01*
X1090748Y771501D01*
X1090567Y771772D01*
X1090296Y771953D01*
X1089976Y772017D01*
D02*
G37*
G36*
X1051587Y755194D02*
X1051150Y755106D01*
X1050780Y754859D01*
X1050532Y754489D01*
X1050445Y754051D01*
X1050532Y753615D01*
X1050780Y753244D01*
X1051150Y752996D01*
X1051587Y752910D01*
X1052024Y752996D01*
X1052394Y753244D01*
X1052642Y753615D01*
X1052729Y754051D01*
X1052642Y754489D01*
X1052394Y754859D01*
X1052024Y755106D01*
X1051587Y755194D01*
D02*
G37*
G36*
X1104576Y751123D02*
X1104139Y751036D01*
X1103768Y750789D01*
X1103521Y750418D01*
X1103434Y749981D01*
X1103521Y749544D01*
X1103768Y749174D01*
X1104139Y748926D01*
X1104576Y748839D01*
X1105013Y748926D01*
X1105383Y749174D01*
X1105631Y749544D01*
X1105717Y749981D01*
X1105631Y750418D01*
X1105383Y750789D01*
X1105013Y751036D01*
X1104576Y751123D01*
D02*
G37*
G36*
X1136666Y749383D02*
X1136229Y749296D01*
X1135858Y749049D01*
X1135611Y748678D01*
X1135524Y748241D01*
X1135611Y747804D01*
X1135858Y747434D01*
X1136229Y747186D01*
X1136666Y747099D01*
X1137103Y747186D01*
X1137473Y747434D01*
X1137721Y747804D01*
X1137807Y748241D01*
X1137721Y748678D01*
X1137473Y749049D01*
X1137103Y749296D01*
X1136666Y749383D01*
D02*
G37*
G36*
X1252676Y750312D02*
X1252051Y750188D01*
X1251522Y749835D01*
X1251168Y749305D01*
X1251044Y748681D01*
X1251168Y748057D01*
X1251522Y747528D01*
X1252051Y747174D01*
X1252676Y747050D01*
X1253300Y747174D01*
X1253829Y747528D01*
X1254183Y748057D01*
X1254307Y748681D01*
X1254183Y749305D01*
X1253829Y749835D01*
X1253300Y750188D01*
X1252676Y750312D01*
D02*
G37*
G36*
X1221776Y782317D02*
X1221456Y782254D01*
X1221184Y782072D01*
X1221003Y781801D01*
X1220940Y781481D01*
X1221003Y781161D01*
X1221184Y780890D01*
X1221213Y780871D01*
Y779281D01*
X1221378Y778883D01*
X1224813Y775448D01*
Y757281D01*
X1224978Y756883D01*
X1226413Y755448D01*
Y753148D01*
X1226433Y753100D01*
Y751730D01*
X1221804Y747101D01*
X1215135D01*
X1214972Y747346D01*
X1214602Y747594D01*
X1214165Y747681D01*
X1213728Y747594D01*
X1213357Y747346D01*
X1213110Y746976D01*
X1213023Y746539D01*
X1213110Y746102D01*
X1213357Y745731D01*
X1213728Y745484D01*
X1214165Y745397D01*
X1214602Y745484D01*
X1214972Y745731D01*
X1215135Y745976D01*
X1222037D01*
X1222435Y746141D01*
X1227394Y751099D01*
X1227558Y751497D01*
Y753128D01*
X1227538Y753176D01*
Y755681D01*
X1227374Y756079D01*
X1225938Y757514D01*
Y775681D01*
X1225774Y776079D01*
X1222338Y779514D01*
Y780871D01*
X1222367Y780890D01*
X1222548Y781161D01*
X1222612Y781481D01*
X1222548Y781801D01*
X1222367Y782072D01*
X1222095Y782254D01*
X1221776Y782317D01*
D02*
G37*
G36*
X1093811Y750532D02*
X1093374Y750446D01*
X1093003Y750198D01*
X1092756Y749827D01*
X1092669Y749391D01*
X1092756Y748953D01*
X1093003Y748583D01*
X1093374Y748336D01*
X1093811Y748249D01*
X1094248Y748336D01*
X1094618Y748583D01*
X1094866Y748953D01*
X1094953Y749391D01*
X1094866Y749827D01*
X1094618Y750198D01*
X1094248Y750446D01*
X1093811Y750532D01*
D02*
G37*
G36*
X1232194Y794828D02*
X1232072Y794777D01*
X1231951Y794728D01*
X1231950Y794727D01*
X1231949Y794726D01*
X1231899Y794604D01*
X1231848Y794483D01*
X1231828Y791335D01*
X1231829Y791332D01*
X1231828Y791330D01*
X1232127Y751110D01*
X1232127Y751108D01*
X1232127Y751106D01*
X1232179Y750986D01*
X1232230Y750865D01*
X1232232Y750865D01*
X1232233Y750863D01*
X1232337Y750762D01*
X1232421Y750344D01*
X1232668Y749974D01*
X1233039Y749726D01*
X1233476Y749639D01*
X1233497Y749643D01*
X1234741Y748444D01*
X1234861Y748397D01*
X1234980Y748347D01*
X1244987Y748319D01*
X1245208Y748172D01*
X1245644Y748085D01*
X1246082Y748172D01*
X1246452Y748420D01*
X1246700Y748790D01*
X1246786Y749227D01*
X1246700Y749664D01*
X1246452Y750035D01*
X1246150Y750237D01*
X1244860Y751526D01*
X1244717Y751585D01*
X1244615Y751627D01*
X1238894Y751627D01*
X1238862Y751614D01*
X1238827Y751621D01*
X1238743Y751565D01*
X1238650Y751526D01*
X1238636Y751493D01*
X1238606Y751474D01*
X1238517Y751340D01*
X1238360Y751235D01*
X1238176Y751198D01*
X1237991Y751235D01*
X1237834Y751340D01*
X1237729Y751496D01*
X1237693Y751681D01*
X1237729Y751866D01*
X1237872Y752080D01*
X1237889Y752163D01*
X1237929Y752238D01*
X1237938Y752329D01*
X1237933Y752347D01*
X1237940Y752363D01*
X1237895Y752471D01*
X1237861Y752583D01*
X1237845Y752592D01*
X1237838Y752608D01*
X1236422Y754025D01*
Y759539D01*
X1236383Y759632D01*
X1236364Y759731D01*
X1236334Y759751D01*
X1236320Y759784D01*
X1236243Y759816D01*
X1236231Y759834D01*
X1235918Y760043D01*
X1235747Y760299D01*
X1235687Y760601D01*
X1235747Y760903D01*
X1235918Y761159D01*
X1236231Y761368D01*
X1236243Y761387D01*
X1236320Y761418D01*
X1236334Y761451D01*
X1236364Y761471D01*
X1236383Y761570D01*
X1236422Y761663D01*
Y762730D01*
X1236383Y762823D01*
X1236364Y762922D01*
X1236334Y762942D01*
X1236320Y762975D01*
X1236241Y763008D01*
X1236229Y763026D01*
X1235915Y763235D01*
X1235744Y763491D01*
X1235684Y763793D01*
X1235744Y764095D01*
X1235915Y764351D01*
X1236229Y764560D01*
X1236241Y764578D01*
X1236320Y764611D01*
X1236334Y764644D01*
X1236364Y764663D01*
X1236383Y764762D01*
X1236422Y764856D01*
Y766667D01*
X1236383Y766760D01*
X1236364Y766859D01*
X1236334Y766879D01*
X1236320Y766912D01*
X1236241Y766945D01*
X1236229Y766963D01*
X1235915Y767172D01*
X1235744Y767428D01*
X1235684Y767730D01*
X1235744Y768032D01*
X1235915Y768288D01*
X1236229Y768497D01*
X1236241Y768515D01*
X1236320Y768548D01*
X1236334Y768581D01*
X1236364Y768600D01*
X1236383Y768699D01*
X1236422Y768793D01*
Y770604D01*
X1236383Y770697D01*
X1236364Y770796D01*
X1236334Y770816D01*
X1236320Y770849D01*
X1236241Y770882D01*
X1236229Y770900D01*
X1235915Y771109D01*
X1235744Y771365D01*
X1235684Y771667D01*
X1235744Y771969D01*
X1235915Y772225D01*
X1236229Y772434D01*
X1236241Y772452D01*
X1236320Y772485D01*
X1236334Y772518D01*
X1236364Y772537D01*
X1236383Y772636D01*
X1236422Y772730D01*
X1236422Y785270D01*
X1236408Y785303D01*
X1236415Y785338D01*
X1236387Y785481D01*
X1236415Y785624D01*
X1236408Y785659D01*
X1236422Y785692D01*
Y794481D01*
X1236320Y794726D01*
X1236076Y794827D01*
X1232194Y794828D01*
D02*
G37*
G36*
X1057176Y765523D02*
X1056739Y765436D01*
X1056368Y765189D01*
X1056121Y764818D01*
X1056034Y764381D01*
X1056121Y763944D01*
X1056368Y763574D01*
X1056739Y763326D01*
X1057176Y763239D01*
X1057613Y763326D01*
X1057983Y763574D01*
X1058231Y763944D01*
X1058317Y764381D01*
X1058231Y764818D01*
X1057983Y765189D01*
X1057613Y765436D01*
X1057176Y765523D01*
D02*
G37*
G36*
X1148576Y792573D02*
X1148139Y792486D01*
X1147768Y792239D01*
X1147521Y791868D01*
X1147434Y791431D01*
X1147521Y790994D01*
X1147768Y790624D01*
X1148013Y790460D01*
Y788449D01*
X1148178Y788051D01*
X1150183Y786046D01*
Y772042D01*
X1145524Y767383D01*
X1145359Y766985D01*
Y763761D01*
X1144709Y763110D01*
X1144676Y763117D01*
X1144356Y763054D01*
X1144084Y762872D01*
X1143903Y762601D01*
X1143839Y762281D01*
X1143903Y761961D01*
X1144084Y761690D01*
X1144356Y761509D01*
X1144676Y761445D01*
X1144995Y761509D01*
X1145267Y761690D01*
X1145448Y761961D01*
X1145512Y762281D01*
X1145505Y762315D01*
X1146320Y763130D01*
X1146485Y763527D01*
Y766752D01*
X1151143Y771411D01*
X1151144Y771411D01*
X1151309Y771809D01*
X1151308Y771809D01*
Y786279D01*
X1151144Y786677D01*
X1149138Y788683D01*
Y790460D01*
X1149383Y790624D01*
X1149631Y790994D01*
X1149718Y791431D01*
X1149631Y791868D01*
X1149383Y792239D01*
X1149013Y792486D01*
X1148576Y792573D01*
D02*
G37*
G36*
X1154958Y769928D02*
X1152775Y769927D01*
X1152531Y769826D01*
X1149904Y767199D01*
X1149897Y767183D01*
X1149881Y767174D01*
X1149847Y767062D01*
X1149809Y766971D01*
X1149576Y767017D01*
X1149256Y766954D01*
X1148984Y766772D01*
X1148803Y766501D01*
X1148740Y766181D01*
X1148803Y765861D01*
X1148841Y765804D01*
Y755885D01*
X1148172Y755215D01*
X1145254D01*
X1145194Y755516D01*
X1144947Y755887D01*
X1144576Y756134D01*
X1144139Y756221D01*
X1143702Y756134D01*
X1143332Y755887D01*
X1143084Y755516D01*
X1142997Y755079D01*
X1143084Y754642D01*
X1143150Y754544D01*
X1142883Y754044D01*
X1142112D01*
X1141077Y755079D01*
X1140679Y755244D01*
X1122276D01*
X1121878Y755079D01*
X1119794Y752995D01*
X1103557D01*
X1102974Y753579D01*
X1102576Y753744D01*
X1101898D01*
X1101630Y754244D01*
X1101631Y754244D01*
X1101717Y754681D01*
X1101631Y755118D01*
X1101383Y755489D01*
X1101013Y755736D01*
X1100576Y755823D01*
X1100139Y755736D01*
X1099768Y755489D01*
X1099521Y755118D01*
X1099434Y754681D01*
X1099521Y754244D01*
X1099521Y754244D01*
X1099253Y753744D01*
X1093881D01*
X1093483Y753579D01*
X1091519Y751615D01*
X1091337Y751646D01*
X1091009Y751812D01*
X1090945Y752134D01*
X1090697Y752505D01*
X1090326Y752752D01*
X1089890Y752839D01*
X1089452Y752752D01*
X1089082Y752505D01*
X1088834Y752134D01*
X1088748Y751697D01*
X1088834Y751260D01*
X1089082Y750890D01*
X1089452Y750642D01*
X1089775Y750578D01*
X1089941Y750250D01*
X1089972Y750068D01*
X1085478Y745574D01*
X1085313Y745176D01*
Y743160D01*
X1085284Y743141D01*
X1085103Y742870D01*
X1085040Y742550D01*
X1085103Y742230D01*
X1085284Y741958D01*
X1085556Y741777D01*
X1085876Y741713D01*
X1086195Y741777D01*
X1086467Y741958D01*
X1086648Y742230D01*
X1086712Y742550D01*
X1086648Y742870D01*
X1086467Y743141D01*
X1086438Y743160D01*
Y744943D01*
X1094114Y752618D01*
X1102342D01*
X1102926Y752035D01*
X1103324Y751870D01*
X1107800D01*
X1108091Y751370D01*
X1108034Y751081D01*
X1108121Y750644D01*
X1108368Y750274D01*
X1108739Y750026D01*
X1109176Y749939D01*
X1109613Y750026D01*
X1109983Y750274D01*
X1110231Y750644D01*
X1110318Y751081D01*
X1110260Y751370D01*
X1110551Y751870D01*
X1120027D01*
X1120425Y752035D01*
X1122509Y754118D01*
X1140446D01*
X1141481Y753083D01*
X1141879Y752918D01*
X1141879Y752918D01*
X1147677D01*
X1148028Y752567D01*
Y751252D01*
X1147984Y751222D01*
X1147803Y750951D01*
X1147740Y750631D01*
X1147803Y750311D01*
X1147740Y750285D01*
X1147386Y749931D01*
Y749931D01*
X1147386D01*
X1146561Y749106D01*
X1146476Y749123D01*
X1146039Y749036D01*
X1145668Y748789D01*
X1145421Y748418D01*
X1145334Y747981D01*
X1145410Y747597D01*
X1145337Y747432D01*
X1145104Y747117D01*
X1143847D01*
X1143846Y747117D01*
X1143845Y747117D01*
X1143724Y747066D01*
X1143602Y747016D01*
X1143601Y747015D01*
X1143600Y747014D01*
X1142131Y745527D01*
X1135876Y745524D01*
X1135522Y745877D01*
Y746381D01*
X1135421Y746626D01*
X1135176Y746728D01*
X1134975D01*
X1134813Y746836D01*
X1134376Y746923D01*
X1133939Y746836D01*
X1133776Y746728D01*
X1133576D01*
X1133331Y746626D01*
X1133229Y746381D01*
Y745880D01*
X1132876Y745526D01*
X1119019Y745528D01*
X1118620Y745926D01*
X1118376Y746028D01*
X1106276D01*
X1106031Y745926D01*
X1103331Y743226D01*
X1103229Y742981D01*
Y738881D01*
Y734735D01*
X1103331Y734490D01*
X1103684Y734136D01*
X1103929Y734035D01*
X1104126D01*
X1104139Y734026D01*
X1104576Y733939D01*
X1105013Y734026D01*
X1105025Y734035D01*
X1105476D01*
X1105721Y734136D01*
X1105822Y734381D01*
Y740435D01*
X1119030D01*
X1119062Y740448D01*
X1119097Y740441D01*
X1119181Y740497D01*
X1119274Y740536D01*
X1119288Y740569D01*
X1119318Y740589D01*
X1119418Y740739D01*
X1119674Y740910D01*
X1119976Y740970D01*
X1120277Y740910D01*
X1120533Y740739D01*
X1120634Y740589D01*
X1120663Y740569D01*
X1120677Y740536D01*
X1120770Y740497D01*
X1120854Y740441D01*
X1120889Y740448D01*
X1120922Y740435D01*
X1127776D01*
X1128129Y740081D01*
X1128129Y734535D01*
X1128231Y734290D01*
X1128584Y733936D01*
X1128688Y733893D01*
X1128768Y733774D01*
X1129139Y733526D01*
X1129576Y733439D01*
X1130013Y733526D01*
X1130383Y733774D01*
X1130424Y733835D01*
X1130467D01*
X1130591Y733886D01*
X1130711Y733936D01*
X1130711Y733936D01*
X1130712Y733936D01*
X1130762Y734058D01*
X1130813Y734180D01*
X1130826Y739923D01*
X1144044Y739923D01*
X1145077Y738890D01*
X1145268Y738604D01*
X1145639Y738356D01*
X1146076Y738269D01*
X1146513Y738356D01*
X1146883Y738604D01*
X1146904Y738635D01*
X1147328D01*
X1147573Y738736D01*
X1147674Y738981D01*
Y740396D01*
X1153894Y746616D01*
X1155469D01*
X1155714Y746717D01*
X1156204Y747207D01*
X1156233Y747276D01*
X1156284Y747331D01*
X1156463Y747813D01*
X1156462Y747842D01*
X1156478Y747866D01*
X1156457Y747971D01*
X1156453Y748078D01*
X1156432Y748098D01*
X1156426Y748126D01*
X1156217Y748439D01*
X1156157Y748741D01*
X1156217Y749043D01*
X1156388Y749299D01*
X1156449Y749340D01*
X1156469Y749369D01*
X1156502Y749383D01*
X1156540Y749476D01*
X1156596Y749560D01*
X1156590Y749595D01*
X1156603Y749628D01*
Y751416D01*
X1156590Y751448D01*
X1156596Y751483D01*
X1156540Y751567D01*
X1156502Y751661D01*
X1156469Y751674D01*
X1156449Y751704D01*
X1156336Y751779D01*
X1156165Y752035D01*
X1156105Y752337D01*
X1156165Y752639D01*
X1156336Y752895D01*
X1156449Y752970D01*
X1156469Y752999D01*
X1156502Y753013D01*
X1156540Y753106D01*
X1156596Y753190D01*
X1156590Y753225D01*
X1156603Y753258D01*
Y754991D01*
X1156590Y755024D01*
X1156596Y755058D01*
X1156540Y755142D01*
X1156502Y755236D01*
X1156469Y755249D01*
X1156449Y755279D01*
X1156248Y755413D01*
X1156077Y755669D01*
X1156017Y755971D01*
X1156077Y756273D01*
X1156248Y756529D01*
X1156449Y756663D01*
X1156469Y756693D01*
X1156502Y756706D01*
X1156540Y756800D01*
X1156596Y756884D01*
X1156590Y756918D01*
X1156603Y756951D01*
Y759681D01*
X1156590Y759714D01*
X1156596Y759748D01*
X1156540Y759832D01*
X1156502Y759926D01*
X1156469Y759939D01*
X1156449Y759969D01*
X1156218Y760123D01*
X1156047Y760379D01*
X1155987Y760681D01*
X1156047Y760983D01*
X1156218Y761239D01*
X1156449Y761393D01*
X1156469Y761423D01*
X1156502Y761437D01*
X1156540Y761530D01*
X1156596Y761614D01*
X1156590Y761649D01*
X1156603Y761681D01*
Y765323D01*
X1158565Y767285D01*
X1163301Y767285D01*
X1163539Y767126D01*
X1163976Y767039D01*
X1164413Y767126D01*
X1164783Y767374D01*
X1165031Y767744D01*
X1165117Y768181D01*
X1165031Y768618D01*
X1164783Y768989D01*
X1164555Y769141D01*
X1164554Y769533D01*
X1164503Y769654D01*
X1164452Y769776D01*
X1164451Y769776D01*
X1164451Y769777D01*
X1164328Y769827D01*
X1164207Y769877D01*
X1156074Y769878D01*
X1155974Y769836D01*
X1155869Y769811D01*
X1155778Y769744D01*
X1155289Y769740D01*
X1155203Y769826D01*
X1154958Y769928D01*
D02*
G37*
G36*
X1129583Y769952D02*
X1128959Y769828D01*
X1128430Y769474D01*
X1128076Y768945D01*
X1127952Y768321D01*
X1128076Y767696D01*
X1128430Y767167D01*
X1128959Y766813D01*
X1129583Y766689D01*
X1130208Y766813D01*
X1130737Y767167D01*
X1131091Y767696D01*
X1131215Y768321D01*
X1131091Y768945D01*
X1130737Y769474D01*
X1130208Y769828D01*
X1129583Y769952D01*
D02*
G37*
G36*
X1266476Y769123D02*
X1266039Y769036D01*
X1265668Y768789D01*
X1265421Y768418D01*
X1265334Y767981D01*
X1265421Y767544D01*
X1265668Y767174D01*
X1266039Y766926D01*
X1266476Y766839D01*
X1266913Y766926D01*
X1267283Y767174D01*
X1267531Y767544D01*
X1267618Y767981D01*
X1267531Y768418D01*
X1267283Y768789D01*
X1266913Y769036D01*
X1266476Y769123D01*
D02*
G37*
G36*
X1090512Y760523D02*
X1090075Y760436D01*
X1089704Y760189D01*
X1089457Y759818D01*
X1089370Y759381D01*
X1089457Y758944D01*
X1089704Y758574D01*
X1090075Y758326D01*
X1090512Y758239D01*
X1090949Y758326D01*
X1091319Y758574D01*
X1091567Y758944D01*
X1091654Y759381D01*
X1091567Y759818D01*
X1091319Y760189D01*
X1090949Y760436D01*
X1090512Y760523D01*
D02*
G37*
G36*
X1053472Y759429D02*
X1053035Y759342D01*
X1052665Y759094D01*
X1052623Y759031D01*
X1052085Y758939D01*
X1052029Y758975D01*
X1051713Y759186D01*
X1051276Y759273D01*
X1050839Y759186D01*
X1050468Y758939D01*
X1050221Y758568D01*
X1050134Y758131D01*
X1050221Y757694D01*
X1050468Y757324D01*
X1050839Y757076D01*
X1051276Y756989D01*
X1051713Y757076D01*
X1052083Y757324D01*
X1052125Y757387D01*
X1052663Y757479D01*
X1052719Y757443D01*
X1053035Y757232D01*
X1053472Y757145D01*
X1053909Y757232D01*
X1054280Y757479D01*
X1054527Y757850D01*
X1054614Y758287D01*
X1054527Y758724D01*
X1054280Y759094D01*
X1053909Y759342D01*
X1053472Y759429D01*
D02*
G37*
G36*
X1243376Y761523D02*
X1242939Y761436D01*
X1242568Y761189D01*
X1242321Y760818D01*
X1242234Y760381D01*
X1242321Y759944D01*
X1242568Y759574D01*
X1242916Y759341D01*
X1242939Y759181D01*
Y758981D01*
X1242916Y758821D01*
X1242568Y758589D01*
X1242321Y758218D01*
X1242234Y757781D01*
X1242321Y757344D01*
X1242568Y756974D01*
X1242939Y756726D01*
X1243376Y756639D01*
X1243813Y756726D01*
X1244183Y756974D01*
X1244431Y757344D01*
X1244518Y757781D01*
X1244431Y758218D01*
X1244183Y758589D01*
X1243835Y758821D01*
X1243813Y758981D01*
Y759181D01*
X1243835Y759341D01*
X1244183Y759574D01*
X1244431Y759944D01*
X1244518Y760381D01*
X1244431Y760818D01*
X1244183Y761189D01*
X1243813Y761436D01*
X1243376Y761523D01*
D02*
G37*
G36*
X1265226Y771823D02*
X1264789Y771736D01*
X1264418Y771489D01*
X1264171Y771118D01*
X1264084Y770681D01*
X1264171Y770244D01*
X1264418Y769874D01*
X1264789Y769626D01*
X1265226Y769539D01*
X1265663Y769626D01*
X1266033Y769874D01*
X1266281Y770244D01*
X1266368Y770681D01*
X1266281Y771118D01*
X1266033Y771489D01*
X1265663Y771736D01*
X1265226Y771823D01*
D02*
G37*
G36*
X1055494Y762716D02*
X1054870Y762592D01*
X1054510Y762352D01*
X1049976D01*
X1049566Y762270D01*
X1049219Y762038D01*
X1049219Y762038D01*
X1043716Y756535D01*
X1043484Y756188D01*
X1043402Y755778D01*
Y738084D01*
X1043484Y737674D01*
X1043716Y737327D01*
X1061802Y719240D01*
Y712415D01*
X1060765Y708346D01*
X1060758Y708212D01*
X1060732Y708081D01*
Y705416D01*
X1060813Y705006D01*
X1061045Y704659D01*
X1063480Y702224D01*
X1063828Y701992D01*
X1064237Y701910D01*
X1064237Y701910D01*
X1170795D01*
X1171204Y701992D01*
X1171552Y702224D01*
X1173647Y704320D01*
X1173648Y704320D01*
X1173880Y704667D01*
X1173961Y705077D01*
X1173961Y705077D01*
Y707149D01*
X1174461Y707248D01*
X1174717Y706631D01*
X1175241Y705947D01*
X1175925Y705422D01*
X1176721Y705093D01*
X1177576Y704980D01*
X1178430Y705093D01*
X1179226Y705422D01*
X1179910Y705947D01*
X1180434Y706631D01*
X1180764Y707427D01*
X1180877Y708281D01*
X1180764Y709135D01*
X1180434Y709932D01*
X1179910Y710615D01*
X1179357Y711039D01*
X1179299Y711569D01*
X1179337Y711635D01*
X1179682Y712151D01*
X1179806Y712775D01*
X1179682Y713399D01*
X1179328Y713928D01*
X1178799Y714282D01*
X1178175Y714406D01*
X1177550Y714282D01*
X1177021Y713928D01*
X1176966Y713845D01*
X1176070D01*
X1176069Y713845D01*
X1175660Y713764D01*
X1175312Y713532D01*
X1172134Y710353D01*
X1171902Y710006D01*
X1171820Y709596D01*
Y705520D01*
X1170351Y704052D01*
X1064681D01*
X1062873Y705859D01*
Y707947D01*
X1063910Y712017D01*
X1063917Y712150D01*
X1063943Y712281D01*
Y719684D01*
X1063943Y719684D01*
X1063862Y720093D01*
X1063630Y720441D01*
X1063630Y720441D01*
X1045543Y738527D01*
Y755335D01*
X1050419Y760211D01*
X1054154D01*
X1054341Y759931D01*
X1054870Y759578D01*
X1055494Y759454D01*
X1056119Y759578D01*
X1056648Y759931D01*
X1057002Y760461D01*
X1057126Y761085D01*
X1057002Y761709D01*
X1056648Y762239D01*
X1056119Y762592D01*
X1055494Y762716D01*
D02*
G37*
%LPD*%
G36*
X1266339Y809719D02*
X1266815Y809006D01*
X1267527Y808530D01*
X1268699Y807358D01*
X1268650Y806861D01*
X1268627Y806845D01*
X1268380Y806475D01*
X1268293Y806038D01*
X1268380Y805601D01*
X1268627Y805230D01*
X1268998Y804983D01*
X1269435Y804896D01*
X1269872Y804983D01*
X1270242Y805230D01*
X1270257Y805253D01*
X1270755Y805302D01*
X1272228Y803830D01*
X1272168Y803189D01*
X1271921Y802818D01*
X1271834Y802381D01*
X1271921Y801944D01*
X1272168Y801574D01*
X1272539Y801326D01*
X1272976Y801239D01*
X1273413Y801326D01*
X1273783Y801574D01*
X1274424Y801633D01*
X1280700Y795357D01*
Y788967D01*
X1280200Y788598D01*
X1280076Y788623D01*
X1279639Y788536D01*
X1279268Y788289D01*
X1279021Y787918D01*
X1278934Y787481D01*
X1279021Y787044D01*
X1279268Y786674D01*
X1279639Y786426D01*
X1280076Y786339D01*
X1280200Y786364D01*
X1280700Y785996D01*
Y784728D01*
X1280200Y784318D01*
X1280176Y784323D01*
X1279739Y784236D01*
X1279368Y783989D01*
X1279121Y783618D01*
X1279034Y783181D01*
X1279121Y782744D01*
X1279368Y782374D01*
X1279739Y782126D01*
X1280176Y782039D01*
X1280200Y782044D01*
X1280700Y781634D01*
Y780229D01*
X1280200Y779818D01*
X1280176Y779823D01*
X1279739Y779736D01*
X1279368Y779489D01*
X1279121Y779118D01*
X1279034Y778681D01*
X1279121Y778244D01*
X1279368Y777874D01*
X1279739Y777626D01*
X1280176Y777539D01*
X1280200Y777544D01*
X1280700Y777134D01*
X1280700Y764046D01*
X1280200Y763811D01*
X1280013Y763936D01*
X1279576Y764023D01*
X1279139Y763936D01*
X1278768Y763689D01*
X1278521Y763318D01*
X1278434Y762881D01*
X1278521Y762444D01*
X1278768Y762074D01*
X1279139Y761826D01*
X1279576Y761739D01*
X1280013Y761826D01*
X1280200Y761951D01*
X1280700Y761716D01*
X1280700Y755345D01*
X1280200Y755078D01*
X1280113Y755136D01*
X1279676Y755223D01*
X1279239Y755136D01*
X1278868Y754889D01*
X1278621Y754518D01*
X1278534Y754081D01*
X1278621Y753644D01*
X1278868Y753274D01*
X1279239Y753026D01*
X1279676Y752939D01*
X1280113Y753026D01*
X1280200Y753085D01*
X1280700Y752817D01*
Y751329D01*
X1280200Y750918D01*
X1280176Y750923D01*
X1279739Y750836D01*
X1279368Y750589D01*
X1279121Y750218D01*
X1279034Y749781D01*
X1279121Y749344D01*
X1279368Y748974D01*
X1279739Y748726D01*
X1280176Y748639D01*
X1280200Y748644D01*
X1280700Y748234D01*
X1280700Y741328D01*
X1280200Y740918D01*
X1280176Y740923D01*
X1279739Y740836D01*
X1279368Y740589D01*
X1279121Y740218D01*
X1279034Y739781D01*
X1279121Y739344D01*
X1279368Y738974D01*
X1279739Y738726D01*
X1280176Y738639D01*
X1280200Y738644D01*
X1280700Y738234D01*
Y736329D01*
X1280200Y735918D01*
X1280176Y735923D01*
X1279739Y735836D01*
X1279368Y735589D01*
X1279121Y735218D01*
X1279034Y734781D01*
X1279121Y734344D01*
X1279368Y733974D01*
X1279387Y733961D01*
X1279436Y733463D01*
X1277944Y731972D01*
X1273730Y727758D01*
X1273613Y727836D01*
X1273176Y727923D01*
X1272739Y727836D01*
X1272368Y727589D01*
X1272121Y727218D01*
X1272034Y726781D01*
X1272121Y726344D01*
X1272199Y726227D01*
X1268149Y722176D01*
X1267955Y722192D01*
X1267572Y722306D01*
X1267383Y722589D01*
X1267013Y722836D01*
X1266576Y722923D01*
X1266139Y722836D01*
X1265768Y722589D01*
X1265521Y722218D01*
X1265434Y721781D01*
X1265521Y721344D01*
X1265768Y720974D01*
X1266050Y720785D01*
X1266165Y720401D01*
X1266180Y720208D01*
X1264876Y718903D01*
Y716600D01*
X1264543Y715214D01*
X1264391Y713281D01*
X1264543Y711348D01*
X1264584Y711177D01*
X1264164Y710786D01*
X1263976Y710823D01*
X1263539Y710736D01*
X1263168Y710489D01*
X1262921Y710118D01*
X1262834Y709681D01*
X1262921Y709244D01*
X1263168Y708874D01*
X1263539Y708626D01*
X1263702Y708594D01*
X1263866Y708051D01*
X1260228Y704413D01*
X1246054D01*
Y709924D01*
X1246448Y710318D01*
X1247629D01*
X1248023Y710712D01*
X1254716D01*
X1259012Y715008D01*
X1260848D01*
Y721554D01*
X1260621D01*
Y723980D01*
X1266203Y729561D01*
X1266700Y729512D01*
X1266815Y729341D01*
X1267552Y728848D01*
X1268422Y728675D01*
X1269292Y728848D01*
X1270029Y729341D01*
X1270522Y730079D01*
X1270695Y730948D01*
X1270522Y731818D01*
X1270029Y732556D01*
X1269858Y732670D01*
X1269809Y733168D01*
X1271549Y734908D01*
X1271799Y734842D01*
X1272050Y734701D01*
X1272121Y734344D01*
X1272368Y733974D01*
X1272739Y733726D01*
X1273176Y733639D01*
X1273613Y733726D01*
X1273983Y733974D01*
X1274231Y734344D01*
X1274317Y734781D01*
X1274231Y735218D01*
X1273983Y735589D01*
X1273613Y735836D01*
X1273256Y735907D01*
X1273114Y736157D01*
X1273049Y736408D01*
X1274089Y737448D01*
Y739133D01*
X1274231Y739344D01*
X1274317Y739781D01*
X1274231Y740218D01*
X1274089Y740429D01*
Y749133D01*
X1274231Y749344D01*
X1274317Y749781D01*
X1274231Y750218D01*
X1274089Y750429D01*
Y753761D01*
X1274173Y754181D01*
X1274089Y754601D01*
Y758389D01*
X1274117Y758531D01*
X1274089Y758673D01*
Y778649D01*
X1274123Y778820D01*
X1274089Y778991D01*
Y791239D01*
X1274117Y791381D01*
X1274089Y791523D01*
Y792126D01*
X1271264Y794951D01*
X1271231Y795118D01*
X1270983Y795489D01*
X1270613Y795736D01*
X1270446Y795769D01*
X1258653Y807562D01*
X1195661D01*
Y811499D01*
X1246233Y811499D01*
X1246824Y811046D01*
X1247524Y810756D01*
X1248276Y810657D01*
X1249027Y810756D01*
X1249728Y811046D01*
X1250318Y811499D01*
X1264558Y811499D01*
X1266339Y809719D01*
D02*
G37*
G36*
X1164207Y769531D02*
X1164214Y767985D01*
X1163862Y767631D01*
X1158422Y767631D01*
X1156257Y765466D01*
Y761681D01*
X1155968Y761489D01*
X1155721Y761118D01*
X1155634Y760681D01*
X1155721Y760244D01*
X1155968Y759874D01*
X1156257Y759681D01*
Y756951D01*
X1155998Y756779D01*
X1155751Y756408D01*
X1155664Y755971D01*
X1155751Y755534D01*
X1155998Y755164D01*
X1156257Y754991D01*
Y753258D01*
X1156087Y753144D01*
X1155839Y752774D01*
X1155752Y752337D01*
X1155839Y751900D01*
X1156087Y751529D01*
X1156257Y751416D01*
Y749628D01*
X1156138Y749549D01*
X1155891Y749178D01*
X1155804Y748741D01*
X1155891Y748304D01*
X1156138Y747934D01*
X1155959Y747452D01*
X1155469Y746962D01*
X1153750D01*
X1147328Y740540D01*
Y738981D01*
X1145476D01*
X1144187Y740269D01*
X1130480Y740269D01*
X1130467Y734181D01*
X1128829D01*
X1128476Y734535D01*
X1128476Y740781D01*
X1120922D01*
X1120783Y740989D01*
X1120413Y741236D01*
X1119976Y741323D01*
X1119539Y741236D01*
X1119168Y740989D01*
X1119030Y740781D01*
X1105476D01*
Y734381D01*
X1103929Y734381D01*
X1103576Y734735D01*
Y738881D01*
Y742981D01*
X1106276Y745681D01*
X1118376D01*
X1118876Y745181D01*
X1133576Y745180D01*
Y746381D01*
X1135176D01*
Y745177D01*
X1142276Y745181D01*
X1143847Y746771D01*
X1145360D01*
X1145829Y746693D01*
X1145879Y746574D01*
X1145929Y746450D01*
X1145930Y746450D01*
X1145931Y746448D01*
X1146052Y746398D01*
X1146052Y746398D01*
X1146173Y746347D01*
X1146173Y746347D01*
X1146185Y746347D01*
X1149596Y746326D01*
X1149597Y746326D01*
X1149598Y746326D01*
X1149720Y746376D01*
X1149841Y746426D01*
X1149842Y746427D01*
X1149843Y746427D01*
X1153647Y750232D01*
X1153749Y750477D01*
X1153749Y765964D01*
X1155557Y767772D01*
X1155658Y768017D01*
X1155658Y769031D01*
X1155983Y769465D01*
X1156074Y769531D01*
X1164207Y769531D01*
D02*
G37*
G36*
X1137315Y800065D02*
X1137501Y799718D01*
X1137434Y799381D01*
X1137491Y799092D01*
X1130478Y792079D01*
X1130313Y791681D01*
Y778252D01*
X1130068Y778089D01*
X1129821Y777718D01*
X1129734Y777281D01*
X1129821Y776844D01*
X1130068Y776474D01*
X1130439Y776226D01*
X1130876Y776139D01*
X1131313Y776226D01*
X1131683Y776474D01*
X1131931Y776844D01*
X1132018Y777281D01*
X1131931Y777718D01*
X1131683Y778089D01*
X1131438Y778252D01*
Y791448D01*
X1136851Y796860D01*
X1136919Y796844D01*
X1137313Y796615D01*
Y775260D01*
X1137478Y774862D01*
X1139893Y772447D01*
Y764562D01*
X1137986D01*
X1137381Y765168D01*
X1137401Y765295D01*
X1137452Y765361D01*
X1137964Y765640D01*
X1138146Y765604D01*
X1138583Y765691D01*
X1138954Y765938D01*
X1139202Y766309D01*
X1139288Y766746D01*
X1139202Y767183D01*
X1138954Y767553D01*
X1138583Y767801D01*
X1138146Y767888D01*
X1137858Y767830D01*
X1132906Y772782D01*
X1132508Y772947D01*
X1131306D01*
X1127591Y776661D01*
Y788815D01*
X1127836Y788978D01*
X1128083Y789349D01*
X1128170Y789786D01*
X1128083Y790223D01*
X1127836Y790593D01*
X1127643Y790722D01*
X1127614Y791223D01*
X1136609Y800218D01*
X1137187D01*
X1137315Y800065D01*
D02*
G37*
G36*
X1236076Y794481D02*
Y785692D01*
X1236034Y785481D01*
X1236076Y785270D01*
X1236076Y772730D01*
X1236036Y772722D01*
X1235666Y772474D01*
X1235418Y772104D01*
X1235331Y771667D01*
X1235418Y771230D01*
X1235666Y770859D01*
X1236036Y770612D01*
X1236076Y770604D01*
Y768793D01*
X1236036Y768785D01*
X1235666Y768537D01*
X1235418Y768167D01*
X1235331Y767730D01*
X1235418Y767293D01*
X1235666Y766922D01*
X1236036Y766675D01*
X1236076Y766667D01*
Y764856D01*
X1236036Y764848D01*
X1235666Y764600D01*
X1235418Y764230D01*
X1235331Y763793D01*
X1235418Y763356D01*
X1235666Y762985D01*
X1236036Y762738D01*
X1236076Y762730D01*
Y761663D01*
X1236039Y761656D01*
X1235668Y761409D01*
X1235421Y761038D01*
X1235334Y760601D01*
X1235421Y760164D01*
X1235668Y759794D01*
X1236039Y759546D01*
X1236076Y759539D01*
Y753881D01*
X1237593Y752363D01*
X1237584Y752272D01*
X1237403Y752001D01*
X1237339Y751681D01*
X1237403Y751361D01*
X1237584Y751090D01*
X1237856Y750909D01*
X1238176Y750845D01*
X1238496Y750909D01*
X1238767Y751090D01*
X1238894Y751281D01*
X1244615Y751281D01*
X1246259Y749637D01*
X1246259Y749016D01*
X1245905Y748663D01*
X1234981Y748694D01*
X1232473Y751112D01*
X1232174Y791333D01*
X1232194Y794481D01*
X1236076Y794481D01*
D02*
G37*
G36*
X1155312Y769228D02*
X1155312Y768017D01*
X1153402Y766108D01*
X1153402Y750477D01*
X1149598Y746672D01*
X1146175Y746693D01*
X1146176Y748231D01*
X1147631Y749686D01*
X1147984Y750040D01*
X1148256Y749859D01*
X1148576Y749795D01*
X1148895Y749859D01*
X1149167Y750040D01*
X1149348Y750311D01*
X1149412Y750631D01*
X1149348Y750951D01*
X1149167Y751222D01*
X1149500Y751555D01*
X1149957Y752013D01*
X1149957Y754925D01*
X1150095Y755062D01*
X1150254Y755300D01*
X1150263Y755347D01*
X1150310Y755581D01*
Y765804D01*
X1150348Y765861D01*
X1150412Y766181D01*
X1150348Y766501D01*
X1150167Y766772D01*
X1150149Y766954D01*
X1152775Y769581D01*
X1154958Y769581D01*
X1155312Y769228D01*
D02*
G37*
%LPC*%
G36*
X1270276Y799923D02*
X1269839Y799836D01*
X1269468Y799589D01*
X1269221Y799218D01*
X1269134Y798781D01*
X1269221Y798344D01*
X1269468Y797974D01*
X1269839Y797726D01*
X1270276Y797639D01*
X1270713Y797726D01*
X1271083Y797974D01*
X1271331Y798344D01*
X1271418Y798781D01*
X1271331Y799218D01*
X1271083Y799589D01*
X1270713Y799836D01*
X1270276Y799923D01*
D02*
G37*
G36*
X1267376Y804823D02*
X1266939Y804736D01*
X1266568Y804489D01*
X1266321Y804118D01*
X1266234Y803681D01*
X1266321Y803244D01*
X1266568Y802874D01*
X1266939Y802626D01*
X1267376Y802539D01*
X1267813Y802626D01*
X1268183Y802874D01*
X1268431Y803244D01*
X1268517Y803681D01*
X1268431Y804118D01*
X1268183Y804489D01*
X1267813Y804736D01*
X1267376Y804823D01*
D02*
G37*
G36*
X1112996Y744613D02*
X1112559Y744526D01*
X1112188Y744279D01*
X1111941Y743908D01*
X1111854Y743471D01*
X1111941Y743034D01*
X1112188Y742664D01*
X1112559Y742416D01*
X1112996Y742329D01*
X1113433Y742416D01*
X1113803Y742664D01*
X1114051Y743034D01*
X1114137Y743471D01*
X1114051Y743908D01*
X1113803Y744279D01*
X1113433Y744526D01*
X1112996Y744613D01*
D02*
G37*
%LPD*%
D10*
X1144139Y755079D02*
X1144737Y754481D01*
X1148476D01*
X1149576Y755581D01*
Y766181D01*
D46*
X1086135Y810751D02*
X1087425Y809461D01*
X1140096D02*
X1141276Y808281D01*
X1087425Y809461D02*
X1140096D01*
X1141184Y810381D02*
X1143137Y808428D01*
X1087806Y810381D02*
X1141184D01*
X1086516Y811671D02*
X1087806Y810381D01*
X1084912Y811671D02*
X1086516D01*
X1084106Y810751D02*
X1086135D01*
X1083902Y812681D02*
X1084912Y811671D01*
X1083156Y811701D02*
X1084106Y810751D01*
X1073396Y811701D02*
X1083156D01*
X1072776Y812681D02*
X1083902D01*
X1070876Y809181D02*
X1073396Y811701D01*
X1069376Y809281D02*
X1072776Y812681D01*
X1141276Y807981D02*
Y808281D01*
X1143137Y807021D02*
Y808428D01*
X1250576Y735789D02*
Y737781D01*
X1249656Y734869D02*
X1250576Y735789D01*
X1256176Y728881D02*
X1257376Y730081D01*
X1249656Y730695D02*
Y734869D01*
Y730695D02*
X1251470Y728881D01*
X1256176D01*
X1069376Y799981D02*
Y809281D01*
X1070876Y797081D02*
Y809181D01*
X1068576Y799181D02*
X1069376Y799981D01*
Y795581D02*
X1070876Y797081D01*
D47*
X1221503Y750981D02*
Y763654D01*
X1219576Y765581D02*
X1221503Y763654D01*
X1211006Y765581D02*
X1219576D01*
X1210283Y766305D02*
X1211006Y765581D01*
D48*
X1218676Y770081D02*
Y772781D01*
X1217076Y768481D02*
X1218676Y770081D01*
X1208055Y768481D02*
X1217076D01*
X1203776Y764201D02*
X1208055Y768481D01*
X1203776Y763081D02*
Y764201D01*
D50*
X1085795Y809931D02*
X1087085Y808641D01*
X1137216D02*
X1138276Y807581D01*
X1087085Y808641D02*
X1137216D01*
X1172926Y766181D02*
X1173526Y766781D01*
X1172330Y766181D02*
X1172926D01*
X1168207Y762058D02*
X1172330Y766181D01*
X1168207Y743729D02*
Y762058D01*
X1172603Y765181D02*
X1173883D01*
X1169107Y744250D02*
Y761685D01*
X1172603Y765181D01*
X1172976Y764281D02*
X1174256D01*
X1170007Y761312D02*
X1172976Y764281D01*
X1170007Y744690D02*
Y761312D01*
X1173883Y765181D02*
X1174946Y766244D01*
X1174256Y764281D02*
X1176261Y766286D01*
X1174946Y766244D02*
Y766831D01*
X1176261Y766286D02*
Y770759D01*
X1221776Y779281D02*
Y781481D01*
Y779281D02*
X1225376Y775681D01*
Y757281D02*
Y775681D01*
X1122276Y754681D02*
X1140679D01*
X1120027Y752433D02*
X1122276Y754681D01*
X1103324Y752433D02*
X1120027D01*
X1102576Y753181D02*
X1103324Y752433D01*
X1093881Y753181D02*
X1102576D01*
X1172797Y769701D02*
Y770664D01*
X1176214Y774081D01*
X1177998D01*
X1180376Y771704D01*
X1168356Y769265D02*
X1179372Y780281D01*
X1167614Y769542D02*
X1179203Y781131D01*
X1166835Y769781D02*
X1178905Y781851D01*
X1168356Y766561D02*
Y769265D01*
X1167614Y767020D02*
Y769542D01*
X1166835Y767541D02*
Y769781D01*
X1176239Y770781D02*
X1176261Y770759D01*
X1178905Y781851D02*
X1185462D01*
X1179203Y781131D02*
X1185760D01*
X1179372Y780281D02*
X1185928D01*
X1194987Y789340D01*
X1185760Y781131D02*
X1194730Y790101D01*
X1185462Y781851D02*
X1194432Y790821D01*
X1179776Y799281D02*
X1190876D01*
X1178996Y800061D02*
X1179776Y799281D01*
X1180176Y800081D02*
X1191264D01*
X1179476Y800781D02*
X1180176Y800081D01*
X1141189Y800061D02*
X1178996D01*
X1190876Y799281D02*
X1192310Y797847D01*
X1136376Y800781D02*
X1179476D01*
X1191264Y800081D02*
X1192572Y798773D01*
X1176926Y791957D02*
X1178720Y790163D01*
X1176926Y791957D02*
Y797031D01*
X1175526Y798431D02*
X1176926Y797031D01*
X1173876Y798431D02*
X1175526D01*
X1172833Y797389D02*
X1173876Y798431D01*
X1171104Y797389D02*
X1172833D01*
X1082826Y809931D02*
X1085795D01*
X1144776Y786081D02*
X1148426Y782431D01*
Y773281D02*
Y782431D01*
X1143376Y773631D02*
X1146426Y776681D01*
X1143376Y765181D02*
Y773631D01*
X1137876Y796748D02*
X1141189Y800061D01*
X1137876Y775260D02*
Y796748D01*
Y775260D02*
X1140456Y772680D01*
X1148576Y788449D02*
X1150746Y786279D01*
X1148576Y788449D02*
Y791431D01*
X1144776Y786081D02*
Y797381D01*
X1150746Y771809D02*
Y786279D01*
X1145922Y766985D02*
X1150746Y771809D01*
X1145922Y763527D02*
Y766985D01*
X1192572Y798773D02*
X1196673D01*
X1199081Y801181D01*
X1192310Y797847D02*
X1197189D01*
X1199688Y800345D01*
X1157076Y739984D02*
X1157261Y739799D01*
X1156176Y740682D02*
Y743072D01*
X1155292Y739799D02*
X1156176Y740682D01*
X1193226Y722631D02*
X1197576Y718281D01*
X1193226Y722631D02*
Y725481D01*
X1187926Y730781D02*
X1193226Y725481D01*
X1180976Y730781D02*
X1187926D01*
X1222426Y726831D02*
X1227092Y722165D01*
X1213126Y726831D02*
X1222426D01*
X1210676Y729281D02*
X1213126Y726831D01*
X1210676Y729281D02*
Y735131D01*
X1206526Y739281D02*
X1210676Y735131D01*
X1194176Y738381D02*
X1205976D01*
X1190076Y742481D02*
X1194176Y738381D01*
X1170876Y742481D02*
X1190076D01*
X1194876Y739281D02*
X1206526D01*
X1190576Y743581D02*
X1194876Y739281D01*
X1171116Y743581D02*
X1190576D01*
X1209576Y728681D02*
Y734781D01*
X1205976Y738381D02*
X1209576Y734781D01*
X1208576Y728281D02*
Y734366D01*
X1205560Y737381D02*
X1208576Y734366D01*
X1193876Y737381D02*
X1205560D01*
X1146776Y797881D02*
X1157276Y787381D01*
X1142336Y799341D02*
X1147482D01*
X1219876Y733381D02*
Y740718D01*
X1160799Y765441D02*
X1164736D01*
X1086018Y757181D02*
X1102776D01*
X1105096Y754861D01*
X1084618Y758581D02*
X1086018Y757181D01*
X1082676Y758581D02*
X1084618D01*
X1147482Y799341D02*
X1162207Y784616D01*
Y775581D02*
Y784616D01*
X1157276Y777681D02*
Y787381D01*
X1131976Y749581D02*
X1133700Y751306D01*
X1131976Y748581D02*
Y749581D01*
X1130976Y747581D02*
X1131976Y748581D01*
X1085876Y742550D02*
Y745176D01*
X1221302Y716506D02*
X1225688Y712120D01*
X1241414D01*
X1226060Y713020D02*
X1231763D01*
X1222202Y716879D02*
X1226060Y713020D01*
X1241414Y712120D02*
X1247576Y718281D01*
X1231763Y713020D02*
X1237024Y718281D01*
X1191922Y708281D02*
X1196745Y703458D01*
X1238048D01*
X1242827Y708237D01*
Y710159D01*
X1246264Y713596D02*
X1249662D01*
X1242827Y710159D02*
X1246264Y713596D01*
X1174946Y766831D02*
X1175061Y766945D01*
X1237024Y718281D02*
X1237576D01*
X1187576Y708281D02*
X1191922D01*
X1148576Y750631D02*
X1148591Y750646D01*
X1221302Y716506D02*
Y721640D01*
X1222202Y716879D02*
Y722155D01*
X1133700Y751306D02*
X1144831D01*
X1222037Y746539D02*
X1226996Y751497D01*
Y753128D01*
X1226976Y753148D02*
X1226996Y753128D01*
X1226976Y753148D02*
Y755681D01*
X1225376Y757281D02*
X1226976Y755681D01*
X1214165Y746539D02*
X1222037D01*
X1140545Y763999D02*
X1141988Y762557D01*
X1140476Y763999D02*
X1140545D01*
X1127028Y789786D02*
Y791434D01*
X1085876Y745176D02*
X1093881Y753181D01*
X1158316Y750486D02*
Y762957D01*
X1159036Y750785D02*
Y762659D01*
X1159756Y751083D02*
Y762361D01*
X1158316Y750486D02*
X1158334Y750468D01*
X1159036Y750785D02*
X1159056Y750765D01*
X1159756Y751083D02*
X1159776Y751063D01*
X1158316Y762957D02*
X1160799Y765441D01*
X1157076Y739984D02*
Y742724D01*
X1158376Y742581D02*
X1159776Y743981D01*
X1157076Y742724D02*
X1159056Y744704D01*
X1156176Y743072D02*
X1158334Y745230D01*
X1159776Y743981D02*
Y751063D01*
X1159056Y744704D02*
Y750765D01*
X1158334Y745230D02*
Y750468D01*
X1228176Y757781D02*
Y778981D01*
X1225476Y781681D02*
X1228176Y778981D01*
X1222138Y791549D02*
X1222300D01*
X1194432Y790821D02*
X1221410D01*
X1222138Y791549D01*
X1194730Y790101D02*
X1222056D01*
X1222576Y789581D01*
X1223509Y788481D02*
X1223921Y788893D01*
X1194987Y789340D02*
X1221017D01*
X1221876Y788481D01*
X1223509D01*
X1207676Y798781D02*
Y798881D01*
X1170355Y741581D02*
X1189676D01*
X1193876Y737381D01*
X1168207Y743729D02*
X1170355Y741581D01*
X1227092Y718765D02*
X1227576Y718281D01*
X1227092Y718765D02*
Y722165D01*
X1130776Y771581D02*
X1132076D01*
X1201953Y800761D02*
X1208000D01*
X1209980Y798781D01*
X1212476D01*
X1137753Y763999D02*
X1140476D01*
X1218161Y724781D02*
X1221302Y721640D01*
X1218676Y725681D02*
X1222202Y722155D01*
X1212076Y724781D02*
X1218161D01*
X1208576Y728281D02*
X1212076Y724781D01*
X1209576Y728681D02*
X1212576Y725681D01*
X1218676D01*
X1249662Y713596D02*
X1252713Y716647D01*
X1169107Y744250D02*
X1170876Y742481D01*
X1170007Y744690D02*
X1171116Y743581D01*
X1159756Y762361D02*
X1161087Y763692D01*
X1159036Y762659D02*
X1160857Y764481D01*
X1161087Y763692D02*
X1165487D01*
X1168356Y766561D01*
X1160857Y764481D02*
X1165076D01*
X1167614Y767020D01*
X1164736Y765441D02*
X1166835Y767541D01*
X1148591Y750646D02*
Y752801D01*
X1144831Y751306D02*
X1145276Y750861D01*
Y750781D02*
Y750861D01*
X1118756Y754861D02*
X1121376Y757481D01*
X1130176D01*
X1131176Y758481D01*
X1147076Y757181D02*
Y757481D01*
X1131176Y758481D02*
X1142276D01*
X1143176Y759381D01*
X1145176D01*
X1147076Y757481D01*
X1082664Y765881D02*
X1086476D01*
X1089976Y769381D01*
Y771181D01*
X1081676Y759581D02*
X1082676Y758581D01*
X1081676Y759581D02*
Y764893D01*
X1082664Y765881D01*
X1247576Y738681D02*
X1248956Y740061D01*
X1247576Y727981D02*
Y738681D01*
Y727981D02*
X1252713Y722843D01*
Y716647D02*
Y722843D01*
X1239076Y756581D02*
X1240376Y755281D01*
X1206876Y799681D02*
X1207676Y798881D01*
X1199688Y800345D02*
X1201011D01*
X1201676Y799681D01*
X1206876D01*
X1199081Y801181D02*
X1201533D01*
X1201953Y800761D01*
X1124676Y788981D02*
X1126076Y787581D01*
X1127028Y776428D02*
Y789786D01*
Y776428D02*
X1131073Y772384D01*
X1126076Y776281D02*
X1130776Y771581D01*
X1126076Y776281D02*
Y787581D01*
X1140679Y754681D02*
X1141879Y753481D01*
X1147910D01*
X1148591Y752801D01*
X1219876Y740718D02*
X1229276Y750118D01*
Y756681D01*
X1228176Y757781D02*
X1229276Y756681D01*
X1240376Y755281D02*
X1243576D01*
X1248956Y749901D01*
Y740061D02*
Y749901D01*
X1140456Y764019D02*
X1140476Y763999D01*
X1140456Y764019D02*
Y772680D01*
X1131073Y772384D02*
X1132508D01*
X1138146Y766746D01*
X1144676Y762281D02*
X1145922Y763527D01*
X1136476Y765277D02*
X1137753Y763999D01*
X1136476Y765277D02*
Y767181D01*
X1132076Y771581D02*
X1136476Y767181D01*
X1141526Y798531D02*
X1142336Y799341D01*
X1127028Y791434D02*
X1136376Y800781D01*
X1130876Y777281D02*
Y791681D01*
X1138576Y799381D01*
X1105096Y754861D02*
X1118756D01*
D52*
X1055298Y761281D02*
X1055494Y761085D01*
X1049976Y761281D02*
X1055298D01*
X1061802Y708081D02*
X1062873Y712281D01*
X1061802Y705416D02*
X1064237Y702981D01*
X1170795D01*
X1062873Y712281D02*
Y719684D01*
X1061802Y705416D02*
Y708081D01*
X1044473Y738084D02*
X1062873Y719684D01*
X1172891Y705077D02*
Y709596D01*
X1170795Y702981D02*
X1172891Y705077D01*
Y709596D02*
X1176069Y712775D01*
X1178175D01*
X1044473Y738084D02*
Y755778D01*
X1049976Y761281D01*
X1290528Y813564D02*
G03*
X1286362Y817730I-4166J0D01*
G01*
X1048995D02*
G03*
X1034623Y803358I0J-14372D01*
G01*
X1034623Y712769D02*
G03*
X1047891Y699502I13268J0D01*
G01*
X1276749Y699502D02*
G03*
X1290528Y713281I0J13780D01*
G01*
X1107961Y815466D02*
X1110224Y817730D01*
X1048995D02*
X1082327D01*
X1084591Y815466D01*
X1290528Y767631D02*
Y813564D01*
X1110224Y817730D02*
X1286362D01*
X1290528Y713281D02*
Y718006D01*
X1034623Y796470D02*
Y803358D01*
X1084591Y815466D02*
X1107961D01*
X1290528Y718006D02*
Y767631D01*
X1034623Y712769D02*
X1034623Y796470D01*
X1047891Y699502D02*
X1276749Y699502D01*
D54*
X1070956Y771301D02*
X1072712D01*
X1068276Y754136D02*
X1076385Y746027D01*
X1068276Y768621D02*
X1070956Y771301D01*
X1068276Y754136D02*
Y768621D01*
X1072712Y771301D02*
X1077625Y776214D01*
X1076385Y746027D02*
X1078747D01*
D65*
X1257576Y708281D02*
D03*
X1247576Y718281D02*
D03*
Y708281D02*
D03*
X1237576Y718281D02*
D03*
Y708281D02*
D03*
X1227576Y718281D02*
D03*
X1217576D02*
D03*
X1197576D02*
D03*
Y708281D02*
D03*
X1187576D02*
D03*
X1167576D02*
D03*
X1137576Y718281D02*
D03*
X1117576Y708281D02*
D03*
X1067576Y718281D02*
D03*
X1097576Y708281D02*
D03*
D66*
X1088403Y812331D02*
D03*
X1104348D02*
D03*
D67*
X1268422Y783114D02*
D03*
Y810614D02*
D03*
Y730948D02*
D03*
Y758448D02*
D03*
D68*
X1193776Y780181D02*
D03*
X1178326Y771631D02*
D03*
X1055494Y761085D02*
D03*
X1224076Y792481D02*
D03*
X1156776Y760681D02*
D03*
X1171576Y760781D02*
D03*
X1220676Y769881D02*
D03*
X1064676Y712081D02*
D03*
X1063676Y706881D02*
D03*
X1064976Y704981D02*
D03*
X1070776Y704881D02*
D03*
X1060976Y717281D02*
D03*
X1174576Y768631D02*
D03*
X1171104Y797389D02*
D03*
X1082826Y809931D02*
D03*
X1095976Y813381D02*
D03*
X1100976D02*
D03*
X1091976D02*
D03*
X1085976D02*
D03*
X1138276Y807581D02*
D03*
X1141276Y807981D02*
D03*
X1144139Y755079D02*
D03*
X1146426Y776681D02*
D03*
X1114776Y785381D02*
D03*
X1116726Y787881D02*
D03*
X1128776Y783381D02*
D03*
X1132326D02*
D03*
X1139626Y783481D02*
D03*
X1145376Y783531D02*
D03*
X1143426Y782081D02*
D03*
X1143376Y784481D02*
D03*
X1152176Y778081D02*
D03*
X1153076Y785981D02*
D03*
X1148576Y791431D02*
D03*
X1179576Y753231D02*
D03*
X1166276Y777381D02*
D03*
X1155826Y733731D02*
D03*
X1154576Y732481D02*
D03*
X1163576Y731781D02*
D03*
X1150376Y737481D02*
D03*
X1173526Y712931D02*
D03*
X1180976Y730781D02*
D03*
X1210276Y772210D02*
D03*
X1238976Y785481D02*
D03*
X1237176D02*
D03*
X1230976Y786081D02*
D03*
X1190176Y780231D02*
D03*
X1272976Y758531D02*
D03*
X1272876Y762831D02*
D03*
X1272676Y806281D02*
D03*
X1253926Y792731D02*
D03*
X1243776Y778081D02*
D03*
Y776381D02*
D03*
X1241776D02*
D03*
X1248726Y794781D02*
D03*
X1250576Y747381D02*
D03*
X1250176Y757681D02*
D03*
X1252576Y767831D02*
D03*
X1250176D02*
D03*
X1196176Y770281D02*
D03*
X1201576Y762981D02*
D03*
X1190476Y770581D02*
D03*
X1200676Y743381D02*
D03*
X1205276D02*
D03*
X1054376Y731781D02*
D03*
X1067676Y739481D02*
D03*
X1057576Y740281D02*
D03*
X1055476Y757981D02*
D03*
X1049076Y757481D02*
D03*
X1065276Y759181D02*
D03*
X1068476Y772081D02*
D03*
X1071876Y769081D02*
D03*
X1178720Y790163D02*
D03*
X1163976Y768181D02*
D03*
X1146776Y797881D02*
D03*
X1180376Y771704D02*
D03*
X1152976Y773181D02*
D03*
X1153776Y778981D02*
D03*
X1141376Y798381D02*
D03*
X1144776Y797381D02*
D03*
X1166276Y781581D02*
D03*
X1163876Y790981D02*
D03*
X1190576Y773581D02*
D03*
X1255576Y723481D02*
D03*
X1257676D02*
D03*
Y725881D02*
D03*
Y733281D02*
D03*
Y735781D02*
D03*
Y738181D02*
D03*
X1265976Y738081D02*
D03*
X1268476D02*
D03*
X1251076Y731981D02*
D03*
X1253276D02*
D03*
X1255476D02*
D03*
Y734281D02*
D03*
X1253276Y734381D02*
D03*
X1251076Y734281D02*
D03*
X1219876Y733381D02*
D03*
X1124676Y788981D02*
D03*
X1252576Y770281D02*
D03*
X1254476Y757381D02*
D03*
X1249776Y755681D02*
D03*
X1250326Y749481D02*
D03*
X1250976Y745481D02*
D03*
X1253476Y742981D02*
D03*
X1254976Y749481D02*
D03*
X1254726Y747281D02*
D03*
X1258376Y746781D02*
D03*
X1264176Y747081D02*
D03*
X1082963Y742111D02*
D03*
X1043876Y767281D02*
D03*
X1047976Y768281D02*
D03*
X1050176Y769981D02*
D03*
X1221476Y750981D02*
D03*
X1233476Y750781D02*
D03*
X1129676Y748981D02*
D03*
X1127676Y746381D02*
D03*
X1125876D02*
D03*
X1108576Y736981D02*
D03*
X1111876Y739481D02*
D03*
X1108676D02*
D03*
X1119976Y740181D02*
D03*
X1114276Y734681D02*
D03*
X1111876Y736781D02*
D03*
X1115976Y734681D02*
D03*
X1119876D02*
D03*
X1115976Y738281D02*
D03*
X1203526Y746631D02*
D03*
X1204876Y750481D02*
D03*
X1210276Y748681D02*
D03*
X1207476Y747381D02*
D03*
X1206976Y752581D02*
D03*
X1207476Y750281D02*
D03*
X1210376Y751581D02*
D03*
Y753881D02*
D03*
X1212576Y750481D02*
D03*
X1215676D02*
D03*
Y752781D02*
D03*
X1217576D02*
D03*
X1208676Y754181D02*
D03*
X1227176Y724481D02*
D03*
X1228676Y722381D02*
D03*
X1243376Y719981D02*
D03*
X1243476Y716681D02*
D03*
X1240676Y713981D02*
D03*
X1236176Y713881D02*
D03*
X1232676Y709981D02*
D03*
Y705181D02*
D03*
X1181476Y724281D02*
D03*
X1180376Y734981D02*
D03*
X1180876Y732831D02*
D03*
X1179676Y729181D02*
D03*
X1177626D02*
D03*
X1183276Y732681D02*
D03*
X1177626Y732281D02*
D03*
X1183076Y729281D02*
D03*
X1219876Y714681D02*
D03*
X1221976Y724581D02*
D03*
X1218776Y722181D02*
D03*
X1200576Y794481D02*
D03*
X1141776Y701181D02*
D03*
X1147776D02*
D03*
X1158976D02*
D03*
X1164776D02*
D03*
X1287276Y758281D02*
D03*
X1287476Y783181D02*
D03*
X1172797Y769701D02*
D03*
X1214276Y738681D02*
D03*
X1214165Y746539D02*
D03*
X1215776Y748081D02*
D03*
X1187787Y752444D02*
D03*
X1200523Y798817D02*
D03*
X1196305Y808342D02*
D03*
X1198023Y808350D02*
D03*
X1189976Y815381D02*
D03*
X1194976D02*
D03*
X1199976D02*
D03*
X1206976D02*
D03*
X1212976D02*
D03*
X1189202Y807577D02*
D03*
X1269435Y806038D02*
D03*
X1273176Y749781D02*
D03*
X1272913Y787363D02*
D03*
X1272981Y778820D02*
D03*
X1263976Y709681D02*
D03*
X1201566Y767011D02*
D03*
X1064776Y714681D02*
D03*
X1083115Y764465D02*
D03*
X1083146Y760651D02*
D03*
X1083177Y768279D02*
D03*
X1083121Y756501D02*
D03*
X1108342Y795654D02*
D03*
X1111468Y795562D02*
D03*
X1127776Y765981D02*
D03*
X1131858Y767443D02*
D03*
X1179793Y714690D02*
D03*
X1120776Y704881D02*
D03*
X1160476Y705181D02*
D03*
X1094476Y704981D02*
D03*
X1073476D02*
D03*
X1114876D02*
D03*
X1142776Y704881D02*
D03*
X1152676Y707081D02*
D03*
X1090976Y704981D02*
D03*
X1132476D02*
D03*
X1083176D02*
D03*
X1182976Y712581D02*
D03*
X1041676Y757281D02*
D03*
X1043376D02*
D03*
X1249276Y770081D02*
D03*
X1255076Y769581D02*
D03*
X1188426Y780181D02*
D03*
X1195676D02*
D03*
X1197576D02*
D03*
X1073438Y716144D02*
D03*
X1064076Y724981D02*
D03*
X1057576Y742281D02*
D03*
X1095875Y797311D02*
D03*
X1091134Y788895D02*
D03*
X1077576Y794181D02*
D03*
X1085776Y794481D02*
D03*
X1091134Y793955D02*
D03*
X1160876Y720831D02*
D03*
X1167262Y808473D02*
D03*
X1184706Y806296D02*
D03*
X1264376Y794781D02*
D03*
X1270176Y794681D02*
D03*
X1257776Y742581D02*
D03*
X1266976Y741781D02*
D03*
X1270076Y743081D02*
D03*
X1273176Y739781D02*
D03*
X1280176D02*
D03*
X1288976Y739381D02*
D03*
X1267176Y751781D02*
D03*
X1264051Y749693D02*
D03*
X1270095Y749765D02*
D03*
X1280176Y749781D02*
D03*
X1245644Y749227D02*
D03*
X1100976Y701181D02*
D03*
X1094776D02*
D03*
X1080976D02*
D03*
X1152776Y704881D02*
D03*
X1152676Y709381D02*
D03*
X1142783Y707346D02*
D03*
X1142776Y710281D02*
D03*
X1120549Y714742D02*
D03*
X1112629Y716222D02*
D03*
X1102522Y716079D02*
D03*
X1082561Y706602D02*
D03*
X1082657Y710292D02*
D03*
X1072515Y706709D02*
D03*
X1072604Y710000D02*
D03*
X1084476Y715381D02*
D03*
X1099176Y725481D02*
D03*
X1081192Y736301D02*
D03*
X1083473Y734716D02*
D03*
X1078993Y737809D02*
D03*
X1123676Y746401D02*
D03*
X1183276Y734981D02*
D03*
X1176729Y722946D02*
D03*
X1207976Y701381D02*
D03*
X1214976D02*
D03*
X1221976D02*
D03*
X1232976D02*
D03*
X1237976D02*
D03*
X1200976D02*
D03*
X1241477Y709895D02*
D03*
X1240823Y704324D02*
D03*
X1155908Y724570D02*
D03*
X1112851Y710250D02*
D03*
X1122694D02*
D03*
X1180579Y711174D02*
D03*
X1170627Y705624D02*
D03*
X1176976Y701381D02*
D03*
X1201926Y707592D02*
D03*
X1172426Y728781D02*
D03*
X1183225Y708084D02*
D03*
X1036976Y746381D02*
D03*
Y737381D02*
D03*
Y752381D02*
D03*
Y741381D02*
D03*
X1041676Y747581D02*
D03*
Y749481D02*
D03*
X1055376Y766081D02*
D03*
X1053149Y778383D02*
D03*
X1047662Y778310D02*
D03*
X1042065Y778236D02*
D03*
X1050676Y747581D02*
D03*
Y749581D02*
D03*
X1036976Y762381D02*
D03*
Y767381D02*
D03*
Y760381D02*
D03*
X1050723Y729067D02*
D03*
X1036976Y739381D02*
D03*
X1056161Y729239D02*
D03*
X1060839Y724745D02*
D03*
X1064165Y721342D02*
D03*
X1175426Y714231D02*
D03*
X1078747Y746027D02*
D03*
X1083324Y738005D02*
D03*
X1080335Y740144D02*
D03*
X1231166Y751886D02*
D03*
X1064976Y739081D02*
D03*
X1047508Y771699D02*
D03*
Y774855D02*
D03*
X1052107Y771834D02*
D03*
X1052242Y774900D02*
D03*
X1041872Y771924D02*
D03*
X1041788Y774915D02*
D03*
X1126976Y815381D02*
D03*
X1133976D02*
D03*
X1120976D02*
D03*
X1129576Y760881D02*
D03*
X1264823Y782990D02*
D03*
X1255626Y792731D02*
D03*
X1261885Y791795D02*
D03*
X1287395Y806333D02*
D03*
X1287401Y779094D02*
D03*
X1287606Y787294D02*
D03*
X1273031Y754181D02*
D03*
X1287401Y754275D02*
D03*
X1287307Y762684D02*
D03*
X1248726Y792781D02*
D03*
X1057160Y753917D02*
D03*
X1057947Y747113D02*
D03*
X1058028Y749817D02*
D03*
X1060686Y770584D02*
D03*
X1057696Y773969D02*
D03*
X1127028Y789786D02*
D03*
X1138146Y766746D02*
D03*
X1103698Y782494D02*
D03*
X1175226Y721831D02*
D03*
X1087976Y701181D02*
D03*
X1073976D02*
D03*
X1059976Y701381D02*
D03*
X1150276Y704881D02*
D03*
X1123976Y701181D02*
D03*
X1112976D02*
D03*
X1106976D02*
D03*
X1154976Y704881D02*
D03*
X1071513Y718124D02*
D03*
Y714187D02*
D03*
Y722061D02*
D03*
X1097576Y712981D02*
D03*
X1171226Y710731D02*
D03*
X1077625Y776214D02*
D03*
X1232733Y707592D02*
D03*
X1177639Y734856D02*
D03*
X1232401Y724337D02*
D03*
X1235128Y724282D02*
D03*
X1225676Y752581D02*
D03*
X1171547Y748484D02*
D03*
X1156894Y752337D02*
D03*
X1223350Y767730D02*
D03*
Y771667D02*
D03*
X1234257Y743904D02*
D03*
X1077437Y760651D02*
D03*
X1077406Y764465D02*
D03*
X1077468Y768279D02*
D03*
X1236473Y771667D02*
D03*
X1229912D02*
D03*
X1216788D02*
D03*
X1236473Y767730D02*
D03*
X1229912D02*
D03*
X1236473Y763793D02*
D03*
X1229912D02*
D03*
X1171507Y752337D02*
D03*
X1166636D02*
D03*
X1213245Y716155D02*
D03*
Y720092D02*
D03*
X1201434Y710250D02*
D03*
X1191493Y706313D02*
D03*
X1193560Y710250D02*
D03*
X1164032Y712218D02*
D03*
X1124676Y705081D02*
D03*
X1110876Y704981D02*
D03*
X1102476Y712681D02*
D03*
X1093166Y708281D02*
D03*
Y712218D02*
D03*
X1067576Y714187D02*
D03*
X1036976Y796381D02*
D03*
X1046976Y790381D02*
D03*
X1052976Y791381D02*
D03*
X1060976Y798381D02*
D03*
X1059702Y810643D02*
D03*
X1147976Y815381D02*
D03*
X1154976D02*
D03*
X1161976D02*
D03*
X1169976D02*
D03*
X1176976D02*
D03*
X1183976D02*
D03*
X1255976D02*
D03*
X1265976D02*
D03*
X1288976Y802381D02*
D03*
Y791381D02*
D03*
Y776381D02*
D03*
Y770381D02*
D03*
X1288676Y749781D02*
D03*
X1288976Y737381D02*
D03*
X1287476Y720981D02*
D03*
X1285076Y723681D02*
D03*
X1266176Y705081D02*
D03*
X1269076Y702281D02*
D03*
X1265976Y701381D02*
D03*
X1254976D02*
D03*
X1248976D02*
D03*
X1039976Y723381D02*
D03*
X1055976Y702381D02*
D03*
X1036976Y726381D02*
D03*
Y731381D02*
D03*
Y758381D02*
D03*
Y773381D02*
D03*
Y778381D02*
D03*
Y784381D02*
D03*
Y789381D02*
D03*
X1187761Y749668D02*
D03*
X1127976Y748881D02*
D03*
X1126286Y748891D02*
D03*
X1117936Y736511D02*
D03*
X1120016Y738341D02*
D03*
X1134166Y748861D02*
D03*
X1131776Y760881D02*
D03*
X1136776Y760981D02*
D03*
X1134276Y760881D02*
D03*
X1211676Y745481D02*
D03*
X1209776Y743481D02*
D03*
X1202899Y720207D02*
D03*
X1183276Y724481D02*
D03*
X1119176Y764281D02*
D03*
X1112676Y763781D02*
D03*
X1115176Y756281D02*
D03*
X1156806Y755971D02*
D03*
X1161826Y756051D02*
D03*
X1171536Y756221D02*
D03*
X1201176Y760981D02*
D03*
X1212776Y754781D02*
D03*
X1229866Y760881D02*
D03*
X1236476Y760601D02*
D03*
X1036976Y720381D02*
D03*
X1044976Y726381D02*
D03*
X1049976D02*
D03*
X1053776Y725981D02*
D03*
X1059834Y706775D02*
D03*
X1059976Y719981D02*
D03*
X1237076Y746681D02*
D03*
X1146076Y739411D02*
D03*
X1104576Y735081D02*
D03*
X1090721Y726336D02*
D03*
X1134376Y745781D02*
D03*
X1219976Y815381D02*
D03*
X1223226Y795881D02*
D03*
X1203776Y763081D02*
D03*
X1142296Y748221D02*
D03*
X1221576Y794131D02*
D03*
X1212576Y752781D02*
D03*
X1216976Y763681D02*
D03*
X1115198Y804100D02*
D03*
X1143137Y807021D02*
D03*
X1078895Y734758D02*
D03*
X1129576Y734581D02*
D03*
X1223876Y752581D02*
D03*
X1239076Y756581D02*
D03*
X1226336Y743432D02*
D03*
X1140976Y815381D02*
D03*
X1264076Y742681D02*
D03*
X1200576Y796281D02*
D03*
Y792681D02*
D03*
X1148276Y809081D02*
D03*
X1145876D02*
D03*
X1157376D02*
D03*
X1159876D02*
D03*
X1092176Y781881D02*
D03*
X1094276D02*
D03*
X1055096Y780141D02*
D03*
X1059866Y781351D02*
D03*
X1161934Y745861D02*
D03*
X1156976Y745781D02*
D03*
X1229292Y797481D02*
D03*
X1221587Y795915D02*
D03*
X1223226Y794131D02*
D03*
X1212476Y798781D02*
D03*
X1207676D02*
D03*
X1199876Y781481D02*
D03*
X1161976Y760681D02*
D03*
X1272876Y783181D02*
D03*
X1280176D02*
D03*
X1272676Y810681D02*
D03*
X1280076Y810581D02*
D03*
X1280176Y806181D02*
D03*
X1280076Y787481D02*
D03*
X1280176Y778681D02*
D03*
X1279576Y762881D02*
D03*
X1279676Y754081D02*
D03*
X1258376Y749481D02*
D03*
X1269976Y746381D02*
D03*
X1272876Y814881D02*
D03*
X1279976Y815081D02*
D03*
X1287476Y814881D02*
D03*
Y810681D02*
D03*
X1225976Y815381D02*
D03*
X1238976D02*
D03*
X1231976D02*
D03*
X1115976D02*
D03*
X1081976D02*
D03*
X1076976D02*
D03*
X1070976D02*
D03*
X1073976D02*
D03*
X1068476D02*
D03*
X1058976D02*
D03*
X1054976D02*
D03*
X1061976Y804381D02*
D03*
X1057976Y794381D02*
D03*
X1040976Y792381D02*
D03*
X1035976Y799381D02*
D03*
X1053976Y701381D02*
D03*
X1067176Y701181D02*
D03*
X1118576D02*
D03*
X1129976D02*
D03*
X1135976D02*
D03*
X1152976D02*
D03*
X1169976D02*
D03*
X1181976Y701381D02*
D03*
X1187976D02*
D03*
X1193976D02*
D03*
X1226976D02*
D03*
X1243976D02*
D03*
X1260976D02*
D03*
X1288976Y718381D02*
D03*
Y724381D02*
D03*
Y752381D02*
D03*
Y764381D02*
D03*
X1272976Y791381D02*
D03*
X1281976D02*
D03*
Y802381D02*
D03*
X1272976D02*
D03*
X1097076Y725381D02*
D03*
X1141976Y723381D02*
D03*
X1166776Y745781D02*
D03*
X1120876Y805681D02*
D03*
X1105476Y798881D02*
D03*
X1109876Y805981D02*
D03*
X1108676Y802981D02*
D03*
X1110276Y803981D02*
D03*
X1109776Y792781D02*
D03*
Y788481D02*
D03*
X1127276Y767781D02*
D03*
X1212476Y795681D02*
D03*
X1210283Y766305D02*
D03*
X1104576Y704981D02*
D03*
X1102376Y709081D02*
D03*
X1100176Y704881D02*
D03*
X1130876Y777281D02*
D03*
X1225876Y792681D02*
D03*
X1232076Y720081D02*
D03*
X1232176Y717981D02*
D03*
X1231876Y716081D02*
D03*
X1230176Y714581D02*
D03*
X1224176Y721181D02*
D03*
X1108276Y798881D02*
D03*
X1110076Y797781D02*
D03*
X1104876Y796081D02*
D03*
X1104776Y792581D02*
D03*
Y788781D02*
D03*
X1256076Y805781D02*
D03*
Y802681D02*
D03*
X1256176Y800181D02*
D03*
X1257976Y801481D02*
D03*
X1257876Y804481D02*
D03*
X1247476Y806281D02*
D03*
X1242776D02*
D03*
X1238276D02*
D03*
X1233176D02*
D03*
X1228276D02*
D03*
X1209676Y806181D02*
D03*
X1215376D02*
D03*
X1193776Y808881D02*
D03*
X1224076Y790681D02*
D03*
X1170676Y784081D02*
D03*
X1168776D02*
D03*
X1166976D02*
D03*
X1153176Y787881D02*
D03*
X1210776Y786881D02*
D03*
Y784981D02*
D03*
X1225876Y790581D02*
D03*
X1254376Y788381D02*
D03*
X1256376D02*
D03*
X1261976Y788281D02*
D03*
X1258476Y790581D02*
D03*
X1266776Y791881D02*
D03*
Y788281D02*
D03*
X1247776Y753581D02*
D03*
X1242776Y753481D02*
D03*
X1239276Y753381D02*
D03*
X1247526Y756931D02*
D03*
X1247276Y768531D02*
D03*
X1245076Y768481D02*
D03*
X1242876D02*
D03*
Y770181D02*
D03*
X1245076D02*
D03*
X1247176Y770281D02*
D03*
X1251026Y770931D02*
D03*
X1253076Y772381D02*
D03*
X1253226Y777531D02*
D03*
X1191926Y780231D02*
D03*
X1268476Y733981D02*
D03*
X1265976Y735881D02*
D03*
X1268476Y735981D02*
D03*
X1265976Y733881D02*
D03*
X1171576Y745581D02*
D03*
X1161916Y749101D02*
D03*
X1156946Y748741D02*
D03*
X1166672Y749038D02*
D03*
X1147241Y751837D02*
D03*
X1146476Y747981D02*
D03*
X1142306Y749941D02*
D03*
X1145276Y750781D02*
D03*
X1077576Y756481D02*
D03*
X1071876Y757281D02*
D03*
Y759781D02*
D03*
Y767181D02*
D03*
X1074076Y758581D02*
D03*
X1074176Y768181D02*
D03*
X1221576Y734781D02*
D03*
Y736481D02*
D03*
X1224276Y736681D02*
D03*
X1221576Y738281D02*
D03*
X1225576Y737881D02*
D03*
X1226676Y732681D02*
D03*
X1041676Y759081D02*
D03*
X1043576D02*
D03*
X1237576Y728781D02*
D03*
Y726781D02*
D03*
X1237476Y724781D02*
D03*
Y722781D02*
D03*
X1237576Y730781D02*
D03*
X1122338Y774456D02*
D03*
X1124162Y776473D02*
D03*
X1119694Y775356D02*
D03*
X1238676Y795481D02*
D03*
X1240376Y798581D02*
D03*
X1240276Y800581D02*
D03*
X1240376Y795181D02*
D03*
X1238576Y792181D02*
D03*
X1211776Y738981D02*
D03*
X1204076Y710681D02*
D03*
X1213576Y709881D02*
D03*
X1211076Y710781D02*
D03*
X1223276Y707881D02*
D03*
X1224476Y711381D02*
D03*
X1213576Y706981D02*
D03*
X1144376Y721081D02*
D03*
X1150976Y715781D02*
D03*
X1140776D02*
D03*
X1111476Y719981D02*
D03*
X1101876Y718081D02*
D03*
X1075476Y721981D02*
D03*
X1090676Y715381D02*
D03*
X1218376Y740281D02*
D03*
X1218476Y742081D02*
D03*
X1112676Y721281D02*
D03*
X1114476Y720981D02*
D03*
X1119276Y722081D02*
D03*
X1070976Y726281D02*
D03*
X1090787Y728615D02*
D03*
X1136676Y730681D02*
D03*
X1140876Y733681D02*
D03*
X1137976Y731881D02*
D03*
X1135376Y729581D02*
D03*
X1145176Y726581D02*
D03*
X1143176Y724781D02*
D03*
X1153009Y724570D02*
D03*
X1149266Y722740D02*
D03*
X1150530Y724570D02*
D03*
X1146126Y722281D02*
D03*
X1129876Y731481D02*
D03*
X1178175Y712775D02*
D03*
X1173176Y702181D02*
D03*
X1174776Y704981D02*
D03*
X1180776Y705381D02*
D03*
X1161876Y707781D02*
D03*
X1138576Y799381D02*
D03*
X1287176Y726781D02*
D03*
Y730781D02*
D03*
Y734781D02*
D03*
X1280176D02*
D03*
Y726781D02*
D03*
X1273176D02*
D03*
Y734781D02*
D03*
X1287176Y739781D02*
D03*
X1188176Y790281D02*
D03*
X1186176D02*
D03*
X1123882Y765471D02*
D03*
X1126476Y763881D02*
D03*
X1128676D02*
D03*
X1112269Y770446D02*
D03*
X1112676Y756281D02*
D03*
Y760281D02*
D03*
X1159376Y727581D02*
D03*
X1157876Y724581D02*
D03*
X1170076Y721631D02*
D03*
X1164776Y721381D02*
D03*
X1165526Y714531D02*
D03*
X1170176Y714631D02*
D03*
X1257376Y730081D02*
D03*
X1258576Y731681D02*
D03*
X1257676Y728081D02*
D03*
X1255676Y725781D02*
D03*
X1068576Y799181D02*
D03*
X1069376Y795581D02*
D03*
D69*
X1057476Y762081D02*
D03*
X1231346Y759881D02*
D03*
X1231376Y758481D02*
D03*
X1238076Y775981D02*
D03*
X1237076Y775381D02*
D03*
Y776581D02*
D03*
X1237105Y779938D02*
D03*
X1231376Y779881D02*
D03*
X1223476Y758281D02*
D03*
X1218176Y759481D02*
D03*
X1223476Y761181D02*
D03*
X1225876Y736381D02*
D03*
X1233876Y730881D02*
D03*
X1241976Y739981D02*
D03*
X1242776Y736081D02*
D03*
X1241176Y734481D02*
D03*
X1239576D02*
D03*
X1238176D02*
D03*
X1230476Y739981D02*
D03*
X1230176Y734481D02*
D03*
X1231276D02*
D03*
X1232576D02*
D03*
X1234176D02*
D03*
X1235376Y735081D02*
D03*
Y736581D02*
D03*
Y738081D02*
D03*
X1234076Y739981D02*
D03*
X1236776Y738181D02*
D03*
X1237076Y739581D02*
D03*
X1235276Y739481D02*
D03*
X1215876Y777781D02*
D03*
Y774181D02*
D03*
Y776681D02*
D03*
Y780281D02*
D03*
X1216876Y761381D02*
D03*
X1215776D02*
D03*
X1218676Y767281D02*
D03*
X1215876Y772981D02*
D03*
Y770381D02*
D03*
Y778981D02*
D03*
Y775381D02*
D03*
X1215776Y759481D02*
D03*
X1215676Y763381D02*
D03*
X1226476Y761781D02*
D03*
X1220076Y761681D02*
D03*
X1223476Y759681D02*
D03*
X1216976Y759481D02*
D03*
X1223376Y763881D02*
D03*
X1055276Y756081D02*
D03*
X1055776Y724181D02*
D03*
X1057976Y721981D02*
D03*
X1060176Y708181D02*
D03*
X1061176Y715381D02*
D03*
X1061276Y712981D02*
D03*
X1063876Y709481D02*
D03*
X1175654Y774963D02*
D03*
X1176526Y772781D02*
D03*
X1177676Y772831D02*
D03*
X1176239Y770781D02*
D03*
X1179976Y777331D02*
D03*
X1180076Y778381D02*
D03*
X1180976Y779131D02*
D03*
X1174526Y770131D02*
D03*
X1168928Y773832D02*
D03*
X1170293Y775162D02*
D03*
X1179931Y792592D02*
D03*
X1180676Y773481D02*
D03*
X1179626Y774331D02*
D03*
X1176926Y781531D02*
D03*
X1175976Y780731D02*
D03*
X1082676Y807181D02*
D03*
X1140276Y805281D02*
D03*
X1081076Y809481D02*
D03*
X1148426Y773281D02*
D03*
X1151776Y779831D02*
D03*
Y782631D02*
D03*
Y784431D02*
D03*
Y786281D02*
D03*
X1164032Y773242D02*
D03*
X1157261Y739799D02*
D03*
X1155292D02*
D03*
X1162576Y730581D02*
D03*
X1160476Y728681D02*
D03*
X1161476Y729581D02*
D03*
X1173526Y766781D02*
D03*
X1229576Y785381D02*
D03*
X1228876Y786131D02*
D03*
X1183876Y775381D02*
D03*
X1182926Y774531D02*
D03*
X1182076Y773631D02*
D03*
X1242826Y793281D02*
D03*
X1243826Y792481D02*
D03*
X1243876Y794031D02*
D03*
X1253626Y762681D02*
D03*
X1252476D02*
D03*
X1244676Y761581D02*
D03*
X1062976Y752481D02*
D03*
X1059276Y752381D02*
D03*
X1059376Y754281D02*
D03*
X1063576Y754181D02*
D03*
X1065676Y754781D02*
D03*
Y756181D02*
D03*
X1065876Y760681D02*
D03*
Y762481D02*
D03*
X1184476Y792381D02*
D03*
X1141776Y801881D02*
D03*
X1146076D02*
D03*
X1123476Y787581D02*
D03*
X1058976Y765481D02*
D03*
X1252576Y764681D02*
D03*
X1250076Y760581D02*
D03*
Y764781D02*
D03*
X1245576Y757481D02*
D03*
X1245476Y759281D02*
D03*
X1243776Y762331D02*
D03*
X1242526D02*
D03*
X1248976Y762681D02*
D03*
X1250176D02*
D03*
X1251326D02*
D03*
X1254676Y761381D02*
D03*
X1254776Y759281D02*
D03*
X1255276Y755581D02*
D03*
X1250576Y753581D02*
D03*
X1087844Y771481D02*
D03*
X1089976Y771181D02*
D03*
X1086476Y772681D02*
D03*
X1087575Y753490D02*
D03*
X1086845Y750942D02*
D03*
X1086122Y753417D02*
D03*
X1044106Y763541D02*
D03*
X1042806Y763501D02*
D03*
X1041576D02*
D03*
X1040336Y763481D02*
D03*
X1047306Y767001D02*
D03*
X1049596Y766931D02*
D03*
X1094576Y776981D02*
D03*
X1095876D02*
D03*
X1097376D02*
D03*
X1103876Y780881D02*
D03*
Y777481D02*
D03*
Y779181D02*
D03*
X1154628Y768256D02*
D03*
X1177640Y769861D02*
D03*
X1169376Y767981D02*
D03*
X1172076Y771481D02*
D03*
X1164543Y760157D02*
D03*
X1164699Y754512D02*
D03*
X1164601Y758014D02*
D03*
X1161658Y750446D02*
D03*
X1171661Y776595D02*
D03*
X1173013Y777881D02*
D03*
X1184776Y776281D02*
D03*
X1185626Y777181D02*
D03*
X1186526Y778081D02*
D03*
X1187376Y778981D02*
D03*
X1188897Y787843D02*
D03*
X1178167Y792611D02*
D03*
X1181483Y792573D02*
D03*
X1187431Y792608D02*
D03*
X1188425Y792269D02*
D03*
X1189469Y793251D02*
D03*
X1190639Y794343D02*
D03*
X1192603Y794904D02*
D03*
X1194053Y794951D02*
D03*
Y796229D02*
D03*
X1197920Y797102D02*
D03*
X1198080Y794023D02*
D03*
Y792520D02*
D03*
X1194301D02*
D03*
X1192107Y791908D02*
D03*
X1190750Y791068D02*
D03*
X1190219Y789809D02*
D03*
X1196241Y786405D02*
D03*
X1194455Y786365D02*
D03*
X1198497Y784398D02*
D03*
X1209352Y785133D02*
D03*
X1207187Y785115D02*
D03*
X1205308Y785097D02*
D03*
X1208976Y786743D02*
D03*
X1205863Y786725D02*
D03*
X1207259D02*
D03*
X1202177Y786385D02*
D03*
X1202356Y792952D02*
D03*
X1203591Y794580D02*
D03*
X1202428Y794598D02*
D03*
X1206668Y792856D02*
D03*
X1208747Y794370D02*
D03*
X1249176Y805281D02*
D03*
X1253988Y804856D02*
D03*
Y801645D02*
D03*
X1249676Y797481D02*
D03*
X1239076Y801781D02*
D03*
X1249076Y801881D02*
D03*
X1088776Y780681D02*
D03*
X1116974Y753497D02*
D03*
X1091414Y752433D02*
D03*
X1092542Y747017D02*
D03*
X1094970Y747179D02*
D03*
X1096387Y748515D02*
D03*
X1088264Y749049D02*
D03*
X1088764Y745334D02*
D03*
X1088125Y743540D02*
D03*
X1090471Y743543D02*
D03*
X1085876Y742550D02*
D03*
X1088096Y751008D02*
D03*
X1083742Y743221D02*
D03*
X1085849Y736734D02*
D03*
X1088036Y738654D02*
D03*
X1119282Y767592D02*
D03*
X1115092Y767548D02*
D03*
X1117092Y767504D02*
D03*
X1119976Y773181D02*
D03*
X1124401Y768627D02*
D03*
X1121861Y768646D02*
D03*
X1122013Y772056D02*
D03*
X1124565D02*
D03*
X1127435Y772038D02*
D03*
X1130831Y770237D02*
D03*
X1129076Y771781D02*
D03*
X1119976Y780881D02*
D03*
X1123476Y784381D02*
D03*
X1119876Y790681D02*
D03*
X1119976Y787581D02*
D03*
X1123476Y790381D02*
D03*
X1120276Y796281D02*
D03*
X1128876Y801281D02*
D03*
X1123976Y802481D02*
D03*
X1145376Y805281D02*
D03*
X1150276Y801881D02*
D03*
X1154176Y805281D02*
D03*
X1159076Y801881D02*
D03*
X1167776D02*
D03*
X1163576Y805281D02*
D03*
X1172276D02*
D03*
X1176376Y801881D02*
D03*
X1181176Y805281D02*
D03*
X1186776Y801881D02*
D03*
X1192476Y805281D02*
D03*
X1202376D02*
D03*
X1221276D02*
D03*
X1235476D02*
D03*
X1244776D02*
D03*
X1229576D02*
D03*
X1229976Y801781D02*
D03*
X1184765Y711147D02*
D03*
X1190948Y710878D02*
D03*
X1215694Y714505D02*
D03*
X1210876Y714710D02*
D03*
X1195716Y714520D02*
D03*
X1201714Y714427D02*
D03*
X1188559Y714466D02*
D03*
X1192833Y714391D02*
D03*
X1167843Y713008D02*
D03*
X1171526Y716681D02*
D03*
X1186376Y723881D02*
D03*
X1038216Y765890D02*
D03*
X1052476Y759581D02*
D03*
X1043704Y760722D02*
D03*
X1042126Y760688D02*
D03*
X1040502Y760654D02*
D03*
X1043276Y737081D02*
D03*
X1047718Y732489D02*
D03*
X1049526Y730819D02*
D03*
X1045381Y734881D02*
D03*
X1058255Y726994D02*
D03*
X1054757Y730207D02*
D03*
X1050776Y735181D02*
D03*
X1038215Y755784D02*
D03*
X1038214Y754050D02*
D03*
X1051476Y762781D02*
D03*
X1055716Y763211D02*
D03*
X1252676Y744881D02*
D03*
X1175061Y766945D02*
D03*
X1157224Y750362D02*
D03*
X1157240Y754426D02*
D03*
X1045686Y765281D02*
D03*
X1045856Y766951D02*
D03*
X1051486Y767061D02*
D03*
X1053576Y765781D02*
D03*
X1064023Y765508D02*
D03*
X1086465Y781136D02*
D03*
X1086417Y783361D02*
D03*
X1078176Y783629D02*
D03*
X1073176Y784381D02*
D03*
X1078863Y786400D02*
D03*
X1082876Y788681D02*
D03*
X1078676Y790081D02*
D03*
X1072886Y787910D02*
D03*
X1075927Y793107D02*
D03*
X1074726Y805831D02*
D03*
X1089317Y799146D02*
D03*
X1092588Y802851D02*
D03*
X1101574Y802890D02*
D03*
X1109276Y801381D02*
D03*
X1056226Y745963D02*
D03*
X1056289Y748332D02*
D03*
X1057018Y750915D02*
D03*
X1057604Y756807D02*
D03*
X1057700Y776197D02*
D03*
X1057733Y771765D02*
D03*
X1067169Y771036D02*
D03*
X1065872Y766348D02*
D03*
X1065821Y768307D02*
D03*
X1065114Y752147D02*
D03*
X1065981Y751298D02*
D03*
X1068216Y751311D02*
D03*
X1066656Y752861D02*
D03*
X1082418Y743469D02*
D03*
X1088005Y740926D02*
D03*
X1075786Y740294D02*
D03*
X1078650Y740243D02*
D03*
X1077221Y740368D02*
D03*
X1241195Y762333D02*
D03*
X1260876Y749181D02*
D03*
X1254924Y753622D02*
D03*
X1253076Y779731D02*
D03*
X1253026Y783731D02*
D03*
X1253076Y786731D02*
D03*
X1254445Y790646D02*
D03*
X1254476Y795981D02*
D03*
X1240776Y805481D02*
D03*
X1225776Y805281D02*
D03*
X1216876Y801781D02*
D03*
X1216476Y805281D02*
D03*
X1202376Y801781D02*
D03*
X1154776Y801881D02*
D03*
X1172276D02*
D03*
X1192276D02*
D03*
X1163676D02*
D03*
X1181276D02*
D03*
X1197676Y805281D02*
D03*
X1186976D02*
D03*
X1176476D02*
D03*
X1167776D02*
D03*
X1158976D02*
D03*
X1149476D02*
D03*
X1135636Y805713D02*
D03*
X1131676Y801781D02*
D03*
X1127476Y804581D02*
D03*
X1123476Y793681D02*
D03*
X1119976Y793581D02*
D03*
Y784081D02*
D03*
X1123476Y782081D02*
D03*
X1118837Y777326D02*
D03*
X1203758Y766333D02*
D03*
X1215656Y786839D02*
D03*
X1217542Y786859D02*
D03*
X1217563Y785278D02*
D03*
X1210442Y792913D02*
D03*
X1215600Y794630D02*
D03*
X1214225Y792884D02*
D03*
X1213872Y796476D02*
D03*
X1226248Y734840D02*
D03*
X1229984Y733073D02*
D03*
X1229913Y731230D02*
D03*
X1229949Y728887D02*
D03*
X1232596Y728905D02*
D03*
X1242902Y733328D02*
D03*
X1242883Y731181D02*
D03*
X1242876Y728881D02*
D03*
X1240976D02*
D03*
X1236127Y744026D02*
D03*
X1232331Y744102D02*
D03*
X1224448Y746923D02*
D03*
X1224591Y743991D02*
D03*
X1092680Y745260D02*
D03*
X1059700Y776150D02*
D03*
Y771797D02*
D03*
X1077633Y782327D02*
D03*
X1079211Y782260D02*
D03*
X1074855Y756215D02*
D03*
X1071966Y764396D02*
D03*
X1223245Y779658D02*
D03*
X1229880Y775814D02*
D03*
X1223300Y775839D02*
D03*
X1097703Y749989D02*
D03*
X1099576Y751281D02*
D03*
X1097792Y755919D02*
D03*
Y759757D02*
D03*
X1153304Y770978D02*
D03*
X1153963Y769055D02*
D03*
X1184071Y719998D02*
D03*
Y716777D02*
D03*
X1130976Y747581D02*
D03*
X1198076Y801781D02*
D03*
X1222300Y791549D02*
D03*
X1229976Y779781D02*
D03*
X1077076Y809881D02*
D03*
X1154414Y775741D02*
D03*
X1156047Y774324D02*
D03*
X1140960Y761314D02*
D03*
X1125976Y799481D02*
D03*
X1121676Y799681D02*
D03*
X1124076Y796781D02*
D03*
X1135776Y801781D02*
D03*
X1221476D02*
D03*
X1226176D02*
D03*
X1151477Y789794D02*
D03*
X1151413Y788071D02*
D03*
X1157276Y777681D02*
D03*
X1162207Y775581D02*
D03*
X1260404Y766563D02*
D03*
X1262217Y759816D02*
D03*
X1265476Y743381D02*
D03*
X1141988Y762557D02*
D03*
X1090532Y778939D02*
D03*
X1090582Y777521D02*
D03*
X1086376Y775281D02*
D03*
X1086576Y776481D02*
D03*
X1222576Y789581D02*
D03*
X1202033Y788320D02*
D03*
X1186366Y792558D02*
D03*
X1187431Y791392D02*
D03*
X1189113Y789515D02*
D03*
X1184250Y788676D02*
D03*
X1187871Y788521D02*
D03*
X1184250Y784494D02*
D03*
X1187871Y786778D02*
D03*
X1184309Y785810D02*
D03*
X1184214Y783226D02*
D03*
X1180674Y787194D02*
D03*
X1182646Y787159D02*
D03*
X1184270Y787340D02*
D03*
X1158376Y742581D02*
D03*
X1225476Y781681D02*
D03*
X1223921Y788893D02*
D03*
X1203428Y788306D02*
D03*
X1206276Y788281D02*
D03*
X1203591Y792970D02*
D03*
X1131576Y805281D02*
D03*
X1207176D02*
D03*
X1207076Y801781D02*
D03*
X1211076Y805281D02*
D03*
X1211776Y801881D02*
D03*
X1235476Y801781D02*
D03*
X1249076Y799581D02*
D03*
X1251676Y805881D02*
D03*
X1254176Y799481D02*
D03*
X1244176Y787931D02*
D03*
X1243376Y790331D02*
D03*
X1244176Y782981D02*
D03*
X1253026Y775131D02*
D03*
X1244176Y780031D02*
D03*
X1265676Y745681D02*
D03*
X1255276Y751481D02*
D03*
X1123476Y779181D02*
D03*
X1121476Y762981D02*
D03*
X1124676Y763681D02*
D03*
X1127676Y759181D02*
D03*
X1125376Y759081D02*
D03*
X1121976D02*
D03*
X1099876Y758581D02*
D03*
X1099476Y760981D02*
D03*
X1095876Y761681D02*
D03*
X1107676Y773281D02*
D03*
X1105176D02*
D03*
X1103676D02*
D03*
X1099676D02*
D03*
X1099776Y769981D02*
D03*
Y771281D02*
D03*
X1093276Y776981D02*
D03*
X1103876Y775481D02*
D03*
X1088276Y784181D02*
D03*
X1088676Y786381D02*
D03*
Y789581D02*
D03*
X1088376Y792181D02*
D03*
X1085776Y792881D02*
D03*
X1083376Y792381D02*
D03*
X1082876Y790681D02*
D03*
X1081076Y789781D02*
D03*
X1078276Y792481D02*
D03*
X1073376Y792381D02*
D03*
X1072976Y790181D02*
D03*
X1072876Y785981D02*
D03*
X1075976Y783681D02*
D03*
X1074526Y807881D02*
D03*
X1079576Y809481D02*
D03*
X1075576Y809331D02*
D03*
X1078176Y796881D02*
D03*
X1072976Y804181D02*
D03*
X1078526Y804681D02*
D03*
X1078476Y802581D02*
D03*
Y799881D02*
D03*
X1083176Y804881D02*
D03*
Y802581D02*
D03*
Y799881D02*
D03*
X1083276Y796981D02*
D03*
X1085476Y805581D02*
D03*
X1087976Y805281D02*
D03*
X1088676Y802781D02*
D03*
X1088276Y796981D02*
D03*
X1085676Y796381D02*
D03*
X1093176Y799281D02*
D03*
X1097076Y802781D02*
D03*
X1105976Y802981D02*
D03*
X1101876Y799281D02*
D03*
X1097476D02*
D03*
X1109276Y799981D02*
D03*
X1251832Y792781D02*
D03*
X1246320D02*
D03*
X1099476Y775181D02*
D03*
X1091876Y777381D02*
D03*
X1238076Y743981D02*
D03*
X1234476Y741881D02*
D03*
X1236876Y735081D02*
D03*
X1244076Y736081D02*
D03*
X1242776Y734881D02*
D03*
X1246276Y737681D02*
D03*
X1228676Y733081D02*
D03*
X1236876Y736581D02*
D03*
X1246376Y740381D02*
D03*
X1246276Y743681D02*
D03*
X1244576Y743781D02*
D03*
X1241976D02*
D03*
X1240176Y752181D02*
D03*
X1238176Y751681D02*
D03*
X1242176Y752181D02*
D03*
X1244376Y752481D02*
D03*
X1241076Y753281D02*
D03*
X1238076Y745681D02*
D03*
X1223176Y750581D02*
D03*
X1224376D02*
D03*
X1228176Y745681D02*
D03*
Y744181D02*
D03*
X1230576Y743981D02*
D03*
X1228176Y747281D02*
D03*
X1230576Y745681D02*
D03*
X1234176D02*
D03*
X1231176Y753481D02*
D03*
X1230576Y747681D02*
D03*
X1234676Y728881D02*
D03*
X1221776Y781481D02*
D03*
X1250576Y737781D02*
D03*
X1149576Y766181D02*
D03*
X1233876Y793905D02*
D03*
X1235176D02*
D03*
X1232724D02*
D03*
X1138776Y759581D02*
D03*
X1148576Y750631D02*
D03*
X1147076Y757181D02*
D03*
X1231276Y730881D02*
D03*
Y732981D02*
D03*
X1232376D02*
D03*
Y730881D02*
D03*
X1240176Y730781D02*
D03*
Y732981D02*
D03*
X1241476D02*
D03*
Y730781D02*
D03*
X1233976Y732981D02*
D03*
X1236076D02*
D03*
X1238076D02*
D03*
X1252176Y733081D02*
D03*
X1254376Y733181D02*
D03*
X1254476Y735681D02*
D03*
X1252076D02*
D03*
X1080476Y758681D02*
D03*
X1080276Y764981D02*
D03*
X1081076Y765881D02*
D03*
X1080276Y761381D02*
D03*
X1080376Y763381D02*
D03*
X1074276Y764481D02*
D03*
X1065838Y764355D02*
D03*
X1074276Y761981D02*
D03*
X1071976D02*
D03*
X1042876Y748481D02*
D03*
Y745981D02*
D03*
X1046076Y738881D02*
D03*
Y740181D02*
D03*
X1042876Y740381D02*
D03*
Y742681D02*
D03*
X1042676Y744281D02*
D03*
X1047876Y756281D02*
D03*
X1053376Y763181D02*
D03*
X1042776Y751981D02*
D03*
X1040576D02*
D03*
X1042776Y753681D02*
D03*
Y755081D02*
D03*
X1247776Y797481D02*
D03*
X1245876Y797381D02*
D03*
X1244576D02*
D03*
X1243876Y795381D02*
D03*
X1135676Y733681D02*
D03*
X1137776Y734381D02*
D03*
X1132476Y729281D02*
D03*
X1128996Y729141D02*
D03*
X1143376Y765181D02*
D03*
X1144676Y762281D02*
D03*
X1112676Y773281D02*
D03*
Y767781D02*
D03*
X1115176Y763781D02*
D03*
X1114363Y753483D02*
D03*
X1112111Y753488D02*
D03*
X1090776Y767281D02*
D03*
X1094176Y768881D02*
D03*
X1101376Y727281D02*
D03*
X1101876Y729181D02*
D03*
X1102676Y730781D02*
D03*
X1102776Y732981D02*
D03*
X1102576Y734981D02*
D03*
X1106476Y733181D02*
D03*
Y735081D02*
D03*
X1106676Y736881D02*
D03*
X1106776Y738981D02*
D03*
X1102376Y736981D02*
D03*
X1102476Y739481D02*
D03*
X1100576Y738881D02*
D03*
X1099176Y737681D02*
D03*
X1097476Y735781D02*
D03*
X1095476Y733681D02*
D03*
X1098276Y727281D02*
D03*
X1095376D02*
D03*
X1092776D02*
D03*
X1098276Y729781D02*
D03*
X1099476Y733781D02*
D03*
X1093276Y731481D02*
D03*
X1095476Y729781D02*
D03*
X1088176Y725581D02*
D03*
X1085376Y726981D02*
D03*
X1083076Y725481D02*
D03*
X1080476Y726981D02*
D03*
X1079476Y722281D02*
D03*
X1077276Y725081D02*
D03*
X1114076Y723081D02*
D03*
X1117576D02*
D03*
X1121476Y723181D02*
D03*
X1125476D02*
D03*
X1128576D02*
D03*
X1131376D02*
D03*
X1132176Y720481D02*
D03*
X1123176Y720881D02*
D03*
X1123076Y717781D02*
D03*
Y714581D02*
D03*
X1127276Y714381D02*
D03*
X1119776Y711781D02*
D03*
X1114676Y711881D02*
D03*
X1131376Y712681D02*
D03*
X1133976Y717081D02*
D03*
X1135976Y714381D02*
D03*
X1189876Y723181D02*
D03*
X1195576Y723381D02*
D03*
X1200276D02*
D03*
X1206076Y723481D02*
D03*
X1072976Y801781D02*
D03*
X1075876Y796281D02*
D03*
X1072976Y799381D02*
D03*
X1073976Y796781D02*
D03*
D70*
X1111576Y813563D02*
D03*
X1248276Y813561D02*
D03*
D74*
X1229292Y789498D02*
Y797481D01*
X1218676Y772781D02*
Y782881D01*
X1221376Y785581D01*
X1225376D01*
X1229292Y789498D01*
M02*
