G04*
G04 #@! TF.GenerationSoftware,Altium Limited,CircuitStudio,1.5.2 (30)*
G04*
G04 Layer_Color=3394611*
%FSLAX25Y25*%
%MOIN*%
G70*
G01*
G75*
%ADD53C,0.00500*%
%ADD102C,0.03000*%
G04:AMPARAMS|DCode=103|XSize=26.38mil|YSize=22.44mil|CornerRadius=6.3mil|HoleSize=0mil|Usage=FLASHONLY|Rotation=180.000|XOffset=0mil|YOffset=0mil|HoleType=Round|Shape=RoundedRectangle|*
%AMROUNDEDRECTD103*
21,1,0.02638,0.00984,0,0,180.0*
21,1,0.01378,0.02244,0,0,180.0*
1,1,0.01260,-0.00689,0.00492*
1,1,0.01260,0.00689,0.00492*
1,1,0.01260,0.00689,-0.00492*
1,1,0.01260,-0.00689,-0.00492*
%
%ADD103ROUNDEDRECTD103*%
G04:AMPARAMS|DCode=104|XSize=26.38mil|YSize=22.44mil|CornerRadius=6.3mil|HoleSize=0mil|Usage=FLASHONLY|Rotation=270.000|XOffset=0mil|YOffset=0mil|HoleType=Round|Shape=RoundedRectangle|*
%AMROUNDEDRECTD104*
21,1,0.02638,0.00984,0,0,270.0*
21,1,0.01378,0.02244,0,0,270.0*
1,1,0.01260,-0.00492,-0.00689*
1,1,0.01260,-0.00492,0.00689*
1,1,0.01260,0.00492,0.00689*
1,1,0.01260,0.00492,-0.00689*
%
%ADD104ROUNDEDRECTD104*%
G04:AMPARAMS|DCode=105|XSize=52.02mil|YSize=27.02mil|CornerRadius=5.1mil|HoleSize=0mil|Usage=FLASHONLY|Rotation=90.000|XOffset=0mil|YOffset=0mil|HoleType=Round|Shape=RoundedRectangle|*
%AMROUNDEDRECTD105*
21,1,0.05202,0.01681,0,0,90.0*
21,1,0.04181,0.02702,0,0,90.0*
1,1,0.01021,0.00841,0.02091*
1,1,0.01021,0.00841,-0.02091*
1,1,0.01021,-0.00841,-0.02091*
1,1,0.01021,-0.00841,0.02091*
%
%ADD105ROUNDEDRECTD105*%
G04:AMPARAMS|DCode=106|XSize=73.87mil|YSize=43.95mil|CornerRadius=7.64mil|HoleSize=0mil|Usage=FLASHONLY|Rotation=90.000|XOffset=0mil|YOffset=0mil|HoleType=Round|Shape=RoundedRectangle|*
%AMROUNDEDRECTD106*
21,1,0.07387,0.02866,0,0,90.0*
21,1,0.05858,0.04395,0,0,90.0*
1,1,0.01528,0.01433,0.02929*
1,1,0.01528,0.01433,-0.02929*
1,1,0.01528,-0.01433,-0.02929*
1,1,0.01528,-0.01433,0.02929*
%
%ADD106ROUNDEDRECTD106*%
%ADD107C,0.04137*%
G04:AMPARAMS|DCode=108|XSize=67.96mil|YSize=44.34mil|CornerRadius=5.63mil|HoleSize=0mil|Usage=FLASHONLY|Rotation=180.000|XOffset=0mil|YOffset=0mil|HoleType=Round|Shape=RoundedRectangle|*
%AMROUNDEDRECTD108*
21,1,0.06796,0.03307,0,0,180.0*
21,1,0.05669,0.04434,0,0,180.0*
1,1,0.01127,-0.02835,0.01654*
1,1,0.01127,0.02835,0.01654*
1,1,0.01127,0.02835,-0.01654*
1,1,0.01127,-0.02835,-0.01654*
%
%ADD108ROUNDEDRECTD108*%
G04:AMPARAMS|DCode=109|XSize=34.89mil|YSize=39.61mil|CornerRadius=6.28mil|HoleSize=0mil|Usage=FLASHONLY|Rotation=270.000|XOffset=0mil|YOffset=0mil|HoleType=Round|Shape=RoundedRectangle|*
%AMROUNDEDRECTD109*
21,1,0.03489,0.02705,0,0,270.0*
21,1,0.02232,0.03961,0,0,270.0*
1,1,0.01257,-0.01352,-0.01116*
1,1,0.01257,-0.01352,0.01116*
1,1,0.01257,0.01352,0.01116*
1,1,0.01257,0.01352,-0.01116*
%
%ADD109ROUNDEDRECTD109*%
G04:AMPARAMS|DCode=110|XSize=34.89mil|YSize=39.61mil|CornerRadius=6.28mil|HoleSize=0mil|Usage=FLASHONLY|Rotation=180.000|XOffset=0mil|YOffset=0mil|HoleType=Round|Shape=RoundedRectangle|*
%AMROUNDEDRECTD110*
21,1,0.03489,0.02705,0,0,180.0*
21,1,0.02232,0.03961,0,0,180.0*
1,1,0.01257,-0.01116,0.01352*
1,1,0.01257,0.01116,0.01352*
1,1,0.01257,0.01116,-0.01352*
1,1,0.01257,-0.01116,-0.01352*
%
%ADD110ROUNDEDRECTD110*%
G04:AMPARAMS|DCode=111|XSize=30.56mil|YSize=30.56mil|CornerRadius=4.26mil|HoleSize=0mil|Usage=FLASHONLY|Rotation=270.000|XOffset=0mil|YOffset=0mil|HoleType=Round|Shape=RoundedRectangle|*
%AMROUNDEDRECTD111*
21,1,0.03056,0.02205,0,0,270.0*
21,1,0.02205,0.03056,0,0,270.0*
1,1,0.00851,-0.01102,-0.01102*
1,1,0.00851,-0.01102,0.01102*
1,1,0.00851,0.01102,0.01102*
1,1,0.00851,0.01102,-0.01102*
%
%ADD111ROUNDEDRECTD111*%
G04:AMPARAMS|DCode=112|XSize=16.93mil|YSize=25.76mil|CornerRadius=2.09mil|HoleSize=0mil|Usage=FLASHONLY|Rotation=180.000|XOffset=0mil|YOffset=0mil|HoleType=Round|Shape=RoundedRectangle|*
%AMROUNDEDRECTD112*
21,1,0.01693,0.02158,0,0,180.0*
21,1,0.01276,0.02576,0,0,180.0*
1,1,0.00417,-0.00638,0.01079*
1,1,0.00417,0.00638,0.01079*
1,1,0.00417,0.00638,-0.01079*
1,1,0.00417,-0.00638,-0.01079*
%
%ADD112ROUNDEDRECTD112*%
G04:AMPARAMS|DCode=113|XSize=16.93mil|YSize=25.76mil|CornerRadius=2.09mil|HoleSize=0mil|Usage=FLASHONLY|Rotation=90.000|XOffset=0mil|YOffset=0mil|HoleType=Round|Shape=RoundedRectangle|*
%AMROUNDEDRECTD113*
21,1,0.01693,0.02158,0,0,90.0*
21,1,0.01276,0.02576,0,0,90.0*
1,1,0.00417,0.01079,0.00638*
1,1,0.00417,0.01079,-0.00638*
1,1,0.00417,-0.01079,-0.00638*
1,1,0.00417,-0.01079,0.00638*
%
%ADD113ROUNDEDRECTD113*%
G04:AMPARAMS|DCode=114|XSize=26.38mil|YSize=20.47mil|CornerRadius=5.81mil|HoleSize=0mil|Usage=FLASHONLY|Rotation=90.000|XOffset=0mil|YOffset=0mil|HoleType=Round|Shape=RoundedRectangle|*
%AMROUNDEDRECTD114*
21,1,0.02638,0.00886,0,0,90.0*
21,1,0.01476,0.02047,0,0,90.0*
1,1,0.01161,0.00443,0.00738*
1,1,0.01161,0.00443,-0.00738*
1,1,0.01161,-0.00443,-0.00738*
1,1,0.01161,-0.00443,0.00738*
%
%ADD114ROUNDEDRECTD114*%
G04:AMPARAMS|DCode=115|XSize=26.38mil|YSize=20.47mil|CornerRadius=5.81mil|HoleSize=0mil|Usage=FLASHONLY|Rotation=0.000|XOffset=0mil|YOffset=0mil|HoleType=Round|Shape=RoundedRectangle|*
%AMROUNDEDRECTD115*
21,1,0.02638,0.00886,0,0,0.0*
21,1,0.01476,0.02047,0,0,0.0*
1,1,0.01161,0.00738,-0.00443*
1,1,0.01161,-0.00738,-0.00443*
1,1,0.01161,-0.00738,0.00443*
1,1,0.01161,0.00738,0.00443*
%
%ADD115ROUNDEDRECTD115*%
G04:AMPARAMS|DCode=116|XSize=50.24mil|YSize=26.61mil|CornerRadius=5.04mil|HoleSize=0mil|Usage=FLASHONLY|Rotation=90.000|XOffset=0mil|YOffset=0mil|HoleType=Round|Shape=RoundedRectangle|*
%AMROUNDEDRECTD116*
21,1,0.05024,0.01654,0,0,90.0*
21,1,0.04016,0.02661,0,0,90.0*
1,1,0.01008,0.00827,0.02008*
1,1,0.01008,0.00827,-0.02008*
1,1,0.01008,-0.00827,-0.02008*
1,1,0.01008,-0.00827,0.02008*
%
%ADD116ROUNDEDRECTD116*%
G04:AMPARAMS|DCode=117|XSize=12.84mil|YSize=32.52mil|CornerRadius=2.97mil|HoleSize=0mil|Usage=FLASHONLY|Rotation=90.000|XOffset=0mil|YOffset=0mil|HoleType=Round|Shape=RoundedRectangle|*
%AMROUNDEDRECTD117*
21,1,0.01284,0.02658,0,0,90.0*
21,1,0.00689,0.03252,0,0,90.0*
1,1,0.00595,0.01329,0.00345*
1,1,0.00595,0.01329,-0.00345*
1,1,0.00595,-0.01329,-0.00345*
1,1,0.00595,-0.01329,0.00345*
%
%ADD117ROUNDEDRECTD117*%
%ADD118C,0.07874*%
%ADD119R,0.16796X0.10792*%
%ADD120R,0.16796X0.07308*%
G04:AMPARAMS|DCode=121|XSize=51.43mil|YSize=26.62mil|CornerRadius=4.45mil|HoleSize=0mil|Usage=FLASHONLY|Rotation=0.000|XOffset=0mil|YOffset=0mil|HoleType=Round|Shape=RoundedRectangle|*
%AMROUNDEDRECTD121*
21,1,0.05143,0.01772,0,0,0.0*
21,1,0.04252,0.02662,0,0,0.0*
1,1,0.00891,0.02126,-0.00886*
1,1,0.00891,-0.02126,-0.00886*
1,1,0.00891,-0.02126,0.00886*
1,1,0.00891,0.02126,0.00886*
%
%ADD121ROUNDEDRECTD121*%
G04:AMPARAMS|DCode=122|XSize=24.41mil|YSize=20.47mil|CornerRadius=5.81mil|HoleSize=0mil|Usage=FLASHONLY|Rotation=90.000|XOffset=0mil|YOffset=0mil|HoleType=Round|Shape=RoundedRectangle|*
%AMROUNDEDRECTD122*
21,1,0.02441,0.00886,0,0,90.0*
21,1,0.01280,0.02047,0,0,90.0*
1,1,0.01161,0.00443,0.00640*
1,1,0.01161,0.00443,-0.00640*
1,1,0.01161,-0.00443,-0.00640*
1,1,0.01161,-0.00443,0.00640*
%
%ADD122ROUNDEDRECTD122*%
G04:AMPARAMS|DCode=123|XSize=24.41mil|YSize=20.47mil|CornerRadius=5.81mil|HoleSize=0mil|Usage=FLASHONLY|Rotation=180.000|XOffset=0mil|YOffset=0mil|HoleType=Round|Shape=RoundedRectangle|*
%AMROUNDEDRECTD123*
21,1,0.02441,0.00886,0,0,180.0*
21,1,0.01280,0.02047,0,0,180.0*
1,1,0.01161,-0.00640,0.00443*
1,1,0.01161,0.00640,0.00443*
1,1,0.01161,0.00640,-0.00443*
1,1,0.01161,-0.00640,-0.00443*
%
%ADD123ROUNDEDRECTD123*%
G04:AMPARAMS|DCode=124|XSize=127.2mil|YSize=52mil|CornerRadius=13.5mil|HoleSize=0mil|Usage=FLASHONLY|Rotation=180.000|XOffset=0mil|YOffset=0mil|HoleType=Round|Shape=RoundedRectangle|*
%AMROUNDEDRECTD124*
21,1,0.12720,0.02500,0,0,180.0*
21,1,0.10020,0.05200,0,0,180.0*
1,1,0.02700,-0.05010,0.01250*
1,1,0.02700,0.05010,0.01250*
1,1,0.02700,0.05010,-0.01250*
1,1,0.02700,-0.05010,-0.01250*
%
%ADD124ROUNDEDRECTD124*%
G04:AMPARAMS|DCode=125|XSize=24.65mil|YSize=12.84mil|CornerRadius=2.97mil|HoleSize=0mil|Usage=FLASHONLY|Rotation=90.000|XOffset=0mil|YOffset=0mil|HoleType=Round|Shape=RoundedRectangle|*
%AMROUNDEDRECTD125*
21,1,0.02465,0.00689,0,0,90.0*
21,1,0.01870,0.01284,0,0,90.0*
1,1,0.00595,0.00345,0.00935*
1,1,0.00595,0.00345,-0.00935*
1,1,0.00595,-0.00345,-0.00935*
1,1,0.00595,-0.00345,0.00935*
%
%ADD125ROUNDEDRECTD125*%
G04:AMPARAMS|DCode=126|XSize=54.17mil|YSize=34.49mil|CornerRadius=6.22mil|HoleSize=0mil|Usage=FLASHONLY|Rotation=180.000|XOffset=0mil|YOffset=0mil|HoleType=Round|Shape=RoundedRectangle|*
%AMROUNDEDRECTD126*
21,1,0.05417,0.02205,0,0,180.0*
21,1,0.04173,0.03449,0,0,180.0*
1,1,0.01244,-0.02087,0.01102*
1,1,0.01244,0.02087,0.01102*
1,1,0.01244,0.02087,-0.01102*
1,1,0.01244,-0.02087,-0.01102*
%
%ADD126ROUNDEDRECTD126*%
G04:AMPARAMS|DCode=127|XSize=42.37mil|YSize=44.34mil|CornerRadius=5.44mil|HoleSize=0mil|Usage=FLASHONLY|Rotation=270.000|XOffset=0mil|YOffset=0mil|HoleType=Round|Shape=RoundedRectangle|*
%AMROUNDEDRECTD127*
21,1,0.04237,0.03347,0,0,270.0*
21,1,0.03150,0.04434,0,0,270.0*
1,1,0.01087,-0.01673,-0.01575*
1,1,0.01087,-0.01673,0.01575*
1,1,0.01087,0.01673,0.01575*
1,1,0.01087,0.01673,-0.01575*
%
%ADD127ROUNDEDRECTD127*%
G04:AMPARAMS|DCode=128|XSize=44.34mil|YSize=89.61mil|CornerRadius=5.63mil|HoleSize=0mil|Usage=FLASHONLY|Rotation=270.000|XOffset=0mil|YOffset=0mil|HoleType=Round|Shape=RoundedRectangle|*
%AMROUNDEDRECTD128*
21,1,0.04434,0.07835,0,0,270.0*
21,1,0.03307,0.08961,0,0,270.0*
1,1,0.01127,-0.03917,-0.01654*
1,1,0.01127,-0.03917,0.01654*
1,1,0.01127,0.03917,0.01654*
1,1,0.01127,0.03917,-0.01654*
%
%ADD128ROUNDEDRECTD128*%
G04:AMPARAMS|DCode=129|XSize=42.37mil|YSize=44.34mil|CornerRadius=5.44mil|HoleSize=0mil|Usage=FLASHONLY|Rotation=180.000|XOffset=0mil|YOffset=0mil|HoleType=Round|Shape=RoundedRectangle|*
%AMROUNDEDRECTD129*
21,1,0.04237,0.03347,0,0,180.0*
21,1,0.03150,0.04434,0,0,180.0*
1,1,0.01087,-0.01575,0.01673*
1,1,0.01087,0.01575,0.01673*
1,1,0.01087,0.01575,-0.01673*
1,1,0.01087,-0.01575,-0.01673*
%
%ADD129ROUNDEDRECTD129*%
G04:AMPARAMS|DCode=130|XSize=44.34mil|YSize=89.61mil|CornerRadius=5.63mil|HoleSize=0mil|Usage=FLASHONLY|Rotation=180.000|XOffset=0mil|YOffset=0mil|HoleType=Round|Shape=RoundedRectangle|*
%AMROUNDEDRECTD130*
21,1,0.04434,0.07835,0,0,180.0*
21,1,0.03307,0.08961,0,0,180.0*
1,1,0.01127,-0.01654,0.03917*
1,1,0.01127,0.01654,0.03917*
1,1,0.01127,0.01654,-0.03917*
1,1,0.01127,-0.01654,-0.03917*
%
%ADD130ROUNDEDRECTD130*%
G04:AMPARAMS|DCode=131|XSize=20.87mil|YSize=10.63mil|CornerRadius=4.53mil|HoleSize=0mil|Usage=FLASHONLY|Rotation=180.000|XOffset=0mil|YOffset=0mil|HoleType=Round|Shape=RoundedRectangle|*
%AMROUNDEDRECTD131*
21,1,0.02087,0.00158,0,0,180.0*
21,1,0.01181,0.01063,0,0,180.0*
1,1,0.00906,-0.00591,0.00079*
1,1,0.00906,0.00591,0.00079*
1,1,0.00906,0.00591,-0.00079*
1,1,0.00906,-0.00591,-0.00079*
%
%ADD131ROUNDEDRECTD131*%
G04:AMPARAMS|DCode=132|XSize=20.87mil|YSize=10.63mil|CornerRadius=4.53mil|HoleSize=0mil|Usage=FLASHONLY|Rotation=270.000|XOffset=0mil|YOffset=0mil|HoleType=Round|Shape=RoundedRectangle|*
%AMROUNDEDRECTD132*
21,1,0.02087,0.00158,0,0,270.0*
21,1,0.01181,0.01063,0,0,270.0*
1,1,0.00906,-0.00079,-0.00591*
1,1,0.00906,-0.00079,0.00591*
1,1,0.00906,0.00079,0.00591*
1,1,0.00906,0.00079,-0.00591*
%
%ADD132ROUNDEDRECTD132*%
G04:AMPARAMS|DCode=133|XSize=34.25mil|YSize=34.25mil|CornerRadius=4.53mil|HoleSize=0mil|Usage=FLASHONLY|Rotation=270.000|XOffset=0mil|YOffset=0mil|HoleType=Round|Shape=RoundedRectangle|*
%AMROUNDEDRECTD133*
21,1,0.03425,0.02520,0,0,270.0*
21,1,0.02520,0.03425,0,0,270.0*
1,1,0.00906,-0.01260,-0.01260*
1,1,0.00906,-0.01260,0.01260*
1,1,0.00906,0.01260,0.01260*
1,1,0.00906,0.01260,-0.01260*
%
%ADD133ROUNDEDRECTD133*%
G04:AMPARAMS|DCode=134|XSize=27.59mil|YSize=13.81mil|CornerRadius=3.95mil|HoleSize=0mil|Usage=FLASHONLY|Rotation=270.000|XOffset=0mil|YOffset=0mil|HoleType=Round|Shape=RoundedRectangle|*
%AMROUNDEDRECTD134*
21,1,0.02759,0.00591,0,0,270.0*
21,1,0.01969,0.01381,0,0,270.0*
1,1,0.00791,-0.00295,-0.00984*
1,1,0.00791,-0.00295,0.00984*
1,1,0.00791,0.00295,0.00984*
1,1,0.00791,0.00295,-0.00984*
%
%ADD134ROUNDEDRECTD134*%
G04:AMPARAMS|DCode=135|XSize=63.02mil|YSize=42.16mil|CornerRadius=5.02mil|HoleSize=0mil|Usage=FLASHONLY|Rotation=0.000|XOffset=0mil|YOffset=0mil|HoleType=Round|Shape=RoundedRectangle|*
%AMROUNDEDRECTD135*
21,1,0.06302,0.03213,0,0,0.0*
21,1,0.05299,0.04216,0,0,0.0*
1,1,0.01003,0.02649,-0.01606*
1,1,0.01003,-0.02649,-0.01606*
1,1,0.01003,-0.02649,0.01606*
1,1,0.01003,0.02649,0.01606*
%
%ADD135ROUNDEDRECTD135*%
G04:AMPARAMS|DCode=136|XSize=40.01mil|YSize=13.63mil|CornerRadius=2.83mil|HoleSize=0mil|Usage=FLASHONLY|Rotation=180.000|XOffset=0mil|YOffset=0mil|HoleType=Round|Shape=RoundedRectangle|*
%AMROUNDEDRECTD136*
21,1,0.04001,0.00797,0,0,180.0*
21,1,0.03435,0.01363,0,0,180.0*
1,1,0.00566,-0.01718,0.00399*
1,1,0.00566,0.01718,0.00399*
1,1,0.00566,0.01718,-0.00399*
1,1,0.00566,-0.01718,-0.00399*
%
%ADD136ROUNDEDRECTD136*%
%ADD137C,0.23748*%
%ADD138R,0.06206X0.06206*%
%ADD139C,0.06206*%
%ADD140C,0.02662*%
%ADD141C,0.01300*%
%ADD142C,0.04300*%
G36*
X1088476Y764981D02*
X1087576Y764081D01*
Y763781D01*
X1088476Y762881D01*
Y762781D01*
X1086776D01*
Y765081D01*
X1088476D01*
Y764981D01*
D02*
G37*
G36*
X1090376Y762781D02*
X1089576D01*
X1088576Y763781D01*
Y764081D01*
X1089576Y765081D01*
X1090376D01*
Y762781D01*
D02*
G37*
D53*
X1290528Y813564D02*
G03*
X1286362Y817730I-4166J0D01*
G01*
X1048995D02*
G03*
X1034623Y803358I0J-14372D01*
G01*
X1034623Y712769D02*
G03*
X1047891Y699502I13268J0D01*
G01*
X1276749Y699502D02*
G03*
X1290528Y713281I0J13780D01*
G01*
X1107961Y815466D02*
X1110224Y817730D01*
X1048995D02*
X1082327D01*
X1084591Y815466D01*
X1290528Y767631D02*
Y813564D01*
X1110224Y817730D02*
X1286362D01*
X1290528Y713281D02*
Y718006D01*
X1034623Y796470D02*
Y803358D01*
X1084591Y815466D02*
X1107961D01*
X1290528Y718006D02*
Y767631D01*
X1034623Y712769D02*
X1034623Y796470D01*
X1047891Y699502D02*
X1276749Y699502D01*
D102*
X1109876Y753681D02*
Y813561D01*
Y753681D02*
X1248276D01*
Y813561D01*
X1109876D02*
X1248276D01*
D103*
X1178576Y773513D02*
D03*
Y777450D02*
D03*
X1148576Y794150D02*
D03*
Y790213D02*
D03*
X1185576Y783813D02*
D03*
Y787750D02*
D03*
X1118606Y805650D02*
D03*
Y801713D02*
D03*
X1127856Y805830D02*
D03*
Y801893D02*
D03*
X1140566Y790923D02*
D03*
Y794860D02*
D03*
X1195922Y788202D02*
D03*
Y784265D02*
D03*
X1201172Y788271D02*
D03*
Y784334D02*
D03*
X1228176Y792750D02*
D03*
Y788813D02*
D03*
X1182376Y773513D02*
D03*
Y777450D02*
D03*
X1182076Y787213D02*
D03*
Y791150D02*
D03*
X1143876Y788013D02*
D03*
Y791950D02*
D03*
Y778650D02*
D03*
Y774713D02*
D03*
X1139296Y761343D02*
D03*
Y765280D02*
D03*
X1129376Y791113D02*
D03*
Y795050D02*
D03*
X1140276Y804650D02*
D03*
Y800713D02*
D03*
X1083476Y794613D02*
D03*
Y798550D02*
D03*
X1224376Y723813D02*
D03*
Y727750D02*
D03*
X1233876Y737750D02*
D03*
Y733813D02*
D03*
X1240401Y730724D02*
D03*
Y726787D02*
D03*
X1224276Y734750D02*
D03*
Y730813D02*
D03*
X1140376Y776150D02*
D03*
Y772213D02*
D03*
X1114976Y794550D02*
D03*
Y790613D02*
D03*
X1124876Y791413D02*
D03*
Y795350D02*
D03*
X1121676Y791413D02*
D03*
Y795350D02*
D03*
X1115000Y781248D02*
D03*
Y777311D02*
D03*
X1078176Y783250D02*
D03*
Y779313D02*
D03*
X1247201Y726787D02*
D03*
Y730724D02*
D03*
X1243801Y733387D02*
D03*
Y737324D02*
D03*
Y726787D02*
D03*
Y730724D02*
D03*
X1247201Y737324D02*
D03*
Y733387D02*
D03*
X1118376Y794550D02*
D03*
Y790613D02*
D03*
X1081576Y783250D02*
D03*
Y779313D02*
D03*
X1174876Y773513D02*
D03*
Y777450D02*
D03*
Y794150D02*
D03*
Y790213D02*
D03*
X1152176Y794150D02*
D03*
Y790213D02*
D03*
D104*
X1152244Y775781D02*
D03*
X1148307D02*
D03*
X1135292Y764580D02*
D03*
X1131355D02*
D03*
X1118154Y798691D02*
D03*
X1114217D02*
D03*
X1135079Y801721D02*
D03*
X1131142D02*
D03*
X1188807Y784181D02*
D03*
X1192744D02*
D03*
X1189229Y798439D02*
D03*
X1193166D02*
D03*
X1240707Y793181D02*
D03*
X1244644D02*
D03*
X1218644Y784981D02*
D03*
X1214707D02*
D03*
X1214508Y793354D02*
D03*
X1210571D02*
D03*
X1214707Y780181D02*
D03*
X1218644D02*
D03*
X1204583Y783872D02*
D03*
X1208521D02*
D03*
X1189544Y777181D02*
D03*
X1185607D02*
D03*
X1208344Y772281D02*
D03*
X1204407D02*
D03*
X1185307Y793781D02*
D03*
X1189244D02*
D03*
X1208544Y787181D02*
D03*
X1204607D02*
D03*
X1188807Y787381D02*
D03*
X1192744D02*
D03*
X1207717Y776524D02*
D03*
X1211654D02*
D03*
X1128907Y787281D02*
D03*
X1132844D02*
D03*
X1126237Y772848D02*
D03*
X1130174D02*
D03*
X1223207Y767281D02*
D03*
X1227144D02*
D03*
X1224444Y775181D02*
D03*
X1220507D02*
D03*
X1227205D02*
D03*
X1231142D02*
D03*
X1240707Y788681D02*
D03*
X1244644D02*
D03*
X1140144Y779681D02*
D03*
X1136207D02*
D03*
X1140244Y787281D02*
D03*
X1136307D02*
D03*
X1128807Y779681D02*
D03*
X1132744D02*
D03*
X1165844Y727781D02*
D03*
X1161907D02*
D03*
X1223207Y771281D02*
D03*
X1227144D02*
D03*
X1158344Y783581D02*
D03*
X1154407D02*
D03*
D105*
X1163576Y787329D02*
D03*
Y794633D02*
D03*
Y773329D02*
D03*
Y780633D02*
D03*
D106*
X1169973Y790981D02*
D03*
X1157178D02*
D03*
X1169973Y776981D02*
D03*
X1157178D02*
D03*
D107*
X1215676Y730181D02*
D03*
X1170476Y798881D02*
D03*
X1213676Y803381D02*
D03*
X1207676D02*
D03*
X1168176Y769281D02*
D03*
X1121976Y770781D02*
D03*
X1213376Y769081D02*
D03*
X1240276Y761081D02*
D03*
X1196476Y748781D02*
D03*
X1215676Y735581D02*
D03*
X1243776Y723181D02*
D03*
X1213377Y742264D02*
D03*
D108*
X1103954Y806327D02*
D03*
Y812035D02*
D03*
X1088797Y806327D02*
D03*
Y812035D02*
D03*
D109*
X1242376Y748070D02*
D03*
Y741692D02*
D03*
X1237476Y748070D02*
D03*
Y741692D02*
D03*
X1070636Y811800D02*
D03*
Y805422D02*
D03*
X1075456Y811820D02*
D03*
Y805442D02*
D03*
D110*
X1262065Y766181D02*
D03*
X1255687D02*
D03*
X1262065Y761381D02*
D03*
X1255687D02*
D03*
X1262065Y775181D02*
D03*
X1255687D02*
D03*
X1262065Y779881D02*
D03*
X1255687D02*
D03*
D111*
X1266887Y749127D02*
D03*
Y744797D02*
D03*
X1267433Y801128D02*
D03*
Y796797D02*
D03*
D112*
X1121716Y801681D02*
D03*
X1124716D02*
D03*
X1217583Y789713D02*
D03*
X1214583D02*
D03*
X1188776Y773581D02*
D03*
X1185776D02*
D03*
X1217576Y776181D02*
D03*
X1214576D02*
D03*
X1235276Y788681D02*
D03*
X1238276D02*
D03*
D113*
X1232276Y791681D02*
D03*
Y788681D02*
D03*
X1244576Y799781D02*
D03*
Y796781D02*
D03*
X1181776D02*
D03*
Y793781D02*
D03*
D114*
X1176676Y762981D02*
D03*
X1172676D02*
D03*
X1215276Y724481D02*
D03*
X1211276D02*
D03*
X1208276Y765581D02*
D03*
X1204276D02*
D03*
X1204366Y768759D02*
D03*
X1208366D02*
D03*
X1086476Y763931D02*
D03*
X1090476D02*
D03*
X1073176Y724881D02*
D03*
X1077176D02*
D03*
X1114176Y727781D02*
D03*
X1118176D02*
D03*
D115*
X1175976Y804381D02*
D03*
Y808381D02*
D03*
X1176676Y765781D02*
D03*
Y769781D02*
D03*
X1070676Y802081D02*
D03*
Y798081D02*
D03*
X1075476Y802081D02*
D03*
Y798081D02*
D03*
X1080176Y798681D02*
D03*
Y794681D02*
D03*
X1172776Y804381D02*
D03*
Y808381D02*
D03*
X1196376Y728481D02*
D03*
Y724481D02*
D03*
X1189776Y728481D02*
D03*
Y724481D02*
D03*
X1230676Y737781D02*
D03*
Y733781D02*
D03*
D116*
X1197028Y775638D02*
D03*
X1200532Y794535D02*
D03*
D117*
X1200906Y772685D02*
D03*
Y774654D02*
D03*
Y776622D02*
D03*
Y778591D02*
D03*
X1193150Y772685D02*
D03*
Y774654D02*
D03*
Y776622D02*
D03*
Y778591D02*
D03*
X1196654Y797488D02*
D03*
Y795520D02*
D03*
Y793551D02*
D03*
Y791583D02*
D03*
X1204410Y797488D02*
D03*
Y795520D02*
D03*
Y793551D02*
D03*
Y791583D02*
D03*
D118*
X1063876Y793081D02*
D03*
X1082976Y726781D02*
D03*
X1283127Y770886D02*
D03*
D119*
X1280174Y783114D02*
D03*
Y810614D02*
D03*
Y730948D02*
D03*
Y758448D02*
D03*
D120*
Y796864D02*
D03*
Y744698D02*
D03*
D121*
X1180725Y808478D02*
D03*
X1189072Y804738D02*
D03*
X1180725Y800998D02*
D03*
X1181402Y769221D02*
D03*
X1189749Y765481D02*
D03*
X1181402Y761741D02*
D03*
D122*
X1226849Y763781D02*
D03*
X1223503D02*
D03*
X1237102Y737781D02*
D03*
X1240448D02*
D03*
X1237102Y733781D02*
D03*
X1240448D02*
D03*
D123*
X1192375Y793855D02*
D03*
Y790508D02*
D03*
X1204567Y776622D02*
D03*
Y779968D02*
D03*
D124*
X1046985Y783478D02*
D03*
Y773478D02*
D03*
Y763478D02*
D03*
Y753478D02*
D03*
Y743478D02*
D03*
Y733478D02*
D03*
X1068481Y783478D02*
D03*
Y773478D02*
D03*
Y763478D02*
D03*
Y753478D02*
D03*
Y743478D02*
D03*
Y733478D02*
D03*
D125*
X1174907Y780435D02*
D03*
X1176876D02*
D03*
X1178844D02*
D03*
Y787127D02*
D03*
X1176876D02*
D03*
X1174907D02*
D03*
X1147027Y780325D02*
D03*
X1148996D02*
D03*
X1150964D02*
D03*
Y787018D02*
D03*
X1148996D02*
D03*
X1147027D02*
D03*
X1137047Y776327D02*
D03*
X1135079D02*
D03*
X1133110D02*
D03*
Y769634D02*
D03*
X1135079D02*
D03*
X1137047D02*
D03*
X1133110Y790894D02*
D03*
X1135079D02*
D03*
X1137047D02*
D03*
Y797587D02*
D03*
X1135079D02*
D03*
X1133110D02*
D03*
D126*
X1176876Y783781D02*
D03*
X1148996Y783671D02*
D03*
X1135079Y772980D02*
D03*
Y794240D02*
D03*
D127*
X1094472Y763981D02*
D03*
D128*
X1100476Y769788D02*
D03*
Y758174D02*
D03*
D129*
X1149276Y771585D02*
D03*
X1152846Y799577D02*
D03*
D130*
X1155083Y765581D02*
D03*
X1143468D02*
D03*
X1147038Y805581D02*
D03*
X1158653D02*
D03*
D131*
X1125354Y781248D02*
D03*
Y783217D02*
D03*
Y785185D02*
D03*
X1118032D02*
D03*
Y783217D02*
D03*
Y781248D02*
D03*
X1222756Y784004D02*
D03*
Y782035D02*
D03*
Y780067D02*
D03*
X1230079D02*
D03*
Y782035D02*
D03*
Y784004D02*
D03*
D132*
X1123662Y786878D02*
D03*
X1121693D02*
D03*
X1119724D02*
D03*
Y779555D02*
D03*
X1121693D02*
D03*
X1123662D02*
D03*
X1224449Y778374D02*
D03*
X1226417D02*
D03*
X1228386D02*
D03*
Y785697D02*
D03*
X1226417D02*
D03*
X1224449D02*
D03*
D133*
X1121693Y783217D02*
D03*
X1226417Y782035D02*
D03*
D134*
X1255270Y737290D02*
D03*
X1253301D02*
D03*
X1251332D02*
D03*
Y729022D02*
D03*
X1253301D02*
D03*
X1255270D02*
D03*
D135*
X1253301Y733156D02*
D03*
D136*
X1233856Y727413D02*
D03*
Y729381D02*
D03*
Y731350D02*
D03*
X1228895D02*
D03*
Y729381D02*
D03*
Y727413D02*
D03*
D137*
X1276749Y713281D02*
D03*
X1048402Y803832D02*
D03*
Y713281D02*
D03*
D138*
X1257576Y718281D02*
D03*
D139*
Y708281D02*
D03*
X1247576Y718281D02*
D03*
Y708281D02*
D03*
X1237576Y718281D02*
D03*
Y708281D02*
D03*
X1227576Y718281D02*
D03*
Y708281D02*
D03*
X1217576Y718281D02*
D03*
Y708281D02*
D03*
X1207576Y718281D02*
D03*
Y708281D02*
D03*
X1197576Y718281D02*
D03*
Y708281D02*
D03*
X1187576Y718281D02*
D03*
Y708281D02*
D03*
X1177576Y718281D02*
D03*
Y708281D02*
D03*
X1167576Y718281D02*
D03*
Y708281D02*
D03*
X1157576Y718281D02*
D03*
Y708281D02*
D03*
X1147576Y718281D02*
D03*
Y708281D02*
D03*
X1137576Y718281D02*
D03*
Y708281D02*
D03*
X1127576Y718281D02*
D03*
Y708281D02*
D03*
X1117576Y718281D02*
D03*
Y708281D02*
D03*
X1107576Y718281D02*
D03*
Y708281D02*
D03*
X1067576D02*
D03*
Y718281D02*
D03*
X1077576Y708281D02*
D03*
Y718281D02*
D03*
X1087576Y708281D02*
D03*
Y718281D02*
D03*
X1097576Y708281D02*
D03*
Y718281D02*
D03*
D140*
X1088403Y812331D02*
D03*
X1104348D02*
D03*
D141*
X1167576Y795681D02*
D03*
D142*
X1248276Y813561D02*
D03*
X1110176D02*
D03*
M02*
